G04 #@! TF.GenerationSoftware,KiCad,Pcbnew,9.0.2*
G04 #@! TF.CreationDate,2025-09-01T17:42:29-04:00*
G04 #@! TF.ProjectId,Trackball,54726163-6b62-4616-9c6c-2e6b69636164,rev?*
G04 #@! TF.SameCoordinates,Original*
G04 #@! TF.FileFunction,Legend,Bot*
G04 #@! TF.FilePolarity,Positive*
%FSLAX46Y46*%
G04 Gerber Fmt 4.6, Leading zero omitted, Abs format (unit mm)*
G04 Created by KiCad (PCBNEW 9.0.2) date 2025-09-01 17:42:29*
%MOMM*%
%LPD*%
G01*
G04 APERTURE LIST*
%ADD10C,0.300000*%
%ADD11C,0.150000*%
%ADD12C,0.254000*%
%ADD13C,0.120000*%
%ADD14C,0.100000*%
G04 APERTURE END LIST*
D10*
X123975800Y-123824949D02*
X123975800Y-125324949D01*
X123975800Y-125324949D02*
X124547229Y-125324949D01*
X124547229Y-125324949D02*
X124690086Y-125253520D01*
X124690086Y-125253520D02*
X124761515Y-125182092D01*
X124761515Y-125182092D02*
X124832943Y-125039235D01*
X124832943Y-125039235D02*
X124832943Y-124824949D01*
X124832943Y-124824949D02*
X124761515Y-124682092D01*
X124761515Y-124682092D02*
X124690086Y-124610663D01*
X124690086Y-124610663D02*
X124547229Y-124539235D01*
X124547229Y-124539235D02*
X123975800Y-124539235D01*
X125475800Y-123824949D02*
X125475800Y-124824949D01*
X125475800Y-124539235D02*
X125547229Y-124682092D01*
X125547229Y-124682092D02*
X125618658Y-124753520D01*
X125618658Y-124753520D02*
X125761515Y-124824949D01*
X125761515Y-124824949D02*
X125904372Y-124824949D01*
X126618657Y-123824949D02*
X126475800Y-123896378D01*
X126475800Y-123896378D02*
X126404371Y-123967806D01*
X126404371Y-123967806D02*
X126332943Y-124110663D01*
X126332943Y-124110663D02*
X126332943Y-124539235D01*
X126332943Y-124539235D02*
X126404371Y-124682092D01*
X126404371Y-124682092D02*
X126475800Y-124753520D01*
X126475800Y-124753520D02*
X126618657Y-124824949D01*
X126618657Y-124824949D02*
X126832943Y-124824949D01*
X126832943Y-124824949D02*
X126975800Y-124753520D01*
X126975800Y-124753520D02*
X127047229Y-124682092D01*
X127047229Y-124682092D02*
X127118657Y-124539235D01*
X127118657Y-124539235D02*
X127118657Y-124110663D01*
X127118657Y-124110663D02*
X127047229Y-123967806D01*
X127047229Y-123967806D02*
X126975800Y-123896378D01*
X126975800Y-123896378D02*
X126832943Y-123824949D01*
X126832943Y-123824949D02*
X126618657Y-123824949D01*
X127761514Y-123824949D02*
X127761514Y-125324949D01*
X127761514Y-125324949D02*
X128261514Y-124253520D01*
X128261514Y-124253520D02*
X128761514Y-125324949D01*
X128761514Y-125324949D02*
X128761514Y-123824949D01*
X129475800Y-123824949D02*
X129475800Y-124824949D01*
X129475800Y-125324949D02*
X129404372Y-125253520D01*
X129404372Y-125253520D02*
X129475800Y-125182092D01*
X129475800Y-125182092D02*
X129547229Y-125253520D01*
X129547229Y-125253520D02*
X129475800Y-125324949D01*
X129475800Y-125324949D02*
X129475800Y-125182092D01*
X130832944Y-123896378D02*
X130690086Y-123824949D01*
X130690086Y-123824949D02*
X130404372Y-123824949D01*
X130404372Y-123824949D02*
X130261515Y-123896378D01*
X130261515Y-123896378D02*
X130190086Y-123967806D01*
X130190086Y-123967806D02*
X130118658Y-124110663D01*
X130118658Y-124110663D02*
X130118658Y-124539235D01*
X130118658Y-124539235D02*
X130190086Y-124682092D01*
X130190086Y-124682092D02*
X130261515Y-124753520D01*
X130261515Y-124753520D02*
X130404372Y-124824949D01*
X130404372Y-124824949D02*
X130690086Y-124824949D01*
X130690086Y-124824949D02*
X130832944Y-124753520D01*
X131475800Y-123824949D02*
X131475800Y-124824949D01*
X131475800Y-124539235D02*
X131547229Y-124682092D01*
X131547229Y-124682092D02*
X131618658Y-124753520D01*
X131618658Y-124753520D02*
X131761515Y-124824949D01*
X131761515Y-124824949D02*
X131904372Y-124824949D01*
X132618657Y-123824949D02*
X132475800Y-123896378D01*
X132475800Y-123896378D02*
X132404371Y-123967806D01*
X132404371Y-123967806D02*
X132332943Y-124110663D01*
X132332943Y-124110663D02*
X132332943Y-124539235D01*
X132332943Y-124539235D02*
X132404371Y-124682092D01*
X132404371Y-124682092D02*
X132475800Y-124753520D01*
X132475800Y-124753520D02*
X132618657Y-124824949D01*
X132618657Y-124824949D02*
X132832943Y-124824949D01*
X132832943Y-124824949D02*
X132975800Y-124753520D01*
X132975800Y-124753520D02*
X133047229Y-124682092D01*
X133047229Y-124682092D02*
X133118657Y-124539235D01*
X133118657Y-124539235D02*
X133118657Y-124110663D01*
X133118657Y-124110663D02*
X133047229Y-123967806D01*
X133047229Y-123967806D02*
X132975800Y-123896378D01*
X132975800Y-123896378D02*
X132832943Y-123824949D01*
X132832943Y-123824949D02*
X132618657Y-123824949D01*
X123975800Y-121410033D02*
X123975800Y-122910033D01*
X124618658Y-121410033D02*
X124618658Y-122195747D01*
X124618658Y-122195747D02*
X124547229Y-122338604D01*
X124547229Y-122338604D02*
X124404372Y-122410033D01*
X124404372Y-122410033D02*
X124190086Y-122410033D01*
X124190086Y-122410033D02*
X124047229Y-122338604D01*
X124047229Y-122338604D02*
X123975800Y-122267176D01*
X125904372Y-121481462D02*
X125761515Y-121410033D01*
X125761515Y-121410033D02*
X125475801Y-121410033D01*
X125475801Y-121410033D02*
X125332943Y-121481462D01*
X125332943Y-121481462D02*
X125261515Y-121624319D01*
X125261515Y-121624319D02*
X125261515Y-122195747D01*
X125261515Y-122195747D02*
X125332943Y-122338604D01*
X125332943Y-122338604D02*
X125475801Y-122410033D01*
X125475801Y-122410033D02*
X125761515Y-122410033D01*
X125761515Y-122410033D02*
X125904372Y-122338604D01*
X125904372Y-122338604D02*
X125975801Y-122195747D01*
X125975801Y-122195747D02*
X125975801Y-122052890D01*
X125975801Y-122052890D02*
X125261515Y-121910033D01*
X126618657Y-121410033D02*
X126618657Y-122410033D01*
X126618657Y-122124319D02*
X126690086Y-122267176D01*
X126690086Y-122267176D02*
X126761515Y-122338604D01*
X126761515Y-122338604D02*
X126904372Y-122410033D01*
X126904372Y-122410033D02*
X127047229Y-122410033D01*
X128118657Y-121481462D02*
X127975800Y-121410033D01*
X127975800Y-121410033D02*
X127690086Y-121410033D01*
X127690086Y-121410033D02*
X127547228Y-121481462D01*
X127547228Y-121481462D02*
X127475800Y-121624319D01*
X127475800Y-121624319D02*
X127475800Y-122195747D01*
X127475800Y-122195747D02*
X127547228Y-122338604D01*
X127547228Y-122338604D02*
X127690086Y-122410033D01*
X127690086Y-122410033D02*
X127975800Y-122410033D01*
X127975800Y-122410033D02*
X128118657Y-122338604D01*
X128118657Y-122338604D02*
X128190086Y-122195747D01*
X128190086Y-122195747D02*
X128190086Y-122052890D01*
X128190086Y-122052890D02*
X127475800Y-121910033D01*
X123761515Y-119995117D02*
X124332943Y-119995117D01*
X123975800Y-118995117D02*
X123975800Y-120280831D01*
X123975800Y-120280831D02*
X124047229Y-120423688D01*
X124047229Y-120423688D02*
X124190086Y-120495117D01*
X124190086Y-120495117D02*
X124332943Y-120495117D01*
X125475801Y-118995117D02*
X125475801Y-119780831D01*
X125475801Y-119780831D02*
X125404372Y-119923688D01*
X125404372Y-119923688D02*
X125261515Y-119995117D01*
X125261515Y-119995117D02*
X124975801Y-119995117D01*
X124975801Y-119995117D02*
X124832943Y-119923688D01*
X125475801Y-119066546D02*
X125332943Y-118995117D01*
X125332943Y-118995117D02*
X124975801Y-118995117D01*
X124975801Y-118995117D02*
X124832943Y-119066546D01*
X124832943Y-119066546D02*
X124761515Y-119209403D01*
X124761515Y-119209403D02*
X124761515Y-119352260D01*
X124761515Y-119352260D02*
X124832943Y-119495117D01*
X124832943Y-119495117D02*
X124975801Y-119566546D01*
X124975801Y-119566546D02*
X125332943Y-119566546D01*
X125332943Y-119566546D02*
X125475801Y-119637974D01*
X126832944Y-119066546D02*
X126690086Y-118995117D01*
X126690086Y-118995117D02*
X126404372Y-118995117D01*
X126404372Y-118995117D02*
X126261515Y-119066546D01*
X126261515Y-119066546D02*
X126190086Y-119137974D01*
X126190086Y-119137974D02*
X126118658Y-119280831D01*
X126118658Y-119280831D02*
X126118658Y-119709403D01*
X126118658Y-119709403D02*
X126190086Y-119852260D01*
X126190086Y-119852260D02*
X126261515Y-119923688D01*
X126261515Y-119923688D02*
X126404372Y-119995117D01*
X126404372Y-119995117D02*
X126690086Y-119995117D01*
X126690086Y-119995117D02*
X126832944Y-119923688D01*
X128047229Y-119066546D02*
X127904372Y-118995117D01*
X127904372Y-118995117D02*
X127618658Y-118995117D01*
X127618658Y-118995117D02*
X127475800Y-119066546D01*
X127475800Y-119066546D02*
X127404372Y-119209403D01*
X127404372Y-119209403D02*
X127404372Y-119780831D01*
X127404372Y-119780831D02*
X127475800Y-119923688D01*
X127475800Y-119923688D02*
X127618658Y-119995117D01*
X127618658Y-119995117D02*
X127904372Y-119995117D01*
X127904372Y-119995117D02*
X128047229Y-119923688D01*
X128047229Y-119923688D02*
X128118658Y-119780831D01*
X128118658Y-119780831D02*
X128118658Y-119637974D01*
X128118658Y-119637974D02*
X127404372Y-119495117D01*
X124618658Y-116580201D02*
X124618658Y-118080201D01*
X124618658Y-116651630D02*
X124475800Y-116580201D01*
X124475800Y-116580201D02*
X124190086Y-116580201D01*
X124190086Y-116580201D02*
X124047229Y-116651630D01*
X124047229Y-116651630D02*
X123975800Y-116723058D01*
X123975800Y-116723058D02*
X123904372Y-116865915D01*
X123904372Y-116865915D02*
X123904372Y-117294487D01*
X123904372Y-117294487D02*
X123975800Y-117437344D01*
X123975800Y-117437344D02*
X124047229Y-117508772D01*
X124047229Y-117508772D02*
X124190086Y-117580201D01*
X124190086Y-117580201D02*
X124475800Y-117580201D01*
X124475800Y-117580201D02*
X124618658Y-117508772D01*
X125547229Y-116580201D02*
X125404372Y-116651630D01*
X125404372Y-116651630D02*
X125332943Y-116723058D01*
X125332943Y-116723058D02*
X125261515Y-116865915D01*
X125261515Y-116865915D02*
X125261515Y-117294487D01*
X125261515Y-117294487D02*
X125332943Y-117437344D01*
X125332943Y-117437344D02*
X125404372Y-117508772D01*
X125404372Y-117508772D02*
X125547229Y-117580201D01*
X125547229Y-117580201D02*
X125761515Y-117580201D01*
X125761515Y-117580201D02*
X125904372Y-117508772D01*
X125904372Y-117508772D02*
X125975801Y-117437344D01*
X125975801Y-117437344D02*
X126047229Y-117294487D01*
X126047229Y-117294487D02*
X126047229Y-116865915D01*
X126047229Y-116865915D02*
X125975801Y-116723058D01*
X125975801Y-116723058D02*
X125904372Y-116651630D01*
X125904372Y-116651630D02*
X125761515Y-116580201D01*
X125761515Y-116580201D02*
X125547229Y-116580201D01*
X126547229Y-117580201D02*
X126832944Y-116580201D01*
X126832944Y-116580201D02*
X127118658Y-117294487D01*
X127118658Y-117294487D02*
X127404372Y-116580201D01*
X127404372Y-116580201D02*
X127690086Y-117580201D01*
X128261515Y-117580201D02*
X128261515Y-116580201D01*
X128261515Y-117437344D02*
X128332944Y-117508772D01*
X128332944Y-117508772D02*
X128475801Y-117580201D01*
X128475801Y-117580201D02*
X128690087Y-117580201D01*
X128690087Y-117580201D02*
X128832944Y-117508772D01*
X128832944Y-117508772D02*
X128904373Y-117365915D01*
X128904373Y-117365915D02*
X128904373Y-116580201D01*
D11*
X146935575Y-130840905D02*
X147411765Y-130840905D01*
X147411765Y-130840905D02*
X147411765Y-129840905D01*
X146602241Y-130317095D02*
X146268908Y-130317095D01*
X146126051Y-130840905D02*
X146602241Y-130840905D01*
X146602241Y-130840905D02*
X146602241Y-129840905D01*
X146602241Y-129840905D02*
X146126051Y-129840905D01*
X145364146Y-130317095D02*
X145697479Y-130317095D01*
X145697479Y-130840905D02*
X145697479Y-129840905D01*
X145697479Y-129840905D02*
X145221289Y-129840905D01*
X144983193Y-129840905D02*
X144411765Y-129840905D01*
X144697479Y-130840905D02*
X144697479Y-129840905D01*
X144078431Y-130459952D02*
X143316527Y-130459952D01*
X142268908Y-130840905D02*
X142602241Y-130364714D01*
X142840336Y-130840905D02*
X142840336Y-129840905D01*
X142840336Y-129840905D02*
X142459384Y-129840905D01*
X142459384Y-129840905D02*
X142364146Y-129888524D01*
X142364146Y-129888524D02*
X142316527Y-129936143D01*
X142316527Y-129936143D02*
X142268908Y-130031381D01*
X142268908Y-130031381D02*
X142268908Y-130174238D01*
X142268908Y-130174238D02*
X142316527Y-130269476D01*
X142316527Y-130269476D02*
X142364146Y-130317095D01*
X142364146Y-130317095D02*
X142459384Y-130364714D01*
X142459384Y-130364714D02*
X142840336Y-130364714D01*
X141840336Y-130840905D02*
X141840336Y-129840905D01*
X140840337Y-129888524D02*
X140935575Y-129840905D01*
X140935575Y-129840905D02*
X141078432Y-129840905D01*
X141078432Y-129840905D02*
X141221289Y-129888524D01*
X141221289Y-129888524D02*
X141316527Y-129983762D01*
X141316527Y-129983762D02*
X141364146Y-130079000D01*
X141364146Y-130079000D02*
X141411765Y-130269476D01*
X141411765Y-130269476D02*
X141411765Y-130412333D01*
X141411765Y-130412333D02*
X141364146Y-130602809D01*
X141364146Y-130602809D02*
X141316527Y-130698047D01*
X141316527Y-130698047D02*
X141221289Y-130793286D01*
X141221289Y-130793286D02*
X141078432Y-130840905D01*
X141078432Y-130840905D02*
X140983194Y-130840905D01*
X140983194Y-130840905D02*
X140840337Y-130793286D01*
X140840337Y-130793286D02*
X140792718Y-130745666D01*
X140792718Y-130745666D02*
X140792718Y-130412333D01*
X140792718Y-130412333D02*
X140983194Y-130412333D01*
X140364146Y-130840905D02*
X140364146Y-129840905D01*
X140364146Y-130317095D02*
X139792718Y-130317095D01*
X139792718Y-130840905D02*
X139792718Y-129840905D01*
X139459384Y-129840905D02*
X138887956Y-129840905D01*
X139173670Y-130840905D02*
X139173670Y-129840905D01*
X144959384Y-132450849D02*
X144959384Y-131450849D01*
X144959384Y-131927039D02*
X144387956Y-131927039D01*
X144387956Y-132450849D02*
X144387956Y-131450849D01*
X143959384Y-132165134D02*
X143483194Y-132165134D01*
X144054622Y-132450849D02*
X143721289Y-131450849D01*
X143721289Y-131450849D02*
X143387956Y-132450849D01*
X143054622Y-132450849D02*
X143054622Y-131450849D01*
X143054622Y-131450849D02*
X142483194Y-132450849D01*
X142483194Y-132450849D02*
X142483194Y-131450849D01*
X142007003Y-132450849D02*
X142007003Y-131450849D01*
X142007003Y-131450849D02*
X141768908Y-131450849D01*
X141768908Y-131450849D02*
X141626051Y-131498468D01*
X141626051Y-131498468D02*
X141530813Y-131593706D01*
X141530813Y-131593706D02*
X141483194Y-131688944D01*
X141483194Y-131688944D02*
X141435575Y-131879420D01*
X141435575Y-131879420D02*
X141435575Y-132022277D01*
X141435575Y-132022277D02*
X141483194Y-132212753D01*
X141483194Y-132212753D02*
X141530813Y-132307991D01*
X141530813Y-132307991D02*
X141626051Y-132403230D01*
X141626051Y-132403230D02*
X141768908Y-132450849D01*
X141768908Y-132450849D02*
X142007003Y-132450849D01*
X118592367Y-119094250D02*
X118592367Y-118332346D01*
X118211414Y-118713298D02*
X118973319Y-118713298D01*
X118735224Y-117522822D02*
X118687605Y-117379965D01*
X118687605Y-117379965D02*
X118639986Y-117332346D01*
X118639986Y-117332346D02*
X118544748Y-117284727D01*
X118544748Y-117284727D02*
X118401891Y-117284727D01*
X118401891Y-117284727D02*
X118306653Y-117332346D01*
X118306653Y-117332346D02*
X118259034Y-117379965D01*
X118259034Y-117379965D02*
X118211414Y-117475203D01*
X118211414Y-117475203D02*
X118211414Y-117856155D01*
X118211414Y-117856155D02*
X119211414Y-117856155D01*
X119211414Y-117856155D02*
X119211414Y-117522822D01*
X119211414Y-117522822D02*
X119163795Y-117427584D01*
X119163795Y-117427584D02*
X119116176Y-117379965D01*
X119116176Y-117379965D02*
X119020938Y-117332346D01*
X119020938Y-117332346D02*
X118925700Y-117332346D01*
X118925700Y-117332346D02*
X118830462Y-117379965D01*
X118830462Y-117379965D02*
X118782843Y-117427584D01*
X118782843Y-117427584D02*
X118735224Y-117522822D01*
X118735224Y-117522822D02*
X118735224Y-117856155D01*
X118211414Y-116427584D02*
X118735224Y-116427584D01*
X118735224Y-116427584D02*
X118830462Y-116475203D01*
X118830462Y-116475203D02*
X118878081Y-116570441D01*
X118878081Y-116570441D02*
X118878081Y-116760917D01*
X118878081Y-116760917D02*
X118830462Y-116856155D01*
X118259034Y-116427584D02*
X118211414Y-116522822D01*
X118211414Y-116522822D02*
X118211414Y-116760917D01*
X118211414Y-116760917D02*
X118259034Y-116856155D01*
X118259034Y-116856155D02*
X118354272Y-116903774D01*
X118354272Y-116903774D02*
X118449510Y-116903774D01*
X118449510Y-116903774D02*
X118544748Y-116856155D01*
X118544748Y-116856155D02*
X118592367Y-116760917D01*
X118592367Y-116760917D02*
X118592367Y-116522822D01*
X118592367Y-116522822D02*
X118639986Y-116427584D01*
X118878081Y-116094250D02*
X118878081Y-115713298D01*
X119211414Y-115951393D02*
X118354272Y-115951393D01*
X118354272Y-115951393D02*
X118259034Y-115903774D01*
X118259034Y-115903774D02*
X118211414Y-115808536D01*
X118211414Y-115808536D02*
X118211414Y-115713298D01*
X118878081Y-115522821D02*
X118878081Y-115141869D01*
X119211414Y-115379964D02*
X118354272Y-115379964D01*
X118354272Y-115379964D02*
X118259034Y-115332345D01*
X118259034Y-115332345D02*
X118211414Y-115237107D01*
X118211414Y-115237107D02*
X118211414Y-115141869D01*
X118259034Y-114427583D02*
X118211414Y-114522821D01*
X118211414Y-114522821D02*
X118211414Y-114713297D01*
X118211414Y-114713297D02*
X118259034Y-114808535D01*
X118259034Y-114808535D02*
X118354272Y-114856154D01*
X118354272Y-114856154D02*
X118735224Y-114856154D01*
X118735224Y-114856154D02*
X118830462Y-114808535D01*
X118830462Y-114808535D02*
X118878081Y-114713297D01*
X118878081Y-114713297D02*
X118878081Y-114522821D01*
X118878081Y-114522821D02*
X118830462Y-114427583D01*
X118830462Y-114427583D02*
X118735224Y-114379964D01*
X118735224Y-114379964D02*
X118639986Y-114379964D01*
X118639986Y-114379964D02*
X118544748Y-114856154D01*
X118211414Y-113951392D02*
X118878081Y-113951392D01*
X118687605Y-113951392D02*
X118782843Y-113903773D01*
X118782843Y-113903773D02*
X118830462Y-113856154D01*
X118830462Y-113856154D02*
X118878081Y-113760916D01*
X118878081Y-113760916D02*
X118878081Y-113665678D01*
X118878081Y-113427582D02*
X118211414Y-113189487D01*
X118878081Y-112951392D02*
X118211414Y-113189487D01*
X118211414Y-113189487D02*
X117973319Y-113284725D01*
X117973319Y-113284725D02*
X117925700Y-113332344D01*
X117925700Y-113332344D02*
X117878081Y-113427582D01*
X116220518Y-118046631D02*
X116268137Y-118094250D01*
X116268137Y-118094250D02*
X116410994Y-118189488D01*
X116410994Y-118189488D02*
X116506232Y-118237107D01*
X116506232Y-118237107D02*
X116649090Y-118284726D01*
X116649090Y-118284726D02*
X116887185Y-118332345D01*
X116887185Y-118332345D02*
X117077661Y-118332345D01*
X117077661Y-118332345D02*
X117315756Y-118284726D01*
X117315756Y-118284726D02*
X117458613Y-118237107D01*
X117458613Y-118237107D02*
X117553851Y-118189488D01*
X117553851Y-118189488D02*
X117696709Y-118094250D01*
X117696709Y-118094250D02*
X117744328Y-118046631D01*
X116601470Y-117094250D02*
X117077661Y-117427583D01*
X116601470Y-117665678D02*
X117601470Y-117665678D01*
X117601470Y-117665678D02*
X117601470Y-117284726D01*
X117601470Y-117284726D02*
X117553851Y-117189488D01*
X117553851Y-117189488D02*
X117506232Y-117141869D01*
X117506232Y-117141869D02*
X117410994Y-117094250D01*
X117410994Y-117094250D02*
X117268137Y-117094250D01*
X117268137Y-117094250D02*
X117172899Y-117141869D01*
X117172899Y-117141869D02*
X117125280Y-117189488D01*
X117125280Y-117189488D02*
X117077661Y-117284726D01*
X117077661Y-117284726D02*
X117077661Y-117665678D01*
X116649090Y-116284726D02*
X116601470Y-116379964D01*
X116601470Y-116379964D02*
X116601470Y-116570440D01*
X116601470Y-116570440D02*
X116649090Y-116665678D01*
X116649090Y-116665678D02*
X116744328Y-116713297D01*
X116744328Y-116713297D02*
X117125280Y-116713297D01*
X117125280Y-116713297D02*
X117220518Y-116665678D01*
X117220518Y-116665678D02*
X117268137Y-116570440D01*
X117268137Y-116570440D02*
X117268137Y-116379964D01*
X117268137Y-116379964D02*
X117220518Y-116284726D01*
X117220518Y-116284726D02*
X117125280Y-116237107D01*
X117125280Y-116237107D02*
X117030042Y-116237107D01*
X117030042Y-116237107D02*
X116934804Y-116713297D01*
X116601470Y-115379964D02*
X117601470Y-115379964D01*
X116649090Y-115379964D02*
X116601470Y-115475202D01*
X116601470Y-115475202D02*
X116601470Y-115665678D01*
X116601470Y-115665678D02*
X116649090Y-115760916D01*
X116649090Y-115760916D02*
X116696709Y-115808535D01*
X116696709Y-115808535D02*
X116791947Y-115856154D01*
X116791947Y-115856154D02*
X117077661Y-115856154D01*
X117077661Y-115856154D02*
X117172899Y-115808535D01*
X117172899Y-115808535D02*
X117220518Y-115760916D01*
X117220518Y-115760916D02*
X117268137Y-115665678D01*
X117268137Y-115665678D02*
X117268137Y-115475202D01*
X117268137Y-115475202D02*
X117220518Y-115379964D01*
X116220518Y-114999011D02*
X116268137Y-114951392D01*
X116268137Y-114951392D02*
X116410994Y-114856154D01*
X116410994Y-114856154D02*
X116506232Y-114808535D01*
X116506232Y-114808535D02*
X116649090Y-114760916D01*
X116649090Y-114760916D02*
X116887185Y-114713297D01*
X116887185Y-114713297D02*
X117077661Y-114713297D01*
X117077661Y-114713297D02*
X117315756Y-114760916D01*
X117315756Y-114760916D02*
X117458613Y-114808535D01*
X117458613Y-114808535D02*
X117553851Y-114856154D01*
X117553851Y-114856154D02*
X117696709Y-114951392D01*
X117696709Y-114951392D02*
X117744328Y-114999011D01*
D10*
X102420461Y-112619376D02*
X103134747Y-113119376D01*
X102420461Y-113476519D02*
X103920461Y-113476519D01*
X103920461Y-113476519D02*
X103920461Y-112905090D01*
X103920461Y-112905090D02*
X103849032Y-112762233D01*
X103849032Y-112762233D02*
X103777604Y-112690804D01*
X103777604Y-112690804D02*
X103634747Y-112619376D01*
X103634747Y-112619376D02*
X103420461Y-112619376D01*
X103420461Y-112619376D02*
X103277604Y-112690804D01*
X103277604Y-112690804D02*
X103206175Y-112762233D01*
X103206175Y-112762233D02*
X103134747Y-112905090D01*
X103134747Y-112905090D02*
X103134747Y-113476519D01*
X103206175Y-111976519D02*
X103206175Y-111476519D01*
X102420461Y-111262233D02*
X102420461Y-111976519D01*
X102420461Y-111976519D02*
X103920461Y-111976519D01*
X103920461Y-111976519D02*
X103920461Y-111262233D01*
X102491890Y-110690804D02*
X102420461Y-110476519D01*
X102420461Y-110476519D02*
X102420461Y-110119376D01*
X102420461Y-110119376D02*
X102491890Y-109976519D01*
X102491890Y-109976519D02*
X102563318Y-109905090D01*
X102563318Y-109905090D02*
X102706175Y-109833661D01*
X102706175Y-109833661D02*
X102849032Y-109833661D01*
X102849032Y-109833661D02*
X102991890Y-109905090D01*
X102991890Y-109905090D02*
X103063318Y-109976519D01*
X103063318Y-109976519D02*
X103134747Y-110119376D01*
X103134747Y-110119376D02*
X103206175Y-110405090D01*
X103206175Y-110405090D02*
X103277604Y-110547947D01*
X103277604Y-110547947D02*
X103349032Y-110619376D01*
X103349032Y-110619376D02*
X103491890Y-110690804D01*
X103491890Y-110690804D02*
X103634747Y-110690804D01*
X103634747Y-110690804D02*
X103777604Y-110619376D01*
X103777604Y-110619376D02*
X103849032Y-110547947D01*
X103849032Y-110547947D02*
X103920461Y-110405090D01*
X103920461Y-110405090D02*
X103920461Y-110047947D01*
X103920461Y-110047947D02*
X103849032Y-109833661D01*
X103206175Y-109190805D02*
X103206175Y-108690805D01*
X102420461Y-108476519D02*
X102420461Y-109190805D01*
X102420461Y-109190805D02*
X103920461Y-109190805D01*
X103920461Y-109190805D02*
X103920461Y-108476519D01*
X103920461Y-108047947D02*
X103920461Y-107190805D01*
X102420461Y-107619376D02*
X103920461Y-107619376D01*
D11*
X148149090Y-99791869D02*
X148101470Y-99649012D01*
X148101470Y-99649012D02*
X148101470Y-99410917D01*
X148101470Y-99410917D02*
X148149090Y-99315679D01*
X148149090Y-99315679D02*
X148196709Y-99268060D01*
X148196709Y-99268060D02*
X148291947Y-99220441D01*
X148291947Y-99220441D02*
X148387185Y-99220441D01*
X148387185Y-99220441D02*
X148482423Y-99268060D01*
X148482423Y-99268060D02*
X148530042Y-99315679D01*
X148530042Y-99315679D02*
X148577661Y-99410917D01*
X148577661Y-99410917D02*
X148625280Y-99601393D01*
X148625280Y-99601393D02*
X148672899Y-99696631D01*
X148672899Y-99696631D02*
X148720518Y-99744250D01*
X148720518Y-99744250D02*
X148815756Y-99791869D01*
X148815756Y-99791869D02*
X148910994Y-99791869D01*
X148910994Y-99791869D02*
X149006232Y-99744250D01*
X149006232Y-99744250D02*
X149053851Y-99696631D01*
X149053851Y-99696631D02*
X149101470Y-99601393D01*
X149101470Y-99601393D02*
X149101470Y-99363298D01*
X149101470Y-99363298D02*
X149053851Y-99220441D01*
X148196709Y-98220441D02*
X148149090Y-98268060D01*
X148149090Y-98268060D02*
X148101470Y-98410917D01*
X148101470Y-98410917D02*
X148101470Y-98506155D01*
X148101470Y-98506155D02*
X148149090Y-98649012D01*
X148149090Y-98649012D02*
X148244328Y-98744250D01*
X148244328Y-98744250D02*
X148339566Y-98791869D01*
X148339566Y-98791869D02*
X148530042Y-98839488D01*
X148530042Y-98839488D02*
X148672899Y-98839488D01*
X148672899Y-98839488D02*
X148863375Y-98791869D01*
X148863375Y-98791869D02*
X148958613Y-98744250D01*
X148958613Y-98744250D02*
X149053851Y-98649012D01*
X149053851Y-98649012D02*
X149101470Y-98506155D01*
X149101470Y-98506155D02*
X149101470Y-98410917D01*
X149101470Y-98410917D02*
X149053851Y-98268060D01*
X149053851Y-98268060D02*
X149006232Y-98220441D01*
X148101470Y-97315679D02*
X148101470Y-97791869D01*
X148101470Y-97791869D02*
X149101470Y-97791869D01*
X148101470Y-96982345D02*
X149101470Y-96982345D01*
X148101470Y-96410917D02*
X148672899Y-96839488D01*
X149101470Y-96410917D02*
X148530042Y-96982345D01*
X118337955Y-129840905D02*
X117766527Y-129840905D01*
X118052241Y-130840905D02*
X118052241Y-129840905D01*
X117433193Y-130840905D02*
X117433193Y-129840905D01*
X117433193Y-130317095D02*
X116861765Y-130317095D01*
X116861765Y-130840905D02*
X116861765Y-129840905D01*
X116385574Y-129840905D02*
X116385574Y-130650428D01*
X116385574Y-130650428D02*
X116337955Y-130745666D01*
X116337955Y-130745666D02*
X116290336Y-130793286D01*
X116290336Y-130793286D02*
X116195098Y-130840905D01*
X116195098Y-130840905D02*
X116004622Y-130840905D01*
X116004622Y-130840905D02*
X115909384Y-130793286D01*
X115909384Y-130793286D02*
X115861765Y-130745666D01*
X115861765Y-130745666D02*
X115814146Y-130650428D01*
X115814146Y-130650428D02*
X115814146Y-129840905D01*
X115337955Y-130840905D02*
X115337955Y-129840905D01*
X115337955Y-129840905D02*
X115004622Y-130555190D01*
X115004622Y-130555190D02*
X114671289Y-129840905D01*
X114671289Y-129840905D02*
X114671289Y-130840905D01*
X113861765Y-130317095D02*
X113718908Y-130364714D01*
X113718908Y-130364714D02*
X113671289Y-130412333D01*
X113671289Y-130412333D02*
X113623670Y-130507571D01*
X113623670Y-130507571D02*
X113623670Y-130650428D01*
X113623670Y-130650428D02*
X113671289Y-130745666D01*
X113671289Y-130745666D02*
X113718908Y-130793286D01*
X113718908Y-130793286D02*
X113814146Y-130840905D01*
X113814146Y-130840905D02*
X114195098Y-130840905D01*
X114195098Y-130840905D02*
X114195098Y-129840905D01*
X114195098Y-129840905D02*
X113861765Y-129840905D01*
X113861765Y-129840905D02*
X113766527Y-129888524D01*
X113766527Y-129888524D02*
X113718908Y-129936143D01*
X113718908Y-129936143D02*
X113671289Y-130031381D01*
X113671289Y-130031381D02*
X113671289Y-130126619D01*
X113671289Y-130126619D02*
X113718908Y-130221857D01*
X113718908Y-130221857D02*
X113766527Y-130269476D01*
X113766527Y-130269476D02*
X113861765Y-130317095D01*
X113861765Y-130317095D02*
X114195098Y-130317095D01*
X113195098Y-130459952D02*
X112433194Y-130459952D01*
X111623670Y-130317095D02*
X111957003Y-130317095D01*
X111957003Y-130840905D02*
X111957003Y-129840905D01*
X111957003Y-129840905D02*
X111480813Y-129840905D01*
X111099860Y-130840905D02*
X111099860Y-129840905D01*
X110623670Y-130840905D02*
X110623670Y-129840905D01*
X110623670Y-129840905D02*
X110052242Y-130840905D01*
X110052242Y-130840905D02*
X110052242Y-129840905D01*
X109052242Y-129888524D02*
X109147480Y-129840905D01*
X109147480Y-129840905D02*
X109290337Y-129840905D01*
X109290337Y-129840905D02*
X109433194Y-129888524D01*
X109433194Y-129888524D02*
X109528432Y-129983762D01*
X109528432Y-129983762D02*
X109576051Y-130079000D01*
X109576051Y-130079000D02*
X109623670Y-130269476D01*
X109623670Y-130269476D02*
X109623670Y-130412333D01*
X109623670Y-130412333D02*
X109576051Y-130602809D01*
X109576051Y-130602809D02*
X109528432Y-130698047D01*
X109528432Y-130698047D02*
X109433194Y-130793286D01*
X109433194Y-130793286D02*
X109290337Y-130840905D01*
X109290337Y-130840905D02*
X109195099Y-130840905D01*
X109195099Y-130840905D02*
X109052242Y-130793286D01*
X109052242Y-130793286D02*
X109004623Y-130745666D01*
X109004623Y-130745666D02*
X109004623Y-130412333D01*
X109004623Y-130412333D02*
X109195099Y-130412333D01*
X108576051Y-130317095D02*
X108242718Y-130317095D01*
X108099861Y-130840905D02*
X108576051Y-130840905D01*
X108576051Y-130840905D02*
X108576051Y-129840905D01*
X108576051Y-129840905D02*
X108099861Y-129840905D01*
X107099861Y-130840905D02*
X107433194Y-130364714D01*
X107671289Y-130840905D02*
X107671289Y-129840905D01*
X107671289Y-129840905D02*
X107290337Y-129840905D01*
X107290337Y-129840905D02*
X107195099Y-129888524D01*
X107195099Y-129888524D02*
X107147480Y-129936143D01*
X107147480Y-129936143D02*
X107099861Y-130031381D01*
X107099861Y-130031381D02*
X107099861Y-130174238D01*
X107099861Y-130174238D02*
X107147480Y-130269476D01*
X107147480Y-130269476D02*
X107195099Y-130317095D01*
X107195099Y-130317095D02*
X107290337Y-130364714D01*
X107290337Y-130364714D02*
X107671289Y-130364714D01*
X115218909Y-132355610D02*
X115266528Y-132403230D01*
X115266528Y-132403230D02*
X115409385Y-132450849D01*
X115409385Y-132450849D02*
X115504623Y-132450849D01*
X115504623Y-132450849D02*
X115647480Y-132403230D01*
X115647480Y-132403230D02*
X115742718Y-132307991D01*
X115742718Y-132307991D02*
X115790337Y-132212753D01*
X115790337Y-132212753D02*
X115837956Y-132022277D01*
X115837956Y-132022277D02*
X115837956Y-131879420D01*
X115837956Y-131879420D02*
X115790337Y-131688944D01*
X115790337Y-131688944D02*
X115742718Y-131593706D01*
X115742718Y-131593706D02*
X115647480Y-131498468D01*
X115647480Y-131498468D02*
X115504623Y-131450849D01*
X115504623Y-131450849D02*
X115409385Y-131450849D01*
X115409385Y-131450849D02*
X115266528Y-131498468D01*
X115266528Y-131498468D02*
X115218909Y-131546087D01*
X114599861Y-131450849D02*
X114409385Y-131450849D01*
X114409385Y-131450849D02*
X114314147Y-131498468D01*
X114314147Y-131498468D02*
X114218909Y-131593706D01*
X114218909Y-131593706D02*
X114171290Y-131784182D01*
X114171290Y-131784182D02*
X114171290Y-132117515D01*
X114171290Y-132117515D02*
X114218909Y-132307991D01*
X114218909Y-132307991D02*
X114314147Y-132403230D01*
X114314147Y-132403230D02*
X114409385Y-132450849D01*
X114409385Y-132450849D02*
X114599861Y-132450849D01*
X114599861Y-132450849D02*
X114695099Y-132403230D01*
X114695099Y-132403230D02*
X114790337Y-132307991D01*
X114790337Y-132307991D02*
X114837956Y-132117515D01*
X114837956Y-132117515D02*
X114837956Y-131784182D01*
X114837956Y-131784182D02*
X114790337Y-131593706D01*
X114790337Y-131593706D02*
X114695099Y-131498468D01*
X114695099Y-131498468D02*
X114599861Y-131450849D01*
X113742718Y-132450849D02*
X113742718Y-131450849D01*
X113742718Y-131450849D02*
X113171290Y-132450849D01*
X113171290Y-132450849D02*
X113171290Y-131450849D01*
X112837956Y-131450849D02*
X112266528Y-131450849D01*
X112552242Y-132450849D02*
X112552242Y-131450849D01*
X111361766Y-132450849D02*
X111695099Y-131974658D01*
X111933194Y-132450849D02*
X111933194Y-131450849D01*
X111933194Y-131450849D02*
X111552242Y-131450849D01*
X111552242Y-131450849D02*
X111457004Y-131498468D01*
X111457004Y-131498468D02*
X111409385Y-131546087D01*
X111409385Y-131546087D02*
X111361766Y-131641325D01*
X111361766Y-131641325D02*
X111361766Y-131784182D01*
X111361766Y-131784182D02*
X111409385Y-131879420D01*
X111409385Y-131879420D02*
X111457004Y-131927039D01*
X111457004Y-131927039D02*
X111552242Y-131974658D01*
X111552242Y-131974658D02*
X111933194Y-131974658D01*
X110742718Y-131450849D02*
X110552242Y-131450849D01*
X110552242Y-131450849D02*
X110457004Y-131498468D01*
X110457004Y-131498468D02*
X110361766Y-131593706D01*
X110361766Y-131593706D02*
X110314147Y-131784182D01*
X110314147Y-131784182D02*
X110314147Y-132117515D01*
X110314147Y-132117515D02*
X110361766Y-132307991D01*
X110361766Y-132307991D02*
X110457004Y-132403230D01*
X110457004Y-132403230D02*
X110552242Y-132450849D01*
X110552242Y-132450849D02*
X110742718Y-132450849D01*
X110742718Y-132450849D02*
X110837956Y-132403230D01*
X110837956Y-132403230D02*
X110933194Y-132307991D01*
X110933194Y-132307991D02*
X110980813Y-132117515D01*
X110980813Y-132117515D02*
X110980813Y-131784182D01*
X110980813Y-131784182D02*
X110933194Y-131593706D01*
X110933194Y-131593706D02*
X110837956Y-131498468D01*
X110837956Y-131498468D02*
X110742718Y-131450849D01*
X109409385Y-132450849D02*
X109885575Y-132450849D01*
X109885575Y-132450849D02*
X109885575Y-131450849D01*
X108953851Y-98920441D02*
X109001470Y-99015679D01*
X109001470Y-99015679D02*
X109001470Y-99158536D01*
X109001470Y-99158536D02*
X108953851Y-99301393D01*
X108953851Y-99301393D02*
X108858613Y-99396631D01*
X108858613Y-99396631D02*
X108763375Y-99444250D01*
X108763375Y-99444250D02*
X108572899Y-99491869D01*
X108572899Y-99491869D02*
X108430042Y-99491869D01*
X108430042Y-99491869D02*
X108239566Y-99444250D01*
X108239566Y-99444250D02*
X108144328Y-99396631D01*
X108144328Y-99396631D02*
X108049090Y-99301393D01*
X108049090Y-99301393D02*
X108001470Y-99158536D01*
X108001470Y-99158536D02*
X108001470Y-99063298D01*
X108001470Y-99063298D02*
X108049090Y-98920441D01*
X108049090Y-98920441D02*
X108096709Y-98872822D01*
X108096709Y-98872822D02*
X108430042Y-98872822D01*
X108430042Y-98872822D02*
X108430042Y-99063298D01*
X108001470Y-98444250D02*
X109001470Y-98444250D01*
X109001470Y-98444250D02*
X108001470Y-97872822D01*
X108001470Y-97872822D02*
X109001470Y-97872822D01*
X108001470Y-97396631D02*
X109001470Y-97396631D01*
X109001470Y-97396631D02*
X109001470Y-97158536D01*
X109001470Y-97158536D02*
X108953851Y-97015679D01*
X108953851Y-97015679D02*
X108858613Y-96920441D01*
X108858613Y-96920441D02*
X108763375Y-96872822D01*
X108763375Y-96872822D02*
X108572899Y-96825203D01*
X108572899Y-96825203D02*
X108430042Y-96825203D01*
X108430042Y-96825203D02*
X108239566Y-96872822D01*
X108239566Y-96872822D02*
X108144328Y-96920441D01*
X108144328Y-96920441D02*
X108049090Y-97015679D01*
X108049090Y-97015679D02*
X108001470Y-97158536D01*
X108001470Y-97158536D02*
X108001470Y-97396631D01*
D10*
X115616779Y-122081858D02*
X115616779Y-123296144D01*
X115616779Y-123296144D02*
X115545350Y-123439001D01*
X115545350Y-123439001D02*
X115473922Y-123510430D01*
X115473922Y-123510430D02*
X115331064Y-123581858D01*
X115331064Y-123581858D02*
X115045350Y-123581858D01*
X115045350Y-123581858D02*
X114902493Y-123510430D01*
X114902493Y-123510430D02*
X114831064Y-123439001D01*
X114831064Y-123439001D02*
X114759636Y-123296144D01*
X114759636Y-123296144D02*
X114759636Y-122081858D01*
X114045350Y-123581858D02*
X114045350Y-122081858D01*
X114045350Y-122081858D02*
X113188207Y-123581858D01*
X113188207Y-123581858D02*
X113188207Y-122081858D01*
X111759635Y-123581858D02*
X112473921Y-123581858D01*
X112473921Y-123581858D02*
X112473921Y-122081858D01*
X110973920Y-122081858D02*
X110688206Y-122081858D01*
X110688206Y-122081858D02*
X110545349Y-122153287D01*
X110545349Y-122153287D02*
X110402492Y-122296144D01*
X110402492Y-122296144D02*
X110331063Y-122581858D01*
X110331063Y-122581858D02*
X110331063Y-123081858D01*
X110331063Y-123081858D02*
X110402492Y-123367572D01*
X110402492Y-123367572D02*
X110545349Y-123510430D01*
X110545349Y-123510430D02*
X110688206Y-123581858D01*
X110688206Y-123581858D02*
X110973920Y-123581858D01*
X110973920Y-123581858D02*
X111116778Y-123510430D01*
X111116778Y-123510430D02*
X111259635Y-123367572D01*
X111259635Y-123367572D02*
X111331063Y-123081858D01*
X111331063Y-123081858D02*
X111331063Y-122581858D01*
X111331063Y-122581858D02*
X111259635Y-122296144D01*
X111259635Y-122296144D02*
X111116778Y-122153287D01*
X111116778Y-122153287D02*
X110973920Y-122081858D01*
X108831063Y-123439001D02*
X108902491Y-123510430D01*
X108902491Y-123510430D02*
X109116777Y-123581858D01*
X109116777Y-123581858D02*
X109259634Y-123581858D01*
X109259634Y-123581858D02*
X109473920Y-123510430D01*
X109473920Y-123510430D02*
X109616777Y-123367572D01*
X109616777Y-123367572D02*
X109688206Y-123224715D01*
X109688206Y-123224715D02*
X109759634Y-122939001D01*
X109759634Y-122939001D02*
X109759634Y-122724715D01*
X109759634Y-122724715D02*
X109688206Y-122439001D01*
X109688206Y-122439001D02*
X109616777Y-122296144D01*
X109616777Y-122296144D02*
X109473920Y-122153287D01*
X109473920Y-122153287D02*
X109259634Y-122081858D01*
X109259634Y-122081858D02*
X109116777Y-122081858D01*
X109116777Y-122081858D02*
X108902491Y-122153287D01*
X108902491Y-122153287D02*
X108831063Y-122224715D01*
X108188206Y-123581858D02*
X108188206Y-122081858D01*
X107331063Y-123581858D02*
X107973920Y-122724715D01*
X107331063Y-122081858D02*
X108188206Y-122939001D01*
X111285377Y-120483662D02*
X110285377Y-120483662D01*
X111285377Y-121126519D02*
X110499663Y-121126519D01*
X110499663Y-121126519D02*
X110356806Y-121055090D01*
X110356806Y-121055090D02*
X110285377Y-120912233D01*
X110285377Y-120912233D02*
X110285377Y-120697947D01*
X110285377Y-120697947D02*
X110356806Y-120555090D01*
X110356806Y-120555090D02*
X110428234Y-120483662D01*
X111856806Y-118697947D02*
X109928234Y-119983661D01*
X110285377Y-117555090D02*
X111071091Y-117555090D01*
X111071091Y-117555090D02*
X111213948Y-117626518D01*
X111213948Y-117626518D02*
X111285377Y-117769375D01*
X111285377Y-117769375D02*
X111285377Y-118055090D01*
X111285377Y-118055090D02*
X111213948Y-118197947D01*
X110356806Y-117555090D02*
X110285377Y-117697947D01*
X110285377Y-117697947D02*
X110285377Y-118055090D01*
X110285377Y-118055090D02*
X110356806Y-118197947D01*
X110356806Y-118197947D02*
X110499663Y-118269375D01*
X110499663Y-118269375D02*
X110642520Y-118269375D01*
X110642520Y-118269375D02*
X110785377Y-118197947D01*
X110785377Y-118197947D02*
X110856806Y-118055090D01*
X110856806Y-118055090D02*
X110856806Y-117697947D01*
X110856806Y-117697947D02*
X110928234Y-117555090D01*
X110285377Y-116840804D02*
X111785377Y-116840804D01*
X110856806Y-116697947D02*
X110285377Y-116269375D01*
X111285377Y-116269375D02*
X110713948Y-116840804D01*
X111785377Y-114983661D02*
X111785377Y-115269375D01*
X111785377Y-115269375D02*
X111713948Y-115412232D01*
X111713948Y-115412232D02*
X111642520Y-115483661D01*
X111642520Y-115483661D02*
X111428234Y-115626518D01*
X111428234Y-115626518D02*
X111142520Y-115697946D01*
X111142520Y-115697946D02*
X110571091Y-115697946D01*
X110571091Y-115697946D02*
X110428234Y-115626518D01*
X110428234Y-115626518D02*
X110356806Y-115555089D01*
X110356806Y-115555089D02*
X110285377Y-115412232D01*
X110285377Y-115412232D02*
X110285377Y-115126518D01*
X110285377Y-115126518D02*
X110356806Y-114983661D01*
X110356806Y-114983661D02*
X110428234Y-114912232D01*
X110428234Y-114912232D02*
X110571091Y-114840803D01*
X110571091Y-114840803D02*
X110928234Y-114840803D01*
X110928234Y-114840803D02*
X111071091Y-114912232D01*
X111071091Y-114912232D02*
X111142520Y-114983661D01*
X111142520Y-114983661D02*
X111213948Y-115126518D01*
X111213948Y-115126518D02*
X111213948Y-115412232D01*
X111213948Y-115412232D02*
X111142520Y-115555089D01*
X111142520Y-115555089D02*
X111071091Y-115626518D01*
X111071091Y-115626518D02*
X110928234Y-115697946D01*
X111785377Y-113555090D02*
X111785377Y-113840804D01*
X111785377Y-113840804D02*
X111713948Y-113983661D01*
X111713948Y-113983661D02*
X111642520Y-114055090D01*
X111642520Y-114055090D02*
X111428234Y-114197947D01*
X111428234Y-114197947D02*
X111142520Y-114269375D01*
X111142520Y-114269375D02*
X110571091Y-114269375D01*
X110571091Y-114269375D02*
X110428234Y-114197947D01*
X110428234Y-114197947D02*
X110356806Y-114126518D01*
X110356806Y-114126518D02*
X110285377Y-113983661D01*
X110285377Y-113983661D02*
X110285377Y-113697947D01*
X110285377Y-113697947D02*
X110356806Y-113555090D01*
X110356806Y-113555090D02*
X110428234Y-113483661D01*
X110428234Y-113483661D02*
X110571091Y-113412232D01*
X110571091Y-113412232D02*
X110928234Y-113412232D01*
X110928234Y-113412232D02*
X111071091Y-113483661D01*
X111071091Y-113483661D02*
X111142520Y-113555090D01*
X111142520Y-113555090D02*
X111213948Y-113697947D01*
X111213948Y-113697947D02*
X111213948Y-113983661D01*
X111213948Y-113983661D02*
X111142520Y-114126518D01*
X111142520Y-114126518D02*
X111071091Y-114197947D01*
X111071091Y-114197947D02*
X110928234Y-114269375D01*
X111785377Y-112126519D02*
X111785377Y-112412233D01*
X111785377Y-112412233D02*
X111713948Y-112555090D01*
X111713948Y-112555090D02*
X111642520Y-112626519D01*
X111642520Y-112626519D02*
X111428234Y-112769376D01*
X111428234Y-112769376D02*
X111142520Y-112840804D01*
X111142520Y-112840804D02*
X110571091Y-112840804D01*
X110571091Y-112840804D02*
X110428234Y-112769376D01*
X110428234Y-112769376D02*
X110356806Y-112697947D01*
X110356806Y-112697947D02*
X110285377Y-112555090D01*
X110285377Y-112555090D02*
X110285377Y-112269376D01*
X110285377Y-112269376D02*
X110356806Y-112126519D01*
X110356806Y-112126519D02*
X110428234Y-112055090D01*
X110428234Y-112055090D02*
X110571091Y-111983661D01*
X110571091Y-111983661D02*
X110928234Y-111983661D01*
X110928234Y-111983661D02*
X111071091Y-112055090D01*
X111071091Y-112055090D02*
X111142520Y-112126519D01*
X111142520Y-112126519D02*
X111213948Y-112269376D01*
X111213948Y-112269376D02*
X111213948Y-112555090D01*
X111213948Y-112555090D02*
X111142520Y-112697947D01*
X111142520Y-112697947D02*
X111071091Y-112769376D01*
X111071091Y-112769376D02*
X110928234Y-112840804D01*
X111785377Y-110697948D02*
X111785377Y-110983662D01*
X111785377Y-110983662D02*
X111713948Y-111126519D01*
X111713948Y-111126519D02*
X111642520Y-111197948D01*
X111642520Y-111197948D02*
X111428234Y-111340805D01*
X111428234Y-111340805D02*
X111142520Y-111412233D01*
X111142520Y-111412233D02*
X110571091Y-111412233D01*
X110571091Y-111412233D02*
X110428234Y-111340805D01*
X110428234Y-111340805D02*
X110356806Y-111269376D01*
X110356806Y-111269376D02*
X110285377Y-111126519D01*
X110285377Y-111126519D02*
X110285377Y-110840805D01*
X110285377Y-110840805D02*
X110356806Y-110697948D01*
X110356806Y-110697948D02*
X110428234Y-110626519D01*
X110428234Y-110626519D02*
X110571091Y-110555090D01*
X110571091Y-110555090D02*
X110928234Y-110555090D01*
X110928234Y-110555090D02*
X111071091Y-110626519D01*
X111071091Y-110626519D02*
X111142520Y-110697948D01*
X111142520Y-110697948D02*
X111213948Y-110840805D01*
X111213948Y-110840805D02*
X111213948Y-111126519D01*
X111213948Y-111126519D02*
X111142520Y-111269376D01*
X111142520Y-111269376D02*
X111071091Y-111340805D01*
X111071091Y-111340805D02*
X110928234Y-111412233D01*
X111785377Y-109269377D02*
X111785377Y-109555091D01*
X111785377Y-109555091D02*
X111713948Y-109697948D01*
X111713948Y-109697948D02*
X111642520Y-109769377D01*
X111642520Y-109769377D02*
X111428234Y-109912234D01*
X111428234Y-109912234D02*
X111142520Y-109983662D01*
X111142520Y-109983662D02*
X110571091Y-109983662D01*
X110571091Y-109983662D02*
X110428234Y-109912234D01*
X110428234Y-109912234D02*
X110356806Y-109840805D01*
X110356806Y-109840805D02*
X110285377Y-109697948D01*
X110285377Y-109697948D02*
X110285377Y-109412234D01*
X110285377Y-109412234D02*
X110356806Y-109269377D01*
X110356806Y-109269377D02*
X110428234Y-109197948D01*
X110428234Y-109197948D02*
X110571091Y-109126519D01*
X110571091Y-109126519D02*
X110928234Y-109126519D01*
X110928234Y-109126519D02*
X111071091Y-109197948D01*
X111071091Y-109197948D02*
X111142520Y-109269377D01*
X111142520Y-109269377D02*
X111213948Y-109412234D01*
X111213948Y-109412234D02*
X111213948Y-109697948D01*
X111213948Y-109697948D02*
X111142520Y-109840805D01*
X111142520Y-109840805D02*
X111071091Y-109912234D01*
X111071091Y-109912234D02*
X110928234Y-109983662D01*
X109227604Y-121197947D02*
X109299032Y-121126519D01*
X109299032Y-121126519D02*
X109370461Y-120983662D01*
X109370461Y-120983662D02*
X109370461Y-120626519D01*
X109370461Y-120626519D02*
X109299032Y-120483662D01*
X109299032Y-120483662D02*
X109227604Y-120412233D01*
X109227604Y-120412233D02*
X109084747Y-120340804D01*
X109084747Y-120340804D02*
X108941890Y-120340804D01*
X108941890Y-120340804D02*
X108727604Y-120412233D01*
X108727604Y-120412233D02*
X107870461Y-121269376D01*
X107870461Y-121269376D02*
X107870461Y-120340804D01*
X109370461Y-119412233D02*
X109370461Y-119269376D01*
X109370461Y-119269376D02*
X109299032Y-119126519D01*
X109299032Y-119126519D02*
X109227604Y-119055091D01*
X109227604Y-119055091D02*
X109084747Y-118983662D01*
X109084747Y-118983662D02*
X108799032Y-118912233D01*
X108799032Y-118912233D02*
X108441890Y-118912233D01*
X108441890Y-118912233D02*
X108156175Y-118983662D01*
X108156175Y-118983662D02*
X108013318Y-119055091D01*
X108013318Y-119055091D02*
X107941890Y-119126519D01*
X107941890Y-119126519D02*
X107870461Y-119269376D01*
X107870461Y-119269376D02*
X107870461Y-119412233D01*
X107870461Y-119412233D02*
X107941890Y-119555091D01*
X107941890Y-119555091D02*
X108013318Y-119626519D01*
X108013318Y-119626519D02*
X108156175Y-119697948D01*
X108156175Y-119697948D02*
X108441890Y-119769376D01*
X108441890Y-119769376D02*
X108799032Y-119769376D01*
X108799032Y-119769376D02*
X109084747Y-119697948D01*
X109084747Y-119697948D02*
X109227604Y-119626519D01*
X109227604Y-119626519D02*
X109299032Y-119555091D01*
X109299032Y-119555091D02*
X109370461Y-119412233D01*
X109227604Y-118340805D02*
X109299032Y-118269377D01*
X109299032Y-118269377D02*
X109370461Y-118126520D01*
X109370461Y-118126520D02*
X109370461Y-117769377D01*
X109370461Y-117769377D02*
X109299032Y-117626520D01*
X109299032Y-117626520D02*
X109227604Y-117555091D01*
X109227604Y-117555091D02*
X109084747Y-117483662D01*
X109084747Y-117483662D02*
X108941890Y-117483662D01*
X108941890Y-117483662D02*
X108727604Y-117555091D01*
X108727604Y-117555091D02*
X107870461Y-118412234D01*
X107870461Y-118412234D02*
X107870461Y-117483662D01*
X109370461Y-116126520D02*
X109370461Y-116840806D01*
X109370461Y-116840806D02*
X108656175Y-116912234D01*
X108656175Y-116912234D02*
X108727604Y-116840806D01*
X108727604Y-116840806D02*
X108799032Y-116697949D01*
X108799032Y-116697949D02*
X108799032Y-116340806D01*
X108799032Y-116340806D02*
X108727604Y-116197949D01*
X108727604Y-116197949D02*
X108656175Y-116126520D01*
X108656175Y-116126520D02*
X108513318Y-116055091D01*
X108513318Y-116055091D02*
X108156175Y-116055091D01*
X108156175Y-116055091D02*
X108013318Y-116126520D01*
X108013318Y-116126520D02*
X107941890Y-116197949D01*
X107941890Y-116197949D02*
X107870461Y-116340806D01*
X107870461Y-116340806D02*
X107870461Y-116697949D01*
X107870461Y-116697949D02*
X107941890Y-116840806D01*
X107941890Y-116840806D02*
X108013318Y-116912234D01*
X108441890Y-115412235D02*
X108441890Y-114269378D01*
X109370461Y-113269377D02*
X109370461Y-113126520D01*
X109370461Y-113126520D02*
X109299032Y-112983663D01*
X109299032Y-112983663D02*
X109227604Y-112912235D01*
X109227604Y-112912235D02*
X109084747Y-112840806D01*
X109084747Y-112840806D02*
X108799032Y-112769377D01*
X108799032Y-112769377D02*
X108441890Y-112769377D01*
X108441890Y-112769377D02*
X108156175Y-112840806D01*
X108156175Y-112840806D02*
X108013318Y-112912235D01*
X108013318Y-112912235D02*
X107941890Y-112983663D01*
X107941890Y-112983663D02*
X107870461Y-113126520D01*
X107870461Y-113126520D02*
X107870461Y-113269377D01*
X107870461Y-113269377D02*
X107941890Y-113412235D01*
X107941890Y-113412235D02*
X108013318Y-113483663D01*
X108013318Y-113483663D02*
X108156175Y-113555092D01*
X108156175Y-113555092D02*
X108441890Y-113626520D01*
X108441890Y-113626520D02*
X108799032Y-113626520D01*
X108799032Y-113626520D02*
X109084747Y-113555092D01*
X109084747Y-113555092D02*
X109227604Y-113483663D01*
X109227604Y-113483663D02*
X109299032Y-113412235D01*
X109299032Y-113412235D02*
X109370461Y-113269377D01*
X108727604Y-111912235D02*
X108799032Y-112055092D01*
X108799032Y-112055092D02*
X108870461Y-112126521D01*
X108870461Y-112126521D02*
X109013318Y-112197949D01*
X109013318Y-112197949D02*
X109084747Y-112197949D01*
X109084747Y-112197949D02*
X109227604Y-112126521D01*
X109227604Y-112126521D02*
X109299032Y-112055092D01*
X109299032Y-112055092D02*
X109370461Y-111912235D01*
X109370461Y-111912235D02*
X109370461Y-111626521D01*
X109370461Y-111626521D02*
X109299032Y-111483664D01*
X109299032Y-111483664D02*
X109227604Y-111412235D01*
X109227604Y-111412235D02*
X109084747Y-111340806D01*
X109084747Y-111340806D02*
X109013318Y-111340806D01*
X109013318Y-111340806D02*
X108870461Y-111412235D01*
X108870461Y-111412235D02*
X108799032Y-111483664D01*
X108799032Y-111483664D02*
X108727604Y-111626521D01*
X108727604Y-111626521D02*
X108727604Y-111912235D01*
X108727604Y-111912235D02*
X108656175Y-112055092D01*
X108656175Y-112055092D02*
X108584747Y-112126521D01*
X108584747Y-112126521D02*
X108441890Y-112197949D01*
X108441890Y-112197949D02*
X108156175Y-112197949D01*
X108156175Y-112197949D02*
X108013318Y-112126521D01*
X108013318Y-112126521D02*
X107941890Y-112055092D01*
X107941890Y-112055092D02*
X107870461Y-111912235D01*
X107870461Y-111912235D02*
X107870461Y-111626521D01*
X107870461Y-111626521D02*
X107941890Y-111483664D01*
X107941890Y-111483664D02*
X108013318Y-111412235D01*
X108013318Y-111412235D02*
X108156175Y-111340806D01*
X108156175Y-111340806D02*
X108441890Y-111340806D01*
X108441890Y-111340806D02*
X108584747Y-111412235D01*
X108584747Y-111412235D02*
X108656175Y-111483664D01*
X108656175Y-111483664D02*
X108727604Y-111626521D01*
X108441890Y-110697950D02*
X108441890Y-109555093D01*
X109370461Y-108983664D02*
X109370461Y-108055092D01*
X109370461Y-108055092D02*
X108799032Y-108555092D01*
X108799032Y-108555092D02*
X108799032Y-108340807D01*
X108799032Y-108340807D02*
X108727604Y-108197950D01*
X108727604Y-108197950D02*
X108656175Y-108126521D01*
X108656175Y-108126521D02*
X108513318Y-108055092D01*
X108513318Y-108055092D02*
X108156175Y-108055092D01*
X108156175Y-108055092D02*
X108013318Y-108126521D01*
X108013318Y-108126521D02*
X107941890Y-108197950D01*
X107941890Y-108197950D02*
X107870461Y-108340807D01*
X107870461Y-108340807D02*
X107870461Y-108769378D01*
X107870461Y-108769378D02*
X107941890Y-108912235D01*
X107941890Y-108912235D02*
X108013318Y-108983664D01*
X109370461Y-107126521D02*
X109370461Y-106983664D01*
X109370461Y-106983664D02*
X109299032Y-106840807D01*
X109299032Y-106840807D02*
X109227604Y-106769379D01*
X109227604Y-106769379D02*
X109084747Y-106697950D01*
X109084747Y-106697950D02*
X108799032Y-106626521D01*
X108799032Y-106626521D02*
X108441890Y-106626521D01*
X108441890Y-106626521D02*
X108156175Y-106697950D01*
X108156175Y-106697950D02*
X108013318Y-106769379D01*
X108013318Y-106769379D02*
X107941890Y-106840807D01*
X107941890Y-106840807D02*
X107870461Y-106983664D01*
X107870461Y-106983664D02*
X107870461Y-107126521D01*
X107870461Y-107126521D02*
X107941890Y-107269379D01*
X107941890Y-107269379D02*
X108013318Y-107340807D01*
X108013318Y-107340807D02*
X108156175Y-107412236D01*
X108156175Y-107412236D02*
X108441890Y-107483664D01*
X108441890Y-107483664D02*
X108799032Y-107483664D01*
X108799032Y-107483664D02*
X109084747Y-107412236D01*
X109084747Y-107412236D02*
X109227604Y-107340807D01*
X109227604Y-107340807D02*
X109299032Y-107269379D01*
X109299032Y-107269379D02*
X109370461Y-107126521D01*
D11*
X144601470Y-99839488D02*
X144601470Y-99220441D01*
X144601470Y-99220441D02*
X144220518Y-99553774D01*
X144220518Y-99553774D02*
X144220518Y-99410917D01*
X144220518Y-99410917D02*
X144172899Y-99315679D01*
X144172899Y-99315679D02*
X144125280Y-99268060D01*
X144125280Y-99268060D02*
X144030042Y-99220441D01*
X144030042Y-99220441D02*
X143791947Y-99220441D01*
X143791947Y-99220441D02*
X143696709Y-99268060D01*
X143696709Y-99268060D02*
X143649090Y-99315679D01*
X143649090Y-99315679D02*
X143601470Y-99410917D01*
X143601470Y-99410917D02*
X143601470Y-99696631D01*
X143601470Y-99696631D02*
X143649090Y-99791869D01*
X143649090Y-99791869D02*
X143696709Y-99839488D01*
X143696709Y-98791869D02*
X143649090Y-98744250D01*
X143649090Y-98744250D02*
X143601470Y-98791869D01*
X143601470Y-98791869D02*
X143649090Y-98839488D01*
X143649090Y-98839488D02*
X143696709Y-98791869D01*
X143696709Y-98791869D02*
X143601470Y-98791869D01*
X144601470Y-98410917D02*
X144601470Y-97791870D01*
X144601470Y-97791870D02*
X144220518Y-98125203D01*
X144220518Y-98125203D02*
X144220518Y-97982346D01*
X144220518Y-97982346D02*
X144172899Y-97887108D01*
X144172899Y-97887108D02*
X144125280Y-97839489D01*
X144125280Y-97839489D02*
X144030042Y-97791870D01*
X144030042Y-97791870D02*
X143791947Y-97791870D01*
X143791947Y-97791870D02*
X143696709Y-97839489D01*
X143696709Y-97839489D02*
X143649090Y-97887108D01*
X143649090Y-97887108D02*
X143601470Y-97982346D01*
X143601470Y-97982346D02*
X143601470Y-98268060D01*
X143601470Y-98268060D02*
X143649090Y-98363298D01*
X143649090Y-98363298D02*
X143696709Y-98410917D01*
X144601470Y-97506155D02*
X143601470Y-97172822D01*
X143601470Y-97172822D02*
X144601470Y-96839489D01*
X113001470Y-99444250D02*
X114001470Y-99444250D01*
X114001470Y-99444250D02*
X113287185Y-99110917D01*
X113287185Y-99110917D02*
X114001470Y-98777584D01*
X114001470Y-98777584D02*
X113001470Y-98777584D01*
X114001470Y-98110917D02*
X114001470Y-97920441D01*
X114001470Y-97920441D02*
X113953851Y-97825203D01*
X113953851Y-97825203D02*
X113858613Y-97729965D01*
X113858613Y-97729965D02*
X113668137Y-97682346D01*
X113668137Y-97682346D02*
X113334804Y-97682346D01*
X113334804Y-97682346D02*
X113144328Y-97729965D01*
X113144328Y-97729965D02*
X113049090Y-97825203D01*
X113049090Y-97825203D02*
X113001470Y-97920441D01*
X113001470Y-97920441D02*
X113001470Y-98110917D01*
X113001470Y-98110917D02*
X113049090Y-98206155D01*
X113049090Y-98206155D02*
X113144328Y-98301393D01*
X113144328Y-98301393D02*
X113334804Y-98349012D01*
X113334804Y-98349012D02*
X113668137Y-98349012D01*
X113668137Y-98349012D02*
X113858613Y-98301393D01*
X113858613Y-98301393D02*
X113953851Y-98206155D01*
X113953851Y-98206155D02*
X114001470Y-98110917D01*
X114001470Y-97396631D02*
X114001470Y-96825203D01*
X113001470Y-97110917D02*
X114001470Y-97110917D01*
D10*
X148121488Y-121366744D02*
X148192916Y-121581030D01*
X148192916Y-121581030D02*
X148264345Y-121652459D01*
X148264345Y-121652459D02*
X148407202Y-121723887D01*
X148407202Y-121723887D02*
X148621488Y-121723887D01*
X148621488Y-121723887D02*
X148764345Y-121652459D01*
X148764345Y-121652459D02*
X148835774Y-121581030D01*
X148835774Y-121581030D02*
X148907202Y-121438173D01*
X148907202Y-121438173D02*
X148907202Y-120866744D01*
X148907202Y-120866744D02*
X147407202Y-120866744D01*
X147407202Y-120866744D02*
X147407202Y-121366744D01*
X147407202Y-121366744D02*
X147478631Y-121509602D01*
X147478631Y-121509602D02*
X147550059Y-121581030D01*
X147550059Y-121581030D02*
X147692916Y-121652459D01*
X147692916Y-121652459D02*
X147835774Y-121652459D01*
X147835774Y-121652459D02*
X147978631Y-121581030D01*
X147978631Y-121581030D02*
X148050059Y-121509602D01*
X148050059Y-121509602D02*
X148121488Y-121366744D01*
X148121488Y-121366744D02*
X148121488Y-120866744D01*
X147407202Y-122152459D02*
X147407202Y-123009602D01*
X148907202Y-122581030D02*
X147407202Y-122581030D01*
X151250690Y-118116744D02*
X151322118Y-118331030D01*
X151322118Y-118331030D02*
X151322118Y-118688172D01*
X151322118Y-118688172D02*
X151250690Y-118831030D01*
X151250690Y-118831030D02*
X151179261Y-118902458D01*
X151179261Y-118902458D02*
X151036404Y-118973887D01*
X151036404Y-118973887D02*
X150893547Y-118973887D01*
X150893547Y-118973887D02*
X150750690Y-118902458D01*
X150750690Y-118902458D02*
X150679261Y-118831030D01*
X150679261Y-118831030D02*
X150607832Y-118688172D01*
X150607832Y-118688172D02*
X150536404Y-118402458D01*
X150536404Y-118402458D02*
X150464975Y-118259601D01*
X150464975Y-118259601D02*
X150393547Y-118188172D01*
X150393547Y-118188172D02*
X150250690Y-118116744D01*
X150250690Y-118116744D02*
X150107832Y-118116744D01*
X150107832Y-118116744D02*
X149964975Y-118188172D01*
X149964975Y-118188172D02*
X149893547Y-118259601D01*
X149893547Y-118259601D02*
X149822118Y-118402458D01*
X149822118Y-118402458D02*
X149822118Y-118759601D01*
X149822118Y-118759601D02*
X149893547Y-118973887D01*
X150536404Y-119616743D02*
X150536404Y-120116743D01*
X151322118Y-120331029D02*
X151322118Y-119616743D01*
X151322118Y-119616743D02*
X149822118Y-119616743D01*
X149822118Y-119616743D02*
X149822118Y-120331029D01*
X151322118Y-121688172D02*
X151322118Y-120973886D01*
X151322118Y-120973886D02*
X149822118Y-120973886D01*
X150536404Y-122188172D02*
X150536404Y-122688172D01*
X151322118Y-122902458D02*
X151322118Y-122188172D01*
X151322118Y-122188172D02*
X149822118Y-122188172D01*
X149822118Y-122188172D02*
X149822118Y-122902458D01*
X151179261Y-124402458D02*
X151250690Y-124331030D01*
X151250690Y-124331030D02*
X151322118Y-124116744D01*
X151322118Y-124116744D02*
X151322118Y-123973887D01*
X151322118Y-123973887D02*
X151250690Y-123759601D01*
X151250690Y-123759601D02*
X151107832Y-123616744D01*
X151107832Y-123616744D02*
X150964975Y-123545315D01*
X150964975Y-123545315D02*
X150679261Y-123473887D01*
X150679261Y-123473887D02*
X150464975Y-123473887D01*
X150464975Y-123473887D02*
X150179261Y-123545315D01*
X150179261Y-123545315D02*
X150036404Y-123616744D01*
X150036404Y-123616744D02*
X149893547Y-123759601D01*
X149893547Y-123759601D02*
X149822118Y-123973887D01*
X149822118Y-123973887D02*
X149822118Y-124116744D01*
X149822118Y-124116744D02*
X149893547Y-124331030D01*
X149893547Y-124331030D02*
X149964975Y-124402458D01*
X149822118Y-124831030D02*
X149822118Y-125688173D01*
X151322118Y-125259601D02*
X149822118Y-125259601D01*
D11*
X146149090Y-99791869D02*
X146101470Y-99649012D01*
X146101470Y-99649012D02*
X146101470Y-99410917D01*
X146101470Y-99410917D02*
X146149090Y-99315679D01*
X146149090Y-99315679D02*
X146196709Y-99268060D01*
X146196709Y-99268060D02*
X146291947Y-99220441D01*
X146291947Y-99220441D02*
X146387185Y-99220441D01*
X146387185Y-99220441D02*
X146482423Y-99268060D01*
X146482423Y-99268060D02*
X146530042Y-99315679D01*
X146530042Y-99315679D02*
X146577661Y-99410917D01*
X146577661Y-99410917D02*
X146625280Y-99601393D01*
X146625280Y-99601393D02*
X146672899Y-99696631D01*
X146672899Y-99696631D02*
X146720518Y-99744250D01*
X146720518Y-99744250D02*
X146815756Y-99791869D01*
X146815756Y-99791869D02*
X146910994Y-99791869D01*
X146910994Y-99791869D02*
X147006232Y-99744250D01*
X147006232Y-99744250D02*
X147053851Y-99696631D01*
X147053851Y-99696631D02*
X147101470Y-99601393D01*
X147101470Y-99601393D02*
X147101470Y-99363298D01*
X147101470Y-99363298D02*
X147053851Y-99220441D01*
X146101470Y-98791869D02*
X147101470Y-98791869D01*
X147101470Y-98791869D02*
X147101470Y-98553774D01*
X147101470Y-98553774D02*
X147053851Y-98410917D01*
X147053851Y-98410917D02*
X146958613Y-98315679D01*
X146958613Y-98315679D02*
X146863375Y-98268060D01*
X146863375Y-98268060D02*
X146672899Y-98220441D01*
X146672899Y-98220441D02*
X146530042Y-98220441D01*
X146530042Y-98220441D02*
X146339566Y-98268060D01*
X146339566Y-98268060D02*
X146244328Y-98315679D01*
X146244328Y-98315679D02*
X146149090Y-98410917D01*
X146149090Y-98410917D02*
X146101470Y-98553774D01*
X146101470Y-98553774D02*
X146101470Y-98791869D01*
X146101470Y-97791869D02*
X147101470Y-97791869D01*
X147101470Y-97125203D02*
X147101470Y-96934727D01*
X147101470Y-96934727D02*
X147053851Y-96839489D01*
X147053851Y-96839489D02*
X146958613Y-96744251D01*
X146958613Y-96744251D02*
X146768137Y-96696632D01*
X146768137Y-96696632D02*
X146434804Y-96696632D01*
X146434804Y-96696632D02*
X146244328Y-96744251D01*
X146244328Y-96744251D02*
X146149090Y-96839489D01*
X146149090Y-96839489D02*
X146101470Y-96934727D01*
X146101470Y-96934727D02*
X146101470Y-97125203D01*
X146101470Y-97125203D02*
X146149090Y-97220441D01*
X146149090Y-97220441D02*
X146244328Y-97315679D01*
X146244328Y-97315679D02*
X146434804Y-97363298D01*
X146434804Y-97363298D02*
X146768137Y-97363298D01*
X146768137Y-97363298D02*
X146958613Y-97315679D01*
X146958613Y-97315679D02*
X147053851Y-97220441D01*
X147053851Y-97220441D02*
X147101470Y-97125203D01*
D10*
X151871488Y-110366744D02*
X151942916Y-110581030D01*
X151942916Y-110581030D02*
X152014345Y-110652459D01*
X152014345Y-110652459D02*
X152157202Y-110723887D01*
X152157202Y-110723887D02*
X152371488Y-110723887D01*
X152371488Y-110723887D02*
X152514345Y-110652459D01*
X152514345Y-110652459D02*
X152585774Y-110581030D01*
X152585774Y-110581030D02*
X152657202Y-110438173D01*
X152657202Y-110438173D02*
X152657202Y-109866744D01*
X152657202Y-109866744D02*
X151157202Y-109866744D01*
X151157202Y-109866744D02*
X151157202Y-110366744D01*
X151157202Y-110366744D02*
X151228631Y-110509602D01*
X151228631Y-110509602D02*
X151300059Y-110581030D01*
X151300059Y-110581030D02*
X151442916Y-110652459D01*
X151442916Y-110652459D02*
X151585774Y-110652459D01*
X151585774Y-110652459D02*
X151728631Y-110581030D01*
X151728631Y-110581030D02*
X151800059Y-110509602D01*
X151800059Y-110509602D02*
X151871488Y-110366744D01*
X151871488Y-110366744D02*
X151871488Y-109866744D01*
X151157202Y-111152459D02*
X151157202Y-112009602D01*
X152657202Y-111581030D02*
X151157202Y-111581030D01*
X155072118Y-108652458D02*
X154357832Y-108152458D01*
X155072118Y-107795315D02*
X153572118Y-107795315D01*
X153572118Y-107795315D02*
X153572118Y-108366744D01*
X153572118Y-108366744D02*
X153643547Y-108509601D01*
X153643547Y-108509601D02*
X153714975Y-108581030D01*
X153714975Y-108581030D02*
X153857832Y-108652458D01*
X153857832Y-108652458D02*
X154072118Y-108652458D01*
X154072118Y-108652458D02*
X154214975Y-108581030D01*
X154214975Y-108581030D02*
X154286404Y-108509601D01*
X154286404Y-108509601D02*
X154357832Y-108366744D01*
X154357832Y-108366744D02*
X154357832Y-107795315D01*
X154286404Y-109295315D02*
X154286404Y-109795315D01*
X155072118Y-110009601D02*
X155072118Y-109295315D01*
X155072118Y-109295315D02*
X153572118Y-109295315D01*
X153572118Y-109295315D02*
X153572118Y-110009601D01*
X155000690Y-110581030D02*
X155072118Y-110795316D01*
X155072118Y-110795316D02*
X155072118Y-111152458D01*
X155072118Y-111152458D02*
X155000690Y-111295316D01*
X155000690Y-111295316D02*
X154929261Y-111366744D01*
X154929261Y-111366744D02*
X154786404Y-111438173D01*
X154786404Y-111438173D02*
X154643547Y-111438173D01*
X154643547Y-111438173D02*
X154500690Y-111366744D01*
X154500690Y-111366744D02*
X154429261Y-111295316D01*
X154429261Y-111295316D02*
X154357832Y-111152458D01*
X154357832Y-111152458D02*
X154286404Y-110866744D01*
X154286404Y-110866744D02*
X154214975Y-110723887D01*
X154214975Y-110723887D02*
X154143547Y-110652458D01*
X154143547Y-110652458D02*
X154000690Y-110581030D01*
X154000690Y-110581030D02*
X153857832Y-110581030D01*
X153857832Y-110581030D02*
X153714975Y-110652458D01*
X153714975Y-110652458D02*
X153643547Y-110723887D01*
X153643547Y-110723887D02*
X153572118Y-110866744D01*
X153572118Y-110866744D02*
X153572118Y-111223887D01*
X153572118Y-111223887D02*
X153643547Y-111438173D01*
X154286404Y-112081029D02*
X154286404Y-112581029D01*
X155072118Y-112795315D02*
X155072118Y-112081029D01*
X155072118Y-112081029D02*
X153572118Y-112081029D01*
X153572118Y-112081029D02*
X153572118Y-112795315D01*
X153572118Y-113223887D02*
X153572118Y-114081030D01*
X155072118Y-113652458D02*
X153572118Y-113652458D01*
D11*
X131802242Y-135967095D02*
X131659385Y-136014714D01*
X131659385Y-136014714D02*
X131611766Y-136062333D01*
X131611766Y-136062333D02*
X131564147Y-136157571D01*
X131564147Y-136157571D02*
X131564147Y-136300428D01*
X131564147Y-136300428D02*
X131611766Y-136395666D01*
X131611766Y-136395666D02*
X131659385Y-136443286D01*
X131659385Y-136443286D02*
X131754623Y-136490905D01*
X131754623Y-136490905D02*
X132135575Y-136490905D01*
X132135575Y-136490905D02*
X132135575Y-135490905D01*
X132135575Y-135490905D02*
X131802242Y-135490905D01*
X131802242Y-135490905D02*
X131707004Y-135538524D01*
X131707004Y-135538524D02*
X131659385Y-135586143D01*
X131659385Y-135586143D02*
X131611766Y-135681381D01*
X131611766Y-135681381D02*
X131611766Y-135776619D01*
X131611766Y-135776619D02*
X131659385Y-135871857D01*
X131659385Y-135871857D02*
X131707004Y-135919476D01*
X131707004Y-135919476D02*
X131802242Y-135967095D01*
X131802242Y-135967095D02*
X132135575Y-135967095D01*
X131183194Y-136205190D02*
X130707004Y-136205190D01*
X131278432Y-136490905D02*
X130945099Y-135490905D01*
X130945099Y-135490905D02*
X130611766Y-136490905D01*
X130421289Y-135490905D02*
X129849861Y-135490905D01*
X130135575Y-136490905D02*
X130135575Y-135490905D01*
X129659384Y-135490905D02*
X129087956Y-135490905D01*
X129373670Y-136490905D02*
X129373670Y-135490905D01*
X128754622Y-135967095D02*
X128421289Y-135967095D01*
X128278432Y-136490905D02*
X128754622Y-136490905D01*
X128754622Y-136490905D02*
X128754622Y-135490905D01*
X128754622Y-135490905D02*
X128278432Y-135490905D01*
X127278432Y-136490905D02*
X127611765Y-136014714D01*
X127849860Y-136490905D02*
X127849860Y-135490905D01*
X127849860Y-135490905D02*
X127468908Y-135490905D01*
X127468908Y-135490905D02*
X127373670Y-135538524D01*
X127373670Y-135538524D02*
X127326051Y-135586143D01*
X127326051Y-135586143D02*
X127278432Y-135681381D01*
X127278432Y-135681381D02*
X127278432Y-135824238D01*
X127278432Y-135824238D02*
X127326051Y-135919476D01*
X127326051Y-135919476D02*
X127373670Y-135967095D01*
X127373670Y-135967095D02*
X127468908Y-136014714D01*
X127468908Y-136014714D02*
X127849860Y-136014714D01*
X126659384Y-136014714D02*
X126659384Y-136490905D01*
X126992717Y-135490905D02*
X126659384Y-136014714D01*
X126659384Y-136014714D02*
X126326051Y-135490905D01*
X132302242Y-137100849D02*
X132111766Y-137100849D01*
X132111766Y-137100849D02*
X132016528Y-137148468D01*
X132016528Y-137148468D02*
X131921290Y-137243706D01*
X131921290Y-137243706D02*
X131873671Y-137434182D01*
X131873671Y-137434182D02*
X131873671Y-137767515D01*
X131873671Y-137767515D02*
X131921290Y-137957991D01*
X131921290Y-137957991D02*
X132016528Y-138053230D01*
X132016528Y-138053230D02*
X132111766Y-138100849D01*
X132111766Y-138100849D02*
X132302242Y-138100849D01*
X132302242Y-138100849D02*
X132397480Y-138053230D01*
X132397480Y-138053230D02*
X132492718Y-137957991D01*
X132492718Y-137957991D02*
X132540337Y-137767515D01*
X132540337Y-137767515D02*
X132540337Y-137434182D01*
X132540337Y-137434182D02*
X132492718Y-137243706D01*
X132492718Y-137243706D02*
X132397480Y-137148468D01*
X132397480Y-137148468D02*
X132302242Y-137100849D01*
X131111766Y-137577039D02*
X131445099Y-137577039D01*
X131445099Y-138100849D02*
X131445099Y-137100849D01*
X131445099Y-137100849D02*
X130968909Y-137100849D01*
X130254623Y-137577039D02*
X130587956Y-137577039D01*
X130587956Y-138100849D02*
X130587956Y-137100849D01*
X130587956Y-137100849D02*
X130111766Y-137100849D01*
X128968908Y-137719896D02*
X128207004Y-137719896D01*
X126778432Y-137100849D02*
X126587956Y-137100849D01*
X126587956Y-137100849D02*
X126492718Y-137148468D01*
X126492718Y-137148468D02*
X126397480Y-137243706D01*
X126397480Y-137243706D02*
X126349861Y-137434182D01*
X126349861Y-137434182D02*
X126349861Y-137767515D01*
X126349861Y-137767515D02*
X126397480Y-137957991D01*
X126397480Y-137957991D02*
X126492718Y-138053230D01*
X126492718Y-138053230D02*
X126587956Y-138100849D01*
X126587956Y-138100849D02*
X126778432Y-138100849D01*
X126778432Y-138100849D02*
X126873670Y-138053230D01*
X126873670Y-138053230D02*
X126968908Y-137957991D01*
X126968908Y-137957991D02*
X127016527Y-137767515D01*
X127016527Y-137767515D02*
X127016527Y-137434182D01*
X127016527Y-137434182D02*
X126968908Y-137243706D01*
X126968908Y-137243706D02*
X126873670Y-137148468D01*
X126873670Y-137148468D02*
X126778432Y-137100849D01*
X125921289Y-138100849D02*
X125921289Y-137100849D01*
X125921289Y-137100849D02*
X125349861Y-138100849D01*
X125349861Y-138100849D02*
X125349861Y-137100849D01*
X110501470Y-99444250D02*
X111501470Y-99444250D01*
X111501470Y-99444250D02*
X110501470Y-98872822D01*
X110501470Y-98872822D02*
X111501470Y-98872822D01*
X110596709Y-97825203D02*
X110549090Y-97872822D01*
X110549090Y-97872822D02*
X110501470Y-98015679D01*
X110501470Y-98015679D02*
X110501470Y-98110917D01*
X110501470Y-98110917D02*
X110549090Y-98253774D01*
X110549090Y-98253774D02*
X110644328Y-98349012D01*
X110644328Y-98349012D02*
X110739566Y-98396631D01*
X110739566Y-98396631D02*
X110930042Y-98444250D01*
X110930042Y-98444250D02*
X111072899Y-98444250D01*
X111072899Y-98444250D02*
X111263375Y-98396631D01*
X111263375Y-98396631D02*
X111358613Y-98349012D01*
X111358613Y-98349012D02*
X111453851Y-98253774D01*
X111453851Y-98253774D02*
X111501470Y-98110917D01*
X111501470Y-98110917D02*
X111501470Y-98015679D01*
X111501470Y-98015679D02*
X111453851Y-97872822D01*
X111453851Y-97872822D02*
X111406232Y-97825203D01*
X110549090Y-97444250D02*
X110501470Y-97301393D01*
X110501470Y-97301393D02*
X110501470Y-97063298D01*
X110501470Y-97063298D02*
X110549090Y-96968060D01*
X110549090Y-96968060D02*
X110596709Y-96920441D01*
X110596709Y-96920441D02*
X110691947Y-96872822D01*
X110691947Y-96872822D02*
X110787185Y-96872822D01*
X110787185Y-96872822D02*
X110882423Y-96920441D01*
X110882423Y-96920441D02*
X110930042Y-96968060D01*
X110930042Y-96968060D02*
X110977661Y-97063298D01*
X110977661Y-97063298D02*
X111025280Y-97253774D01*
X111025280Y-97253774D02*
X111072899Y-97349012D01*
X111072899Y-97349012D02*
X111120518Y-97396631D01*
X111120518Y-97396631D02*
X111215756Y-97444250D01*
X111215756Y-97444250D02*
X111310994Y-97444250D01*
X111310994Y-97444250D02*
X111406232Y-97396631D01*
X111406232Y-97396631D02*
X111453851Y-97349012D01*
X111453851Y-97349012D02*
X111501470Y-97253774D01*
X111501470Y-97253774D02*
X111501470Y-97015679D01*
X111501470Y-97015679D02*
X111453851Y-96872822D01*
D10*
X142107202Y-108921255D02*
X142107202Y-109778398D01*
X143607202Y-109349826D02*
X142107202Y-109349826D01*
X143607202Y-110278397D02*
X142107202Y-110278397D01*
X143607202Y-110921255D02*
X142821488Y-110921255D01*
X142821488Y-110921255D02*
X142678631Y-110849826D01*
X142678631Y-110849826D02*
X142607202Y-110706969D01*
X142607202Y-110706969D02*
X142607202Y-110492683D01*
X142607202Y-110492683D02*
X142678631Y-110349826D01*
X142678631Y-110349826D02*
X142750059Y-110278397D01*
X142607202Y-112278398D02*
X143607202Y-112278398D01*
X142607202Y-111635540D02*
X143392916Y-111635540D01*
X143392916Y-111635540D02*
X143535774Y-111706969D01*
X143535774Y-111706969D02*
X143607202Y-111849826D01*
X143607202Y-111849826D02*
X143607202Y-112064112D01*
X143607202Y-112064112D02*
X143535774Y-112206969D01*
X143535774Y-112206969D02*
X143464345Y-112278398D01*
X143607202Y-112992683D02*
X142607202Y-112992683D01*
X142750059Y-112992683D02*
X142678631Y-113064112D01*
X142678631Y-113064112D02*
X142607202Y-113206969D01*
X142607202Y-113206969D02*
X142607202Y-113421255D01*
X142607202Y-113421255D02*
X142678631Y-113564112D01*
X142678631Y-113564112D02*
X142821488Y-113635541D01*
X142821488Y-113635541D02*
X143607202Y-113635541D01*
X142821488Y-113635541D02*
X142678631Y-113706969D01*
X142678631Y-113706969D02*
X142607202Y-113849826D01*
X142607202Y-113849826D02*
X142607202Y-114064112D01*
X142607202Y-114064112D02*
X142678631Y-114206969D01*
X142678631Y-114206969D02*
X142821488Y-114278398D01*
X142821488Y-114278398D02*
X143607202Y-114278398D01*
X143607202Y-114992683D02*
X142107202Y-114992683D01*
X142678631Y-114992683D02*
X142607202Y-115135541D01*
X142607202Y-115135541D02*
X142607202Y-115421255D01*
X142607202Y-115421255D02*
X142678631Y-115564112D01*
X142678631Y-115564112D02*
X142750059Y-115635541D01*
X142750059Y-115635541D02*
X142892916Y-115706969D01*
X142892916Y-115706969D02*
X143321488Y-115706969D01*
X143321488Y-115706969D02*
X143464345Y-115635541D01*
X143464345Y-115635541D02*
X143535774Y-115564112D01*
X143535774Y-115564112D02*
X143607202Y-115421255D01*
X143607202Y-115421255D02*
X143607202Y-115135541D01*
X143607202Y-115135541D02*
X143535774Y-114992683D01*
X143535774Y-116278398D02*
X143607202Y-116421255D01*
X143607202Y-116421255D02*
X143607202Y-116706969D01*
X143607202Y-116706969D02*
X143535774Y-116849826D01*
X143535774Y-116849826D02*
X143392916Y-116921255D01*
X143392916Y-116921255D02*
X143321488Y-116921255D01*
X143321488Y-116921255D02*
X143178631Y-116849826D01*
X143178631Y-116849826D02*
X143107202Y-116706969D01*
X143107202Y-116706969D02*
X143107202Y-116492684D01*
X143107202Y-116492684D02*
X143035774Y-116349826D01*
X143035774Y-116349826D02*
X142892916Y-116278398D01*
X142892916Y-116278398D02*
X142821488Y-116278398D01*
X142821488Y-116278398D02*
X142678631Y-116349826D01*
X142678631Y-116349826D02*
X142607202Y-116492684D01*
X142607202Y-116492684D02*
X142607202Y-116706969D01*
X142607202Y-116706969D02*
X142678631Y-116849826D01*
X142107202Y-117564112D02*
X143321488Y-117564112D01*
X143321488Y-117564112D02*
X143464345Y-117635541D01*
X143464345Y-117635541D02*
X143535774Y-117706970D01*
X143535774Y-117706970D02*
X143607202Y-117849827D01*
X143607202Y-117849827D02*
X143607202Y-118135541D01*
X143607202Y-118135541D02*
X143535774Y-118278398D01*
X143535774Y-118278398D02*
X143464345Y-118349827D01*
X143464345Y-118349827D02*
X143321488Y-118421255D01*
X143321488Y-118421255D02*
X142107202Y-118421255D01*
X142607202Y-119135541D02*
X144107202Y-119135541D01*
X142678631Y-119135541D02*
X142607202Y-119278399D01*
X142607202Y-119278399D02*
X142607202Y-119564113D01*
X142607202Y-119564113D02*
X142678631Y-119706970D01*
X142678631Y-119706970D02*
X142750059Y-119778399D01*
X142750059Y-119778399D02*
X142892916Y-119849827D01*
X142892916Y-119849827D02*
X143321488Y-119849827D01*
X143321488Y-119849827D02*
X143464345Y-119778399D01*
X143464345Y-119778399D02*
X143535774Y-119706970D01*
X143535774Y-119706970D02*
X143607202Y-119564113D01*
X143607202Y-119564113D02*
X143607202Y-119278399D01*
X143607202Y-119278399D02*
X143535774Y-119135541D01*
X143464345Y-120492684D02*
X143535774Y-120564113D01*
X143535774Y-120564113D02*
X143607202Y-120492684D01*
X143607202Y-120492684D02*
X143535774Y-120421256D01*
X143535774Y-120421256D02*
X143464345Y-120492684D01*
X143464345Y-120492684D02*
X143607202Y-120492684D01*
X143035774Y-120492684D02*
X142178631Y-120421256D01*
X142178631Y-120421256D02*
X142107202Y-120492684D01*
X142107202Y-120492684D02*
X142178631Y-120564113D01*
X142178631Y-120564113D02*
X143035774Y-120492684D01*
X143035774Y-120492684D02*
X142107202Y-120492684D01*
X144522118Y-108921255D02*
X144522118Y-109778398D01*
X146022118Y-109349826D02*
X144522118Y-109349826D01*
X146022118Y-110278397D02*
X145022118Y-110278397D01*
X145307832Y-110278397D02*
X145164975Y-110349826D01*
X145164975Y-110349826D02*
X145093547Y-110421255D01*
X145093547Y-110421255D02*
X145022118Y-110564112D01*
X145022118Y-110564112D02*
X145022118Y-110706969D01*
X146022118Y-111849826D02*
X145236404Y-111849826D01*
X145236404Y-111849826D02*
X145093547Y-111778397D01*
X145093547Y-111778397D02*
X145022118Y-111635540D01*
X145022118Y-111635540D02*
X145022118Y-111349826D01*
X145022118Y-111349826D02*
X145093547Y-111206968D01*
X145950690Y-111849826D02*
X146022118Y-111706968D01*
X146022118Y-111706968D02*
X146022118Y-111349826D01*
X146022118Y-111349826D02*
X145950690Y-111206968D01*
X145950690Y-111206968D02*
X145807832Y-111135540D01*
X145807832Y-111135540D02*
X145664975Y-111135540D01*
X145664975Y-111135540D02*
X145522118Y-111206968D01*
X145522118Y-111206968D02*
X145450690Y-111349826D01*
X145450690Y-111349826D02*
X145450690Y-111706968D01*
X145450690Y-111706968D02*
X145379261Y-111849826D01*
X145950690Y-113206969D02*
X146022118Y-113064111D01*
X146022118Y-113064111D02*
X146022118Y-112778397D01*
X146022118Y-112778397D02*
X145950690Y-112635540D01*
X145950690Y-112635540D02*
X145879261Y-112564111D01*
X145879261Y-112564111D02*
X145736404Y-112492683D01*
X145736404Y-112492683D02*
X145307832Y-112492683D01*
X145307832Y-112492683D02*
X145164975Y-112564111D01*
X145164975Y-112564111D02*
X145093547Y-112635540D01*
X145093547Y-112635540D02*
X145022118Y-112778397D01*
X145022118Y-112778397D02*
X145022118Y-113064111D01*
X145022118Y-113064111D02*
X145093547Y-113206969D01*
X146022118Y-113849825D02*
X144522118Y-113849825D01*
X145450690Y-113992683D02*
X146022118Y-114421254D01*
X145022118Y-114421254D02*
X145593547Y-113849825D01*
X146022118Y-115064111D02*
X144522118Y-115064111D01*
X145093547Y-115064111D02*
X145022118Y-115206969D01*
X145022118Y-115206969D02*
X145022118Y-115492683D01*
X145022118Y-115492683D02*
X145093547Y-115635540D01*
X145093547Y-115635540D02*
X145164975Y-115706969D01*
X145164975Y-115706969D02*
X145307832Y-115778397D01*
X145307832Y-115778397D02*
X145736404Y-115778397D01*
X145736404Y-115778397D02*
X145879261Y-115706969D01*
X145879261Y-115706969D02*
X145950690Y-115635540D01*
X145950690Y-115635540D02*
X146022118Y-115492683D01*
X146022118Y-115492683D02*
X146022118Y-115206969D01*
X146022118Y-115206969D02*
X145950690Y-115064111D01*
X146022118Y-117064112D02*
X145236404Y-117064112D01*
X145236404Y-117064112D02*
X145093547Y-116992683D01*
X145093547Y-116992683D02*
X145022118Y-116849826D01*
X145022118Y-116849826D02*
X145022118Y-116564112D01*
X145022118Y-116564112D02*
X145093547Y-116421254D01*
X145950690Y-117064112D02*
X146022118Y-116921254D01*
X146022118Y-116921254D02*
X146022118Y-116564112D01*
X146022118Y-116564112D02*
X145950690Y-116421254D01*
X145950690Y-116421254D02*
X145807832Y-116349826D01*
X145807832Y-116349826D02*
X145664975Y-116349826D01*
X145664975Y-116349826D02*
X145522118Y-116421254D01*
X145522118Y-116421254D02*
X145450690Y-116564112D01*
X145450690Y-116564112D02*
X145450690Y-116921254D01*
X145450690Y-116921254D02*
X145379261Y-117064112D01*
X146022118Y-117992683D02*
X145950690Y-117849826D01*
X145950690Y-117849826D02*
X145807832Y-117778397D01*
X145807832Y-117778397D02*
X144522118Y-117778397D01*
X146022118Y-118778397D02*
X145950690Y-118635540D01*
X145950690Y-118635540D02*
X145807832Y-118564111D01*
X145807832Y-118564111D02*
X144522118Y-118564111D01*
X145022118Y-120349825D02*
X146022118Y-120706968D01*
X146022118Y-120706968D02*
X145022118Y-121064111D01*
X144522118Y-121492682D02*
X144522118Y-122421254D01*
X144522118Y-122421254D02*
X145093547Y-121921254D01*
X145093547Y-121921254D02*
X145093547Y-122135539D01*
X145093547Y-122135539D02*
X145164975Y-122278397D01*
X145164975Y-122278397D02*
X145236404Y-122349825D01*
X145236404Y-122349825D02*
X145379261Y-122421254D01*
X145379261Y-122421254D02*
X145736404Y-122421254D01*
X145736404Y-122421254D02*
X145879261Y-122349825D01*
X145879261Y-122349825D02*
X145950690Y-122278397D01*
X145950690Y-122278397D02*
X146022118Y-122135539D01*
X146022118Y-122135539D02*
X146022118Y-121706968D01*
X146022118Y-121706968D02*
X145950690Y-121564111D01*
X145950690Y-121564111D02*
X145879261Y-121492682D01*
D11*
X98426109Y-87645316D02*
X97426109Y-87645316D01*
X97426109Y-87645316D02*
X98140394Y-87978649D01*
X98140394Y-87978649D02*
X97426109Y-88311982D01*
X97426109Y-88311982D02*
X98426109Y-88311982D01*
X97426109Y-88692935D02*
X98426109Y-89359601D01*
X97426109Y-89359601D02*
X98426109Y-88692935D01*
X97759442Y-90169125D02*
X98426109Y-90169125D01*
X97378490Y-89931030D02*
X98092775Y-89692935D01*
X98092775Y-89692935D02*
X98092775Y-90311982D01*
X170176109Y-87145316D02*
X169176109Y-87145316D01*
X169176109Y-87145316D02*
X169890394Y-87478649D01*
X169890394Y-87478649D02*
X169176109Y-87811982D01*
X169176109Y-87811982D02*
X170176109Y-87811982D01*
X169176109Y-88192935D02*
X170176109Y-88859601D01*
X169176109Y-88859601D02*
X170176109Y-88192935D01*
X170176109Y-89764363D02*
X170176109Y-89192935D01*
X170176109Y-89478649D02*
X169176109Y-89478649D01*
X169176109Y-89478649D02*
X169318966Y-89383411D01*
X169318966Y-89383411D02*
X169414204Y-89288173D01*
X169414204Y-89288173D02*
X169461823Y-89192935D01*
X104554623Y-125135849D02*
X104554623Y-125850134D01*
X104554623Y-125850134D02*
X104602242Y-125992991D01*
X104602242Y-125992991D02*
X104697480Y-126088230D01*
X104697480Y-126088230D02*
X104840337Y-126135849D01*
X104840337Y-126135849D02*
X104935575Y-126135849D01*
X103602242Y-125135849D02*
X104078432Y-125135849D01*
X104078432Y-125135849D02*
X104126051Y-125612039D01*
X104126051Y-125612039D02*
X104078432Y-125564420D01*
X104078432Y-125564420D02*
X103983194Y-125516801D01*
X103983194Y-125516801D02*
X103745099Y-125516801D01*
X103745099Y-125516801D02*
X103649861Y-125564420D01*
X103649861Y-125564420D02*
X103602242Y-125612039D01*
X103602242Y-125612039D02*
X103554623Y-125707277D01*
X103554623Y-125707277D02*
X103554623Y-125945372D01*
X103554623Y-125945372D02*
X103602242Y-126040610D01*
X103602242Y-126040610D02*
X103649861Y-126088230D01*
X103649861Y-126088230D02*
X103745099Y-126135849D01*
X103745099Y-126135849D02*
X103983194Y-126135849D01*
X103983194Y-126135849D02*
X104078432Y-126088230D01*
X104078432Y-126088230D02*
X104126051Y-126040610D01*
X153304623Y-125385849D02*
X153304623Y-126100134D01*
X153304623Y-126100134D02*
X153352242Y-126242991D01*
X153352242Y-126242991D02*
X153447480Y-126338230D01*
X153447480Y-126338230D02*
X153590337Y-126385849D01*
X153590337Y-126385849D02*
X153685575Y-126385849D01*
X152399861Y-125719182D02*
X152399861Y-126385849D01*
X152637956Y-125338230D02*
X152876051Y-126052515D01*
X152876051Y-126052515D02*
X152257004Y-126052515D01*
X103270738Y-81483121D02*
X103775814Y-81988197D01*
X103775814Y-81988197D02*
X103910501Y-82055541D01*
X103910501Y-82055541D02*
X104045188Y-82055541D01*
X104045188Y-82055541D02*
X104179875Y-81988197D01*
X104179875Y-81988197D02*
X104247219Y-81920854D01*
X103001364Y-81752495D02*
X102563631Y-82190228D01*
X102563631Y-82190228D02*
X103068707Y-82223900D01*
X103068707Y-82223900D02*
X102967692Y-82324915D01*
X102967692Y-82324915D02*
X102934020Y-82425930D01*
X102934020Y-82425930D02*
X102934020Y-82493274D01*
X102934020Y-82493274D02*
X102967692Y-82594289D01*
X102967692Y-82594289D02*
X103136051Y-82762648D01*
X103136051Y-82762648D02*
X103237066Y-82796319D01*
X103237066Y-82796319D02*
X103304409Y-82796319D01*
X103304409Y-82796319D02*
X103405425Y-82762648D01*
X103405425Y-82762648D02*
X103607455Y-82560617D01*
X103607455Y-82560617D02*
X103641127Y-82459602D01*
X103641127Y-82459602D02*
X103641127Y-82392258D01*
D12*
X130414623Y-131694872D02*
X130233194Y-131755348D01*
X130233194Y-131755348D02*
X129930813Y-131755348D01*
X129930813Y-131755348D02*
X129809861Y-131694872D01*
X129809861Y-131694872D02*
X129749385Y-131634395D01*
X129749385Y-131634395D02*
X129688908Y-131513443D01*
X129688908Y-131513443D02*
X129688908Y-131392491D01*
X129688908Y-131392491D02*
X129749385Y-131271538D01*
X129749385Y-131271538D02*
X129809861Y-131211062D01*
X129809861Y-131211062D02*
X129930813Y-131150586D01*
X129930813Y-131150586D02*
X130172718Y-131090110D01*
X130172718Y-131090110D02*
X130293670Y-131029633D01*
X130293670Y-131029633D02*
X130354147Y-130969157D01*
X130354147Y-130969157D02*
X130414623Y-130848205D01*
X130414623Y-130848205D02*
X130414623Y-130727252D01*
X130414623Y-130727252D02*
X130354147Y-130606300D01*
X130354147Y-130606300D02*
X130293670Y-130545824D01*
X130293670Y-130545824D02*
X130172718Y-130485348D01*
X130172718Y-130485348D02*
X129870337Y-130485348D01*
X129870337Y-130485348D02*
X129688908Y-130545824D01*
X129265575Y-130485348D02*
X128963194Y-131755348D01*
X128963194Y-131755348D02*
X128721289Y-130848205D01*
X128721289Y-130848205D02*
X128479384Y-131755348D01*
X128479384Y-131755348D02*
X128177004Y-130485348D01*
X127027955Y-131755348D02*
X127753670Y-131755348D01*
X127390813Y-131755348D02*
X127390813Y-130485348D01*
X127390813Y-130485348D02*
X127511765Y-130666776D01*
X127511765Y-130666776D02*
X127632717Y-130787729D01*
X127632717Y-130787729D02*
X127753670Y-130848205D01*
D11*
X154378394Y-82055330D02*
X153873318Y-82560406D01*
X153873318Y-82560406D02*
X153805974Y-82695093D01*
X153805974Y-82695093D02*
X153805974Y-82829780D01*
X153805974Y-82829780D02*
X153873318Y-82964467D01*
X153873318Y-82964467D02*
X153940661Y-83031811D01*
X154008005Y-81819627D02*
X154008005Y-81752284D01*
X154008005Y-81752284D02*
X153974333Y-81651269D01*
X153974333Y-81651269D02*
X153805974Y-81482910D01*
X153805974Y-81482910D02*
X153704959Y-81449238D01*
X153704959Y-81449238D02*
X153637615Y-81449238D01*
X153637615Y-81449238D02*
X153536600Y-81482910D01*
X153536600Y-81482910D02*
X153469257Y-81550253D01*
X153469257Y-81550253D02*
X153401913Y-81684940D01*
X153401913Y-81684940D02*
X153401913Y-82493062D01*
X153401913Y-82493062D02*
X152964180Y-82055330D01*
D12*
X145664623Y-127194872D02*
X145483194Y-127255348D01*
X145483194Y-127255348D02*
X145180813Y-127255348D01*
X145180813Y-127255348D02*
X145059861Y-127194872D01*
X145059861Y-127194872D02*
X144999385Y-127134395D01*
X144999385Y-127134395D02*
X144938908Y-127013443D01*
X144938908Y-127013443D02*
X144938908Y-126892491D01*
X144938908Y-126892491D02*
X144999385Y-126771538D01*
X144999385Y-126771538D02*
X145059861Y-126711062D01*
X145059861Y-126711062D02*
X145180813Y-126650586D01*
X145180813Y-126650586D02*
X145422718Y-126590110D01*
X145422718Y-126590110D02*
X145543670Y-126529633D01*
X145543670Y-126529633D02*
X145604147Y-126469157D01*
X145604147Y-126469157D02*
X145664623Y-126348205D01*
X145664623Y-126348205D02*
X145664623Y-126227252D01*
X145664623Y-126227252D02*
X145604147Y-126106300D01*
X145604147Y-126106300D02*
X145543670Y-126045824D01*
X145543670Y-126045824D02*
X145422718Y-125985348D01*
X145422718Y-125985348D02*
X145120337Y-125985348D01*
X145120337Y-125985348D02*
X144938908Y-126045824D01*
X144515575Y-125985348D02*
X144213194Y-127255348D01*
X144213194Y-127255348D02*
X143971289Y-126348205D01*
X143971289Y-126348205D02*
X143729384Y-127255348D01*
X143729384Y-127255348D02*
X143427004Y-125985348D01*
X143064146Y-125985348D02*
X142277955Y-125985348D01*
X142277955Y-125985348D02*
X142701289Y-126469157D01*
X142701289Y-126469157D02*
X142519860Y-126469157D01*
X142519860Y-126469157D02*
X142398908Y-126529633D01*
X142398908Y-126529633D02*
X142338432Y-126590110D01*
X142338432Y-126590110D02*
X142277955Y-126711062D01*
X142277955Y-126711062D02*
X142277955Y-127013443D01*
X142277955Y-127013443D02*
X142338432Y-127134395D01*
X142338432Y-127134395D02*
X142398908Y-127194872D01*
X142398908Y-127194872D02*
X142519860Y-127255348D01*
X142519860Y-127255348D02*
X142882717Y-127255348D01*
X142882717Y-127255348D02*
X143003670Y-127194872D01*
X143003670Y-127194872D02*
X143064146Y-127134395D01*
D11*
X115921491Y-110409826D02*
X116426567Y-110914902D01*
X116426567Y-110914902D02*
X116561254Y-110982246D01*
X116561254Y-110982246D02*
X116695941Y-110982246D01*
X116695941Y-110982246D02*
X116830628Y-110914902D01*
X116830628Y-110914902D02*
X116897972Y-110847559D01*
X115921491Y-111824040D02*
X116325552Y-111419979D01*
X116123521Y-111622009D02*
X115416414Y-110914902D01*
X115416414Y-110914902D02*
X115584773Y-110948574D01*
X115584773Y-110948574D02*
X115719460Y-110948574D01*
X115719460Y-110948574D02*
X115820475Y-110914902D01*
D12*
X114664623Y-127194872D02*
X114483194Y-127255348D01*
X114483194Y-127255348D02*
X114180813Y-127255348D01*
X114180813Y-127255348D02*
X114059861Y-127194872D01*
X114059861Y-127194872D02*
X113999385Y-127134395D01*
X113999385Y-127134395D02*
X113938908Y-127013443D01*
X113938908Y-127013443D02*
X113938908Y-126892491D01*
X113938908Y-126892491D02*
X113999385Y-126771538D01*
X113999385Y-126771538D02*
X114059861Y-126711062D01*
X114059861Y-126711062D02*
X114180813Y-126650586D01*
X114180813Y-126650586D02*
X114422718Y-126590110D01*
X114422718Y-126590110D02*
X114543670Y-126529633D01*
X114543670Y-126529633D02*
X114604147Y-126469157D01*
X114604147Y-126469157D02*
X114664623Y-126348205D01*
X114664623Y-126348205D02*
X114664623Y-126227252D01*
X114664623Y-126227252D02*
X114604147Y-126106300D01*
X114604147Y-126106300D02*
X114543670Y-126045824D01*
X114543670Y-126045824D02*
X114422718Y-125985348D01*
X114422718Y-125985348D02*
X114120337Y-125985348D01*
X114120337Y-125985348D02*
X113938908Y-126045824D01*
X113515575Y-125985348D02*
X113213194Y-127255348D01*
X113213194Y-127255348D02*
X112971289Y-126348205D01*
X112971289Y-126348205D02*
X112729384Y-127255348D01*
X112729384Y-127255348D02*
X112427004Y-125985348D01*
X112003670Y-126106300D02*
X111943194Y-126045824D01*
X111943194Y-126045824D02*
X111822241Y-125985348D01*
X111822241Y-125985348D02*
X111519860Y-125985348D01*
X111519860Y-125985348D02*
X111398908Y-126045824D01*
X111398908Y-126045824D02*
X111338432Y-126106300D01*
X111338432Y-126106300D02*
X111277955Y-126227252D01*
X111277955Y-126227252D02*
X111277955Y-126348205D01*
X111277955Y-126348205D02*
X111338432Y-126529633D01*
X111338432Y-126529633D02*
X112064146Y-127255348D01*
X112064146Y-127255348D02*
X111277955Y-127255348D01*
D11*
X100639290Y-84028030D02*
X101139290Y-84528030D01*
X97139290Y-84028030D02*
X96639290Y-84528030D01*
X101139290Y-84528030D02*
X101139290Y-87528030D01*
X96639290Y-84528030D02*
X96639290Y-87028030D01*
X101139290Y-87528030D02*
X100639290Y-88028030D01*
X99639290Y-88028030D02*
X100639290Y-88028030D01*
X95139290Y-88528030D02*
X94439290Y-88528030D01*
X94439290Y-88528030D02*
X94439290Y-93028030D01*
X99139290Y-93028030D02*
X99139290Y-88528030D01*
X98539290Y-93028030D02*
X99139290Y-93028030D01*
X94439290Y-93028030D02*
X94939290Y-93028030D01*
X96639290Y-87028030D02*
G75*
G02*
X95139290Y-88528030I-1500001J1D01*
G01*
X99139290Y-88528030D02*
G75*
G02*
X99639290Y-88028030I500001J-1D01*
G01*
X137631290Y-105731030D02*
X137631290Y-136211030D01*
X119851290Y-105731030D02*
X137631290Y-105731030D01*
X119851290Y-136211030D02*
X119851290Y-105731030D01*
X172171290Y-84081030D02*
X172671290Y-84581030D01*
X168671290Y-84081030D02*
X168171290Y-84581030D01*
X172671290Y-84581030D02*
X172671290Y-87581030D01*
X168171290Y-84581030D02*
X168171290Y-87081030D01*
X172671290Y-87581030D02*
X172171290Y-88081030D01*
X171171290Y-88081030D02*
X172171290Y-88081030D01*
X166671290Y-88581030D02*
X165971290Y-88581030D01*
X165971290Y-88581030D02*
X165971290Y-93081030D01*
X170671290Y-93081030D02*
X170671290Y-88581030D01*
X170071290Y-93081030D02*
X170671290Y-93081030D01*
X165971290Y-93081030D02*
X166471290Y-93081030D01*
X168171290Y-87081030D02*
G75*
G02*
X166671290Y-88581030I-1500001J1D01*
G01*
X170671290Y-88581030D02*
G75*
G02*
X171171290Y-88081030I500001J-1D01*
G01*
D13*
X102957290Y-118049030D02*
X105717290Y-118049030D01*
X105717290Y-125779030D02*
X105717290Y-118049030D01*
X102957290Y-125779030D02*
X102957290Y-118049030D01*
X102957290Y-125779030D02*
X105717290Y-125779030D01*
X102957290Y-127049030D02*
X102957290Y-128429030D01*
X102957290Y-128429030D02*
X104337290Y-128429030D01*
X151725290Y-118049030D02*
X154485290Y-118049030D01*
X154485290Y-125779030D02*
X154485290Y-118049030D01*
X151725290Y-125779030D02*
X151725290Y-118049030D01*
X151725290Y-125779030D02*
X154485290Y-125779030D01*
X151725290Y-127049030D02*
X151725290Y-128429030D01*
X151725290Y-128429030D02*
X153105290Y-128429030D01*
X102535239Y-79103364D02*
X101559432Y-80079172D01*
X103511046Y-80079172D02*
X102535239Y-79103364D01*
X104409072Y-80977197D02*
X102457457Y-82928812D01*
X104409072Y-80977197D02*
X109875007Y-86443133D01*
X102457457Y-82928812D02*
X107923393Y-88394747D01*
X109875007Y-86443133D02*
X107923393Y-88394747D01*
D14*
X133021290Y-129031030D02*
X133021290Y-130181030D01*
X124421290Y-129031030D02*
X133021290Y-129031030D01*
X124421290Y-130181030D02*
X124421290Y-129031030D01*
X124421290Y-132181030D02*
X124421290Y-133331030D01*
X133021290Y-133331030D02*
X133021290Y-132181030D01*
X124421290Y-133331030D02*
X133021290Y-133331030D01*
D13*
X153027457Y-80983248D02*
X147561522Y-86449184D01*
X156852905Y-81061030D02*
X155877097Y-80085223D01*
X155877097Y-82036837D02*
X156852905Y-81061030D01*
X154979072Y-82934863D02*
X153027457Y-80983248D01*
X154979072Y-82934863D02*
X149513136Y-88400798D01*
X149513136Y-88400798D02*
X147561522Y-86449184D01*
D14*
X148271290Y-124531030D02*
X148271290Y-125681030D01*
X139671290Y-124531030D02*
X148271290Y-124531030D01*
X139671290Y-125681030D02*
X139671290Y-124531030D01*
X139671290Y-127681030D02*
X139671290Y-128831030D01*
X148271290Y-128831030D02*
X148271290Y-127681030D01*
X139671290Y-128831030D02*
X148271290Y-128831030D01*
D13*
X116849071Y-109857196D02*
X114975239Y-107983364D01*
X113023624Y-109934979D02*
X114975239Y-107983364D01*
X114897457Y-111808812D02*
X116849071Y-109857196D01*
X114897457Y-111808812D02*
X113023624Y-109934979D01*
X115795483Y-112706837D02*
X116771290Y-113682645D01*
X116771290Y-113682645D02*
X117747097Y-112706837D01*
D14*
X117271290Y-124531030D02*
X117271290Y-125681030D01*
X108671290Y-124531030D02*
X117271290Y-124531030D01*
X108671290Y-125681030D02*
X108671290Y-124531030D01*
X108671290Y-127681030D02*
X108671290Y-128831030D01*
X117271290Y-128831030D02*
X117271290Y-127681030D01*
X108671290Y-128831030D02*
X117271290Y-128831030D01*
M02*
