M48
; DRILL file {KiCad 9.0.2} date 2025-09-01T17:42:33-0400
; FORMAT={-:-/ absolute / metric / decimal}
; #@! TF.CreationDate,2025-09-01T17:42:33-04:00
; #@! TF.GenerationSoftware,Kicad,Pcbnew,9.0.2
; #@! TF.FileFunction,Plated,1,2,PTH
FMAT,2
METRIC
; #@! TA.AperFunction,Plated,PTH,ViaDrill
T1C0.400
; #@! TA.AperFunction,Plated,PTH,ComponentDrill
T2C0.750
; #@! TA.AperFunction,Plated,PTH,ComponentDrill
T3C0.800
; #@! TA.AperFunction,Plated,PTH,ComponentDrill
T4C1.000
; #@! TA.AperFunction,Plated,PTH,ComponentDrill
T5C1.100
; #@! TA.AperFunction,Plated,PTH,ComponentDrill
T6C2.500
%
G90
G05
T1
X88.721Y-83.681
X88.721Y-88.681
X88.721Y-93.681
X111.221Y-105.431
X112.371Y-116.131
X112.471Y-97.431
X113.721Y-93.681
X116.471Y-123.931
X116.571Y-115.131
X117.571Y-119.581
X118.521Y-110.831
X124.821Y-104.981
X125.721Y-115.681
X126.821Y-110.231
X130.871Y-111.281
X131.221Y-121.931
X131.821Y-119.881
X133.721Y-105.831
X133.821Y-117.481
X139.421Y-114.381
X143.671Y-113.131
X143.721Y-133.681
X143.771Y-109.681
X145.471Y-93.931
X145.621Y-116.581
X146.221Y-97.431
X148.721Y-128.681
X150.871Y-106.931
X151.071Y-114.031
X158.721Y-82.156
X158.721Y-88.681
X158.721Y-93.681
X168.471Y-82.931
T2
X114.971Y-126.681
X130.721Y-131.181
X145.971Y-126.681
T3
X110.971Y-126.681
X112.971Y-126.681
X126.721Y-131.181
X128.721Y-131.181
X141.971Y-126.681
X143.971Y-126.681
T4
X102.535Y-81.055
X104.331Y-82.851
X104.337Y-91.489
X104.337Y-94.029
X104.337Y-96.569
X104.337Y-99.109
X104.337Y-119.429
X104.337Y-121.969
X104.337Y-124.509
X104.337Y-127.049
X106.127Y-84.647
X107.923Y-86.443
X108.721Y-101.681
X108.971Y-126.681
X111.261Y-101.681
X113.801Y-101.681
X114.975Y-109.935
X116.771Y-111.731
X116.971Y-126.681
X124.721Y-131.181
X124.911Y-127.182
X127.451Y-127.182
X129.991Y-127.182
X132.531Y-127.182
X132.721Y-131.181
X139.971Y-126.681
X143.641Y-101.681
X146.181Y-101.681
X147.971Y-126.681
X148.721Y-101.681
X149.513Y-86.449
X151.309Y-84.653
X153.105Y-82.857
X153.105Y-91.489
X153.105Y-94.029
X153.105Y-96.569
X153.105Y-99.109
X153.105Y-119.429
X153.105Y-121.969
X153.105Y-124.509
X153.105Y-127.049
X154.901Y-81.061
T5
X121.121Y-107.001
X121.121Y-109.541
X121.121Y-112.081
X121.121Y-114.621
X121.121Y-117.161
X121.121Y-119.701
X121.121Y-122.241
X121.121Y-124.781
X121.121Y-127.321
X121.121Y-129.861
X121.121Y-132.401
X121.121Y-134.941
X136.361Y-107.001
X136.361Y-109.541
X136.361Y-112.081
X136.361Y-114.621
X136.361Y-117.161
X136.361Y-119.701
X136.361Y-122.241
X136.361Y-124.781
X136.361Y-127.321
X136.361Y-129.861
X136.361Y-132.401
X136.361Y-134.941
T6
X113.301Y-85.921
X144.161Y-85.941
M30
