G04 #@! TF.GenerationSoftware,KiCad,Pcbnew,9.0.2*
G04 #@! TF.CreationDate,2025-09-19T15:47:29-04:00*
G04 #@! TF.ProjectId,Trackball,54726163-6b62-4616-9c6c-2e6b69636164,rev?*
G04 #@! TF.SameCoordinates,Original*
G04 #@! TF.FileFunction,Soldermask,Top*
G04 #@! TF.FilePolarity,Negative*
%FSLAX46Y46*%
G04 Gerber Fmt 4.6, Leading zero omitted, Abs format (unit mm)*
G04 Created by KiCad (PCBNEW 9.0.2) date 2025-09-19 15:47:29*
%MOMM*%
%LPD*%
G01*
G04 APERTURE LIST*
G04 APERTURE END LIST*
G36*
X162997586Y-139915699D02*
G01*
X163358619Y-139987513D01*
X163710874Y-140094368D01*
X164050959Y-140235236D01*
X164375599Y-140408760D01*
X164681668Y-140613269D01*
X164966218Y-140846792D01*
X165226508Y-141107082D01*
X165460031Y-141391632D01*
X165664540Y-141697701D01*
X165838064Y-142022341D01*
X165978932Y-142362426D01*
X166085787Y-142714681D01*
X166157601Y-143075714D01*
X166193682Y-143442047D01*
X166193682Y-143810153D01*
X166157601Y-144176486D01*
X166085787Y-144537519D01*
X165978932Y-144889774D01*
X165838064Y-145229859D01*
X165664540Y-145554499D01*
X165460031Y-145860568D01*
X165226508Y-146145118D01*
X164966218Y-146405408D01*
X164681668Y-146638931D01*
X164375599Y-146843440D01*
X164050959Y-147016964D01*
X163710874Y-147157832D01*
X163358619Y-147264687D01*
X162997586Y-147336501D01*
X162631253Y-147372582D01*
X162263147Y-147372582D01*
X161896814Y-147336501D01*
X161535781Y-147264687D01*
X161183526Y-147157832D01*
X160843441Y-147016964D01*
X160518801Y-146843440D01*
X160212732Y-146638931D01*
X159928182Y-146405408D01*
X159667892Y-146145118D01*
X159434369Y-145860568D01*
X159229860Y-145554499D01*
X159056336Y-145229859D01*
X158915468Y-144889774D01*
X158808613Y-144537519D01*
X158736799Y-144176486D01*
X158700718Y-143810153D01*
X158700718Y-143442047D01*
X158736799Y-143075714D01*
X158808613Y-142714681D01*
X158915468Y-142362426D01*
X159056336Y-142022341D01*
X159229860Y-141697701D01*
X159434369Y-141391632D01*
X159667892Y-141107082D01*
X159928182Y-140846792D01*
X160212732Y-140613269D01*
X160518801Y-140408760D01*
X160843441Y-140235236D01*
X161183526Y-140094368D01*
X161535781Y-139987513D01*
X161896814Y-139915699D01*
X162263147Y-139879618D01*
X162631253Y-139879618D01*
X162997586Y-139915699D01*
G37*
G36*
X151019517Y-145116882D02*
G01*
X151036062Y-145127938D01*
X151047118Y-145144483D01*
X151051000Y-145164000D01*
X151051000Y-146164000D01*
X151047118Y-146183517D01*
X151036062Y-146200062D01*
X151019517Y-146211118D01*
X151000000Y-146215000D01*
X148200000Y-146215000D01*
X148180483Y-146211118D01*
X148163938Y-146200062D01*
X148152882Y-146183517D01*
X148149000Y-146164000D01*
X148149000Y-145164000D01*
X148152882Y-145144483D01*
X148163938Y-145127938D01*
X148180483Y-145116882D01*
X148200000Y-145113000D01*
X151000000Y-145113000D01*
X151019517Y-145116882D01*
G37*
G36*
X156819517Y-145116882D02*
G01*
X156836062Y-145127938D01*
X156847118Y-145144483D01*
X156851000Y-145164000D01*
X156851000Y-146164000D01*
X156847118Y-146183517D01*
X156836062Y-146200062D01*
X156819517Y-146211118D01*
X156800000Y-146215000D01*
X154000000Y-146215000D01*
X153980483Y-146211118D01*
X153963938Y-146200062D01*
X153952882Y-146183517D01*
X153949000Y-146164000D01*
X153949000Y-145164000D01*
X153952882Y-145144483D01*
X153963938Y-145127938D01*
X153980483Y-145116882D01*
X154000000Y-145113000D01*
X156800000Y-145113000D01*
X156819517Y-145116882D01*
G37*
G36*
X151019517Y-141116882D02*
G01*
X151036062Y-141127938D01*
X151047118Y-141144483D01*
X151051000Y-141164000D01*
X151051000Y-142164000D01*
X151047118Y-142183517D01*
X151036062Y-142200062D01*
X151019517Y-142211118D01*
X151000000Y-142215000D01*
X148200000Y-142215000D01*
X148180483Y-142211118D01*
X148163938Y-142200062D01*
X148152882Y-142183517D01*
X148149000Y-142164000D01*
X148149000Y-141164000D01*
X148152882Y-141144483D01*
X148163938Y-141127938D01*
X148180483Y-141116882D01*
X148200000Y-141113000D01*
X151000000Y-141113000D01*
X151019517Y-141116882D01*
G37*
G36*
X156819517Y-141116882D02*
G01*
X156836062Y-141127938D01*
X156847118Y-141144483D01*
X156851000Y-141164000D01*
X156851000Y-142164000D01*
X156847118Y-142183517D01*
X156836062Y-142200062D01*
X156819517Y-142211118D01*
X156800000Y-142215000D01*
X154000000Y-142215000D01*
X153980483Y-142211118D01*
X153963938Y-142200062D01*
X153952882Y-142183517D01*
X153949000Y-142164000D01*
X153949000Y-141164000D01*
X153952882Y-141144483D01*
X153963938Y-141127938D01*
X153980483Y-141116882D01*
X154000000Y-141113000D01*
X156800000Y-141113000D01*
X156819517Y-141116882D01*
G37*
G36*
X120744432Y-137732424D02*
G01*
X120967501Y-137792195D01*
X121180861Y-137880571D01*
X121380859Y-137996040D01*
X121564075Y-138136627D01*
X121727373Y-138299925D01*
X121867960Y-138483141D01*
X121983429Y-138683139D01*
X122071805Y-138896499D01*
X122131576Y-139119568D01*
X122161720Y-139348531D01*
X122161720Y-139579469D01*
X122131576Y-139808432D01*
X122071805Y-140031501D01*
X121983429Y-140244861D01*
X121867960Y-140444859D01*
X121727373Y-140628075D01*
X121564075Y-140791373D01*
X121380859Y-140931960D01*
X121180861Y-141047429D01*
X120967501Y-141135805D01*
X120744432Y-141195576D01*
X120515469Y-141225720D01*
X120284531Y-141225720D01*
X120055568Y-141195576D01*
X119832499Y-141135805D01*
X119619139Y-141047429D01*
X119419141Y-140931960D01*
X119235925Y-140791373D01*
X119072627Y-140628075D01*
X118932040Y-140444859D01*
X118816571Y-140244861D01*
X118728195Y-140031501D01*
X118668424Y-139808432D01*
X118638280Y-139579469D01*
X118638280Y-139348531D01*
X118668424Y-139119568D01*
X118728195Y-138896499D01*
X118816571Y-138683139D01*
X118932040Y-138483141D01*
X119072627Y-138299925D01*
X119235925Y-138136627D01*
X119419141Y-137996040D01*
X119619139Y-137880571D01*
X119832499Y-137792195D01*
X120055568Y-137732424D01*
X120284531Y-137702280D01*
X120515469Y-137702280D01*
X120744432Y-137732424D01*
G37*
G36*
X139344432Y-137732424D02*
G01*
X139567501Y-137792195D01*
X139780861Y-137880571D01*
X139980859Y-137996040D01*
X140164075Y-138136627D01*
X140327373Y-138299925D01*
X140467960Y-138483141D01*
X140583429Y-138683139D01*
X140671805Y-138896499D01*
X140731576Y-139119568D01*
X140761720Y-139348531D01*
X140761720Y-139579469D01*
X140731576Y-139808432D01*
X140671805Y-140031501D01*
X140583429Y-140244861D01*
X140467960Y-140444859D01*
X140327373Y-140628075D01*
X140164075Y-140791373D01*
X139980859Y-140931960D01*
X139780861Y-141047429D01*
X139567501Y-141135805D01*
X139344432Y-141195576D01*
X139115469Y-141225720D01*
X138884531Y-141225720D01*
X138655568Y-141195576D01*
X138432499Y-141135805D01*
X138219139Y-141047429D01*
X138019141Y-140931960D01*
X137835925Y-140791373D01*
X137672627Y-140628075D01*
X137532040Y-140444859D01*
X137416571Y-140244861D01*
X137328195Y-140031501D01*
X137268424Y-139808432D01*
X137238280Y-139579469D01*
X137238280Y-139348531D01*
X137268424Y-139119568D01*
X137328195Y-138896499D01*
X137416571Y-138683139D01*
X137532040Y-138483141D01*
X137672627Y-138299925D01*
X137835925Y-138136627D01*
X138019141Y-137996040D01*
X138219139Y-137880571D01*
X138432499Y-137792195D01*
X138655568Y-137732424D01*
X138884531Y-137702280D01*
X139115469Y-137702280D01*
X139344432Y-137732424D01*
G37*
G36*
X115161808Y-138600936D02*
G01*
X115325153Y-138668595D01*
X115472159Y-138766822D01*
X115597178Y-138891841D01*
X115695405Y-139038847D01*
X115763064Y-139202192D01*
X115797557Y-139375598D01*
X115797557Y-139552402D01*
X115763064Y-139725808D01*
X115695405Y-139889153D01*
X115597178Y-140036159D01*
X115472159Y-140161178D01*
X115325153Y-140259405D01*
X115161808Y-140327064D01*
X114988402Y-140361557D01*
X114811598Y-140361557D01*
X114638192Y-140327064D01*
X114474847Y-140259405D01*
X114327841Y-140161178D01*
X114202822Y-140036159D01*
X114104595Y-139889153D01*
X114036936Y-139725808D01*
X114002443Y-139552402D01*
X114002443Y-139375598D01*
X114036936Y-139202192D01*
X114104595Y-139038847D01*
X114202822Y-138891841D01*
X114327841Y-138766822D01*
X114474847Y-138668595D01*
X114638192Y-138600936D01*
X114811598Y-138566443D01*
X114988402Y-138566443D01*
X115161808Y-138600936D01*
G37*
G36*
X126161808Y-138600936D02*
G01*
X126325153Y-138668595D01*
X126472159Y-138766822D01*
X126597178Y-138891841D01*
X126695405Y-139038847D01*
X126763064Y-139202192D01*
X126797557Y-139375598D01*
X126797557Y-139552402D01*
X126763064Y-139725808D01*
X126695405Y-139889153D01*
X126597178Y-140036159D01*
X126472159Y-140161178D01*
X126325153Y-140259405D01*
X126161808Y-140327064D01*
X125988402Y-140361557D01*
X125811598Y-140361557D01*
X125638192Y-140327064D01*
X125474847Y-140259405D01*
X125327841Y-140161178D01*
X125202822Y-140036159D01*
X125104595Y-139889153D01*
X125036936Y-139725808D01*
X125002443Y-139552402D01*
X125002443Y-139375598D01*
X125036936Y-139202192D01*
X125104595Y-139038847D01*
X125202822Y-138891841D01*
X125327841Y-138766822D01*
X125474847Y-138668595D01*
X125638192Y-138600936D01*
X125811598Y-138566443D01*
X125988402Y-138566443D01*
X126161808Y-138600936D01*
G37*
G36*
X133761808Y-138600936D02*
G01*
X133925153Y-138668595D01*
X134072159Y-138766822D01*
X134197178Y-138891841D01*
X134295405Y-139038847D01*
X134363064Y-139202192D01*
X134397557Y-139375598D01*
X134397557Y-139552402D01*
X134363064Y-139725808D01*
X134295405Y-139889153D01*
X134197178Y-140036159D01*
X134072159Y-140161178D01*
X133925153Y-140259405D01*
X133761808Y-140327064D01*
X133588402Y-140361557D01*
X133411598Y-140361557D01*
X133238192Y-140327064D01*
X133074847Y-140259405D01*
X132927841Y-140161178D01*
X132802822Y-140036159D01*
X132704595Y-139889153D01*
X132636936Y-139725808D01*
X132602443Y-139552402D01*
X132602443Y-139375598D01*
X132636936Y-139202192D01*
X132704595Y-139038847D01*
X132802822Y-138891841D01*
X132927841Y-138766822D01*
X133074847Y-138668595D01*
X133238192Y-138600936D01*
X133411598Y-138566443D01*
X133588402Y-138566443D01*
X133761808Y-138600936D01*
G37*
G36*
X144761808Y-138600936D02*
G01*
X144925153Y-138668595D01*
X145072159Y-138766822D01*
X145197178Y-138891841D01*
X145295405Y-139038847D01*
X145363064Y-139202192D01*
X145397557Y-139375598D01*
X145397557Y-139552402D01*
X145363064Y-139725808D01*
X145295405Y-139889153D01*
X145197178Y-140036159D01*
X145072159Y-140161178D01*
X144925153Y-140259405D01*
X144761808Y-140327064D01*
X144588402Y-140361557D01*
X144411598Y-140361557D01*
X144238192Y-140327064D01*
X144074847Y-140259405D01*
X143927841Y-140161178D01*
X143802822Y-140036159D01*
X143704595Y-139889153D01*
X143636936Y-139725808D01*
X143602443Y-139552402D01*
X143602443Y-139375598D01*
X143636936Y-139202192D01*
X143704595Y-139038847D01*
X143802822Y-138891841D01*
X143927841Y-138766822D01*
X144074847Y-138668595D01*
X144238192Y-138600936D01*
X144411598Y-138566443D01*
X144588402Y-138566443D01*
X144761808Y-138600936D01*
G37*
G36*
X161737517Y-135216882D02*
G01*
X161754062Y-135227938D01*
X161765118Y-135244483D01*
X161769000Y-135264000D01*
X161769000Y-138064000D01*
X161765118Y-138083517D01*
X161754062Y-138100062D01*
X161737517Y-138111118D01*
X161718000Y-138115000D01*
X160718000Y-138115000D01*
X160698483Y-138111118D01*
X160681938Y-138100062D01*
X160670882Y-138083517D01*
X160667000Y-138064000D01*
X160667000Y-135264000D01*
X160670882Y-135244483D01*
X160681938Y-135227938D01*
X160698483Y-135216882D01*
X160718000Y-135213000D01*
X161718000Y-135213000D01*
X161737517Y-135216882D01*
G37*
G36*
X165737517Y-135216882D02*
G01*
X165754062Y-135227938D01*
X165765118Y-135244483D01*
X165769000Y-135264000D01*
X165769000Y-138064000D01*
X165765118Y-138083517D01*
X165754062Y-138100062D01*
X165737517Y-138111118D01*
X165718000Y-138115000D01*
X164718000Y-138115000D01*
X164698483Y-138111118D01*
X164681938Y-138100062D01*
X164670882Y-138083517D01*
X164667000Y-138064000D01*
X164667000Y-135264000D01*
X164670882Y-135244483D01*
X164681938Y-135227938D01*
X164698483Y-135216882D01*
X164718000Y-135213000D01*
X165718000Y-135213000D01*
X165737517Y-135216882D01*
G37*
G36*
X102950386Y-130439599D02*
G01*
X103311419Y-130511413D01*
X103663674Y-130618268D01*
X104003759Y-130759136D01*
X104328399Y-130932660D01*
X104634468Y-131137169D01*
X104919018Y-131370692D01*
X105179308Y-131630982D01*
X105412831Y-131915532D01*
X105617340Y-132221601D01*
X105790864Y-132546241D01*
X105931732Y-132886326D01*
X106038587Y-133238581D01*
X106110401Y-133599614D01*
X106146482Y-133965947D01*
X106146482Y-134334053D01*
X106110401Y-134700386D01*
X106038587Y-135061419D01*
X105931732Y-135413674D01*
X105790864Y-135753759D01*
X105617340Y-136078399D01*
X105412831Y-136384468D01*
X105179308Y-136669018D01*
X104919018Y-136929308D01*
X104634468Y-137162831D01*
X104328399Y-137367340D01*
X104003759Y-137540864D01*
X103663674Y-137681732D01*
X103311419Y-137788587D01*
X102950386Y-137860401D01*
X102584053Y-137896482D01*
X102215947Y-137896482D01*
X101849614Y-137860401D01*
X101488581Y-137788587D01*
X101136326Y-137681732D01*
X100796241Y-137540864D01*
X100471601Y-137367340D01*
X100165532Y-137162831D01*
X99880982Y-136929308D01*
X99620692Y-136669018D01*
X99387169Y-136384468D01*
X99182660Y-136078399D01*
X99009136Y-135753759D01*
X98868268Y-135413674D01*
X98761413Y-135061419D01*
X98689599Y-134700386D01*
X98653518Y-134334053D01*
X98653518Y-133965947D01*
X98689599Y-133599614D01*
X98761413Y-133238581D01*
X98868268Y-132886326D01*
X99009136Y-132546241D01*
X99182660Y-132221601D01*
X99387169Y-131915532D01*
X99620692Y-131630982D01*
X99880982Y-131370692D01*
X100165532Y-131137169D01*
X100471601Y-130932660D01*
X100796241Y-130759136D01*
X101136326Y-130618268D01*
X101488581Y-130511413D01*
X101849614Y-130439599D01*
X102215947Y-130403518D01*
X102584053Y-130403518D01*
X102950386Y-130439599D01*
G37*
G36*
X125510482Y-134167781D02*
G01*
X125521690Y-134167781D01*
X125576888Y-134176523D01*
X125702534Y-134193065D01*
X125733189Y-134201279D01*
X125762074Y-134205854D01*
X125817620Y-134223902D01*
X125898467Y-134245565D01*
X125950050Y-134266931D01*
X125993542Y-134281063D01*
X126034286Y-134301823D01*
X126085870Y-134323190D01*
X126158353Y-134365038D01*
X126210395Y-134391555D01*
X126234055Y-134408745D01*
X126261539Y-134424613D01*
X126362074Y-134501756D01*
X126407294Y-134534610D01*
X126415219Y-134542535D01*
X126422466Y-134548096D01*
X126565903Y-134691533D01*
X126571463Y-134698779D01*
X126579390Y-134706706D01*
X126612247Y-134751930D01*
X126689386Y-134852460D01*
X126705252Y-134879941D01*
X126722445Y-134903605D01*
X126748964Y-134955652D01*
X126790809Y-135028129D01*
X126812173Y-135079706D01*
X126832937Y-135120458D01*
X126847070Y-135163955D01*
X126868434Y-135215532D01*
X126890093Y-135296366D01*
X126908146Y-135351926D01*
X126912721Y-135380816D01*
X126920934Y-135411465D01*
X126937474Y-135537099D01*
X126946219Y-135592310D01*
X126946219Y-135603518D01*
X126947412Y-135612580D01*
X126947412Y-135815419D01*
X126946219Y-135824480D01*
X126946219Y-135835690D01*
X126937473Y-135890905D01*
X126920934Y-136016534D01*
X126912722Y-136047180D01*
X126908146Y-136076074D01*
X126890091Y-136131638D01*
X126868434Y-136212467D01*
X126847071Y-136264039D01*
X126832937Y-136307542D01*
X126812171Y-136348297D01*
X126790809Y-136399870D01*
X126748968Y-136472338D01*
X126722445Y-136524395D01*
X126705249Y-136548062D01*
X126689386Y-136575539D01*
X126612261Y-136676050D01*
X126579390Y-136721294D01*
X126571459Y-136729224D01*
X126565903Y-136736466D01*
X126422466Y-136879903D01*
X126415224Y-136885459D01*
X126407294Y-136893390D01*
X126362050Y-136926261D01*
X126261539Y-137003386D01*
X126234062Y-137019249D01*
X126210395Y-137036445D01*
X126158338Y-137062968D01*
X126085870Y-137104809D01*
X126034297Y-137126171D01*
X125993542Y-137146937D01*
X125950039Y-137161071D01*
X125898467Y-137182434D01*
X125817638Y-137204091D01*
X125762074Y-137222146D01*
X125733180Y-137226722D01*
X125702534Y-137234934D01*
X125576902Y-137251474D01*
X125521690Y-137260219D01*
X125510481Y-137260219D01*
X125501420Y-137261412D01*
X125298580Y-137261412D01*
X125289519Y-137260219D01*
X125278310Y-137260219D01*
X125223099Y-137251474D01*
X125097465Y-137234934D01*
X125066816Y-137226721D01*
X125037926Y-137222146D01*
X124982366Y-137204093D01*
X124901532Y-137182434D01*
X124849955Y-137161070D01*
X124806458Y-137146937D01*
X124765706Y-137126173D01*
X124714129Y-137104809D01*
X124641652Y-137062964D01*
X124589605Y-137036445D01*
X124565941Y-137019252D01*
X124538460Y-137003386D01*
X124437930Y-136926247D01*
X124392706Y-136893390D01*
X124384779Y-136885463D01*
X124377533Y-136879903D01*
X124234096Y-136736466D01*
X124228535Y-136729219D01*
X124220610Y-136721294D01*
X124187756Y-136676074D01*
X124110613Y-136575539D01*
X124094745Y-136548055D01*
X124077555Y-136524395D01*
X124051038Y-136472353D01*
X124009190Y-136399870D01*
X123987823Y-136348286D01*
X123967063Y-136307542D01*
X123952931Y-136264050D01*
X123931565Y-136212467D01*
X123909902Y-136131620D01*
X123891854Y-136076074D01*
X123887279Y-136047189D01*
X123879065Y-136016534D01*
X123862524Y-135890891D01*
X123853781Y-135835690D01*
X123853781Y-135824480D01*
X123852588Y-135815419D01*
X123852588Y-135612580D01*
X123853781Y-135603518D01*
X123853781Y-135592310D01*
X123862523Y-135537113D01*
X123879065Y-135411465D01*
X123887279Y-135380807D01*
X123891854Y-135351926D01*
X123909900Y-135296383D01*
X123931565Y-135215532D01*
X123952933Y-135163944D01*
X123967063Y-135120458D01*
X123987821Y-135079717D01*
X124009190Y-135028129D01*
X124051042Y-134955637D01*
X124077555Y-134903605D01*
X124094742Y-134879948D01*
X124110613Y-134852460D01*
X124187770Y-134751906D01*
X124220610Y-134706706D01*
X124228532Y-134698783D01*
X124234096Y-134691533D01*
X124377533Y-134548096D01*
X124384783Y-134542532D01*
X124392706Y-134534610D01*
X124437906Y-134501770D01*
X124538460Y-134424613D01*
X124565948Y-134408742D01*
X124589605Y-134391555D01*
X124641637Y-134365042D01*
X124714129Y-134323190D01*
X124765717Y-134301821D01*
X124806458Y-134281063D01*
X124849944Y-134266933D01*
X124901532Y-134245565D01*
X124982383Y-134223900D01*
X125037926Y-134205854D01*
X125066807Y-134201279D01*
X125097465Y-134193065D01*
X125223113Y-134176523D01*
X125278310Y-134167781D01*
X125289518Y-134167781D01*
X125298580Y-134166588D01*
X125501420Y-134166588D01*
X125510482Y-134167781D01*
G37*
G36*
X144110482Y-134167781D02*
G01*
X144121690Y-134167781D01*
X144176888Y-134176523D01*
X144302534Y-134193065D01*
X144333189Y-134201279D01*
X144362074Y-134205854D01*
X144417620Y-134223902D01*
X144498467Y-134245565D01*
X144550050Y-134266931D01*
X144593542Y-134281063D01*
X144634286Y-134301823D01*
X144685870Y-134323190D01*
X144758353Y-134365038D01*
X144810395Y-134391555D01*
X144834055Y-134408745D01*
X144861539Y-134424613D01*
X144962074Y-134501756D01*
X145007294Y-134534610D01*
X145015219Y-134542535D01*
X145022466Y-134548096D01*
X145165903Y-134691533D01*
X145171463Y-134698779D01*
X145179390Y-134706706D01*
X145212247Y-134751930D01*
X145289386Y-134852460D01*
X145305252Y-134879941D01*
X145322445Y-134903605D01*
X145348964Y-134955652D01*
X145390809Y-135028129D01*
X145412173Y-135079706D01*
X145432937Y-135120458D01*
X145447070Y-135163955D01*
X145468434Y-135215532D01*
X145490093Y-135296366D01*
X145508146Y-135351926D01*
X145512721Y-135380816D01*
X145520934Y-135411465D01*
X145537474Y-135537099D01*
X145546219Y-135592310D01*
X145546219Y-135603518D01*
X145547412Y-135612580D01*
X145547412Y-135815419D01*
X145546219Y-135824480D01*
X145546219Y-135835690D01*
X145537473Y-135890905D01*
X145520934Y-136016534D01*
X145512722Y-136047180D01*
X145508146Y-136076074D01*
X145490091Y-136131638D01*
X145468434Y-136212467D01*
X145447071Y-136264039D01*
X145432937Y-136307542D01*
X145412171Y-136348297D01*
X145390809Y-136399870D01*
X145348968Y-136472338D01*
X145322445Y-136524395D01*
X145305249Y-136548062D01*
X145289386Y-136575539D01*
X145212261Y-136676050D01*
X145179390Y-136721294D01*
X145171459Y-136729224D01*
X145165903Y-136736466D01*
X145022466Y-136879903D01*
X145015224Y-136885459D01*
X145007294Y-136893390D01*
X144962050Y-136926261D01*
X144861539Y-137003386D01*
X144834062Y-137019249D01*
X144810395Y-137036445D01*
X144758338Y-137062968D01*
X144685870Y-137104809D01*
X144634297Y-137126171D01*
X144593542Y-137146937D01*
X144550039Y-137161071D01*
X144498467Y-137182434D01*
X144417638Y-137204091D01*
X144362074Y-137222146D01*
X144333180Y-137226722D01*
X144302534Y-137234934D01*
X144176902Y-137251474D01*
X144121690Y-137260219D01*
X144110481Y-137260219D01*
X144101420Y-137261412D01*
X143898580Y-137261412D01*
X143889519Y-137260219D01*
X143878310Y-137260219D01*
X143823099Y-137251474D01*
X143697465Y-137234934D01*
X143666816Y-137226721D01*
X143637926Y-137222146D01*
X143582366Y-137204093D01*
X143501532Y-137182434D01*
X143449955Y-137161070D01*
X143406458Y-137146937D01*
X143365706Y-137126173D01*
X143314129Y-137104809D01*
X143241652Y-137062964D01*
X143189605Y-137036445D01*
X143165941Y-137019252D01*
X143138460Y-137003386D01*
X143037930Y-136926247D01*
X142992706Y-136893390D01*
X142984779Y-136885463D01*
X142977533Y-136879903D01*
X142834096Y-136736466D01*
X142828535Y-136729219D01*
X142820610Y-136721294D01*
X142787756Y-136676074D01*
X142710613Y-136575539D01*
X142694745Y-136548055D01*
X142677555Y-136524395D01*
X142651038Y-136472353D01*
X142609190Y-136399870D01*
X142587823Y-136348286D01*
X142567063Y-136307542D01*
X142552931Y-136264050D01*
X142531565Y-136212467D01*
X142509902Y-136131620D01*
X142491854Y-136076074D01*
X142487279Y-136047189D01*
X142479065Y-136016534D01*
X142462524Y-135890891D01*
X142453781Y-135835690D01*
X142453781Y-135824480D01*
X142452588Y-135815419D01*
X142452588Y-135612580D01*
X142453781Y-135603518D01*
X142453781Y-135592310D01*
X142462523Y-135537113D01*
X142479065Y-135411465D01*
X142487279Y-135380807D01*
X142491854Y-135351926D01*
X142509900Y-135296383D01*
X142531565Y-135215532D01*
X142552933Y-135163944D01*
X142567063Y-135120458D01*
X142587821Y-135079717D01*
X142609190Y-135028129D01*
X142651042Y-134955637D01*
X142677555Y-134903605D01*
X142694742Y-134879948D01*
X142710613Y-134852460D01*
X142787770Y-134751906D01*
X142820610Y-134706706D01*
X142828532Y-134698783D01*
X142834096Y-134691533D01*
X142977533Y-134548096D01*
X142984783Y-134542532D01*
X142992706Y-134534610D01*
X143037906Y-134501770D01*
X143138460Y-134424613D01*
X143165948Y-134408742D01*
X143189605Y-134391555D01*
X143241637Y-134365042D01*
X143314129Y-134323190D01*
X143365717Y-134301821D01*
X143406458Y-134281063D01*
X143449944Y-134266933D01*
X143501532Y-134245565D01*
X143582383Y-134223900D01*
X143637926Y-134205854D01*
X143666807Y-134201279D01*
X143697465Y-134193065D01*
X143823113Y-134176523D01*
X143878310Y-134167781D01*
X143889518Y-134167781D01*
X143898580Y-134166588D01*
X144101420Y-134166588D01*
X144110482Y-134167781D01*
G37*
G36*
X120510482Y-131967781D02*
G01*
X120521690Y-131967781D01*
X120576888Y-131976523D01*
X120702534Y-131993065D01*
X120733189Y-132001279D01*
X120762074Y-132005854D01*
X120817620Y-132023902D01*
X120898467Y-132045565D01*
X120950050Y-132066931D01*
X120993542Y-132081063D01*
X121034286Y-132101823D01*
X121085870Y-132123190D01*
X121158353Y-132165038D01*
X121210395Y-132191555D01*
X121234055Y-132208745D01*
X121261539Y-132224613D01*
X121362074Y-132301756D01*
X121407294Y-132334610D01*
X121415219Y-132342535D01*
X121422466Y-132348096D01*
X121565903Y-132491533D01*
X121571463Y-132498779D01*
X121579390Y-132506706D01*
X121612247Y-132551930D01*
X121689386Y-132652460D01*
X121705252Y-132679941D01*
X121722445Y-132703605D01*
X121748964Y-132755652D01*
X121790809Y-132828129D01*
X121812173Y-132879706D01*
X121832937Y-132920458D01*
X121847070Y-132963955D01*
X121868434Y-133015532D01*
X121890093Y-133096366D01*
X121908146Y-133151926D01*
X121912721Y-133180816D01*
X121920934Y-133211465D01*
X121937474Y-133337099D01*
X121946219Y-133392310D01*
X121946219Y-133403518D01*
X121947412Y-133412580D01*
X121947412Y-133615419D01*
X121946219Y-133624480D01*
X121946219Y-133635690D01*
X121937473Y-133690905D01*
X121920934Y-133816534D01*
X121912722Y-133847180D01*
X121908146Y-133876074D01*
X121890091Y-133931638D01*
X121868434Y-134012467D01*
X121847071Y-134064039D01*
X121832937Y-134107542D01*
X121812171Y-134148297D01*
X121790809Y-134199870D01*
X121748968Y-134272338D01*
X121722445Y-134324395D01*
X121705249Y-134348062D01*
X121689386Y-134375539D01*
X121612261Y-134476050D01*
X121579390Y-134521294D01*
X121571459Y-134529224D01*
X121565903Y-134536466D01*
X121422466Y-134679903D01*
X121415224Y-134685459D01*
X121407294Y-134693390D01*
X121362050Y-134726261D01*
X121261539Y-134803386D01*
X121234062Y-134819249D01*
X121210395Y-134836445D01*
X121158338Y-134862968D01*
X121085870Y-134904809D01*
X121034297Y-134926171D01*
X120993542Y-134946937D01*
X120950039Y-134961071D01*
X120898467Y-134982434D01*
X120817638Y-135004091D01*
X120762074Y-135022146D01*
X120733180Y-135026722D01*
X120702534Y-135034934D01*
X120576902Y-135051474D01*
X120521690Y-135060219D01*
X120510481Y-135060219D01*
X120501420Y-135061412D01*
X120298580Y-135061412D01*
X120289519Y-135060219D01*
X120278310Y-135060219D01*
X120223099Y-135051474D01*
X120097465Y-135034934D01*
X120066816Y-135026721D01*
X120037926Y-135022146D01*
X119982366Y-135004093D01*
X119901532Y-134982434D01*
X119849955Y-134961070D01*
X119806458Y-134946937D01*
X119765706Y-134926173D01*
X119714129Y-134904809D01*
X119641652Y-134862964D01*
X119589605Y-134836445D01*
X119565941Y-134819252D01*
X119538460Y-134803386D01*
X119437930Y-134726247D01*
X119392706Y-134693390D01*
X119384779Y-134685463D01*
X119377533Y-134679903D01*
X119234096Y-134536466D01*
X119228535Y-134529219D01*
X119220610Y-134521294D01*
X119187756Y-134476074D01*
X119110613Y-134375539D01*
X119094745Y-134348055D01*
X119077555Y-134324395D01*
X119051038Y-134272353D01*
X119009190Y-134199870D01*
X118987823Y-134148286D01*
X118967063Y-134107542D01*
X118952931Y-134064050D01*
X118931565Y-134012467D01*
X118909902Y-133931620D01*
X118891854Y-133876074D01*
X118887279Y-133847189D01*
X118879065Y-133816534D01*
X118862524Y-133690891D01*
X118853781Y-133635690D01*
X118853781Y-133624480D01*
X118852588Y-133615419D01*
X118852588Y-133412580D01*
X118853781Y-133403518D01*
X118853781Y-133392310D01*
X118862523Y-133337113D01*
X118879065Y-133211465D01*
X118887279Y-133180807D01*
X118891854Y-133151926D01*
X118909900Y-133096383D01*
X118931565Y-133015532D01*
X118952933Y-132963944D01*
X118967063Y-132920458D01*
X118987821Y-132879717D01*
X119009190Y-132828129D01*
X119051042Y-132755637D01*
X119077555Y-132703605D01*
X119094742Y-132679948D01*
X119110613Y-132652460D01*
X119187770Y-132551906D01*
X119220610Y-132506706D01*
X119228532Y-132498783D01*
X119234096Y-132491533D01*
X119377533Y-132348096D01*
X119384783Y-132342532D01*
X119392706Y-132334610D01*
X119437906Y-132301770D01*
X119538460Y-132224613D01*
X119565948Y-132208742D01*
X119589605Y-132191555D01*
X119641637Y-132165042D01*
X119714129Y-132123190D01*
X119765717Y-132101821D01*
X119806458Y-132081063D01*
X119849944Y-132066933D01*
X119901532Y-132045565D01*
X119982383Y-132023900D01*
X120037926Y-132005854D01*
X120066807Y-132001279D01*
X120097465Y-131993065D01*
X120223113Y-131976523D01*
X120278310Y-131967781D01*
X120289518Y-131967781D01*
X120298580Y-131966588D01*
X120501420Y-131966588D01*
X120510482Y-131967781D01*
G37*
G36*
X139110482Y-131967781D02*
G01*
X139121690Y-131967781D01*
X139176888Y-131976523D01*
X139302534Y-131993065D01*
X139333189Y-132001279D01*
X139362074Y-132005854D01*
X139417620Y-132023902D01*
X139498467Y-132045565D01*
X139550050Y-132066931D01*
X139593542Y-132081063D01*
X139634286Y-132101823D01*
X139685870Y-132123190D01*
X139758353Y-132165038D01*
X139810395Y-132191555D01*
X139834055Y-132208745D01*
X139861539Y-132224613D01*
X139962074Y-132301756D01*
X140007294Y-132334610D01*
X140015219Y-132342535D01*
X140022466Y-132348096D01*
X140165903Y-132491533D01*
X140171463Y-132498779D01*
X140179390Y-132506706D01*
X140212247Y-132551930D01*
X140289386Y-132652460D01*
X140305252Y-132679941D01*
X140322445Y-132703605D01*
X140348964Y-132755652D01*
X140390809Y-132828129D01*
X140412173Y-132879706D01*
X140432937Y-132920458D01*
X140447070Y-132963955D01*
X140468434Y-133015532D01*
X140490093Y-133096366D01*
X140508146Y-133151926D01*
X140512721Y-133180816D01*
X140520934Y-133211465D01*
X140537474Y-133337099D01*
X140546219Y-133392310D01*
X140546219Y-133403518D01*
X140547412Y-133412580D01*
X140547412Y-133615419D01*
X140546219Y-133624480D01*
X140546219Y-133635690D01*
X140537473Y-133690905D01*
X140520934Y-133816534D01*
X140512722Y-133847180D01*
X140508146Y-133876074D01*
X140490091Y-133931638D01*
X140468434Y-134012467D01*
X140447071Y-134064039D01*
X140432937Y-134107542D01*
X140412171Y-134148297D01*
X140390809Y-134199870D01*
X140348968Y-134272338D01*
X140322445Y-134324395D01*
X140305249Y-134348062D01*
X140289386Y-134375539D01*
X140212261Y-134476050D01*
X140179390Y-134521294D01*
X140171459Y-134529224D01*
X140165903Y-134536466D01*
X140022466Y-134679903D01*
X140015224Y-134685459D01*
X140007294Y-134693390D01*
X139962050Y-134726261D01*
X139861539Y-134803386D01*
X139834062Y-134819249D01*
X139810395Y-134836445D01*
X139758338Y-134862968D01*
X139685870Y-134904809D01*
X139634297Y-134926171D01*
X139593542Y-134946937D01*
X139550039Y-134961071D01*
X139498467Y-134982434D01*
X139417638Y-135004091D01*
X139362074Y-135022146D01*
X139333180Y-135026722D01*
X139302534Y-135034934D01*
X139176902Y-135051474D01*
X139121690Y-135060219D01*
X139110481Y-135060219D01*
X139101420Y-135061412D01*
X138898580Y-135061412D01*
X138889519Y-135060219D01*
X138878310Y-135060219D01*
X138823099Y-135051474D01*
X138697465Y-135034934D01*
X138666816Y-135026721D01*
X138637926Y-135022146D01*
X138582366Y-135004093D01*
X138501532Y-134982434D01*
X138449955Y-134961070D01*
X138406458Y-134946937D01*
X138365706Y-134926173D01*
X138314129Y-134904809D01*
X138241652Y-134862964D01*
X138189605Y-134836445D01*
X138165941Y-134819252D01*
X138138460Y-134803386D01*
X138037930Y-134726247D01*
X137992706Y-134693390D01*
X137984779Y-134685463D01*
X137977533Y-134679903D01*
X137834096Y-134536466D01*
X137828535Y-134529219D01*
X137820610Y-134521294D01*
X137787756Y-134476074D01*
X137710613Y-134375539D01*
X137694745Y-134348055D01*
X137677555Y-134324395D01*
X137651038Y-134272353D01*
X137609190Y-134199870D01*
X137587823Y-134148286D01*
X137567063Y-134107542D01*
X137552931Y-134064050D01*
X137531565Y-134012467D01*
X137509902Y-133931620D01*
X137491854Y-133876074D01*
X137487279Y-133847189D01*
X137479065Y-133816534D01*
X137462524Y-133690891D01*
X137453781Y-133635690D01*
X137453781Y-133624480D01*
X137452588Y-133615419D01*
X137452588Y-133412580D01*
X137453781Y-133403518D01*
X137453781Y-133392310D01*
X137462523Y-133337113D01*
X137479065Y-133211465D01*
X137487279Y-133180807D01*
X137491854Y-133151926D01*
X137509900Y-133096383D01*
X137531565Y-133015532D01*
X137552933Y-132963944D01*
X137567063Y-132920458D01*
X137587821Y-132879717D01*
X137609190Y-132828129D01*
X137651042Y-132755637D01*
X137677555Y-132703605D01*
X137694742Y-132679948D01*
X137710613Y-132652460D01*
X137787770Y-132551906D01*
X137820610Y-132506706D01*
X137828532Y-132498783D01*
X137834096Y-132491533D01*
X137977533Y-132348096D01*
X137984783Y-132342532D01*
X137992706Y-132334610D01*
X138037906Y-132301770D01*
X138138460Y-132224613D01*
X138165948Y-132208742D01*
X138189605Y-132191555D01*
X138241637Y-132165042D01*
X138314129Y-132123190D01*
X138365717Y-132101821D01*
X138406458Y-132081063D01*
X138449944Y-132066933D01*
X138501532Y-132045565D01*
X138582383Y-132023900D01*
X138637926Y-132005854D01*
X138666807Y-132001279D01*
X138697465Y-131993065D01*
X138823113Y-131976523D01*
X138878310Y-131967781D01*
X138889518Y-131967781D01*
X138898580Y-131966588D01*
X139101420Y-131966588D01*
X139110482Y-131967781D01*
G37*
G36*
X161737517Y-129416882D02*
G01*
X161754062Y-129427938D01*
X161765118Y-129444483D01*
X161769000Y-129464000D01*
X161769000Y-132264000D01*
X161765118Y-132283517D01*
X161754062Y-132300062D01*
X161737517Y-132311118D01*
X161718000Y-132315000D01*
X160718000Y-132315000D01*
X160698483Y-132311118D01*
X160681938Y-132300062D01*
X160670882Y-132283517D01*
X160667000Y-132264000D01*
X160667000Y-129464000D01*
X160670882Y-129444483D01*
X160681938Y-129427938D01*
X160698483Y-129416882D01*
X160718000Y-129413000D01*
X161718000Y-129413000D01*
X161737517Y-129416882D01*
G37*
G36*
X165737517Y-129416882D02*
G01*
X165754062Y-129427938D01*
X165765118Y-129444483D01*
X165769000Y-129464000D01*
X165769000Y-132264000D01*
X165765118Y-132283517D01*
X165754062Y-132300062D01*
X165737517Y-132311118D01*
X165718000Y-132315000D01*
X164718000Y-132315000D01*
X164698483Y-132311118D01*
X164681938Y-132300062D01*
X164670882Y-132283517D01*
X164667000Y-132264000D01*
X164667000Y-129464000D01*
X164670882Y-129444483D01*
X164681938Y-129427938D01*
X164698483Y-129416882D01*
X164718000Y-129413000D01*
X165718000Y-129413000D01*
X165737517Y-129416882D01*
G37*
G36*
X166637517Y-125086882D02*
G01*
X166654062Y-125097938D01*
X166665118Y-125114483D01*
X166669000Y-125134000D01*
X166669000Y-126834000D01*
X166665118Y-126853517D01*
X166654062Y-126870062D01*
X166637517Y-126881118D01*
X166618000Y-126885000D01*
X164918000Y-126885000D01*
X164898483Y-126881118D01*
X164881938Y-126870062D01*
X164870882Y-126853517D01*
X164867000Y-126834000D01*
X164867000Y-125134000D01*
X164870882Y-125114483D01*
X164881938Y-125097938D01*
X164898483Y-125086882D01*
X164918000Y-125083000D01*
X166618000Y-125083000D01*
X166637517Y-125086882D01*
G37*
G36*
X158409546Y-125121797D02*
G01*
X158572728Y-125189389D01*
X158719588Y-125287518D01*
X158844482Y-125412412D01*
X158942611Y-125559272D01*
X159010203Y-125722454D01*
X159044661Y-125895687D01*
X159044661Y-126072313D01*
X159010203Y-126245546D01*
X158942611Y-126408728D01*
X158844482Y-126555588D01*
X158719588Y-126680482D01*
X158572728Y-126778611D01*
X158409546Y-126846203D01*
X158236313Y-126880661D01*
X158059687Y-126880661D01*
X157886454Y-126846203D01*
X157723272Y-126778611D01*
X157576412Y-126680482D01*
X157451518Y-126555588D01*
X157353389Y-126408728D01*
X157285797Y-126245546D01*
X157251339Y-126072313D01*
X157251339Y-125895687D01*
X157285797Y-125722454D01*
X157353389Y-125559272D01*
X157451518Y-125412412D01*
X157576412Y-125287518D01*
X157723272Y-125189389D01*
X157886454Y-125121797D01*
X158059687Y-125087339D01*
X158236313Y-125087339D01*
X158409546Y-125121797D01*
G37*
G36*
X160949546Y-125121797D02*
G01*
X161112728Y-125189389D01*
X161259588Y-125287518D01*
X161384482Y-125412412D01*
X161482611Y-125559272D01*
X161550203Y-125722454D01*
X161584661Y-125895687D01*
X161584661Y-126072313D01*
X161550203Y-126245546D01*
X161482611Y-126408728D01*
X161384482Y-126555588D01*
X161259588Y-126680482D01*
X161112728Y-126778611D01*
X160949546Y-126846203D01*
X160776313Y-126880661D01*
X160599687Y-126880661D01*
X160426454Y-126846203D01*
X160263272Y-126778611D01*
X160116412Y-126680482D01*
X159991518Y-126555588D01*
X159893389Y-126408728D01*
X159825797Y-126245546D01*
X159791339Y-126072313D01*
X159791339Y-125895687D01*
X159825797Y-125722454D01*
X159893389Y-125559272D01*
X159991518Y-125412412D01*
X160116412Y-125287518D01*
X160263272Y-125189389D01*
X160426454Y-125121797D01*
X160599687Y-125087339D01*
X160776313Y-125087339D01*
X160949546Y-125121797D01*
G37*
G36*
X163489546Y-125121797D02*
G01*
X163652728Y-125189389D01*
X163799588Y-125287518D01*
X163924482Y-125412412D01*
X164022611Y-125559272D01*
X164090203Y-125722454D01*
X164124661Y-125895687D01*
X164124661Y-126072313D01*
X164090203Y-126245546D01*
X164022611Y-126408728D01*
X163924482Y-126555588D01*
X163799588Y-126680482D01*
X163652728Y-126778611D01*
X163489546Y-126846203D01*
X163316313Y-126880661D01*
X163139687Y-126880661D01*
X162966454Y-126846203D01*
X162803272Y-126778611D01*
X162656412Y-126680482D01*
X162531518Y-126555588D01*
X162433389Y-126408728D01*
X162365797Y-126245546D01*
X162331339Y-126072313D01*
X162331339Y-125895687D01*
X162365797Y-125722454D01*
X162433389Y-125559272D01*
X162531518Y-125412412D01*
X162656412Y-125287518D01*
X162803272Y-125189389D01*
X162966454Y-125121797D01*
X163139687Y-125087339D01*
X163316313Y-125087339D01*
X163489546Y-125121797D01*
G37*
G36*
X104793466Y-121536851D02*
G01*
X104810011Y-121547907D01*
X106012093Y-122749989D01*
X106023149Y-122766534D01*
X106027030Y-122786051D01*
X106023149Y-122805568D01*
X106012093Y-122822113D01*
X104810011Y-124024195D01*
X104793466Y-124035251D01*
X104773949Y-124039132D01*
X104754432Y-124035251D01*
X104737887Y-124024195D01*
X103535805Y-122822113D01*
X103524749Y-122805568D01*
X103520868Y-122786051D01*
X103524749Y-122766534D01*
X103535805Y-122749989D01*
X104428032Y-121857762D01*
X104729182Y-121556611D01*
X104729185Y-121556608D01*
X104737887Y-121547907D01*
X104754432Y-121536851D01*
X104773949Y-121532970D01*
X104793466Y-121536851D01*
G37*
G36*
X131269517Y-120702882D02*
G01*
X131286062Y-120713938D01*
X131297118Y-120730483D01*
X131301000Y-120750000D01*
X131301000Y-122450000D01*
X131297118Y-122469517D01*
X131286062Y-122486062D01*
X131269517Y-122497118D01*
X131250000Y-122501000D01*
X129550000Y-122501000D01*
X129530483Y-122497118D01*
X129513938Y-122486062D01*
X129502882Y-122469517D01*
X129499000Y-122450000D01*
X129499000Y-120750000D01*
X129502882Y-120730483D01*
X129513938Y-120713938D01*
X129530483Y-120702882D01*
X129550000Y-120699000D01*
X131250000Y-120699000D01*
X131269517Y-120702882D01*
G37*
G36*
X160132518Y-120583491D02*
G01*
X160277589Y-120643581D01*
X160408149Y-120730819D01*
X160519181Y-120841851D01*
X160606419Y-120972411D01*
X160666509Y-121117482D01*
X160697143Y-121271488D01*
X160697143Y-121428512D01*
X160666509Y-121582518D01*
X160606419Y-121727589D01*
X160519181Y-121858149D01*
X160408149Y-121969181D01*
X160277589Y-122056419D01*
X160132518Y-122116509D01*
X159978512Y-122147143D01*
X159821488Y-122147143D01*
X159667482Y-122116509D01*
X159522411Y-122056419D01*
X159391851Y-121969181D01*
X159280819Y-121858149D01*
X159193581Y-121727589D01*
X159133491Y-121582518D01*
X159102857Y-121428512D01*
X159102857Y-121271488D01*
X159133491Y-121117482D01*
X159193581Y-120972411D01*
X159280819Y-120841851D01*
X159391851Y-120730819D01*
X159522411Y-120643581D01*
X159667482Y-120583491D01*
X159821488Y-120552857D01*
X159978512Y-120552857D01*
X160132518Y-120583491D01*
G37*
G36*
X103239444Y-120127797D02*
G01*
X103402626Y-120195389D01*
X103549486Y-120293518D01*
X103674380Y-120418412D01*
X103772509Y-120565272D01*
X103840101Y-120728454D01*
X103874559Y-120901687D01*
X103874559Y-121078313D01*
X103840101Y-121251546D01*
X103772509Y-121414728D01*
X103674380Y-121561588D01*
X103549486Y-121686482D01*
X103402626Y-121784611D01*
X103239444Y-121852203D01*
X103066211Y-121886661D01*
X102889585Y-121886661D01*
X102716352Y-121852203D01*
X102553170Y-121784611D01*
X102406310Y-121686482D01*
X102281416Y-121561588D01*
X102183287Y-121414728D01*
X102115695Y-121251546D01*
X102081237Y-121078313D01*
X102081237Y-120901687D01*
X102115695Y-120728454D01*
X102183287Y-120565272D01*
X102281416Y-120418412D01*
X102406310Y-120293518D01*
X102553170Y-120195389D01*
X102716352Y-120127797D01*
X102889585Y-120093339D01*
X103066211Y-120093339D01*
X103239444Y-120127797D01*
G37*
G36*
X101443393Y-118331746D02*
G01*
X101606575Y-118399338D01*
X101753435Y-118497467D01*
X101878329Y-118622361D01*
X101976458Y-118769221D01*
X102044050Y-118932403D01*
X102078508Y-119105636D01*
X102078508Y-119282262D01*
X102044050Y-119455495D01*
X101976458Y-119618677D01*
X101878329Y-119765537D01*
X101753435Y-119890431D01*
X101606575Y-119988560D01*
X101443393Y-120056152D01*
X101270160Y-120090610D01*
X101093534Y-120090610D01*
X100920301Y-120056152D01*
X100757119Y-119988560D01*
X100610259Y-119890431D01*
X100485365Y-119765537D01*
X100387236Y-119618677D01*
X100319644Y-119455495D01*
X100285186Y-119282262D01*
X100285186Y-119105636D01*
X100319644Y-118932403D01*
X100387236Y-118769221D01*
X100485365Y-118622361D01*
X100610259Y-118497467D01*
X100757119Y-118399338D01*
X100920301Y-118331746D01*
X101093534Y-118297288D01*
X101270160Y-118297288D01*
X101443393Y-118331746D01*
G37*
G36*
X160103490Y-118679185D02*
G01*
X160230449Y-118731773D01*
X160344710Y-118808120D01*
X160441880Y-118905290D01*
X160518227Y-119019551D01*
X160570815Y-119146510D01*
X160597624Y-119281290D01*
X160597624Y-119418710D01*
X160570815Y-119553490D01*
X160518227Y-119680449D01*
X160441880Y-119794710D01*
X160344710Y-119891880D01*
X160230449Y-119968227D01*
X160103490Y-120020815D01*
X159968710Y-120047624D01*
X159831290Y-120047624D01*
X159696510Y-120020815D01*
X159569551Y-119968227D01*
X159455290Y-119891880D01*
X159358120Y-119794710D01*
X159281773Y-119680449D01*
X159229185Y-119553490D01*
X159202376Y-119418710D01*
X159202376Y-119281290D01*
X159229185Y-119146510D01*
X159281773Y-119019551D01*
X159358120Y-118905290D01*
X159455290Y-118808120D01*
X159569551Y-118731773D01*
X159696510Y-118679185D01*
X159831290Y-118652376D01*
X159968710Y-118652376D01*
X160103490Y-118679185D01*
G37*
G36*
X130661546Y-118197797D02*
G01*
X130824728Y-118265389D01*
X130971588Y-118363518D01*
X131096482Y-118488412D01*
X131194611Y-118635272D01*
X131262203Y-118798454D01*
X131296661Y-118971687D01*
X131296661Y-119148313D01*
X131262203Y-119321546D01*
X131194611Y-119484728D01*
X131096482Y-119631588D01*
X130971588Y-119756482D01*
X130824728Y-119854611D01*
X130661546Y-119922203D01*
X130488313Y-119956661D01*
X130311687Y-119956661D01*
X130138454Y-119922203D01*
X129975272Y-119854611D01*
X129828412Y-119756482D01*
X129703518Y-119631588D01*
X129605389Y-119484728D01*
X129537797Y-119321546D01*
X129503339Y-119148313D01*
X129503339Y-118971687D01*
X129537797Y-118798454D01*
X129605389Y-118635272D01*
X129703518Y-118488412D01*
X129828412Y-118363518D01*
X129975272Y-118265389D01*
X130138454Y-118197797D01*
X130311687Y-118163339D01*
X130488313Y-118163339D01*
X130661546Y-118197797D01*
G37*
G36*
X99647341Y-116535694D02*
G01*
X99810523Y-116603286D01*
X99957383Y-116701415D01*
X100082277Y-116826309D01*
X100180406Y-116973169D01*
X100247998Y-117136351D01*
X100282456Y-117309584D01*
X100282456Y-117486210D01*
X100247998Y-117659443D01*
X100180406Y-117822625D01*
X100082277Y-117969485D01*
X99957383Y-118094379D01*
X99810523Y-118192508D01*
X99647341Y-118260100D01*
X99474108Y-118294558D01*
X99297482Y-118294558D01*
X99124249Y-118260100D01*
X98961067Y-118192508D01*
X98814207Y-118094379D01*
X98689313Y-117969485D01*
X98591184Y-117822625D01*
X98523592Y-117659443D01*
X98489134Y-117486210D01*
X98489134Y-117309584D01*
X98523592Y-117136351D01*
X98591184Y-116973169D01*
X98689313Y-116826309D01*
X98814207Y-116701415D01*
X98961067Y-116603286D01*
X99124249Y-116535694D01*
X99297482Y-116501236D01*
X99474108Y-116501236D01*
X99647341Y-116535694D01*
G37*
G36*
X160103490Y-116679185D02*
G01*
X160230449Y-116731773D01*
X160344710Y-116808120D01*
X160441880Y-116905290D01*
X160518227Y-117019551D01*
X160570815Y-117146510D01*
X160597624Y-117281290D01*
X160597624Y-117418710D01*
X160570815Y-117553490D01*
X160518227Y-117680449D01*
X160441880Y-117794710D01*
X160344710Y-117891880D01*
X160230449Y-117968227D01*
X160103490Y-118020815D01*
X159968710Y-118047624D01*
X159831290Y-118047624D01*
X159696510Y-118020815D01*
X159569551Y-117968227D01*
X159455290Y-117891880D01*
X159358120Y-117794710D01*
X159281773Y-117680449D01*
X159229185Y-117553490D01*
X159202376Y-117418710D01*
X159202376Y-117281290D01*
X159229185Y-117146510D01*
X159281773Y-117019551D01*
X159358120Y-116905290D01*
X159455290Y-116808120D01*
X159569551Y-116731773D01*
X159696510Y-116679185D01*
X159831290Y-116652376D01*
X159968710Y-116652376D01*
X160103490Y-116679185D01*
G37*
G36*
X130661546Y-115657797D02*
G01*
X130824728Y-115725389D01*
X130971588Y-115823518D01*
X131096482Y-115948412D01*
X131194611Y-116095272D01*
X131262203Y-116258454D01*
X131296661Y-116431687D01*
X131296661Y-116608313D01*
X131262203Y-116781546D01*
X131194611Y-116944728D01*
X131096482Y-117091588D01*
X130971588Y-117216482D01*
X130824728Y-117314611D01*
X130661546Y-117382203D01*
X130488313Y-117416661D01*
X130311687Y-117416661D01*
X130138454Y-117382203D01*
X129975272Y-117314611D01*
X129828412Y-117216482D01*
X129703518Y-117091588D01*
X129605389Y-116944728D01*
X129537797Y-116781546D01*
X129503339Y-116608313D01*
X129503339Y-116431687D01*
X129537797Y-116258454D01*
X129605389Y-116095272D01*
X129703518Y-115948412D01*
X129828412Y-115823518D01*
X129975272Y-115725389D01*
X130138454Y-115657797D01*
X130311687Y-115623339D01*
X130488313Y-115623339D01*
X130661546Y-115657797D01*
G37*
G36*
X160088975Y-114727032D02*
G01*
X160206879Y-114775869D01*
X160312990Y-114846770D01*
X160403230Y-114937010D01*
X160474131Y-115043121D01*
X160522968Y-115161025D01*
X160547865Y-115286191D01*
X160547865Y-115413809D01*
X160522968Y-115538975D01*
X160474131Y-115656879D01*
X160403230Y-115762990D01*
X160312990Y-115853230D01*
X160206879Y-115924131D01*
X160088975Y-115972968D01*
X159963809Y-115997865D01*
X159836191Y-115997865D01*
X159711025Y-115972968D01*
X159593121Y-115924131D01*
X159487010Y-115853230D01*
X159396770Y-115762990D01*
X159325869Y-115656879D01*
X159277032Y-115538975D01*
X159252135Y-115413809D01*
X159252135Y-115286191D01*
X159277032Y-115161025D01*
X159325869Y-115043121D01*
X159396770Y-114937010D01*
X159487010Y-114846770D01*
X159593121Y-114775869D01*
X159711025Y-114727032D01*
X159836191Y-114702135D01*
X159963809Y-114702135D01*
X160088975Y-114727032D01*
G37*
G36*
X160132518Y-112583491D02*
G01*
X160277589Y-112643581D01*
X160408149Y-112730819D01*
X160519181Y-112841851D01*
X160606419Y-112972411D01*
X160666509Y-113117482D01*
X160697143Y-113271488D01*
X160697143Y-113428512D01*
X160666509Y-113582518D01*
X160606419Y-113727589D01*
X160519181Y-113858149D01*
X160408149Y-113969181D01*
X160277589Y-114056419D01*
X160132518Y-114116509D01*
X159978512Y-114147143D01*
X159821488Y-114147143D01*
X159667482Y-114116509D01*
X159522411Y-114056419D01*
X159391851Y-113969181D01*
X159280819Y-113858149D01*
X159193581Y-113727589D01*
X159133491Y-113582518D01*
X159102857Y-113428512D01*
X159102857Y-113271488D01*
X159133491Y-113117482D01*
X159193581Y-112972411D01*
X159280819Y-112841851D01*
X159391851Y-112730819D01*
X159522411Y-112643581D01*
X159667482Y-112583491D01*
X159821488Y-112552857D01*
X159978512Y-112552857D01*
X160132518Y-112583491D01*
G37*
G36*
X166479517Y-108352882D02*
G01*
X166496062Y-108363938D01*
X166507118Y-108380483D01*
X166511000Y-108400000D01*
X166511000Y-110000000D01*
X166507118Y-110019517D01*
X166496062Y-110036062D01*
X166479517Y-110047118D01*
X166460000Y-110051000D01*
X164860000Y-110051000D01*
X164840483Y-110047118D01*
X164823938Y-110036062D01*
X164812882Y-110019517D01*
X164809000Y-110000000D01*
X164809000Y-108400000D01*
X164812882Y-108380483D01*
X164823938Y-108363938D01*
X164840483Y-108352882D01*
X164860000Y-108349000D01*
X166460000Y-108349000D01*
X166479517Y-108352882D01*
G37*
G36*
X137967032Y-108385644D02*
G01*
X138121159Y-108449485D01*
X138259869Y-108542168D01*
X138377832Y-108660131D01*
X138470515Y-108798841D01*
X138534356Y-108952968D01*
X138566902Y-109116587D01*
X138566902Y-109283413D01*
X138534356Y-109447032D01*
X138470515Y-109601159D01*
X138377832Y-109739869D01*
X138259869Y-109857832D01*
X138121159Y-109950515D01*
X137967032Y-110014356D01*
X137803413Y-110046902D01*
X137636587Y-110046902D01*
X137472968Y-110014356D01*
X137318841Y-109950515D01*
X137180131Y-109857832D01*
X137062168Y-109739869D01*
X136969485Y-109601159D01*
X136905644Y-109447032D01*
X136873098Y-109283413D01*
X136873098Y-109116587D01*
X136905644Y-108952968D01*
X136969485Y-108798841D01*
X137062168Y-108660131D01*
X137180131Y-108542168D01*
X137318841Y-108449485D01*
X137472968Y-108385644D01*
X137636587Y-108353098D01*
X137803413Y-108353098D01*
X137967032Y-108385644D01*
G37*
G36*
X140507032Y-108385644D02*
G01*
X140661159Y-108449485D01*
X140799869Y-108542168D01*
X140917832Y-108660131D01*
X141010515Y-108798841D01*
X141074356Y-108952968D01*
X141106902Y-109116587D01*
X141106902Y-109283413D01*
X141074356Y-109447032D01*
X141010515Y-109601159D01*
X140917832Y-109739869D01*
X140799869Y-109857832D01*
X140661159Y-109950515D01*
X140507032Y-110014356D01*
X140343413Y-110046902D01*
X140176587Y-110046902D01*
X140012968Y-110014356D01*
X139858841Y-109950515D01*
X139720131Y-109857832D01*
X139602168Y-109739869D01*
X139509485Y-109601159D01*
X139445644Y-109447032D01*
X139413098Y-109283413D01*
X139413098Y-109116587D01*
X139445644Y-108952968D01*
X139509485Y-108798841D01*
X139602168Y-108660131D01*
X139720131Y-108542168D01*
X139858841Y-108449485D01*
X140012968Y-108385644D01*
X140176587Y-108353098D01*
X140343413Y-108353098D01*
X140507032Y-108385644D01*
G37*
G36*
X143047032Y-108385644D02*
G01*
X143201159Y-108449485D01*
X143339869Y-108542168D01*
X143457832Y-108660131D01*
X143550515Y-108798841D01*
X143614356Y-108952968D01*
X143646902Y-109116587D01*
X143646902Y-109283413D01*
X143614356Y-109447032D01*
X143550515Y-109601159D01*
X143457832Y-109739869D01*
X143339869Y-109857832D01*
X143201159Y-109950515D01*
X143047032Y-110014356D01*
X142883413Y-110046902D01*
X142716587Y-110046902D01*
X142552968Y-110014356D01*
X142398841Y-109950515D01*
X142260131Y-109857832D01*
X142142168Y-109739869D01*
X142049485Y-109601159D01*
X141985644Y-109447032D01*
X141953098Y-109283413D01*
X141953098Y-109116587D01*
X141985644Y-108952968D01*
X142049485Y-108798841D01*
X142142168Y-108660131D01*
X142260131Y-108542168D01*
X142398841Y-108449485D01*
X142552968Y-108385644D01*
X142716587Y-108353098D01*
X142883413Y-108353098D01*
X143047032Y-108385644D01*
G37*
G36*
X145587032Y-108385644D02*
G01*
X145741159Y-108449485D01*
X145879869Y-108542168D01*
X145997832Y-108660131D01*
X146090515Y-108798841D01*
X146154356Y-108952968D01*
X146186902Y-109116587D01*
X146186902Y-109283413D01*
X146154356Y-109447032D01*
X146090515Y-109601159D01*
X145997832Y-109739869D01*
X145879869Y-109857832D01*
X145741159Y-109950515D01*
X145587032Y-110014356D01*
X145423413Y-110046902D01*
X145256587Y-110046902D01*
X145092968Y-110014356D01*
X144938841Y-109950515D01*
X144800131Y-109857832D01*
X144682168Y-109739869D01*
X144589485Y-109601159D01*
X144525644Y-109447032D01*
X144493098Y-109283413D01*
X144493098Y-109116587D01*
X144525644Y-108952968D01*
X144589485Y-108798841D01*
X144682168Y-108660131D01*
X144800131Y-108542168D01*
X144938841Y-108449485D01*
X145092968Y-108385644D01*
X145256587Y-108353098D01*
X145423413Y-108353098D01*
X145587032Y-108385644D01*
G37*
G36*
X148127032Y-108385644D02*
G01*
X148281159Y-108449485D01*
X148419869Y-108542168D01*
X148537832Y-108660131D01*
X148630515Y-108798841D01*
X148694356Y-108952968D01*
X148726902Y-109116587D01*
X148726902Y-109283413D01*
X148694356Y-109447032D01*
X148630515Y-109601159D01*
X148537832Y-109739869D01*
X148419869Y-109857832D01*
X148281159Y-109950515D01*
X148127032Y-110014356D01*
X147963413Y-110046902D01*
X147796587Y-110046902D01*
X147632968Y-110014356D01*
X147478841Y-109950515D01*
X147340131Y-109857832D01*
X147222168Y-109739869D01*
X147129485Y-109601159D01*
X147065644Y-109447032D01*
X147033098Y-109283413D01*
X147033098Y-109116587D01*
X147065644Y-108952968D01*
X147129485Y-108798841D01*
X147222168Y-108660131D01*
X147340131Y-108542168D01*
X147478841Y-108449485D01*
X147632968Y-108385644D01*
X147796587Y-108353098D01*
X147963413Y-108353098D01*
X148127032Y-108385644D01*
G37*
G36*
X150667032Y-108385644D02*
G01*
X150821159Y-108449485D01*
X150959869Y-108542168D01*
X151077832Y-108660131D01*
X151170515Y-108798841D01*
X151234356Y-108952968D01*
X151266902Y-109116587D01*
X151266902Y-109283413D01*
X151234356Y-109447032D01*
X151170515Y-109601159D01*
X151077832Y-109739869D01*
X150959869Y-109857832D01*
X150821159Y-109950515D01*
X150667032Y-110014356D01*
X150503413Y-110046902D01*
X150336587Y-110046902D01*
X150172968Y-110014356D01*
X150018841Y-109950515D01*
X149880131Y-109857832D01*
X149762168Y-109739869D01*
X149669485Y-109601159D01*
X149605644Y-109447032D01*
X149573098Y-109283413D01*
X149573098Y-109116587D01*
X149605644Y-108952968D01*
X149669485Y-108798841D01*
X149762168Y-108660131D01*
X149880131Y-108542168D01*
X150018841Y-108449485D01*
X150172968Y-108385644D01*
X150336587Y-108353098D01*
X150503413Y-108353098D01*
X150667032Y-108385644D01*
G37*
G36*
X153207032Y-108385644D02*
G01*
X153361159Y-108449485D01*
X153499869Y-108542168D01*
X153617832Y-108660131D01*
X153710515Y-108798841D01*
X153774356Y-108952968D01*
X153806902Y-109116587D01*
X153806902Y-109283413D01*
X153774356Y-109447032D01*
X153710515Y-109601159D01*
X153617832Y-109739869D01*
X153499869Y-109857832D01*
X153361159Y-109950515D01*
X153207032Y-110014356D01*
X153043413Y-110046902D01*
X152876587Y-110046902D01*
X152712968Y-110014356D01*
X152558841Y-109950515D01*
X152420131Y-109857832D01*
X152302168Y-109739869D01*
X152209485Y-109601159D01*
X152145644Y-109447032D01*
X152113098Y-109283413D01*
X152113098Y-109116587D01*
X152145644Y-108952968D01*
X152209485Y-108798841D01*
X152302168Y-108660131D01*
X152420131Y-108542168D01*
X152558841Y-108449485D01*
X152712968Y-108385644D01*
X152876587Y-108353098D01*
X153043413Y-108353098D01*
X153207032Y-108385644D01*
G37*
G36*
X155747032Y-108385644D02*
G01*
X155901159Y-108449485D01*
X156039869Y-108542168D01*
X156157832Y-108660131D01*
X156250515Y-108798841D01*
X156314356Y-108952968D01*
X156346902Y-109116587D01*
X156346902Y-109283413D01*
X156314356Y-109447032D01*
X156250515Y-109601159D01*
X156157832Y-109739869D01*
X156039869Y-109857832D01*
X155901159Y-109950515D01*
X155747032Y-110014356D01*
X155583413Y-110046902D01*
X155416587Y-110046902D01*
X155252968Y-110014356D01*
X155098841Y-109950515D01*
X154960131Y-109857832D01*
X154842168Y-109739869D01*
X154749485Y-109601159D01*
X154685644Y-109447032D01*
X154653098Y-109283413D01*
X154653098Y-109116587D01*
X154685644Y-108952968D01*
X154749485Y-108798841D01*
X154842168Y-108660131D01*
X154960131Y-108542168D01*
X155098841Y-108449485D01*
X155252968Y-108385644D01*
X155416587Y-108353098D01*
X155583413Y-108353098D01*
X155747032Y-108385644D01*
G37*
G36*
X158287032Y-108385644D02*
G01*
X158441159Y-108449485D01*
X158579869Y-108542168D01*
X158697832Y-108660131D01*
X158790515Y-108798841D01*
X158854356Y-108952968D01*
X158886902Y-109116587D01*
X158886902Y-109283413D01*
X158854356Y-109447032D01*
X158790515Y-109601159D01*
X158697832Y-109739869D01*
X158579869Y-109857832D01*
X158441159Y-109950515D01*
X158287032Y-110014356D01*
X158123413Y-110046902D01*
X157956587Y-110046902D01*
X157792968Y-110014356D01*
X157638841Y-109950515D01*
X157500131Y-109857832D01*
X157382168Y-109739869D01*
X157289485Y-109601159D01*
X157225644Y-109447032D01*
X157193098Y-109283413D01*
X157193098Y-109116587D01*
X157225644Y-108952968D01*
X157289485Y-108798841D01*
X157382168Y-108660131D01*
X157500131Y-108542168D01*
X157638841Y-108449485D01*
X157792968Y-108385644D01*
X157956587Y-108353098D01*
X158123413Y-108353098D01*
X158287032Y-108385644D01*
G37*
G36*
X160827032Y-108385644D02*
G01*
X160981159Y-108449485D01*
X161119869Y-108542168D01*
X161237832Y-108660131D01*
X161330515Y-108798841D01*
X161394356Y-108952968D01*
X161426902Y-109116587D01*
X161426902Y-109283413D01*
X161394356Y-109447032D01*
X161330515Y-109601159D01*
X161237832Y-109739869D01*
X161119869Y-109857832D01*
X160981159Y-109950515D01*
X160827032Y-110014356D01*
X160663413Y-110046902D01*
X160496587Y-110046902D01*
X160332968Y-110014356D01*
X160178841Y-109950515D01*
X160040131Y-109857832D01*
X159922168Y-109739869D01*
X159829485Y-109601159D01*
X159765644Y-109447032D01*
X159733098Y-109283413D01*
X159733098Y-109116587D01*
X159765644Y-108952968D01*
X159829485Y-108798841D01*
X159922168Y-108660131D01*
X160040131Y-108542168D01*
X160178841Y-108449485D01*
X160332968Y-108385644D01*
X160496587Y-108353098D01*
X160663413Y-108353098D01*
X160827032Y-108385644D01*
G37*
G36*
X163367032Y-108385644D02*
G01*
X163521159Y-108449485D01*
X163659869Y-108542168D01*
X163777832Y-108660131D01*
X163870515Y-108798841D01*
X163934356Y-108952968D01*
X163966902Y-109116587D01*
X163966902Y-109283413D01*
X163934356Y-109447032D01*
X163870515Y-109601159D01*
X163777832Y-109739869D01*
X163659869Y-109857832D01*
X163521159Y-109950515D01*
X163367032Y-110014356D01*
X163203413Y-110046902D01*
X163036587Y-110046902D01*
X162872968Y-110014356D01*
X162718841Y-109950515D01*
X162580131Y-109857832D01*
X162462168Y-109739869D01*
X162369485Y-109601159D01*
X162305644Y-109447032D01*
X162273098Y-109283413D01*
X162273098Y-109116587D01*
X162305644Y-108952968D01*
X162369485Y-108798841D01*
X162462168Y-108660131D01*
X162580131Y-108542168D01*
X162718841Y-108449485D01*
X162872968Y-108385644D01*
X163036587Y-108353098D01*
X163203413Y-108353098D01*
X163367032Y-108385644D01*
G37*
G36*
X162132518Y-104833491D02*
G01*
X162277589Y-104893581D01*
X162408149Y-104980819D01*
X162519181Y-105091851D01*
X162606419Y-105222411D01*
X162666509Y-105367482D01*
X162697143Y-105521488D01*
X162697143Y-105678512D01*
X162666509Y-105832518D01*
X162606419Y-105977589D01*
X162519181Y-106108149D01*
X162408149Y-106219181D01*
X162277589Y-106306419D01*
X162132518Y-106366509D01*
X161978512Y-106397143D01*
X161821488Y-106397143D01*
X161667482Y-106366509D01*
X161522411Y-106306419D01*
X161391851Y-106219181D01*
X161280819Y-106108149D01*
X161193581Y-105977589D01*
X161133491Y-105832518D01*
X161102857Y-105678512D01*
X161102857Y-105521488D01*
X161133491Y-105367482D01*
X161193581Y-105222411D01*
X161280819Y-105091851D01*
X161391851Y-104980819D01*
X161522411Y-104893581D01*
X161667482Y-104833491D01*
X161821488Y-104802857D01*
X161978512Y-104802857D01*
X162132518Y-104833491D01*
G37*
G36*
X87950386Y-97889599D02*
G01*
X88311419Y-97961413D01*
X88663674Y-98068268D01*
X89003759Y-98209136D01*
X89328399Y-98382660D01*
X89634468Y-98587169D01*
X89919018Y-98820692D01*
X90179308Y-99080982D01*
X90412831Y-99365532D01*
X90617340Y-99671601D01*
X90790864Y-99996241D01*
X90931732Y-100336326D01*
X91038587Y-100688581D01*
X91110401Y-101049614D01*
X91146482Y-101415947D01*
X91146482Y-101784053D01*
X91110401Y-102150386D01*
X91038587Y-102511419D01*
X90931732Y-102863674D01*
X90790864Y-103203759D01*
X90617340Y-103528399D01*
X90412831Y-103834468D01*
X90179308Y-104119018D01*
X89919018Y-104379308D01*
X89634468Y-104612831D01*
X89328399Y-104817340D01*
X89003759Y-104990864D01*
X88663674Y-105131732D01*
X88311419Y-105238587D01*
X87950386Y-105310401D01*
X87584053Y-105346482D01*
X87215947Y-105346482D01*
X86849614Y-105310401D01*
X86488581Y-105238587D01*
X86136326Y-105131732D01*
X85796241Y-104990864D01*
X85471601Y-104817340D01*
X85165532Y-104612831D01*
X84880982Y-104379308D01*
X84620692Y-104119018D01*
X84387169Y-103834468D01*
X84182660Y-103528399D01*
X84009136Y-103203759D01*
X83868268Y-102863674D01*
X83761413Y-102511419D01*
X83689599Y-102150386D01*
X83653518Y-101784053D01*
X83653518Y-101415947D01*
X83689599Y-101049614D01*
X83761413Y-100688581D01*
X83868268Y-100336326D01*
X84009136Y-99996241D01*
X84182660Y-99671601D01*
X84387169Y-99365532D01*
X84620692Y-99080982D01*
X84880982Y-98820692D01*
X85165532Y-98587169D01*
X85471601Y-98382660D01*
X85796241Y-98209136D01*
X86136326Y-98068268D01*
X86488581Y-97961413D01*
X86849614Y-97889599D01*
X87215947Y-97853518D01*
X87584053Y-97853518D01*
X87950386Y-97889599D01*
G37*
G36*
X162103490Y-102929185D02*
G01*
X162230449Y-102981773D01*
X162344710Y-103058120D01*
X162441880Y-103155290D01*
X162518227Y-103269551D01*
X162570815Y-103396510D01*
X162597624Y-103531290D01*
X162597624Y-103668710D01*
X162570815Y-103803490D01*
X162518227Y-103930449D01*
X162441880Y-104044710D01*
X162344710Y-104141880D01*
X162230449Y-104218227D01*
X162103490Y-104270815D01*
X161968710Y-104297624D01*
X161831290Y-104297624D01*
X161696510Y-104270815D01*
X161569551Y-104218227D01*
X161455290Y-104141880D01*
X161358120Y-104044710D01*
X161281773Y-103930449D01*
X161229185Y-103803490D01*
X161202376Y-103668710D01*
X161202376Y-103531290D01*
X161229185Y-103396510D01*
X161281773Y-103269551D01*
X161358120Y-103155290D01*
X161455290Y-103058120D01*
X161569551Y-102981773D01*
X161696510Y-102929185D01*
X161831290Y-102902376D01*
X161968710Y-102902376D01*
X162103490Y-102929185D01*
G37*
G36*
X162103490Y-100929185D02*
G01*
X162230449Y-100981773D01*
X162344710Y-101058120D01*
X162441880Y-101155290D01*
X162518227Y-101269551D01*
X162570815Y-101396510D01*
X162597624Y-101531290D01*
X162597624Y-101668710D01*
X162570815Y-101803490D01*
X162518227Y-101930449D01*
X162441880Y-102044710D01*
X162344710Y-102141880D01*
X162230449Y-102218227D01*
X162103490Y-102270815D01*
X161968710Y-102297624D01*
X161831290Y-102297624D01*
X161696510Y-102270815D01*
X161569551Y-102218227D01*
X161455290Y-102141880D01*
X161358120Y-102044710D01*
X161281773Y-101930449D01*
X161229185Y-101803490D01*
X161202376Y-101668710D01*
X161202376Y-101531290D01*
X161229185Y-101396510D01*
X161281773Y-101269551D01*
X161358120Y-101155290D01*
X161455290Y-101058120D01*
X161569551Y-100981773D01*
X161696510Y-100929185D01*
X161831290Y-100902376D01*
X161968710Y-100902376D01*
X162103490Y-100929185D01*
G37*
G36*
X162088975Y-98977032D02*
G01*
X162206879Y-99025869D01*
X162312990Y-99096770D01*
X162403230Y-99187010D01*
X162474131Y-99293121D01*
X162522968Y-99411025D01*
X162547865Y-99536191D01*
X162547865Y-99663809D01*
X162522968Y-99788975D01*
X162474131Y-99906879D01*
X162403230Y-100012990D01*
X162312990Y-100103230D01*
X162206879Y-100174131D01*
X162088975Y-100222968D01*
X161963809Y-100247865D01*
X161836191Y-100247865D01*
X161711025Y-100222968D01*
X161593121Y-100174131D01*
X161487010Y-100103230D01*
X161396770Y-100012990D01*
X161325869Y-99906879D01*
X161277032Y-99788975D01*
X161252135Y-99663809D01*
X161252135Y-99536191D01*
X161277032Y-99411025D01*
X161325869Y-99293121D01*
X161396770Y-99187010D01*
X161487010Y-99096770D01*
X161593121Y-99025869D01*
X161711025Y-98977032D01*
X161836191Y-98952135D01*
X161963809Y-98952135D01*
X162088975Y-98977032D01*
G37*
G36*
X162132518Y-96833491D02*
G01*
X162277589Y-96893581D01*
X162408149Y-96980819D01*
X162519181Y-97091851D01*
X162606419Y-97222411D01*
X162666509Y-97367482D01*
X162697143Y-97521488D01*
X162697143Y-97678512D01*
X162666509Y-97832518D01*
X162606419Y-97977589D01*
X162519181Y-98108149D01*
X162408149Y-98219181D01*
X162277589Y-98306419D01*
X162132518Y-98366509D01*
X161978512Y-98397143D01*
X161821488Y-98397143D01*
X161667482Y-98366509D01*
X161522411Y-98306419D01*
X161391851Y-98219181D01*
X161280819Y-98108149D01*
X161193581Y-97977589D01*
X161133491Y-97832518D01*
X161102857Y-97678512D01*
X161102857Y-97521488D01*
X161133491Y-97367482D01*
X161193581Y-97222411D01*
X161280819Y-97091851D01*
X161391851Y-96980819D01*
X161522411Y-96893581D01*
X161667482Y-96833491D01*
X161821488Y-96802857D01*
X161978512Y-96802857D01*
X162132518Y-96833491D01*
G37*
G36*
X137967032Y-93145644D02*
G01*
X138121159Y-93209485D01*
X138259869Y-93302168D01*
X138377832Y-93420131D01*
X138470515Y-93558841D01*
X138534356Y-93712968D01*
X138566902Y-93876587D01*
X138566902Y-94043413D01*
X138534356Y-94207032D01*
X138470515Y-94361159D01*
X138377832Y-94499869D01*
X138259869Y-94617832D01*
X138121159Y-94710515D01*
X137967032Y-94774356D01*
X137803413Y-94806902D01*
X137636587Y-94806902D01*
X137472968Y-94774356D01*
X137318841Y-94710515D01*
X137180131Y-94617832D01*
X137062168Y-94499869D01*
X136969485Y-94361159D01*
X136905644Y-94207032D01*
X136873098Y-94043413D01*
X136873098Y-93876587D01*
X136905644Y-93712968D01*
X136969485Y-93558841D01*
X137062168Y-93420131D01*
X137180131Y-93302168D01*
X137318841Y-93209485D01*
X137472968Y-93145644D01*
X137636587Y-93113098D01*
X137803413Y-93113098D01*
X137967032Y-93145644D01*
G37*
G36*
X140507032Y-93145644D02*
G01*
X140661159Y-93209485D01*
X140799869Y-93302168D01*
X140917832Y-93420131D01*
X141010515Y-93558841D01*
X141074356Y-93712968D01*
X141106902Y-93876587D01*
X141106902Y-94043413D01*
X141074356Y-94207032D01*
X141010515Y-94361159D01*
X140917832Y-94499869D01*
X140799869Y-94617832D01*
X140661159Y-94710515D01*
X140507032Y-94774356D01*
X140343413Y-94806902D01*
X140176587Y-94806902D01*
X140012968Y-94774356D01*
X139858841Y-94710515D01*
X139720131Y-94617832D01*
X139602168Y-94499869D01*
X139509485Y-94361159D01*
X139445644Y-94207032D01*
X139413098Y-94043413D01*
X139413098Y-93876587D01*
X139445644Y-93712968D01*
X139509485Y-93558841D01*
X139602168Y-93420131D01*
X139720131Y-93302168D01*
X139858841Y-93209485D01*
X140012968Y-93145644D01*
X140176587Y-93113098D01*
X140343413Y-93113098D01*
X140507032Y-93145644D01*
G37*
G36*
X143047032Y-93145644D02*
G01*
X143201159Y-93209485D01*
X143339869Y-93302168D01*
X143457832Y-93420131D01*
X143550515Y-93558841D01*
X143614356Y-93712968D01*
X143646902Y-93876587D01*
X143646902Y-94043413D01*
X143614356Y-94207032D01*
X143550515Y-94361159D01*
X143457832Y-94499869D01*
X143339869Y-94617832D01*
X143201159Y-94710515D01*
X143047032Y-94774356D01*
X142883413Y-94806902D01*
X142716587Y-94806902D01*
X142552968Y-94774356D01*
X142398841Y-94710515D01*
X142260131Y-94617832D01*
X142142168Y-94499869D01*
X142049485Y-94361159D01*
X141985644Y-94207032D01*
X141953098Y-94043413D01*
X141953098Y-93876587D01*
X141985644Y-93712968D01*
X142049485Y-93558841D01*
X142142168Y-93420131D01*
X142260131Y-93302168D01*
X142398841Y-93209485D01*
X142552968Y-93145644D01*
X142716587Y-93113098D01*
X142883413Y-93113098D01*
X143047032Y-93145644D01*
G37*
G36*
X145587032Y-93145644D02*
G01*
X145741159Y-93209485D01*
X145879869Y-93302168D01*
X145997832Y-93420131D01*
X146090515Y-93558841D01*
X146154356Y-93712968D01*
X146186902Y-93876587D01*
X146186902Y-94043413D01*
X146154356Y-94207032D01*
X146090515Y-94361159D01*
X145997832Y-94499869D01*
X145879869Y-94617832D01*
X145741159Y-94710515D01*
X145587032Y-94774356D01*
X145423413Y-94806902D01*
X145256587Y-94806902D01*
X145092968Y-94774356D01*
X144938841Y-94710515D01*
X144800131Y-94617832D01*
X144682168Y-94499869D01*
X144589485Y-94361159D01*
X144525644Y-94207032D01*
X144493098Y-94043413D01*
X144493098Y-93876587D01*
X144525644Y-93712968D01*
X144589485Y-93558841D01*
X144682168Y-93420131D01*
X144800131Y-93302168D01*
X144938841Y-93209485D01*
X145092968Y-93145644D01*
X145256587Y-93113098D01*
X145423413Y-93113098D01*
X145587032Y-93145644D01*
G37*
G36*
X148127032Y-93145644D02*
G01*
X148281159Y-93209485D01*
X148419869Y-93302168D01*
X148537832Y-93420131D01*
X148630515Y-93558841D01*
X148694356Y-93712968D01*
X148726902Y-93876587D01*
X148726902Y-94043413D01*
X148694356Y-94207032D01*
X148630515Y-94361159D01*
X148537832Y-94499869D01*
X148419869Y-94617832D01*
X148281159Y-94710515D01*
X148127032Y-94774356D01*
X147963413Y-94806902D01*
X147796587Y-94806902D01*
X147632968Y-94774356D01*
X147478841Y-94710515D01*
X147340131Y-94617832D01*
X147222168Y-94499869D01*
X147129485Y-94361159D01*
X147065644Y-94207032D01*
X147033098Y-94043413D01*
X147033098Y-93876587D01*
X147065644Y-93712968D01*
X147129485Y-93558841D01*
X147222168Y-93420131D01*
X147340131Y-93302168D01*
X147478841Y-93209485D01*
X147632968Y-93145644D01*
X147796587Y-93113098D01*
X147963413Y-93113098D01*
X148127032Y-93145644D01*
G37*
G36*
X150667032Y-93145644D02*
G01*
X150821159Y-93209485D01*
X150959869Y-93302168D01*
X151077832Y-93420131D01*
X151170515Y-93558841D01*
X151234356Y-93712968D01*
X151266902Y-93876587D01*
X151266902Y-94043413D01*
X151234356Y-94207032D01*
X151170515Y-94361159D01*
X151077832Y-94499869D01*
X150959869Y-94617832D01*
X150821159Y-94710515D01*
X150667032Y-94774356D01*
X150503413Y-94806902D01*
X150336587Y-94806902D01*
X150172968Y-94774356D01*
X150018841Y-94710515D01*
X149880131Y-94617832D01*
X149762168Y-94499869D01*
X149669485Y-94361159D01*
X149605644Y-94207032D01*
X149573098Y-94043413D01*
X149573098Y-93876587D01*
X149605644Y-93712968D01*
X149669485Y-93558841D01*
X149762168Y-93420131D01*
X149880131Y-93302168D01*
X150018841Y-93209485D01*
X150172968Y-93145644D01*
X150336587Y-93113098D01*
X150503413Y-93113098D01*
X150667032Y-93145644D01*
G37*
G36*
X153207032Y-93145644D02*
G01*
X153361159Y-93209485D01*
X153499869Y-93302168D01*
X153617832Y-93420131D01*
X153710515Y-93558841D01*
X153774356Y-93712968D01*
X153806902Y-93876587D01*
X153806902Y-94043413D01*
X153774356Y-94207032D01*
X153710515Y-94361159D01*
X153617832Y-94499869D01*
X153499869Y-94617832D01*
X153361159Y-94710515D01*
X153207032Y-94774356D01*
X153043413Y-94806902D01*
X152876587Y-94806902D01*
X152712968Y-94774356D01*
X152558841Y-94710515D01*
X152420131Y-94617832D01*
X152302168Y-94499869D01*
X152209485Y-94361159D01*
X152145644Y-94207032D01*
X152113098Y-94043413D01*
X152113098Y-93876587D01*
X152145644Y-93712968D01*
X152209485Y-93558841D01*
X152302168Y-93420131D01*
X152420131Y-93302168D01*
X152558841Y-93209485D01*
X152712968Y-93145644D01*
X152876587Y-93113098D01*
X153043413Y-93113098D01*
X153207032Y-93145644D01*
G37*
G36*
X155747032Y-93145644D02*
G01*
X155901159Y-93209485D01*
X156039869Y-93302168D01*
X156157832Y-93420131D01*
X156250515Y-93558841D01*
X156314356Y-93712968D01*
X156346902Y-93876587D01*
X156346902Y-94043413D01*
X156314356Y-94207032D01*
X156250515Y-94361159D01*
X156157832Y-94499869D01*
X156039869Y-94617832D01*
X155901159Y-94710515D01*
X155747032Y-94774356D01*
X155583413Y-94806902D01*
X155416587Y-94806902D01*
X155252968Y-94774356D01*
X155098841Y-94710515D01*
X154960131Y-94617832D01*
X154842168Y-94499869D01*
X154749485Y-94361159D01*
X154685644Y-94207032D01*
X154653098Y-94043413D01*
X154653098Y-93876587D01*
X154685644Y-93712968D01*
X154749485Y-93558841D01*
X154842168Y-93420131D01*
X154960131Y-93302168D01*
X155098841Y-93209485D01*
X155252968Y-93145644D01*
X155416587Y-93113098D01*
X155583413Y-93113098D01*
X155747032Y-93145644D01*
G37*
G36*
X158287032Y-93145644D02*
G01*
X158441159Y-93209485D01*
X158579869Y-93302168D01*
X158697832Y-93420131D01*
X158790515Y-93558841D01*
X158854356Y-93712968D01*
X158886902Y-93876587D01*
X158886902Y-94043413D01*
X158854356Y-94207032D01*
X158790515Y-94361159D01*
X158697832Y-94499869D01*
X158579869Y-94617832D01*
X158441159Y-94710515D01*
X158287032Y-94774356D01*
X158123413Y-94806902D01*
X157956587Y-94806902D01*
X157792968Y-94774356D01*
X157638841Y-94710515D01*
X157500131Y-94617832D01*
X157382168Y-94499869D01*
X157289485Y-94361159D01*
X157225644Y-94207032D01*
X157193098Y-94043413D01*
X157193098Y-93876587D01*
X157225644Y-93712968D01*
X157289485Y-93558841D01*
X157382168Y-93420131D01*
X157500131Y-93302168D01*
X157638841Y-93209485D01*
X157792968Y-93145644D01*
X157956587Y-93113098D01*
X158123413Y-93113098D01*
X158287032Y-93145644D01*
G37*
G36*
X160827032Y-93145644D02*
G01*
X160981159Y-93209485D01*
X161119869Y-93302168D01*
X161237832Y-93420131D01*
X161330515Y-93558841D01*
X161394356Y-93712968D01*
X161426902Y-93876587D01*
X161426902Y-94043413D01*
X161394356Y-94207032D01*
X161330515Y-94361159D01*
X161237832Y-94499869D01*
X161119869Y-94617832D01*
X160981159Y-94710515D01*
X160827032Y-94774356D01*
X160663413Y-94806902D01*
X160496587Y-94806902D01*
X160332968Y-94774356D01*
X160178841Y-94710515D01*
X160040131Y-94617832D01*
X159922168Y-94499869D01*
X159829485Y-94361159D01*
X159765644Y-94207032D01*
X159733098Y-94043413D01*
X159733098Y-93876587D01*
X159765644Y-93712968D01*
X159829485Y-93558841D01*
X159922168Y-93420131D01*
X160040131Y-93302168D01*
X160178841Y-93209485D01*
X160332968Y-93145644D01*
X160496587Y-93113098D01*
X160663413Y-93113098D01*
X160827032Y-93145644D01*
G37*
G36*
X163367032Y-93145644D02*
G01*
X163521159Y-93209485D01*
X163659869Y-93302168D01*
X163777832Y-93420131D01*
X163870515Y-93558841D01*
X163934356Y-93712968D01*
X163966902Y-93876587D01*
X163966902Y-94043413D01*
X163934356Y-94207032D01*
X163870515Y-94361159D01*
X163777832Y-94499869D01*
X163659869Y-94617832D01*
X163521159Y-94710515D01*
X163367032Y-94774356D01*
X163203413Y-94806902D01*
X163036587Y-94806902D01*
X162872968Y-94774356D01*
X162718841Y-94710515D01*
X162580131Y-94617832D01*
X162462168Y-94499869D01*
X162369485Y-94361159D01*
X162305644Y-94207032D01*
X162273098Y-94043413D01*
X162273098Y-93876587D01*
X162305644Y-93712968D01*
X162369485Y-93558841D01*
X162462168Y-93420131D01*
X162580131Y-93302168D01*
X162718841Y-93209485D01*
X162872968Y-93145644D01*
X163036587Y-93113098D01*
X163203413Y-93113098D01*
X163367032Y-93145644D01*
G37*
G36*
X165907032Y-93145644D02*
G01*
X166061159Y-93209485D01*
X166199869Y-93302168D01*
X166317832Y-93420131D01*
X166410515Y-93558841D01*
X166474356Y-93712968D01*
X166506902Y-93876587D01*
X166506902Y-94043413D01*
X166474356Y-94207032D01*
X166410515Y-94361159D01*
X166317832Y-94499869D01*
X166199869Y-94617832D01*
X166061159Y-94710515D01*
X165907032Y-94774356D01*
X165743413Y-94806902D01*
X165576587Y-94806902D01*
X165412968Y-94774356D01*
X165258841Y-94710515D01*
X165120131Y-94617832D01*
X165002168Y-94499869D01*
X164909485Y-94361159D01*
X164845644Y-94207032D01*
X164813098Y-94043413D01*
X164813098Y-93876587D01*
X164845644Y-93712968D01*
X164909485Y-93558841D01*
X165002168Y-93420131D01*
X165120131Y-93302168D01*
X165258841Y-93209485D01*
X165412968Y-93145644D01*
X165576587Y-93113098D01*
X165743413Y-93113098D01*
X165907032Y-93145644D01*
G37*
G36*
X160132518Y-89583491D02*
G01*
X160277589Y-89643581D01*
X160408149Y-89730819D01*
X160519181Y-89841851D01*
X160606419Y-89972411D01*
X160666509Y-90117482D01*
X160697143Y-90271488D01*
X160697143Y-90428512D01*
X160666509Y-90582518D01*
X160606419Y-90727589D01*
X160519181Y-90858149D01*
X160408149Y-90969181D01*
X160277589Y-91056419D01*
X160132518Y-91116509D01*
X159978512Y-91147143D01*
X159821488Y-91147143D01*
X159667482Y-91116509D01*
X159522411Y-91056419D01*
X159391851Y-90969181D01*
X159280819Y-90858149D01*
X159193581Y-90727589D01*
X159133491Y-90582518D01*
X159102857Y-90428512D01*
X159102857Y-90271488D01*
X159133491Y-90117482D01*
X159193581Y-89972411D01*
X159280819Y-89841851D01*
X159391851Y-89730819D01*
X159522411Y-89643581D01*
X159667482Y-89583491D01*
X159821488Y-89552857D01*
X159978512Y-89552857D01*
X160132518Y-89583491D01*
G37*
G36*
X140669517Y-87850800D02*
G01*
X140686062Y-87861856D01*
X141888144Y-89063938D01*
X141899200Y-89080483D01*
X141903081Y-89100000D01*
X141899200Y-89119517D01*
X141888144Y-89136062D01*
X140686062Y-90338144D01*
X140669517Y-90349200D01*
X140650000Y-90353081D01*
X140630483Y-90349200D01*
X140613938Y-90338144D01*
X139411856Y-89136062D01*
X139400800Y-89119517D01*
X139396919Y-89100000D01*
X139400800Y-89080483D01*
X139411856Y-89063938D01*
X140275785Y-88200009D01*
X140605233Y-87870560D01*
X140605236Y-87870557D01*
X140613938Y-87861856D01*
X140630483Y-87850800D01*
X140650000Y-87846919D01*
X140669517Y-87850800D01*
G37*
G36*
X160103490Y-87679185D02*
G01*
X160230449Y-87731773D01*
X160344710Y-87808120D01*
X160441880Y-87905290D01*
X160518227Y-88019551D01*
X160570815Y-88146510D01*
X160597624Y-88281290D01*
X160597624Y-88418710D01*
X160570815Y-88553490D01*
X160518227Y-88680449D01*
X160441880Y-88794710D01*
X160344710Y-88891880D01*
X160230449Y-88968227D01*
X160103490Y-89020815D01*
X159968710Y-89047624D01*
X159831290Y-89047624D01*
X159696510Y-89020815D01*
X159569551Y-88968227D01*
X159455290Y-88891880D01*
X159358120Y-88794710D01*
X159281773Y-88680449D01*
X159229185Y-88553490D01*
X159202376Y-88418710D01*
X159202376Y-88281290D01*
X159229185Y-88146510D01*
X159281773Y-88019551D01*
X159358120Y-87905290D01*
X159455290Y-87808120D01*
X159569551Y-87731773D01*
X159696510Y-87679185D01*
X159831290Y-87652376D01*
X159968710Y-87652376D01*
X160103490Y-87679185D01*
G37*
G36*
X139115495Y-86441746D02*
G01*
X139278677Y-86509338D01*
X139425537Y-86607467D01*
X139550431Y-86732361D01*
X139648560Y-86879221D01*
X139716152Y-87042403D01*
X139750610Y-87215636D01*
X139750610Y-87392262D01*
X139716152Y-87565495D01*
X139648560Y-87728677D01*
X139550431Y-87875537D01*
X139425537Y-88000431D01*
X139278677Y-88098560D01*
X139115495Y-88166152D01*
X138942262Y-88200610D01*
X138765636Y-88200610D01*
X138592403Y-88166152D01*
X138429221Y-88098560D01*
X138282361Y-88000431D01*
X138157467Y-87875537D01*
X138059338Y-87728677D01*
X137991746Y-87565495D01*
X137957288Y-87392262D01*
X137957288Y-87215636D01*
X137991746Y-87042403D01*
X138059338Y-86879221D01*
X138157467Y-86732361D01*
X138282361Y-86607467D01*
X138429221Y-86509338D01*
X138592403Y-86441746D01*
X138765636Y-86407288D01*
X138942262Y-86407288D01*
X139115495Y-86441746D01*
G37*
G36*
X130661546Y-85817797D02*
G01*
X130824728Y-85885389D01*
X130971588Y-85983518D01*
X131096482Y-86108412D01*
X131194611Y-86255272D01*
X131262203Y-86418454D01*
X131296661Y-86591687D01*
X131296661Y-86768313D01*
X131262203Y-86941546D01*
X131194611Y-87104728D01*
X131096482Y-87251588D01*
X130971588Y-87376482D01*
X130824728Y-87474611D01*
X130661546Y-87542203D01*
X130488313Y-87576661D01*
X130311687Y-87576661D01*
X130138454Y-87542203D01*
X129975272Y-87474611D01*
X129828412Y-87376482D01*
X129703518Y-87251588D01*
X129605389Y-87104728D01*
X129537797Y-86941546D01*
X129503339Y-86768313D01*
X129503339Y-86591687D01*
X129537797Y-86418454D01*
X129605389Y-86255272D01*
X129703518Y-86108412D01*
X129828412Y-85983518D01*
X129975272Y-85885389D01*
X130138454Y-85817797D01*
X130311687Y-85783339D01*
X130488313Y-85783339D01*
X130661546Y-85817797D01*
G37*
G36*
X160103490Y-85679185D02*
G01*
X160230449Y-85731773D01*
X160344710Y-85808120D01*
X160441880Y-85905290D01*
X160518227Y-86019551D01*
X160570815Y-86146510D01*
X160597624Y-86281290D01*
X160597624Y-86418710D01*
X160570815Y-86553490D01*
X160518227Y-86680449D01*
X160441880Y-86794710D01*
X160344710Y-86891880D01*
X160230449Y-86968227D01*
X160103490Y-87020815D01*
X159968710Y-87047624D01*
X159831290Y-87047624D01*
X159696510Y-87020815D01*
X159569551Y-86968227D01*
X159455290Y-86891880D01*
X159358120Y-86794710D01*
X159281773Y-86680449D01*
X159229185Y-86553490D01*
X159202376Y-86418710D01*
X159202376Y-86281290D01*
X159229185Y-86146510D01*
X159281773Y-86019551D01*
X159358120Y-85905290D01*
X159455290Y-85808120D01*
X159569551Y-85731773D01*
X159696510Y-85679185D01*
X159831290Y-85652376D01*
X159968710Y-85652376D01*
X160103490Y-85679185D01*
G37*
G36*
X99653392Y-84945951D02*
G01*
X99816574Y-85013543D01*
X99963434Y-85111672D01*
X100088328Y-85236566D01*
X100186457Y-85383426D01*
X100254049Y-85546608D01*
X100288507Y-85719841D01*
X100288507Y-85896467D01*
X100254049Y-86069700D01*
X100186457Y-86232882D01*
X100088328Y-86379742D01*
X99963434Y-86504636D01*
X99816574Y-86602765D01*
X99653392Y-86670357D01*
X99480159Y-86704815D01*
X99303533Y-86704815D01*
X99130300Y-86670357D01*
X98967118Y-86602765D01*
X98820258Y-86504636D01*
X98695364Y-86379742D01*
X98597235Y-86232882D01*
X98529643Y-86069700D01*
X98495185Y-85896467D01*
X98495185Y-85719841D01*
X98529643Y-85546608D01*
X98597235Y-85383426D01*
X98695364Y-85236566D01*
X98820258Y-85111672D01*
X98967118Y-85013543D01*
X99130300Y-84945951D01*
X99303533Y-84911493D01*
X99480159Y-84911493D01*
X99653392Y-84945951D01*
G37*
G36*
X130661546Y-83277797D02*
G01*
X130824728Y-83345389D01*
X130971588Y-83443518D01*
X131096482Y-83568412D01*
X131194611Y-83715272D01*
X131262203Y-83878454D01*
X131296661Y-84051687D01*
X131296661Y-84228313D01*
X131262203Y-84401546D01*
X131194611Y-84564728D01*
X131096482Y-84711588D01*
X130971588Y-84836482D01*
X130824728Y-84934611D01*
X130661546Y-85002203D01*
X130488313Y-85036661D01*
X130311687Y-85036661D01*
X130138454Y-85002203D01*
X129975272Y-84934611D01*
X129828412Y-84836482D01*
X129703518Y-84711588D01*
X129605389Y-84564728D01*
X129537797Y-84401546D01*
X129503339Y-84228313D01*
X129503339Y-84051687D01*
X129537797Y-83878454D01*
X129605389Y-83715272D01*
X129703518Y-83568412D01*
X129828412Y-83443518D01*
X129975272Y-83345389D01*
X130138454Y-83277797D01*
X130311687Y-83243339D01*
X130488313Y-83243339D01*
X130661546Y-83277797D01*
G37*
G36*
X160088975Y-83727032D02*
G01*
X160206879Y-83775869D01*
X160312990Y-83846770D01*
X160403230Y-83937010D01*
X160474131Y-84043121D01*
X160522968Y-84161025D01*
X160547865Y-84286191D01*
X160547865Y-84413809D01*
X160522968Y-84538975D01*
X160474131Y-84656879D01*
X160403230Y-84762990D01*
X160312990Y-84853230D01*
X160206879Y-84924131D01*
X160088975Y-84972968D01*
X159963809Y-84997865D01*
X159836191Y-84997865D01*
X159711025Y-84972968D01*
X159593121Y-84924131D01*
X159487010Y-84853230D01*
X159396770Y-84762990D01*
X159325869Y-84656879D01*
X159277032Y-84538975D01*
X159252135Y-84413809D01*
X159252135Y-84286191D01*
X159277032Y-84161025D01*
X159325869Y-84043121D01*
X159396770Y-83937010D01*
X159487010Y-83846770D01*
X159593121Y-83775869D01*
X159711025Y-83727032D01*
X159836191Y-83702135D01*
X159963809Y-83702135D01*
X160088975Y-83727032D01*
G37*
G36*
X101449444Y-83149899D02*
G01*
X101612626Y-83217491D01*
X101759486Y-83315620D01*
X101884380Y-83440514D01*
X101982509Y-83587374D01*
X102050101Y-83750556D01*
X102084559Y-83923789D01*
X102084559Y-84100415D01*
X102050101Y-84273648D01*
X101982509Y-84436830D01*
X101884380Y-84583690D01*
X101759486Y-84708584D01*
X101612626Y-84806713D01*
X101449444Y-84874305D01*
X101276211Y-84908763D01*
X101099585Y-84908763D01*
X100926352Y-84874305D01*
X100763170Y-84806713D01*
X100616310Y-84708584D01*
X100491416Y-84583690D01*
X100393287Y-84436830D01*
X100325695Y-84273648D01*
X100291237Y-84100415D01*
X100291237Y-83923789D01*
X100325695Y-83750556D01*
X100393287Y-83587374D01*
X100491416Y-83440514D01*
X100616310Y-83315620D01*
X100763170Y-83217491D01*
X100926352Y-83149899D01*
X101099585Y-83115441D01*
X101276211Y-83115441D01*
X101449444Y-83149899D01*
G37*
G36*
X160132518Y-81583491D02*
G01*
X160277589Y-81643581D01*
X160408149Y-81730819D01*
X160519181Y-81841851D01*
X160606419Y-81972411D01*
X160666509Y-82117482D01*
X160697143Y-82271488D01*
X160697143Y-82428512D01*
X160666509Y-82582518D01*
X160606419Y-82727589D01*
X160519181Y-82858149D01*
X160408149Y-82969181D01*
X160277589Y-83056419D01*
X160132518Y-83116509D01*
X159978512Y-83147143D01*
X159821488Y-83147143D01*
X159667482Y-83116509D01*
X159522411Y-83056419D01*
X159391851Y-82969181D01*
X159280819Y-82858149D01*
X159193581Y-82727589D01*
X159133491Y-82582518D01*
X159102857Y-82428512D01*
X159102857Y-82271488D01*
X159133491Y-82117482D01*
X159193581Y-81972411D01*
X159280819Y-81841851D01*
X159391851Y-81730819D01*
X159522411Y-81643581D01*
X159667482Y-81583491D01*
X159821488Y-81552857D01*
X159978512Y-81552857D01*
X160132518Y-81583491D01*
G37*
G36*
X103245495Y-81353848D02*
G01*
X103408677Y-81421440D01*
X103555537Y-81519569D01*
X103680431Y-81644463D01*
X103778560Y-81791323D01*
X103846152Y-81954505D01*
X103880610Y-82127738D01*
X103880610Y-82304364D01*
X103846152Y-82477597D01*
X103778560Y-82640779D01*
X103680431Y-82787639D01*
X103555537Y-82912533D01*
X103408677Y-83010662D01*
X103245495Y-83078254D01*
X103072262Y-83112712D01*
X102895636Y-83112712D01*
X102722403Y-83078254D01*
X102559221Y-83010662D01*
X102412361Y-82912533D01*
X102287467Y-82787639D01*
X102189338Y-82640779D01*
X102121746Y-82477597D01*
X102087288Y-82304364D01*
X102087288Y-82127738D01*
X102121746Y-81954505D01*
X102189338Y-81791323D01*
X102287467Y-81644463D01*
X102412361Y-81519569D01*
X102559221Y-81421440D01*
X102722403Y-81353848D01*
X102895636Y-81319390D01*
X103072262Y-81319390D01*
X103245495Y-81353848D01*
G37*
G36*
X131269517Y-80702882D02*
G01*
X131286062Y-80713938D01*
X131297118Y-80730483D01*
X131301000Y-80750000D01*
X131301000Y-82450000D01*
X131297118Y-82469517D01*
X131286062Y-82486062D01*
X131269517Y-82497118D01*
X131250000Y-82501000D01*
X129550000Y-82501000D01*
X129530483Y-82497118D01*
X129513938Y-82486062D01*
X129502882Y-82469517D01*
X129499000Y-82450000D01*
X129499000Y-80750000D01*
X129502882Y-80730483D01*
X129513938Y-80713938D01*
X129530483Y-80702882D01*
X129550000Y-80699000D01*
X131250000Y-80699000D01*
X131269517Y-80702882D01*
G37*
G36*
X104799517Y-79170800D02*
G01*
X104816062Y-79181856D01*
X106018144Y-80383938D01*
X106029200Y-80400483D01*
X106033081Y-80420000D01*
X106029200Y-80439517D01*
X106018144Y-80456062D01*
X104816062Y-81658144D01*
X104799517Y-81669200D01*
X104780000Y-81673081D01*
X104760483Y-81669200D01*
X104743938Y-81658144D01*
X103541856Y-80456062D01*
X103530800Y-80439517D01*
X103526919Y-80420000D01*
X103530800Y-80400483D01*
X103541856Y-80383938D01*
X104142897Y-79782897D01*
X104735233Y-79190560D01*
X104735236Y-79190557D01*
X104743938Y-79181856D01*
X104760483Y-79170800D01*
X104780000Y-79166919D01*
X104799517Y-79170800D01*
G37*
G36*
X166637517Y-76318882D02*
G01*
X166654062Y-76329938D01*
X166665118Y-76346483D01*
X166669000Y-76366000D01*
X166669000Y-78066000D01*
X166665118Y-78085517D01*
X166654062Y-78102062D01*
X166637517Y-78113118D01*
X166618000Y-78117000D01*
X164918000Y-78117000D01*
X164898483Y-78113118D01*
X164881938Y-78102062D01*
X164870882Y-78085517D01*
X164867000Y-78066000D01*
X164867000Y-76366000D01*
X164870882Y-76346483D01*
X164881938Y-76329938D01*
X164898483Y-76318882D01*
X164918000Y-76315000D01*
X166618000Y-76315000D01*
X166637517Y-76318882D01*
G37*
G36*
X158409546Y-76353797D02*
G01*
X158572728Y-76421389D01*
X158719588Y-76519518D01*
X158844482Y-76644412D01*
X158942611Y-76791272D01*
X159010203Y-76954454D01*
X159044661Y-77127687D01*
X159044661Y-77304313D01*
X159010203Y-77477546D01*
X158942611Y-77640728D01*
X158844482Y-77787588D01*
X158719588Y-77912482D01*
X158572728Y-78010611D01*
X158409546Y-78078203D01*
X158236313Y-78112661D01*
X158059687Y-78112661D01*
X157886454Y-78078203D01*
X157723272Y-78010611D01*
X157576412Y-77912482D01*
X157451518Y-77787588D01*
X157353389Y-77640728D01*
X157285797Y-77477546D01*
X157251339Y-77304313D01*
X157251339Y-77127687D01*
X157285797Y-76954454D01*
X157353389Y-76791272D01*
X157451518Y-76644412D01*
X157576412Y-76519518D01*
X157723272Y-76421389D01*
X157886454Y-76353797D01*
X158059687Y-76319339D01*
X158236313Y-76319339D01*
X158409546Y-76353797D01*
G37*
G36*
X160949546Y-76353797D02*
G01*
X161112728Y-76421389D01*
X161259588Y-76519518D01*
X161384482Y-76644412D01*
X161482611Y-76791272D01*
X161550203Y-76954454D01*
X161584661Y-77127687D01*
X161584661Y-77304313D01*
X161550203Y-77477546D01*
X161482611Y-77640728D01*
X161384482Y-77787588D01*
X161259588Y-77912482D01*
X161112728Y-78010611D01*
X160949546Y-78078203D01*
X160776313Y-78112661D01*
X160599687Y-78112661D01*
X160426454Y-78078203D01*
X160263272Y-78010611D01*
X160116412Y-77912482D01*
X159991518Y-77787588D01*
X159893389Y-77640728D01*
X159825797Y-77477546D01*
X159791339Y-77304313D01*
X159791339Y-77127687D01*
X159825797Y-76954454D01*
X159893389Y-76791272D01*
X159991518Y-76644412D01*
X160116412Y-76519518D01*
X160263272Y-76421389D01*
X160426454Y-76353797D01*
X160599687Y-76319339D01*
X160776313Y-76319339D01*
X160949546Y-76353797D01*
G37*
G36*
X163489546Y-76353797D02*
G01*
X163652728Y-76421389D01*
X163799588Y-76519518D01*
X163924482Y-76644412D01*
X164022611Y-76791272D01*
X164090203Y-76954454D01*
X164124661Y-77127687D01*
X164124661Y-77304313D01*
X164090203Y-77477546D01*
X164022611Y-77640728D01*
X163924482Y-77787588D01*
X163799588Y-77912482D01*
X163652728Y-78010611D01*
X163489546Y-78078203D01*
X163316313Y-78112661D01*
X163139687Y-78112661D01*
X162966454Y-78078203D01*
X162803272Y-78010611D01*
X162656412Y-77912482D01*
X162531518Y-77787588D01*
X162433389Y-77640728D01*
X162365797Y-77477546D01*
X162331339Y-77304313D01*
X162331339Y-77127687D01*
X162365797Y-76954454D01*
X162433389Y-76791272D01*
X162531518Y-76644412D01*
X162656412Y-76519518D01*
X162803272Y-76421389D01*
X162966454Y-76353797D01*
X163139687Y-76319339D01*
X163316313Y-76319339D01*
X163489546Y-76353797D01*
G37*
G36*
X161737517Y-71588882D02*
G01*
X161754062Y-71599938D01*
X161765118Y-71616483D01*
X161769000Y-71636000D01*
X161769000Y-74436000D01*
X161765118Y-74455517D01*
X161754062Y-74472062D01*
X161737517Y-74483118D01*
X161718000Y-74487000D01*
X160718000Y-74487000D01*
X160698483Y-74483118D01*
X160681938Y-74472062D01*
X160670882Y-74455517D01*
X160667000Y-74436000D01*
X160667000Y-71636000D01*
X160670882Y-71616483D01*
X160681938Y-71599938D01*
X160698483Y-71588882D01*
X160718000Y-71585000D01*
X161718000Y-71585000D01*
X161737517Y-71588882D01*
G37*
G36*
X165737517Y-71588882D02*
G01*
X165754062Y-71599938D01*
X165765118Y-71616483D01*
X165769000Y-71636000D01*
X165769000Y-74436000D01*
X165765118Y-74455517D01*
X165754062Y-74472062D01*
X165737517Y-74483118D01*
X165718000Y-74487000D01*
X164718000Y-74487000D01*
X164698483Y-74483118D01*
X164681938Y-74472062D01*
X164670882Y-74455517D01*
X164667000Y-74436000D01*
X164667000Y-71636000D01*
X164670882Y-71616483D01*
X164681938Y-71599938D01*
X164698483Y-71588882D01*
X164718000Y-71585000D01*
X165718000Y-71585000D01*
X165737517Y-71588882D01*
G37*
G36*
X102950386Y-65389599D02*
G01*
X103311419Y-65461413D01*
X103663674Y-65568268D01*
X104003759Y-65709136D01*
X104328399Y-65882660D01*
X104634468Y-66087169D01*
X104919018Y-66320692D01*
X105179308Y-66580982D01*
X105412831Y-66865532D01*
X105617340Y-67171601D01*
X105790864Y-67496241D01*
X105931732Y-67836326D01*
X106038587Y-68188581D01*
X106110401Y-68549614D01*
X106146482Y-68915947D01*
X106146482Y-69284053D01*
X106110401Y-69650386D01*
X106038587Y-70011419D01*
X105931732Y-70363674D01*
X105790864Y-70703759D01*
X105617340Y-71028399D01*
X105412831Y-71334468D01*
X105179308Y-71619018D01*
X104919018Y-71879308D01*
X104634468Y-72112831D01*
X104328399Y-72317340D01*
X104003759Y-72490864D01*
X103663674Y-72631732D01*
X103311419Y-72738587D01*
X102950386Y-72810401D01*
X102584053Y-72846482D01*
X102215947Y-72846482D01*
X101849614Y-72810401D01*
X101488581Y-72738587D01*
X101136326Y-72631732D01*
X100796241Y-72490864D01*
X100471601Y-72317340D01*
X100165532Y-72112831D01*
X99880982Y-71879308D01*
X99620692Y-71619018D01*
X99387169Y-71334468D01*
X99182660Y-71028399D01*
X99009136Y-70703759D01*
X98868268Y-70363674D01*
X98761413Y-70011419D01*
X98689599Y-69650386D01*
X98653518Y-69284053D01*
X98653518Y-68915947D01*
X98689599Y-68549614D01*
X98761413Y-68188581D01*
X98868268Y-67836326D01*
X99009136Y-67496241D01*
X99182660Y-67171601D01*
X99387169Y-66865532D01*
X99620692Y-66580982D01*
X99880982Y-66320692D01*
X100165532Y-66087169D01*
X100471601Y-65882660D01*
X100796241Y-65709136D01*
X101136326Y-65568268D01*
X101488581Y-65461413D01*
X101849614Y-65389599D01*
X102215947Y-65353518D01*
X102584053Y-65353518D01*
X102950386Y-65389599D01*
G37*
G36*
X120510482Y-68839781D02*
G01*
X120521690Y-68839781D01*
X120576888Y-68848523D01*
X120702534Y-68865065D01*
X120733189Y-68873279D01*
X120762074Y-68877854D01*
X120817620Y-68895902D01*
X120898467Y-68917565D01*
X120950050Y-68938931D01*
X120993542Y-68953063D01*
X121034286Y-68973823D01*
X121085870Y-68995190D01*
X121158353Y-69037038D01*
X121210395Y-69063555D01*
X121234055Y-69080745D01*
X121261539Y-69096613D01*
X121362074Y-69173756D01*
X121407294Y-69206610D01*
X121415219Y-69214535D01*
X121422466Y-69220096D01*
X121565903Y-69363533D01*
X121571463Y-69370779D01*
X121579390Y-69378706D01*
X121612247Y-69423930D01*
X121689386Y-69524460D01*
X121705252Y-69551941D01*
X121722445Y-69575605D01*
X121748964Y-69627652D01*
X121790809Y-69700129D01*
X121812173Y-69751706D01*
X121832937Y-69792458D01*
X121847070Y-69835955D01*
X121868434Y-69887532D01*
X121890093Y-69968366D01*
X121908146Y-70023926D01*
X121912721Y-70052816D01*
X121920934Y-70083465D01*
X121937474Y-70209099D01*
X121946219Y-70264310D01*
X121946219Y-70275518D01*
X121947412Y-70284580D01*
X121947412Y-70487419D01*
X121946219Y-70496480D01*
X121946219Y-70507690D01*
X121937473Y-70562905D01*
X121920934Y-70688534D01*
X121912722Y-70719180D01*
X121908146Y-70748074D01*
X121890091Y-70803638D01*
X121868434Y-70884467D01*
X121847071Y-70936039D01*
X121832937Y-70979542D01*
X121812171Y-71020297D01*
X121790809Y-71071870D01*
X121748968Y-71144338D01*
X121722445Y-71196395D01*
X121705249Y-71220062D01*
X121689386Y-71247539D01*
X121612261Y-71348050D01*
X121579390Y-71393294D01*
X121571459Y-71401224D01*
X121565903Y-71408466D01*
X121422466Y-71551903D01*
X121415224Y-71557459D01*
X121407294Y-71565390D01*
X121362050Y-71598261D01*
X121261539Y-71675386D01*
X121234062Y-71691249D01*
X121210395Y-71708445D01*
X121158338Y-71734968D01*
X121085870Y-71776809D01*
X121034297Y-71798171D01*
X120993542Y-71818937D01*
X120950039Y-71833071D01*
X120898467Y-71854434D01*
X120817638Y-71876091D01*
X120762074Y-71894146D01*
X120733180Y-71898722D01*
X120702534Y-71906934D01*
X120576902Y-71923474D01*
X120521690Y-71932219D01*
X120510481Y-71932219D01*
X120501420Y-71933412D01*
X120298580Y-71933412D01*
X120289519Y-71932219D01*
X120278310Y-71932219D01*
X120223099Y-71923474D01*
X120097465Y-71906934D01*
X120066816Y-71898721D01*
X120037926Y-71894146D01*
X119982366Y-71876093D01*
X119901532Y-71854434D01*
X119849955Y-71833070D01*
X119806458Y-71818937D01*
X119765706Y-71798173D01*
X119714129Y-71776809D01*
X119641652Y-71734964D01*
X119589605Y-71708445D01*
X119565941Y-71691252D01*
X119538460Y-71675386D01*
X119437930Y-71598247D01*
X119392706Y-71565390D01*
X119384779Y-71557463D01*
X119377533Y-71551903D01*
X119234096Y-71408466D01*
X119228535Y-71401219D01*
X119220610Y-71393294D01*
X119187756Y-71348074D01*
X119110613Y-71247539D01*
X119094745Y-71220055D01*
X119077555Y-71196395D01*
X119051038Y-71144353D01*
X119009190Y-71071870D01*
X118987823Y-71020286D01*
X118967063Y-70979542D01*
X118952931Y-70936050D01*
X118931565Y-70884467D01*
X118909902Y-70803620D01*
X118891854Y-70748074D01*
X118887279Y-70719189D01*
X118879065Y-70688534D01*
X118862524Y-70562891D01*
X118853781Y-70507690D01*
X118853781Y-70496480D01*
X118852588Y-70487419D01*
X118852588Y-70284580D01*
X118853781Y-70275518D01*
X118853781Y-70264310D01*
X118862523Y-70209113D01*
X118879065Y-70083465D01*
X118887279Y-70052807D01*
X118891854Y-70023926D01*
X118909900Y-69968383D01*
X118931565Y-69887532D01*
X118952933Y-69835944D01*
X118967063Y-69792458D01*
X118987821Y-69751717D01*
X119009190Y-69700129D01*
X119051042Y-69627637D01*
X119077555Y-69575605D01*
X119094742Y-69551948D01*
X119110613Y-69524460D01*
X119187770Y-69423906D01*
X119220610Y-69378706D01*
X119228532Y-69370783D01*
X119234096Y-69363533D01*
X119377533Y-69220096D01*
X119384783Y-69214532D01*
X119392706Y-69206610D01*
X119437906Y-69173770D01*
X119538460Y-69096613D01*
X119565948Y-69080742D01*
X119589605Y-69063555D01*
X119641637Y-69037042D01*
X119714129Y-68995190D01*
X119765717Y-68973821D01*
X119806458Y-68953063D01*
X119849944Y-68938933D01*
X119901532Y-68917565D01*
X119982383Y-68895900D01*
X120037926Y-68877854D01*
X120066807Y-68873279D01*
X120097465Y-68865065D01*
X120223113Y-68848523D01*
X120278310Y-68839781D01*
X120289518Y-68839781D01*
X120298580Y-68838588D01*
X120501420Y-68838588D01*
X120510482Y-68839781D01*
G37*
G36*
X139110482Y-68839781D02*
G01*
X139121690Y-68839781D01*
X139176888Y-68848523D01*
X139302534Y-68865065D01*
X139333189Y-68873279D01*
X139362074Y-68877854D01*
X139417620Y-68895902D01*
X139498467Y-68917565D01*
X139550050Y-68938931D01*
X139593542Y-68953063D01*
X139634286Y-68973823D01*
X139685870Y-68995190D01*
X139758353Y-69037038D01*
X139810395Y-69063555D01*
X139834055Y-69080745D01*
X139861539Y-69096613D01*
X139962074Y-69173756D01*
X140007294Y-69206610D01*
X140015219Y-69214535D01*
X140022466Y-69220096D01*
X140165903Y-69363533D01*
X140171463Y-69370779D01*
X140179390Y-69378706D01*
X140212247Y-69423930D01*
X140289386Y-69524460D01*
X140305252Y-69551941D01*
X140322445Y-69575605D01*
X140348964Y-69627652D01*
X140390809Y-69700129D01*
X140412173Y-69751706D01*
X140432937Y-69792458D01*
X140447070Y-69835955D01*
X140468434Y-69887532D01*
X140490093Y-69968366D01*
X140508146Y-70023926D01*
X140512721Y-70052816D01*
X140520934Y-70083465D01*
X140537474Y-70209099D01*
X140546219Y-70264310D01*
X140546219Y-70275518D01*
X140547412Y-70284580D01*
X140547412Y-70487419D01*
X140546219Y-70496480D01*
X140546219Y-70507690D01*
X140537473Y-70562905D01*
X140520934Y-70688534D01*
X140512722Y-70719180D01*
X140508146Y-70748074D01*
X140490091Y-70803638D01*
X140468434Y-70884467D01*
X140447071Y-70936039D01*
X140432937Y-70979542D01*
X140412171Y-71020297D01*
X140390809Y-71071870D01*
X140348968Y-71144338D01*
X140322445Y-71196395D01*
X140305249Y-71220062D01*
X140289386Y-71247539D01*
X140212261Y-71348050D01*
X140179390Y-71393294D01*
X140171459Y-71401224D01*
X140165903Y-71408466D01*
X140022466Y-71551903D01*
X140015224Y-71557459D01*
X140007294Y-71565390D01*
X139962050Y-71598261D01*
X139861539Y-71675386D01*
X139834062Y-71691249D01*
X139810395Y-71708445D01*
X139758338Y-71734968D01*
X139685870Y-71776809D01*
X139634297Y-71798171D01*
X139593542Y-71818937D01*
X139550039Y-71833071D01*
X139498467Y-71854434D01*
X139417638Y-71876091D01*
X139362074Y-71894146D01*
X139333180Y-71898722D01*
X139302534Y-71906934D01*
X139176902Y-71923474D01*
X139121690Y-71932219D01*
X139110481Y-71932219D01*
X139101420Y-71933412D01*
X138898580Y-71933412D01*
X138889519Y-71932219D01*
X138878310Y-71932219D01*
X138823099Y-71923474D01*
X138697465Y-71906934D01*
X138666816Y-71898721D01*
X138637926Y-71894146D01*
X138582366Y-71876093D01*
X138501532Y-71854434D01*
X138449955Y-71833070D01*
X138406458Y-71818937D01*
X138365706Y-71798173D01*
X138314129Y-71776809D01*
X138241652Y-71734964D01*
X138189605Y-71708445D01*
X138165941Y-71691252D01*
X138138460Y-71675386D01*
X138037930Y-71598247D01*
X137992706Y-71565390D01*
X137984779Y-71557463D01*
X137977533Y-71551903D01*
X137834096Y-71408466D01*
X137828535Y-71401219D01*
X137820610Y-71393294D01*
X137787756Y-71348074D01*
X137710613Y-71247539D01*
X137694745Y-71220055D01*
X137677555Y-71196395D01*
X137651038Y-71144353D01*
X137609190Y-71071870D01*
X137587823Y-71020286D01*
X137567063Y-70979542D01*
X137552931Y-70936050D01*
X137531565Y-70884467D01*
X137509902Y-70803620D01*
X137491854Y-70748074D01*
X137487279Y-70719189D01*
X137479065Y-70688534D01*
X137462524Y-70562891D01*
X137453781Y-70507690D01*
X137453781Y-70496480D01*
X137452588Y-70487419D01*
X137452588Y-70284580D01*
X137453781Y-70275518D01*
X137453781Y-70264310D01*
X137462523Y-70209113D01*
X137479065Y-70083465D01*
X137487279Y-70052807D01*
X137491854Y-70023926D01*
X137509900Y-69968383D01*
X137531565Y-69887532D01*
X137552933Y-69835944D01*
X137567063Y-69792458D01*
X137587821Y-69751717D01*
X137609190Y-69700129D01*
X137651042Y-69627637D01*
X137677555Y-69575605D01*
X137694742Y-69551948D01*
X137710613Y-69524460D01*
X137787770Y-69423906D01*
X137820610Y-69378706D01*
X137828532Y-69370783D01*
X137834096Y-69363533D01*
X137977533Y-69220096D01*
X137984783Y-69214532D01*
X137992706Y-69206610D01*
X138037906Y-69173770D01*
X138138460Y-69096613D01*
X138165948Y-69080742D01*
X138189605Y-69063555D01*
X138241637Y-69037042D01*
X138314129Y-68995190D01*
X138365717Y-68973821D01*
X138406458Y-68953063D01*
X138449944Y-68938933D01*
X138501532Y-68917565D01*
X138582383Y-68895900D01*
X138637926Y-68877854D01*
X138666807Y-68873279D01*
X138697465Y-68865065D01*
X138823113Y-68848523D01*
X138878310Y-68839781D01*
X138889518Y-68839781D01*
X138898580Y-68838588D01*
X139101420Y-68838588D01*
X139110482Y-68839781D01*
G37*
G36*
X115510482Y-66639781D02*
G01*
X115521690Y-66639781D01*
X115576888Y-66648523D01*
X115702534Y-66665065D01*
X115733189Y-66673279D01*
X115762074Y-66677854D01*
X115817620Y-66695902D01*
X115898467Y-66717565D01*
X115950050Y-66738931D01*
X115993542Y-66753063D01*
X116034286Y-66773823D01*
X116085870Y-66795190D01*
X116158353Y-66837038D01*
X116210395Y-66863555D01*
X116234055Y-66880745D01*
X116261539Y-66896613D01*
X116362074Y-66973756D01*
X116407294Y-67006610D01*
X116415219Y-67014535D01*
X116422466Y-67020096D01*
X116565903Y-67163533D01*
X116571463Y-67170779D01*
X116579390Y-67178706D01*
X116612247Y-67223930D01*
X116689386Y-67324460D01*
X116705252Y-67351941D01*
X116722445Y-67375605D01*
X116748964Y-67427652D01*
X116790809Y-67500129D01*
X116812173Y-67551706D01*
X116832937Y-67592458D01*
X116847070Y-67635955D01*
X116868434Y-67687532D01*
X116890093Y-67768366D01*
X116908146Y-67823926D01*
X116912721Y-67852816D01*
X116920934Y-67883465D01*
X116937474Y-68009099D01*
X116946219Y-68064310D01*
X116946219Y-68075518D01*
X116947412Y-68084580D01*
X116947412Y-68287419D01*
X116946219Y-68296480D01*
X116946219Y-68307690D01*
X116937473Y-68362905D01*
X116920934Y-68488534D01*
X116912722Y-68519180D01*
X116908146Y-68548074D01*
X116890091Y-68603638D01*
X116868434Y-68684467D01*
X116847071Y-68736039D01*
X116832937Y-68779542D01*
X116812171Y-68820297D01*
X116790809Y-68871870D01*
X116748968Y-68944338D01*
X116722445Y-68996395D01*
X116705249Y-69020062D01*
X116689386Y-69047539D01*
X116612261Y-69148050D01*
X116579390Y-69193294D01*
X116571459Y-69201224D01*
X116565903Y-69208466D01*
X116422466Y-69351903D01*
X116415224Y-69357459D01*
X116407294Y-69365390D01*
X116362050Y-69398261D01*
X116261539Y-69475386D01*
X116234062Y-69491249D01*
X116210395Y-69508445D01*
X116158338Y-69534968D01*
X116085870Y-69576809D01*
X116034297Y-69598171D01*
X115993542Y-69618937D01*
X115950039Y-69633071D01*
X115898467Y-69654434D01*
X115817638Y-69676091D01*
X115762074Y-69694146D01*
X115733180Y-69698722D01*
X115702534Y-69706934D01*
X115576902Y-69723474D01*
X115521690Y-69732219D01*
X115510481Y-69732219D01*
X115501420Y-69733412D01*
X115298580Y-69733412D01*
X115289519Y-69732219D01*
X115278310Y-69732219D01*
X115223099Y-69723474D01*
X115097465Y-69706934D01*
X115066816Y-69698721D01*
X115037926Y-69694146D01*
X114982366Y-69676093D01*
X114901532Y-69654434D01*
X114849955Y-69633070D01*
X114806458Y-69618937D01*
X114765706Y-69598173D01*
X114714129Y-69576809D01*
X114641652Y-69534964D01*
X114589605Y-69508445D01*
X114565941Y-69491252D01*
X114538460Y-69475386D01*
X114437930Y-69398247D01*
X114392706Y-69365390D01*
X114384779Y-69357463D01*
X114377533Y-69351903D01*
X114234096Y-69208466D01*
X114228535Y-69201219D01*
X114220610Y-69193294D01*
X114187756Y-69148074D01*
X114110613Y-69047539D01*
X114094745Y-69020055D01*
X114077555Y-68996395D01*
X114051038Y-68944353D01*
X114009190Y-68871870D01*
X113987823Y-68820286D01*
X113967063Y-68779542D01*
X113952931Y-68736050D01*
X113931565Y-68684467D01*
X113909902Y-68603620D01*
X113891854Y-68548074D01*
X113887279Y-68519189D01*
X113879065Y-68488534D01*
X113862524Y-68362891D01*
X113853781Y-68307690D01*
X113853781Y-68296480D01*
X113852588Y-68287419D01*
X113852588Y-68084580D01*
X113853781Y-68075518D01*
X113853781Y-68064310D01*
X113862523Y-68009113D01*
X113879065Y-67883465D01*
X113887279Y-67852807D01*
X113891854Y-67823926D01*
X113909900Y-67768383D01*
X113931565Y-67687532D01*
X113952933Y-67635944D01*
X113967063Y-67592458D01*
X113987821Y-67551717D01*
X114009190Y-67500129D01*
X114051042Y-67427637D01*
X114077555Y-67375605D01*
X114094742Y-67351948D01*
X114110613Y-67324460D01*
X114187770Y-67223906D01*
X114220610Y-67178706D01*
X114228532Y-67170783D01*
X114234096Y-67163533D01*
X114377533Y-67020096D01*
X114384783Y-67014532D01*
X114392706Y-67006610D01*
X114437906Y-66973770D01*
X114538460Y-66896613D01*
X114565948Y-66880742D01*
X114589605Y-66863555D01*
X114641637Y-66837042D01*
X114714129Y-66795190D01*
X114765717Y-66773821D01*
X114806458Y-66753063D01*
X114849944Y-66738933D01*
X114901532Y-66717565D01*
X114982383Y-66695900D01*
X115037926Y-66677854D01*
X115066807Y-66673279D01*
X115097465Y-66665065D01*
X115223113Y-66648523D01*
X115278310Y-66639781D01*
X115289518Y-66639781D01*
X115298580Y-66638588D01*
X115501420Y-66638588D01*
X115510482Y-66639781D01*
G37*
G36*
X134110482Y-66639781D02*
G01*
X134121690Y-66639781D01*
X134176888Y-66648523D01*
X134302534Y-66665065D01*
X134333189Y-66673279D01*
X134362074Y-66677854D01*
X134417620Y-66695902D01*
X134498467Y-66717565D01*
X134550050Y-66738931D01*
X134593542Y-66753063D01*
X134634286Y-66773823D01*
X134685870Y-66795190D01*
X134758353Y-66837038D01*
X134810395Y-66863555D01*
X134834055Y-66880745D01*
X134861539Y-66896613D01*
X134962074Y-66973756D01*
X135007294Y-67006610D01*
X135015219Y-67014535D01*
X135022466Y-67020096D01*
X135165903Y-67163533D01*
X135171463Y-67170779D01*
X135179390Y-67178706D01*
X135212247Y-67223930D01*
X135289386Y-67324460D01*
X135305252Y-67351941D01*
X135322445Y-67375605D01*
X135348964Y-67427652D01*
X135390809Y-67500129D01*
X135412173Y-67551706D01*
X135432937Y-67592458D01*
X135447070Y-67635955D01*
X135468434Y-67687532D01*
X135490093Y-67768366D01*
X135508146Y-67823926D01*
X135512721Y-67852816D01*
X135520934Y-67883465D01*
X135537474Y-68009099D01*
X135546219Y-68064310D01*
X135546219Y-68075518D01*
X135547412Y-68084580D01*
X135547412Y-68287419D01*
X135546219Y-68296480D01*
X135546219Y-68307690D01*
X135537473Y-68362905D01*
X135520934Y-68488534D01*
X135512722Y-68519180D01*
X135508146Y-68548074D01*
X135490091Y-68603638D01*
X135468434Y-68684467D01*
X135447071Y-68736039D01*
X135432937Y-68779542D01*
X135412171Y-68820297D01*
X135390809Y-68871870D01*
X135348968Y-68944338D01*
X135322445Y-68996395D01*
X135305249Y-69020062D01*
X135289386Y-69047539D01*
X135212261Y-69148050D01*
X135179390Y-69193294D01*
X135171459Y-69201224D01*
X135165903Y-69208466D01*
X135022466Y-69351903D01*
X135015224Y-69357459D01*
X135007294Y-69365390D01*
X134962050Y-69398261D01*
X134861539Y-69475386D01*
X134834062Y-69491249D01*
X134810395Y-69508445D01*
X134758338Y-69534968D01*
X134685870Y-69576809D01*
X134634297Y-69598171D01*
X134593542Y-69618937D01*
X134550039Y-69633071D01*
X134498467Y-69654434D01*
X134417638Y-69676091D01*
X134362074Y-69694146D01*
X134333180Y-69698722D01*
X134302534Y-69706934D01*
X134176902Y-69723474D01*
X134121690Y-69732219D01*
X134110481Y-69732219D01*
X134101420Y-69733412D01*
X133898580Y-69733412D01*
X133889519Y-69732219D01*
X133878310Y-69732219D01*
X133823099Y-69723474D01*
X133697465Y-69706934D01*
X133666816Y-69698721D01*
X133637926Y-69694146D01*
X133582366Y-69676093D01*
X133501532Y-69654434D01*
X133449955Y-69633070D01*
X133406458Y-69618937D01*
X133365706Y-69598173D01*
X133314129Y-69576809D01*
X133241652Y-69534964D01*
X133189605Y-69508445D01*
X133165941Y-69491252D01*
X133138460Y-69475386D01*
X133037930Y-69398247D01*
X132992706Y-69365390D01*
X132984779Y-69357463D01*
X132977533Y-69351903D01*
X132834096Y-69208466D01*
X132828535Y-69201219D01*
X132820610Y-69193294D01*
X132787756Y-69148074D01*
X132710613Y-69047539D01*
X132694745Y-69020055D01*
X132677555Y-68996395D01*
X132651038Y-68944353D01*
X132609190Y-68871870D01*
X132587823Y-68820286D01*
X132567063Y-68779542D01*
X132552931Y-68736050D01*
X132531565Y-68684467D01*
X132509902Y-68603620D01*
X132491854Y-68548074D01*
X132487279Y-68519189D01*
X132479065Y-68488534D01*
X132462524Y-68362891D01*
X132453781Y-68307690D01*
X132453781Y-68296480D01*
X132452588Y-68287419D01*
X132452588Y-68084580D01*
X132453781Y-68075518D01*
X132453781Y-68064310D01*
X132462523Y-68009113D01*
X132479065Y-67883465D01*
X132487279Y-67852807D01*
X132491854Y-67823926D01*
X132509900Y-67768383D01*
X132531565Y-67687532D01*
X132552933Y-67635944D01*
X132567063Y-67592458D01*
X132587821Y-67551717D01*
X132609190Y-67500129D01*
X132651042Y-67427637D01*
X132677555Y-67375605D01*
X132694742Y-67351948D01*
X132710613Y-67324460D01*
X132787770Y-67223906D01*
X132820610Y-67178706D01*
X132828532Y-67170783D01*
X132834096Y-67163533D01*
X132977533Y-67020096D01*
X132984783Y-67014532D01*
X132992706Y-67006610D01*
X133037906Y-66973770D01*
X133138460Y-66896613D01*
X133165948Y-66880742D01*
X133189605Y-66863555D01*
X133241637Y-66837042D01*
X133314129Y-66795190D01*
X133365717Y-66773821D01*
X133406458Y-66753063D01*
X133449944Y-66738933D01*
X133501532Y-66717565D01*
X133582383Y-66695900D01*
X133637926Y-66677854D01*
X133666807Y-66673279D01*
X133697465Y-66665065D01*
X133823113Y-66648523D01*
X133878310Y-66639781D01*
X133889518Y-66639781D01*
X133898580Y-66638588D01*
X134101420Y-66638588D01*
X134110482Y-66639781D01*
G37*
G36*
X161737517Y-65788882D02*
G01*
X161754062Y-65799938D01*
X161765118Y-65816483D01*
X161769000Y-65836000D01*
X161769000Y-68636000D01*
X161765118Y-68655517D01*
X161754062Y-68672062D01*
X161737517Y-68683118D01*
X161718000Y-68687000D01*
X160718000Y-68687000D01*
X160698483Y-68683118D01*
X160681938Y-68672062D01*
X160670882Y-68655517D01*
X160667000Y-68636000D01*
X160667000Y-65836000D01*
X160670882Y-65816483D01*
X160681938Y-65799938D01*
X160698483Y-65788882D01*
X160718000Y-65785000D01*
X161718000Y-65785000D01*
X161737517Y-65788882D01*
G37*
G36*
X165737517Y-65788882D02*
G01*
X165754062Y-65799938D01*
X165765118Y-65816483D01*
X165769000Y-65836000D01*
X165769000Y-68636000D01*
X165765118Y-68655517D01*
X165754062Y-68672062D01*
X165737517Y-68683118D01*
X165718000Y-68687000D01*
X164718000Y-68687000D01*
X164698483Y-68683118D01*
X164681938Y-68672062D01*
X164670882Y-68655517D01*
X164667000Y-68636000D01*
X164667000Y-65836000D01*
X164670882Y-65816483D01*
X164681938Y-65799938D01*
X164698483Y-65788882D01*
X164718000Y-65785000D01*
X165718000Y-65785000D01*
X165737517Y-65788882D01*
G37*
G36*
X120744432Y-62704424D02*
G01*
X120967501Y-62764195D01*
X121180861Y-62852571D01*
X121380859Y-62968040D01*
X121564075Y-63108627D01*
X121727373Y-63271925D01*
X121867960Y-63455141D01*
X121983429Y-63655139D01*
X122071805Y-63868499D01*
X122131576Y-64091568D01*
X122161720Y-64320531D01*
X122161720Y-64551469D01*
X122131576Y-64780432D01*
X122071805Y-65003501D01*
X121983429Y-65216861D01*
X121867960Y-65416859D01*
X121727373Y-65600075D01*
X121564075Y-65763373D01*
X121380859Y-65903960D01*
X121180861Y-66019429D01*
X120967501Y-66107805D01*
X120744432Y-66167576D01*
X120515469Y-66197720D01*
X120284531Y-66197720D01*
X120055568Y-66167576D01*
X119832499Y-66107805D01*
X119619139Y-66019429D01*
X119419141Y-65903960D01*
X119235925Y-65763373D01*
X119072627Y-65600075D01*
X118932040Y-65416859D01*
X118816571Y-65216861D01*
X118728195Y-65003501D01*
X118668424Y-64780432D01*
X118638280Y-64551469D01*
X118638280Y-64320531D01*
X118668424Y-64091568D01*
X118728195Y-63868499D01*
X118816571Y-63655139D01*
X118932040Y-63455141D01*
X119072627Y-63271925D01*
X119235925Y-63108627D01*
X119419141Y-62968040D01*
X119619139Y-62852571D01*
X119832499Y-62764195D01*
X120055568Y-62704424D01*
X120284531Y-62674280D01*
X120515469Y-62674280D01*
X120744432Y-62704424D01*
G37*
G36*
X139344432Y-62704424D02*
G01*
X139567501Y-62764195D01*
X139780861Y-62852571D01*
X139980859Y-62968040D01*
X140164075Y-63108627D01*
X140327373Y-63271925D01*
X140467960Y-63455141D01*
X140583429Y-63655139D01*
X140671805Y-63868499D01*
X140731576Y-64091568D01*
X140761720Y-64320531D01*
X140761720Y-64551469D01*
X140731576Y-64780432D01*
X140671805Y-65003501D01*
X140583429Y-65216861D01*
X140467960Y-65416859D01*
X140327373Y-65600075D01*
X140164075Y-65763373D01*
X139980859Y-65903960D01*
X139780861Y-66019429D01*
X139567501Y-66107805D01*
X139344432Y-66167576D01*
X139115469Y-66197720D01*
X138884531Y-66197720D01*
X138655568Y-66167576D01*
X138432499Y-66107805D01*
X138219139Y-66019429D01*
X138019141Y-65903960D01*
X137835925Y-65763373D01*
X137672627Y-65600075D01*
X137532040Y-65416859D01*
X137416571Y-65216861D01*
X137328195Y-65003501D01*
X137268424Y-64780432D01*
X137238280Y-64551469D01*
X137238280Y-64320531D01*
X137268424Y-64091568D01*
X137328195Y-63868499D01*
X137416571Y-63655139D01*
X137532040Y-63455141D01*
X137672627Y-63271925D01*
X137835925Y-63108627D01*
X138019141Y-62968040D01*
X138219139Y-62852571D01*
X138432499Y-62764195D01*
X138655568Y-62704424D01*
X138884531Y-62674280D01*
X139115469Y-62674280D01*
X139344432Y-62704424D01*
G37*
G36*
X115161808Y-63572936D02*
G01*
X115325153Y-63640595D01*
X115472159Y-63738822D01*
X115597178Y-63863841D01*
X115695405Y-64010847D01*
X115763064Y-64174192D01*
X115797557Y-64347598D01*
X115797557Y-64524402D01*
X115763064Y-64697808D01*
X115695405Y-64861153D01*
X115597178Y-65008159D01*
X115472159Y-65133178D01*
X115325153Y-65231405D01*
X115161808Y-65299064D01*
X114988402Y-65333557D01*
X114811598Y-65333557D01*
X114638192Y-65299064D01*
X114474847Y-65231405D01*
X114327841Y-65133178D01*
X114202822Y-65008159D01*
X114104595Y-64861153D01*
X114036936Y-64697808D01*
X114002443Y-64524402D01*
X114002443Y-64347598D01*
X114036936Y-64174192D01*
X114104595Y-64010847D01*
X114202822Y-63863841D01*
X114327841Y-63738822D01*
X114474847Y-63640595D01*
X114638192Y-63572936D01*
X114811598Y-63538443D01*
X114988402Y-63538443D01*
X115161808Y-63572936D01*
G37*
G36*
X126161808Y-63572936D02*
G01*
X126325153Y-63640595D01*
X126472159Y-63738822D01*
X126597178Y-63863841D01*
X126695405Y-64010847D01*
X126763064Y-64174192D01*
X126797557Y-64347598D01*
X126797557Y-64524402D01*
X126763064Y-64697808D01*
X126695405Y-64861153D01*
X126597178Y-65008159D01*
X126472159Y-65133178D01*
X126325153Y-65231405D01*
X126161808Y-65299064D01*
X125988402Y-65333557D01*
X125811598Y-65333557D01*
X125638192Y-65299064D01*
X125474847Y-65231405D01*
X125327841Y-65133178D01*
X125202822Y-65008159D01*
X125104595Y-64861153D01*
X125036936Y-64697808D01*
X125002443Y-64524402D01*
X125002443Y-64347598D01*
X125036936Y-64174192D01*
X125104595Y-64010847D01*
X125202822Y-63863841D01*
X125327841Y-63738822D01*
X125474847Y-63640595D01*
X125638192Y-63572936D01*
X125811598Y-63538443D01*
X125988402Y-63538443D01*
X126161808Y-63572936D01*
G37*
G36*
X133761808Y-63572936D02*
G01*
X133925153Y-63640595D01*
X134072159Y-63738822D01*
X134197178Y-63863841D01*
X134295405Y-64010847D01*
X134363064Y-64174192D01*
X134397557Y-64347598D01*
X134397557Y-64524402D01*
X134363064Y-64697808D01*
X134295405Y-64861153D01*
X134197178Y-65008159D01*
X134072159Y-65133178D01*
X133925153Y-65231405D01*
X133761808Y-65299064D01*
X133588402Y-65333557D01*
X133411598Y-65333557D01*
X133238192Y-65299064D01*
X133074847Y-65231405D01*
X132927841Y-65133178D01*
X132802822Y-65008159D01*
X132704595Y-64861153D01*
X132636936Y-64697808D01*
X132602443Y-64524402D01*
X132602443Y-64347598D01*
X132636936Y-64174192D01*
X132704595Y-64010847D01*
X132802822Y-63863841D01*
X132927841Y-63738822D01*
X133074847Y-63640595D01*
X133238192Y-63572936D01*
X133411598Y-63538443D01*
X133588402Y-63538443D01*
X133761808Y-63572936D01*
G37*
G36*
X144761808Y-63572936D02*
G01*
X144925153Y-63640595D01*
X145072159Y-63738822D01*
X145197178Y-63863841D01*
X145295405Y-64010847D01*
X145363064Y-64174192D01*
X145397557Y-64347598D01*
X145397557Y-64524402D01*
X145363064Y-64697808D01*
X145295405Y-64861153D01*
X145197178Y-65008159D01*
X145072159Y-65133178D01*
X144925153Y-65231405D01*
X144761808Y-65299064D01*
X144588402Y-65333557D01*
X144411598Y-65333557D01*
X144238192Y-65299064D01*
X144074847Y-65231405D01*
X143927841Y-65133178D01*
X143802822Y-65008159D01*
X143704595Y-64861153D01*
X143636936Y-64697808D01*
X143602443Y-64524402D01*
X143602443Y-64347598D01*
X143636936Y-64174192D01*
X143704595Y-64010847D01*
X143802822Y-63863841D01*
X143927841Y-63738822D01*
X144074847Y-63640595D01*
X144238192Y-63572936D01*
X144411598Y-63538443D01*
X144588402Y-63538443D01*
X144761808Y-63572936D01*
G37*
G36*
X162953186Y-55889599D02*
G01*
X163314219Y-55961413D01*
X163666474Y-56068268D01*
X164006559Y-56209136D01*
X164331199Y-56382660D01*
X164637268Y-56587169D01*
X164921818Y-56820692D01*
X165182108Y-57080982D01*
X165415631Y-57365532D01*
X165620140Y-57671601D01*
X165793664Y-57996241D01*
X165934532Y-58336326D01*
X166041387Y-58688581D01*
X166113201Y-59049614D01*
X166149282Y-59415947D01*
X166149282Y-59784053D01*
X166113201Y-60150386D01*
X166041387Y-60511419D01*
X165934532Y-60863674D01*
X165793664Y-61203759D01*
X165620140Y-61528399D01*
X165415631Y-61834468D01*
X165182108Y-62119018D01*
X164921818Y-62379308D01*
X164637268Y-62612831D01*
X164331199Y-62817340D01*
X164006559Y-62990864D01*
X163666474Y-63131732D01*
X163314219Y-63238587D01*
X162953186Y-63310401D01*
X162586853Y-63346482D01*
X162218747Y-63346482D01*
X161852414Y-63310401D01*
X161491381Y-63238587D01*
X161139126Y-63131732D01*
X160799041Y-62990864D01*
X160474401Y-62817340D01*
X160168332Y-62612831D01*
X159883782Y-62379308D01*
X159623492Y-62119018D01*
X159389969Y-61834468D01*
X159185460Y-61528399D01*
X159011936Y-61203759D01*
X158871068Y-60863674D01*
X158764213Y-60511419D01*
X158692399Y-60150386D01*
X158656318Y-59784053D01*
X158656318Y-59415947D01*
X158692399Y-59049614D01*
X158764213Y-58688581D01*
X158871068Y-58336326D01*
X159011936Y-57996241D01*
X159185460Y-57671601D01*
X159389969Y-57365532D01*
X159623492Y-57080982D01*
X159883782Y-56820692D01*
X160168332Y-56587169D01*
X160474401Y-56382660D01*
X160799041Y-56209136D01*
X161139126Y-56068268D01*
X161491381Y-55961413D01*
X161852414Y-55889599D01*
X162218747Y-55853518D01*
X162586853Y-55853518D01*
X162953186Y-55889599D01*
G37*
G36*
X151019517Y-61688882D02*
G01*
X151036062Y-61699938D01*
X151047118Y-61716483D01*
X151051000Y-61736000D01*
X151051000Y-62736000D01*
X151047118Y-62755517D01*
X151036062Y-62772062D01*
X151019517Y-62783118D01*
X151000000Y-62787000D01*
X148200000Y-62787000D01*
X148180483Y-62783118D01*
X148163938Y-62772062D01*
X148152882Y-62755517D01*
X148149000Y-62736000D01*
X148149000Y-61736000D01*
X148152882Y-61716483D01*
X148163938Y-61699938D01*
X148180483Y-61688882D01*
X148200000Y-61685000D01*
X151000000Y-61685000D01*
X151019517Y-61688882D01*
G37*
G36*
X156819517Y-61688882D02*
G01*
X156836062Y-61699938D01*
X156847118Y-61716483D01*
X156851000Y-61736000D01*
X156851000Y-62736000D01*
X156847118Y-62755517D01*
X156836062Y-62772062D01*
X156819517Y-62783118D01*
X156800000Y-62787000D01*
X154000000Y-62787000D01*
X153980483Y-62783118D01*
X153963938Y-62772062D01*
X153952882Y-62755517D01*
X153949000Y-62736000D01*
X153949000Y-61736000D01*
X153952882Y-61716483D01*
X153963938Y-61699938D01*
X153980483Y-61688882D01*
X154000000Y-61685000D01*
X156800000Y-61685000D01*
X156819517Y-61688882D01*
G37*
G36*
X151019517Y-57688882D02*
G01*
X151036062Y-57699938D01*
X151047118Y-57716483D01*
X151051000Y-57736000D01*
X151051000Y-58736000D01*
X151047118Y-58755517D01*
X151036062Y-58772062D01*
X151019517Y-58783118D01*
X151000000Y-58787000D01*
X148200000Y-58787000D01*
X148180483Y-58783118D01*
X148163938Y-58772062D01*
X148152882Y-58755517D01*
X148149000Y-58736000D01*
X148149000Y-57736000D01*
X148152882Y-57716483D01*
X148163938Y-57699938D01*
X148180483Y-57688882D01*
X148200000Y-57685000D01*
X151000000Y-57685000D01*
X151019517Y-57688882D01*
G37*
G36*
X156819517Y-57688882D02*
G01*
X156836062Y-57699938D01*
X156847118Y-57716483D01*
X156851000Y-57736000D01*
X156851000Y-58736000D01*
X156847118Y-58755517D01*
X156836062Y-58772062D01*
X156819517Y-58783118D01*
X156800000Y-58787000D01*
X154000000Y-58787000D01*
X153980483Y-58783118D01*
X153963938Y-58772062D01*
X153952882Y-58755517D01*
X153949000Y-58736000D01*
X153949000Y-57736000D01*
X153952882Y-57716483D01*
X153963938Y-57699938D01*
X153980483Y-57688882D01*
X154000000Y-57685000D01*
X156800000Y-57685000D01*
X156819517Y-57688882D01*
G37*
M02*
