G04 #@! TF.GenerationSoftware,KiCad,Pcbnew,9.0.2*
G04 #@! TF.CreationDate,2025-09-01T17:42:29-04:00*
G04 #@! TF.ProjectId,Trackball,54726163-6b62-4616-9c6c-2e6b69636164,rev?*
G04 #@! TF.SameCoordinates,Original*
G04 #@! TF.FileFunction,Copper,L1,Top*
G04 #@! TF.FilePolarity,Positive*
%FSLAX46Y46*%
G04 Gerber Fmt 4.6, Leading zero omitted, Abs format (unit mm)*
G04 Created by KiCad (PCBNEW 9.0.2) date 2025-09-01 17:42:29*
%MOMM*%
%LPD*%
G01*
G04 APERTURE LIST*
G04 Aperture macros list*
%AMRotRect*
0 Rectangle, with rotation*
0 The origin of the aperture is its center*
0 $1 length*
0 $2 width*
0 $3 Rotation angle, in degrees counterclockwise*
0 Add horizontal line*
21,1,$1,$2,0,0,$3*%
G04 Aperture macros list end*
G04 #@! TA.AperFunction,ComponentPad*
%ADD10R,1.700000X1.700000*%
G04 #@! TD*
G04 #@! TA.AperFunction,ComponentPad*
%ADD11C,1.700000*%
G04 #@! TD*
G04 #@! TA.AperFunction,SMDPad,CuDef*
%ADD12R,2.800000X1.000000*%
G04 #@! TD*
G04 #@! TA.AperFunction,ComponentPad*
%ADD13R,1.600000X1.600000*%
G04 #@! TD*
G04 #@! TA.AperFunction,ComponentPad*
%ADD14C,1.600000*%
G04 #@! TD*
G04 #@! TA.AperFunction,ComponentPad*
%ADD15C,5.000000*%
G04 #@! TD*
G04 #@! TA.AperFunction,SMDPad,CuDef*
%ADD16R,1.000000X2.800000*%
G04 #@! TD*
G04 #@! TA.AperFunction,ComponentPad*
%ADD17RotRect,1.700000X1.700000X225.000000*%
G04 #@! TD*
G04 #@! TA.AperFunction,ComponentPad*
%ADD18C,1.300000*%
G04 #@! TD*
G04 #@! TA.AperFunction,ComponentPad*
%ADD19C,1.200000*%
G04 #@! TD*
G04 #@! TA.AperFunction,ComponentPad*
%ADD20C,1.500000*%
G04 #@! TD*
G04 #@! TA.AperFunction,ComponentPad*
%ADD21RotRect,1.700000X1.700000X135.000000*%
G04 #@! TD*
G04 #@! TA.AperFunction,ComponentPad*
%ADD22RotRect,1.700000X1.700000X45.000000*%
G04 #@! TD*
G04 #@! TA.AperFunction,ViaPad*
%ADD23C,0.800000*%
G04 #@! TD*
G04 #@! TA.AperFunction,Conductor*
%ADD24C,0.250000*%
G04 #@! TD*
G04 APERTURE END LIST*
D10*
X153105290Y-91489030D03*
D11*
X153105290Y-94029030D03*
X153105290Y-96569030D03*
X153105290Y-99109030D03*
D10*
X104337290Y-91489030D03*
D11*
X104337290Y-94029030D03*
X104337290Y-96569030D03*
X104337290Y-99109030D03*
D10*
X132531290Y-127182030D03*
D11*
X129991290Y-127182030D03*
X127451290Y-127182030D03*
X124911290Y-127182030D03*
D12*
X141421290Y-119631030D03*
X147221290Y-119631030D03*
X141421290Y-123631030D03*
X147221290Y-123631030D03*
D10*
X108721290Y-101681030D03*
D11*
X111261290Y-101681030D03*
X113801290Y-101681030D03*
D13*
X136361290Y-134941030D03*
D14*
X136361290Y-132401030D03*
X136361290Y-129861030D03*
X136361290Y-127321030D03*
X136361290Y-124781030D03*
X136361290Y-122241030D03*
X136361290Y-119701030D03*
X136361290Y-117161030D03*
X136361290Y-114621030D03*
X136361290Y-112081030D03*
X136361290Y-109541030D03*
X136361290Y-107001030D03*
X121121290Y-107001030D03*
X121121290Y-109541030D03*
X121121290Y-112081030D03*
X121121290Y-114621030D03*
X121121290Y-117161030D03*
X121121290Y-119701030D03*
X121121290Y-122241030D03*
X121121290Y-124781030D03*
X121121290Y-127321030D03*
X121121290Y-129861030D03*
X121121290Y-132401030D03*
X121121290Y-134941030D03*
D15*
X144161290Y-85941030D03*
D16*
X109971290Y-107931030D03*
X109971290Y-113731030D03*
X105971290Y-107931030D03*
X105971290Y-113731030D03*
D10*
X148721290Y-101681030D03*
D11*
X146181290Y-101681030D03*
X143641290Y-101681030D03*
D16*
X147771290Y-113331030D03*
X147771290Y-107531030D03*
X151771290Y-113331030D03*
X151771290Y-107531030D03*
D15*
X113301290Y-85921030D03*
D12*
X108371290Y-118381030D03*
X114171290Y-118381030D03*
X108371290Y-122381030D03*
X114171290Y-122381030D03*
D10*
X104337290Y-127049030D03*
D11*
X104337290Y-124509030D03*
X104337290Y-121969030D03*
X104337290Y-119429030D03*
D10*
X153105290Y-127049030D03*
D11*
X153105290Y-124509030D03*
X153105290Y-121969030D03*
X153105290Y-119429030D03*
D17*
X102535239Y-81054979D03*
D11*
X104331290Y-82851030D03*
X106127341Y-84647081D03*
X107923393Y-86443133D03*
D18*
X126721290Y-131181030D03*
X128721290Y-131181030D03*
D19*
X130721290Y-131181030D03*
D20*
X124721290Y-131181030D03*
X132721290Y-131181030D03*
D21*
X154901290Y-81061030D03*
D11*
X153105239Y-82857081D03*
X151309188Y-84653132D03*
X149513136Y-86449184D03*
D18*
X141971290Y-126681030D03*
X143971290Y-126681030D03*
D19*
X145971290Y-126681030D03*
D20*
X139971290Y-126681030D03*
X147971290Y-126681030D03*
D22*
X116771290Y-111731030D03*
D11*
X114975239Y-109934979D03*
D18*
X110971290Y-126681030D03*
X112971290Y-126681030D03*
D19*
X114971290Y-126681030D03*
D20*
X108971290Y-126681030D03*
X116971290Y-126681030D03*
D23*
X130871290Y-111281030D03*
X150871290Y-106931030D03*
X143771290Y-109681030D03*
X143671290Y-113131030D03*
X88721290Y-88681030D03*
X88721290Y-93681030D03*
X131221290Y-121931030D03*
X148721290Y-128681030D03*
X124821290Y-104981030D03*
X151071290Y-114031030D03*
X133721290Y-105831030D03*
X158721290Y-82156030D03*
X143721290Y-133681030D03*
X131821290Y-119881030D03*
X158721290Y-88681030D03*
X158721290Y-93681030D03*
X145621290Y-116581030D03*
X113721290Y-93681030D03*
X126821290Y-110231030D03*
X146221290Y-97431030D03*
X116471290Y-123931030D03*
X88721290Y-83681030D03*
X125721290Y-115681030D03*
X111221290Y-105431030D03*
X133821290Y-117481030D03*
X118521290Y-110831030D03*
X112471290Y-97431030D03*
X145471290Y-93931030D03*
X168471290Y-82931030D03*
X139421290Y-114381030D03*
X116571290Y-115131030D03*
X112371290Y-116131030D03*
X117571290Y-119581030D03*
D24*
X116621290Y-119794634D02*
X116621290Y-118281030D01*
X118821290Y-122944634D02*
X118821290Y-121994634D01*
X135121290Y-123481030D02*
X119357686Y-123481030D01*
X111521290Y-105731030D02*
X111221290Y-105431030D01*
X116621290Y-118281030D02*
X111521290Y-113181030D01*
X118821290Y-121994634D02*
X116621290Y-119794634D01*
X111521290Y-113181030D02*
X111521290Y-105731030D01*
X119357686Y-123481030D02*
X118821290Y-122944634D01*
X136361290Y-122241030D02*
X135121290Y-123481030D01*
X148721290Y-101681030D02*
X148721290Y-101731030D01*
X112921290Y-102561030D02*
X112921290Y-112508238D01*
X112921290Y-112508238D02*
X116344082Y-115931030D01*
X113801290Y-101681030D02*
X112921290Y-102561030D01*
X122471290Y-115931030D02*
X124021290Y-117481030D01*
X116344082Y-115931030D02*
X122471290Y-115931030D01*
X124021290Y-117481030D02*
X133821290Y-117481030D01*
X127211290Y-114621030D02*
X123471290Y-110881030D01*
X123471290Y-110881030D02*
X118713695Y-110881030D01*
X118713695Y-110881030D02*
X118521290Y-111073435D01*
X118521290Y-111073435D02*
X118521290Y-110831030D01*
X136361290Y-114621030D02*
X127211290Y-114621030D01*
X118257686Y-118481030D02*
X112471290Y-112694634D01*
X136361290Y-117161030D02*
X135041290Y-118481030D01*
X112471290Y-112694634D02*
X112471290Y-97431030D01*
X135041290Y-118481030D02*
X118257686Y-118481030D01*
X153105239Y-82857081D02*
X153105239Y-86297081D01*
X153105239Y-86297081D02*
X145471290Y-93931030D01*
X139471290Y-109681030D02*
X142421290Y-109681030D01*
X136361290Y-107001030D02*
X136791290Y-107001030D01*
X136791290Y-107001030D02*
X139471290Y-109681030D01*
X157721290Y-82931030D02*
X168471290Y-82931030D01*
X142421290Y-109681030D02*
X144971290Y-107131030D01*
X144971290Y-107131030D02*
X144971290Y-95681030D01*
X144971290Y-95681030D02*
X157721290Y-82931030D01*
X135131290Y-120931030D02*
X120071290Y-120931030D01*
X112021290Y-112881030D02*
X112021290Y-104633030D01*
X112021290Y-104633030D02*
X109971290Y-102583030D01*
X136361290Y-119701030D02*
X135131290Y-120931030D01*
X109971290Y-102583030D02*
X109971290Y-92621030D01*
X109971290Y-92621030D02*
X106127341Y-88777081D01*
X106127341Y-88777081D02*
X106127341Y-84647081D01*
X120071290Y-120931030D02*
X112021290Y-112881030D01*
X109971290Y-107931030D02*
X109971290Y-113731030D01*
X106421290Y-126181030D02*
X110101290Y-129861030D01*
X109971290Y-113731030D02*
X106421290Y-117281030D01*
X110101290Y-129861030D02*
X121121290Y-129861030D01*
X106421290Y-117281030D02*
X106421290Y-126181030D01*
X136361290Y-124781030D02*
X137921290Y-123221030D01*
X136621290Y-124781030D02*
X136361290Y-124781030D01*
X137921290Y-115881030D02*
X139421290Y-114381030D01*
X137921290Y-123221030D02*
X137921290Y-115881030D01*
X147171290Y-108231030D02*
X147171290Y-108131030D01*
X147171290Y-108231030D02*
X144621290Y-110781030D01*
X134471290Y-110781030D02*
X130691290Y-107001030D01*
X147771290Y-107531030D02*
X147771290Y-113331030D01*
X130691290Y-107001030D02*
X121121290Y-107001030D01*
X144621290Y-110781030D02*
X134471290Y-110781030D01*
X147171290Y-108131030D02*
X147771290Y-107531030D01*
X121121290Y-109541030D02*
X122981290Y-109541030D01*
X122981290Y-109541030D02*
X126921290Y-113481030D01*
X141521290Y-119531030D02*
X141421290Y-119631030D01*
X126921290Y-113481030D02*
X140171290Y-113481030D01*
X141421290Y-119631030D02*
X147221290Y-119631030D01*
X141421290Y-119731030D02*
X141121290Y-120031030D01*
X141421290Y-119631030D02*
X141421290Y-119731030D01*
X140171290Y-113481030D02*
X141521290Y-114831030D01*
X141521290Y-114831030D02*
X141521290Y-119531030D01*
X116571290Y-115131030D02*
X119621290Y-112081030D01*
X114321290Y-118081030D02*
X112371290Y-116131030D01*
X119621290Y-112081030D02*
X121121290Y-112081030D01*
X114171290Y-118381030D02*
X108371290Y-118381030D01*
X114321290Y-118731030D02*
X114321290Y-118081030D01*
X114171290Y-118881030D02*
X114221290Y-118931030D01*
X120231290Y-122241030D02*
X117571290Y-119581030D01*
X121121290Y-122241030D02*
X120231290Y-122241030D01*
X143971290Y-126681030D02*
X142171290Y-124881030D01*
X138271290Y-126031030D02*
X135271290Y-126031030D01*
X139421290Y-124881030D02*
X138271290Y-126031030D01*
X142171290Y-124881030D02*
X139421290Y-124881030D01*
X135271290Y-126031030D02*
X134021290Y-124781030D01*
X134021290Y-124781030D02*
X121121290Y-124781030D01*
G04 #@! TA.AperFunction,Conductor*
G36*
X112259002Y-119034532D02*
G01*
X112305495Y-119088188D01*
X112308936Y-119096496D01*
X112320401Y-119127234D01*
X112320402Y-119127237D01*
X112408028Y-119244291D01*
X112525082Y-119331917D01*
X112525084Y-119331918D01*
X112525086Y-119331919D01*
X112584165Y-119353954D01*
X112662085Y-119383018D01*
X112662093Y-119383020D01*
X112722640Y-119389529D01*
X112722645Y-119389529D01*
X112722652Y-119389530D01*
X113731695Y-119389530D01*
X113799816Y-119409532D01*
X113812323Y-119419611D01*
X113812678Y-119419179D01*
X113817449Y-119423094D01*
X113817457Y-119423102D01*
X113921215Y-119492431D01*
X114036506Y-119540185D01*
X114158897Y-119564530D01*
X114158898Y-119564530D01*
X114283683Y-119564530D01*
X114283684Y-119564530D01*
X114406075Y-119540185D01*
X114521365Y-119492431D01*
X114625123Y-119423102D01*
X114625134Y-119423090D01*
X114629902Y-119419179D01*
X114631503Y-119421130D01*
X114684102Y-119392409D01*
X114710885Y-119389530D01*
X115619922Y-119389530D01*
X115619928Y-119389530D01*
X115619935Y-119389529D01*
X115619939Y-119389529D01*
X115680486Y-119383020D01*
X115680489Y-119383019D01*
X115680491Y-119383019D01*
X115740116Y-119360780D01*
X115817757Y-119331821D01*
X115888573Y-119326755D01*
X115950885Y-119360780D01*
X115984910Y-119423092D01*
X115987790Y-119449876D01*
X115987790Y-119732240D01*
X115987790Y-119857028D01*
X116012135Y-119979419D01*
X116059890Y-120094709D01*
X116129219Y-120198467D01*
X116129221Y-120198469D01*
X118150885Y-122220133D01*
X118184911Y-122282445D01*
X118187790Y-122309228D01*
X118187790Y-122882240D01*
X118187790Y-123007028D01*
X118212135Y-123129419D01*
X118259890Y-123244709D01*
X118329219Y-123348467D01*
X118865615Y-123884863D01*
X118953853Y-123973101D01*
X119057611Y-124042430D01*
X119172901Y-124090185D01*
X119295292Y-124114530D01*
X119788587Y-124114530D01*
X119856708Y-124134532D01*
X119903201Y-124188188D01*
X119913305Y-124258462D01*
X119908420Y-124279466D01*
X119845011Y-124474617D01*
X119845010Y-124474620D01*
X119845010Y-124474622D01*
X119812790Y-124678049D01*
X119812790Y-124884011D01*
X119835963Y-125030316D01*
X119845011Y-125087442D01*
X119905366Y-125273197D01*
X119908656Y-125283320D01*
X120002161Y-125466833D01*
X120123222Y-125633460D01*
X120123224Y-125633462D01*
X120123226Y-125633465D01*
X120268854Y-125779093D01*
X120268857Y-125779095D01*
X120268860Y-125779098D01*
X120435487Y-125900159D01*
X120511252Y-125938763D01*
X120562867Y-125987512D01*
X120579933Y-126056427D01*
X120557032Y-126123628D01*
X120511253Y-126163296D01*
X120506504Y-126165716D01*
X120435483Y-126201903D01*
X120268857Y-126322964D01*
X120268854Y-126322966D01*
X120123226Y-126468594D01*
X120123224Y-126468597D01*
X120002163Y-126635223D01*
X119908657Y-126818738D01*
X119908654Y-126818744D01*
X119845011Y-127014617D01*
X119845010Y-127014620D01*
X119845010Y-127014622D01*
X119812790Y-127218049D01*
X119812790Y-127424011D01*
X119845010Y-127627438D01*
X119845011Y-127627442D01*
X119907944Y-127821131D01*
X119908656Y-127823320D01*
X120002161Y-128006833D01*
X120123222Y-128173460D01*
X120123224Y-128173462D01*
X120123226Y-128173465D01*
X120268854Y-128319093D01*
X120268857Y-128319095D01*
X120268860Y-128319098D01*
X120435487Y-128440159D01*
X120511252Y-128478763D01*
X120562867Y-128527512D01*
X120579933Y-128596427D01*
X120557032Y-128663628D01*
X120511253Y-128703296D01*
X120442323Y-128738417D01*
X120435483Y-128741903D01*
X120268857Y-128862964D01*
X120268854Y-128862966D01*
X120123226Y-129008594D01*
X120123224Y-129008597D01*
X120001896Y-129175591D01*
X119945674Y-129218945D01*
X119899960Y-129227530D01*
X110415884Y-129227530D01*
X110347763Y-129207528D01*
X110326789Y-129190625D01*
X109244363Y-128108199D01*
X109210337Y-128045887D01*
X109215402Y-127975072D01*
X109257949Y-127918236D01*
X109294520Y-127899272D01*
X109454387Y-127847328D01*
X109630888Y-127757396D01*
X109791148Y-127640960D01*
X109804782Y-127627326D01*
X109908000Y-127524109D01*
X109931215Y-127500893D01*
X109931218Y-127500890D01*
X109931220Y-127500888D01*
X110047656Y-127340628D01*
X110137471Y-127164356D01*
X110160639Y-127132469D01*
X110571290Y-126721818D01*
X110571290Y-126733691D01*
X110598549Y-126835424D01*
X110651210Y-126926636D01*
X110725684Y-127001110D01*
X110816896Y-127053771D01*
X110918629Y-127081030D01*
X110930500Y-127081030D01*
X110350304Y-127661224D01*
X110364368Y-127671442D01*
X110526770Y-127754189D01*
X110526776Y-127754192D01*
X110700120Y-127810514D01*
X110700116Y-127810514D01*
X110880156Y-127839030D01*
X111062424Y-127839030D01*
X111242461Y-127810514D01*
X111415803Y-127754192D01*
X111415809Y-127754189D01*
X111578218Y-127671438D01*
X111592274Y-127661225D01*
X111592274Y-127661223D01*
X111012081Y-127081030D01*
X111023951Y-127081030D01*
X111125684Y-127053771D01*
X111216896Y-127001110D01*
X111291370Y-126926636D01*
X111344031Y-126835424D01*
X111371290Y-126733691D01*
X111371290Y-126721821D01*
X111963716Y-127314247D01*
X111987502Y-127319244D01*
X112029843Y-127356197D01*
X112087636Y-127435742D01*
X112087638Y-127435744D01*
X112087641Y-127435748D01*
X112216572Y-127564679D01*
X112216575Y-127564681D01*
X112216578Y-127564684D01*
X112364104Y-127671868D01*
X112526580Y-127754654D01*
X112700007Y-127811004D01*
X112880114Y-127839530D01*
X112880117Y-127839530D01*
X113062463Y-127839530D01*
X113062466Y-127839530D01*
X113242573Y-127811004D01*
X113416000Y-127754654D01*
X113578476Y-127671868D01*
X113726002Y-127564684D01*
X113854944Y-127435742D01*
X113900256Y-127373374D01*
X113956477Y-127330022D01*
X114027213Y-127323947D01*
X114090005Y-127357078D01*
X114104123Y-127373371D01*
X114125773Y-127403169D01*
X114125775Y-127403171D01*
X114125778Y-127403175D01*
X114249145Y-127526542D01*
X114249148Y-127526544D01*
X114249151Y-127526547D01*
X114390309Y-127629104D01*
X114545774Y-127708318D01*
X114711716Y-127762235D01*
X114884049Y-127789530D01*
X114884052Y-127789530D01*
X115058528Y-127789530D01*
X115058531Y-127789530D01*
X115230864Y-127762235D01*
X115396806Y-127708318D01*
X115552271Y-127629104D01*
X115693429Y-127526547D01*
X115784053Y-127435922D01*
X115846363Y-127401899D01*
X115917179Y-127406963D01*
X115974015Y-127449509D01*
X115975082Y-127450957D01*
X116011359Y-127500887D01*
X116011364Y-127500893D01*
X116151429Y-127640958D01*
X116179323Y-127661224D01*
X116311692Y-127757396D01*
X116488193Y-127847328D01*
X116676590Y-127908542D01*
X116872244Y-127939530D01*
X116872247Y-127939530D01*
X117070333Y-127939530D01*
X117070336Y-127939530D01*
X117265990Y-127908542D01*
X117454387Y-127847328D01*
X117630888Y-127757396D01*
X117791148Y-127640960D01*
X117931220Y-127500888D01*
X118047656Y-127340628D01*
X118137588Y-127164127D01*
X118198802Y-126975730D01*
X118229790Y-126780076D01*
X118229790Y-126581984D01*
X118198802Y-126386330D01*
X118137588Y-126197933D01*
X118047656Y-126021432D01*
X117979335Y-125927397D01*
X117931218Y-125861169D01*
X117791150Y-125721101D01*
X117630891Y-125604666D01*
X117630890Y-125604665D01*
X117630888Y-125604664D01*
X117454387Y-125514732D01*
X117265990Y-125453518D01*
X117070336Y-125422530D01*
X116872244Y-125422530D01*
X116676590Y-125453518D01*
X116676587Y-125453518D01*
X116676586Y-125453519D01*
X116488193Y-125514732D01*
X116488191Y-125514733D01*
X116311688Y-125604666D01*
X116151429Y-125721101D01*
X116011364Y-125861166D01*
X115975082Y-125911103D01*
X115918858Y-125954456D01*
X115848122Y-125960530D01*
X115785331Y-125927397D01*
X115784052Y-125926135D01*
X115693434Y-125835517D01*
X115693431Y-125835515D01*
X115693429Y-125835513D01*
X115552271Y-125732956D01*
X115396806Y-125653742D01*
X115396803Y-125653741D01*
X115396801Y-125653740D01*
X115230867Y-125599826D01*
X115230864Y-125599825D01*
X115058531Y-125572530D01*
X114884049Y-125572530D01*
X114711716Y-125599825D01*
X114711713Y-125599825D01*
X114711712Y-125599826D01*
X114545778Y-125653740D01*
X114545772Y-125653743D01*
X114390305Y-125732958D01*
X114249148Y-125835515D01*
X114249145Y-125835517D01*
X114125777Y-125958885D01*
X114104126Y-125988685D01*
X114047902Y-126032038D01*
X113977166Y-126038112D01*
X113914375Y-126004979D01*
X113900255Y-125988683D01*
X113854942Y-125926315D01*
X113726007Y-125797380D01*
X113726004Y-125797378D01*
X113726002Y-125797376D01*
X113614952Y-125716694D01*
X113578479Y-125690194D01*
X113578478Y-125690193D01*
X113578476Y-125690192D01*
X113416000Y-125607406D01*
X113415999Y-125607405D01*
X113415996Y-125607404D01*
X113242578Y-125551057D01*
X113242574Y-125551056D01*
X113242573Y-125551056D01*
X113062466Y-125522530D01*
X112880114Y-125522530D01*
X112700007Y-125551056D01*
X112700001Y-125551057D01*
X112526583Y-125607404D01*
X112364100Y-125690194D01*
X112216575Y-125797378D01*
X112216572Y-125797380D01*
X112087640Y-125926312D01*
X112087635Y-125926318D01*
X112029844Y-126005860D01*
X111973622Y-126049213D01*
X111960361Y-126051168D01*
X111371290Y-126640239D01*
X111371290Y-126628369D01*
X111344031Y-126526636D01*
X111291370Y-126435424D01*
X111216896Y-126360950D01*
X111125684Y-126308289D01*
X111023951Y-126281030D01*
X111012080Y-126281030D01*
X111592275Y-125700833D01*
X111578213Y-125690618D01*
X111415809Y-125607870D01*
X111415803Y-125607867D01*
X111242459Y-125551545D01*
X111242463Y-125551545D01*
X111062424Y-125523030D01*
X110880156Y-125523030D01*
X110700118Y-125551545D01*
X110526776Y-125607867D01*
X110526770Y-125607870D01*
X110364362Y-125690621D01*
X110350304Y-125700833D01*
X110350303Y-125700834D01*
X110930499Y-126281030D01*
X110918629Y-126281030D01*
X110816896Y-126308289D01*
X110725684Y-126360950D01*
X110651210Y-126435424D01*
X110598549Y-126526636D01*
X110571290Y-126628369D01*
X110571290Y-126640240D01*
X110160640Y-126229591D01*
X110137468Y-126197698D01*
X110047656Y-126021432D01*
X109979335Y-125927397D01*
X109931218Y-125861169D01*
X109791150Y-125721101D01*
X109630891Y-125604666D01*
X109630890Y-125604665D01*
X109630888Y-125604664D01*
X109454387Y-125514732D01*
X109265990Y-125453518D01*
X109070336Y-125422530D01*
X108872244Y-125422530D01*
X108676590Y-125453518D01*
X108676587Y-125453518D01*
X108676586Y-125453519D01*
X108488193Y-125514732D01*
X108488191Y-125514733D01*
X108311688Y-125604666D01*
X108151429Y-125721101D01*
X108011361Y-125861169D01*
X107894926Y-126021428D01*
X107835024Y-126138992D01*
X107804992Y-126197933D01*
X107796868Y-126222936D01*
X107753048Y-126357798D01*
X107712974Y-126416403D01*
X107647577Y-126444040D01*
X107577620Y-126431933D01*
X107544120Y-126407956D01*
X107091695Y-125955531D01*
X107057669Y-125893219D01*
X107054790Y-125866436D01*
X107054790Y-123515030D01*
X107074792Y-123446909D01*
X107128448Y-123400416D01*
X107180790Y-123389030D01*
X108117290Y-123389030D01*
X108625290Y-123389030D01*
X109819875Y-123389030D01*
X109819887Y-123389029D01*
X109880383Y-123382524D01*
X110017254Y-123331474D01*
X110017255Y-123331474D01*
X110134194Y-123243934D01*
X110221734Y-123126995D01*
X110221734Y-123126994D01*
X110272784Y-122990123D01*
X110279289Y-122929627D01*
X112263290Y-122929627D01*
X112269795Y-122990123D01*
X112320845Y-123126994D01*
X112320845Y-123126995D01*
X112408385Y-123243934D01*
X112525324Y-123331474D01*
X112662196Y-123382524D01*
X112722692Y-123389029D01*
X112722705Y-123389030D01*
X113917290Y-123389030D01*
X114425290Y-123389030D01*
X115619875Y-123389030D01*
X115619887Y-123389029D01*
X115680383Y-123382524D01*
X115817254Y-123331474D01*
X115817255Y-123331474D01*
X115934194Y-123243934D01*
X116021734Y-123126995D01*
X116021734Y-123126994D01*
X116072784Y-122990123D01*
X116079289Y-122929627D01*
X116079290Y-122929615D01*
X116079290Y-122635030D01*
X114425290Y-122635030D01*
X114425290Y-123389030D01*
X113917290Y-123389030D01*
X113917290Y-122635030D01*
X112263290Y-122635030D01*
X112263290Y-122929627D01*
X110279289Y-122929627D01*
X110279290Y-122929615D01*
X110279290Y-122635030D01*
X108625290Y-122635030D01*
X108625290Y-123389030D01*
X108117290Y-123389030D01*
X108117290Y-122127030D01*
X108625290Y-122127030D01*
X110279290Y-122127030D01*
X110279290Y-121832444D01*
X110279289Y-121832432D01*
X112263290Y-121832432D01*
X112263290Y-122127030D01*
X113917290Y-122127030D01*
X114425290Y-122127030D01*
X116079290Y-122127030D01*
X116079290Y-121832444D01*
X116079289Y-121832432D01*
X116072784Y-121771936D01*
X116021734Y-121635065D01*
X116021734Y-121635064D01*
X115934194Y-121518125D01*
X115817255Y-121430585D01*
X115680383Y-121379535D01*
X115619887Y-121373030D01*
X114425290Y-121373030D01*
X114425290Y-122127030D01*
X113917290Y-122127030D01*
X113917290Y-121373030D01*
X112722692Y-121373030D01*
X112662196Y-121379535D01*
X112525325Y-121430585D01*
X112525324Y-121430585D01*
X112408385Y-121518125D01*
X112320845Y-121635064D01*
X112320845Y-121635065D01*
X112269795Y-121771936D01*
X112263290Y-121832432D01*
X110279289Y-121832432D01*
X110272784Y-121771936D01*
X110221734Y-121635065D01*
X110221734Y-121635064D01*
X110134194Y-121518125D01*
X110017255Y-121430585D01*
X109880383Y-121379535D01*
X109819887Y-121373030D01*
X108625290Y-121373030D01*
X108625290Y-122127030D01*
X108117290Y-122127030D01*
X108117290Y-121373030D01*
X107180790Y-121373030D01*
X107112669Y-121353028D01*
X107066176Y-121299372D01*
X107054790Y-121247030D01*
X107054790Y-119515530D01*
X107074792Y-119447409D01*
X107128448Y-119400916D01*
X107180790Y-119389530D01*
X109819922Y-119389530D01*
X109819928Y-119389530D01*
X109819935Y-119389529D01*
X109819939Y-119389529D01*
X109880486Y-119383020D01*
X109880489Y-119383019D01*
X109880491Y-119383019D01*
X110017494Y-119331919D01*
X110020559Y-119329625D01*
X110134551Y-119244291D01*
X110222177Y-119127237D01*
X110222177Y-119127236D01*
X110222179Y-119127234D01*
X110233644Y-119096496D01*
X110276191Y-119039661D01*
X110342712Y-119014851D01*
X110351699Y-119014530D01*
X112190881Y-119014530D01*
X112259002Y-119034532D01*
G37*
G04 #@! TD.AperFunction*
G04 #@! TA.AperFunction,Conductor*
G36*
X141296784Y-125534532D02*
G01*
X141343277Y-125588188D01*
X141354274Y-125650421D01*
X141350304Y-125700834D01*
X141930501Y-126281030D01*
X141918629Y-126281030D01*
X141816896Y-126308289D01*
X141725684Y-126360950D01*
X141651210Y-126435424D01*
X141598549Y-126526636D01*
X141571290Y-126628369D01*
X141571290Y-126640240D01*
X141160640Y-126229591D01*
X141137468Y-126197698D01*
X141047656Y-126021432D01*
X140979335Y-125927397D01*
X140931218Y-125861169D01*
X140799674Y-125729625D01*
X140765648Y-125667313D01*
X140770713Y-125596498D01*
X140813260Y-125539662D01*
X140879780Y-125514851D01*
X140888769Y-125514530D01*
X141228663Y-125514530D01*
X141296784Y-125534532D01*
G37*
G04 #@! TD.AperFunction*
G04 #@! TA.AperFunction,Conductor*
G36*
X105460666Y-125273197D02*
G01*
X105460668Y-125273197D01*
X105498755Y-125220778D01*
X105549523Y-125121140D01*
X105598271Y-125069524D01*
X105667186Y-125052458D01*
X105734387Y-125075358D01*
X105778540Y-125130956D01*
X105787790Y-125178342D01*
X105787790Y-125774947D01*
X105767788Y-125843068D01*
X105714132Y-125889561D01*
X105643858Y-125899665D01*
X105579278Y-125870171D01*
X105560923Y-125850457D01*
X105550194Y-125836126D01*
X105433255Y-125748585D01*
X105296383Y-125697535D01*
X105254309Y-125693011D01*
X105191992Y-125696352D01*
X105131875Y-125662824D01*
X104462238Y-124993187D01*
X104530283Y-124974955D01*
X104644297Y-124909129D01*
X104737389Y-124816037D01*
X104803215Y-124702023D01*
X104821447Y-124633978D01*
X105460666Y-125273197D01*
G37*
G04 #@! TD.AperFunction*
G04 #@! TA.AperFunction,Conductor*
G36*
X105460666Y-122733197D02*
G01*
X105460668Y-122733197D01*
X105498755Y-122680778D01*
X105549523Y-122581140D01*
X105598271Y-122529524D01*
X105667186Y-122512458D01*
X105734387Y-122535358D01*
X105778540Y-122590956D01*
X105787790Y-122638342D01*
X105787790Y-123839717D01*
X105767788Y-123907838D01*
X105714132Y-123954331D01*
X105643858Y-123964435D01*
X105579278Y-123934941D01*
X105549523Y-123896920D01*
X105498754Y-123797281D01*
X105498753Y-123797279D01*
X105460668Y-123744861D01*
X104821447Y-124384081D01*
X104803215Y-124316037D01*
X104737389Y-124202023D01*
X104644297Y-124108931D01*
X104530283Y-124043105D01*
X104462237Y-124024871D01*
X105101458Y-123385651D01*
X105101457Y-123385650D01*
X105049039Y-123347565D01*
X105047240Y-123346463D01*
X105046699Y-123345865D01*
X105045032Y-123344654D01*
X105045286Y-123344303D01*
X104999608Y-123293816D01*
X104988001Y-123223775D01*
X105016104Y-123158577D01*
X105045078Y-123133472D01*
X105045031Y-123133407D01*
X105045788Y-123132856D01*
X105047248Y-123131592D01*
X105049040Y-123130493D01*
X105101457Y-123092408D01*
X105101457Y-123092406D01*
X104462238Y-122453187D01*
X104530283Y-122434955D01*
X104644297Y-122369129D01*
X104737389Y-122276037D01*
X104803215Y-122162023D01*
X104821447Y-122093978D01*
X105460666Y-122733197D01*
G37*
G04 #@! TD.AperFunction*
G04 #@! TA.AperFunction,Conductor*
G36*
X135100365Y-121584532D02*
G01*
X135146858Y-121638188D01*
X135156962Y-121708462D01*
X135149967Y-121733960D01*
X135150186Y-121734032D01*
X135148656Y-121738738D01*
X135148656Y-121738740D01*
X135130205Y-121795526D01*
X135085011Y-121934617D01*
X135085010Y-121934620D01*
X135085010Y-121934622D01*
X135052790Y-122138049D01*
X135052790Y-122344011D01*
X135072591Y-122469030D01*
X135085080Y-122547881D01*
X135084367Y-122553394D01*
X135086310Y-122558602D01*
X135079865Y-122588227D01*
X135075980Y-122618293D01*
X135072087Y-122623986D01*
X135071219Y-122627977D01*
X135049727Y-122656687D01*
X134895791Y-122810625D01*
X134833479Y-122844650D01*
X134806695Y-122847530D01*
X122473488Y-122847530D01*
X122405367Y-122827528D01*
X122358874Y-122773872D01*
X122348770Y-122703598D01*
X122353655Y-122682594D01*
X122353773Y-122682230D01*
X122397570Y-122547438D01*
X122429790Y-122344011D01*
X122429790Y-122138049D01*
X122397570Y-121934622D01*
X122333924Y-121738740D01*
X122332394Y-121734031D01*
X122333385Y-121733708D01*
X122326338Y-121668161D01*
X122358115Y-121604673D01*
X122419173Y-121568445D01*
X122450336Y-121564530D01*
X135032244Y-121564530D01*
X135100365Y-121584532D01*
G37*
G04 #@! TD.AperFunction*
G04 #@! TA.AperFunction,Conductor*
G36*
X105460666Y-120193197D02*
G01*
X105460668Y-120193197D01*
X105498755Y-120140778D01*
X105549523Y-120041140D01*
X105598271Y-119989524D01*
X105667186Y-119972458D01*
X105734387Y-119995358D01*
X105778540Y-120050956D01*
X105787790Y-120098342D01*
X105787790Y-121299717D01*
X105767788Y-121367838D01*
X105714132Y-121414331D01*
X105643858Y-121424435D01*
X105579278Y-121394941D01*
X105549523Y-121356920D01*
X105498754Y-121257281D01*
X105498753Y-121257279D01*
X105460668Y-121204861D01*
X104821447Y-121844081D01*
X104803215Y-121776037D01*
X104737389Y-121662023D01*
X104644297Y-121568931D01*
X104530283Y-121503105D01*
X104462237Y-121484871D01*
X105101458Y-120845651D01*
X105101457Y-120845650D01*
X105049039Y-120807565D01*
X105047240Y-120806463D01*
X105046699Y-120805865D01*
X105045032Y-120804654D01*
X105045286Y-120804303D01*
X104999608Y-120753816D01*
X104988001Y-120683775D01*
X105016104Y-120618577D01*
X105045078Y-120593472D01*
X105045031Y-120593407D01*
X105045788Y-120592856D01*
X105047248Y-120591592D01*
X105049040Y-120590493D01*
X105101457Y-120552408D01*
X105101457Y-120552406D01*
X104462238Y-119913187D01*
X104530283Y-119894955D01*
X104644297Y-119829129D01*
X104737389Y-119736037D01*
X104803215Y-119622023D01*
X104821447Y-119553978D01*
X105460666Y-120193197D01*
G37*
G04 #@! TD.AperFunction*
G04 #@! TA.AperFunction,Conductor*
G36*
X135070715Y-119134532D02*
G01*
X135117208Y-119188188D01*
X135127312Y-119258462D01*
X135122429Y-119279458D01*
X135108556Y-119322156D01*
X135085010Y-119394619D01*
X135069519Y-119492429D01*
X135052790Y-119598049D01*
X135052790Y-119804011D01*
X135072591Y-119929030D01*
X135085080Y-120007881D01*
X135084367Y-120013394D01*
X135086310Y-120018602D01*
X135079865Y-120048227D01*
X135075980Y-120078293D01*
X135072087Y-120083986D01*
X135071219Y-120087977D01*
X135049727Y-120116687D01*
X134905791Y-120260625D01*
X134843479Y-120294650D01*
X134816695Y-120297530D01*
X122476737Y-120297530D01*
X122408616Y-120277528D01*
X122362123Y-120223872D01*
X122352019Y-120153598D01*
X122356902Y-120132599D01*
X122397570Y-120007438D01*
X122429790Y-119804011D01*
X122429790Y-119598049D01*
X122397570Y-119394622D01*
X122360152Y-119279464D01*
X122358125Y-119208499D01*
X122394787Y-119147701D01*
X122458499Y-119116376D01*
X122479986Y-119114530D01*
X135002594Y-119114530D01*
X135070715Y-119134532D01*
G37*
G04 #@! TD.AperFunction*
G04 #@! TA.AperFunction,Conductor*
G36*
X123224817Y-111534532D02*
G01*
X123245791Y-111551435D01*
X126807451Y-115113097D01*
X126807457Y-115113102D01*
X126911215Y-115182431D01*
X126992737Y-115216198D01*
X127026505Y-115230185D01*
X127148896Y-115254530D01*
X127148897Y-115254530D01*
X127273684Y-115254530D01*
X135139960Y-115254530D01*
X135208081Y-115274532D01*
X135241896Y-115306469D01*
X135287785Y-115369630D01*
X135363222Y-115473460D01*
X135363224Y-115473462D01*
X135363226Y-115473465D01*
X135508854Y-115619093D01*
X135508857Y-115619095D01*
X135508860Y-115619098D01*
X135675487Y-115740159D01*
X135751252Y-115778763D01*
X135802867Y-115827512D01*
X135819933Y-115896427D01*
X135797032Y-115963628D01*
X135751253Y-116003296D01*
X135682323Y-116038417D01*
X135675483Y-116041903D01*
X135508857Y-116162964D01*
X135508854Y-116162966D01*
X135363226Y-116308594D01*
X135363224Y-116308597D01*
X135242163Y-116475223D01*
X135148657Y-116658738D01*
X135148654Y-116658744D01*
X135085011Y-116854617D01*
X135085011Y-116854619D01*
X135085010Y-116854622D01*
X135052790Y-117058049D01*
X135052790Y-117264011D01*
X135071009Y-117379039D01*
X135085080Y-117467881D01*
X135084367Y-117473394D01*
X135086310Y-117478603D01*
X135079865Y-117508228D01*
X135075980Y-117538293D01*
X135072087Y-117543985D01*
X135071219Y-117547977D01*
X135049726Y-117576687D01*
X134942522Y-117683891D01*
X134880210Y-117717917D01*
X134809395Y-117712852D01*
X134752559Y-117670305D01*
X134727748Y-117603785D01*
X134729444Y-117576698D01*
X134729183Y-117576673D01*
X134729790Y-117570507D01*
X134729790Y-117391552D01*
X134729789Y-117391548D01*
X134694877Y-117216030D01*
X134626392Y-117050694D01*
X134526968Y-116901895D01*
X134400425Y-116775352D01*
X134251626Y-116675928D01*
X134134719Y-116627503D01*
X134086293Y-116607444D01*
X134086291Y-116607443D01*
X134086290Y-116607443D01*
X133971108Y-116584532D01*
X133910771Y-116572530D01*
X133910769Y-116572530D01*
X133731811Y-116572530D01*
X133731808Y-116572530D01*
X133601061Y-116598537D01*
X133556290Y-116607443D01*
X133556289Y-116607443D01*
X133556286Y-116607444D01*
X133390952Y-116675929D01*
X133242159Y-116775349D01*
X133242152Y-116775354D01*
X133206882Y-116810625D01*
X133144570Y-116844651D01*
X133117787Y-116847530D01*
X124335884Y-116847530D01*
X124267763Y-116827528D01*
X124246789Y-116810625D01*
X122875125Y-115438961D01*
X122875123Y-115438959D01*
X122771365Y-115369630D01*
X122656075Y-115321875D01*
X122582376Y-115307215D01*
X122533686Y-115297530D01*
X122533684Y-115297530D01*
X122450336Y-115297530D01*
X122382215Y-115277528D01*
X122335722Y-115223872D01*
X122325618Y-115153598D01*
X122332613Y-115128100D01*
X122332394Y-115128029D01*
X122340688Y-115102503D01*
X122397570Y-114927438D01*
X122429790Y-114724011D01*
X122429790Y-114518049D01*
X122397570Y-114314622D01*
X122333924Y-114118740D01*
X122240419Y-113935227D01*
X122119358Y-113768600D01*
X122119355Y-113768597D01*
X122119353Y-113768594D01*
X121973725Y-113622966D01*
X121973722Y-113622964D01*
X121973720Y-113622962D01*
X121807093Y-113501901D01*
X121731324Y-113463295D01*
X121679712Y-113414549D01*
X121662646Y-113345634D01*
X121685547Y-113278432D01*
X121731324Y-113238765D01*
X121807093Y-113200159D01*
X121973720Y-113079098D01*
X122119358Y-112933460D01*
X122240419Y-112766833D01*
X122333924Y-112583320D01*
X122397570Y-112387438D01*
X122429790Y-112184011D01*
X122429790Y-111978049D01*
X122397570Y-111774622D01*
X122368394Y-111684827D01*
X122366652Y-111679466D01*
X122364624Y-111608499D01*
X122401287Y-111547701D01*
X122464999Y-111516375D01*
X122486485Y-111514530D01*
X123156696Y-111514530D01*
X123224817Y-111534532D01*
G37*
G04 #@! TD.AperFunction*
G04 #@! TA.AperFunction,Conductor*
G36*
X130444817Y-107654532D02*
G01*
X130465791Y-107671435D01*
X133979219Y-111184863D01*
X134067457Y-111273101D01*
X134171215Y-111342430D01*
X134286505Y-111390185D01*
X134408896Y-111414530D01*
X135028587Y-111414530D01*
X135096708Y-111434532D01*
X135143201Y-111488188D01*
X135153305Y-111558462D01*
X135148420Y-111579466D01*
X135085011Y-111774617D01*
X135085010Y-111774620D01*
X135085010Y-111774622D01*
X135052790Y-111978049D01*
X135052790Y-112184011D01*
X135085010Y-112387438D01*
X135148656Y-112583320D01*
X135189932Y-112664329D01*
X135203036Y-112734104D01*
X135176336Y-112799888D01*
X135118309Y-112840795D01*
X135077665Y-112847530D01*
X127235884Y-112847530D01*
X127167763Y-112827528D01*
X127146789Y-112810625D01*
X125527712Y-111191548D01*
X129962790Y-111191548D01*
X129962790Y-111370511D01*
X129976235Y-111438104D01*
X129991804Y-111516375D01*
X129997704Y-111546033D01*
X130006707Y-111567768D01*
X130066188Y-111711366D01*
X130165612Y-111860165D01*
X130292155Y-111986708D01*
X130440954Y-112086132D01*
X130606290Y-112154617D01*
X130781811Y-112189530D01*
X130781812Y-112189530D01*
X130960768Y-112189530D01*
X130960769Y-112189530D01*
X131136290Y-112154617D01*
X131301626Y-112086132D01*
X131450425Y-111986708D01*
X131576968Y-111860165D01*
X131676392Y-111711366D01*
X131744877Y-111546030D01*
X131779790Y-111370509D01*
X131779790Y-111191551D01*
X131744877Y-111016030D01*
X131676392Y-110850694D01*
X131576968Y-110701895D01*
X131450425Y-110575352D01*
X131301626Y-110475928D01*
X131184719Y-110427503D01*
X131136293Y-110407444D01*
X131136291Y-110407443D01*
X131136290Y-110407443D01*
X131047935Y-110389868D01*
X130960771Y-110372530D01*
X130960769Y-110372530D01*
X130781811Y-110372530D01*
X130781808Y-110372530D01*
X130651061Y-110398537D01*
X130606290Y-110407443D01*
X130606289Y-110407443D01*
X130606286Y-110407444D01*
X130440952Y-110475929D01*
X130292159Y-110575349D01*
X130292152Y-110575354D01*
X130165614Y-110701892D01*
X130165609Y-110701899D01*
X130066189Y-110850692D01*
X129997704Y-111016026D01*
X129962790Y-111191548D01*
X125527712Y-111191548D01*
X123385125Y-109048961D01*
X123385123Y-109048959D01*
X123281365Y-108979630D01*
X123166075Y-108931875D01*
X123092376Y-108917215D01*
X123043686Y-108907530D01*
X123043684Y-108907530D01*
X122342620Y-108907530D01*
X122274499Y-108887528D01*
X122240684Y-108855591D01*
X122180740Y-108773085D01*
X122119358Y-108688600D01*
X122119355Y-108688597D01*
X122119353Y-108688594D01*
X121973725Y-108542966D01*
X121973722Y-108542964D01*
X121973720Y-108542962D01*
X121807093Y-108421901D01*
X121731324Y-108383295D01*
X121679712Y-108334549D01*
X121662646Y-108265634D01*
X121685547Y-108198432D01*
X121731324Y-108158765D01*
X121807093Y-108120159D01*
X121973720Y-107999098D01*
X122119358Y-107853460D01*
X122240417Y-107686836D01*
X122240684Y-107686469D01*
X122296906Y-107643115D01*
X122342620Y-107634530D01*
X130376696Y-107634530D01*
X130444817Y-107654532D01*
G37*
G04 #@! TD.AperFunction*
G04 #@! TA.AperFunction,Conductor*
G36*
X104143036Y-78206531D02*
G01*
X104168097Y-78206531D01*
X104174494Y-78206531D01*
X104178300Y-78206588D01*
X104775133Y-78224630D01*
X104782677Y-78225087D01*
X105375466Y-78278979D01*
X105382979Y-78279892D01*
X105971437Y-78369496D01*
X105978867Y-78370858D01*
X106560842Y-78495846D01*
X106568178Y-78497654D01*
X107141551Y-78657574D01*
X107148776Y-78659827D01*
X107711385Y-78854069D01*
X107718490Y-78856764D01*
X108268366Y-79084650D01*
X108275282Y-79087765D01*
X108810365Y-79348440D01*
X108817082Y-79351966D01*
X109335470Y-79644504D01*
X109341945Y-79648421D01*
X109841703Y-79971730D01*
X109847951Y-79976046D01*
X110112012Y-80170468D01*
X110327241Y-80328937D01*
X110333229Y-80333631D01*
X110790338Y-80714838D01*
X110796018Y-80719873D01*
X111004531Y-80916295D01*
X111229265Y-81127998D01*
X111234647Y-81133384D01*
X111642433Y-81566916D01*
X111642442Y-81566925D01*
X111647480Y-81572617D01*
X111749545Y-81695189D01*
X112028343Y-82030005D01*
X112033036Y-82036001D01*
X112385566Y-82515548D01*
X112389889Y-82521817D01*
X112713819Y-83023353D01*
X112715836Y-83026582D01*
X114729015Y-86360440D01*
X114731477Y-86364702D01*
X114914297Y-86696051D01*
X114918675Y-86704770D01*
X114947098Y-86767300D01*
X115074265Y-87047075D01*
X115077960Y-87056120D01*
X115206554Y-87409440D01*
X115209537Y-87418743D01*
X115310371Y-87780976D01*
X115312624Y-87790484D01*
X115385083Y-88159425D01*
X115386593Y-88169078D01*
X115430249Y-88542539D01*
X115431006Y-88552280D01*
X115445695Y-88930621D01*
X115445790Y-88935509D01*
X115445790Y-100628820D01*
X115445768Y-100628894D01*
X115445772Y-100770752D01*
X115476935Y-100947459D01*
X115538312Y-101116082D01*
X115538313Y-101116084D01*
X115595486Y-101215105D01*
X115628035Y-101271479D01*
X115628039Y-101271484D01*
X115628040Y-101271485D01*
X115743379Y-101408938D01*
X115837648Y-101488037D01*
X115880838Y-101524277D01*
X116036238Y-101613996D01*
X116036241Y-101613997D01*
X116036242Y-101613998D01*
X116204848Y-101675366D01*
X116204850Y-101675367D01*
X116204856Y-101675369D01*
X116381570Y-101706529D01*
X116435663Y-101706529D01*
X116435667Y-101706530D01*
X116460728Y-101706530D01*
X141007230Y-101706530D01*
X141007424Y-101706490D01*
X141061007Y-101706491D01*
X141221550Y-101678184D01*
X141237712Y-101675335D01*
X141237712Y-101675334D01*
X141237717Y-101675334D01*
X141406332Y-101613966D01*
X141406335Y-101613963D01*
X141406338Y-101613963D01*
X141560485Y-101524969D01*
X141561729Y-101524251D01*
X141699186Y-101408915D01*
X141814528Y-101271462D01*
X141904249Y-101116069D01*
X141965624Y-100947457D01*
X141996786Y-100770752D01*
X141996787Y-100770749D01*
X141996790Y-100681029D01*
X141996790Y-100647685D01*
X141996789Y-100647679D01*
X141996789Y-88935315D01*
X141996884Y-88930427D01*
X142011566Y-88552281D01*
X142012323Y-88542539D01*
X142015580Y-88514676D01*
X142055983Y-88169060D01*
X142057488Y-88159443D01*
X142129959Y-87790454D01*
X142132207Y-87780976D01*
X142233045Y-87418743D01*
X142236025Y-87409448D01*
X142298543Y-87237682D01*
X142364627Y-87056116D01*
X142368310Y-87047099D01*
X142523923Y-86704757D01*
X142528283Y-86696075D01*
X142711378Y-86364240D01*
X142713794Y-86360057D01*
X144726723Y-83026614D01*
X144728737Y-83023391D01*
X144730597Y-83020511D01*
X145052704Y-82521797D01*
X145057001Y-82515566D01*
X145409550Y-82035991D01*
X145414238Y-82030004D01*
X145778911Y-81592059D01*
X145795099Y-81572617D01*
X145800138Y-81566925D01*
X146207945Y-81133367D01*
X146213284Y-81128023D01*
X146646577Y-80719853D01*
X146652224Y-80714848D01*
X147109356Y-80333620D01*
X147115332Y-80328937D01*
X147594642Y-79976030D01*
X147600860Y-79971735D01*
X148100633Y-79648414D01*
X148107108Y-79644498D01*
X148625510Y-79351952D01*
X148632199Y-79348440D01*
X149167309Y-79087751D01*
X149174200Y-79084647D01*
X149724099Y-78856750D01*
X149731182Y-78854064D01*
X150293811Y-78659814D01*
X150301017Y-78657566D01*
X150874400Y-78497643D01*
X150881737Y-78495835D01*
X151463697Y-78370848D01*
X151471150Y-78369482D01*
X152059595Y-78279878D01*
X152067120Y-78278965D01*
X152659906Y-78225071D01*
X152667443Y-78224615D01*
X153256737Y-78206800D01*
X153263717Y-78206589D01*
X153267522Y-78206531D01*
X153274483Y-78206531D01*
X153274483Y-78206530D01*
X153326673Y-78206530D01*
X170217170Y-78206530D01*
X170225409Y-78206799D01*
X170470780Y-78222881D01*
X170487100Y-78225029D01*
X170724235Y-78272198D01*
X170740146Y-78276462D01*
X170969085Y-78354176D01*
X170984292Y-78360475D01*
X171201135Y-78467409D01*
X171215392Y-78475640D01*
X171416420Y-78609964D01*
X171429493Y-78619995D01*
X171611265Y-78779406D01*
X171622916Y-78791058D01*
X171782312Y-78972817D01*
X171792346Y-78985893D01*
X171926662Y-79186914D01*
X171934902Y-79201188D01*
X172041825Y-79418011D01*
X172048133Y-79433238D01*
X172125844Y-79662175D01*
X172130107Y-79678088D01*
X172130109Y-79678095D01*
X172177271Y-79915206D01*
X172179422Y-79931548D01*
X172195520Y-80177225D01*
X172195790Y-80185463D01*
X172195790Y-85183315D01*
X172175788Y-85251436D01*
X172122132Y-85297929D01*
X172051858Y-85308033D01*
X171987278Y-85278539D01*
X171960671Y-85246315D01*
X171879903Y-85106421D01*
X171879898Y-85106414D01*
X171740216Y-84924377D01*
X171740197Y-84924356D01*
X171577963Y-84762122D01*
X171577942Y-84762103D01*
X171395905Y-84622421D01*
X171395898Y-84622416D01*
X171197190Y-84507692D01*
X171197182Y-84507688D01*
X171197178Y-84507686D01*
X170985177Y-84419872D01*
X170763528Y-84360482D01*
X170763521Y-84360480D01*
X170536026Y-84330530D01*
X170536024Y-84330530D01*
X170306556Y-84330530D01*
X170306553Y-84330530D01*
X170079058Y-84360480D01*
X169857403Y-84419872D01*
X169773341Y-84454692D01*
X169645400Y-84507687D01*
X169645389Y-84507692D01*
X169446681Y-84622416D01*
X169446674Y-84622421D01*
X169264637Y-84762103D01*
X169264616Y-84762122D01*
X169102382Y-84924356D01*
X169102363Y-84924377D01*
X168962681Y-85106414D01*
X168962676Y-85106421D01*
X168847952Y-85305129D01*
X168847947Y-85305140D01*
X168847946Y-85305142D01*
X168803279Y-85412978D01*
X168760132Y-85517143D01*
X168700740Y-85738798D01*
X168670790Y-85966293D01*
X168670790Y-86195766D01*
X168700740Y-86423261D01*
X168700742Y-86423268D01*
X168760132Y-86644917D01*
X168847946Y-86856918D01*
X168847947Y-86856919D01*
X168847952Y-86856930D01*
X168962676Y-87055638D01*
X168962681Y-87055645D01*
X169102363Y-87237682D01*
X169102382Y-87237703D01*
X169264616Y-87399937D01*
X169264637Y-87399956D01*
X169446674Y-87539638D01*
X169446681Y-87539643D01*
X169645389Y-87654367D01*
X169645393Y-87654368D01*
X169645402Y-87654374D01*
X169857403Y-87742188D01*
X170079052Y-87801578D01*
X170079056Y-87801578D01*
X170079058Y-87801579D01*
X170125431Y-87807684D01*
X170306556Y-87831530D01*
X170306563Y-87831530D01*
X170536017Y-87831530D01*
X170536024Y-87831530D01*
X170741635Y-87804460D01*
X170763521Y-87801579D01*
X170763521Y-87801578D01*
X170763528Y-87801578D01*
X170985177Y-87742188D01*
X171197178Y-87654374D01*
X171395902Y-87539641D01*
X171577951Y-87399949D01*
X171740209Y-87237691D01*
X171879901Y-87055642D01*
X171960671Y-86915744D01*
X172012053Y-86866751D01*
X172081767Y-86853315D01*
X172147678Y-86879701D01*
X172188860Y-86937533D01*
X172195790Y-86978744D01*
X172195790Y-92951905D01*
X172195520Y-92960148D01*
X172179434Y-93205506D01*
X172177283Y-93221846D01*
X172130115Y-93458961D01*
X172125849Y-93474881D01*
X172048133Y-93703813D01*
X172041825Y-93719040D01*
X171934900Y-93935857D01*
X171926659Y-93950130D01*
X171792345Y-94151139D01*
X171782312Y-94164215D01*
X171622906Y-94345979D01*
X171611252Y-94357632D01*
X171429486Y-94517034D01*
X171416410Y-94527068D01*
X171215395Y-94661380D01*
X171201121Y-94669620D01*
X170984300Y-94776542D01*
X170969073Y-94782850D01*
X170740138Y-94860560D01*
X170724219Y-94864825D01*
X170487110Y-94911988D01*
X170470769Y-94914139D01*
X170224795Y-94930260D01*
X170216555Y-94930530D01*
X165418350Y-94930530D01*
X164813568Y-94967112D01*
X164212130Y-95040140D01*
X164212123Y-95040141D01*
X163616175Y-95149353D01*
X163027890Y-95294352D01*
X162449449Y-95474601D01*
X161882944Y-95689448D01*
X161330443Y-95938109D01*
X161330441Y-95938110D01*
X160793968Y-96219673D01*
X160793957Y-96219678D01*
X160275492Y-96533101D01*
X160275464Y-96533119D01*
X159776853Y-96877285D01*
X159299899Y-97250956D01*
X159299898Y-97250957D01*
X158846407Y-97652714D01*
X158846385Y-97652735D01*
X158417995Y-98081125D01*
X158417974Y-98081147D01*
X158016217Y-98534638D01*
X158016216Y-98534639D01*
X157642545Y-99011593D01*
X157298379Y-99510204D01*
X157298361Y-99510232D01*
X156984938Y-100028697D01*
X156984933Y-100028708D01*
X156703370Y-100565181D01*
X156703369Y-100565183D01*
X156454708Y-101117684D01*
X156239861Y-101684189D01*
X156059612Y-102262630D01*
X155914613Y-102850915D01*
X155805401Y-103446863D01*
X155805400Y-103446870D01*
X155732372Y-104048308D01*
X155695790Y-104653089D01*
X155695790Y-125813642D01*
X155695654Y-125819493D01*
X155681073Y-126133137D01*
X155679987Y-126144792D01*
X155636770Y-126452831D01*
X155634607Y-126464335D01*
X155562991Y-126767033D01*
X155559770Y-126778286D01*
X155460373Y-127073031D01*
X155456122Y-127083936D01*
X155329801Y-127368193D01*
X155324555Y-127378658D01*
X155172407Y-127649953D01*
X155166214Y-127659885D01*
X154989539Y-127915901D01*
X154982450Y-127925215D01*
X154781169Y-128165657D01*
X154777308Y-128170058D01*
X154695776Y-128258735D01*
X154693120Y-128261537D01*
X153883081Y-129090114D01*
X153880169Y-129092997D01*
X153043686Y-129894735D01*
X153040683Y-129897521D01*
X152178575Y-130671640D01*
X152175482Y-130674328D01*
X151288650Y-131420019D01*
X151285472Y-131422604D01*
X150374877Y-132139059D01*
X150371616Y-132141540D01*
X149438214Y-132828009D01*
X149434875Y-132830382D01*
X148479638Y-133486146D01*
X148476223Y-133488410D01*
X147500152Y-134112783D01*
X147496665Y-134114934D01*
X146500843Y-134707225D01*
X146497288Y-134709262D01*
X145482719Y-135268872D01*
X145479100Y-135270792D01*
X144446864Y-135797126D01*
X144443184Y-135798927D01*
X143394417Y-136291406D01*
X143390681Y-136293087D01*
X142326440Y-136751215D01*
X142322651Y-136752774D01*
X141244044Y-137176073D01*
X141240206Y-137177507D01*
X140148456Y-137565498D01*
X140144574Y-137566807D01*
X139040788Y-137919097D01*
X139036865Y-137920280D01*
X137922167Y-138236510D01*
X137918208Y-138237564D01*
X136793818Y-138517384D01*
X136789827Y-138518308D01*
X135656986Y-138761415D01*
X135652966Y-138762210D01*
X134512766Y-138968366D01*
X134508723Y-138969029D01*
X133362441Y-139138004D01*
X133358379Y-139138535D01*
X132207253Y-139270148D01*
X132203175Y-139270548D01*
X131048305Y-139364672D01*
X131044217Y-139364938D01*
X129886933Y-139421463D01*
X129882838Y-139421596D01*
X128724333Y-139440466D01*
X128720236Y-139440466D01*
X127561731Y-139421661D01*
X127557636Y-139421528D01*
X126400349Y-139365068D01*
X126396261Y-139364802D01*
X125241416Y-139270744D01*
X125237338Y-139270345D01*
X124086174Y-139138793D01*
X124082112Y-139138262D01*
X122935820Y-138969352D01*
X122931777Y-138968689D01*
X122688933Y-138924795D01*
X121791595Y-138762601D01*
X121787575Y-138761807D01*
X120654662Y-138518751D01*
X120650671Y-138517826D01*
X119526323Y-138238082D01*
X119522364Y-138237029D01*
X118407648Y-137920862D01*
X118403725Y-137919680D01*
X117299891Y-137567442D01*
X117296009Y-137566133D01*
X116204237Y-137178204D01*
X116200399Y-137176770D01*
X115121768Y-136753532D01*
X115118011Y-136751986D01*
X114053725Y-136293908D01*
X114049989Y-136292227D01*
X113001184Y-135799802D01*
X112997504Y-135798001D01*
X111965237Y-135271725D01*
X111961618Y-135269805D01*
X111959926Y-135268872D01*
X111724736Y-135139164D01*
X111369827Y-134943431D01*
X110947042Y-134710264D01*
X110943487Y-134708228D01*
X109947586Y-134115966D01*
X109944099Y-134113814D01*
X109162127Y-133613664D01*
X108968027Y-133489517D01*
X108964622Y-133487261D01*
X108934762Y-133466765D01*
X108009344Y-132831546D01*
X108006011Y-132829178D01*
X107072528Y-132142732D01*
X107069272Y-132140254D01*
X107055095Y-132129101D01*
X106158659Y-131423867D01*
X106155487Y-131421288D01*
X106133692Y-131402964D01*
X105751916Y-131081984D01*
X105268602Y-130675635D01*
X105265510Y-130672948D01*
X104403355Y-129898874D01*
X104400351Y-129896087D01*
X103563841Y-129094412D01*
X103560929Y-129091530D01*
X102835391Y-128349474D01*
X102751988Y-128264172D01*
X102747478Y-128259308D01*
X102738608Y-128249222D01*
X102734955Y-128244874D01*
X102674921Y-128170058D01*
X102516074Y-127972098D01*
X102509377Y-127962934D01*
X102376142Y-127762235D01*
X102317520Y-127673930D01*
X102311676Y-127664201D01*
X102310065Y-127661224D01*
X102146630Y-127359117D01*
X102141683Y-127348898D01*
X102138132Y-127340631D01*
X102004773Y-127030186D01*
X102000765Y-127019560D01*
X101935199Y-126818738D01*
X101893102Y-126689799D01*
X101890071Y-126678864D01*
X101812538Y-126340758D01*
X101810506Y-126329614D01*
X101763727Y-125985879D01*
X101762707Y-125974604D01*
X101746917Y-125624745D01*
X101746790Y-125619085D01*
X101746790Y-115179627D01*
X104963290Y-115179627D01*
X104969795Y-115240123D01*
X105020845Y-115376994D01*
X105020845Y-115376995D01*
X105108385Y-115493934D01*
X105225324Y-115581474D01*
X105362196Y-115632524D01*
X105422692Y-115639029D01*
X105422705Y-115639030D01*
X105717290Y-115639030D01*
X106225290Y-115639030D01*
X106519875Y-115639030D01*
X106519887Y-115639029D01*
X106580383Y-115632524D01*
X106717254Y-115581474D01*
X106717255Y-115581474D01*
X106834194Y-115493934D01*
X106921734Y-115376995D01*
X106921734Y-115376994D01*
X106972784Y-115240123D01*
X106979289Y-115179627D01*
X106979290Y-115179615D01*
X106979290Y-113985030D01*
X106225290Y-113985030D01*
X106225290Y-115639030D01*
X105717290Y-115639030D01*
X105717290Y-113985030D01*
X104963290Y-113985030D01*
X104963290Y-115179627D01*
X101746790Y-115179627D01*
X101746790Y-112282432D01*
X104963290Y-112282432D01*
X104963290Y-113477030D01*
X105717290Y-113477030D01*
X106225290Y-113477030D01*
X106979290Y-113477030D01*
X106979290Y-112282444D01*
X106979289Y-112282432D01*
X106972784Y-112221936D01*
X106921734Y-112085065D01*
X106921734Y-112085064D01*
X106834194Y-111968125D01*
X106717255Y-111880585D01*
X106580383Y-111829535D01*
X106519887Y-111823030D01*
X106225290Y-111823030D01*
X106225290Y-113477030D01*
X105717290Y-113477030D01*
X105717290Y-111823030D01*
X105422692Y-111823030D01*
X105362196Y-111829535D01*
X105225325Y-111880585D01*
X105225324Y-111880585D01*
X105108385Y-111968125D01*
X105020845Y-112085064D01*
X105020845Y-112085065D01*
X104969795Y-112221936D01*
X104963290Y-112282432D01*
X101746790Y-112282432D01*
X101746790Y-109379627D01*
X104963290Y-109379627D01*
X104969795Y-109440123D01*
X105020845Y-109576994D01*
X105020845Y-109576995D01*
X105108385Y-109693934D01*
X105225324Y-109781474D01*
X105362196Y-109832524D01*
X105422692Y-109839029D01*
X105422705Y-109839030D01*
X105717290Y-109839030D01*
X106225290Y-109839030D01*
X106519875Y-109839030D01*
X106519887Y-109839029D01*
X106580383Y-109832524D01*
X106717254Y-109781474D01*
X106717255Y-109781474D01*
X106834194Y-109693934D01*
X106921734Y-109576995D01*
X106921734Y-109576994D01*
X106972784Y-109440123D01*
X106979289Y-109379627D01*
X106979290Y-109379615D01*
X106979290Y-108185030D01*
X106225290Y-108185030D01*
X106225290Y-109839030D01*
X105717290Y-109839030D01*
X105717290Y-108185030D01*
X104963290Y-108185030D01*
X104963290Y-109379627D01*
X101746790Y-109379627D01*
X101746790Y-106482432D01*
X104963290Y-106482432D01*
X104963290Y-107677030D01*
X105717290Y-107677030D01*
X106225290Y-107677030D01*
X106979290Y-107677030D01*
X106979290Y-106482444D01*
X106979289Y-106482432D01*
X106972784Y-106421936D01*
X106921734Y-106285065D01*
X106921734Y-106285064D01*
X106834194Y-106168125D01*
X106717255Y-106080585D01*
X106580383Y-106029535D01*
X106519887Y-106023030D01*
X106225290Y-106023030D01*
X106225290Y-107677030D01*
X105717290Y-107677030D01*
X105717290Y-106023030D01*
X105422692Y-106023030D01*
X105362196Y-106029535D01*
X105225325Y-106080585D01*
X105225324Y-106080585D01*
X105108385Y-106168125D01*
X105020845Y-106285064D01*
X105020845Y-106285065D01*
X104969795Y-106421936D01*
X104963290Y-106482432D01*
X101746790Y-106482432D01*
X101746790Y-104920457D01*
X101746770Y-104920356D01*
X101746770Y-104802249D01*
X101746771Y-104653092D01*
X101710191Y-104048320D01*
X101710190Y-104048308D01*
X101652261Y-103571207D01*
X101651018Y-103560971D01*
X104195790Y-103560971D01*
X104195790Y-103565342D01*
X104195790Y-103801089D01*
X104231293Y-104025245D01*
X104233354Y-104038257D01*
X104236624Y-104048320D01*
X104307554Y-104266619D01*
X104416566Y-104480566D01*
X104557704Y-104674826D01*
X104557706Y-104674828D01*
X104557708Y-104674831D01*
X104727488Y-104844611D01*
X104727491Y-104844613D01*
X104727494Y-104844616D01*
X104921754Y-104985754D01*
X105135701Y-105094766D01*
X105364068Y-105168967D01*
X105601231Y-105206530D01*
X105601234Y-105206530D01*
X105841346Y-105206530D01*
X105841349Y-105206530D01*
X106078512Y-105168967D01*
X106306879Y-105094766D01*
X106520826Y-104985754D01*
X106715086Y-104844616D01*
X106884876Y-104674826D01*
X107026014Y-104480566D01*
X107135026Y-104266619D01*
X107209227Y-104038252D01*
X107246790Y-103801089D01*
X107246790Y-103560971D01*
X107209227Y-103323808D01*
X107135026Y-103095441D01*
X107026014Y-102881494D01*
X106884876Y-102687234D01*
X106884873Y-102687231D01*
X106884871Y-102687228D01*
X106715091Y-102517448D01*
X106715088Y-102517446D01*
X106715086Y-102517444D01*
X106520826Y-102376306D01*
X106306879Y-102267294D01*
X106306876Y-102267293D01*
X106306874Y-102267292D01*
X106078517Y-102193094D01*
X106078513Y-102193093D01*
X106078512Y-102193093D01*
X105841349Y-102155530D01*
X105601231Y-102155530D01*
X105364068Y-102193093D01*
X105364062Y-102193094D01*
X105135705Y-102267292D01*
X105135699Y-102267295D01*
X104921750Y-102376308D01*
X104727491Y-102517446D01*
X104727488Y-102517448D01*
X104557708Y-102687228D01*
X104557706Y-102687231D01*
X104416568Y-102881490D01*
X104307555Y-103095439D01*
X104307552Y-103095445D01*
X104233354Y-103323802D01*
X104233353Y-103323807D01*
X104233353Y-103323808D01*
X104195790Y-103560971D01*
X101651018Y-103560971D01*
X101637163Y-103446870D01*
X101637162Y-103446863D01*
X101637162Y-103446860D01*
X101527951Y-102850907D01*
X101382957Y-102262635D01*
X101202708Y-101684191D01*
X100987862Y-101117686D01*
X100941345Y-101014328D01*
X100858736Y-100830777D01*
X100739207Y-100565195D01*
X100739203Y-100565187D01*
X100739203Y-100565186D01*
X100457639Y-100028708D01*
X100457632Y-100028697D01*
X100363630Y-99873197D01*
X100144197Y-99510210D01*
X99800020Y-99011582D01*
X99426365Y-98534645D01*
X99426359Y-98534638D01*
X99426344Y-98534620D01*
X99024601Y-98081145D01*
X99024580Y-98081123D01*
X98596184Y-97652727D01*
X98142669Y-97250947D01*
X97665723Y-96877283D01*
X97207359Y-96560898D01*
X97167112Y-96533117D01*
X97167098Y-96533108D01*
X96648607Y-96219669D01*
X96112137Y-95938108D01*
X96112135Y-95938107D01*
X95559650Y-95689454D01*
X95559636Y-95689448D01*
X95559632Y-95689446D01*
X95559618Y-95689440D01*
X95559602Y-95689434D01*
X94993129Y-95474599D01*
X94414688Y-95294350D01*
X94414684Y-95294349D01*
X93826413Y-95149353D01*
X93826409Y-95149352D01*
X93826404Y-95149351D01*
X93230456Y-95040140D01*
X93230449Y-95040139D01*
X92629010Y-94967111D01*
X92024230Y-94930530D01*
X92024229Y-94930530D01*
X91731852Y-94930530D01*
X87225412Y-94930530D01*
X87217171Y-94930260D01*
X86971809Y-94914177D01*
X86955468Y-94912026D01*
X86718349Y-94864859D01*
X86702430Y-94860593D01*
X86473499Y-94782882D01*
X86458279Y-94776578D01*
X86241444Y-94669647D01*
X86227171Y-94661406D01*
X86026152Y-94527090D01*
X86013084Y-94517063D01*
X85831304Y-94357649D01*
X85819660Y-94346005D01*
X85819637Y-94345979D01*
X85660251Y-94164235D01*
X85650220Y-94151161D01*
X85540666Y-93987204D01*
X85540665Y-93987203D01*
X85515903Y-93950144D01*
X85507661Y-93935870D01*
X85400732Y-93719044D01*
X85394425Y-93703818D01*
X85316707Y-93474878D01*
X85312446Y-93458978D01*
X85265275Y-93221842D01*
X85263125Y-93205509D01*
X85253418Y-93057444D01*
X85247060Y-92960452D01*
X85246790Y-92952210D01*
X85246790Y-91441348D01*
X91837890Y-91441348D01*
X91837890Y-91614712D01*
X91865010Y-91785942D01*
X91865011Y-91785947D01*
X91888075Y-91856930D01*
X91918582Y-91950821D01*
X91971993Y-92055645D01*
X91997290Y-92105293D01*
X92099190Y-92245546D01*
X92221773Y-92368129D01*
X92265579Y-92399956D01*
X92362030Y-92470032D01*
X92516499Y-92548738D01*
X92681372Y-92602308D01*
X92681373Y-92602308D01*
X92681378Y-92602310D01*
X92852608Y-92629430D01*
X92852611Y-92629430D01*
X93025969Y-92629430D01*
X93025972Y-92629430D01*
X93197202Y-92602310D01*
X93362081Y-92548738D01*
X93516550Y-92470032D01*
X93656804Y-92368131D01*
X93779391Y-92245544D01*
X93881292Y-92105290D01*
X93959998Y-91950821D01*
X94013570Y-91785942D01*
X94040690Y-91614712D01*
X94040690Y-91441348D01*
X94013570Y-91270118D01*
X93959998Y-91105239D01*
X93881292Y-90950770D01*
X93854063Y-90913293D01*
X94938790Y-90913293D01*
X94938790Y-91142766D01*
X94968740Y-91370261D01*
X94968742Y-91370268D01*
X95028132Y-91591917D01*
X95115946Y-91803918D01*
X95115947Y-91803919D01*
X95115952Y-91803930D01*
X95230676Y-92002638D01*
X95230681Y-92002645D01*
X95370363Y-92184682D01*
X95370382Y-92184703D01*
X95532616Y-92346937D01*
X95532637Y-92346956D01*
X95714674Y-92486638D01*
X95714681Y-92486643D01*
X95913389Y-92601367D01*
X95913393Y-92601368D01*
X95913402Y-92601374D01*
X96125403Y-92689188D01*
X96347052Y-92748578D01*
X96347056Y-92748578D01*
X96347058Y-92748579D01*
X96405688Y-92756297D01*
X96574556Y-92778530D01*
X96574563Y-92778530D01*
X96804017Y-92778530D01*
X96804024Y-92778530D01*
X97009635Y-92751460D01*
X97031521Y-92748579D01*
X97031521Y-92748578D01*
X97031528Y-92748578D01*
X97253177Y-92689188D01*
X97465178Y-92601374D01*
X97663902Y-92486641D01*
X97845951Y-92346949D01*
X98008209Y-92184691D01*
X98147901Y-92002642D01*
X98262634Y-91803918D01*
X98350448Y-91591917D01*
X98409838Y-91370268D01*
X98439790Y-91142764D01*
X98439790Y-90913296D01*
X98417097Y-90740929D01*
X98409839Y-90685798D01*
X98409838Y-90685796D01*
X98409838Y-90685792D01*
X98384287Y-90590432D01*
X102979290Y-90590432D01*
X102979290Y-91235030D01*
X103906587Y-91235030D01*
X103871365Y-91296037D01*
X103837290Y-91423204D01*
X103837290Y-91554856D01*
X103871365Y-91682023D01*
X103906587Y-91743030D01*
X102979290Y-91743030D01*
X102979290Y-92387627D01*
X102985795Y-92448123D01*
X103036845Y-92584994D01*
X103036845Y-92584995D01*
X103124385Y-92701934D01*
X103241324Y-92789474D01*
X103378199Y-92840525D01*
X103420270Y-92845048D01*
X103482576Y-92841704D01*
X103542703Y-92875234D01*
X104212341Y-93544872D01*
X104144297Y-93563105D01*
X104030283Y-93628931D01*
X103937191Y-93722023D01*
X103871365Y-93836037D01*
X103853132Y-93904081D01*
X103213912Y-93264861D01*
X103213911Y-93264861D01*
X103175824Y-93317283D01*
X103078783Y-93507737D01*
X103078780Y-93507743D01*
X103012730Y-93711026D01*
X102979290Y-93922156D01*
X102979290Y-94135903D01*
X103012730Y-94347033D01*
X103078780Y-94550316D01*
X103078783Y-94550322D01*
X103175825Y-94740778D01*
X103175826Y-94740780D01*
X103213910Y-94793197D01*
X103213911Y-94793198D01*
X103853131Y-94153977D01*
X103871365Y-94222023D01*
X103937191Y-94336037D01*
X104030283Y-94429129D01*
X104144297Y-94494955D01*
X104212341Y-94513187D01*
X103602089Y-95123439D01*
X103669116Y-95233486D01*
X103670743Y-95239569D01*
X103674968Y-95244238D01*
X103679811Y-95273456D01*
X103687468Y-95302069D01*
X103685548Y-95308065D01*
X103686579Y-95314279D01*
X103674853Y-95341484D01*
X103665828Y-95369687D01*
X103660971Y-95373693D01*
X103658479Y-95379478D01*
X103629502Y-95404590D01*
X103629549Y-95404654D01*
X103628810Y-95405190D01*
X103627355Y-95406452D01*
X103625559Y-95407552D01*
X103573121Y-95445651D01*
X103573121Y-95445652D01*
X104212341Y-96084872D01*
X104144297Y-96103105D01*
X104030283Y-96168931D01*
X103937191Y-96262023D01*
X103871365Y-96376037D01*
X103853132Y-96444081D01*
X103213912Y-95804861D01*
X103213911Y-95804861D01*
X103175824Y-95857283D01*
X103078783Y-96047737D01*
X103078780Y-96047743D01*
X103012730Y-96251026D01*
X102979290Y-96462156D01*
X102979290Y-96675903D01*
X103012730Y-96887033D01*
X103078780Y-97090316D01*
X103078783Y-97090322D01*
X103175825Y-97280778D01*
X103175826Y-97280780D01*
X103213910Y-97333197D01*
X103213911Y-97333198D01*
X103853131Y-96693977D01*
X103871365Y-96762023D01*
X103937191Y-96876037D01*
X104030283Y-96969129D01*
X104144297Y-97034955D01*
X104212341Y-97053187D01*
X103602089Y-97663439D01*
X103669116Y-97773486D01*
X103670743Y-97779569D01*
X103674968Y-97784238D01*
X103679811Y-97813456D01*
X103687468Y-97842069D01*
X103685548Y-97848065D01*
X103686579Y-97854279D01*
X103674853Y-97881484D01*
X103665828Y-97909687D01*
X103660971Y-97913693D01*
X103658479Y-97919478D01*
X103629502Y-97944590D01*
X103629549Y-97944654D01*
X103628810Y-97945190D01*
X103627355Y-97946452D01*
X103625559Y-97947552D01*
X103573121Y-97985651D01*
X103573121Y-97985652D01*
X104212341Y-98624872D01*
X104144297Y-98643105D01*
X104030283Y-98708931D01*
X103937191Y-98802023D01*
X103871365Y-98916037D01*
X103853132Y-98984081D01*
X103213912Y-98344861D01*
X103213911Y-98344861D01*
X103175824Y-98397283D01*
X103078783Y-98587737D01*
X103078780Y-98587743D01*
X103012730Y-98791026D01*
X102979290Y-99002156D01*
X102979290Y-99215903D01*
X103012730Y-99427033D01*
X103078780Y-99630316D01*
X103078783Y-99630322D01*
X103175825Y-99820778D01*
X103175826Y-99820780D01*
X103213910Y-99873197D01*
X103213911Y-99873198D01*
X103853131Y-99233977D01*
X103871365Y-99302023D01*
X103937191Y-99416037D01*
X104030283Y-99509129D01*
X104144297Y-99574955D01*
X104212341Y-99593187D01*
X103573121Y-100232408D01*
X103625539Y-100270493D01*
X103625541Y-100270494D01*
X103815997Y-100367536D01*
X103816003Y-100367539D01*
X104019286Y-100433589D01*
X104230416Y-100467030D01*
X104444164Y-100467030D01*
X104655293Y-100433589D01*
X104858576Y-100367539D01*
X104858582Y-100367536D01*
X105049040Y-100270493D01*
X105101457Y-100232408D01*
X105101457Y-100232406D01*
X104462238Y-99593187D01*
X104530283Y-99574955D01*
X104644297Y-99509129D01*
X104737389Y-99416037D01*
X104803215Y-99302023D01*
X104821447Y-99233978D01*
X105460666Y-99873197D01*
X105460668Y-99873197D01*
X105498753Y-99820780D01*
X105595796Y-99630322D01*
X105595799Y-99630316D01*
X105661849Y-99427033D01*
X105695290Y-99215903D01*
X105695290Y-99002156D01*
X105661849Y-98791026D01*
X105595799Y-98587743D01*
X105595796Y-98587737D01*
X105498754Y-98397281D01*
X105498753Y-98397279D01*
X105460668Y-98344861D01*
X104821447Y-98984081D01*
X104803215Y-98916037D01*
X104737389Y-98802023D01*
X104644297Y-98708931D01*
X104530283Y-98643105D01*
X104462237Y-98624871D01*
X105101458Y-97985651D01*
X105101457Y-97985650D01*
X105049039Y-97947565D01*
X105047240Y-97946463D01*
X105046699Y-97945865D01*
X105045032Y-97944654D01*
X105045286Y-97944303D01*
X104999608Y-97893816D01*
X104988001Y-97823775D01*
X105016104Y-97758577D01*
X105045078Y-97733472D01*
X105045031Y-97733407D01*
X105045788Y-97732856D01*
X105047248Y-97731592D01*
X105049040Y-97730493D01*
X105101457Y-97692408D01*
X105101457Y-97692406D01*
X104462238Y-97053187D01*
X104530283Y-97034955D01*
X104644297Y-96969129D01*
X104737389Y-96876037D01*
X104803215Y-96762023D01*
X104821447Y-96693978D01*
X105460666Y-97333197D01*
X105460668Y-97333197D01*
X105498753Y-97280780D01*
X105595796Y-97090322D01*
X105595799Y-97090316D01*
X105661849Y-96887033D01*
X105695290Y-96675903D01*
X105695290Y-96462156D01*
X105661849Y-96251026D01*
X105595799Y-96047743D01*
X105595796Y-96047737D01*
X105498754Y-95857281D01*
X105498753Y-95857279D01*
X105460668Y-95804861D01*
X104821447Y-96444081D01*
X104803215Y-96376037D01*
X104737389Y-96262023D01*
X104644297Y-96168931D01*
X104530283Y-96103105D01*
X104462237Y-96084871D01*
X105101458Y-95445651D01*
X105101457Y-95445650D01*
X105049039Y-95407565D01*
X105047240Y-95406463D01*
X105046699Y-95405865D01*
X105045032Y-95404654D01*
X105045286Y-95404303D01*
X104999608Y-95353816D01*
X104988001Y-95283775D01*
X105016104Y-95218577D01*
X105045078Y-95193472D01*
X105045031Y-95193407D01*
X105045788Y-95192856D01*
X105047248Y-95191592D01*
X105049040Y-95190493D01*
X105101457Y-95152408D01*
X105101457Y-95152406D01*
X104462238Y-94513187D01*
X104530283Y-94494955D01*
X104644297Y-94429129D01*
X104737389Y-94336037D01*
X104803215Y-94222023D01*
X104821447Y-94153978D01*
X105460666Y-94793197D01*
X105460668Y-94793197D01*
X105498753Y-94740780D01*
X105595796Y-94550322D01*
X105595799Y-94550316D01*
X105661849Y-94347033D01*
X105695290Y-94135903D01*
X105695290Y-93922156D01*
X105661849Y-93711026D01*
X105595799Y-93507743D01*
X105595796Y-93507737D01*
X105498754Y-93317281D01*
X105498753Y-93317279D01*
X105460668Y-93264861D01*
X104821447Y-93904081D01*
X104803215Y-93836037D01*
X104737389Y-93722023D01*
X104644297Y-93628931D01*
X104530283Y-93563105D01*
X104462237Y-93544871D01*
X105131873Y-92875235D01*
X105194186Y-92841210D01*
X105254760Y-92844999D01*
X105296377Y-92840526D01*
X105296384Y-92840524D01*
X105433254Y-92789474D01*
X105433255Y-92789474D01*
X105550194Y-92701934D01*
X105637734Y-92584995D01*
X105637734Y-92584994D01*
X105688784Y-92448123D01*
X105695289Y-92387627D01*
X105695290Y-92387615D01*
X105695290Y-91743030D01*
X104767993Y-91743030D01*
X104803215Y-91682023D01*
X104837290Y-91554856D01*
X104837290Y-91423204D01*
X104803215Y-91296037D01*
X104767993Y-91235030D01*
X105695290Y-91235030D01*
X105695290Y-90590444D01*
X105695289Y-90590432D01*
X105688784Y-90529936D01*
X105637734Y-90393065D01*
X105637734Y-90393064D01*
X105550194Y-90276125D01*
X105433255Y-90188585D01*
X105296383Y-90137535D01*
X105235887Y-90131030D01*
X104591290Y-90131030D01*
X104591290Y-91058327D01*
X104530283Y-91023105D01*
X104403116Y-90989030D01*
X104271464Y-90989030D01*
X104144297Y-91023105D01*
X104083290Y-91058327D01*
X104083290Y-90131030D01*
X103438692Y-90131030D01*
X103378196Y-90137535D01*
X103241325Y-90188585D01*
X103241324Y-90188585D01*
X103124385Y-90276125D01*
X103036845Y-90393064D01*
X103036845Y-90393065D01*
X102985795Y-90529936D01*
X102979290Y-90590432D01*
X98384287Y-90590432D01*
X98350448Y-90464143D01*
X98262634Y-90252142D01*
X98262628Y-90252133D01*
X98262627Y-90252129D01*
X98147903Y-90053421D01*
X98147898Y-90053414D01*
X98008216Y-89871377D01*
X98008197Y-89871356D01*
X97845963Y-89709122D01*
X97845942Y-89709103D01*
X97663905Y-89569421D01*
X97663898Y-89569416D01*
X97465190Y-89454692D01*
X97465182Y-89454688D01*
X97465178Y-89454686D01*
X97253177Y-89366872D01*
X97031528Y-89307482D01*
X97031521Y-89307480D01*
X96804026Y-89277530D01*
X96804024Y-89277530D01*
X96574556Y-89277530D01*
X96574553Y-89277530D01*
X96347058Y-89307480D01*
X96125403Y-89366872D01*
X95913400Y-89454687D01*
X95913389Y-89454692D01*
X95714681Y-89569416D01*
X95714674Y-89569421D01*
X95532637Y-89709103D01*
X95532616Y-89709122D01*
X95370382Y-89871356D01*
X95370363Y-89871377D01*
X95230681Y-90053414D01*
X95230676Y-90053421D01*
X95115952Y-90252129D01*
X95115947Y-90252140D01*
X95115946Y-90252142D01*
X95093993Y-90305142D01*
X95028132Y-90464143D01*
X94968740Y-90685798D01*
X94938790Y-90913293D01*
X93854063Y-90913293D01*
X93779391Y-90810516D01*
X93779389Y-90810513D01*
X93656806Y-90687930D01*
X93516553Y-90586030D01*
X93516552Y-90586029D01*
X93516550Y-90586028D01*
X93362081Y-90507322D01*
X93362078Y-90507321D01*
X93362076Y-90507320D01*
X93197205Y-90453751D01*
X93197209Y-90453751D01*
X93165331Y-90448702D01*
X93025972Y-90426630D01*
X92852608Y-90426630D01*
X92681378Y-90453750D01*
X92681372Y-90453751D01*
X92516503Y-90507320D01*
X92516497Y-90507323D01*
X92362026Y-90586030D01*
X92221773Y-90687930D01*
X92099190Y-90810513D01*
X91997290Y-90950766D01*
X91918583Y-91105237D01*
X91918580Y-91105243D01*
X91865011Y-91270112D01*
X91865010Y-91270117D01*
X91865010Y-91270118D01*
X91837890Y-91441348D01*
X85246790Y-91441348D01*
X85246790Y-85899234D01*
X90974290Y-85899234D01*
X90974290Y-86156825D01*
X91007910Y-86412197D01*
X91007911Y-86412203D01*
X91007912Y-86412205D01*
X91074580Y-86661014D01*
X91173154Y-86898992D01*
X91173155Y-86898993D01*
X91173160Y-86899004D01*
X91301949Y-87122073D01*
X91458750Y-87326418D01*
X91458769Y-87326439D01*
X91640880Y-87508550D01*
X91640890Y-87508559D01*
X91640896Y-87508565D01*
X91640899Y-87508567D01*
X91640901Y-87508569D01*
X91845246Y-87665370D01*
X92068315Y-87794159D01*
X92068319Y-87794160D01*
X92068328Y-87794166D01*
X92306306Y-87892740D01*
X92555115Y-87959408D01*
X92555121Y-87959408D01*
X92555122Y-87959409D01*
X92584424Y-87963266D01*
X92810497Y-87993030D01*
X92810504Y-87993030D01*
X93068076Y-87993030D01*
X93068083Y-87993030D01*
X93323465Y-87959408D01*
X93572274Y-87892740D01*
X93810252Y-87794166D01*
X94033328Y-87665373D01*
X94033328Y-87665372D01*
X94033333Y-87665370D01*
X94197185Y-87539641D01*
X94237684Y-87508565D01*
X94419825Y-87326424D01*
X94487919Y-87237682D01*
X94576630Y-87122073D01*
X94674820Y-86952004D01*
X94705426Y-86898992D01*
X94804000Y-86661014D01*
X94870668Y-86412205D01*
X94904290Y-86156823D01*
X94904290Y-85913293D01*
X97138790Y-85913293D01*
X97138790Y-86142766D01*
X97168740Y-86370261D01*
X97168742Y-86370268D01*
X97228132Y-86591917D01*
X97315946Y-86803918D01*
X97315947Y-86803919D01*
X97315952Y-86803930D01*
X97430676Y-87002638D01*
X97430681Y-87002645D01*
X97570363Y-87184682D01*
X97570382Y-87184703D01*
X97732616Y-87346937D01*
X97732637Y-87346956D01*
X97914674Y-87486638D01*
X97914681Y-87486643D01*
X98113389Y-87601367D01*
X98113393Y-87601368D01*
X98113402Y-87601374D01*
X98325403Y-87689188D01*
X98547052Y-87748578D01*
X98547056Y-87748578D01*
X98547058Y-87748579D01*
X98605688Y-87756297D01*
X98774556Y-87778530D01*
X98774563Y-87778530D01*
X99004017Y-87778530D01*
X99004024Y-87778530D01*
X99209635Y-87751460D01*
X99231521Y-87748579D01*
X99231521Y-87748578D01*
X99231528Y-87748578D01*
X99453177Y-87689188D01*
X99665178Y-87601374D01*
X99863902Y-87486641D01*
X100045951Y-87346949D01*
X100208209Y-87184691D01*
X100347901Y-87002642D01*
X100462634Y-86803918D01*
X100550448Y-86591917D01*
X100609838Y-86370268D01*
X100639790Y-86142764D01*
X100639790Y-85913296D01*
X100617557Y-85744428D01*
X100609839Y-85685798D01*
X100609838Y-85685796D01*
X100609838Y-85685792D01*
X100550448Y-85464143D01*
X100462634Y-85252142D01*
X100462628Y-85252133D01*
X100462627Y-85252129D01*
X100347903Y-85053421D01*
X100347898Y-85053414D01*
X100208216Y-84871377D01*
X100208197Y-84871356D01*
X100045963Y-84709122D01*
X100045942Y-84709103D01*
X99863905Y-84569421D01*
X99863898Y-84569416D01*
X99665190Y-84454692D01*
X99665182Y-84454688D01*
X99665178Y-84454686D01*
X99453177Y-84366872D01*
X99293458Y-84324076D01*
X99231521Y-84307480D01*
X99004026Y-84277530D01*
X99004024Y-84277530D01*
X98774556Y-84277530D01*
X98774553Y-84277530D01*
X98547058Y-84307480D01*
X98325403Y-84366872D01*
X98113400Y-84454687D01*
X98113389Y-84454692D01*
X97914681Y-84569416D01*
X97914674Y-84569421D01*
X97732637Y-84709103D01*
X97732616Y-84709122D01*
X97570382Y-84871356D01*
X97570363Y-84871377D01*
X97430681Y-85053414D01*
X97430676Y-85053421D01*
X97315952Y-85252129D01*
X97315947Y-85252140D01*
X97315946Y-85252142D01*
X97249324Y-85412982D01*
X97228132Y-85464143D01*
X97168740Y-85685798D01*
X97138790Y-85913293D01*
X94904290Y-85913293D01*
X94904290Y-85899237D01*
X94870668Y-85643855D01*
X94804000Y-85395046D01*
X94705426Y-85157068D01*
X94705420Y-85157059D01*
X94705419Y-85157055D01*
X94576630Y-84933986D01*
X94419829Y-84729641D01*
X94419827Y-84729639D01*
X94419825Y-84729636D01*
X94419819Y-84729630D01*
X94419810Y-84729620D01*
X94237699Y-84547509D01*
X94237678Y-84547490D01*
X94033333Y-84390689D01*
X93810264Y-84261900D01*
X93810256Y-84261896D01*
X93810252Y-84261894D01*
X93572274Y-84163320D01*
X93323465Y-84096652D01*
X93323463Y-84096651D01*
X93323457Y-84096650D01*
X93068085Y-84063030D01*
X93068083Y-84063030D01*
X92810497Y-84063030D01*
X92810494Y-84063030D01*
X92555122Y-84096650D01*
X92357323Y-84149650D01*
X92306306Y-84163320D01*
X92167922Y-84220641D01*
X92068326Y-84261895D01*
X92068315Y-84261900D01*
X91845246Y-84390689D01*
X91640901Y-84547490D01*
X91640880Y-84547509D01*
X91458769Y-84729620D01*
X91458750Y-84729641D01*
X91301949Y-84933986D01*
X91173160Y-85157055D01*
X91173155Y-85157066D01*
X91173154Y-85157068D01*
X91151201Y-85210068D01*
X91074580Y-85395046D01*
X91007910Y-85643862D01*
X90974290Y-85899234D01*
X85246790Y-85899234D01*
X85246790Y-80441348D01*
X91837890Y-80441348D01*
X91837890Y-80614712D01*
X91865010Y-80785942D01*
X91865011Y-80785947D01*
X91907364Y-80916296D01*
X91918582Y-80950821D01*
X91997288Y-81105290D01*
X91997290Y-81105293D01*
X92099190Y-81245546D01*
X92221773Y-81368129D01*
X92246643Y-81386198D01*
X92362030Y-81470032D01*
X92516499Y-81548738D01*
X92681372Y-81602308D01*
X92681373Y-81602308D01*
X92681378Y-81602310D01*
X92852608Y-81629430D01*
X92852611Y-81629430D01*
X93025969Y-81629430D01*
X93025972Y-81629430D01*
X93197202Y-81602310D01*
X93362081Y-81548738D01*
X93516550Y-81470032D01*
X93656804Y-81368131D01*
X93779391Y-81245544D01*
X93881292Y-81105290D01*
X93906927Y-81054979D01*
X100819429Y-81054979D01*
X100840238Y-81199713D01*
X100900981Y-81332722D01*
X100939201Y-81380151D01*
X100939206Y-81380156D01*
X100939215Y-81380166D01*
X102210051Y-82651002D01*
X102210060Y-82651010D01*
X102210067Y-82651017D01*
X102257496Y-82689237D01*
X102390505Y-82749980D01*
X102535239Y-82770789D01*
X102679973Y-82749980D01*
X102794449Y-82697700D01*
X102864721Y-82687596D01*
X102929302Y-82717089D01*
X102967686Y-82776815D01*
X102972790Y-82812314D01*
X102972790Y-82957946D01*
X102983150Y-83023353D01*
X103006242Y-83169151D01*
X103058935Y-83331324D01*
X103072318Y-83372513D01*
X103169396Y-83563039D01*
X103169398Y-83563042D01*
X103197292Y-83601435D01*
X103295084Y-83736034D01*
X103295086Y-83736036D01*
X103295088Y-83736039D01*
X103446280Y-83887231D01*
X103446283Y-83887233D01*
X103446286Y-83887236D01*
X103619281Y-84012924D01*
X103809807Y-84110002D01*
X104013168Y-84176077D01*
X104013169Y-84176077D01*
X104013174Y-84176079D01*
X104224374Y-84209530D01*
X104224377Y-84209530D01*
X104438203Y-84209530D01*
X104438206Y-84209530D01*
X104649406Y-84176079D01*
X104649426Y-84176072D01*
X104650656Y-84175778D01*
X104651147Y-84175802D01*
X104654295Y-84175304D01*
X104654399Y-84175965D01*
X104721564Y-84179323D01*
X104779299Y-84220641D01*
X104805531Y-84286614D01*
X104802857Y-84324042D01*
X104803067Y-84324076D01*
X104802681Y-84326512D01*
X104802597Y-84327690D01*
X104802295Y-84328946D01*
X104802292Y-84328965D01*
X104768841Y-84540165D01*
X104768841Y-84753997D01*
X104795827Y-84924377D01*
X104802293Y-84965202D01*
X104868367Y-85168559D01*
X104868369Y-85168564D01*
X104965447Y-85359090D01*
X104965449Y-85359093D01*
X104996523Y-85401862D01*
X105091135Y-85532085D01*
X105091137Y-85532087D01*
X105091139Y-85532090D01*
X105242331Y-85683282D01*
X105242334Y-85683284D01*
X105242337Y-85683287D01*
X105373036Y-85778245D01*
X105406532Y-85802582D01*
X105415332Y-85808975D01*
X105425043Y-85813923D01*
X105476657Y-85862667D01*
X105493841Y-85926189D01*
X105493841Y-88714687D01*
X105493841Y-88839475D01*
X105518186Y-88961866D01*
X105565941Y-89077156D01*
X105635270Y-89180914D01*
X105635272Y-89180916D01*
X109300885Y-92846529D01*
X109334911Y-92908841D01*
X109337790Y-92935624D01*
X109337790Y-100197030D01*
X109317788Y-100265151D01*
X109264132Y-100311644D01*
X109211790Y-100323030D01*
X108975290Y-100323030D01*
X108975290Y-101250327D01*
X108914283Y-101215105D01*
X108787116Y-101181030D01*
X108655464Y-101181030D01*
X108528297Y-101215105D01*
X108467290Y-101250327D01*
X108467290Y-100323030D01*
X107822692Y-100323030D01*
X107762196Y-100329535D01*
X107625325Y-100380585D01*
X107625324Y-100380585D01*
X107508385Y-100468125D01*
X107420845Y-100585064D01*
X107420845Y-100585065D01*
X107369795Y-100721936D01*
X107363290Y-100782432D01*
X107363290Y-101427030D01*
X108290587Y-101427030D01*
X108255365Y-101488037D01*
X108221290Y-101615204D01*
X108221290Y-101746856D01*
X108255365Y-101874023D01*
X108290587Y-101935030D01*
X107363290Y-101935030D01*
X107363290Y-102579627D01*
X107369795Y-102640123D01*
X107420845Y-102776994D01*
X107420845Y-102776995D01*
X107508385Y-102893934D01*
X107625324Y-102981474D01*
X107762196Y-103032524D01*
X107822692Y-103039029D01*
X107822705Y-103039030D01*
X108467290Y-103039030D01*
X108467290Y-102111732D01*
X108528297Y-102146955D01*
X108655464Y-102181030D01*
X108787116Y-102181030D01*
X108914283Y-102146955D01*
X108975290Y-102111732D01*
X108975290Y-103039030D01*
X109479196Y-103039030D01*
X109547317Y-103059032D01*
X109568291Y-103075935D01*
X110889069Y-104396714D01*
X110923095Y-104459026D01*
X110918030Y-104529842D01*
X110875483Y-104586677D01*
X110848194Y-104602217D01*
X110790956Y-104625926D01*
X110790954Y-104625927D01*
X110642159Y-104725349D01*
X110642152Y-104725354D01*
X110515614Y-104851892D01*
X110515609Y-104851899D01*
X110416189Y-105000692D01*
X110347704Y-105166026D01*
X110312790Y-105341548D01*
X110312790Y-105341551D01*
X110312790Y-105520509D01*
X110347703Y-105696030D01*
X110347704Y-105696032D01*
X110347705Y-105696037D01*
X110410780Y-105848311D01*
X110418370Y-105918901D01*
X110386591Y-105982388D01*
X110325533Y-106018616D01*
X110294372Y-106022530D01*
X109422640Y-106022530D01*
X109362093Y-106029039D01*
X109362085Y-106029041D01*
X109225087Y-106080140D01*
X109225082Y-106080142D01*
X109108028Y-106167768D01*
X109020402Y-106284822D01*
X109020400Y-106284827D01*
X108969301Y-106421825D01*
X108969299Y-106421833D01*
X108962790Y-106482380D01*
X108962790Y-109379679D01*
X108969299Y-109440226D01*
X108969301Y-109440234D01*
X109020400Y-109577232D01*
X109020402Y-109577237D01*
X109108028Y-109694291D01*
X109225086Y-109781919D01*
X109255821Y-109793383D01*
X109312658Y-109835929D01*
X109337469Y-109902449D01*
X109337790Y-109911439D01*
X109337790Y-111750621D01*
X109317788Y-111818742D01*
X109264132Y-111865235D01*
X109255824Y-111868676D01*
X109225085Y-111880141D01*
X109225082Y-111880142D01*
X109108028Y-111967768D01*
X109020402Y-112084822D01*
X109020400Y-112084827D01*
X108969301Y-112221825D01*
X108969299Y-112221833D01*
X108962790Y-112282380D01*
X108962790Y-113791436D01*
X108942788Y-113859557D01*
X108925885Y-113880531D01*
X105929221Y-116877194D01*
X105929216Y-116877201D01*
X105859891Y-116980953D01*
X105812136Y-117096242D01*
X105787790Y-117218633D01*
X105787790Y-118759717D01*
X105767788Y-118827838D01*
X105714132Y-118874331D01*
X105643858Y-118884435D01*
X105579278Y-118854941D01*
X105549523Y-118816920D01*
X105498754Y-118717281D01*
X105498753Y-118717279D01*
X105460668Y-118664861D01*
X104821447Y-119304081D01*
X104803215Y-119236037D01*
X104737389Y-119122023D01*
X104644297Y-119028931D01*
X104530283Y-118963105D01*
X104462237Y-118944871D01*
X105101458Y-118305651D01*
X105101457Y-118305650D01*
X105049040Y-118267566D01*
X105049038Y-118267565D01*
X104858582Y-118170523D01*
X104858576Y-118170520D01*
X104655293Y-118104470D01*
X104444164Y-118071030D01*
X104230416Y-118071030D01*
X104019286Y-118104470D01*
X103816003Y-118170520D01*
X103815997Y-118170523D01*
X103625543Y-118267564D01*
X103573121Y-118305651D01*
X103573121Y-118305652D01*
X104212341Y-118944872D01*
X104144297Y-118963105D01*
X104030283Y-119028931D01*
X103937191Y-119122023D01*
X103871365Y-119236037D01*
X103853132Y-119304081D01*
X103213912Y-118664861D01*
X103213911Y-118664861D01*
X103175824Y-118717283D01*
X103078783Y-118907737D01*
X103078780Y-118907743D01*
X103012730Y-119111026D01*
X102979290Y-119322156D01*
X102979290Y-119535903D01*
X103012730Y-119747033D01*
X103078780Y-119950316D01*
X103078783Y-119950322D01*
X103175825Y-120140778D01*
X103175826Y-120140780D01*
X103213910Y-120193197D01*
X103213911Y-120193198D01*
X103853131Y-119553977D01*
X103871365Y-119622023D01*
X103937191Y-119736037D01*
X104030283Y-119829129D01*
X104144297Y-119894955D01*
X104212341Y-119913187D01*
X103602089Y-120523439D01*
X103669116Y-120633486D01*
X103670743Y-120639569D01*
X103674968Y-120644238D01*
X103679811Y-120673456D01*
X103687468Y-120702069D01*
X103685548Y-120708065D01*
X103686579Y-120714279D01*
X103674853Y-120741484D01*
X103665828Y-120769687D01*
X103660971Y-120773693D01*
X103658479Y-120779478D01*
X103629502Y-120804590D01*
X103629549Y-120804654D01*
X103628810Y-120805190D01*
X103627355Y-120806452D01*
X103625559Y-120807552D01*
X103573121Y-120845651D01*
X103573121Y-120845652D01*
X104212341Y-121484872D01*
X104144297Y-121503105D01*
X104030283Y-121568931D01*
X103937191Y-121662023D01*
X103871365Y-121776037D01*
X103853132Y-121844081D01*
X103213912Y-121204861D01*
X103213911Y-121204861D01*
X103175824Y-121257283D01*
X103078783Y-121447737D01*
X103078780Y-121447743D01*
X103012730Y-121651026D01*
X102979290Y-121862156D01*
X102979290Y-122075903D01*
X103012730Y-122287033D01*
X103078780Y-122490316D01*
X103078783Y-122490322D01*
X103175825Y-122680778D01*
X103175826Y-122680780D01*
X103213910Y-122733197D01*
X103213911Y-122733198D01*
X103853131Y-122093977D01*
X103871365Y-122162023D01*
X103937191Y-122276037D01*
X104030283Y-122369129D01*
X104144297Y-122434955D01*
X104212341Y-122453187D01*
X103602089Y-123063439D01*
X103669116Y-123173486D01*
X103670743Y-123179569D01*
X103674968Y-123184238D01*
X103679811Y-123213456D01*
X103687468Y-123242069D01*
X103685548Y-123248065D01*
X103686579Y-123254279D01*
X103674853Y-123281484D01*
X103665828Y-123309687D01*
X103660971Y-123313693D01*
X103658479Y-123319478D01*
X103629502Y-123344590D01*
X103629549Y-123344654D01*
X103628810Y-123345190D01*
X103627355Y-123346452D01*
X103625559Y-123347552D01*
X103573121Y-123385651D01*
X103573121Y-123385652D01*
X104212341Y-124024872D01*
X104144297Y-124043105D01*
X104030283Y-124108931D01*
X103937191Y-124202023D01*
X103871365Y-124316037D01*
X103853132Y-124384081D01*
X103213912Y-123744861D01*
X103213911Y-123744861D01*
X103175824Y-123797283D01*
X103078783Y-123987737D01*
X103078780Y-123987743D01*
X103012730Y-124191026D01*
X102979290Y-124402156D01*
X102979290Y-124615903D01*
X103012730Y-124827033D01*
X103078780Y-125030316D01*
X103078783Y-125030322D01*
X103175825Y-125220778D01*
X103175826Y-125220780D01*
X103213910Y-125273197D01*
X103213911Y-125273198D01*
X103853131Y-124633977D01*
X103871365Y-124702023D01*
X103937191Y-124816037D01*
X104030283Y-124909129D01*
X104144297Y-124974955D01*
X104212341Y-124993187D01*
X103542704Y-125662824D01*
X103480392Y-125696849D01*
X103419814Y-125693060D01*
X103378195Y-125697535D01*
X103241325Y-125748585D01*
X103241324Y-125748585D01*
X103124385Y-125836125D01*
X103036845Y-125953064D01*
X103036845Y-125953065D01*
X102985795Y-126089936D01*
X102979290Y-126150432D01*
X102979290Y-126795030D01*
X103906587Y-126795030D01*
X103871365Y-126856037D01*
X103837290Y-126983204D01*
X103837290Y-127114856D01*
X103871365Y-127242023D01*
X103906587Y-127303030D01*
X102979290Y-127303030D01*
X102979290Y-127947627D01*
X102985795Y-128008123D01*
X103036845Y-128144994D01*
X103036845Y-128144995D01*
X103124385Y-128261934D01*
X103241324Y-128349474D01*
X103378196Y-128400524D01*
X103438692Y-128407029D01*
X103438705Y-128407030D01*
X104083290Y-128407030D01*
X104083290Y-127479732D01*
X104144297Y-127514955D01*
X104271464Y-127549030D01*
X104403116Y-127549030D01*
X104530283Y-127514955D01*
X104591290Y-127479732D01*
X104591290Y-128407030D01*
X105235875Y-128407030D01*
X105235887Y-128407029D01*
X105296383Y-128400524D01*
X105433254Y-128349474D01*
X105433255Y-128349474D01*
X105550194Y-128261934D01*
X105637734Y-128144995D01*
X105637734Y-128144994D01*
X105688784Y-128008123D01*
X105695289Y-127947627D01*
X105695290Y-127947615D01*
X105695290Y-127303030D01*
X104767993Y-127303030D01*
X104803215Y-127242023D01*
X104837290Y-127114856D01*
X104837290Y-126983204D01*
X104803215Y-126856037D01*
X104767993Y-126795030D01*
X105695290Y-126795030D01*
X105695290Y-126650129D01*
X105715292Y-126582008D01*
X105768948Y-126535515D01*
X105839222Y-126525411D01*
X105903802Y-126554905D01*
X105926057Y-126580131D01*
X105929219Y-126584863D01*
X109609219Y-130264863D01*
X109697457Y-130353101D01*
X109801215Y-130422430D01*
X109916505Y-130470185D01*
X110038896Y-130494530D01*
X119899960Y-130494530D01*
X119968081Y-130514532D01*
X120001896Y-130546469D01*
X120033089Y-130589402D01*
X120123222Y-130713460D01*
X120123224Y-130713462D01*
X120123226Y-130713465D01*
X120268854Y-130859093D01*
X120268857Y-130859095D01*
X120268860Y-130859098D01*
X120306342Y-130886330D01*
X120435483Y-130980157D01*
X120511801Y-131019043D01*
X120563416Y-131067792D01*
X120580482Y-131136707D01*
X120557581Y-131203908D01*
X120511802Y-131243576D01*
X120435746Y-131282329D01*
X120435743Y-131282331D01*
X120392915Y-131313446D01*
X120955516Y-131876047D01*
X120908998Y-131888512D01*
X120783582Y-131960920D01*
X120681180Y-132063322D01*
X120608772Y-132188738D01*
X120596307Y-132235256D01*
X120033706Y-131672655D01*
X120002591Y-131715482D01*
X119909119Y-131898930D01*
X119909116Y-131898936D01*
X119845498Y-132094733D01*
X119813290Y-132298091D01*
X119813290Y-132503968D01*
X119845498Y-132707326D01*
X119909116Y-132903123D01*
X119909119Y-132903129D01*
X120002587Y-133086570D01*
X120002588Y-133086571D01*
X120033706Y-133129402D01*
X120596306Y-132566801D01*
X120608772Y-132613322D01*
X120681180Y-132738738D01*
X120783582Y-132841140D01*
X120908998Y-132913548D01*
X120955516Y-132926012D01*
X120392916Y-133488612D01*
X120392916Y-133488613D01*
X120435744Y-133519729D01*
X120511801Y-133558483D01*
X120563416Y-133607232D01*
X120580482Y-133676147D01*
X120557581Y-133743348D01*
X120511801Y-133783017D01*
X120435483Y-133821902D01*
X120268857Y-133942964D01*
X120268854Y-133942966D01*
X120123226Y-134088594D01*
X120123224Y-134088597D01*
X120002163Y-134255223D01*
X119908657Y-134438738D01*
X119908654Y-134438744D01*
X119845011Y-134634617D01*
X119845010Y-134634620D01*
X119845010Y-134634622D01*
X119812790Y-134838049D01*
X119812790Y-135044011D01*
X119845010Y-135247438D01*
X119845011Y-135247442D01*
X119852295Y-135269861D01*
X119908656Y-135443320D01*
X120002161Y-135626833D01*
X120123222Y-135793460D01*
X120123224Y-135793462D01*
X120123226Y-135793465D01*
X120268854Y-135939093D01*
X120268857Y-135939095D01*
X120268860Y-135939098D01*
X120435487Y-136060159D01*
X120619000Y-136153664D01*
X120814882Y-136217310D01*
X121018309Y-136249530D01*
X121018312Y-136249530D01*
X121224268Y-136249530D01*
X121224271Y-136249530D01*
X121427698Y-136217310D01*
X121623580Y-136153664D01*
X121807093Y-136060159D01*
X121973720Y-135939098D01*
X122119358Y-135793460D01*
X122240419Y-135626833D01*
X122333924Y-135443320D01*
X122397570Y-135247438D01*
X122429790Y-135044011D01*
X122429790Y-134838049D01*
X122397570Y-134634622D01*
X122333924Y-134438740D01*
X122240419Y-134255227D01*
X122119358Y-134088600D01*
X122119355Y-134088597D01*
X122119353Y-134088594D01*
X121973725Y-133942966D01*
X121973722Y-133942964D01*
X121973720Y-133942962D01*
X121807093Y-133821901D01*
X121730776Y-133783015D01*
X121679163Y-133734269D01*
X121662097Y-133665354D01*
X121684998Y-133598152D01*
X121730778Y-133558483D01*
X121806831Y-133519731D01*
X121849662Y-133488612D01*
X121849662Y-133488611D01*
X121287063Y-132926012D01*
X121333582Y-132913548D01*
X121458998Y-132841140D01*
X121561400Y-132738738D01*
X121633808Y-132613322D01*
X121646272Y-132566803D01*
X122208871Y-133129402D01*
X122208872Y-133129402D01*
X122239991Y-133086571D01*
X122333460Y-132903129D01*
X122333463Y-132903123D01*
X122397081Y-132707326D01*
X122429290Y-132503968D01*
X122429290Y-132298091D01*
X122397081Y-132094733D01*
X122333463Y-131898936D01*
X122333460Y-131898930D01*
X122239989Y-131715484D01*
X122208873Y-131672656D01*
X122208872Y-131672656D01*
X121646272Y-132235256D01*
X121633808Y-132188738D01*
X121561400Y-132063322D01*
X121458998Y-131960920D01*
X121333582Y-131888512D01*
X121287062Y-131876046D01*
X121849662Y-131313446D01*
X121806831Y-131282328D01*
X121806825Y-131282324D01*
X121730777Y-131243575D01*
X121722636Y-131235886D01*
X121712158Y-131231941D01*
X121697284Y-131211942D01*
X121679162Y-131194827D01*
X121676470Y-131183957D01*
X121669788Y-131174973D01*
X121668087Y-131150104D01*
X121662097Y-131125912D01*
X121665708Y-131115313D01*
X121664945Y-131104142D01*
X121676957Y-131082305D01*
X121677066Y-131081984D01*
X123462790Y-131081984D01*
X123462790Y-131280076D01*
X123493778Y-131475730D01*
X123554992Y-131664127D01*
X123640173Y-131831303D01*
X123644926Y-131840631D01*
X123761361Y-132000890D01*
X123901429Y-132140958D01*
X123929323Y-132161224D01*
X124061692Y-132257396D01*
X124238193Y-132347328D01*
X124426590Y-132408542D01*
X124622244Y-132439530D01*
X124622247Y-132439530D01*
X124820333Y-132439530D01*
X124820336Y-132439530D01*
X125015990Y-132408542D01*
X125204387Y-132347328D01*
X125380888Y-132257396D01*
X125541148Y-132140960D01*
X125681220Y-132000888D01*
X125687739Y-131991914D01*
X125743955Y-131948561D01*
X125814691Y-131942481D01*
X125877484Y-131975609D01*
X125878771Y-131976878D01*
X125966572Y-132064679D01*
X125966575Y-132064681D01*
X125966578Y-132064684D01*
X126114104Y-132171868D01*
X126276580Y-132254654D01*
X126450007Y-132311004D01*
X126630114Y-132339530D01*
X126630117Y-132339530D01*
X126812463Y-132339530D01*
X126812466Y-132339530D01*
X126992573Y-132311004D01*
X127166000Y-132254654D01*
X127328476Y-132171868D01*
X127476002Y-132064684D01*
X127604944Y-131935742D01*
X127665970Y-131851746D01*
X127669568Y-131847607D01*
X127695019Y-131831303D01*
X127718955Y-131812846D01*
X127725290Y-131811912D01*
X127729351Y-131809311D01*
X127733791Y-131809317D01*
X128321290Y-131221818D01*
X128321290Y-131233691D01*
X128348549Y-131335424D01*
X128401210Y-131426636D01*
X128475684Y-131501110D01*
X128566896Y-131553771D01*
X128668629Y-131581030D01*
X128680500Y-131581030D01*
X128100304Y-132161224D01*
X128114368Y-132171442D01*
X128276770Y-132254189D01*
X128276776Y-132254192D01*
X128450120Y-132310514D01*
X128450116Y-132310514D01*
X128630156Y-132339030D01*
X128812424Y-132339030D01*
X128992461Y-132310514D01*
X129165803Y-132254192D01*
X129165809Y-132254189D01*
X129328218Y-132171438D01*
X129342274Y-132161225D01*
X129342274Y-132161223D01*
X128762081Y-131581030D01*
X128773951Y-131581030D01*
X128875684Y-131553771D01*
X128966896Y-131501110D01*
X129041370Y-131426636D01*
X129094031Y-131335424D01*
X129121290Y-131233691D01*
X129121290Y-131221821D01*
X129701483Y-131802014D01*
X129726482Y-131800047D01*
X129795962Y-131814643D01*
X129838303Y-131851596D01*
X129875773Y-131903169D01*
X129875775Y-131903171D01*
X129875778Y-131903175D01*
X129999145Y-132026542D01*
X129999148Y-132026544D01*
X129999151Y-132026547D01*
X130140309Y-132129104D01*
X130295774Y-132208318D01*
X130461716Y-132262235D01*
X130634049Y-132289530D01*
X130634052Y-132289530D01*
X130808528Y-132289530D01*
X130808531Y-132289530D01*
X130980864Y-132262235D01*
X131146806Y-132208318D01*
X131302271Y-132129104D01*
X131443429Y-132026547D01*
X131534053Y-131935922D01*
X131596363Y-131901899D01*
X131667179Y-131906963D01*
X131724015Y-131949509D01*
X131725082Y-131950957D01*
X131761359Y-132000887D01*
X131761364Y-132000893D01*
X131901429Y-132140958D01*
X131929323Y-132161224D01*
X132061692Y-132257396D01*
X132238193Y-132347328D01*
X132426590Y-132408542D01*
X132622244Y-132439530D01*
X132622247Y-132439530D01*
X132820333Y-132439530D01*
X132820336Y-132439530D01*
X133015990Y-132408542D01*
X133204387Y-132347328D01*
X133380888Y-132257396D01*
X133541148Y-132140960D01*
X133681220Y-132000888D01*
X133797656Y-131840628D01*
X133887588Y-131664127D01*
X133948802Y-131475730D01*
X133979790Y-131280076D01*
X133979790Y-131081984D01*
X133948802Y-130886330D01*
X133887588Y-130697933D01*
X133797656Y-130521432D01*
X133729335Y-130427397D01*
X133681218Y-130361169D01*
X133541150Y-130221101D01*
X133380891Y-130104666D01*
X133380890Y-130104665D01*
X133380888Y-130104664D01*
X133204387Y-130014732D01*
X133015990Y-129953518D01*
X132820336Y-129922530D01*
X132622244Y-129922530D01*
X132426590Y-129953518D01*
X132426587Y-129953518D01*
X132426586Y-129953519D01*
X132238193Y-130014732D01*
X132238191Y-130014733D01*
X132061688Y-130104666D01*
X131901429Y-130221101D01*
X131761364Y-130361166D01*
X131725082Y-130411103D01*
X131668858Y-130454456D01*
X131598122Y-130460530D01*
X131535331Y-130427397D01*
X131534052Y-130426135D01*
X131443434Y-130335517D01*
X131443431Y-130335515D01*
X131443429Y-130335513D01*
X131302271Y-130232956D01*
X131146806Y-130153742D01*
X131146803Y-130153741D01*
X131146801Y-130153740D01*
X130980867Y-130099826D01*
X130980864Y-130099825D01*
X130808531Y-130072530D01*
X130634049Y-130072530D01*
X130461716Y-130099825D01*
X130461713Y-130099825D01*
X130461712Y-130099826D01*
X130295778Y-130153740D01*
X130295772Y-130153743D01*
X130140305Y-130232958D01*
X129999148Y-130335515D01*
X129999145Y-130335517D01*
X129875774Y-130458888D01*
X129838305Y-130510461D01*
X129782082Y-130553815D01*
X129726481Y-130562011D01*
X129701485Y-130560043D01*
X129121290Y-131140238D01*
X129121290Y-131128369D01*
X129094031Y-131026636D01*
X129041370Y-130935424D01*
X128966896Y-130860950D01*
X128875684Y-130808289D01*
X128773951Y-130781030D01*
X128762080Y-130781030D01*
X129342275Y-130200833D01*
X129328213Y-130190618D01*
X129165809Y-130107870D01*
X129165803Y-130107867D01*
X128992459Y-130051545D01*
X128992463Y-130051545D01*
X128812424Y-130023030D01*
X128630156Y-130023030D01*
X128450118Y-130051545D01*
X128276776Y-130107867D01*
X128276770Y-130107870D01*
X128114362Y-130190621D01*
X128100304Y-130200833D01*
X128100303Y-130200834D01*
X128680499Y-130781030D01*
X128668629Y-130781030D01*
X128566896Y-130808289D01*
X128475684Y-130860950D01*
X128401210Y-130935424D01*
X128348549Y-131026636D01*
X128321290Y-131128369D01*
X128321290Y-131140239D01*
X127728860Y-130547809D01*
X127705075Y-130542813D01*
X127700194Y-130538914D01*
X127696706Y-130537896D01*
X127684455Y-130526342D01*
X127669567Y-130514451D01*
X127665966Y-130510308D01*
X127604944Y-130426318D01*
X127513456Y-130334830D01*
X127513450Y-130334823D01*
X127476007Y-130297380D01*
X127476004Y-130297378D01*
X127476002Y-130297376D01*
X127364952Y-130216694D01*
X127328479Y-130190194D01*
X127328478Y-130190193D01*
X127328476Y-130190192D01*
X127166000Y-130107406D01*
X127165999Y-130107405D01*
X127165996Y-130107404D01*
X126992578Y-130051057D01*
X126992574Y-130051056D01*
X126992573Y-130051056D01*
X126812466Y-130022530D01*
X126630114Y-130022530D01*
X126450007Y-130051056D01*
X126450001Y-130051057D01*
X126276583Y-130107404D01*
X126114100Y-130190194D01*
X125966577Y-130297376D01*
X125878771Y-130385182D01*
X125816459Y-130419207D01*
X125745643Y-130414141D01*
X125688807Y-130371594D01*
X125687775Y-130370195D01*
X125682642Y-130363129D01*
X125681218Y-130361169D01*
X125541150Y-130221101D01*
X125380891Y-130104666D01*
X125380890Y-130104665D01*
X125380888Y-130104664D01*
X125204387Y-130014732D01*
X125015990Y-129953518D01*
X124820336Y-129922530D01*
X124622244Y-129922530D01*
X124426590Y-129953518D01*
X124426587Y-129953518D01*
X124426586Y-129953519D01*
X124238193Y-130014732D01*
X124238191Y-130014733D01*
X124061688Y-130104666D01*
X123901429Y-130221101D01*
X123761361Y-130361169D01*
X123644926Y-130521428D01*
X123554993Y-130697931D01*
X123554992Y-130697933D01*
X123514739Y-130821820D01*
X123493778Y-130886330D01*
X123462790Y-131081984D01*
X121677066Y-131081984D01*
X121684998Y-131058710D01*
X121694663Y-131050117D01*
X121699164Y-131041936D01*
X121724524Y-131023570D01*
X121727941Y-131020534D01*
X121729321Y-131019785D01*
X121807093Y-130980159D01*
X121973720Y-130859098D01*
X122119358Y-130713460D01*
X122240419Y-130546833D01*
X122333924Y-130363320D01*
X122397570Y-130167438D01*
X122429790Y-129964011D01*
X122429790Y-129758049D01*
X122397570Y-129554622D01*
X122333924Y-129358740D01*
X122240419Y-129175227D01*
X122119358Y-129008600D01*
X122119355Y-129008597D01*
X122119353Y-129008594D01*
X121973725Y-128862966D01*
X121973722Y-128862964D01*
X121973720Y-128862962D01*
X121807681Y-128742328D01*
X121807096Y-128741903D01*
X121807095Y-128741902D01*
X121807093Y-128741901D01*
X121731324Y-128703295D01*
X121679712Y-128654549D01*
X121662646Y-128585634D01*
X121685547Y-128518432D01*
X121731324Y-128478765D01*
X121807093Y-128440159D01*
X121973720Y-128319098D01*
X122119358Y-128173460D01*
X122240419Y-128006833D01*
X122333924Y-127823320D01*
X122397570Y-127627438D01*
X122429790Y-127424011D01*
X122429790Y-127218049D01*
X122407158Y-127075156D01*
X123553290Y-127075156D01*
X123553290Y-127288903D01*
X123586730Y-127500033D01*
X123652780Y-127703316D01*
X123652783Y-127703322D01*
X123749825Y-127893778D01*
X123749826Y-127893780D01*
X123787910Y-127946197D01*
X123787911Y-127946198D01*
X124427131Y-127306977D01*
X124445365Y-127375023D01*
X124511191Y-127489037D01*
X124604283Y-127582129D01*
X124718297Y-127647955D01*
X124786341Y-127666187D01*
X124147121Y-128305408D01*
X124199539Y-128343493D01*
X124199541Y-128343494D01*
X124389997Y-128440536D01*
X124390003Y-128440539D01*
X124593286Y-128506589D01*
X124804416Y-128540030D01*
X125018164Y-128540030D01*
X125229293Y-128506589D01*
X125432576Y-128440539D01*
X125432582Y-128440536D01*
X125623040Y-128343493D01*
X125675457Y-128305408D01*
X125675457Y-128305406D01*
X125036238Y-127666187D01*
X125104283Y-127647955D01*
X125218297Y-127582129D01*
X125311389Y-127489037D01*
X125377215Y-127375023D01*
X125395447Y-127306978D01*
X126034666Y-127946197D01*
X126034668Y-127946197D01*
X126072753Y-127893780D01*
X126073852Y-127891988D01*
X126074448Y-127891448D01*
X126075667Y-127889771D01*
X126076019Y-127890026D01*
X126126496Y-127844352D01*
X126196536Y-127832740D01*
X126261736Y-127860838D01*
X126286849Y-127889818D01*
X126286914Y-127889772D01*
X126287455Y-127890517D01*
X126288723Y-127891980D01*
X126289825Y-127893779D01*
X126327910Y-127946197D01*
X126327911Y-127946198D01*
X126967131Y-127306977D01*
X126985365Y-127375023D01*
X127051191Y-127489037D01*
X127144283Y-127582129D01*
X127258297Y-127647955D01*
X127326341Y-127666187D01*
X126687121Y-128305408D01*
X126739539Y-128343493D01*
X126739541Y-128343494D01*
X126929997Y-128440536D01*
X126930003Y-128440539D01*
X127133286Y-128506589D01*
X127344416Y-128540030D01*
X127558164Y-128540030D01*
X127769293Y-128506589D01*
X127972576Y-128440539D01*
X127972582Y-128440536D01*
X128163040Y-128343493D01*
X128215457Y-128305408D01*
X128215457Y-128305406D01*
X127576238Y-127666187D01*
X127644283Y-127647955D01*
X127758297Y-127582129D01*
X127851389Y-127489037D01*
X127917215Y-127375023D01*
X127935447Y-127306978D01*
X128574666Y-127946197D01*
X128574668Y-127946197D01*
X128612753Y-127893780D01*
X128613852Y-127891988D01*
X128614448Y-127891448D01*
X128615667Y-127889771D01*
X128616019Y-127890026D01*
X128666496Y-127844352D01*
X128736536Y-127832740D01*
X128801736Y-127860838D01*
X128826849Y-127889818D01*
X128826914Y-127889772D01*
X128827455Y-127890517D01*
X128828723Y-127891980D01*
X128829825Y-127893779D01*
X128867910Y-127946197D01*
X128867911Y-127946198D01*
X129507131Y-127306977D01*
X129525365Y-127375023D01*
X129591191Y-127489037D01*
X129684283Y-127582129D01*
X129798297Y-127647955D01*
X129866341Y-127666187D01*
X129227121Y-128305408D01*
X129279539Y-128343493D01*
X129279541Y-128343494D01*
X129469997Y-128440536D01*
X129470003Y-128440539D01*
X129673286Y-128506589D01*
X129884416Y-128540030D01*
X130098164Y-128540030D01*
X130309293Y-128506589D01*
X130512576Y-128440539D01*
X130512582Y-128440536D01*
X130703040Y-128343493D01*
X130755457Y-128305408D01*
X130755457Y-128305406D01*
X130116238Y-127666187D01*
X130184283Y-127647955D01*
X130298297Y-127582129D01*
X130391389Y-127489037D01*
X130457215Y-127375023D01*
X130475447Y-127306978D01*
X131145084Y-127976615D01*
X131179110Y-128038927D01*
X131175320Y-128099501D01*
X131179795Y-128141123D01*
X131230845Y-128277994D01*
X131230845Y-128277995D01*
X131318385Y-128394934D01*
X131435324Y-128482474D01*
X131572196Y-128533524D01*
X131632692Y-128540029D01*
X131632705Y-128540030D01*
X132277290Y-128540030D01*
X132277290Y-127612732D01*
X132338297Y-127647955D01*
X132465464Y-127682030D01*
X132597116Y-127682030D01*
X132724283Y-127647955D01*
X132785290Y-127612732D01*
X132785290Y-128540030D01*
X133429875Y-128540030D01*
X133429887Y-128540029D01*
X133490383Y-128533524D01*
X133627254Y-128482474D01*
X133627255Y-128482474D01*
X133744194Y-128394934D01*
X133831734Y-128277995D01*
X133831734Y-128277994D01*
X133882784Y-128141123D01*
X133889289Y-128080627D01*
X133889290Y-128080615D01*
X133889290Y-127436030D01*
X132961993Y-127436030D01*
X132997215Y-127375023D01*
X133031290Y-127247856D01*
X133031290Y-127116204D01*
X132997215Y-126989037D01*
X132961993Y-126928030D01*
X133889290Y-126928030D01*
X133889290Y-126283444D01*
X133889289Y-126283432D01*
X133882784Y-126222936D01*
X133831734Y-126086065D01*
X133831734Y-126086064D01*
X133744194Y-125969125D01*
X133627255Y-125881585D01*
X133490383Y-125830535D01*
X133429887Y-125824030D01*
X132785290Y-125824030D01*
X132785290Y-126751327D01*
X132724283Y-126716105D01*
X132597116Y-126682030D01*
X132465464Y-126682030D01*
X132338297Y-126716105D01*
X132277290Y-126751327D01*
X132277290Y-125824030D01*
X131632692Y-125824030D01*
X131572196Y-125830535D01*
X131435325Y-125881585D01*
X131435324Y-125881585D01*
X131318385Y-125969125D01*
X131230845Y-126086064D01*
X131230845Y-126086065D01*
X131179795Y-126222935D01*
X131175271Y-126265008D01*
X131178609Y-126327331D01*
X131145084Y-126387444D01*
X130475447Y-127057081D01*
X130457215Y-126989037D01*
X130391389Y-126875023D01*
X130298297Y-126781931D01*
X130184283Y-126716105D01*
X130116237Y-126697871D01*
X130755458Y-126058651D01*
X130755457Y-126058650D01*
X130703040Y-126020566D01*
X130703038Y-126020565D01*
X130512582Y-125923523D01*
X130512576Y-125923520D01*
X130309293Y-125857470D01*
X130098164Y-125824030D01*
X129884416Y-125824030D01*
X129673286Y-125857470D01*
X129470003Y-125923520D01*
X129469997Y-125923523D01*
X129279543Y-126020564D01*
X129227121Y-126058651D01*
X129227121Y-126058652D01*
X129866341Y-126697872D01*
X129798297Y-126716105D01*
X129684283Y-126781931D01*
X129591191Y-126875023D01*
X129525365Y-126989037D01*
X129507132Y-127057081D01*
X128867912Y-126417861D01*
X128867911Y-126417861D01*
X128829812Y-126470299D01*
X128828712Y-126472095D01*
X128828117Y-126472633D01*
X128826914Y-126474289D01*
X128826565Y-126474036D01*
X128776058Y-126519719D01*
X128706015Y-126531316D01*
X128640821Y-126503204D01*
X128615730Y-126474241D01*
X128615666Y-126474288D01*
X128615120Y-126473536D01*
X128613853Y-126472074D01*
X128612752Y-126470278D01*
X128574668Y-126417861D01*
X127935447Y-127057081D01*
X127917215Y-126989037D01*
X127851389Y-126875023D01*
X127758297Y-126781931D01*
X127644283Y-126716105D01*
X127576237Y-126697871D01*
X128215458Y-126058651D01*
X128215457Y-126058650D01*
X128163040Y-126020566D01*
X128163038Y-126020565D01*
X127972582Y-125923523D01*
X127972576Y-125923520D01*
X127769293Y-125857470D01*
X127558164Y-125824030D01*
X127344416Y-125824030D01*
X127133286Y-125857470D01*
X126930003Y-125923520D01*
X126929997Y-125923523D01*
X126739543Y-126020564D01*
X126687121Y-126058651D01*
X126687121Y-126058652D01*
X127326341Y-126697872D01*
X127258297Y-126716105D01*
X127144283Y-126781931D01*
X127051191Y-126875023D01*
X126985365Y-126989037D01*
X126967132Y-127057081D01*
X126327912Y-126417861D01*
X126327911Y-126417861D01*
X126289812Y-126470299D01*
X126288712Y-126472095D01*
X126288117Y-126472633D01*
X126286914Y-126474289D01*
X126286565Y-126474036D01*
X126236058Y-126519719D01*
X126166015Y-126531316D01*
X126100821Y-126503204D01*
X126075730Y-126474241D01*
X126075666Y-126474288D01*
X126075120Y-126473536D01*
X126073853Y-126472074D01*
X126072752Y-126470278D01*
X126034668Y-126417861D01*
X125395447Y-127057081D01*
X125377215Y-126989037D01*
X125311389Y-126875023D01*
X125218297Y-126781931D01*
X125104283Y-126716105D01*
X125036237Y-126697871D01*
X125675458Y-126058651D01*
X125675457Y-126058650D01*
X125623040Y-126020566D01*
X125623038Y-126020565D01*
X125432582Y-125923523D01*
X125432576Y-125923520D01*
X125229293Y-125857470D01*
X125018164Y-125824030D01*
X124804416Y-125824030D01*
X124593286Y-125857470D01*
X124390003Y-125923520D01*
X124389997Y-125923523D01*
X124199543Y-126020564D01*
X124147121Y-126058651D01*
X124147121Y-126058652D01*
X124786341Y-126697872D01*
X124718297Y-126716105D01*
X124604283Y-126781931D01*
X124511191Y-126875023D01*
X124445365Y-126989037D01*
X124427132Y-127057081D01*
X123787912Y-126417861D01*
X123787911Y-126417861D01*
X123749824Y-126470283D01*
X123652783Y-126660737D01*
X123652780Y-126660743D01*
X123586730Y-126864026D01*
X123553290Y-127075156D01*
X122407158Y-127075156D01*
X122397570Y-127014622D01*
X122333924Y-126818740D01*
X122240419Y-126635227D01*
X122119358Y-126468600D01*
X122119355Y-126468597D01*
X122119353Y-126468594D01*
X121973725Y-126322966D01*
X121973722Y-126322964D01*
X121973720Y-126322962D01*
X121807093Y-126201901D01*
X121729704Y-126162469D01*
X121728124Y-126161606D01*
X121704260Y-126137733D01*
X121679712Y-126114549D01*
X121679260Y-126112724D01*
X121677931Y-126111395D01*
X121670759Y-126078397D01*
X121662646Y-126045634D01*
X121663252Y-126043855D01*
X121662853Y-126042018D01*
X121674658Y-126010383D01*
X121685547Y-125978432D01*
X121687077Y-125977105D01*
X121687676Y-125975502D01*
X121696855Y-125968633D01*
X121731324Y-125938765D01*
X121807093Y-125900159D01*
X121973720Y-125779098D01*
X122119358Y-125633460D01*
X122240417Y-125466836D01*
X122240684Y-125466469D01*
X122296906Y-125423115D01*
X122342620Y-125414530D01*
X133706696Y-125414530D01*
X133774817Y-125434532D01*
X133795791Y-125451435D01*
X134867457Y-126523101D01*
X134957259Y-126583105D01*
X134971215Y-126592430D01*
X134971219Y-126592432D01*
X135087480Y-126640590D01*
X135142761Y-126685138D01*
X135165181Y-126752502D01*
X135151533Y-126814190D01*
X135149124Y-126818918D01*
X135149116Y-126818936D01*
X135085498Y-127014733D01*
X135053290Y-127218091D01*
X135053290Y-127423968D01*
X135085498Y-127627326D01*
X135149116Y-127823123D01*
X135149119Y-127823129D01*
X135242587Y-128006570D01*
X135242588Y-128006571D01*
X135273706Y-128049402D01*
X135273707Y-128049402D01*
X135836307Y-127486802D01*
X135848772Y-127533322D01*
X135921180Y-127658738D01*
X136023582Y-127761140D01*
X136148998Y-127833548D01*
X136195516Y-127846012D01*
X135632916Y-128408612D01*
X135632916Y-128408613D01*
X135675744Y-128439729D01*
X135752351Y-128478763D01*
X135803966Y-128527512D01*
X135821032Y-128596427D01*
X135798131Y-128663628D01*
X135752352Y-128703296D01*
X135675745Y-128742329D01*
X135675743Y-128742331D01*
X135632915Y-128773446D01*
X136195516Y-129336047D01*
X136148998Y-129348512D01*
X136023582Y-129420920D01*
X135921180Y-129523322D01*
X135848772Y-129648738D01*
X135836307Y-129695256D01*
X135273706Y-129132655D01*
X135242591Y-129175482D01*
X135149119Y-129358930D01*
X135149116Y-129358936D01*
X135085498Y-129554733D01*
X135053290Y-129758091D01*
X135053290Y-129963968D01*
X135085498Y-130167326D01*
X135149116Y-130363123D01*
X135149119Y-130363129D01*
X135242587Y-130546570D01*
X135242588Y-130546571D01*
X135273706Y-130589402D01*
X135836306Y-130026801D01*
X135848772Y-130073322D01*
X135921180Y-130198738D01*
X136023582Y-130301140D01*
X136148998Y-130373548D01*
X136195516Y-130386012D01*
X135632916Y-130948612D01*
X135632916Y-130948613D01*
X135675744Y-130979729D01*
X135751801Y-131018483D01*
X135803416Y-131067232D01*
X135820482Y-131136147D01*
X135797581Y-131203348D01*
X135751801Y-131243017D01*
X135675483Y-131281902D01*
X135508857Y-131402964D01*
X135508854Y-131402966D01*
X135363226Y-131548594D01*
X135363224Y-131548597D01*
X135242163Y-131715223D01*
X135148657Y-131898738D01*
X135148654Y-131898744D01*
X135085011Y-132094617D01*
X135085010Y-132094620D01*
X135085010Y-132094622D01*
X135052790Y-132298049D01*
X135052790Y-132504011D01*
X135085010Y-132707438D01*
X135085011Y-132707442D01*
X135125336Y-132831551D01*
X135148656Y-132903320D01*
X135242161Y-133086833D01*
X135363222Y-133253460D01*
X135363224Y-133253462D01*
X135363226Y-133253465D01*
X135508854Y-133399093D01*
X135508857Y-133399095D01*
X135508860Y-133399098D01*
X135524610Y-133410541D01*
X135524613Y-133410543D01*
X135567967Y-133466765D01*
X135574042Y-133537501D01*
X135540911Y-133600293D01*
X135479091Y-133635204D01*
X135464025Y-133637757D01*
X135452091Y-133639040D01*
X135452085Y-133639041D01*
X135315087Y-133690140D01*
X135315082Y-133690142D01*
X135198028Y-133777768D01*
X135110402Y-133894822D01*
X135110400Y-133894827D01*
X135059301Y-134031825D01*
X135059299Y-134031833D01*
X135052790Y-134092380D01*
X135052790Y-135789679D01*
X135059299Y-135850226D01*
X135059301Y-135850234D01*
X135110400Y-135987232D01*
X135110402Y-135987237D01*
X135198028Y-136104291D01*
X135315082Y-136191917D01*
X135315084Y-136191918D01*
X135315086Y-136191919D01*
X135374165Y-136213954D01*
X135452085Y-136243018D01*
X135452093Y-136243020D01*
X135512640Y-136249529D01*
X135512645Y-136249529D01*
X135512652Y-136249530D01*
X135512658Y-136249530D01*
X137209922Y-136249530D01*
X137209928Y-136249530D01*
X137209935Y-136249529D01*
X137209939Y-136249529D01*
X137270486Y-136243020D01*
X137270489Y-136243019D01*
X137270491Y-136243019D01*
X137407494Y-136191919D01*
X137524551Y-136104291D01*
X137612179Y-135987234D01*
X137663279Y-135850231D01*
X137669383Y-135793460D01*
X137669789Y-135789679D01*
X137669790Y-135789662D01*
X137669790Y-134092397D01*
X137669789Y-134092380D01*
X137663280Y-134031833D01*
X137663278Y-134031825D01*
X137612179Y-133894827D01*
X137612177Y-133894822D01*
X137524551Y-133777768D01*
X137407497Y-133690142D01*
X137407492Y-133690140D01*
X137270494Y-133639041D01*
X137270487Y-133639040D01*
X137258555Y-133637757D01*
X137192963Y-133610586D01*
X137152474Y-133552267D01*
X137149942Y-133481315D01*
X137186171Y-133420258D01*
X137197967Y-133410543D01*
X137213720Y-133399098D01*
X137359358Y-133253460D01*
X137480419Y-133086833D01*
X137573924Y-132903320D01*
X137637570Y-132707438D01*
X137669790Y-132504011D01*
X137669790Y-132298049D01*
X137637570Y-132094622D01*
X137573924Y-131898740D01*
X137480419Y-131715227D01*
X137359358Y-131548600D01*
X137359355Y-131548597D01*
X137359353Y-131548594D01*
X137213725Y-131402966D01*
X137213722Y-131402964D01*
X137213720Y-131402962D01*
X137047093Y-131281901D01*
X136970776Y-131243015D01*
X136919163Y-131194269D01*
X136902097Y-131125354D01*
X136924998Y-131058152D01*
X136970778Y-131018483D01*
X137046831Y-130979731D01*
X137089662Y-130948612D01*
X137089662Y-130948611D01*
X136527063Y-130386012D01*
X136573582Y-130373548D01*
X136698998Y-130301140D01*
X136801400Y-130198738D01*
X136873808Y-130073322D01*
X136886272Y-130026803D01*
X137448871Y-130589402D01*
X137448872Y-130589402D01*
X137479991Y-130546571D01*
X137573460Y-130363129D01*
X137573463Y-130363123D01*
X137637081Y-130167326D01*
X137669290Y-129963968D01*
X137669290Y-129758091D01*
X137637081Y-129554733D01*
X137573463Y-129358936D01*
X137573460Y-129358930D01*
X137479989Y-129175484D01*
X137448873Y-129132656D01*
X137448872Y-129132656D01*
X136886272Y-129695256D01*
X136873808Y-129648738D01*
X136801400Y-129523322D01*
X136698998Y-129420920D01*
X136573582Y-129348512D01*
X136527062Y-129336046D01*
X137089662Y-128773446D01*
X137046831Y-128742328D01*
X137046830Y-128742327D01*
X136970228Y-128703297D01*
X136918613Y-128654549D01*
X136901547Y-128585634D01*
X136924448Y-128518432D01*
X136970228Y-128478763D01*
X137046831Y-128439731D01*
X137089662Y-128408612D01*
X137089662Y-128408611D01*
X136527063Y-127846012D01*
X136573582Y-127833548D01*
X136698998Y-127761140D01*
X136801400Y-127658738D01*
X136873808Y-127533322D01*
X136886273Y-127486802D01*
X137448872Y-128049402D01*
X137479991Y-128006571D01*
X137573460Y-127823129D01*
X137573463Y-127823123D01*
X137637081Y-127627326D01*
X137669290Y-127423968D01*
X137669290Y-127218091D01*
X137637081Y-127014733D01*
X137576884Y-126829466D01*
X137574856Y-126758499D01*
X137611519Y-126697701D01*
X137675231Y-126666375D01*
X137696717Y-126664530D01*
X138333683Y-126664530D01*
X138333684Y-126664530D01*
X138456075Y-126640185D01*
X138538571Y-126606014D01*
X138609160Y-126598424D01*
X138672648Y-126630202D01*
X138708876Y-126691260D01*
X138712790Y-126722422D01*
X138712790Y-126780076D01*
X138743778Y-126975730D01*
X138804992Y-127164127D01*
X138884938Y-127321029D01*
X138894926Y-127340631D01*
X139011361Y-127500890D01*
X139151429Y-127640958D01*
X139179323Y-127661224D01*
X139311692Y-127757396D01*
X139488193Y-127847328D01*
X139676590Y-127908542D01*
X139872244Y-127939530D01*
X139872247Y-127939530D01*
X140070333Y-127939530D01*
X140070336Y-127939530D01*
X140265990Y-127908542D01*
X140454387Y-127847328D01*
X140630888Y-127757396D01*
X140791148Y-127640960D01*
X140804782Y-127627326D01*
X140908000Y-127524109D01*
X140931215Y-127500893D01*
X140931218Y-127500890D01*
X140931220Y-127500888D01*
X141047656Y-127340628D01*
X141137471Y-127164356D01*
X141160639Y-127132469D01*
X141571290Y-126721818D01*
X141571290Y-126733691D01*
X141598549Y-126835424D01*
X141651210Y-126926636D01*
X141725684Y-127001110D01*
X141816896Y-127053771D01*
X141918629Y-127081030D01*
X141930500Y-127081030D01*
X141350304Y-127661224D01*
X141364368Y-127671442D01*
X141526770Y-127754189D01*
X141526776Y-127754192D01*
X141700120Y-127810514D01*
X141700116Y-127810514D01*
X141880156Y-127839030D01*
X142062424Y-127839030D01*
X142242461Y-127810514D01*
X142415803Y-127754192D01*
X142415809Y-127754189D01*
X142578218Y-127671438D01*
X142592274Y-127661225D01*
X142592274Y-127661223D01*
X142012081Y-127081030D01*
X142023951Y-127081030D01*
X142125684Y-127053771D01*
X142216896Y-127001110D01*
X142291370Y-126926636D01*
X142344031Y-126835424D01*
X142371290Y-126733691D01*
X142371290Y-126721819D01*
X142963717Y-127314247D01*
X142987502Y-127319244D01*
X143029843Y-127356197D01*
X143087636Y-127435742D01*
X143087638Y-127435744D01*
X143087641Y-127435748D01*
X143216572Y-127564679D01*
X143216575Y-127564681D01*
X143216578Y-127564684D01*
X143364104Y-127671868D01*
X143526580Y-127754654D01*
X143700007Y-127811004D01*
X143880114Y-127839530D01*
X143880117Y-127839530D01*
X144062463Y-127839530D01*
X144062466Y-127839530D01*
X144242573Y-127811004D01*
X144416000Y-127754654D01*
X144578476Y-127671868D01*
X144726002Y-127564684D01*
X144854944Y-127435742D01*
X144900256Y-127373374D01*
X144956477Y-127330022D01*
X145027213Y-127323947D01*
X145090005Y-127357078D01*
X145104123Y-127373371D01*
X145125773Y-127403169D01*
X145125775Y-127403171D01*
X145125778Y-127403175D01*
X145249145Y-127526542D01*
X145249148Y-127526544D01*
X145249151Y-127526547D01*
X145390309Y-127629104D01*
X145545774Y-127708318D01*
X145711716Y-127762235D01*
X145884049Y-127789530D01*
X145884052Y-127789530D01*
X146058528Y-127789530D01*
X146058531Y-127789530D01*
X146230864Y-127762235D01*
X146396806Y-127708318D01*
X146552271Y-127629104D01*
X146693429Y-127526547D01*
X146784053Y-127435922D01*
X146846363Y-127401899D01*
X146917179Y-127406963D01*
X146974015Y-127449509D01*
X146975082Y-127450957D01*
X147011359Y-127500887D01*
X147011364Y-127500893D01*
X147151429Y-127640958D01*
X147179323Y-127661224D01*
X147311692Y-127757396D01*
X147488193Y-127847328D01*
X147676590Y-127908542D01*
X147872244Y-127939530D01*
X147872247Y-127939530D01*
X148070333Y-127939530D01*
X148070336Y-127939530D01*
X148265990Y-127908542D01*
X148454387Y-127847328D01*
X148630888Y-127757396D01*
X148791148Y-127640960D01*
X148931220Y-127500888D01*
X149047656Y-127340628D01*
X149137588Y-127164127D01*
X149198802Y-126975730D01*
X149229790Y-126780076D01*
X149229790Y-126581984D01*
X149198802Y-126386330D01*
X149137588Y-126197933D01*
X149047656Y-126021432D01*
X148979335Y-125927397D01*
X148931218Y-125861169D01*
X148791150Y-125721101D01*
X148630891Y-125604666D01*
X148630890Y-125604665D01*
X148630888Y-125604664D01*
X148454387Y-125514732D01*
X148265990Y-125453518D01*
X148070336Y-125422530D01*
X147872244Y-125422530D01*
X147676590Y-125453518D01*
X147676587Y-125453518D01*
X147676586Y-125453519D01*
X147488193Y-125514732D01*
X147488191Y-125514733D01*
X147311688Y-125604666D01*
X147151429Y-125721101D01*
X147011364Y-125861166D01*
X146975082Y-125911103D01*
X146918858Y-125954456D01*
X146848122Y-125960530D01*
X146785331Y-125927397D01*
X146784052Y-125926135D01*
X146693434Y-125835517D01*
X146693431Y-125835515D01*
X146693429Y-125835513D01*
X146552271Y-125732956D01*
X146396806Y-125653742D01*
X146396803Y-125653741D01*
X146396801Y-125653740D01*
X146230867Y-125599826D01*
X146230864Y-125599825D01*
X146058531Y-125572530D01*
X145884049Y-125572530D01*
X145711716Y-125599825D01*
X145711713Y-125599825D01*
X145711712Y-125599826D01*
X145545778Y-125653740D01*
X145545772Y-125653743D01*
X145390305Y-125732958D01*
X145249148Y-125835515D01*
X145249145Y-125835517D01*
X145125777Y-125958885D01*
X145104126Y-125988685D01*
X145047902Y-126032038D01*
X144977166Y-126038112D01*
X144914375Y-126004979D01*
X144900255Y-125988683D01*
X144854942Y-125926315D01*
X144726007Y-125797380D01*
X144726004Y-125797378D01*
X144726002Y-125797376D01*
X144614952Y-125716694D01*
X144578479Y-125690194D01*
X144578478Y-125690193D01*
X144578476Y-125690192D01*
X144416000Y-125607406D01*
X144415999Y-125607405D01*
X144415996Y-125607404D01*
X144242578Y-125551057D01*
X144242574Y-125551056D01*
X144242573Y-125551056D01*
X144062466Y-125522530D01*
X143880114Y-125522530D01*
X143868474Y-125524373D01*
X143795537Y-125535924D01*
X143725126Y-125526823D01*
X143686734Y-125500570D01*
X142987666Y-124801502D01*
X142953640Y-124739190D01*
X142958705Y-124668375D01*
X143001252Y-124611539D01*
X143032731Y-124594351D01*
X143067251Y-124581476D01*
X143067255Y-124581474D01*
X143184194Y-124493934D01*
X143271734Y-124376995D01*
X143271734Y-124376994D01*
X143322784Y-124240123D01*
X143329289Y-124179627D01*
X145313290Y-124179627D01*
X145319795Y-124240123D01*
X145370845Y-124376994D01*
X145370845Y-124376995D01*
X145458385Y-124493934D01*
X145575324Y-124581474D01*
X145712196Y-124632524D01*
X145772692Y-124639029D01*
X145772705Y-124639030D01*
X146967290Y-124639030D01*
X147475290Y-124639030D01*
X148669875Y-124639030D01*
X148669887Y-124639029D01*
X148730383Y-124632524D01*
X148867254Y-124581474D01*
X148867255Y-124581474D01*
X148984194Y-124493934D01*
X149071734Y-124376995D01*
X149071735Y-124376992D01*
X149080622Y-124353168D01*
X149122784Y-124240124D01*
X149129289Y-124179627D01*
X149129290Y-124179615D01*
X149129290Y-123885030D01*
X147475290Y-123885030D01*
X147475290Y-124639030D01*
X146967290Y-124639030D01*
X146967290Y-123885030D01*
X145313290Y-123885030D01*
X145313290Y-124179627D01*
X143329289Y-124179627D01*
X143329290Y-124179615D01*
X143329290Y-123885030D01*
X139513290Y-123885030D01*
X139513290Y-124121530D01*
X139493288Y-124189651D01*
X139439632Y-124236144D01*
X139410722Y-124245332D01*
X139399109Y-124247530D01*
X139358896Y-124247530D01*
X139236505Y-124271875D01*
X139219932Y-124278740D01*
X139207919Y-124283715D01*
X139207918Y-124283716D01*
X139121213Y-124319630D01*
X139017457Y-124388957D01*
X138831559Y-124574856D01*
X138045789Y-125360626D01*
X138018423Y-125375569D01*
X137992194Y-125392426D01*
X137985892Y-125393332D01*
X137983479Y-125394650D01*
X137956696Y-125397530D01*
X137710239Y-125397530D01*
X137642118Y-125377528D01*
X137595625Y-125323872D01*
X137585521Y-125253598D01*
X137590406Y-125232594D01*
X137623430Y-125130956D01*
X137637570Y-125087438D01*
X137669790Y-124884011D01*
X137669790Y-124678049D01*
X137637570Y-124474622D01*
X137637568Y-124474618D01*
X137637499Y-124474177D01*
X137646599Y-124403766D01*
X137672853Y-124365370D01*
X137995795Y-124042428D01*
X138413361Y-123624863D01*
X138482690Y-123521105D01*
X138530445Y-123405815D01*
X138554790Y-123283424D01*
X138554790Y-123158636D01*
X138554790Y-123082432D01*
X139513290Y-123082432D01*
X139513290Y-123377030D01*
X141167290Y-123377030D01*
X141675290Y-123377030D01*
X143329290Y-123377030D01*
X143329290Y-123082444D01*
X143329289Y-123082432D01*
X145313290Y-123082432D01*
X145313290Y-123377030D01*
X146967290Y-123377030D01*
X147475290Y-123377030D01*
X149129290Y-123377030D01*
X149129290Y-123082444D01*
X149129289Y-123082429D01*
X149126647Y-123057855D01*
X149122784Y-123021935D01*
X149071734Y-122885065D01*
X149071734Y-122885064D01*
X148984194Y-122768125D01*
X148867255Y-122680585D01*
X148730383Y-122629535D01*
X148669887Y-122623030D01*
X147475290Y-122623030D01*
X147475290Y-123377030D01*
X146967290Y-123377030D01*
X146967290Y-122623030D01*
X145772692Y-122623030D01*
X145712196Y-122629535D01*
X145575325Y-122680585D01*
X145575324Y-122680585D01*
X145458385Y-122768125D01*
X145370845Y-122885064D01*
X145370845Y-122885065D01*
X145319795Y-123021936D01*
X145313290Y-123082432D01*
X143329289Y-123082432D01*
X143322784Y-123021936D01*
X143271734Y-122885065D01*
X143271734Y-122885064D01*
X143184194Y-122768125D01*
X143067255Y-122680585D01*
X142930383Y-122629535D01*
X142869887Y-122623030D01*
X141675290Y-122623030D01*
X141675290Y-123377030D01*
X141167290Y-123377030D01*
X141167290Y-122623030D01*
X139972692Y-122623030D01*
X139912196Y-122629535D01*
X139775325Y-122680585D01*
X139775324Y-122680585D01*
X139658385Y-122768125D01*
X139570845Y-122885064D01*
X139570845Y-122885065D01*
X139519795Y-123021936D01*
X139513290Y-123082432D01*
X138554790Y-123082432D01*
X138554790Y-116195624D01*
X138574792Y-116127503D01*
X138591695Y-116106529D01*
X139371789Y-115326435D01*
X139434101Y-115292409D01*
X139460884Y-115289530D01*
X139510768Y-115289530D01*
X139510769Y-115289530D01*
X139686290Y-115254617D01*
X139851626Y-115186132D01*
X140000425Y-115086708D01*
X140126968Y-114960165D01*
X140226392Y-114811366D01*
X140265332Y-114717356D01*
X140309881Y-114662076D01*
X140377244Y-114639655D01*
X140446035Y-114657213D01*
X140470836Y-114676480D01*
X140850885Y-115056529D01*
X140884911Y-115118841D01*
X140887790Y-115145624D01*
X140887790Y-118496530D01*
X140867788Y-118564651D01*
X140814132Y-118611144D01*
X140761790Y-118622530D01*
X139972640Y-118622530D01*
X139912093Y-118629039D01*
X139912085Y-118629041D01*
X139775087Y-118680140D01*
X139775082Y-118680142D01*
X139658028Y-118767768D01*
X139570402Y-118884822D01*
X139570400Y-118884827D01*
X139519301Y-119021825D01*
X139519299Y-119021833D01*
X139512790Y-119082380D01*
X139512790Y-120179679D01*
X139519299Y-120240226D01*
X139519301Y-120240234D01*
X139570400Y-120377232D01*
X139570402Y-120377237D01*
X139658028Y-120494291D01*
X139775082Y-120581917D01*
X139775084Y-120581918D01*
X139775086Y-120581919D01*
X139834165Y-120603954D01*
X139912085Y-120633018D01*
X139912093Y-120633020D01*
X139972640Y-120639529D01*
X139972645Y-120639529D01*
X139972652Y-120639530D01*
X140920801Y-120639530D01*
X140945382Y-120641951D01*
X141058890Y-120664529D01*
X141058893Y-120664529D01*
X141058896Y-120664530D01*
X141058897Y-120664530D01*
X141183683Y-120664530D01*
X141183684Y-120664530D01*
X141186007Y-120664067D01*
X141297198Y-120641951D01*
X141321779Y-120639530D01*
X142869922Y-120639530D01*
X142869928Y-120639530D01*
X142869935Y-120639529D01*
X142869939Y-120639529D01*
X142930486Y-120633020D01*
X142930489Y-120633019D01*
X142930491Y-120633019D01*
X143067494Y-120581919D01*
X143184551Y-120494291D01*
X143272177Y-120377237D01*
X143272177Y-120377236D01*
X143272179Y-120377234D01*
X143283644Y-120346496D01*
X143326191Y-120289661D01*
X143392712Y-120264851D01*
X143401699Y-120264530D01*
X145240881Y-120264530D01*
X145309002Y-120284532D01*
X145355495Y-120338188D01*
X145358936Y-120346496D01*
X145370401Y-120377234D01*
X145370402Y-120377237D01*
X145458028Y-120494291D01*
X145575082Y-120581917D01*
X145575084Y-120581918D01*
X145575086Y-120581919D01*
X145634165Y-120603954D01*
X145712085Y-120633018D01*
X145712093Y-120633020D01*
X145772640Y-120639529D01*
X145772645Y-120639529D01*
X145772652Y-120639530D01*
X145772658Y-120639530D01*
X148669922Y-120639530D01*
X148669928Y-120639530D01*
X148669935Y-120639529D01*
X148669939Y-120639529D01*
X148730486Y-120633020D01*
X148730489Y-120633019D01*
X148730491Y-120633019D01*
X148867494Y-120581919D01*
X148984551Y-120494291D01*
X149033520Y-120428877D01*
X149072177Y-120377237D01*
X149072177Y-120377236D01*
X149072179Y-120377234D01*
X149123279Y-120240231D01*
X149127248Y-120203320D01*
X149129789Y-120179679D01*
X149129790Y-120179662D01*
X149129790Y-119322156D01*
X151747290Y-119322156D01*
X151747290Y-119535903D01*
X151780730Y-119747033D01*
X151846780Y-119950316D01*
X151846783Y-119950322D01*
X151943825Y-120140778D01*
X151943826Y-120140780D01*
X151981910Y-120193197D01*
X151981911Y-120193198D01*
X152621131Y-119553977D01*
X152639365Y-119622023D01*
X152705191Y-119736037D01*
X152798283Y-119829129D01*
X152912297Y-119894955D01*
X152980341Y-119913187D01*
X152370089Y-120523439D01*
X152437116Y-120633486D01*
X152438743Y-120639569D01*
X152442968Y-120644238D01*
X152447811Y-120673456D01*
X152455468Y-120702069D01*
X152453548Y-120708065D01*
X152454579Y-120714279D01*
X152442853Y-120741484D01*
X152433828Y-120769687D01*
X152428971Y-120773693D01*
X152426479Y-120779478D01*
X152397502Y-120804590D01*
X152397549Y-120804654D01*
X152396810Y-120805190D01*
X152395355Y-120806452D01*
X152393559Y-120807552D01*
X152341121Y-120845651D01*
X152341121Y-120845652D01*
X152980341Y-121484872D01*
X152912297Y-121503105D01*
X152798283Y-121568931D01*
X152705191Y-121662023D01*
X152639365Y-121776037D01*
X152621132Y-121844081D01*
X151981912Y-121204861D01*
X151981911Y-121204861D01*
X151943824Y-121257283D01*
X151846783Y-121447737D01*
X151846780Y-121447743D01*
X151780730Y-121651026D01*
X151747290Y-121862156D01*
X151747290Y-122075903D01*
X151780730Y-122287033D01*
X151846780Y-122490316D01*
X151846783Y-122490322D01*
X151943825Y-122680778D01*
X151943826Y-122680780D01*
X151981910Y-122733197D01*
X151981911Y-122733198D01*
X152621131Y-122093977D01*
X152639365Y-122162023D01*
X152705191Y-122276037D01*
X152798283Y-122369129D01*
X152912297Y-122434955D01*
X152980341Y-122453187D01*
X152370089Y-123063439D01*
X152437116Y-123173486D01*
X152438743Y-123179569D01*
X152442968Y-123184238D01*
X152447811Y-123213456D01*
X152455468Y-123242069D01*
X152453548Y-123248065D01*
X152454579Y-123254279D01*
X152442853Y-123281484D01*
X152433828Y-123309687D01*
X152428971Y-123313693D01*
X152426479Y-123319478D01*
X152397502Y-123344590D01*
X152397549Y-123344654D01*
X152396810Y-123345190D01*
X152395355Y-123346452D01*
X152393559Y-123347552D01*
X152341121Y-123385651D01*
X152341121Y-123385652D01*
X152980341Y-124024872D01*
X152912297Y-124043105D01*
X152798283Y-124108931D01*
X152705191Y-124202023D01*
X152639365Y-124316037D01*
X152621132Y-124384081D01*
X151981912Y-123744861D01*
X151981911Y-123744861D01*
X151943824Y-123797283D01*
X151846783Y-123987737D01*
X151846780Y-123987743D01*
X151780730Y-124191026D01*
X151747290Y-124402156D01*
X151747290Y-124615903D01*
X151780730Y-124827033D01*
X151846780Y-125030316D01*
X151846783Y-125030322D01*
X151943825Y-125220778D01*
X151943826Y-125220780D01*
X151981910Y-125273197D01*
X151981911Y-125273198D01*
X152621131Y-124633977D01*
X152639365Y-124702023D01*
X152705191Y-124816037D01*
X152798283Y-124909129D01*
X152912297Y-124974955D01*
X152980341Y-124993187D01*
X152310704Y-125662824D01*
X152248392Y-125696849D01*
X152187814Y-125693060D01*
X152146195Y-125697535D01*
X152009325Y-125748585D01*
X152009324Y-125748585D01*
X151892385Y-125836125D01*
X151804845Y-125953064D01*
X151804845Y-125953065D01*
X151753795Y-126089936D01*
X151747290Y-126150432D01*
X151747290Y-126795030D01*
X152674587Y-126795030D01*
X152639365Y-126856037D01*
X152605290Y-126983204D01*
X152605290Y-127114856D01*
X152639365Y-127242023D01*
X152674587Y-127303030D01*
X151747290Y-127303030D01*
X151747290Y-127947627D01*
X151753795Y-128008123D01*
X151804845Y-128144994D01*
X151804845Y-128144995D01*
X151892385Y-128261934D01*
X152009324Y-128349474D01*
X152146196Y-128400524D01*
X152206692Y-128407029D01*
X152206705Y-128407030D01*
X152851290Y-128407030D01*
X152851290Y-127479732D01*
X152912297Y-127514955D01*
X153039464Y-127549030D01*
X153171116Y-127549030D01*
X153298283Y-127514955D01*
X153359290Y-127479732D01*
X153359290Y-128407030D01*
X154003875Y-128407030D01*
X154003887Y-128407029D01*
X154064383Y-128400524D01*
X154201254Y-128349474D01*
X154201255Y-128349474D01*
X154318194Y-128261934D01*
X154405734Y-128144995D01*
X154405734Y-128144994D01*
X154456784Y-128008123D01*
X154463289Y-127947627D01*
X154463290Y-127947615D01*
X154463290Y-127303030D01*
X153535993Y-127303030D01*
X153571215Y-127242023D01*
X153605290Y-127114856D01*
X153605290Y-126983204D01*
X153571215Y-126856037D01*
X153535993Y-126795030D01*
X154463290Y-126795030D01*
X154463290Y-126150444D01*
X154463289Y-126150432D01*
X154456784Y-126089936D01*
X154405734Y-125953065D01*
X154405734Y-125953064D01*
X154318194Y-125836125D01*
X154201255Y-125748585D01*
X154064383Y-125697535D01*
X154022309Y-125693011D01*
X153959992Y-125696352D01*
X153899875Y-125662824D01*
X153230238Y-124993187D01*
X153298283Y-124974955D01*
X153412297Y-124909129D01*
X153505389Y-124816037D01*
X153571215Y-124702023D01*
X153589447Y-124633978D01*
X154228666Y-125273197D01*
X154228668Y-125273197D01*
X154266753Y-125220780D01*
X154363796Y-125030322D01*
X154363799Y-125030316D01*
X154429849Y-124827033D01*
X154463290Y-124615903D01*
X154463290Y-124402156D01*
X154429849Y-124191026D01*
X154363799Y-123987743D01*
X154363796Y-123987737D01*
X154266754Y-123797281D01*
X154266753Y-123797279D01*
X154228668Y-123744861D01*
X153589447Y-124384081D01*
X153571215Y-124316037D01*
X153505389Y-124202023D01*
X153412297Y-124108931D01*
X153298283Y-124043105D01*
X153230237Y-124024871D01*
X153869458Y-123385651D01*
X153869457Y-123385650D01*
X153817039Y-123347565D01*
X153815240Y-123346463D01*
X153814699Y-123345865D01*
X153813032Y-123344654D01*
X153813286Y-123344303D01*
X153767608Y-123293816D01*
X153756001Y-123223775D01*
X153784104Y-123158577D01*
X153813078Y-123133472D01*
X153813031Y-123133407D01*
X153813788Y-123132856D01*
X153815248Y-123131592D01*
X153817040Y-123130493D01*
X153869457Y-123092408D01*
X153869457Y-123092406D01*
X153230238Y-122453187D01*
X153298283Y-122434955D01*
X153412297Y-122369129D01*
X153505389Y-122276037D01*
X153571215Y-122162023D01*
X153589447Y-122093978D01*
X154228666Y-122733197D01*
X154228668Y-122733197D01*
X154266753Y-122680780D01*
X154363796Y-122490322D01*
X154363799Y-122490316D01*
X154429849Y-122287033D01*
X154463290Y-122075903D01*
X154463290Y-121862156D01*
X154429849Y-121651026D01*
X154363799Y-121447743D01*
X154363796Y-121447737D01*
X154266754Y-121257281D01*
X154266753Y-121257279D01*
X154228668Y-121204861D01*
X153589447Y-121844081D01*
X153571215Y-121776037D01*
X153505389Y-121662023D01*
X153412297Y-121568931D01*
X153298283Y-121503105D01*
X153230237Y-121484871D01*
X153869458Y-120845651D01*
X153869457Y-120845650D01*
X153817039Y-120807565D01*
X153815240Y-120806463D01*
X153814699Y-120805865D01*
X153813032Y-120804654D01*
X153813286Y-120804303D01*
X153767608Y-120753816D01*
X153756001Y-120683775D01*
X153784104Y-120618577D01*
X153813078Y-120593472D01*
X153813031Y-120593407D01*
X153813788Y-120592856D01*
X153815248Y-120591592D01*
X153817040Y-120590493D01*
X153869457Y-120552408D01*
X153869457Y-120552406D01*
X153230238Y-119913187D01*
X153298283Y-119894955D01*
X153412297Y-119829129D01*
X153505389Y-119736037D01*
X153571215Y-119622023D01*
X153589447Y-119553978D01*
X154228666Y-120193197D01*
X154228668Y-120193197D01*
X154266753Y-120140780D01*
X154363796Y-119950322D01*
X154363799Y-119950316D01*
X154429849Y-119747033D01*
X154463290Y-119535903D01*
X154463290Y-119322156D01*
X154429849Y-119111026D01*
X154363799Y-118907743D01*
X154363796Y-118907737D01*
X154266754Y-118717281D01*
X154266753Y-118717279D01*
X154228668Y-118664861D01*
X153589447Y-119304081D01*
X153571215Y-119236037D01*
X153505389Y-119122023D01*
X153412297Y-119028931D01*
X153298283Y-118963105D01*
X153230237Y-118944871D01*
X153869458Y-118305651D01*
X153869457Y-118305650D01*
X153817040Y-118267566D01*
X153817038Y-118267565D01*
X153626582Y-118170523D01*
X153626576Y-118170520D01*
X153423293Y-118104470D01*
X153212164Y-118071030D01*
X152998416Y-118071030D01*
X152787286Y-118104470D01*
X152584003Y-118170520D01*
X152583997Y-118170523D01*
X152393543Y-118267564D01*
X152341121Y-118305651D01*
X152341121Y-118305652D01*
X152980341Y-118944872D01*
X152912297Y-118963105D01*
X152798283Y-119028931D01*
X152705191Y-119122023D01*
X152639365Y-119236037D01*
X152621132Y-119304081D01*
X151981912Y-118664861D01*
X151981911Y-118664861D01*
X151943824Y-118717283D01*
X151846783Y-118907737D01*
X151846780Y-118907743D01*
X151780730Y-119111026D01*
X151747290Y-119322156D01*
X149129790Y-119322156D01*
X149129790Y-119082397D01*
X149129789Y-119082380D01*
X149123280Y-119021833D01*
X149123278Y-119021825D01*
X149088666Y-118929030D01*
X149072179Y-118884826D01*
X149072178Y-118884824D01*
X149072177Y-118884822D01*
X148984551Y-118767768D01*
X148867497Y-118680142D01*
X148867492Y-118680140D01*
X148730494Y-118629041D01*
X148730486Y-118629039D01*
X148669939Y-118622530D01*
X148669928Y-118622530D01*
X145772652Y-118622530D01*
X145772640Y-118622530D01*
X145712093Y-118629039D01*
X145712085Y-118629041D01*
X145575087Y-118680140D01*
X145575082Y-118680142D01*
X145458028Y-118767768D01*
X145370402Y-118884822D01*
X145370401Y-118884825D01*
X145358936Y-118915564D01*
X145316389Y-118972399D01*
X145249868Y-118997209D01*
X145240881Y-118997530D01*
X143401699Y-118997530D01*
X143333578Y-118977528D01*
X143287085Y-118923872D01*
X143283644Y-118915564D01*
X143272179Y-118884827D01*
X143272179Y-118884826D01*
X143272177Y-118884824D01*
X143272177Y-118884822D01*
X143184551Y-118767768D01*
X143067497Y-118680142D01*
X143067492Y-118680140D01*
X142930494Y-118629041D01*
X142930486Y-118629039D01*
X142869939Y-118622530D01*
X142869928Y-118622530D01*
X142280790Y-118622530D01*
X142271964Y-118619938D01*
X142262858Y-118621248D01*
X142238432Y-118610092D01*
X142212669Y-118602528D01*
X142206644Y-118595574D01*
X142198278Y-118591754D01*
X142183763Y-118569168D01*
X142166176Y-118548872D01*
X142163851Y-118538185D01*
X142159894Y-118532028D01*
X142154790Y-118496530D01*
X142154790Y-114768637D01*
X142154789Y-114768633D01*
X142130445Y-114646245D01*
X142082690Y-114530955D01*
X142013361Y-114427197D01*
X141925123Y-114338959D01*
X140575123Y-112988959D01*
X140471365Y-112919630D01*
X140356075Y-112871875D01*
X140282376Y-112857215D01*
X140233686Y-112847530D01*
X140233684Y-112847530D01*
X137644915Y-112847530D01*
X137576794Y-112827528D01*
X137530301Y-112773872D01*
X137520197Y-112703598D01*
X137532646Y-112664330D01*
X137573924Y-112583320D01*
X137637570Y-112387438D01*
X137669790Y-112184011D01*
X137669790Y-111978049D01*
X137637570Y-111774622D01*
X137574160Y-111579466D01*
X137572132Y-111508499D01*
X137608795Y-111447701D01*
X137672507Y-111416375D01*
X137693993Y-111414530D01*
X144683683Y-111414530D01*
X144683684Y-111414530D01*
X144806075Y-111390185D01*
X144921365Y-111342430D01*
X145025123Y-111273101D01*
X146888600Y-109409622D01*
X146904495Y-109400943D01*
X146917307Y-109388132D01*
X146935011Y-109384280D01*
X146950909Y-109375600D01*
X146968977Y-109376892D01*
X146986681Y-109373041D01*
X147021725Y-109380664D01*
X147025082Y-109381916D01*
X147025086Y-109381919D01*
X147055826Y-109393384D01*
X147112658Y-109435929D01*
X147137469Y-109502450D01*
X147137790Y-109511438D01*
X147137790Y-111350621D01*
X147117788Y-111418742D01*
X147064132Y-111465235D01*
X147055824Y-111468676D01*
X147025085Y-111480141D01*
X147025082Y-111480142D01*
X146908028Y-111567768D01*
X146820402Y-111684822D01*
X146820400Y-111684827D01*
X146769301Y-111821825D01*
X146769299Y-111821833D01*
X146762790Y-111882380D01*
X146762790Y-114779679D01*
X146769299Y-114840226D01*
X146769301Y-114840234D01*
X146820400Y-114977232D01*
X146820402Y-114977237D01*
X146908028Y-115094291D01*
X147025082Y-115181917D01*
X147025084Y-115181918D01*
X147025086Y-115181919D01*
X147084165Y-115203954D01*
X147162085Y-115233018D01*
X147162093Y-115233020D01*
X147222640Y-115239529D01*
X147222645Y-115239529D01*
X147222652Y-115239530D01*
X147222658Y-115239530D01*
X148319922Y-115239530D01*
X148319928Y-115239530D01*
X148319935Y-115239529D01*
X148319939Y-115239529D01*
X148380486Y-115233020D01*
X148380489Y-115233019D01*
X148380491Y-115233019D01*
X148517494Y-115181919D01*
X148518089Y-115181474D01*
X148634551Y-115094291D01*
X148722177Y-114977237D01*
X148722177Y-114977236D01*
X148722179Y-114977234D01*
X148773279Y-114840231D01*
X148776383Y-114811366D01*
X148779789Y-114779679D01*
X148779790Y-114779662D01*
X148779790Y-114779627D01*
X150763290Y-114779627D01*
X150769795Y-114840123D01*
X150820845Y-114976994D01*
X150820845Y-114976995D01*
X150908385Y-115093934D01*
X151025324Y-115181474D01*
X151162196Y-115232524D01*
X151222692Y-115239029D01*
X151222705Y-115239030D01*
X151517290Y-115239030D01*
X152025290Y-115239030D01*
X152319875Y-115239030D01*
X152319887Y-115239029D01*
X152380383Y-115232524D01*
X152517254Y-115181474D01*
X152517255Y-115181474D01*
X152634194Y-115093934D01*
X152721734Y-114976995D01*
X152721734Y-114976994D01*
X152772784Y-114840123D01*
X152779289Y-114779627D01*
X152779290Y-114779615D01*
X152779290Y-113585030D01*
X152025290Y-113585030D01*
X152025290Y-115239030D01*
X151517290Y-115239030D01*
X151517290Y-113585030D01*
X150763290Y-113585030D01*
X150763290Y-114779627D01*
X148779790Y-114779627D01*
X148779790Y-111882432D01*
X150763290Y-111882432D01*
X150763290Y-113077030D01*
X151517290Y-113077030D01*
X152025290Y-113077030D01*
X152779290Y-113077030D01*
X152779290Y-111882444D01*
X152779289Y-111882432D01*
X152772784Y-111821936D01*
X152721734Y-111685065D01*
X152721734Y-111685064D01*
X152634194Y-111568125D01*
X152517255Y-111480585D01*
X152380383Y-111429535D01*
X152319887Y-111423030D01*
X152025290Y-111423030D01*
X152025290Y-113077030D01*
X151517290Y-113077030D01*
X151517290Y-111423030D01*
X151222692Y-111423030D01*
X151162196Y-111429535D01*
X151025325Y-111480585D01*
X151025324Y-111480585D01*
X150908385Y-111568125D01*
X150820845Y-111685064D01*
X150820845Y-111685065D01*
X150769795Y-111821936D01*
X150763290Y-111882432D01*
X148779790Y-111882432D01*
X148779790Y-111882397D01*
X148779789Y-111882380D01*
X148773280Y-111821833D01*
X148773278Y-111821825D01*
X148739412Y-111731030D01*
X148722179Y-111684826D01*
X148722178Y-111684824D01*
X148722177Y-111684822D01*
X148634551Y-111567768D01*
X148517497Y-111480142D01*
X148517494Y-111480141D01*
X148486756Y-111468676D01*
X148429921Y-111426129D01*
X148405111Y-111359608D01*
X148404790Y-111350621D01*
X148404790Y-109511439D01*
X148424792Y-109443318D01*
X148478448Y-109396825D01*
X148486759Y-109393383D01*
X148505098Y-109386542D01*
X148517494Y-109381919D01*
X148634551Y-109294291D01*
X148679223Y-109234617D01*
X148722177Y-109177237D01*
X148722177Y-109177236D01*
X148722179Y-109177234D01*
X148773279Y-109040231D01*
X148773440Y-109038740D01*
X148779789Y-108979679D01*
X148779790Y-108979662D01*
X148779790Y-108979627D01*
X150763290Y-108979627D01*
X150769795Y-109040123D01*
X150820845Y-109176994D01*
X150820845Y-109176995D01*
X150908385Y-109293934D01*
X151025324Y-109381474D01*
X151162196Y-109432524D01*
X151222692Y-109439029D01*
X151222705Y-109439030D01*
X151517290Y-109439030D01*
X152025290Y-109439030D01*
X152319875Y-109439030D01*
X152319887Y-109439029D01*
X152380383Y-109432524D01*
X152517254Y-109381474D01*
X152517255Y-109381474D01*
X152634194Y-109293934D01*
X152721734Y-109176995D01*
X152721734Y-109176994D01*
X152772784Y-109040123D01*
X152779289Y-108979627D01*
X152779290Y-108979615D01*
X152779290Y-107785030D01*
X152025290Y-107785030D01*
X152025290Y-109439030D01*
X151517290Y-109439030D01*
X151517290Y-107785030D01*
X150763290Y-107785030D01*
X150763290Y-108979627D01*
X148779790Y-108979627D01*
X148779790Y-106082432D01*
X150763290Y-106082432D01*
X150763290Y-107277030D01*
X151517290Y-107277030D01*
X152025290Y-107277030D01*
X152779290Y-107277030D01*
X152779290Y-106082444D01*
X152779289Y-106082432D01*
X152772784Y-106021936D01*
X152721734Y-105885065D01*
X152721734Y-105885064D01*
X152634194Y-105768125D01*
X152517255Y-105680585D01*
X152380383Y-105629535D01*
X152319887Y-105623030D01*
X152025290Y-105623030D01*
X152025290Y-107277030D01*
X151517290Y-107277030D01*
X151517290Y-105623030D01*
X151222692Y-105623030D01*
X151162196Y-105629535D01*
X151025325Y-105680585D01*
X151025324Y-105680585D01*
X150908385Y-105768125D01*
X150820845Y-105885064D01*
X150820845Y-105885065D01*
X150769795Y-106021936D01*
X150763290Y-106082432D01*
X148779790Y-106082432D01*
X148779790Y-106082397D01*
X148779789Y-106082380D01*
X148773280Y-106021833D01*
X148773278Y-106021825D01*
X148734888Y-105918901D01*
X148722179Y-105884826D01*
X148722178Y-105884824D01*
X148722177Y-105884822D01*
X148634551Y-105767768D01*
X148517497Y-105680142D01*
X148517492Y-105680140D01*
X148380494Y-105629041D01*
X148380486Y-105629039D01*
X148319939Y-105622530D01*
X148319928Y-105622530D01*
X147222652Y-105622530D01*
X147222640Y-105622530D01*
X147162093Y-105629039D01*
X147162085Y-105629041D01*
X147025087Y-105680140D01*
X147025082Y-105680142D01*
X146908028Y-105767768D01*
X146820402Y-105884822D01*
X146820400Y-105884827D01*
X146769301Y-106021825D01*
X146769299Y-106021833D01*
X146762790Y-106082380D01*
X146762790Y-107591436D01*
X146742788Y-107659557D01*
X146725885Y-107680531D01*
X146679221Y-107727194D01*
X146679216Y-107727201D01*
X146609889Y-107830956D01*
X146609886Y-107830962D01*
X146573114Y-107919736D01*
X146545801Y-107960612D01*
X144395789Y-110110626D01*
X144333479Y-110144650D01*
X144306696Y-110147530D01*
X143154884Y-110147530D01*
X143086763Y-110127528D01*
X143040270Y-110073872D01*
X143030166Y-110003598D01*
X143059660Y-109939018D01*
X143065789Y-109932435D01*
X144159425Y-108838800D01*
X145463362Y-107534863D01*
X145532691Y-107431105D01*
X145580445Y-107315814D01*
X145597325Y-107230955D01*
X145604790Y-107193424D01*
X145604790Y-103560971D01*
X150195790Y-103560971D01*
X150195790Y-103565342D01*
X150195790Y-103801089D01*
X150231293Y-104025245D01*
X150233354Y-104038257D01*
X150236624Y-104048320D01*
X150307554Y-104266619D01*
X150416566Y-104480566D01*
X150557704Y-104674826D01*
X150557706Y-104674828D01*
X150557708Y-104674831D01*
X150727488Y-104844611D01*
X150727491Y-104844613D01*
X150727494Y-104844616D01*
X150921754Y-104985754D01*
X151135701Y-105094766D01*
X151364068Y-105168967D01*
X151601231Y-105206530D01*
X151601234Y-105206530D01*
X151841346Y-105206530D01*
X151841349Y-105206530D01*
X152078512Y-105168967D01*
X152306879Y-105094766D01*
X152520826Y-104985754D01*
X152715086Y-104844616D01*
X152884876Y-104674826D01*
X153026014Y-104480566D01*
X153135026Y-104266619D01*
X153209227Y-104038252D01*
X153246790Y-103801089D01*
X153246790Y-103560971D01*
X153209227Y-103323808D01*
X153135026Y-103095441D01*
X153026014Y-102881494D01*
X152884876Y-102687234D01*
X152884873Y-102687231D01*
X152884871Y-102687228D01*
X152715091Y-102517448D01*
X152715088Y-102517446D01*
X152715086Y-102517444D01*
X152520826Y-102376306D01*
X152306879Y-102267294D01*
X152306876Y-102267293D01*
X152306874Y-102267292D01*
X152078517Y-102193094D01*
X152078513Y-102193093D01*
X152078512Y-102193093D01*
X151841349Y-102155530D01*
X151601231Y-102155530D01*
X151364068Y-102193093D01*
X151364062Y-102193094D01*
X151135705Y-102267292D01*
X151135699Y-102267295D01*
X150921750Y-102376308D01*
X150727491Y-102517446D01*
X150727488Y-102517448D01*
X150557708Y-102687228D01*
X150557706Y-102687231D01*
X150416568Y-102881490D01*
X150307555Y-103095439D01*
X150307552Y-103095445D01*
X150233354Y-103323802D01*
X150233353Y-103323807D01*
X150233353Y-103323808D01*
X150195790Y-103560971D01*
X145604790Y-103560971D01*
X145604790Y-103095549D01*
X145624792Y-103027428D01*
X145678448Y-102980935D01*
X145748722Y-102970831D01*
X145769722Y-102975715D01*
X145863174Y-103006079D01*
X146074374Y-103039530D01*
X146074377Y-103039530D01*
X146288203Y-103039530D01*
X146288206Y-103039530D01*
X146499406Y-103006079D01*
X146702773Y-102940002D01*
X146893299Y-102842924D01*
X147066294Y-102717236D01*
X147169272Y-102614257D01*
X147231582Y-102580234D01*
X147302398Y-102585298D01*
X147359234Y-102627845D01*
X147376421Y-102659321D01*
X147420400Y-102777233D01*
X147420402Y-102777237D01*
X147508028Y-102894291D01*
X147625082Y-102981917D01*
X147625084Y-102981918D01*
X147625086Y-102981919D01*
X147684165Y-103003954D01*
X147762085Y-103033018D01*
X147762093Y-103033020D01*
X147822640Y-103039529D01*
X147822645Y-103039529D01*
X147822652Y-103039530D01*
X147822658Y-103039530D01*
X149619922Y-103039530D01*
X149619928Y-103039530D01*
X149619935Y-103039529D01*
X149619939Y-103039529D01*
X149680486Y-103033020D01*
X149680489Y-103033019D01*
X149680491Y-103033019D01*
X149817494Y-102981919D01*
X149818089Y-102981474D01*
X149934551Y-102894291D01*
X150022177Y-102777237D01*
X150022177Y-102777236D01*
X150022179Y-102777234D01*
X150073279Y-102640231D01*
X150076072Y-102614259D01*
X150079789Y-102579679D01*
X150079790Y-102579662D01*
X150079790Y-100782397D01*
X150079789Y-100782380D01*
X150073280Y-100721833D01*
X150073278Y-100721825D01*
X150022268Y-100585065D01*
X150022179Y-100584826D01*
X150022178Y-100584824D01*
X150022177Y-100584822D01*
X149934551Y-100467768D01*
X149817497Y-100380142D01*
X149817492Y-100380140D01*
X149680494Y-100329041D01*
X149680486Y-100329039D01*
X149619939Y-100322530D01*
X149619928Y-100322530D01*
X147822652Y-100322530D01*
X147822640Y-100322530D01*
X147762093Y-100329039D01*
X147762085Y-100329041D01*
X147625087Y-100380140D01*
X147625082Y-100380142D01*
X147508028Y-100467768D01*
X147420402Y-100584822D01*
X147420400Y-100584827D01*
X147376421Y-100702738D01*
X147333874Y-100759574D01*
X147267354Y-100784384D01*
X147197980Y-100769292D01*
X147169271Y-100747800D01*
X147066299Y-100644828D01*
X147066296Y-100644826D01*
X147066294Y-100644824D01*
X146893299Y-100519136D01*
X146702773Y-100422058D01*
X146702770Y-100422057D01*
X146702768Y-100422056D01*
X146499410Y-100355982D01*
X146499413Y-100355982D01*
X146460091Y-100349754D01*
X146288206Y-100322530D01*
X146074374Y-100322530D01*
X145939166Y-100343944D01*
X145863166Y-100355982D01*
X145863165Y-100355983D01*
X145769725Y-100386343D01*
X145741158Y-100387158D01*
X145712858Y-100391228D01*
X145706138Y-100388159D01*
X145698758Y-100388370D01*
X145674281Y-100373609D01*
X145648278Y-100361734D01*
X145644285Y-100355521D01*
X145637960Y-100351707D01*
X145625346Y-100326052D01*
X145609894Y-100302008D01*
X145608393Y-100291571D01*
X145606635Y-100287995D01*
X145604790Y-100266510D01*
X145604790Y-95995624D01*
X145624792Y-95927503D01*
X145641695Y-95906529D01*
X150957792Y-90590432D01*
X151747290Y-90590432D01*
X151747290Y-91235030D01*
X152674587Y-91235030D01*
X152639365Y-91296037D01*
X152605290Y-91423204D01*
X152605290Y-91554856D01*
X152639365Y-91682023D01*
X152674587Y-91743030D01*
X151747290Y-91743030D01*
X151747290Y-92387627D01*
X151753795Y-92448123D01*
X151804845Y-92584994D01*
X151804845Y-92584995D01*
X151892385Y-92701934D01*
X152009324Y-92789474D01*
X152146199Y-92840525D01*
X152188270Y-92845048D01*
X152250576Y-92841704D01*
X152310703Y-92875234D01*
X152980341Y-93544872D01*
X152912297Y-93563105D01*
X152798283Y-93628931D01*
X152705191Y-93722023D01*
X152639365Y-93836037D01*
X152621132Y-93904081D01*
X151981912Y-93264861D01*
X151981911Y-93264861D01*
X151943824Y-93317283D01*
X151846783Y-93507737D01*
X151846780Y-93507743D01*
X151780730Y-93711026D01*
X151747290Y-93922156D01*
X151747290Y-94135903D01*
X151780730Y-94347033D01*
X151846780Y-94550316D01*
X151846783Y-94550322D01*
X151943825Y-94740778D01*
X151943826Y-94740780D01*
X151981910Y-94793197D01*
X151981911Y-94793198D01*
X152621131Y-94153977D01*
X152639365Y-94222023D01*
X152705191Y-94336037D01*
X152798283Y-94429129D01*
X152912297Y-94494955D01*
X152980341Y-94513187D01*
X152370089Y-95123439D01*
X152437116Y-95233486D01*
X152438743Y-95239569D01*
X152442968Y-95244238D01*
X152447811Y-95273456D01*
X152455468Y-95302069D01*
X152453548Y-95308065D01*
X152454579Y-95314279D01*
X152442853Y-95341484D01*
X152433828Y-95369687D01*
X152428971Y-95373693D01*
X152426479Y-95379478D01*
X152397502Y-95404590D01*
X152397549Y-95404654D01*
X152396810Y-95405190D01*
X152395355Y-95406452D01*
X152393559Y-95407552D01*
X152341121Y-95445651D01*
X152341121Y-95445652D01*
X152980341Y-96084872D01*
X152912297Y-96103105D01*
X152798283Y-96168931D01*
X152705191Y-96262023D01*
X152639365Y-96376037D01*
X152621132Y-96444081D01*
X151981912Y-95804861D01*
X151981911Y-95804861D01*
X151943824Y-95857283D01*
X151846783Y-96047737D01*
X151846780Y-96047743D01*
X151780730Y-96251026D01*
X151747290Y-96462156D01*
X151747290Y-96675903D01*
X151780730Y-96887033D01*
X151846780Y-97090316D01*
X151846783Y-97090322D01*
X151943825Y-97280778D01*
X151943826Y-97280780D01*
X151981910Y-97333197D01*
X151981911Y-97333198D01*
X152621131Y-96693977D01*
X152639365Y-96762023D01*
X152705191Y-96876037D01*
X152798283Y-96969129D01*
X152912297Y-97034955D01*
X152980341Y-97053187D01*
X152370089Y-97663439D01*
X152437116Y-97773486D01*
X152438743Y-97779569D01*
X152442968Y-97784238D01*
X152447811Y-97813456D01*
X152455468Y-97842069D01*
X152453548Y-97848065D01*
X152454579Y-97854279D01*
X152442853Y-97881484D01*
X152433828Y-97909687D01*
X152428971Y-97913693D01*
X152426479Y-97919478D01*
X152397502Y-97944590D01*
X152397549Y-97944654D01*
X152396810Y-97945190D01*
X152395355Y-97946452D01*
X152393559Y-97947552D01*
X152341121Y-97985651D01*
X152341121Y-97985652D01*
X152980341Y-98624872D01*
X152912297Y-98643105D01*
X152798283Y-98708931D01*
X152705191Y-98802023D01*
X152639365Y-98916037D01*
X152621132Y-98984081D01*
X151981912Y-98344861D01*
X151981911Y-98344861D01*
X151943824Y-98397283D01*
X151846783Y-98587737D01*
X151846780Y-98587743D01*
X151780730Y-98791026D01*
X151747290Y-99002156D01*
X151747290Y-99215903D01*
X151780730Y-99427033D01*
X151846780Y-99630316D01*
X151846783Y-99630322D01*
X151943825Y-99820778D01*
X151943826Y-99820780D01*
X151981910Y-99873197D01*
X151981911Y-99873198D01*
X152621131Y-99233977D01*
X152639365Y-99302023D01*
X152705191Y-99416037D01*
X152798283Y-99509129D01*
X152912297Y-99574955D01*
X152980341Y-99593187D01*
X152341121Y-100232408D01*
X152393539Y-100270493D01*
X152393541Y-100270494D01*
X152583997Y-100367536D01*
X152584003Y-100367539D01*
X152787286Y-100433589D01*
X152998416Y-100467030D01*
X153212164Y-100467030D01*
X153423293Y-100433589D01*
X153626576Y-100367539D01*
X153626582Y-100367536D01*
X153817040Y-100270493D01*
X153869457Y-100232408D01*
X153869457Y-100232406D01*
X153230238Y-99593187D01*
X153298283Y-99574955D01*
X153412297Y-99509129D01*
X153505389Y-99416037D01*
X153571215Y-99302023D01*
X153589447Y-99233978D01*
X154228666Y-99873197D01*
X154228668Y-99873197D01*
X154266753Y-99820780D01*
X154363796Y-99630322D01*
X154363799Y-99630316D01*
X154429849Y-99427033D01*
X154463290Y-99215903D01*
X154463290Y-99002156D01*
X154429849Y-98791026D01*
X154363799Y-98587743D01*
X154363796Y-98587737D01*
X154266754Y-98397281D01*
X154266753Y-98397279D01*
X154228668Y-98344861D01*
X153589447Y-98984081D01*
X153571215Y-98916037D01*
X153505389Y-98802023D01*
X153412297Y-98708931D01*
X153298283Y-98643105D01*
X153230237Y-98624871D01*
X153869458Y-97985651D01*
X153869457Y-97985650D01*
X153817039Y-97947565D01*
X153815240Y-97946463D01*
X153814699Y-97945865D01*
X153813032Y-97944654D01*
X153813286Y-97944303D01*
X153767608Y-97893816D01*
X153756001Y-97823775D01*
X153784104Y-97758577D01*
X153813078Y-97733472D01*
X153813031Y-97733407D01*
X153813788Y-97732856D01*
X153815248Y-97731592D01*
X153817040Y-97730493D01*
X153869457Y-97692408D01*
X153869457Y-97692406D01*
X153230238Y-97053187D01*
X153298283Y-97034955D01*
X153412297Y-96969129D01*
X153505389Y-96876037D01*
X153571215Y-96762023D01*
X153589447Y-96693978D01*
X154228666Y-97333197D01*
X154228668Y-97333197D01*
X154266753Y-97280780D01*
X154363796Y-97090322D01*
X154363799Y-97090316D01*
X154429849Y-96887033D01*
X154463290Y-96675903D01*
X154463290Y-96462156D01*
X154429849Y-96251026D01*
X154363799Y-96047743D01*
X154363796Y-96047737D01*
X154266754Y-95857281D01*
X154266753Y-95857279D01*
X154228668Y-95804861D01*
X153589447Y-96444081D01*
X153571215Y-96376037D01*
X153505389Y-96262023D01*
X153412297Y-96168931D01*
X153298283Y-96103105D01*
X153230237Y-96084871D01*
X153869458Y-95445651D01*
X153869457Y-95445650D01*
X153817039Y-95407565D01*
X153815240Y-95406463D01*
X153814699Y-95405865D01*
X153813032Y-95404654D01*
X153813286Y-95404303D01*
X153767608Y-95353816D01*
X153756001Y-95283775D01*
X153784104Y-95218577D01*
X153813078Y-95193472D01*
X153813031Y-95193407D01*
X153813788Y-95192856D01*
X153815248Y-95191592D01*
X153817040Y-95190493D01*
X153869457Y-95152408D01*
X153869457Y-95152406D01*
X153230238Y-94513187D01*
X153298283Y-94494955D01*
X153412297Y-94429129D01*
X153505389Y-94336037D01*
X153571215Y-94222023D01*
X153589447Y-94153978D01*
X154228666Y-94793197D01*
X154228668Y-94793197D01*
X154266753Y-94740780D01*
X154363796Y-94550322D01*
X154363799Y-94550316D01*
X154429849Y-94347033D01*
X154463290Y-94135903D01*
X154463290Y-93922156D01*
X154429849Y-93711026D01*
X154363799Y-93507743D01*
X154363796Y-93507737D01*
X154266754Y-93317281D01*
X154266753Y-93317279D01*
X154228668Y-93264861D01*
X153589447Y-93904081D01*
X153571215Y-93836037D01*
X153505389Y-93722023D01*
X153412297Y-93628931D01*
X153298283Y-93563105D01*
X153230237Y-93544871D01*
X153899873Y-92875235D01*
X153962186Y-92841210D01*
X154022760Y-92844999D01*
X154064377Y-92840526D01*
X154064384Y-92840524D01*
X154201254Y-92789474D01*
X154201255Y-92789474D01*
X154318194Y-92701934D01*
X154405734Y-92584995D01*
X154405734Y-92584994D01*
X154456784Y-92448123D01*
X154463289Y-92387627D01*
X154463290Y-92387615D01*
X154463290Y-91743030D01*
X153535993Y-91743030D01*
X153571215Y-91682023D01*
X153605290Y-91554856D01*
X153605290Y-91494348D01*
X163369890Y-91494348D01*
X163369890Y-91667712D01*
X163390215Y-91796037D01*
X163397011Y-91838947D01*
X163450199Y-92002642D01*
X163450582Y-92003821D01*
X163502285Y-92105293D01*
X163529290Y-92158293D01*
X163631190Y-92298546D01*
X163753773Y-92421129D01*
X163790927Y-92448123D01*
X163894030Y-92523032D01*
X164048499Y-92601738D01*
X164213372Y-92655308D01*
X164213373Y-92655308D01*
X164213378Y-92655310D01*
X164384608Y-92682430D01*
X164384611Y-92682430D01*
X164557969Y-92682430D01*
X164557972Y-92682430D01*
X164729202Y-92655310D01*
X164894081Y-92601738D01*
X165048550Y-92523032D01*
X165188804Y-92421131D01*
X165311391Y-92298544D01*
X165413292Y-92158290D01*
X165491998Y-92003821D01*
X165545570Y-91838942D01*
X165572690Y-91667712D01*
X165572690Y-91494348D01*
X165545570Y-91323118D01*
X165491998Y-91158239D01*
X165413292Y-91003770D01*
X165386063Y-90966293D01*
X166470790Y-90966293D01*
X166470790Y-91195766D01*
X166500740Y-91423261D01*
X166500742Y-91423268D01*
X166560132Y-91644917D01*
X166647946Y-91856918D01*
X166647947Y-91856919D01*
X166647952Y-91856930D01*
X166762676Y-92055638D01*
X166762681Y-92055645D01*
X166902363Y-92237682D01*
X166902382Y-92237703D01*
X167064616Y-92399937D01*
X167064637Y-92399956D01*
X167246674Y-92539638D01*
X167246681Y-92539643D01*
X167445389Y-92654367D01*
X167445393Y-92654368D01*
X167445402Y-92654374D01*
X167657403Y-92742188D01*
X167879052Y-92801578D01*
X167879056Y-92801578D01*
X167879058Y-92801579D01*
X167937688Y-92809297D01*
X168106556Y-92831530D01*
X168106563Y-92831530D01*
X168336017Y-92831530D01*
X168336024Y-92831530D01*
X168541635Y-92804460D01*
X168563521Y-92801579D01*
X168563521Y-92801578D01*
X168563528Y-92801578D01*
X168785177Y-92742188D01*
X168997178Y-92654374D01*
X169195902Y-92539641D01*
X169377951Y-92399949D01*
X169540209Y-92237691D01*
X169679901Y-92055642D01*
X169794634Y-91856918D01*
X169882448Y-91644917D01*
X169941838Y-91423268D01*
X169941847Y-91423204D01*
X169955024Y-91323112D01*
X169971790Y-91195764D01*
X169971790Y-90966296D01*
X169949557Y-90797428D01*
X169941839Y-90738798D01*
X169941838Y-90738796D01*
X169941838Y-90738792D01*
X169882448Y-90517143D01*
X169794634Y-90305142D01*
X169794628Y-90305133D01*
X169794627Y-90305129D01*
X169679903Y-90106421D01*
X169679898Y-90106414D01*
X169540216Y-89924377D01*
X169540197Y-89924356D01*
X169377963Y-89762122D01*
X169377942Y-89762103D01*
X169195905Y-89622421D01*
X169195898Y-89622416D01*
X168997190Y-89507692D01*
X168997182Y-89507688D01*
X168997178Y-89507686D01*
X168785177Y-89419872D01*
X168563528Y-89360482D01*
X168563521Y-89360480D01*
X168336026Y-89330530D01*
X168336024Y-89330530D01*
X168106556Y-89330530D01*
X168106553Y-89330530D01*
X167879058Y-89360480D01*
X167657403Y-89419872D01*
X167573341Y-89454692D01*
X167445400Y-89507687D01*
X167445389Y-89507692D01*
X167246681Y-89622416D01*
X167246674Y-89622421D01*
X167064637Y-89762103D01*
X167064616Y-89762122D01*
X166902382Y-89924356D01*
X166902363Y-89924377D01*
X166762681Y-90106414D01*
X166762676Y-90106421D01*
X166647952Y-90305129D01*
X166647947Y-90305140D01*
X166560132Y-90517143D01*
X166500740Y-90738798D01*
X166470790Y-90966293D01*
X165386063Y-90966293D01*
X165311391Y-90863516D01*
X165311389Y-90863513D01*
X165188806Y-90740930D01*
X165048553Y-90639030D01*
X165048552Y-90639029D01*
X165048550Y-90639028D01*
X164894081Y-90560322D01*
X164894078Y-90560321D01*
X164894076Y-90560320D01*
X164739594Y-90510126D01*
X164729205Y-90506751D01*
X164729209Y-90506751D01*
X164697331Y-90501702D01*
X164557972Y-90479630D01*
X164384608Y-90479630D01*
X164213378Y-90506750D01*
X164213372Y-90506751D01*
X164048503Y-90560320D01*
X164048497Y-90560323D01*
X163894026Y-90639030D01*
X163753773Y-90740930D01*
X163631190Y-90863513D01*
X163529290Y-91003766D01*
X163450583Y-91158237D01*
X163450580Y-91158243D01*
X163397011Y-91323112D01*
X163397010Y-91323117D01*
X163397010Y-91323118D01*
X163369890Y-91494348D01*
X153605290Y-91494348D01*
X153605290Y-91423204D01*
X153571215Y-91296037D01*
X153535993Y-91235030D01*
X154463290Y-91235030D01*
X154463290Y-90590444D01*
X154463289Y-90590432D01*
X154456784Y-90529936D01*
X154405734Y-90393065D01*
X154405734Y-90393064D01*
X154318194Y-90276125D01*
X154201255Y-90188585D01*
X154064383Y-90137535D01*
X154003887Y-90131030D01*
X153359290Y-90131030D01*
X153359290Y-91058327D01*
X153298283Y-91023105D01*
X153171116Y-90989030D01*
X153039464Y-90989030D01*
X152912297Y-91023105D01*
X152851290Y-91058327D01*
X152851290Y-90131030D01*
X152206692Y-90131030D01*
X152146196Y-90137535D01*
X152009325Y-90188585D01*
X152009324Y-90188585D01*
X151892385Y-90276125D01*
X151804845Y-90393064D01*
X151804845Y-90393065D01*
X151753795Y-90529936D01*
X151747290Y-90590432D01*
X150957792Y-90590432D01*
X155595990Y-85952234D01*
X162506290Y-85952234D01*
X162506290Y-86209825D01*
X162539910Y-86465197D01*
X162539911Y-86465203D01*
X162539912Y-86465205D01*
X162606580Y-86714014D01*
X162705154Y-86951992D01*
X162705155Y-86951993D01*
X162705160Y-86952004D01*
X162833949Y-87175073D01*
X162990750Y-87379418D01*
X162990769Y-87379439D01*
X163172880Y-87561550D01*
X163172890Y-87561559D01*
X163172896Y-87561565D01*
X163172899Y-87561567D01*
X163172901Y-87561569D01*
X163377246Y-87718370D01*
X163600315Y-87847159D01*
X163600319Y-87847160D01*
X163600328Y-87847166D01*
X163838306Y-87945740D01*
X164087115Y-88012408D01*
X164087121Y-88012408D01*
X164087122Y-88012409D01*
X164116424Y-88016266D01*
X164342497Y-88046030D01*
X164342504Y-88046030D01*
X164600076Y-88046030D01*
X164600083Y-88046030D01*
X164855465Y-88012408D01*
X165104274Y-87945740D01*
X165342252Y-87847166D01*
X165565328Y-87718373D01*
X165565328Y-87718372D01*
X165565333Y-87718370D01*
X165717804Y-87601374D01*
X165769684Y-87561565D01*
X165951825Y-87379424D01*
X166017567Y-87293747D01*
X166108630Y-87175073D01*
X166120136Y-87155145D01*
X166237426Y-86951992D01*
X166336000Y-86714014D01*
X166402668Y-86465205D01*
X166436290Y-86209823D01*
X166436290Y-85952237D01*
X166402668Y-85696855D01*
X166336000Y-85448046D01*
X166237426Y-85210068D01*
X166237420Y-85210059D01*
X166237419Y-85210055D01*
X166108630Y-84986986D01*
X165951829Y-84782641D01*
X165951827Y-84782639D01*
X165951825Y-84782636D01*
X165951819Y-84782630D01*
X165951810Y-84782620D01*
X165769699Y-84600509D01*
X165769678Y-84600490D01*
X165565333Y-84443689D01*
X165342264Y-84314900D01*
X165342256Y-84314896D01*
X165342252Y-84314894D01*
X165104274Y-84216320D01*
X164855465Y-84149652D01*
X164855463Y-84149651D01*
X164855457Y-84149650D01*
X164600085Y-84116030D01*
X164600083Y-84116030D01*
X164342497Y-84116030D01*
X164342494Y-84116030D01*
X164087122Y-84149650D01*
X163988488Y-84176079D01*
X163838306Y-84216320D01*
X163690533Y-84277530D01*
X163600326Y-84314895D01*
X163600315Y-84314900D01*
X163377246Y-84443689D01*
X163172901Y-84600490D01*
X163172880Y-84600509D01*
X162990769Y-84782620D01*
X162990750Y-84782641D01*
X162833949Y-84986986D01*
X162705160Y-85210055D01*
X162705155Y-85210066D01*
X162705154Y-85210068D01*
X162628533Y-85395046D01*
X162606580Y-85448046D01*
X162539910Y-85696862D01*
X162506290Y-85952234D01*
X155595990Y-85952234D01*
X157946789Y-83601435D01*
X158009101Y-83567409D01*
X158035884Y-83564530D01*
X167767787Y-83564530D01*
X167835908Y-83584532D01*
X167856882Y-83601435D01*
X167892155Y-83636708D01*
X168040954Y-83736132D01*
X168206290Y-83804617D01*
X168381811Y-83839530D01*
X168381812Y-83839530D01*
X168560768Y-83839530D01*
X168560769Y-83839530D01*
X168736290Y-83804617D01*
X168901626Y-83736132D01*
X169050425Y-83636708D01*
X169176968Y-83510165D01*
X169276392Y-83361366D01*
X169344877Y-83196030D01*
X169379790Y-83020509D01*
X169379790Y-82841551D01*
X169344877Y-82666030D01*
X169276392Y-82500694D01*
X169176968Y-82351895D01*
X169050425Y-82225352D01*
X168901626Y-82125928D01*
X168784719Y-82077503D01*
X168736293Y-82057444D01*
X168736291Y-82057443D01*
X168736290Y-82057443D01*
X168628488Y-82036000D01*
X168560771Y-82022530D01*
X168560769Y-82022530D01*
X168381811Y-82022530D01*
X168381808Y-82022530D01*
X168251061Y-82048537D01*
X168206290Y-82057443D01*
X168206289Y-82057443D01*
X168206286Y-82057444D01*
X168040952Y-82125929D01*
X167892159Y-82225349D01*
X167892152Y-82225354D01*
X167856882Y-82260625D01*
X167794570Y-82294651D01*
X167767787Y-82297530D01*
X157658893Y-82297530D01*
X157585858Y-82312058D01*
X157536505Y-82321875D01*
X157536503Y-82321875D01*
X157536502Y-82321876D01*
X157421213Y-82369631D01*
X157317461Y-82438956D01*
X157317454Y-82438961D01*
X153953834Y-85802582D01*
X153891522Y-85836608D01*
X153820707Y-85831543D01*
X153763871Y-85788996D01*
X153739060Y-85722476D01*
X153738739Y-85713487D01*
X153738739Y-84136189D01*
X153758741Y-84068068D01*
X153807536Y-84023923D01*
X153817248Y-84018975D01*
X153990243Y-83893287D01*
X154141445Y-83742085D01*
X154267133Y-83569090D01*
X154364211Y-83378564D01*
X154430288Y-83175197D01*
X154463739Y-82963997D01*
X154463739Y-82818365D01*
X154483741Y-82750244D01*
X154537397Y-82703751D01*
X154607671Y-82693647D01*
X154642078Y-82703750D01*
X154756556Y-82756031D01*
X154901290Y-82776840D01*
X155046024Y-82756031D01*
X155179033Y-82695288D01*
X155226462Y-82657068D01*
X156497328Y-81386202D01*
X156535548Y-81338773D01*
X156596291Y-81205764D01*
X156617100Y-81061030D01*
X156596291Y-80916296D01*
X156535548Y-80783287D01*
X156497328Y-80735858D01*
X156497321Y-80735851D01*
X156497313Y-80735842D01*
X156255819Y-80494348D01*
X163369890Y-80494348D01*
X163369890Y-80667712D01*
X163397010Y-80838942D01*
X163397011Y-80838947D01*
X163445690Y-80988765D01*
X163450582Y-81003821D01*
X163529288Y-81158290D01*
X163529290Y-81158293D01*
X163631190Y-81298546D01*
X163753773Y-81421129D01*
X163845908Y-81488069D01*
X163894030Y-81523032D01*
X164048499Y-81601738D01*
X164213372Y-81655308D01*
X164213373Y-81655308D01*
X164213378Y-81655310D01*
X164384608Y-81682430D01*
X164384611Y-81682430D01*
X164557969Y-81682430D01*
X164557972Y-81682430D01*
X164729202Y-81655310D01*
X164894081Y-81601738D01*
X165048550Y-81523032D01*
X165188804Y-81421131D01*
X165311391Y-81298544D01*
X165413292Y-81158290D01*
X165491998Y-81003821D01*
X165545570Y-80838942D01*
X165572690Y-80667712D01*
X165572690Y-80494348D01*
X165545570Y-80323118D01*
X165491998Y-80158239D01*
X165413292Y-80003770D01*
X165311391Y-79863516D01*
X165311389Y-79863513D01*
X165188806Y-79740930D01*
X165048553Y-79639030D01*
X165048552Y-79639029D01*
X165048550Y-79639028D01*
X164894081Y-79560322D01*
X164894078Y-79560321D01*
X164894076Y-79560320D01*
X164739594Y-79510126D01*
X164729205Y-79506751D01*
X164729209Y-79506751D01*
X164697331Y-79501702D01*
X164557972Y-79479630D01*
X164384608Y-79479630D01*
X164213378Y-79506750D01*
X164213372Y-79506751D01*
X164048503Y-79560320D01*
X164048497Y-79560323D01*
X163894026Y-79639030D01*
X163753773Y-79740930D01*
X163631190Y-79863513D01*
X163529290Y-80003766D01*
X163450583Y-80158237D01*
X163450580Y-80158243D01*
X163397011Y-80323112D01*
X163397010Y-80323117D01*
X163397010Y-80323118D01*
X163369890Y-80494348D01*
X156255819Y-80494348D01*
X155226477Y-79465006D01*
X155226467Y-79464997D01*
X155226462Y-79464992D01*
X155179033Y-79426772D01*
X155046024Y-79366029D01*
X154901290Y-79345220D01*
X154756555Y-79366029D01*
X154623546Y-79426772D01*
X154576121Y-79464989D01*
X154576102Y-79465006D01*
X153305266Y-80735842D01*
X153305249Y-80735861D01*
X153267032Y-80783286D01*
X153209053Y-80910244D01*
X153206289Y-80916296D01*
X153185480Y-81061030D01*
X153206289Y-81205764D01*
X153255804Y-81314188D01*
X153258568Y-81320239D01*
X153268671Y-81390513D01*
X153239178Y-81455094D01*
X153179452Y-81493477D01*
X153143954Y-81498581D01*
X152998323Y-81498581D01*
X152787123Y-81532032D01*
X152787117Y-81532033D01*
X152583760Y-81598107D01*
X152583754Y-81598110D01*
X152393226Y-81695189D01*
X152220232Y-81820877D01*
X152220229Y-81820879D01*
X152069037Y-81972071D01*
X152069035Y-81972074D01*
X151943347Y-82145068D01*
X151846268Y-82335596D01*
X151846265Y-82335602D01*
X151780191Y-82538959D01*
X151780190Y-82538964D01*
X151780190Y-82538965D01*
X151746739Y-82750165D01*
X151746739Y-82963997D01*
X151756652Y-83026582D01*
X151780192Y-83175211D01*
X151780494Y-83176466D01*
X151780469Y-83176956D01*
X151780965Y-83180086D01*
X151780307Y-83180190D01*
X151776939Y-83247374D01*
X151735612Y-83305102D01*
X151669635Y-83331324D01*
X151632226Y-83328648D01*
X151632193Y-83328858D01*
X151629751Y-83328471D01*
X151628573Y-83328387D01*
X151627318Y-83328085D01*
X151561015Y-83317583D01*
X151416104Y-83294632D01*
X151202272Y-83294632D01*
X150991072Y-83328083D01*
X150991066Y-83328084D01*
X150787709Y-83394158D01*
X150787703Y-83394161D01*
X150597175Y-83491240D01*
X150424181Y-83616928D01*
X150424178Y-83616930D01*
X150272986Y-83768122D01*
X150272984Y-83768125D01*
X150147296Y-83941119D01*
X150050217Y-84131647D01*
X150050214Y-84131653D01*
X149984140Y-84335010D01*
X149984139Y-84335015D01*
X149984139Y-84335016D01*
X149950688Y-84546216D01*
X149950688Y-84760048D01*
X149983955Y-84970086D01*
X149984142Y-84971266D01*
X149984444Y-84972523D01*
X149984419Y-84973014D01*
X149984914Y-84976137D01*
X149984257Y-84976240D01*
X149980886Y-85043430D01*
X149939557Y-85101157D01*
X149873579Y-85127376D01*
X149836174Y-85124700D01*
X149836141Y-85124910D01*
X149833705Y-85124524D01*
X149832527Y-85124440D01*
X149831270Y-85124138D01*
X149831252Y-85124135D01*
X149620052Y-85090684D01*
X149406220Y-85090684D01*
X149195020Y-85124135D01*
X149195014Y-85124136D01*
X148991657Y-85190210D01*
X148991651Y-85190213D01*
X148801123Y-85287292D01*
X148628129Y-85412980D01*
X148628126Y-85412982D01*
X148476934Y-85564174D01*
X148476932Y-85564177D01*
X148351244Y-85737171D01*
X148254165Y-85927699D01*
X148254162Y-85927705D01*
X148188088Y-86131062D01*
X148188087Y-86131067D01*
X148188087Y-86131068D01*
X148154636Y-86342268D01*
X148154636Y-86556100D01*
X148188087Y-86767300D01*
X148188088Y-86767305D01*
X148248100Y-86952004D01*
X148254164Y-86970667D01*
X148351242Y-87161193D01*
X148476930Y-87334188D01*
X148476932Y-87334190D01*
X148476934Y-87334193D01*
X148628126Y-87485385D01*
X148628129Y-87485387D01*
X148628132Y-87485390D01*
X148801127Y-87611078D01*
X148991653Y-87708156D01*
X149195014Y-87774231D01*
X149195015Y-87774231D01*
X149195020Y-87774233D01*
X149406220Y-87807684D01*
X149406223Y-87807684D01*
X149620049Y-87807684D01*
X149620052Y-87807684D01*
X149831252Y-87774233D01*
X150034619Y-87708156D01*
X150225145Y-87611078D01*
X150398140Y-87485390D01*
X150549342Y-87334188D01*
X150675030Y-87161193D01*
X150772108Y-86970667D01*
X150838185Y-86767300D01*
X150871636Y-86556100D01*
X150871636Y-86342268D01*
X150838185Y-86131068D01*
X150838181Y-86131058D01*
X150837882Y-86129807D01*
X150837906Y-86129314D01*
X150837410Y-86126179D01*
X150838068Y-86126074D01*
X150841432Y-86058899D01*
X150882754Y-86001167D01*
X150948729Y-85974940D01*
X150986149Y-85977616D01*
X150986183Y-85977406D01*
X150988629Y-85977793D01*
X150989811Y-85977878D01*
X150991062Y-85978177D01*
X150991072Y-85978181D01*
X151202272Y-86011632D01*
X151202275Y-86011632D01*
X151416101Y-86011632D01*
X151416104Y-86011632D01*
X151627304Y-85978181D01*
X151830671Y-85912104D01*
X152021197Y-85815026D01*
X152194192Y-85689338D01*
X152200248Y-85683282D01*
X152256644Y-85626887D01*
X152318956Y-85592861D01*
X152389771Y-85597926D01*
X152446607Y-85640473D01*
X152471418Y-85706993D01*
X152471739Y-85715982D01*
X152471739Y-85982487D01*
X152451737Y-86050608D01*
X152434834Y-86071582D01*
X145520791Y-92985625D01*
X145458479Y-93019651D01*
X145431696Y-93022530D01*
X145381808Y-93022530D01*
X145251061Y-93048537D01*
X145206290Y-93057443D01*
X145206289Y-93057443D01*
X145206286Y-93057444D01*
X145040952Y-93125929D01*
X144892159Y-93225349D01*
X144892152Y-93225354D01*
X144765614Y-93351892D01*
X144765609Y-93351899D01*
X144666189Y-93500692D01*
X144597704Y-93666026D01*
X144562790Y-93841548D01*
X144562790Y-94020511D01*
X144577578Y-94094856D01*
X144597703Y-94196030D01*
X144666188Y-94361366D01*
X144765612Y-94510165D01*
X144892155Y-94636708D01*
X144900904Y-94642554D01*
X144946432Y-94697027D01*
X144955282Y-94767470D01*
X144924643Y-94831515D01*
X144920000Y-94836414D01*
X144567457Y-95188959D01*
X144479217Y-95277199D01*
X144479216Y-95277201D01*
X144428024Y-95353816D01*
X144409890Y-95380955D01*
X144399572Y-95405865D01*
X144362136Y-95496242D01*
X144337790Y-95618633D01*
X144337790Y-100305980D01*
X144317788Y-100374101D01*
X144264132Y-100420594D01*
X144193858Y-100430698D01*
X144167518Y-100423472D01*
X144167481Y-100423588D01*
X144165001Y-100422782D01*
X144163582Y-100422393D01*
X144162776Y-100422059D01*
X143959410Y-100355982D01*
X143959413Y-100355982D01*
X143920091Y-100349754D01*
X143748206Y-100322530D01*
X143534374Y-100322530D01*
X143323174Y-100355981D01*
X143323168Y-100355982D01*
X143119811Y-100422056D01*
X143119805Y-100422059D01*
X142929277Y-100519138D01*
X142756283Y-100644826D01*
X142756280Y-100644828D01*
X142605088Y-100796020D01*
X142605086Y-100796023D01*
X142479398Y-100969017D01*
X142382319Y-101159545D01*
X142382316Y-101159551D01*
X142316242Y-101362908D01*
X142316241Y-101362913D01*
X142316241Y-101362914D01*
X142282790Y-101574114D01*
X142282790Y-101787946D01*
X142316241Y-101999146D01*
X142316242Y-101999151D01*
X142382316Y-102202508D01*
X142382318Y-102202513D01*
X142479396Y-102393039D01*
X142605084Y-102566034D01*
X142605086Y-102566036D01*
X142605088Y-102566039D01*
X142756280Y-102717231D01*
X142756283Y-102717233D01*
X142756286Y-102717236D01*
X142929281Y-102842924D01*
X143119807Y-102940002D01*
X143323168Y-103006077D01*
X143323169Y-103006077D01*
X143323174Y-103006079D01*
X143534374Y-103039530D01*
X143534377Y-103039530D01*
X143748203Y-103039530D01*
X143748206Y-103039530D01*
X143959406Y-103006079D01*
X144162773Y-102940002D01*
X144162793Y-102939991D01*
X144163564Y-102939673D01*
X144163893Y-102939637D01*
X144167481Y-102938472D01*
X144167725Y-102939225D01*
X144234153Y-102932079D01*
X144297642Y-102963854D01*
X144333874Y-103024910D01*
X144337790Y-103056079D01*
X144337790Y-106816435D01*
X144317788Y-106884556D01*
X144300885Y-106905530D01*
X142195791Y-109010625D01*
X142133479Y-109044650D01*
X142106696Y-109047530D01*
X139785884Y-109047530D01*
X139717763Y-109027528D01*
X139696789Y-109010625D01*
X137706695Y-107020531D01*
X137672669Y-106958219D01*
X137669790Y-106931436D01*
X137669790Y-106898052D01*
X137669790Y-106898049D01*
X137637570Y-106694622D01*
X137594059Y-106560709D01*
X139192460Y-106560709D01*
X139192460Y-106565081D01*
X139192460Y-106801351D01*
X139221330Y-106983626D01*
X139230106Y-107039037D01*
X139304466Y-107267893D01*
X139413720Y-107482314D01*
X139448688Y-107530443D01*
X139555164Y-107676996D01*
X139555166Y-107676998D01*
X139555168Y-107677001D01*
X139725318Y-107847151D01*
X139725321Y-107847153D01*
X139725324Y-107847156D01*
X139920009Y-107988602D01*
X140134423Y-108097852D01*
X140363288Y-108172215D01*
X140600969Y-108209860D01*
X140600972Y-108209860D01*
X140841608Y-108209860D01*
X140841611Y-108209860D01*
X141079292Y-108172215D01*
X141308157Y-108097852D01*
X141522571Y-107988602D01*
X141717256Y-107847156D01*
X141887416Y-107676996D01*
X142028862Y-107482311D01*
X142138112Y-107267897D01*
X142212475Y-107039032D01*
X142250120Y-106801351D01*
X142250120Y-106560709D01*
X142212475Y-106323028D01*
X142138112Y-106094163D01*
X142028862Y-105879749D01*
X141887416Y-105685064D01*
X141887413Y-105685061D01*
X141887411Y-105685058D01*
X141717261Y-105514908D01*
X141717258Y-105514906D01*
X141717256Y-105514904D01*
X141522571Y-105373458D01*
X141308157Y-105264208D01*
X141308156Y-105264207D01*
X141308153Y-105264206D01*
X141079297Y-105189846D01*
X141079293Y-105189845D01*
X141079292Y-105189845D01*
X140841611Y-105152200D01*
X140600969Y-105152200D01*
X140363288Y-105189845D01*
X140363282Y-105189846D01*
X140134426Y-105264206D01*
X139920005Y-105373460D01*
X139725321Y-105514906D01*
X139725318Y-105514908D01*
X139555168Y-105685058D01*
X139555166Y-105685061D01*
X139413720Y-105879745D01*
X139304466Y-106094166D01*
X139230106Y-106323022D01*
X139230105Y-106323027D01*
X139230105Y-106323028D01*
X139192460Y-106560709D01*
X137594059Y-106560709D01*
X137573924Y-106498740D01*
X137480419Y-106315227D01*
X137359358Y-106148600D01*
X137359355Y-106148597D01*
X137359353Y-106148594D01*
X137213725Y-106002966D01*
X137213722Y-106002964D01*
X137213720Y-106002962D01*
X137051447Y-105885064D01*
X137047096Y-105881903D01*
X137047095Y-105881902D01*
X137047093Y-105881901D01*
X136863580Y-105788396D01*
X136863577Y-105788395D01*
X136863575Y-105788394D01*
X136667702Y-105724751D01*
X136667700Y-105724750D01*
X136667698Y-105724750D01*
X136464271Y-105692530D01*
X136258309Y-105692530D01*
X136054882Y-105724750D01*
X136054880Y-105724750D01*
X136054877Y-105724751D01*
X135859004Y-105788394D01*
X135858998Y-105788397D01*
X135675483Y-105881903D01*
X135508857Y-106002964D01*
X135508854Y-106002966D01*
X135363226Y-106148594D01*
X135363224Y-106148597D01*
X135242163Y-106315223D01*
X135148657Y-106498738D01*
X135148654Y-106498744D01*
X135085011Y-106694617D01*
X135085011Y-106694619D01*
X135085010Y-106694622D01*
X135052790Y-106898049D01*
X135052790Y-107104011D01*
X135080194Y-107277030D01*
X135085011Y-107307442D01*
X135141830Y-107482314D01*
X135148656Y-107503320D01*
X135242161Y-107686833D01*
X135363222Y-107853460D01*
X135363224Y-107853462D01*
X135363226Y-107853465D01*
X135508854Y-107999093D01*
X135508857Y-107999095D01*
X135508860Y-107999098D01*
X135675487Y-108120159D01*
X135751252Y-108158763D01*
X135802867Y-108207512D01*
X135819933Y-108276427D01*
X135797032Y-108343628D01*
X135751253Y-108383296D01*
X135682323Y-108418417D01*
X135675483Y-108421903D01*
X135508857Y-108542964D01*
X135508854Y-108542966D01*
X135363226Y-108688594D01*
X135363224Y-108688597D01*
X135242163Y-108855223D01*
X135148657Y-109038738D01*
X135148654Y-109038744D01*
X135085011Y-109234617D01*
X135085010Y-109234620D01*
X135085010Y-109234622D01*
X135052790Y-109438049D01*
X135052790Y-109644011D01*
X135085010Y-109847438D01*
X135085011Y-109847442D01*
X135128925Y-109982594D01*
X135129741Y-110011165D01*
X135133810Y-110039462D01*
X135130742Y-110046179D01*
X135130953Y-110053561D01*
X135116190Y-110078041D01*
X135104316Y-110104042D01*
X135098104Y-110108034D01*
X135094290Y-110114359D01*
X135068634Y-110126973D01*
X135044590Y-110142426D01*
X135034154Y-110143926D01*
X135030578Y-110145685D01*
X135009092Y-110147530D01*
X134785884Y-110147530D01*
X134717763Y-110127528D01*
X134696789Y-110110625D01*
X131095125Y-106508961D01*
X131095123Y-106508959D01*
X130991365Y-106439630D01*
X130876075Y-106391875D01*
X130802376Y-106377215D01*
X130753686Y-106367530D01*
X130753684Y-106367530D01*
X122342620Y-106367530D01*
X122274499Y-106347528D01*
X122240684Y-106315591D01*
X122192531Y-106249315D01*
X122119358Y-106148600D01*
X122119355Y-106148597D01*
X122119353Y-106148594D01*
X121973725Y-106002966D01*
X121973722Y-106002964D01*
X121973720Y-106002962D01*
X121811447Y-105885064D01*
X121807096Y-105881903D01*
X121807095Y-105881902D01*
X121807093Y-105881901D01*
X121623580Y-105788396D01*
X121623577Y-105788395D01*
X121623575Y-105788394D01*
X121427702Y-105724751D01*
X121427700Y-105724750D01*
X121427698Y-105724750D01*
X121224271Y-105692530D01*
X121018309Y-105692530D01*
X120814882Y-105724750D01*
X120814880Y-105724750D01*
X120814877Y-105724751D01*
X120619004Y-105788394D01*
X120618998Y-105788397D01*
X120435483Y-105881903D01*
X120268857Y-106002964D01*
X120268854Y-106002966D01*
X120123226Y-106148594D01*
X120123224Y-106148597D01*
X120002163Y-106315223D01*
X119908657Y-106498738D01*
X119908654Y-106498744D01*
X119845011Y-106694617D01*
X119845011Y-106694619D01*
X119845010Y-106694622D01*
X119812790Y-106898049D01*
X119812790Y-107104011D01*
X119840194Y-107277030D01*
X119845011Y-107307442D01*
X119901830Y-107482314D01*
X119908656Y-107503320D01*
X120002161Y-107686833D01*
X120123222Y-107853460D01*
X120123224Y-107853462D01*
X120123226Y-107853465D01*
X120268854Y-107999093D01*
X120268857Y-107999095D01*
X120268860Y-107999098D01*
X120435487Y-108120159D01*
X120511252Y-108158763D01*
X120562867Y-108207512D01*
X120579933Y-108276427D01*
X120557032Y-108343628D01*
X120511253Y-108383296D01*
X120442323Y-108418417D01*
X120435483Y-108421903D01*
X120268857Y-108542964D01*
X120268854Y-108542966D01*
X120123226Y-108688594D01*
X120123224Y-108688597D01*
X120002163Y-108855223D01*
X119908657Y-109038738D01*
X119908654Y-109038744D01*
X119845011Y-109234617D01*
X119845010Y-109234620D01*
X119845010Y-109234622D01*
X119812790Y-109438049D01*
X119812790Y-109644011D01*
X119845010Y-109847438D01*
X119845011Y-109847442D01*
X119908654Y-110043315D01*
X119908659Y-110043327D01*
X119919360Y-110064328D01*
X119932464Y-110134104D01*
X119905764Y-110199889D01*
X119847736Y-110240795D01*
X119807093Y-110247530D01*
X119274793Y-110247530D01*
X119206672Y-110227528D01*
X119185698Y-110210625D01*
X119100427Y-110125354D01*
X119100425Y-110125352D01*
X118951626Y-110025928D01*
X118825523Y-109973694D01*
X118786293Y-109957444D01*
X118786291Y-109957443D01*
X118786290Y-109957443D01*
X118697935Y-109939868D01*
X118610771Y-109922530D01*
X118610769Y-109922530D01*
X118431811Y-109922530D01*
X118431808Y-109922530D01*
X118301061Y-109948537D01*
X118256290Y-109957443D01*
X118256289Y-109957443D01*
X118256286Y-109957444D01*
X118090952Y-110025929D01*
X117942159Y-110125349D01*
X117942152Y-110125354D01*
X117815614Y-110251892D01*
X117815609Y-110251899D01*
X117716187Y-110400694D01*
X117716186Y-110400696D01*
X117684658Y-110476810D01*
X117640109Y-110532090D01*
X117572745Y-110554510D01*
X117503954Y-110536951D01*
X117479158Y-110517688D01*
X117096462Y-110134992D01*
X117049033Y-110096772D01*
X116916024Y-110036029D01*
X116771290Y-110015220D01*
X116626555Y-110036029D01*
X116512081Y-110088308D01*
X116441807Y-110098411D01*
X116377226Y-110068918D01*
X116338843Y-110009192D01*
X116333739Y-109973694D01*
X116333739Y-109828066D01*
X116326430Y-109781919D01*
X116300288Y-109616863D01*
X116234211Y-109413496D01*
X116137133Y-109222970D01*
X116011445Y-109049975D01*
X116011442Y-109049972D01*
X116011440Y-109049969D01*
X115860248Y-108898777D01*
X115860245Y-108898775D01*
X115860243Y-108898773D01*
X115687248Y-108773085D01*
X115496722Y-108676007D01*
X115496719Y-108676006D01*
X115496717Y-108676005D01*
X115293359Y-108609931D01*
X115293362Y-108609931D01*
X115254040Y-108603703D01*
X115082155Y-108576479D01*
X114868323Y-108576479D01*
X114657123Y-108609930D01*
X114657117Y-108609931D01*
X114453760Y-108676005D01*
X114453754Y-108676008D01*
X114263226Y-108773087D01*
X114090232Y-108898775D01*
X114090229Y-108898777D01*
X113939037Y-109049969D01*
X113939035Y-109049972D01*
X113813347Y-109222966D01*
X113793057Y-109262788D01*
X113744308Y-109314403D01*
X113675393Y-109331469D01*
X113608192Y-109308568D01*
X113564040Y-109252970D01*
X113554790Y-109205585D01*
X113554790Y-106560709D01*
X115192460Y-106560709D01*
X115192460Y-106565081D01*
X115192460Y-106801351D01*
X115221330Y-106983626D01*
X115230106Y-107039037D01*
X115304466Y-107267893D01*
X115413720Y-107482314D01*
X115448688Y-107530443D01*
X115555164Y-107676996D01*
X115555166Y-107676998D01*
X115555168Y-107677001D01*
X115725318Y-107847151D01*
X115725321Y-107847153D01*
X115725324Y-107847156D01*
X115920009Y-107988602D01*
X116134423Y-108097852D01*
X116363288Y-108172215D01*
X116600969Y-108209860D01*
X116600972Y-108209860D01*
X116841608Y-108209860D01*
X116841611Y-108209860D01*
X117079292Y-108172215D01*
X117308157Y-108097852D01*
X117522571Y-107988602D01*
X117717256Y-107847156D01*
X117887416Y-107676996D01*
X118028862Y-107482311D01*
X118138112Y-107267897D01*
X118212475Y-107039032D01*
X118250120Y-106801351D01*
X118250120Y-106560709D01*
X118212475Y-106323028D01*
X118138112Y-106094163D01*
X118028862Y-105879749D01*
X117887416Y-105685064D01*
X117887413Y-105685061D01*
X117887411Y-105685058D01*
X117717261Y-105514908D01*
X117717258Y-105514906D01*
X117717256Y-105514904D01*
X117522571Y-105373458D01*
X117308157Y-105264208D01*
X117308156Y-105264207D01*
X117308153Y-105264206D01*
X117079297Y-105189846D01*
X117079293Y-105189845D01*
X117079292Y-105189845D01*
X116841611Y-105152200D01*
X116600969Y-105152200D01*
X116363288Y-105189845D01*
X116363282Y-105189846D01*
X116134426Y-105264206D01*
X115920005Y-105373460D01*
X115725321Y-105514906D01*
X115725318Y-105514908D01*
X115555168Y-105685058D01*
X115555166Y-105685061D01*
X115413720Y-105879745D01*
X115304466Y-106094166D01*
X115230106Y-106323022D01*
X115230105Y-106323027D01*
X115230105Y-106323028D01*
X115192460Y-106560709D01*
X113554790Y-106560709D01*
X113554790Y-103164850D01*
X113574792Y-103096729D01*
X113628448Y-103050236D01*
X113690684Y-103039239D01*
X113694370Y-103039529D01*
X113694374Y-103039530D01*
X113694378Y-103039530D01*
X113908203Y-103039530D01*
X113908206Y-103039530D01*
X114119406Y-103006079D01*
X114322773Y-102940002D01*
X114513299Y-102842924D01*
X114686294Y-102717236D01*
X114837496Y-102566034D01*
X114963184Y-102393039D01*
X115060262Y-102202513D01*
X115126339Y-101999146D01*
X115159790Y-101787946D01*
X115159790Y-101574114D01*
X115126339Y-101362914D01*
X115060262Y-101159547D01*
X114963184Y-100969021D01*
X114837496Y-100796026D01*
X114837493Y-100796023D01*
X114837491Y-100796020D01*
X114686299Y-100644828D01*
X114686296Y-100644826D01*
X114686294Y-100644824D01*
X114513299Y-100519136D01*
X114322773Y-100422058D01*
X114322770Y-100422057D01*
X114322768Y-100422056D01*
X114119410Y-100355982D01*
X114119413Y-100355982D01*
X114080091Y-100349754D01*
X113908206Y-100322530D01*
X113694374Y-100322530D01*
X113483174Y-100355981D01*
X113483168Y-100355982D01*
X113279803Y-100422059D01*
X113278998Y-100422393D01*
X113278667Y-100422428D01*
X113275099Y-100423588D01*
X113274855Y-100422838D01*
X113208407Y-100429976D01*
X113144923Y-100398191D01*
X113108701Y-100337130D01*
X113104790Y-100305980D01*
X113104790Y-98134533D01*
X113124792Y-98066412D01*
X113141695Y-98045438D01*
X113176968Y-98010165D01*
X113276392Y-97861366D01*
X113344877Y-97696030D01*
X113379790Y-97520509D01*
X113379790Y-97341551D01*
X113344877Y-97166030D01*
X113276392Y-97000694D01*
X113176968Y-96851895D01*
X113050425Y-96725352D01*
X112901626Y-96625928D01*
X112764261Y-96569029D01*
X112736293Y-96557444D01*
X112736291Y-96557443D01*
X112736290Y-96557443D01*
X112647935Y-96539868D01*
X112560771Y-96522530D01*
X112560769Y-96522530D01*
X112381811Y-96522530D01*
X112381808Y-96522530D01*
X112251061Y-96548537D01*
X112206290Y-96557443D01*
X112206289Y-96557443D01*
X112206286Y-96557444D01*
X112040952Y-96625929D01*
X111892159Y-96725349D01*
X111892152Y-96725354D01*
X111765614Y-96851892D01*
X111765609Y-96851899D01*
X111666189Y-97000692D01*
X111597704Y-97166026D01*
X111562790Y-97341548D01*
X111562790Y-97341551D01*
X111562790Y-97520509D01*
X111597703Y-97696030D01*
X111666188Y-97861366D01*
X111765612Y-98010165D01*
X111765614Y-98010167D01*
X111800885Y-98045438D01*
X111834911Y-98107750D01*
X111837790Y-98134533D01*
X111837790Y-100266510D01*
X111817788Y-100334631D01*
X111764132Y-100381124D01*
X111693858Y-100391228D01*
X111672855Y-100386343D01*
X111579414Y-100355983D01*
X111579413Y-100355982D01*
X111540091Y-100349754D01*
X111368206Y-100322530D01*
X111154374Y-100322530D01*
X110943174Y-100355981D01*
X110943168Y-100355982D01*
X110769726Y-100412337D01*
X110698758Y-100414364D01*
X110637960Y-100377702D01*
X110606635Y-100313990D01*
X110604790Y-100292504D01*
X110604790Y-92558637D01*
X110604789Y-92558633D01*
X110602821Y-92548738D01*
X110580445Y-92436245D01*
X110532690Y-92320955D01*
X110463362Y-92217197D01*
X110463361Y-92217196D01*
X110463358Y-92217192D01*
X106797746Y-88551580D01*
X106763720Y-88489268D01*
X106760841Y-88462485D01*
X106760841Y-87505982D01*
X106780843Y-87437861D01*
X106834499Y-87391368D01*
X106904773Y-87381264D01*
X106969353Y-87410758D01*
X106975936Y-87416887D01*
X107038383Y-87479334D01*
X107038386Y-87479336D01*
X107038389Y-87479339D01*
X107211384Y-87605027D01*
X107401910Y-87702105D01*
X107605271Y-87768180D01*
X107605272Y-87768180D01*
X107605277Y-87768182D01*
X107816477Y-87801633D01*
X107816480Y-87801633D01*
X108030306Y-87801633D01*
X108030309Y-87801633D01*
X108241509Y-87768182D01*
X108444876Y-87702105D01*
X108635402Y-87605027D01*
X108808397Y-87479339D01*
X108959599Y-87328137D01*
X109085287Y-87155142D01*
X109182365Y-86964616D01*
X109248442Y-86761249D01*
X109281893Y-86550049D01*
X109281893Y-86336217D01*
X109248442Y-86125017D01*
X109182365Y-85921650D01*
X109085287Y-85731124D01*
X108959599Y-85558129D01*
X108959596Y-85558126D01*
X108959594Y-85558123D01*
X108808402Y-85406931D01*
X108808399Y-85406929D01*
X108808397Y-85406927D01*
X108635402Y-85281239D01*
X108444876Y-85184161D01*
X108444873Y-85184160D01*
X108444871Y-85184159D01*
X108241513Y-85118085D01*
X108241516Y-85118085D01*
X108167853Y-85106418D01*
X108030309Y-85084633D01*
X107816477Y-85084633D01*
X107691220Y-85104471D01*
X107605256Y-85118087D01*
X107603997Y-85118390D01*
X107603505Y-85118365D01*
X107600388Y-85118859D01*
X107600284Y-85118203D01*
X107533089Y-85114829D01*
X107475364Y-85073498D01*
X107449147Y-85007520D01*
X107451825Y-84970119D01*
X107451615Y-84970086D01*
X107452003Y-84967633D01*
X107452088Y-84966453D01*
X107452384Y-84965214D01*
X107452390Y-84965197D01*
X107485841Y-84753997D01*
X107485841Y-84540165D01*
X107452390Y-84328965D01*
X107386313Y-84125598D01*
X107289235Y-83935072D01*
X107163547Y-83762077D01*
X107163544Y-83762074D01*
X107163542Y-83762071D01*
X107012350Y-83610879D01*
X107012347Y-83610877D01*
X107012345Y-83610875D01*
X106839350Y-83485187D01*
X106648824Y-83388109D01*
X106648821Y-83388108D01*
X106648819Y-83388107D01*
X106445461Y-83322033D01*
X106445464Y-83322033D01*
X106406142Y-83315805D01*
X106234257Y-83288581D01*
X106020425Y-83288581D01*
X105829764Y-83318779D01*
X105809206Y-83322035D01*
X105807950Y-83322337D01*
X105807458Y-83322312D01*
X105804336Y-83322807D01*
X105804232Y-83322150D01*
X105737043Y-83318779D01*
X105679316Y-83277450D01*
X105653097Y-83211472D01*
X105655775Y-83174068D01*
X105655564Y-83174035D01*
X105655953Y-83171575D01*
X105656038Y-83170396D01*
X105656332Y-83169166D01*
X105656339Y-83169146D01*
X105689790Y-82957946D01*
X105689790Y-82744114D01*
X105656339Y-82532914D01*
X105590262Y-82329547D01*
X105493184Y-82139021D01*
X105367496Y-81966026D01*
X105367493Y-81966023D01*
X105367491Y-81966020D01*
X105216299Y-81814828D01*
X105216296Y-81814826D01*
X105216294Y-81814824D01*
X105043299Y-81689136D01*
X104852773Y-81592058D01*
X104852770Y-81592057D01*
X104852768Y-81592056D01*
X104649410Y-81525982D01*
X104649413Y-81525982D01*
X104610091Y-81519754D01*
X104438206Y-81492530D01*
X104292575Y-81492530D01*
X104224454Y-81472528D01*
X104177961Y-81418872D01*
X104167857Y-81348598D01*
X104177961Y-81314188D01*
X104180352Y-81308953D01*
X104230240Y-81199713D01*
X104251049Y-81054979D01*
X104230240Y-80910245D01*
X104169497Y-80777236D01*
X104131277Y-80729807D01*
X104131270Y-80729800D01*
X104131262Y-80729791D01*
X102860426Y-79458955D01*
X102860416Y-79458946D01*
X102860411Y-79458941D01*
X102812982Y-79420721D01*
X102679973Y-79359978D01*
X102535239Y-79339169D01*
X102390504Y-79359978D01*
X102257495Y-79420721D01*
X102210070Y-79458938D01*
X102210051Y-79458955D01*
X100939215Y-80729791D01*
X100939198Y-80729810D01*
X100900981Y-80777235D01*
X100853973Y-80880170D01*
X100840238Y-80910245D01*
X100819429Y-81054979D01*
X93906927Y-81054979D01*
X93959998Y-80950821D01*
X94013570Y-80785942D01*
X94040690Y-80614712D01*
X94040690Y-80441348D01*
X94013570Y-80270118D01*
X93959998Y-80105239D01*
X93881292Y-79950770D01*
X93779391Y-79810516D01*
X93779389Y-79810513D01*
X93656806Y-79687930D01*
X93516553Y-79586030D01*
X93516552Y-79586029D01*
X93516550Y-79586028D01*
X93362081Y-79507322D01*
X93362078Y-79507321D01*
X93362076Y-79507320D01*
X93197205Y-79453751D01*
X93197209Y-79453751D01*
X93147424Y-79445866D01*
X93025972Y-79426630D01*
X92852608Y-79426630D01*
X92681378Y-79453750D01*
X92681372Y-79453751D01*
X92516503Y-79507320D01*
X92516497Y-79507323D01*
X92362026Y-79586030D01*
X92221773Y-79687930D01*
X92099190Y-79810513D01*
X91997290Y-79950766D01*
X91918583Y-80105237D01*
X91918580Y-80105243D01*
X91865011Y-80270112D01*
X91865010Y-80270117D01*
X91865010Y-80270118D01*
X91837890Y-80441348D01*
X85246790Y-80441348D01*
X85246790Y-80185148D01*
X85247060Y-80176909D01*
X85248283Y-80158243D01*
X85263139Y-79931528D01*
X85265286Y-79915217D01*
X85312452Y-79678083D01*
X85316716Y-79662168D01*
X85394429Y-79433223D01*
X85400729Y-79418011D01*
X85507667Y-79201157D01*
X85515892Y-79186910D01*
X85650224Y-78985862D01*
X85660241Y-78972809D01*
X85819658Y-78791026D01*
X85831292Y-78779391D01*
X86013078Y-78619965D01*
X86026136Y-78609945D01*
X86227173Y-78475613D01*
X86241439Y-78467379D01*
X86458269Y-78360448D01*
X86473486Y-78354144D01*
X86702427Y-78276426D01*
X86718341Y-78272162D01*
X86955477Y-78224992D01*
X86971795Y-78222844D01*
X87195106Y-78208206D01*
X87216561Y-78206800D01*
X87224802Y-78206530D01*
X104143032Y-78206530D01*
X104143036Y-78206531D01*
G37*
G04 #@! TD.AperFunction*
M02*
