M48
; DRILL file {KiCad 9.0.2} date 2025-09-19T15:47:31-0400
; FORMAT={-:-/ absolute / metric / decimal}
; #@! TF.CreationDate,2025-09-19T15:47:31-04:00
; #@! TF.GenerationSoftware,Kicad,Pcbnew,9.0.2
; #@! TF.FileFunction,Plated,1,2,PTH
FMAT,2
METRIC
; #@! TA.AperFunction,Plated,PTH,ViaDrill
T1C0.400
; #@! TA.AperFunction,Plated,PTH,ComponentDrill
T2C0.750
; #@! TA.AperFunction,Plated,PTH,ComponentDrill
T3C0.800
; #@! TA.AperFunction,Plated,PTH,ComponentDrill
T4C1.000
; #@! TA.AperFunction,Plated,PTH,ComponentDrill
T5C1.100
; #@! TA.AperFunction,Plated,PTH,ComponentDrill
T6C3.700
%
G90
G05
T1
X-32.6Y-96.6
X123.9Y-73.6
X128.9Y-131.1
X133.4Y-91.6
X135.15Y-103.35
X137.15Y-116.6
X139.134Y-116.85
X146.9Y-82.85
X148.15Y-82.85
X149.9Y-90.6
X150.4Y-73.6
X150.65Y-64.6
X151.9Y-129.85
X153.15Y-122.35
X153.9Y-84.6
X154.15Y-117.35
X155.65Y-86.6
X156.4Y-139.6
X163.9Y-83.85
X165.66Y-121.34
T2
X159.9Y-84.35
X159.9Y-115.35
X161.9Y-99.6
T3
X159.9Y-86.35
X159.9Y-88.35
X159.9Y-117.35
X159.9Y-119.35
X161.9Y-101.6
X161.9Y-103.6
T4
X99.386Y-117.398
X99.392Y-85.808
X101.182Y-119.194
X101.188Y-84.012
X102.978Y-120.99
X102.984Y-82.216
X104.774Y-122.786
X104.78Y-80.42
X130.4Y-81.6
X130.4Y-84.14
X130.4Y-86.68
X130.4Y-116.52
X130.4Y-119.06
X130.4Y-121.6
X138.854Y-87.304
X140.65Y-89.1
X158.148Y-77.216
X158.148Y-125.984
X159.9Y-82.35
X159.9Y-90.35
X159.9Y-113.35
X159.9Y-121.35
X160.688Y-77.216
X160.688Y-125.984
X161.9Y-97.6
X161.9Y-105.6
X163.228Y-77.216
X163.228Y-125.984
X165.768Y-77.216
X165.768Y-125.984
T5
X137.72Y-93.96
X137.72Y-109.2
X140.26Y-93.96
X140.26Y-109.2
X142.8Y-93.96
X142.8Y-109.2
X145.34Y-93.96
X145.34Y-109.2
X147.88Y-93.96
X147.88Y-109.2
X150.42Y-93.96
X150.42Y-109.2
X152.96Y-93.96
X152.96Y-109.2
X155.5Y-93.96
X155.5Y-109.2
X158.04Y-93.96
X158.04Y-109.2
X160.58Y-93.96
X160.58Y-109.2
X163.12Y-93.96
X163.12Y-109.2
X165.66Y-93.96
X165.66Y-109.2
T6
X87.4Y-101.6
X102.4Y-69.1
X102.4Y-134.15
X162.403Y-59.6
X162.447Y-143.626
M30
