G04 #@! TF.GenerationSoftware,KiCad,Pcbnew,9.0.2*
G04 #@! TF.CreationDate,2025-09-19T14:55:31-04:00*
G04 #@! TF.ProjectId,Trackball,54726163-6b62-4616-9c6c-2e6b69636164,rev?*
G04 #@! TF.SameCoordinates,Original*
G04 #@! TF.FileFunction,Profile,NP*
%FSLAX46Y46*%
G04 Gerber Fmt 4.6, Leading zero omitted, Abs format (unit mm)*
G04 Created by KiCad (PCBNEW 9.0.2) date 2025-09-19 14:55:31*
%MOMM*%
%LPD*%
G01*
G04 APERTURE LIST*
G04 #@! TA.AperFunction,Profile*
%ADD10C,0.050000*%
G04 #@! TD*
G04 APERTURE END LIST*
D10*
X239900000Y-148600000D02*
G75*
G02*
X234900000Y-143600000I0J5000000D01*
G01*
X250400000Y-54600000D02*
G75*
G02*
X255400000Y-59600000I0J-5000000D01*
G01*
X231903330Y-78600000D02*
G75*
G02*
X228896670Y-78600000I-1503330J0D01*
G01*
X228896670Y-78600000D02*
G75*
G02*
X231903330Y-78600000I1503330J0D01*
G01*
X255400000Y-143600000D02*
G75*
G02*
X250400000Y-148600000I-5000000J0D01*
G01*
X255400000Y-101600000D02*
X255400000Y-59600000D01*
X234900000Y-65600000D02*
G75*
G02*
X229900000Y-70600000I-5000000J0D01*
G01*
X229900000Y-132600000D02*
G75*
G02*
X234900000Y-137600000I0J-5000000D01*
G01*
X231400000Y-101600000D02*
G75*
G02*
X189800000Y-101600000I-20800000J0D01*
G01*
X189800000Y-101600000D02*
G75*
G02*
X231400000Y-101600000I20800000J0D01*
G01*
X234900000Y-59600000D02*
G75*
G02*
X239900000Y-54600000I5000000J0D01*
G01*
X231903330Y-124600000D02*
G75*
G02*
X228896670Y-124600000I-1503330J0D01*
G01*
X228896670Y-124600000D02*
G75*
G02*
X231903330Y-124600000I1503330J0D01*
G01*
X210600000Y-70600000D02*
X229900000Y-70600000D01*
X234900000Y-59600000D02*
X234900000Y-65600000D01*
X239900000Y-54600000D02*
X250400000Y-54600000D01*
X210600000Y-132600000D02*
G75*
G02*
X210600000Y-70600000I0J31000000D01*
G01*
X234900000Y-143600000D02*
X234900000Y-137600000D01*
X239900000Y-148600000D02*
X250400000Y-148600000D01*
X255400000Y-101600000D02*
X255400000Y-143600000D01*
X210600000Y-132600000D02*
X229900000Y-132600000D01*
M02*
