G04 #@! TF.GenerationSoftware,KiCad,Pcbnew,9.0.2*
G04 #@! TF.CreationDate,2025-09-19T14:55:31-04:00*
G04 #@! TF.ProjectId,Trackball,54726163-6b62-4616-9c6c-2e6b69636164,rev?*
G04 #@! TF.SameCoordinates,Original*
G04 #@! TF.FileFunction,Legend,Bot*
G04 #@! TF.FilePolarity,Positive*
%FSLAX46Y46*%
G04 Gerber Fmt 4.6, Leading zero omitted, Abs format (unit mm)*
G04 Created by KiCad (PCBNEW 9.0.2) date 2025-09-19 14:55:31*
%MOMM*%
%LPD*%
G01*
G04 APERTURE LIST*
%ADD10C,0.300000*%
%ADD11C,0.150000*%
%ADD12C,0.120000*%
G04 APERTURE END LIST*
D10*
X243620996Y-96028572D02*
X244620996Y-96028572D01*
X243620996Y-95385714D02*
X244406710Y-95385714D01*
X244406710Y-95385714D02*
X244549568Y-95457143D01*
X244549568Y-95457143D02*
X244620996Y-95600000D01*
X244620996Y-95600000D02*
X244620996Y-95814286D01*
X244620996Y-95814286D02*
X244549568Y-95957143D01*
X244549568Y-95957143D02*
X244478139Y-96028572D01*
X243049568Y-97814286D02*
X244978139Y-96528572D01*
X244620996Y-98957144D02*
X243835282Y-98957144D01*
X243835282Y-98957144D02*
X243692425Y-98885715D01*
X243692425Y-98885715D02*
X243620996Y-98742858D01*
X243620996Y-98742858D02*
X243620996Y-98457144D01*
X243620996Y-98457144D02*
X243692425Y-98314286D01*
X244549568Y-98957144D02*
X244620996Y-98814286D01*
X244620996Y-98814286D02*
X244620996Y-98457144D01*
X244620996Y-98457144D02*
X244549568Y-98314286D01*
X244549568Y-98314286D02*
X244406710Y-98242858D01*
X244406710Y-98242858D02*
X244263853Y-98242858D01*
X244263853Y-98242858D02*
X244120996Y-98314286D01*
X244120996Y-98314286D02*
X244049568Y-98457144D01*
X244049568Y-98457144D02*
X244049568Y-98814286D01*
X244049568Y-98814286D02*
X243978139Y-98957144D01*
X244620996Y-99671429D02*
X243120996Y-99671429D01*
X244049568Y-99814287D02*
X244620996Y-100242858D01*
X243620996Y-100242858D02*
X244192425Y-99671429D01*
X243120996Y-101528573D02*
X243120996Y-101242858D01*
X243120996Y-101242858D02*
X243192425Y-101100001D01*
X243192425Y-101100001D02*
X243263853Y-101028573D01*
X243263853Y-101028573D02*
X243478139Y-100885715D01*
X243478139Y-100885715D02*
X243763853Y-100814287D01*
X243763853Y-100814287D02*
X244335282Y-100814287D01*
X244335282Y-100814287D02*
X244478139Y-100885715D01*
X244478139Y-100885715D02*
X244549568Y-100957144D01*
X244549568Y-100957144D02*
X244620996Y-101100001D01*
X244620996Y-101100001D02*
X244620996Y-101385715D01*
X244620996Y-101385715D02*
X244549568Y-101528573D01*
X244549568Y-101528573D02*
X244478139Y-101600001D01*
X244478139Y-101600001D02*
X244335282Y-101671430D01*
X244335282Y-101671430D02*
X243978139Y-101671430D01*
X243978139Y-101671430D02*
X243835282Y-101600001D01*
X243835282Y-101600001D02*
X243763853Y-101528573D01*
X243763853Y-101528573D02*
X243692425Y-101385715D01*
X243692425Y-101385715D02*
X243692425Y-101100001D01*
X243692425Y-101100001D02*
X243763853Y-100957144D01*
X243763853Y-100957144D02*
X243835282Y-100885715D01*
X243835282Y-100885715D02*
X243978139Y-100814287D01*
X243120996Y-102957144D02*
X243120996Y-102671429D01*
X243120996Y-102671429D02*
X243192425Y-102528572D01*
X243192425Y-102528572D02*
X243263853Y-102457144D01*
X243263853Y-102457144D02*
X243478139Y-102314286D01*
X243478139Y-102314286D02*
X243763853Y-102242858D01*
X243763853Y-102242858D02*
X244335282Y-102242858D01*
X244335282Y-102242858D02*
X244478139Y-102314286D01*
X244478139Y-102314286D02*
X244549568Y-102385715D01*
X244549568Y-102385715D02*
X244620996Y-102528572D01*
X244620996Y-102528572D02*
X244620996Y-102814286D01*
X244620996Y-102814286D02*
X244549568Y-102957144D01*
X244549568Y-102957144D02*
X244478139Y-103028572D01*
X244478139Y-103028572D02*
X244335282Y-103100001D01*
X244335282Y-103100001D02*
X243978139Y-103100001D01*
X243978139Y-103100001D02*
X243835282Y-103028572D01*
X243835282Y-103028572D02*
X243763853Y-102957144D01*
X243763853Y-102957144D02*
X243692425Y-102814286D01*
X243692425Y-102814286D02*
X243692425Y-102528572D01*
X243692425Y-102528572D02*
X243763853Y-102385715D01*
X243763853Y-102385715D02*
X243835282Y-102314286D01*
X243835282Y-102314286D02*
X243978139Y-102242858D01*
X243120996Y-104385715D02*
X243120996Y-104100000D01*
X243120996Y-104100000D02*
X243192425Y-103957143D01*
X243192425Y-103957143D02*
X243263853Y-103885715D01*
X243263853Y-103885715D02*
X243478139Y-103742857D01*
X243478139Y-103742857D02*
X243763853Y-103671429D01*
X243763853Y-103671429D02*
X244335282Y-103671429D01*
X244335282Y-103671429D02*
X244478139Y-103742857D01*
X244478139Y-103742857D02*
X244549568Y-103814286D01*
X244549568Y-103814286D02*
X244620996Y-103957143D01*
X244620996Y-103957143D02*
X244620996Y-104242857D01*
X244620996Y-104242857D02*
X244549568Y-104385715D01*
X244549568Y-104385715D02*
X244478139Y-104457143D01*
X244478139Y-104457143D02*
X244335282Y-104528572D01*
X244335282Y-104528572D02*
X243978139Y-104528572D01*
X243978139Y-104528572D02*
X243835282Y-104457143D01*
X243835282Y-104457143D02*
X243763853Y-104385715D01*
X243763853Y-104385715D02*
X243692425Y-104242857D01*
X243692425Y-104242857D02*
X243692425Y-103957143D01*
X243692425Y-103957143D02*
X243763853Y-103814286D01*
X243763853Y-103814286D02*
X243835282Y-103742857D01*
X243835282Y-103742857D02*
X243978139Y-103671429D01*
X243120996Y-105814286D02*
X243120996Y-105528571D01*
X243120996Y-105528571D02*
X243192425Y-105385714D01*
X243192425Y-105385714D02*
X243263853Y-105314286D01*
X243263853Y-105314286D02*
X243478139Y-105171428D01*
X243478139Y-105171428D02*
X243763853Y-105100000D01*
X243763853Y-105100000D02*
X244335282Y-105100000D01*
X244335282Y-105100000D02*
X244478139Y-105171428D01*
X244478139Y-105171428D02*
X244549568Y-105242857D01*
X244549568Y-105242857D02*
X244620996Y-105385714D01*
X244620996Y-105385714D02*
X244620996Y-105671428D01*
X244620996Y-105671428D02*
X244549568Y-105814286D01*
X244549568Y-105814286D02*
X244478139Y-105885714D01*
X244478139Y-105885714D02*
X244335282Y-105957143D01*
X244335282Y-105957143D02*
X243978139Y-105957143D01*
X243978139Y-105957143D02*
X243835282Y-105885714D01*
X243835282Y-105885714D02*
X243763853Y-105814286D01*
X243763853Y-105814286D02*
X243692425Y-105671428D01*
X243692425Y-105671428D02*
X243692425Y-105385714D01*
X243692425Y-105385714D02*
X243763853Y-105242857D01*
X243763853Y-105242857D02*
X243835282Y-105171428D01*
X243835282Y-105171428D02*
X243978139Y-105100000D01*
X243120996Y-107242857D02*
X243120996Y-106957142D01*
X243120996Y-106957142D02*
X243192425Y-106814285D01*
X243192425Y-106814285D02*
X243263853Y-106742857D01*
X243263853Y-106742857D02*
X243478139Y-106599999D01*
X243478139Y-106599999D02*
X243763853Y-106528571D01*
X243763853Y-106528571D02*
X244335282Y-106528571D01*
X244335282Y-106528571D02*
X244478139Y-106599999D01*
X244478139Y-106599999D02*
X244549568Y-106671428D01*
X244549568Y-106671428D02*
X244620996Y-106814285D01*
X244620996Y-106814285D02*
X244620996Y-107099999D01*
X244620996Y-107099999D02*
X244549568Y-107242857D01*
X244549568Y-107242857D02*
X244478139Y-107314285D01*
X244478139Y-107314285D02*
X244335282Y-107385714D01*
X244335282Y-107385714D02*
X243978139Y-107385714D01*
X243978139Y-107385714D02*
X243835282Y-107314285D01*
X243835282Y-107314285D02*
X243763853Y-107242857D01*
X243763853Y-107242857D02*
X243692425Y-107099999D01*
X243692425Y-107099999D02*
X243692425Y-106814285D01*
X243692425Y-106814285D02*
X243763853Y-106671428D01*
X243763853Y-106671428D02*
X243835282Y-106599999D01*
X243835282Y-106599999D02*
X243978139Y-106528571D01*
X245535912Y-87921429D02*
X245535912Y-88778572D01*
X247035912Y-88350000D02*
X245535912Y-88350000D01*
X247035912Y-89278571D02*
X245535912Y-89278571D01*
X247035912Y-89921429D02*
X246250198Y-89921429D01*
X246250198Y-89921429D02*
X246107341Y-89850000D01*
X246107341Y-89850000D02*
X246035912Y-89707143D01*
X246035912Y-89707143D02*
X246035912Y-89492857D01*
X246035912Y-89492857D02*
X246107341Y-89350000D01*
X246107341Y-89350000D02*
X246178769Y-89278571D01*
X246035912Y-91278572D02*
X247035912Y-91278572D01*
X246035912Y-90635714D02*
X246821626Y-90635714D01*
X246821626Y-90635714D02*
X246964484Y-90707143D01*
X246964484Y-90707143D02*
X247035912Y-90850000D01*
X247035912Y-90850000D02*
X247035912Y-91064286D01*
X247035912Y-91064286D02*
X246964484Y-91207143D01*
X246964484Y-91207143D02*
X246893055Y-91278572D01*
X247035912Y-91992857D02*
X246035912Y-91992857D01*
X246178769Y-91992857D02*
X246107341Y-92064286D01*
X246107341Y-92064286D02*
X246035912Y-92207143D01*
X246035912Y-92207143D02*
X246035912Y-92421429D01*
X246035912Y-92421429D02*
X246107341Y-92564286D01*
X246107341Y-92564286D02*
X246250198Y-92635715D01*
X246250198Y-92635715D02*
X247035912Y-92635715D01*
X246250198Y-92635715D02*
X246107341Y-92707143D01*
X246107341Y-92707143D02*
X246035912Y-92850000D01*
X246035912Y-92850000D02*
X246035912Y-93064286D01*
X246035912Y-93064286D02*
X246107341Y-93207143D01*
X246107341Y-93207143D02*
X246250198Y-93278572D01*
X246250198Y-93278572D02*
X247035912Y-93278572D01*
X247035912Y-93992857D02*
X245535912Y-93992857D01*
X246107341Y-93992857D02*
X246035912Y-94135715D01*
X246035912Y-94135715D02*
X246035912Y-94421429D01*
X246035912Y-94421429D02*
X246107341Y-94564286D01*
X246107341Y-94564286D02*
X246178769Y-94635715D01*
X246178769Y-94635715D02*
X246321626Y-94707143D01*
X246321626Y-94707143D02*
X246750198Y-94707143D01*
X246750198Y-94707143D02*
X246893055Y-94635715D01*
X246893055Y-94635715D02*
X246964484Y-94564286D01*
X246964484Y-94564286D02*
X247035912Y-94421429D01*
X247035912Y-94421429D02*
X247035912Y-94135715D01*
X247035912Y-94135715D02*
X246964484Y-93992857D01*
X246964484Y-95278572D02*
X247035912Y-95421429D01*
X247035912Y-95421429D02*
X247035912Y-95707143D01*
X247035912Y-95707143D02*
X246964484Y-95850000D01*
X246964484Y-95850000D02*
X246821626Y-95921429D01*
X246821626Y-95921429D02*
X246750198Y-95921429D01*
X246750198Y-95921429D02*
X246607341Y-95850000D01*
X246607341Y-95850000D02*
X246535912Y-95707143D01*
X246535912Y-95707143D02*
X246535912Y-95492858D01*
X246535912Y-95492858D02*
X246464484Y-95350000D01*
X246464484Y-95350000D02*
X246321626Y-95278572D01*
X246321626Y-95278572D02*
X246250198Y-95278572D01*
X246250198Y-95278572D02*
X246107341Y-95350000D01*
X246107341Y-95350000D02*
X246035912Y-95492858D01*
X246035912Y-95492858D02*
X246035912Y-95707143D01*
X246035912Y-95707143D02*
X246107341Y-95850000D01*
X245535912Y-96564286D02*
X246750198Y-96564286D01*
X246750198Y-96564286D02*
X246893055Y-96635715D01*
X246893055Y-96635715D02*
X246964484Y-96707144D01*
X246964484Y-96707144D02*
X247035912Y-96850001D01*
X247035912Y-96850001D02*
X247035912Y-97135715D01*
X247035912Y-97135715D02*
X246964484Y-97278572D01*
X246964484Y-97278572D02*
X246893055Y-97350001D01*
X246893055Y-97350001D02*
X246750198Y-97421429D01*
X246750198Y-97421429D02*
X245535912Y-97421429D01*
X246035912Y-98135715D02*
X247535912Y-98135715D01*
X246107341Y-98135715D02*
X246035912Y-98278573D01*
X246035912Y-98278573D02*
X246035912Y-98564287D01*
X246035912Y-98564287D02*
X246107341Y-98707144D01*
X246107341Y-98707144D02*
X246178769Y-98778573D01*
X246178769Y-98778573D02*
X246321626Y-98850001D01*
X246321626Y-98850001D02*
X246750198Y-98850001D01*
X246750198Y-98850001D02*
X246893055Y-98778573D01*
X246893055Y-98778573D02*
X246964484Y-98707144D01*
X246964484Y-98707144D02*
X247035912Y-98564287D01*
X247035912Y-98564287D02*
X247035912Y-98278573D01*
X247035912Y-98278573D02*
X246964484Y-98135715D01*
X246893055Y-99492858D02*
X246964484Y-99564287D01*
X246964484Y-99564287D02*
X247035912Y-99492858D01*
X247035912Y-99492858D02*
X246964484Y-99421430D01*
X246964484Y-99421430D02*
X246893055Y-99492858D01*
X246893055Y-99492858D02*
X247035912Y-99492858D01*
X246464484Y-99492858D02*
X245607341Y-99421430D01*
X245607341Y-99421430D02*
X245535912Y-99492858D01*
X245535912Y-99492858D02*
X245607341Y-99564287D01*
X245607341Y-99564287D02*
X246464484Y-99492858D01*
X246464484Y-99492858D02*
X245535912Y-99492858D01*
X245535912Y-101135716D02*
X245535912Y-101992859D01*
X247035912Y-101564287D02*
X245535912Y-101564287D01*
X247035912Y-102492858D02*
X246035912Y-102492858D01*
X246321626Y-102492858D02*
X246178769Y-102564287D01*
X246178769Y-102564287D02*
X246107341Y-102635716D01*
X246107341Y-102635716D02*
X246035912Y-102778573D01*
X246035912Y-102778573D02*
X246035912Y-102921430D01*
X247035912Y-104064287D02*
X246250198Y-104064287D01*
X246250198Y-104064287D02*
X246107341Y-103992858D01*
X246107341Y-103992858D02*
X246035912Y-103850001D01*
X246035912Y-103850001D02*
X246035912Y-103564287D01*
X246035912Y-103564287D02*
X246107341Y-103421429D01*
X246964484Y-104064287D02*
X247035912Y-103921429D01*
X247035912Y-103921429D02*
X247035912Y-103564287D01*
X247035912Y-103564287D02*
X246964484Y-103421429D01*
X246964484Y-103421429D02*
X246821626Y-103350001D01*
X246821626Y-103350001D02*
X246678769Y-103350001D01*
X246678769Y-103350001D02*
X246535912Y-103421429D01*
X246535912Y-103421429D02*
X246464484Y-103564287D01*
X246464484Y-103564287D02*
X246464484Y-103921429D01*
X246464484Y-103921429D02*
X246393055Y-104064287D01*
X246964484Y-105421430D02*
X247035912Y-105278572D01*
X247035912Y-105278572D02*
X247035912Y-104992858D01*
X247035912Y-104992858D02*
X246964484Y-104850001D01*
X246964484Y-104850001D02*
X246893055Y-104778572D01*
X246893055Y-104778572D02*
X246750198Y-104707144D01*
X246750198Y-104707144D02*
X246321626Y-104707144D01*
X246321626Y-104707144D02*
X246178769Y-104778572D01*
X246178769Y-104778572D02*
X246107341Y-104850001D01*
X246107341Y-104850001D02*
X246035912Y-104992858D01*
X246035912Y-104992858D02*
X246035912Y-105278572D01*
X246035912Y-105278572D02*
X246107341Y-105421430D01*
X247035912Y-106064286D02*
X245535912Y-106064286D01*
X246464484Y-106207144D02*
X247035912Y-106635715D01*
X246035912Y-106635715D02*
X246607341Y-106064286D01*
X247035912Y-107278572D02*
X245535912Y-107278572D01*
X246107341Y-107278572D02*
X246035912Y-107421430D01*
X246035912Y-107421430D02*
X246035912Y-107707144D01*
X246035912Y-107707144D02*
X246107341Y-107850001D01*
X246107341Y-107850001D02*
X246178769Y-107921430D01*
X246178769Y-107921430D02*
X246321626Y-107992858D01*
X246321626Y-107992858D02*
X246750198Y-107992858D01*
X246750198Y-107992858D02*
X246893055Y-107921430D01*
X246893055Y-107921430D02*
X246964484Y-107850001D01*
X246964484Y-107850001D02*
X247035912Y-107707144D01*
X247035912Y-107707144D02*
X247035912Y-107421430D01*
X247035912Y-107421430D02*
X246964484Y-107278572D01*
X247035912Y-109278573D02*
X246250198Y-109278573D01*
X246250198Y-109278573D02*
X246107341Y-109207144D01*
X246107341Y-109207144D02*
X246035912Y-109064287D01*
X246035912Y-109064287D02*
X246035912Y-108778573D01*
X246035912Y-108778573D02*
X246107341Y-108635715D01*
X246964484Y-109278573D02*
X247035912Y-109135715D01*
X247035912Y-109135715D02*
X247035912Y-108778573D01*
X247035912Y-108778573D02*
X246964484Y-108635715D01*
X246964484Y-108635715D02*
X246821626Y-108564287D01*
X246821626Y-108564287D02*
X246678769Y-108564287D01*
X246678769Y-108564287D02*
X246535912Y-108635715D01*
X246535912Y-108635715D02*
X246464484Y-108778573D01*
X246464484Y-108778573D02*
X246464484Y-109135715D01*
X246464484Y-109135715D02*
X246393055Y-109278573D01*
X247035912Y-110207144D02*
X246964484Y-110064287D01*
X246964484Y-110064287D02*
X246821626Y-109992858D01*
X246821626Y-109992858D02*
X245535912Y-109992858D01*
X247035912Y-110992858D02*
X246964484Y-110850001D01*
X246964484Y-110850001D02*
X246821626Y-110778572D01*
X246821626Y-110778572D02*
X245535912Y-110778572D01*
X246035912Y-112564286D02*
X247035912Y-112921429D01*
X247035912Y-112921429D02*
X246035912Y-113278572D01*
X246035912Y-114492858D02*
X247035912Y-114492858D01*
X245464484Y-114135715D02*
X246535912Y-113778572D01*
X246535912Y-113778572D02*
X246535912Y-114707143D01*
X247950828Y-95135715D02*
X247950828Y-94421429D01*
X247950828Y-94421429D02*
X248665114Y-94350001D01*
X248665114Y-94350001D02*
X248593685Y-94421429D01*
X248593685Y-94421429D02*
X248522257Y-94564287D01*
X248522257Y-94564287D02*
X248522257Y-94921429D01*
X248522257Y-94921429D02*
X248593685Y-95064287D01*
X248593685Y-95064287D02*
X248665114Y-95135715D01*
X248665114Y-95135715D02*
X248807971Y-95207144D01*
X248807971Y-95207144D02*
X249165114Y-95207144D01*
X249165114Y-95207144D02*
X249307971Y-95135715D01*
X249307971Y-95135715D02*
X249379400Y-95064287D01*
X249379400Y-95064287D02*
X249450828Y-94921429D01*
X249450828Y-94921429D02*
X249450828Y-94564287D01*
X249450828Y-94564287D02*
X249379400Y-94421429D01*
X249379400Y-94421429D02*
X249307971Y-94350001D01*
X248093685Y-95778572D02*
X248022257Y-95850000D01*
X248022257Y-95850000D02*
X247950828Y-95992858D01*
X247950828Y-95992858D02*
X247950828Y-96350000D01*
X247950828Y-96350000D02*
X248022257Y-96492858D01*
X248022257Y-96492858D02*
X248093685Y-96564286D01*
X248093685Y-96564286D02*
X248236542Y-96635715D01*
X248236542Y-96635715D02*
X248379400Y-96635715D01*
X248379400Y-96635715D02*
X248593685Y-96564286D01*
X248593685Y-96564286D02*
X249450828Y-95707143D01*
X249450828Y-95707143D02*
X249450828Y-96635715D01*
X249307971Y-97278571D02*
X249379400Y-97350000D01*
X249379400Y-97350000D02*
X249450828Y-97278571D01*
X249450828Y-97278571D02*
X249379400Y-97207143D01*
X249379400Y-97207143D02*
X249307971Y-97278571D01*
X249307971Y-97278571D02*
X249450828Y-97278571D01*
X247950828Y-98707143D02*
X247950828Y-97992857D01*
X247950828Y-97992857D02*
X248665114Y-97921429D01*
X248665114Y-97921429D02*
X248593685Y-97992857D01*
X248593685Y-97992857D02*
X248522257Y-98135715D01*
X248522257Y-98135715D02*
X248522257Y-98492857D01*
X248522257Y-98492857D02*
X248593685Y-98635715D01*
X248593685Y-98635715D02*
X248665114Y-98707143D01*
X248665114Y-98707143D02*
X248807971Y-98778572D01*
X248807971Y-98778572D02*
X249165114Y-98778572D01*
X249165114Y-98778572D02*
X249307971Y-98707143D01*
X249307971Y-98707143D02*
X249379400Y-98635715D01*
X249379400Y-98635715D02*
X249450828Y-98492857D01*
X249450828Y-98492857D02*
X249450828Y-98135715D01*
X249450828Y-98135715D02*
X249379400Y-97992857D01*
X249379400Y-97992857D02*
X249307971Y-97921429D01*
X249450828Y-99421428D02*
X248450828Y-99421428D01*
X248593685Y-99421428D02*
X248522257Y-99492857D01*
X248522257Y-99492857D02*
X248450828Y-99635714D01*
X248450828Y-99635714D02*
X248450828Y-99850000D01*
X248450828Y-99850000D02*
X248522257Y-99992857D01*
X248522257Y-99992857D02*
X248665114Y-100064286D01*
X248665114Y-100064286D02*
X249450828Y-100064286D01*
X248665114Y-100064286D02*
X248522257Y-100135714D01*
X248522257Y-100135714D02*
X248450828Y-100278571D01*
X248450828Y-100278571D02*
X248450828Y-100492857D01*
X248450828Y-100492857D02*
X248522257Y-100635714D01*
X248522257Y-100635714D02*
X248665114Y-100707143D01*
X248665114Y-100707143D02*
X249450828Y-100707143D01*
X249450828Y-101421428D02*
X248450828Y-101421428D01*
X248593685Y-101421428D02*
X248522257Y-101492857D01*
X248522257Y-101492857D02*
X248450828Y-101635714D01*
X248450828Y-101635714D02*
X248450828Y-101850000D01*
X248450828Y-101850000D02*
X248522257Y-101992857D01*
X248522257Y-101992857D02*
X248665114Y-102064286D01*
X248665114Y-102064286D02*
X249450828Y-102064286D01*
X248665114Y-102064286D02*
X248522257Y-102135714D01*
X248522257Y-102135714D02*
X248450828Y-102278571D01*
X248450828Y-102278571D02*
X248450828Y-102492857D01*
X248450828Y-102492857D02*
X248522257Y-102635714D01*
X248522257Y-102635714D02*
X248665114Y-102707143D01*
X248665114Y-102707143D02*
X249450828Y-102707143D01*
X248665114Y-105064285D02*
X248736542Y-105278571D01*
X248736542Y-105278571D02*
X248807971Y-105350000D01*
X248807971Y-105350000D02*
X248950828Y-105421428D01*
X248950828Y-105421428D02*
X249165114Y-105421428D01*
X249165114Y-105421428D02*
X249307971Y-105350000D01*
X249307971Y-105350000D02*
X249379400Y-105278571D01*
X249379400Y-105278571D02*
X249450828Y-105135714D01*
X249450828Y-105135714D02*
X249450828Y-104564285D01*
X249450828Y-104564285D02*
X247950828Y-104564285D01*
X247950828Y-104564285D02*
X247950828Y-105064285D01*
X247950828Y-105064285D02*
X248022257Y-105207143D01*
X248022257Y-105207143D02*
X248093685Y-105278571D01*
X248093685Y-105278571D02*
X248236542Y-105350000D01*
X248236542Y-105350000D02*
X248379400Y-105350000D01*
X248379400Y-105350000D02*
X248522257Y-105278571D01*
X248522257Y-105278571D02*
X248593685Y-105207143D01*
X248593685Y-105207143D02*
X248665114Y-105064285D01*
X248665114Y-105064285D02*
X248665114Y-104564285D01*
X249450828Y-106707143D02*
X248665114Y-106707143D01*
X248665114Y-106707143D02*
X248522257Y-106635714D01*
X248522257Y-106635714D02*
X248450828Y-106492857D01*
X248450828Y-106492857D02*
X248450828Y-106207143D01*
X248450828Y-106207143D02*
X248522257Y-106064285D01*
X249379400Y-106707143D02*
X249450828Y-106564285D01*
X249450828Y-106564285D02*
X249450828Y-106207143D01*
X249450828Y-106207143D02*
X249379400Y-106064285D01*
X249379400Y-106064285D02*
X249236542Y-105992857D01*
X249236542Y-105992857D02*
X249093685Y-105992857D01*
X249093685Y-105992857D02*
X248950828Y-106064285D01*
X248950828Y-106064285D02*
X248879400Y-106207143D01*
X248879400Y-106207143D02*
X248879400Y-106564285D01*
X248879400Y-106564285D02*
X248807971Y-106707143D01*
X249450828Y-107635714D02*
X249379400Y-107492857D01*
X249379400Y-107492857D02*
X249236542Y-107421428D01*
X249236542Y-107421428D02*
X247950828Y-107421428D01*
X249450828Y-108421428D02*
X249379400Y-108278571D01*
X249379400Y-108278571D02*
X249236542Y-108207142D01*
X249236542Y-108207142D02*
X247950828Y-108207142D01*
D11*
X243400713Y-69902819D02*
X243400713Y-68902819D01*
X243400713Y-68902819D02*
X243067380Y-69617104D01*
X243067380Y-69617104D02*
X242734047Y-68902819D01*
X242734047Y-68902819D02*
X242734047Y-69902819D01*
X242353094Y-68902819D02*
X241686428Y-69902819D01*
X241686428Y-68902819D02*
X242353094Y-69902819D01*
X240876904Y-69236152D02*
X240876904Y-69902819D01*
X241114999Y-68855200D02*
X241353094Y-69569485D01*
X241353094Y-69569485D02*
X240734047Y-69569485D01*
X248653713Y-133938819D02*
X248653713Y-132938819D01*
X248653713Y-132938819D02*
X248320380Y-133653104D01*
X248320380Y-133653104D02*
X247987047Y-132938819D01*
X247987047Y-132938819D02*
X247987047Y-133938819D01*
X247606094Y-132938819D02*
X246939428Y-133938819D01*
X246939428Y-132938819D02*
X247606094Y-133938819D01*
X246034666Y-133938819D02*
X246606094Y-133938819D01*
X246320380Y-133938819D02*
X246320380Y-132938819D01*
X246320380Y-132938819D02*
X246415618Y-133081676D01*
X246415618Y-133081676D02*
X246510856Y-133176914D01*
X246510856Y-133176914D02*
X246606094Y-133224533D01*
X253222819Y-76882666D02*
X253937104Y-76882666D01*
X253937104Y-76882666D02*
X254079961Y-76835047D01*
X254079961Y-76835047D02*
X254175200Y-76739809D01*
X254175200Y-76739809D02*
X254222819Y-76596952D01*
X254222819Y-76596952D02*
X254222819Y-76501714D01*
X253222819Y-77835047D02*
X253222819Y-77358857D01*
X253222819Y-77358857D02*
X253699009Y-77311238D01*
X253699009Y-77311238D02*
X253651390Y-77358857D01*
X253651390Y-77358857D02*
X253603771Y-77454095D01*
X253603771Y-77454095D02*
X253603771Y-77692190D01*
X253603771Y-77692190D02*
X253651390Y-77787428D01*
X253651390Y-77787428D02*
X253699009Y-77835047D01*
X253699009Y-77835047D02*
X253794247Y-77882666D01*
X253794247Y-77882666D02*
X254032342Y-77882666D01*
X254032342Y-77882666D02*
X254127580Y-77835047D01*
X254127580Y-77835047D02*
X254175200Y-77787428D01*
X254175200Y-77787428D02*
X254222819Y-77692190D01*
X254222819Y-77692190D02*
X254222819Y-77454095D01*
X254222819Y-77454095D02*
X254175200Y-77358857D01*
X254175200Y-77358857D02*
X254127580Y-77311238D01*
X253222819Y-125650666D02*
X253937104Y-125650666D01*
X253937104Y-125650666D02*
X254079961Y-125603047D01*
X254079961Y-125603047D02*
X254175200Y-125507809D01*
X254175200Y-125507809D02*
X254222819Y-125364952D01*
X254222819Y-125364952D02*
X254222819Y-125269714D01*
X253556152Y-126555428D02*
X254222819Y-126555428D01*
X253175200Y-126317333D02*
X253889485Y-126079238D01*
X253889485Y-126079238D02*
X253889485Y-126698285D01*
X193395152Y-80274150D02*
X192890076Y-80779226D01*
X192890076Y-80779226D02*
X192822732Y-80913913D01*
X192822732Y-80913913D02*
X192822732Y-81048600D01*
X192822732Y-81048600D02*
X192890076Y-81183287D01*
X192890076Y-81183287D02*
X192957419Y-81250631D01*
X193024763Y-80038447D02*
X193024763Y-79971104D01*
X193024763Y-79971104D02*
X192991091Y-79870089D01*
X192991091Y-79870089D02*
X192822732Y-79701730D01*
X192822732Y-79701730D02*
X192721717Y-79668058D01*
X192721717Y-79668058D02*
X192654373Y-79668058D01*
X192654373Y-79668058D02*
X192553358Y-79701730D01*
X192553358Y-79701730D02*
X192486015Y-79769073D01*
X192486015Y-79769073D02*
X192418671Y-79903760D01*
X192418671Y-79903760D02*
X192418671Y-80711882D01*
X192418671Y-80711882D02*
X191980938Y-80274150D01*
X192624150Y-122164847D02*
X193129226Y-122669923D01*
X193129226Y-122669923D02*
X193263913Y-122737267D01*
X193263913Y-122737267D02*
X193398600Y-122737267D01*
X193398600Y-122737267D02*
X193533287Y-122669923D01*
X193533287Y-122669923D02*
X193600631Y-122602580D01*
X192354776Y-122434221D02*
X191917043Y-122871954D01*
X191917043Y-122871954D02*
X192422119Y-122905626D01*
X192422119Y-122905626D02*
X192321104Y-123006641D01*
X192321104Y-123006641D02*
X192287432Y-123107656D01*
X192287432Y-123107656D02*
X192287432Y-123175000D01*
X192287432Y-123175000D02*
X192321104Y-123276015D01*
X192321104Y-123276015D02*
X192489463Y-123444374D01*
X192489463Y-123444374D02*
X192590478Y-123478045D01*
X192590478Y-123478045D02*
X192657821Y-123478045D01*
X192657821Y-123478045D02*
X192758837Y-123444374D01*
X192758837Y-123444374D02*
X192960867Y-123242343D01*
X192960867Y-123242343D02*
X192994539Y-123141328D01*
X192994539Y-123141328D02*
X192994539Y-123073984D01*
X238018000Y-65916000D02*
X238018000Y-66416000D01*
X238018000Y-70016000D02*
X238018000Y-70616000D01*
X238018000Y-70616000D02*
X242518000Y-70616000D01*
X242518000Y-65916000D02*
X238018000Y-65916000D01*
X242518000Y-66616000D02*
X242518000Y-65916000D01*
X243018000Y-71116000D02*
X243018000Y-72116000D01*
X243518000Y-72616000D02*
X243018000Y-72116000D01*
X246518000Y-68116000D02*
X244018000Y-68116000D01*
X246518000Y-72616000D02*
X243518000Y-72616000D01*
X247018000Y-68616000D02*
X246518000Y-68116000D01*
X247018000Y-72116000D02*
X246518000Y-72616000D01*
X242518000Y-70616000D02*
G75*
G02*
X243018000Y-71116000I-1J-500001D01*
G01*
X244018000Y-68116000D02*
G75*
G02*
X242518000Y-66616000I1J1500001D01*
G01*
X243018000Y-131034000D02*
X243518000Y-130534000D01*
X243018000Y-134534000D02*
X243518000Y-135034000D01*
X243518000Y-130534000D02*
X246518000Y-130534000D01*
X243518000Y-135034000D02*
X246018000Y-135034000D01*
X246518000Y-130534000D02*
X247018000Y-131034000D01*
X247018000Y-132034000D02*
X247018000Y-131034000D01*
X247518000Y-136534000D02*
X247518000Y-137234000D01*
X247518000Y-137234000D02*
X252018000Y-137234000D01*
X252018000Y-132534000D02*
X247518000Y-132534000D01*
X252018000Y-133134000D02*
X252018000Y-132534000D01*
X252018000Y-137234000D02*
X252018000Y-136734000D01*
X246018000Y-135034000D02*
G75*
G02*
X247518000Y-136534000I-1J-1500001D01*
G01*
X247518000Y-132534000D02*
G75*
G02*
X247018000Y-132034000I1J500001D01*
G01*
D12*
X244768000Y-78596000D02*
X244768000Y-75836000D01*
X252498000Y-75836000D02*
X244768000Y-75836000D01*
X252498000Y-78596000D02*
X244768000Y-78596000D01*
X252498000Y-78596000D02*
X252498000Y-75836000D01*
X253768000Y-78596000D02*
X255148000Y-78596000D01*
X255148000Y-78596000D02*
X255148000Y-77216000D01*
X244768000Y-127364000D02*
X244768000Y-124604000D01*
X252498000Y-124604000D02*
X244768000Y-124604000D01*
X252498000Y-127364000D02*
X244768000Y-127364000D01*
X252498000Y-127364000D02*
X252498000Y-124604000D01*
X253768000Y-127364000D02*
X255148000Y-127364000D01*
X255148000Y-127364000D02*
X255148000Y-125984000D01*
X187385795Y-87763717D02*
X185434181Y-85812103D01*
X190900116Y-80346167D02*
X185434181Y-85812103D01*
X192851731Y-82297782D02*
X187385795Y-87763717D01*
X192851731Y-82297782D02*
X190900116Y-80346167D01*
X193749756Y-81399756D02*
X194725564Y-80423949D01*
X194725564Y-80423949D02*
X193749756Y-79448142D01*
X185434181Y-117397897D02*
X187385795Y-115446283D01*
X190900116Y-122863833D02*
X185434181Y-117397897D01*
X190900116Y-122863833D02*
X192851731Y-120912218D01*
X191798142Y-123761858D02*
X192773949Y-124737666D01*
X192773949Y-124737666D02*
X193749756Y-123761858D01*
X192851731Y-120912218D02*
X187385795Y-115446283D01*
M02*
