M48
; DRILL file {KiCad 9.0.2} date 2025-09-19T15:50:01-0400
; FORMAT={-:-/ absolute / metric / decimal}
; #@! TF.CreationDate,2025-09-19T15:50:01-04:00
; #@! TF.GenerationSoftware,Kicad,Pcbnew,9.0.2
; #@! TF.FileFunction,Plated,1,2,PTH
FMAT,2
METRIC
; #@! TA.AperFunction,Plated,PTH,ViaDrill
T1C0.400
; #@! TA.AperFunction,Plated,PTH,ComponentDrill
T2C1.000
; #@! TA.AperFunction,Plated,PTH,ComponentDrill
T3C2.500
%
G90
G05
T1
X-32.6Y-96.6
T2
X187.386Y-85.812
X187.386Y-117.398
X189.182Y-84.016
X189.182Y-119.194
X190.978Y-82.22
X190.978Y-120.99
X192.774Y-80.424
X192.774Y-122.786
X246.148Y-77.216
X246.148Y-125.984
X248.688Y-77.216
X248.688Y-125.984
X251.228Y-77.216
X251.228Y-125.984
X253.768Y-77.216
X253.768Y-125.984
T3
X188.775Y-101.596
X199.65Y-82.7
X199.65Y-120.35
X221.4Y-82.6
X221.4Y-120.6
X232.4Y-101.6
M30
