G04 #@! TF.GenerationSoftware,KiCad,Pcbnew,9.0.2*
G04 #@! TF.CreationDate,2025-10-02T21:25:45-04:00*
G04 #@! TF.ProjectId,Trackball,54726163-6b62-4616-9c6c-2e6b69636164,rev?*
G04 #@! TF.SameCoordinates,Original*
G04 #@! TF.FileFunction,Legend,Top*
G04 #@! TF.FilePolarity,Positive*
%FSLAX46Y46*%
G04 Gerber Fmt 4.6, Leading zero omitted, Abs format (unit mm)*
G04 Created by KiCad (PCBNEW 9.0.2) date 2025-10-02 21:25:45*
%MOMM*%
%LPD*%
G01*
G04 APERTURE LIST*
%ADD10C,0.300000*%
%ADD11C,0.200000*%
%ADD12C,0.150000*%
G04 APERTURE END LIST*
D10*
G36*
X91785714Y-57649171D02*
G01*
X91471124Y-57649171D01*
X91381710Y-57604463D01*
X91344706Y-57567460D01*
X91299999Y-57478046D01*
X91299999Y-57406010D01*
X91344705Y-57316596D01*
X91381710Y-57279592D01*
X91471124Y-57234885D01*
X91785714Y-57234885D01*
X91785714Y-57649171D01*
G37*
G36*
X91785714Y-56934885D02*
G01*
X91460057Y-56934885D01*
X91302454Y-56882351D01*
X91273276Y-56853173D01*
X91228571Y-56763761D01*
X91228571Y-56620294D01*
X91273276Y-56530883D01*
X91310281Y-56493878D01*
X91399695Y-56449171D01*
X91785714Y-56449171D01*
X91785714Y-56934885D01*
G37*
G36*
X92252381Y-58115838D02*
G01*
X84336215Y-58115838D01*
X84336215Y-56269907D01*
X84502882Y-56269907D01*
X84502882Y-56328435D01*
X84525280Y-56382507D01*
X84566664Y-56423891D01*
X84620736Y-56446289D01*
X84650000Y-56449171D01*
X85214286Y-56449171D01*
X85214286Y-57799171D01*
X85217168Y-57828435D01*
X85239566Y-57882507D01*
X85280950Y-57923891D01*
X85335022Y-57946289D01*
X85393550Y-57946289D01*
X85447622Y-57923891D01*
X85489006Y-57882507D01*
X85511404Y-57828435D01*
X85514286Y-57799171D01*
X85514286Y-56299171D01*
X85511404Y-56269907D01*
X85860025Y-56269907D01*
X85860025Y-56328435D01*
X85882423Y-56382507D01*
X85923807Y-56423891D01*
X85977879Y-56446289D01*
X86007143Y-56449171D01*
X86571429Y-56449171D01*
X86571429Y-56934885D01*
X86221429Y-56934885D01*
X86192165Y-56937767D01*
X86138093Y-56960165D01*
X86096709Y-57001549D01*
X86074311Y-57055621D01*
X86074311Y-57114149D01*
X86096709Y-57168221D01*
X86138093Y-57209605D01*
X86192165Y-57232003D01*
X86221429Y-57234885D01*
X86571429Y-57234885D01*
X86571429Y-57649171D01*
X86007143Y-57649171D01*
X85977879Y-57652053D01*
X85923807Y-57674451D01*
X85882423Y-57715835D01*
X85860025Y-57769907D01*
X85860025Y-57828435D01*
X85882423Y-57882507D01*
X85923807Y-57923891D01*
X85977879Y-57946289D01*
X86007143Y-57949171D01*
X86721429Y-57949171D01*
X86750693Y-57946289D01*
X86804765Y-57923891D01*
X86846149Y-57882507D01*
X86868547Y-57828435D01*
X86871429Y-57799171D01*
X86871429Y-56584885D01*
X87214285Y-56584885D01*
X87214285Y-56727742D01*
X87217167Y-56757006D01*
X87219228Y-56761983D01*
X87219611Y-56767361D01*
X87230121Y-56794824D01*
X87301550Y-56937682D01*
X87309478Y-56950277D01*
X87310994Y-56953936D01*
X87314373Y-56958053D01*
X87317215Y-56962568D01*
X87320209Y-56965164D01*
X87329649Y-56976667D01*
X87401078Y-57048095D01*
X87412578Y-57057533D01*
X87415175Y-57060527D01*
X87419687Y-57063367D01*
X87423808Y-57066749D01*
X87427467Y-57068264D01*
X87440061Y-57076192D01*
X87582917Y-57147621D01*
X87585059Y-57148440D01*
X87585929Y-57149085D01*
X87598200Y-57153469D01*
X87610381Y-57158130D01*
X87611461Y-57158206D01*
X87613620Y-57158978D01*
X87883357Y-57226411D01*
X87989718Y-57279592D01*
X88026722Y-57316597D01*
X88071428Y-57406009D01*
X88071428Y-57478047D01*
X88026722Y-57567459D01*
X87989718Y-57604463D01*
X87900304Y-57649171D01*
X87602914Y-57649171D01*
X87411719Y-57585440D01*
X87383046Y-57578920D01*
X87324666Y-57583069D01*
X87272319Y-57609242D01*
X87233971Y-57653457D01*
X87215463Y-57708981D01*
X87219612Y-57767361D01*
X87245785Y-57819708D01*
X87290000Y-57858056D01*
X87316851Y-57870044D01*
X87531136Y-57941473D01*
X87545645Y-57944772D01*
X87549307Y-57946289D01*
X87554615Y-57946811D01*
X87559810Y-57947993D01*
X87563759Y-57947712D01*
X87578571Y-57949171D01*
X87935714Y-57949171D01*
X87964978Y-57946289D01*
X87969958Y-57944225D01*
X87975333Y-57943844D01*
X88002796Y-57933335D01*
X88145653Y-57861906D01*
X88158248Y-57853977D01*
X88161905Y-57852463D01*
X88166022Y-57849083D01*
X88170539Y-57846241D01*
X88173136Y-57843246D01*
X88184636Y-57833809D01*
X88248539Y-57769907D01*
X89645739Y-57769907D01*
X89645739Y-57828435D01*
X89668137Y-57882507D01*
X89709521Y-57923891D01*
X89763593Y-57946289D01*
X89792857Y-57949171D01*
X90649999Y-57949171D01*
X90679263Y-57946289D01*
X90733335Y-57923891D01*
X90774719Y-57882507D01*
X90797117Y-57828435D01*
X90797117Y-57769907D01*
X90774719Y-57715835D01*
X90733335Y-57674451D01*
X90679263Y-57652053D01*
X90649999Y-57649171D01*
X90371428Y-57649171D01*
X90371428Y-56584885D01*
X90928571Y-56584885D01*
X90928571Y-56799171D01*
X90931453Y-56828435D01*
X90933515Y-56833413D01*
X90933897Y-56838789D01*
X90944407Y-56866253D01*
X91015835Y-57009110D01*
X91023762Y-57021703D01*
X91025278Y-57025363D01*
X91028659Y-57029482D01*
X91031500Y-57033996D01*
X91034493Y-57036592D01*
X91043933Y-57048094D01*
X91115362Y-57119523D01*
X91116544Y-57120493D01*
X91115363Y-57121675D01*
X91105923Y-57133177D01*
X91102929Y-57135774D01*
X91100087Y-57140288D01*
X91096708Y-57144406D01*
X91095192Y-57148064D01*
X91087264Y-57160660D01*
X91015835Y-57303518D01*
X91005325Y-57330981D01*
X91004942Y-57336358D01*
X91002881Y-57341336D01*
X90999999Y-57370600D01*
X90999999Y-57513457D01*
X91002881Y-57542721D01*
X91004944Y-57547701D01*
X91005326Y-57553076D01*
X91015835Y-57580539D01*
X91087264Y-57723396D01*
X91095192Y-57735991D01*
X91096708Y-57739650D01*
X91100087Y-57743767D01*
X91102929Y-57748282D01*
X91105923Y-57750878D01*
X91115363Y-57762381D01*
X91186792Y-57833809D01*
X91198292Y-57843247D01*
X91200889Y-57846241D01*
X91205401Y-57849081D01*
X91209522Y-57852463D01*
X91213181Y-57853978D01*
X91225775Y-57861906D01*
X91368631Y-57933335D01*
X91396095Y-57943844D01*
X91401469Y-57944225D01*
X91406450Y-57946289D01*
X91435714Y-57949171D01*
X91935714Y-57949171D01*
X91964978Y-57946289D01*
X92019050Y-57923891D01*
X92060434Y-57882507D01*
X92082832Y-57828435D01*
X92085714Y-57799171D01*
X92085714Y-56299171D01*
X92082832Y-56269907D01*
X92060434Y-56215835D01*
X92019050Y-56174451D01*
X91964978Y-56152053D01*
X91935714Y-56149171D01*
X91364285Y-56149171D01*
X91335021Y-56152053D01*
X91330040Y-56154116D01*
X91324666Y-56154498D01*
X91297202Y-56165007D01*
X91154346Y-56236436D01*
X91141752Y-56244363D01*
X91138093Y-56245879D01*
X91133972Y-56249260D01*
X91129460Y-56252101D01*
X91126863Y-56255094D01*
X91115363Y-56264533D01*
X91043934Y-56335961D01*
X91034494Y-56347463D01*
X91031500Y-56350060D01*
X91028658Y-56354574D01*
X91025279Y-56358692D01*
X91023763Y-56362350D01*
X91015835Y-56374946D01*
X90944407Y-56517803D01*
X90933897Y-56545267D01*
X90933515Y-56550642D01*
X90931453Y-56555621D01*
X90928571Y-56584885D01*
X90371428Y-56584885D01*
X90371428Y-56299171D01*
X90368546Y-56269907D01*
X90346148Y-56215835D01*
X90304764Y-56174451D01*
X90250692Y-56152053D01*
X90192164Y-56152053D01*
X90138092Y-56174451D01*
X90096708Y-56215835D01*
X90074310Y-56269907D01*
X90071428Y-56299171D01*
X90071428Y-57649171D01*
X89792857Y-57649171D01*
X89763593Y-57652053D01*
X89709521Y-57674451D01*
X89668137Y-57715835D01*
X89645739Y-57769907D01*
X88248539Y-57769907D01*
X88256065Y-57762381D01*
X88265507Y-57750875D01*
X88268499Y-57748281D01*
X88271338Y-57743770D01*
X88274720Y-57739650D01*
X88276235Y-57735990D01*
X88284164Y-57723396D01*
X88355592Y-57580538D01*
X88366102Y-57553075D01*
X88366483Y-57547699D01*
X88368546Y-57542721D01*
X88371428Y-57513457D01*
X88371428Y-57370600D01*
X88368546Y-57341336D01*
X88366483Y-57336357D01*
X88366102Y-57330982D01*
X88355593Y-57303519D01*
X88284164Y-57160661D01*
X88276235Y-57148064D01*
X88274720Y-57144406D01*
X88271341Y-57140289D01*
X88268500Y-57135775D01*
X88265504Y-57133177D01*
X88256065Y-57121675D01*
X88184636Y-57050247D01*
X88173136Y-57040809D01*
X88170539Y-57037815D01*
X88166022Y-57034972D01*
X88161905Y-57031593D01*
X88158248Y-57030078D01*
X88145653Y-57022150D01*
X88002796Y-56950721D01*
X88000655Y-56949901D01*
X87999785Y-56949257D01*
X87987507Y-56944870D01*
X87975333Y-56940212D01*
X87974252Y-56940135D01*
X87972094Y-56939364D01*
X87702356Y-56871929D01*
X87595996Y-56818749D01*
X87558991Y-56781745D01*
X87514285Y-56692332D01*
X87514285Y-56620295D01*
X87558992Y-56530881D01*
X87595996Y-56493878D01*
X87685410Y-56449171D01*
X87982802Y-56449171D01*
X88173993Y-56512902D01*
X88202667Y-56519422D01*
X88261047Y-56515273D01*
X88313394Y-56489100D01*
X88351742Y-56444885D01*
X88370250Y-56389361D01*
X88366101Y-56330981D01*
X88339927Y-56278634D01*
X88295713Y-56240286D01*
X88268862Y-56228298D01*
X88054578Y-56156869D01*
X88040068Y-56153569D01*
X88036407Y-56152053D01*
X88031098Y-56151530D01*
X88025904Y-56150349D01*
X88021954Y-56150629D01*
X88007143Y-56149171D01*
X87650000Y-56149171D01*
X87620736Y-56152053D01*
X87615755Y-56154116D01*
X87610381Y-56154498D01*
X87582917Y-56165007D01*
X87440061Y-56236436D01*
X87427467Y-56244363D01*
X87423808Y-56245879D01*
X87419687Y-56249260D01*
X87415175Y-56252101D01*
X87412578Y-56255094D01*
X87401078Y-56264533D01*
X87329649Y-56335961D01*
X87320209Y-56347463D01*
X87317215Y-56350060D01*
X87314373Y-56354574D01*
X87310994Y-56358692D01*
X87309478Y-56362350D01*
X87301550Y-56374946D01*
X87230121Y-56517803D01*
X87219612Y-56545266D01*
X87219230Y-56550640D01*
X87217167Y-56555621D01*
X87214285Y-56584885D01*
X86871429Y-56584885D01*
X86871429Y-56299171D01*
X86868547Y-56269907D01*
X86846149Y-56215835D01*
X86804765Y-56174451D01*
X86750693Y-56152053D01*
X86721429Y-56149171D01*
X86007143Y-56149171D01*
X85977879Y-56152053D01*
X85923807Y-56174451D01*
X85882423Y-56215835D01*
X85860025Y-56269907D01*
X85511404Y-56269907D01*
X85489006Y-56215835D01*
X85447622Y-56174451D01*
X85393550Y-56152053D01*
X85364286Y-56149171D01*
X84650000Y-56149171D01*
X84620736Y-56152053D01*
X84566664Y-56174451D01*
X84525280Y-56215835D01*
X84502882Y-56269907D01*
X84336215Y-56269907D01*
X84336215Y-55982504D01*
X92252381Y-55982504D01*
X92252381Y-58115838D01*
G37*
G36*
X91275432Y-145095535D02*
G01*
X91371698Y-145191801D01*
X91428572Y-145419292D01*
X91428572Y-145882363D01*
X91371698Y-146109854D01*
X91275431Y-146206122D01*
X91186019Y-146250828D01*
X90971125Y-146250828D01*
X90881711Y-146206121D01*
X90785444Y-146109854D01*
X90728572Y-145882364D01*
X90728572Y-145419291D01*
X90785444Y-145191802D01*
X90881711Y-145095534D01*
X90971125Y-145050828D01*
X91186019Y-145050828D01*
X91275432Y-145095535D01*
G37*
G36*
X91426114Y-142688445D02*
G01*
X91526721Y-142789052D01*
X91579900Y-142895411D01*
X91642856Y-143147232D01*
X91642856Y-143324591D01*
X91579900Y-143576412D01*
X91526721Y-143682772D01*
X91426115Y-143783378D01*
X91268513Y-143835912D01*
X91085713Y-143835912D01*
X91085713Y-142635912D01*
X91268516Y-142635912D01*
X91426114Y-142688445D01*
G37*
G36*
X93775431Y-142680619D02*
G01*
X93871697Y-142776885D01*
X93928571Y-143004376D01*
X93928571Y-143467447D01*
X93871697Y-143694938D01*
X93775430Y-143791206D01*
X93686018Y-143835912D01*
X93471124Y-143835912D01*
X93381710Y-143791205D01*
X93285443Y-143694938D01*
X93228571Y-143467448D01*
X93228571Y-143004375D01*
X93285443Y-142776886D01*
X93381710Y-142680618D01*
X93471124Y-142635912D01*
X93686018Y-142635912D01*
X93775431Y-142680619D01*
G37*
G36*
X94895017Y-146717495D02*
G01*
X85976189Y-146717495D01*
X85976189Y-144900828D01*
X86142856Y-144900828D01*
X86142856Y-146115114D01*
X86145738Y-146144378D01*
X86147801Y-146149358D01*
X86148183Y-146154733D01*
X86158692Y-146182196D01*
X86230121Y-146325053D01*
X86238048Y-146337646D01*
X86239564Y-146341306D01*
X86242945Y-146345425D01*
X86245786Y-146349939D01*
X86248779Y-146352535D01*
X86258219Y-146364037D01*
X86329648Y-146435466D01*
X86341152Y-146444907D01*
X86343747Y-146447899D01*
X86348256Y-146450737D01*
X86352379Y-146454121D01*
X86356040Y-146455637D01*
X86368632Y-146463564D01*
X86511490Y-146534992D01*
X86538953Y-146545502D01*
X86544328Y-146545883D01*
X86549307Y-146547946D01*
X86578571Y-146550828D01*
X86864285Y-146550828D01*
X86893549Y-146547946D01*
X86898527Y-146545883D01*
X86903903Y-146545502D01*
X86931367Y-146534992D01*
X87074224Y-146463564D01*
X87086817Y-146455636D01*
X87090477Y-146454121D01*
X87094596Y-146450739D01*
X87099110Y-146447899D01*
X87101706Y-146444905D01*
X87113208Y-146435466D01*
X87184637Y-146364037D01*
X87194078Y-146352532D01*
X87197070Y-146349938D01*
X87199908Y-146345428D01*
X87203292Y-146341306D01*
X87204808Y-146337644D01*
X87212735Y-146325053D01*
X87284163Y-146182195D01*
X87294673Y-146154732D01*
X87295054Y-146149356D01*
X87297117Y-146144378D01*
X87299999Y-146115114D01*
X87299999Y-144900828D01*
X87714285Y-144900828D01*
X87714285Y-146400828D01*
X87717167Y-146430092D01*
X87739565Y-146484164D01*
X87780949Y-146525548D01*
X87835021Y-146547946D01*
X87893549Y-146547946D01*
X87947621Y-146525548D01*
X87989005Y-146484164D01*
X88011403Y-146430092D01*
X88014285Y-146400828D01*
X88014285Y-145465661D01*
X88591192Y-146475249D01*
X88595569Y-146481416D01*
X88596708Y-146484164D01*
X88599507Y-146486963D01*
X88608213Y-146499227D01*
X88623986Y-146511442D01*
X88638092Y-146525548D01*
X88646925Y-146529206D01*
X88654487Y-146535063D01*
X88673735Y-146540312D01*
X88692164Y-146547946D01*
X88701726Y-146547946D01*
X88710951Y-146550462D01*
X88730742Y-146547946D01*
X88750692Y-146547946D01*
X88759525Y-146544286D01*
X88769011Y-146543081D01*
X88786333Y-146533182D01*
X88804764Y-146525548D01*
X88811524Y-146518787D01*
X88819827Y-146514043D01*
X88832040Y-146498271D01*
X88846148Y-146484164D01*
X88849807Y-146475328D01*
X88855662Y-146467769D01*
X88860910Y-146448524D01*
X88868546Y-146430092D01*
X88870019Y-146415127D01*
X88871062Y-146411306D01*
X88870686Y-146408354D01*
X88871428Y-146400828D01*
X88871428Y-144900828D01*
X89285714Y-144900828D01*
X89285714Y-146400828D01*
X89288596Y-146430092D01*
X89310994Y-146484164D01*
X89352378Y-146525548D01*
X89406450Y-146547946D01*
X89435714Y-146550828D01*
X90150000Y-146550828D01*
X90179264Y-146547946D01*
X90233336Y-146525548D01*
X90274720Y-146484164D01*
X90297118Y-146430092D01*
X90297118Y-146371564D01*
X90274720Y-146317492D01*
X90233336Y-146276108D01*
X90179264Y-146253710D01*
X90150000Y-146250828D01*
X89585714Y-146250828D01*
X89585714Y-145400828D01*
X90428572Y-145400828D01*
X90428572Y-145900828D01*
X90429074Y-145905931D01*
X90428749Y-145908119D01*
X90430368Y-145919069D01*
X90431454Y-145930092D01*
X90432301Y-145932136D01*
X90433051Y-145937208D01*
X90504479Y-146222922D01*
X90514372Y-146250613D01*
X90521011Y-146259573D01*
X90525279Y-146269877D01*
X90543934Y-146292608D01*
X90686792Y-146435466D01*
X90698296Y-146444907D01*
X90700891Y-146447899D01*
X90705400Y-146450737D01*
X90709523Y-146454121D01*
X90713184Y-146455637D01*
X90725776Y-146463564D01*
X90868634Y-146534992D01*
X90896097Y-146545502D01*
X90901472Y-146545883D01*
X90906451Y-146547946D01*
X90935715Y-146550828D01*
X91221429Y-146550828D01*
X91250693Y-146547946D01*
X91255671Y-146545883D01*
X91261047Y-146545502D01*
X91288511Y-146534992D01*
X91431368Y-146463564D01*
X91443959Y-146455637D01*
X91447622Y-146454121D01*
X91451744Y-146450737D01*
X91456254Y-146447899D01*
X91458849Y-146444906D01*
X91470352Y-146435466D01*
X91613209Y-146292608D01*
X91631864Y-146269877D01*
X91636130Y-146259575D01*
X91642771Y-146250614D01*
X91652664Y-146222923D01*
X91724093Y-145937209D01*
X91724843Y-145932136D01*
X91725690Y-145930092D01*
X91726775Y-145919072D01*
X91728395Y-145908120D01*
X91728069Y-145905931D01*
X91728572Y-145900828D01*
X91728572Y-145543685D01*
X92000001Y-145543685D01*
X92000001Y-145757971D01*
X92000503Y-145763074D01*
X92000178Y-145765262D01*
X92001797Y-145776212D01*
X92002883Y-145787235D01*
X92003730Y-145789279D01*
X92004480Y-145794351D01*
X92075908Y-146080065D01*
X92076679Y-146082223D01*
X92076756Y-146083304D01*
X92081414Y-146095478D01*
X92085801Y-146107756D01*
X92086445Y-146108626D01*
X92087265Y-146110767D01*
X92158694Y-146253624D01*
X92166621Y-146266217D01*
X92168137Y-146269877D01*
X92171518Y-146273996D01*
X92174359Y-146278510D01*
X92177352Y-146281106D01*
X92186792Y-146292608D01*
X92329649Y-146435466D01*
X92352379Y-146454121D01*
X92357358Y-146456183D01*
X92361430Y-146459715D01*
X92388281Y-146471703D01*
X92602567Y-146543131D01*
X92617079Y-146546430D01*
X92620737Y-146547946D01*
X92626039Y-146548468D01*
X92631241Y-146549651D01*
X92635195Y-146549369D01*
X92650001Y-146550828D01*
X92792858Y-146550828D01*
X92807663Y-146549369D01*
X92811618Y-146549651D01*
X92816819Y-146548468D01*
X92822122Y-146547946D01*
X92825779Y-146546430D01*
X92840292Y-146543131D01*
X93054578Y-146471703D01*
X93081429Y-146459715D01*
X93085502Y-146456181D01*
X93090480Y-146454120D01*
X93113211Y-146435465D01*
X93184639Y-146364036D01*
X93203293Y-146341306D01*
X93225690Y-146287233D01*
X93225689Y-146228707D01*
X93203292Y-146174635D01*
X93161906Y-146133250D01*
X93107834Y-146110853D01*
X93049308Y-146110854D01*
X92995236Y-146133251D01*
X92972505Y-146151906D01*
X92926117Y-146198294D01*
X92768515Y-146250828D01*
X92674344Y-146250828D01*
X92516741Y-146198294D01*
X92416136Y-146097688D01*
X92362955Y-145991328D01*
X92300001Y-145739507D01*
X92300001Y-145562148D01*
X92362955Y-145310327D01*
X92416136Y-145203967D01*
X92516742Y-145103361D01*
X92674344Y-145050828D01*
X92768518Y-145050828D01*
X92926116Y-145103361D01*
X92972506Y-145149751D01*
X92995236Y-145168406D01*
X93049309Y-145190802D01*
X93107835Y-145190802D01*
X93161907Y-145168406D01*
X93203293Y-145127020D01*
X93225689Y-145072948D01*
X93225689Y-145014422D01*
X93203293Y-144960349D01*
X93184638Y-144937619D01*
X93147847Y-144900828D01*
X93571429Y-144900828D01*
X93571429Y-146400828D01*
X93574311Y-146430092D01*
X93596709Y-146484164D01*
X93638093Y-146525548D01*
X93692165Y-146547946D01*
X93750693Y-146547946D01*
X93804765Y-146525548D01*
X93846149Y-146484164D01*
X93868547Y-146430092D01*
X93871429Y-146400828D01*
X93871429Y-145820103D01*
X93919485Y-145772046D01*
X94458572Y-146490828D01*
X94478436Y-146512510D01*
X94528798Y-146542329D01*
X94586735Y-146550606D01*
X94643432Y-146536081D01*
X94690254Y-146500964D01*
X94720073Y-146450603D01*
X94728350Y-146392665D01*
X94713825Y-146335969D01*
X94698572Y-146310828D01*
X94133771Y-145557760D01*
X94684638Y-145006894D01*
X94703293Y-144984164D01*
X94725690Y-144930091D01*
X94725690Y-144871565D01*
X94703293Y-144817493D01*
X94661907Y-144776107D01*
X94607835Y-144753710D01*
X94549309Y-144753710D01*
X94495236Y-144776107D01*
X94472506Y-144794762D01*
X93871429Y-145395839D01*
X93871429Y-144900828D01*
X93868547Y-144871564D01*
X93846149Y-144817492D01*
X93804765Y-144776108D01*
X93750693Y-144753710D01*
X93692165Y-144753710D01*
X93638093Y-144776108D01*
X93596709Y-144817492D01*
X93574311Y-144871564D01*
X93571429Y-144900828D01*
X93147847Y-144900828D01*
X93113210Y-144866191D01*
X93090479Y-144847536D01*
X93085499Y-144845473D01*
X93081429Y-144841943D01*
X93054578Y-144829954D01*
X92840292Y-144758526D01*
X92825784Y-144755227D01*
X92822122Y-144753710D01*
X92816813Y-144753187D01*
X92811619Y-144752006D01*
X92807669Y-144752286D01*
X92792858Y-144750828D01*
X92650001Y-144750828D01*
X92635189Y-144752286D01*
X92631240Y-144752006D01*
X92626045Y-144753187D01*
X92620737Y-144753710D01*
X92617075Y-144755226D01*
X92602566Y-144758526D01*
X92388281Y-144829955D01*
X92361430Y-144841943D01*
X92357360Y-144845472D01*
X92352379Y-144847536D01*
X92329649Y-144866191D01*
X92186792Y-145009048D01*
X92177352Y-145020549D01*
X92174359Y-145023146D01*
X92171518Y-145027659D01*
X92168137Y-145031779D01*
X92166621Y-145035438D01*
X92158694Y-145048032D01*
X92087265Y-145190889D01*
X92086445Y-145193029D01*
X92085801Y-145193900D01*
X92081414Y-145206177D01*
X92076756Y-145218352D01*
X92076679Y-145219432D01*
X92075908Y-145221591D01*
X92004480Y-145507305D01*
X92003730Y-145512376D01*
X92002883Y-145514421D01*
X92001797Y-145525443D01*
X92000178Y-145536394D01*
X92000503Y-145538581D01*
X92000001Y-145543685D01*
X91728572Y-145543685D01*
X91728572Y-145400828D01*
X91728069Y-145395724D01*
X91728395Y-145393536D01*
X91726775Y-145382583D01*
X91725690Y-145371564D01*
X91724843Y-145369519D01*
X91724093Y-145364447D01*
X91652664Y-145078733D01*
X91642771Y-145051042D01*
X91636131Y-145042081D01*
X91631864Y-145031778D01*
X91613209Y-145009048D01*
X91470352Y-144866191D01*
X91458850Y-144856751D01*
X91456254Y-144853758D01*
X91451740Y-144850917D01*
X91447621Y-144847536D01*
X91443961Y-144846020D01*
X91431368Y-144838093D01*
X91288511Y-144766664D01*
X91261048Y-144756155D01*
X91255673Y-144755773D01*
X91250693Y-144753710D01*
X91221429Y-144750828D01*
X90935715Y-144750828D01*
X90906451Y-144753710D01*
X90901470Y-144755773D01*
X90896096Y-144756155D01*
X90868632Y-144766664D01*
X90725776Y-144838093D01*
X90713182Y-144846020D01*
X90709523Y-144847536D01*
X90705403Y-144850917D01*
X90700890Y-144853758D01*
X90698293Y-144856752D01*
X90686792Y-144866191D01*
X90543934Y-145009048D01*
X90525279Y-145031778D01*
X90521010Y-145042083D01*
X90514372Y-145051043D01*
X90504479Y-145078734D01*
X90433051Y-145364448D01*
X90432301Y-145369519D01*
X90431454Y-145371564D01*
X90430368Y-145382586D01*
X90428749Y-145393537D01*
X90429074Y-145395724D01*
X90428572Y-145400828D01*
X89585714Y-145400828D01*
X89585714Y-144900828D01*
X89582832Y-144871564D01*
X89560434Y-144817492D01*
X89519050Y-144776108D01*
X89464978Y-144753710D01*
X89406450Y-144753710D01*
X89352378Y-144776108D01*
X89310994Y-144817492D01*
X89288596Y-144871564D01*
X89285714Y-144900828D01*
X88871428Y-144900828D01*
X88868546Y-144871564D01*
X88846148Y-144817492D01*
X88804764Y-144776108D01*
X88750692Y-144753710D01*
X88692164Y-144753710D01*
X88638092Y-144776108D01*
X88596708Y-144817492D01*
X88574310Y-144871564D01*
X88571428Y-144900828D01*
X88571428Y-145835992D01*
X87994521Y-144826407D01*
X87990143Y-144820239D01*
X87989005Y-144817492D01*
X87986205Y-144814692D01*
X87977500Y-144802429D01*
X87961728Y-144790215D01*
X87947621Y-144776108D01*
X87938785Y-144772448D01*
X87931226Y-144766594D01*
X87911981Y-144761345D01*
X87893549Y-144753710D01*
X87883987Y-144753710D01*
X87874762Y-144751194D01*
X87854971Y-144753710D01*
X87835021Y-144753710D01*
X87826187Y-144757369D01*
X87816702Y-144758575D01*
X87799379Y-144768473D01*
X87780949Y-144776108D01*
X87774188Y-144782868D01*
X87765886Y-144787613D01*
X87753672Y-144803384D01*
X87739565Y-144817492D01*
X87735905Y-144826327D01*
X87730051Y-144833887D01*
X87724802Y-144853131D01*
X87717167Y-144871564D01*
X87715693Y-144886530D01*
X87714651Y-144890351D01*
X87715026Y-144893302D01*
X87714285Y-144900828D01*
X87299999Y-144900828D01*
X87297117Y-144871564D01*
X87274719Y-144817492D01*
X87233335Y-144776108D01*
X87179263Y-144753710D01*
X87120735Y-144753710D01*
X87066663Y-144776108D01*
X87025279Y-144817492D01*
X87002881Y-144871564D01*
X86999999Y-144900828D01*
X86999999Y-146079704D01*
X86955292Y-146169117D01*
X86918287Y-146206122D01*
X86828875Y-146250828D01*
X86613981Y-146250828D01*
X86524567Y-146206121D01*
X86487563Y-146169117D01*
X86442856Y-146079703D01*
X86442856Y-144900828D01*
X86439974Y-144871564D01*
X86417576Y-144817492D01*
X86376192Y-144776108D01*
X86322120Y-144753710D01*
X86263592Y-144753710D01*
X86209520Y-144776108D01*
X86168136Y-144817492D01*
X86145738Y-144871564D01*
X86142856Y-144900828D01*
X85976189Y-144900828D01*
X85976189Y-142771626D01*
X86571428Y-142771626D01*
X86571428Y-142914484D01*
X86574310Y-142943748D01*
X86576372Y-142948726D01*
X86576754Y-142954102D01*
X86587264Y-142981566D01*
X86658692Y-143124423D01*
X86666620Y-143137018D01*
X86668136Y-143140677D01*
X86671515Y-143144794D01*
X86674357Y-143149309D01*
X86677351Y-143151905D01*
X86686791Y-143163408D01*
X86758220Y-143234836D01*
X86769720Y-143244274D01*
X86772317Y-143247268D01*
X86776829Y-143250108D01*
X86780950Y-143253490D01*
X86784609Y-143255005D01*
X86797203Y-143262933D01*
X86940059Y-143334362D01*
X86942201Y-143335181D01*
X86943071Y-143335826D01*
X86955342Y-143340210D01*
X86967523Y-143344871D01*
X86968603Y-143344947D01*
X86970762Y-143345719D01*
X87240500Y-143413153D01*
X87346859Y-143466332D01*
X87383863Y-143503337D01*
X87428571Y-143592751D01*
X87428571Y-143664787D01*
X87383863Y-143754201D01*
X87346860Y-143791205D01*
X87257447Y-143835912D01*
X86960057Y-143835912D01*
X86768862Y-143772181D01*
X86740188Y-143765661D01*
X86681808Y-143769811D01*
X86629461Y-143795985D01*
X86591113Y-143840199D01*
X86572605Y-143895724D01*
X86576755Y-143954104D01*
X86602929Y-144006451D01*
X86647143Y-144044799D01*
X86673994Y-144056787D01*
X86888280Y-144128215D01*
X86902792Y-144131514D01*
X86906450Y-144133030D01*
X86911752Y-144133552D01*
X86916954Y-144134735D01*
X86920908Y-144134453D01*
X86935714Y-144135912D01*
X87292856Y-144135912D01*
X87322120Y-144133030D01*
X87327098Y-144130967D01*
X87332474Y-144130586D01*
X87359937Y-144120076D01*
X87502796Y-144048648D01*
X87515390Y-144040719D01*
X87519050Y-144039204D01*
X87523170Y-144035822D01*
X87527681Y-144032983D01*
X87530275Y-144029991D01*
X87541781Y-144020549D01*
X87613209Y-143949120D01*
X87622647Y-143937619D01*
X87625641Y-143935023D01*
X87628481Y-143930510D01*
X87631863Y-143926390D01*
X87633378Y-143922730D01*
X87641306Y-143910137D01*
X87712735Y-143767281D01*
X87723244Y-143739817D01*
X87723625Y-143734442D01*
X87725689Y-143729462D01*
X87728571Y-143700198D01*
X87728571Y-143557341D01*
X87725689Y-143528077D01*
X87723625Y-143523096D01*
X87723244Y-143517722D01*
X87712735Y-143490258D01*
X87641306Y-143347402D01*
X87633378Y-143334808D01*
X87631863Y-143331149D01*
X87628481Y-143327028D01*
X87625641Y-143322516D01*
X87622647Y-143319919D01*
X87613209Y-143308419D01*
X87541781Y-143236990D01*
X87530278Y-143227550D01*
X87527682Y-143224556D01*
X87523167Y-143221714D01*
X87519050Y-143218335D01*
X87515391Y-143216819D01*
X87502796Y-143208891D01*
X87359938Y-143137462D01*
X87357797Y-143136642D01*
X87356927Y-143135998D01*
X87344671Y-143131619D01*
X87332475Y-143126952D01*
X87331391Y-143126875D01*
X87329236Y-143126105D01*
X87059498Y-143058670D01*
X86953138Y-143005490D01*
X86916133Y-142968485D01*
X86871428Y-142879074D01*
X86871428Y-142807035D01*
X86916133Y-142717624D01*
X86953138Y-142680619D01*
X87042552Y-142635912D01*
X87339945Y-142635912D01*
X87531136Y-142699643D01*
X87559810Y-142706163D01*
X87618190Y-142702014D01*
X87670537Y-142675840D01*
X87708885Y-142631626D01*
X87727393Y-142576102D01*
X87723244Y-142517722D01*
X87697070Y-142465374D01*
X87687009Y-142456648D01*
X87860024Y-142456648D01*
X87860024Y-142515176D01*
X87882422Y-142569248D01*
X87923806Y-142610632D01*
X87977878Y-142633030D01*
X88007142Y-142635912D01*
X88285713Y-142635912D01*
X88285713Y-143985912D01*
X88288595Y-144015176D01*
X88310993Y-144069248D01*
X88352377Y-144110632D01*
X88406449Y-144133030D01*
X88464977Y-144133030D01*
X88519049Y-144110632D01*
X88560433Y-144069248D01*
X88582831Y-144015176D01*
X88585713Y-143985912D01*
X88585713Y-142635912D01*
X88864285Y-142635912D01*
X88893549Y-142633030D01*
X88947621Y-142610632D01*
X88989005Y-142569248D01*
X89011403Y-142515176D01*
X89011403Y-142485912D01*
X89214284Y-142485912D01*
X89214284Y-143700198D01*
X89217166Y-143729462D01*
X89219229Y-143734442D01*
X89219611Y-143739817D01*
X89230120Y-143767280D01*
X89301549Y-143910137D01*
X89309476Y-143922730D01*
X89310992Y-143926390D01*
X89314373Y-143930509D01*
X89317214Y-143935023D01*
X89320207Y-143937619D01*
X89329647Y-143949121D01*
X89401076Y-144020550D01*
X89412580Y-144029991D01*
X89415175Y-144032983D01*
X89419684Y-144035821D01*
X89423807Y-144039205D01*
X89427468Y-144040721D01*
X89440060Y-144048648D01*
X89582918Y-144120076D01*
X89610381Y-144130586D01*
X89615756Y-144130967D01*
X89620735Y-144133030D01*
X89649999Y-144135912D01*
X89935713Y-144135912D01*
X89964977Y-144133030D01*
X89969955Y-144130967D01*
X89975331Y-144130586D01*
X90002795Y-144120076D01*
X90145652Y-144048648D01*
X90158245Y-144040720D01*
X90161905Y-144039205D01*
X90166024Y-144035823D01*
X90170538Y-144032983D01*
X90173134Y-144029989D01*
X90184636Y-144020550D01*
X90256065Y-143949121D01*
X90265506Y-143937616D01*
X90268498Y-143935022D01*
X90271336Y-143930512D01*
X90274720Y-143926390D01*
X90276236Y-143922728D01*
X90284163Y-143910137D01*
X90355591Y-143767279D01*
X90366101Y-143739816D01*
X90366482Y-143734440D01*
X90368545Y-143729462D01*
X90371427Y-143700198D01*
X90371427Y-142485912D01*
X90785713Y-142485912D01*
X90785713Y-143985912D01*
X90788595Y-144015176D01*
X90810993Y-144069248D01*
X90852377Y-144110632D01*
X90906449Y-144133030D01*
X90935713Y-144135912D01*
X91292856Y-144135912D01*
X91307661Y-144134453D01*
X91311616Y-144134735D01*
X91316817Y-144133552D01*
X91322120Y-144133030D01*
X91325777Y-144131514D01*
X91340290Y-144128215D01*
X91554576Y-144056787D01*
X91581427Y-144044799D01*
X91585498Y-144041267D01*
X91590478Y-144039205D01*
X91613208Y-144020550D01*
X91756065Y-143877692D01*
X91765503Y-143866190D01*
X91768498Y-143863594D01*
X91771338Y-143859080D01*
X91774720Y-143854961D01*
X91776235Y-143851301D01*
X91784163Y-143838708D01*
X91855592Y-143695852D01*
X91856411Y-143693709D01*
X91857056Y-143692840D01*
X91861440Y-143680568D01*
X91866101Y-143668388D01*
X91866177Y-143667307D01*
X91866949Y-143665149D01*
X91938377Y-143379435D01*
X91939126Y-143374363D01*
X91939974Y-143372319D01*
X91941059Y-143361296D01*
X91942679Y-143350346D01*
X91942353Y-143348158D01*
X91942856Y-143343055D01*
X91942856Y-143128769D01*
X91942353Y-143123665D01*
X91942679Y-143121478D01*
X91941059Y-143110527D01*
X91939974Y-143099505D01*
X91939126Y-143097460D01*
X91938377Y-143092389D01*
X91866949Y-142806675D01*
X91866177Y-142804516D01*
X91866101Y-142803436D01*
X91861440Y-142791255D01*
X91857056Y-142778984D01*
X91856411Y-142778114D01*
X91855592Y-142775972D01*
X91784163Y-142633116D01*
X91776236Y-142620524D01*
X91774720Y-142616862D01*
X91771336Y-142612739D01*
X91768498Y-142608230D01*
X91765505Y-142605634D01*
X91756065Y-142594132D01*
X91647845Y-142485912D01*
X92285713Y-142485912D01*
X92285713Y-143985912D01*
X92288595Y-144015176D01*
X92310993Y-144069248D01*
X92352377Y-144110632D01*
X92406449Y-144133030D01*
X92464977Y-144133030D01*
X92519049Y-144110632D01*
X92560433Y-144069248D01*
X92582831Y-144015176D01*
X92585713Y-143985912D01*
X92585713Y-142985912D01*
X92928571Y-142985912D01*
X92928571Y-143485912D01*
X92929073Y-143491015D01*
X92928748Y-143493203D01*
X92930367Y-143504153D01*
X92931453Y-143515176D01*
X92932300Y-143517220D01*
X92933050Y-143522292D01*
X93004478Y-143808006D01*
X93014371Y-143835697D01*
X93021010Y-143844657D01*
X93025278Y-143854961D01*
X93043933Y-143877692D01*
X93186791Y-144020550D01*
X93198295Y-144029991D01*
X93200890Y-144032983D01*
X93205399Y-144035821D01*
X93209522Y-144039205D01*
X93213183Y-144040721D01*
X93225775Y-144048648D01*
X93368633Y-144120076D01*
X93396096Y-144130586D01*
X93401471Y-144130967D01*
X93406450Y-144133030D01*
X93435714Y-144135912D01*
X93721428Y-144135912D01*
X93750692Y-144133030D01*
X93755670Y-144130967D01*
X93761046Y-144130586D01*
X93788510Y-144120076D01*
X93931367Y-144048648D01*
X93943958Y-144040721D01*
X93947621Y-144039205D01*
X93951743Y-144035821D01*
X93956253Y-144032983D01*
X93958848Y-144029990D01*
X93970351Y-144020550D01*
X94113208Y-143877692D01*
X94131863Y-143854961D01*
X94136129Y-143844659D01*
X94142770Y-143835698D01*
X94152663Y-143808007D01*
X94224092Y-143522293D01*
X94224842Y-143517220D01*
X94225689Y-143515176D01*
X94226774Y-143504156D01*
X94228394Y-143493204D01*
X94228068Y-143491015D01*
X94228571Y-143485912D01*
X94228571Y-142985912D01*
X94228068Y-142980808D01*
X94228394Y-142978620D01*
X94226774Y-142967667D01*
X94225689Y-142956648D01*
X94224842Y-142954603D01*
X94224092Y-142949531D01*
X94152663Y-142663817D01*
X94142770Y-142636126D01*
X94136130Y-142627165D01*
X94131863Y-142616862D01*
X94113208Y-142594132D01*
X93970351Y-142451275D01*
X93958849Y-142441835D01*
X93956253Y-142438842D01*
X93951739Y-142436001D01*
X93947620Y-142432620D01*
X93943960Y-142431104D01*
X93931367Y-142423177D01*
X93788510Y-142351748D01*
X93761047Y-142341239D01*
X93755672Y-142340857D01*
X93750692Y-142338794D01*
X93721428Y-142335912D01*
X93435714Y-142335912D01*
X93406450Y-142338794D01*
X93401469Y-142340857D01*
X93396095Y-142341239D01*
X93368631Y-142351748D01*
X93225775Y-142423177D01*
X93213181Y-142431104D01*
X93209522Y-142432620D01*
X93205402Y-142436001D01*
X93200889Y-142438842D01*
X93198292Y-142441836D01*
X93186791Y-142451275D01*
X93043933Y-142594132D01*
X93025278Y-142616862D01*
X93021009Y-142627167D01*
X93014371Y-142636127D01*
X93004478Y-142663818D01*
X92933050Y-142949532D01*
X92932300Y-142954603D01*
X92931453Y-142956648D01*
X92930367Y-142967670D01*
X92928748Y-142978621D01*
X92929073Y-142980808D01*
X92928571Y-142985912D01*
X92585713Y-142985912D01*
X92585713Y-142485912D01*
X92582831Y-142456648D01*
X92560433Y-142402576D01*
X92519049Y-142361192D01*
X92464977Y-142338794D01*
X92406449Y-142338794D01*
X92352377Y-142361192D01*
X92310993Y-142402576D01*
X92288595Y-142456648D01*
X92285713Y-142485912D01*
X91647845Y-142485912D01*
X91613208Y-142451275D01*
X91590477Y-142432620D01*
X91585497Y-142430557D01*
X91581427Y-142427027D01*
X91554576Y-142415038D01*
X91340290Y-142343610D01*
X91325782Y-142340311D01*
X91322120Y-142338794D01*
X91316811Y-142338271D01*
X91311617Y-142337090D01*
X91307667Y-142337370D01*
X91292856Y-142335912D01*
X90935713Y-142335912D01*
X90906449Y-142338794D01*
X90852377Y-142361192D01*
X90810993Y-142402576D01*
X90788595Y-142456648D01*
X90785713Y-142485912D01*
X90371427Y-142485912D01*
X90368545Y-142456648D01*
X90346147Y-142402576D01*
X90304763Y-142361192D01*
X90250691Y-142338794D01*
X90192163Y-142338794D01*
X90138091Y-142361192D01*
X90096707Y-142402576D01*
X90074309Y-142456648D01*
X90071427Y-142485912D01*
X90071427Y-143664788D01*
X90026720Y-143754201D01*
X89989715Y-143791206D01*
X89900303Y-143835912D01*
X89685409Y-143835912D01*
X89595995Y-143791205D01*
X89558991Y-143754201D01*
X89514284Y-143664787D01*
X89514284Y-142485912D01*
X89511402Y-142456648D01*
X89489004Y-142402576D01*
X89447620Y-142361192D01*
X89393548Y-142338794D01*
X89335020Y-142338794D01*
X89280948Y-142361192D01*
X89239564Y-142402576D01*
X89217166Y-142456648D01*
X89214284Y-142485912D01*
X89011403Y-142485912D01*
X89011403Y-142456648D01*
X88989005Y-142402576D01*
X88947621Y-142361192D01*
X88893549Y-142338794D01*
X88864285Y-142335912D01*
X88007142Y-142335912D01*
X87977878Y-142338794D01*
X87923806Y-142361192D01*
X87882422Y-142402576D01*
X87860024Y-142456648D01*
X87687009Y-142456648D01*
X87652856Y-142427027D01*
X87626005Y-142415038D01*
X87411719Y-142343610D01*
X87397211Y-142340311D01*
X87393549Y-142338794D01*
X87388240Y-142338271D01*
X87383046Y-142337090D01*
X87379096Y-142337370D01*
X87364285Y-142335912D01*
X87007142Y-142335912D01*
X86977878Y-142338794D01*
X86972897Y-142340857D01*
X86967523Y-142341239D01*
X86940059Y-142351748D01*
X86797203Y-142423177D01*
X86784609Y-142431104D01*
X86780950Y-142432620D01*
X86776829Y-142436001D01*
X86772317Y-142438842D01*
X86769720Y-142441835D01*
X86758220Y-142451274D01*
X86686791Y-142522702D01*
X86677351Y-142534204D01*
X86674357Y-142536801D01*
X86671515Y-142541315D01*
X86668136Y-142545433D01*
X86666620Y-142549091D01*
X86658692Y-142561687D01*
X86587264Y-142704544D01*
X86576754Y-142732008D01*
X86576372Y-142737383D01*
X86574310Y-142742362D01*
X86571428Y-142771626D01*
X85976189Y-142771626D01*
X85976189Y-141571154D01*
X88142857Y-141571154D01*
X88145739Y-141585563D01*
X88145739Y-141600260D01*
X88151422Y-141613980D01*
X88154335Y-141628543D01*
X88162513Y-141640755D01*
X88168137Y-141654332D01*
X88178635Y-141664830D01*
X88186901Y-141677173D01*
X88199131Y-141685326D01*
X88209521Y-141695716D01*
X88223242Y-141701399D01*
X88235600Y-141709638D01*
X88250014Y-141712489D01*
X88263593Y-141718114D01*
X88292857Y-141720996D01*
X88293015Y-141720996D01*
X89292857Y-141720996D01*
X89322121Y-141718114D01*
X89376193Y-141695716D01*
X89417577Y-141654332D01*
X89439975Y-141600260D01*
X89439975Y-141541732D01*
X89417577Y-141487660D01*
X89376193Y-141446276D01*
X89322121Y-141423878D01*
X89292857Y-141420996D01*
X88573135Y-141420996D01*
X89417665Y-140154201D01*
X89431500Y-140128253D01*
X89434352Y-140113834D01*
X89439975Y-140100260D01*
X89439975Y-140085407D01*
X89442826Y-140070996D01*
X89714285Y-140070996D01*
X89714285Y-141570996D01*
X89717167Y-141600260D01*
X89739565Y-141654332D01*
X89780949Y-141695716D01*
X89835021Y-141718114D01*
X89893549Y-141718114D01*
X89947621Y-141695716D01*
X89989005Y-141654332D01*
X90011403Y-141600260D01*
X90014285Y-141570996D01*
X90014285Y-140747129D01*
X90228358Y-141205858D01*
X90234704Y-141216571D01*
X90236025Y-141220203D01*
X90238376Y-141222771D01*
X90243345Y-141231158D01*
X90260150Y-141246548D01*
X90275552Y-141263366D01*
X90281595Y-141266186D01*
X90286508Y-141270685D01*
X90307928Y-141278474D01*
X90328590Y-141288116D01*
X90335247Y-141288408D01*
X90341510Y-141290686D01*
X90364289Y-141289685D01*
X90387060Y-141290686D01*
X90393319Y-141288409D01*
X90399981Y-141288117D01*
X90420648Y-141278472D01*
X90442063Y-141270685D01*
X90446976Y-141266185D01*
X90453018Y-141263366D01*
X90468413Y-141246553D01*
X90485226Y-141231158D01*
X90490194Y-141222769D01*
X90492545Y-141220203D01*
X90493864Y-141216573D01*
X90500212Y-141205858D01*
X90714285Y-140747130D01*
X90714285Y-141570996D01*
X90717167Y-141600260D01*
X90739565Y-141654332D01*
X90780949Y-141695716D01*
X90835021Y-141718114D01*
X90893549Y-141718114D01*
X90947621Y-141695716D01*
X90989005Y-141654332D01*
X91011403Y-141600260D01*
X91014285Y-141570996D01*
X91014285Y-140070996D01*
X91428571Y-140070996D01*
X91428571Y-141570996D01*
X91431453Y-141600260D01*
X91453851Y-141654332D01*
X91495235Y-141695716D01*
X91549307Y-141718114D01*
X91607835Y-141718114D01*
X91661907Y-141695716D01*
X91703291Y-141654332D01*
X91725689Y-141600260D01*
X91728571Y-141570996D01*
X91728571Y-140990271D01*
X91776627Y-140942214D01*
X92315714Y-141660996D01*
X92335578Y-141682678D01*
X92385940Y-141712497D01*
X92443877Y-141720774D01*
X92500574Y-141706249D01*
X92547396Y-141671132D01*
X92577215Y-141620771D01*
X92585492Y-141562833D01*
X92570967Y-141506137D01*
X92555714Y-141480996D01*
X91990913Y-140727928D01*
X92541780Y-140177062D01*
X92560435Y-140154332D01*
X92582832Y-140100259D01*
X92582832Y-140041733D01*
X92560435Y-139987661D01*
X92519049Y-139946275D01*
X92464977Y-139923878D01*
X92406451Y-139923878D01*
X92352378Y-139946275D01*
X92329648Y-139964930D01*
X91728571Y-140566007D01*
X91728571Y-140070996D01*
X91725689Y-140041732D01*
X91703291Y-139987660D01*
X91661907Y-139946276D01*
X91607835Y-139923878D01*
X91549307Y-139923878D01*
X91495235Y-139946276D01*
X91453851Y-139987660D01*
X91431453Y-140041732D01*
X91428571Y-140070996D01*
X91014285Y-140070996D01*
X91012390Y-140051758D01*
X91012546Y-140048220D01*
X91011854Y-140046319D01*
X91011403Y-140041732D01*
X91001442Y-140017686D01*
X90992545Y-139993218D01*
X90990285Y-139990750D01*
X90989005Y-139987660D01*
X90970607Y-139969262D01*
X90953018Y-139950055D01*
X90949984Y-139948639D01*
X90947621Y-139946276D01*
X90923590Y-139936322D01*
X90899981Y-139925304D01*
X90896636Y-139925157D01*
X90893549Y-139923878D01*
X90867525Y-139923878D01*
X90841510Y-139922735D01*
X90838367Y-139923878D01*
X90835021Y-139923878D01*
X90810968Y-139933841D01*
X90786508Y-139942736D01*
X90784040Y-139944995D01*
X90780949Y-139946276D01*
X90762540Y-139964684D01*
X90743345Y-139982263D01*
X90740995Y-139986229D01*
X90739565Y-139987660D01*
X90738209Y-139990932D01*
X90728358Y-140007563D01*
X90364285Y-140787719D01*
X90000212Y-140007563D01*
X89990358Y-139990928D01*
X89989005Y-139987660D01*
X89987576Y-139986231D01*
X89985226Y-139982263D01*
X89966018Y-139964673D01*
X89947621Y-139946276D01*
X89944530Y-139944995D01*
X89942063Y-139942736D01*
X89917597Y-139933839D01*
X89893549Y-139923878D01*
X89890203Y-139923878D01*
X89887060Y-139922735D01*
X89861056Y-139923878D01*
X89835021Y-139923878D01*
X89831930Y-139925158D01*
X89828590Y-139925305D01*
X89804994Y-139936315D01*
X89780949Y-139946276D01*
X89778585Y-139948639D01*
X89775552Y-139950055D01*
X89757962Y-139969262D01*
X89739565Y-139987660D01*
X89738284Y-139990750D01*
X89736025Y-139993218D01*
X89727128Y-140017683D01*
X89717167Y-140041732D01*
X89716715Y-140046320D01*
X89716024Y-140048221D01*
X89716179Y-140051759D01*
X89714285Y-140070996D01*
X89442826Y-140070996D01*
X89442857Y-140070838D01*
X89439975Y-140056428D01*
X89439975Y-140041732D01*
X89434291Y-140028011D01*
X89431379Y-140013449D01*
X89423200Y-140001236D01*
X89417577Y-139987660D01*
X89407078Y-139977161D01*
X89398813Y-139964819D01*
X89386582Y-139956665D01*
X89376193Y-139946276D01*
X89362474Y-139940593D01*
X89350114Y-139932353D01*
X89335695Y-139929500D01*
X89322121Y-139923878D01*
X89292857Y-139920996D01*
X88292857Y-139920996D01*
X88263593Y-139923878D01*
X88209521Y-139946276D01*
X88168137Y-139987660D01*
X88145739Y-140041732D01*
X88145739Y-140100260D01*
X88168137Y-140154332D01*
X88209521Y-140195716D01*
X88263593Y-140218114D01*
X88292857Y-140220996D01*
X89012580Y-140220996D01*
X88168049Y-141487791D01*
X88154215Y-141513739D01*
X88151363Y-141528153D01*
X88145739Y-141541732D01*
X88145739Y-141556585D01*
X88142857Y-141571154D01*
X85976189Y-141571154D01*
X85976189Y-139754329D01*
X94895017Y-139754329D01*
X94895017Y-146717495D01*
G37*
D11*
G36*
X94589648Y-92932184D02*
G01*
X94638128Y-92980664D01*
X94691742Y-93087891D01*
X94691742Y-93535714D01*
X94106028Y-93535714D01*
X94106028Y-93087893D01*
X94159644Y-92980661D01*
X94208120Y-92932184D01*
X94315349Y-92878571D01*
X94482421Y-92878571D01*
X94589648Y-92932184D01*
G37*
G36*
X92562541Y-88318399D02*
G01*
X91907339Y-88099999D01*
X92562541Y-87881598D01*
X92562541Y-88318399D01*
G37*
G36*
X92699062Y-84837206D02*
G01*
X92817592Y-84896471D01*
X92932281Y-85011160D01*
X92991112Y-85187653D01*
X92991112Y-85428571D01*
X91691112Y-85428571D01*
X91691112Y-85187655D01*
X91749943Y-85011161D01*
X91864632Y-84896471D01*
X91983160Y-84837206D01*
X92246278Y-84771428D01*
X92435946Y-84771428D01*
X92699062Y-84837206D01*
G37*
G36*
X95772695Y-93902381D02*
G01*
X91324445Y-93902381D01*
X91324445Y-93064285D01*
X93906028Y-93064285D01*
X93906028Y-93635714D01*
X93907949Y-93655223D01*
X93922881Y-93691271D01*
X93950471Y-93718861D01*
X93986519Y-93733793D01*
X94006028Y-93735714D01*
X95506028Y-93735714D01*
X95525537Y-93733793D01*
X95561585Y-93718861D01*
X95589175Y-93691271D01*
X95604107Y-93655223D01*
X95604107Y-93616205D01*
X95589175Y-93580157D01*
X95561585Y-93552567D01*
X95525537Y-93537635D01*
X95506028Y-93535714D01*
X94891742Y-93535714D01*
X94891742Y-93330636D01*
X95563374Y-92860494D01*
X95578255Y-92847733D01*
X95599224Y-92814828D01*
X95606004Y-92776403D01*
X95597565Y-92738309D01*
X95575190Y-92706344D01*
X95542285Y-92685375D01*
X95503860Y-92678595D01*
X95465766Y-92687034D01*
X95448682Y-92696648D01*
X94891742Y-93086505D01*
X94891742Y-93064285D01*
X94889821Y-93044776D01*
X94888445Y-93041455D01*
X94888191Y-93037873D01*
X94881185Y-93019564D01*
X94809757Y-92876707D01*
X94804471Y-92868310D01*
X94803461Y-92865871D01*
X94801207Y-92863124D01*
X94799314Y-92860117D01*
X94797319Y-92858387D01*
X94791025Y-92850717D01*
X94719596Y-92779288D01*
X94711929Y-92772996D01*
X94710197Y-92770999D01*
X94707185Y-92769103D01*
X94704442Y-92766852D01*
X94702004Y-92765842D01*
X94693606Y-92760556D01*
X94550749Y-92689128D01*
X94532441Y-92682122D01*
X94528857Y-92681867D01*
X94525537Y-92680492D01*
X94506028Y-92678571D01*
X94291742Y-92678571D01*
X94272233Y-92680492D01*
X94268912Y-92681867D01*
X94265330Y-92682122D01*
X94247021Y-92689128D01*
X94104164Y-92760556D01*
X94095768Y-92765840D01*
X94093327Y-92766852D01*
X94090579Y-92769107D01*
X94087574Y-92770999D01*
X94085843Y-92772993D01*
X94078174Y-92779289D01*
X94006746Y-92850718D01*
X94000453Y-92858384D01*
X93998457Y-92860116D01*
X93996563Y-92863123D01*
X93994309Y-92865871D01*
X93993297Y-92868312D01*
X93988014Y-92876707D01*
X93916585Y-93019563D01*
X93909579Y-93037872D01*
X93909324Y-93041455D01*
X93907949Y-93044776D01*
X93906028Y-93064285D01*
X91324445Y-93064285D01*
X91324445Y-92116205D01*
X93907949Y-92116205D01*
X93907949Y-92155223D01*
X93922881Y-92191271D01*
X93950471Y-92218861D01*
X93986519Y-92233793D01*
X94006028Y-92235714D01*
X95506028Y-92235714D01*
X95525537Y-92233793D01*
X95561585Y-92218861D01*
X95589175Y-92191271D01*
X95604107Y-92155223D01*
X95604107Y-92116205D01*
X95589175Y-92080157D01*
X95561585Y-92052567D01*
X95525537Y-92037635D01*
X95506028Y-92035714D01*
X94006028Y-92035714D01*
X93986519Y-92037635D01*
X93950471Y-92052567D01*
X93922881Y-92080157D01*
X93907949Y-92116205D01*
X91324445Y-92116205D01*
X91324445Y-90778571D01*
X93906028Y-90778571D01*
X93906028Y-90992856D01*
X93907000Y-91002729D01*
X93906813Y-91005364D01*
X93907600Y-91008827D01*
X93907949Y-91012365D01*
X93908960Y-91014806D01*
X93911160Y-91024479D01*
X93982589Y-91238765D01*
X93990580Y-91256665D01*
X93992935Y-91259380D01*
X93994310Y-91262699D01*
X94006746Y-91277853D01*
X94149603Y-91420709D01*
X94157269Y-91427001D01*
X94159002Y-91428999D01*
X94162011Y-91430893D01*
X94164756Y-91433146D01*
X94167194Y-91434156D01*
X94175592Y-91439442D01*
X94318449Y-91510871D01*
X94319877Y-91511417D01*
X94320457Y-91511847D01*
X94328627Y-91514765D01*
X94336758Y-91517877D01*
X94337480Y-91517928D01*
X94338918Y-91518442D01*
X94624631Y-91589870D01*
X94628012Y-91590370D01*
X94629376Y-91590935D01*
X94636726Y-91591658D01*
X94644024Y-91592738D01*
X94645482Y-91592520D01*
X94648885Y-91592856D01*
X94863171Y-91592856D01*
X94866573Y-91592520D01*
X94868032Y-91592738D01*
X94875328Y-91591658D01*
X94882680Y-91590935D01*
X94884044Y-91590369D01*
X94887424Y-91589870D01*
X95173138Y-91518442D01*
X95174575Y-91517928D01*
X95175298Y-91517877D01*
X95183428Y-91514765D01*
X95191599Y-91511847D01*
X95192178Y-91511417D01*
X95193607Y-91510871D01*
X95336463Y-91439442D01*
X95344861Y-91434155D01*
X95347299Y-91433146D01*
X95350041Y-91430894D01*
X95353054Y-91428999D01*
X95354787Y-91427000D01*
X95362452Y-91420710D01*
X95505310Y-91277853D01*
X95517747Y-91262700D01*
X95519121Y-91259380D01*
X95521477Y-91256665D01*
X95529468Y-91238765D01*
X95600896Y-91024479D01*
X95603095Y-91014807D01*
X95604107Y-91012365D01*
X95604455Y-91008826D01*
X95605243Y-91005363D01*
X95605055Y-91002729D01*
X95606028Y-90992856D01*
X95606028Y-90849999D01*
X95605055Y-90840125D01*
X95605243Y-90837492D01*
X95604455Y-90834028D01*
X95604107Y-90830490D01*
X95603095Y-90828047D01*
X95600896Y-90818376D01*
X95529468Y-90604090D01*
X95521477Y-90586190D01*
X95519122Y-90583474D01*
X95517747Y-90580155D01*
X95505310Y-90565002D01*
X95433881Y-90493574D01*
X95418728Y-90481137D01*
X95393237Y-90470579D01*
X95382680Y-90466206D01*
X95363171Y-90464285D01*
X94863171Y-90464285D01*
X94843662Y-90466206D01*
X94807614Y-90481138D01*
X94780024Y-90508728D01*
X94765092Y-90544776D01*
X94763171Y-90564285D01*
X94763171Y-90849999D01*
X94765092Y-90869508D01*
X94780024Y-90905556D01*
X94807614Y-90933146D01*
X94843662Y-90948078D01*
X94882680Y-90948078D01*
X94918728Y-90933146D01*
X94946318Y-90905556D01*
X94961250Y-90869508D01*
X94963171Y-90849999D01*
X94963171Y-90664285D01*
X95321750Y-90664285D01*
X95347197Y-90689731D01*
X95406028Y-90866224D01*
X95406028Y-90976630D01*
X95347197Y-91153123D01*
X95232508Y-91267812D01*
X95113978Y-91327077D01*
X94850862Y-91392856D01*
X94661194Y-91392856D01*
X94398076Y-91327077D01*
X94279548Y-91267812D01*
X94164859Y-91153122D01*
X94106028Y-90976628D01*
X94106028Y-90802178D01*
X94166900Y-90680434D01*
X94173906Y-90662126D01*
X94176672Y-90623206D01*
X94164333Y-90586190D01*
X94138769Y-90556713D01*
X94103870Y-90539264D01*
X94064950Y-90536498D01*
X94027934Y-90548837D01*
X93998457Y-90574401D01*
X93988014Y-90590992D01*
X93916585Y-90733850D01*
X93909579Y-90752158D01*
X93909324Y-90755741D01*
X93907949Y-90759062D01*
X93906028Y-90778571D01*
X91324445Y-90778571D01*
X91324445Y-89080491D01*
X91493033Y-89080491D01*
X91493033Y-89119509D01*
X91507965Y-89155557D01*
X91535555Y-89183147D01*
X91571603Y-89198079D01*
X91591112Y-89200000D01*
X92205398Y-89200000D01*
X92205398Y-89857143D01*
X91591112Y-89857143D01*
X91571603Y-89859064D01*
X91535555Y-89873996D01*
X91507965Y-89901586D01*
X91493033Y-89937634D01*
X91493033Y-89976652D01*
X91507965Y-90012700D01*
X91535555Y-90040290D01*
X91571603Y-90055222D01*
X91591112Y-90057143D01*
X93091112Y-90057143D01*
X93110621Y-90055222D01*
X93146669Y-90040290D01*
X93174259Y-90012700D01*
X93189191Y-89976652D01*
X93189191Y-89937634D01*
X93174259Y-89901586D01*
X93146669Y-89873996D01*
X93110621Y-89859064D01*
X93091112Y-89857143D01*
X92405398Y-89857143D01*
X92405398Y-89200000D01*
X93091112Y-89200000D01*
X93110621Y-89198079D01*
X93146669Y-89183147D01*
X93174259Y-89155557D01*
X93189191Y-89119509D01*
X93189191Y-89080491D01*
X93174397Y-89044776D01*
X93907949Y-89044776D01*
X93907949Y-89083794D01*
X93922881Y-89119842D01*
X93950471Y-89147432D01*
X93986519Y-89162364D01*
X94006028Y-89164285D01*
X94620314Y-89164285D01*
X94620314Y-89821428D01*
X94006028Y-89821428D01*
X93986519Y-89823349D01*
X93950471Y-89838281D01*
X93922881Y-89865871D01*
X93907949Y-89901919D01*
X93907949Y-89940937D01*
X93922881Y-89976985D01*
X93950471Y-90004575D01*
X93986519Y-90019507D01*
X94006028Y-90021428D01*
X95506028Y-90021428D01*
X95525537Y-90019507D01*
X95561585Y-90004575D01*
X95589175Y-89976985D01*
X95604107Y-89940937D01*
X95604107Y-89901919D01*
X95589175Y-89865871D01*
X95561585Y-89838281D01*
X95525537Y-89823349D01*
X95506028Y-89821428D01*
X94820314Y-89821428D01*
X94820314Y-89164285D01*
X95506028Y-89164285D01*
X95525537Y-89162364D01*
X95561585Y-89147432D01*
X95589175Y-89119842D01*
X95604107Y-89083794D01*
X95604107Y-89044776D01*
X95589175Y-89008728D01*
X95561585Y-88981138D01*
X95525537Y-88966206D01*
X95506028Y-88964285D01*
X94006028Y-88964285D01*
X93986519Y-88966206D01*
X93950471Y-88981138D01*
X93922881Y-89008728D01*
X93907949Y-89044776D01*
X93174397Y-89044776D01*
X93174259Y-89044443D01*
X93146669Y-89016853D01*
X93110621Y-89001921D01*
X93091112Y-89000000D01*
X91591112Y-89000000D01*
X91571603Y-89001921D01*
X91535555Y-89016853D01*
X91507965Y-89044443D01*
X91493033Y-89080491D01*
X91324445Y-89080491D01*
X91324445Y-88087492D01*
X91491897Y-88087492D01*
X91492785Y-88099999D01*
X91491897Y-88112506D01*
X91494156Y-88119284D01*
X91494663Y-88126412D01*
X91500269Y-88137624D01*
X91504235Y-88149522D01*
X91508918Y-88154921D01*
X91512113Y-88161311D01*
X91521584Y-88169526D01*
X91529800Y-88178998D01*
X91536189Y-88182192D01*
X91541589Y-88186876D01*
X91559489Y-88194867D01*
X93059489Y-88694867D01*
X93078605Y-88699214D01*
X93117525Y-88696448D01*
X93152424Y-88678998D01*
X93177989Y-88649522D01*
X93190327Y-88612506D01*
X93187561Y-88573586D01*
X93170112Y-88538688D01*
X93140635Y-88513122D01*
X93122735Y-88505131D01*
X92762541Y-88385066D01*
X92762541Y-87814931D01*
X93085910Y-87707142D01*
X93906028Y-87707142D01*
X93906028Y-88564284D01*
X93907949Y-88583793D01*
X93922881Y-88619841D01*
X93950471Y-88647431D01*
X93986519Y-88662363D01*
X94025537Y-88662363D01*
X94061585Y-88647431D01*
X94089175Y-88619841D01*
X94104107Y-88583793D01*
X94106028Y-88564284D01*
X94106028Y-88235713D01*
X95506028Y-88235713D01*
X95525537Y-88233792D01*
X95561585Y-88218860D01*
X95589175Y-88191270D01*
X95604107Y-88155222D01*
X95604107Y-88116204D01*
X95589175Y-88080156D01*
X95561585Y-88052566D01*
X95525537Y-88037634D01*
X95506028Y-88035713D01*
X94106028Y-88035713D01*
X94106028Y-87707142D01*
X94104107Y-87687633D01*
X94089175Y-87651585D01*
X94061585Y-87623995D01*
X94025537Y-87609063D01*
X93986519Y-87609063D01*
X93950471Y-87623995D01*
X93922881Y-87651585D01*
X93907949Y-87687633D01*
X93906028Y-87707142D01*
X93085910Y-87707142D01*
X93122735Y-87694867D01*
X93140635Y-87686876D01*
X93170112Y-87661310D01*
X93187561Y-87626412D01*
X93190327Y-87587492D01*
X93177989Y-87550476D01*
X93152424Y-87521000D01*
X93117525Y-87503550D01*
X93078605Y-87500784D01*
X93059489Y-87505131D01*
X91559489Y-88005131D01*
X91541589Y-88013122D01*
X91536189Y-88017805D01*
X91529800Y-88021000D01*
X91521584Y-88030471D01*
X91512113Y-88038687D01*
X91508918Y-88045076D01*
X91504235Y-88050476D01*
X91500269Y-88062373D01*
X91494663Y-88073586D01*
X91494156Y-88080713D01*
X91491897Y-88087492D01*
X91324445Y-88087492D01*
X91324445Y-87093015D01*
X91491356Y-87093015D01*
X91493033Y-87106208D01*
X91493033Y-87119509D01*
X91495472Y-87125397D01*
X91496276Y-87131722D01*
X91502876Y-87143271D01*
X91507965Y-87155557D01*
X91512472Y-87160064D01*
X91515635Y-87165599D01*
X91526149Y-87173741D01*
X91535555Y-87183147D01*
X91541445Y-87185586D01*
X91546484Y-87189489D01*
X91559312Y-87192987D01*
X91571603Y-87198079D01*
X91581580Y-87199061D01*
X91584127Y-87199756D01*
X91586094Y-87199505D01*
X91591112Y-87200000D01*
X93091112Y-87200000D01*
X93110621Y-87198079D01*
X93146669Y-87183147D01*
X93174259Y-87155557D01*
X93189191Y-87119509D01*
X93189191Y-87080491D01*
X93174259Y-87044443D01*
X93146669Y-87016853D01*
X93110621Y-87001921D01*
X93091112Y-87000000D01*
X91967668Y-87000000D01*
X93140726Y-86329681D01*
X93144837Y-86326762D01*
X93146669Y-86326004D01*
X93148534Y-86324138D01*
X93156712Y-86318334D01*
X93164858Y-86307814D01*
X93174259Y-86298414D01*
X93176697Y-86292526D01*
X93180602Y-86287485D01*
X93184101Y-86274652D01*
X93189191Y-86262366D01*
X93189191Y-86255990D01*
X93190868Y-86249841D01*
X93189191Y-86236647D01*
X93189191Y-86223348D01*
X93186751Y-86217459D01*
X93185948Y-86211135D01*
X93179347Y-86199583D01*
X93174259Y-86187300D01*
X93169753Y-86182794D01*
X93166589Y-86177257D01*
X93156069Y-86169110D01*
X93146669Y-86159710D01*
X93140781Y-86157271D01*
X93135740Y-86153367D01*
X93122907Y-86149867D01*
X93110621Y-86144778D01*
X93100643Y-86143795D01*
X93098097Y-86143101D01*
X93096129Y-86143351D01*
X93091112Y-86142857D01*
X91591112Y-86142857D01*
X91571603Y-86144778D01*
X91535555Y-86159710D01*
X91507965Y-86187300D01*
X91493033Y-86223348D01*
X91493033Y-86262366D01*
X91507965Y-86298414D01*
X91535555Y-86326004D01*
X91571603Y-86340936D01*
X91591112Y-86342857D01*
X92714556Y-86342857D01*
X91541498Y-87013176D01*
X91537387Y-87016094D01*
X91535555Y-87016853D01*
X91533688Y-87018719D01*
X91525513Y-87024523D01*
X91517370Y-87035037D01*
X91507965Y-87044443D01*
X91505525Y-87050333D01*
X91501623Y-87055372D01*
X91498124Y-87068200D01*
X91493033Y-87080491D01*
X91493033Y-87086866D01*
X91491356Y-87093015D01*
X91324445Y-87093015D01*
X91324445Y-86064285D01*
X94834600Y-86064285D01*
X94834600Y-87207142D01*
X94836521Y-87226651D01*
X94851453Y-87262699D01*
X94879043Y-87290289D01*
X94915091Y-87305221D01*
X94954109Y-87305221D01*
X94990157Y-87290289D01*
X95017747Y-87262699D01*
X95032679Y-87226651D01*
X95034600Y-87207142D01*
X95034600Y-86064285D01*
X95032679Y-86044776D01*
X95017747Y-86008728D01*
X94990157Y-85981138D01*
X94954109Y-85966206D01*
X94915091Y-85966206D01*
X94879043Y-85981138D01*
X94851453Y-86008728D01*
X94836521Y-86044776D01*
X94834600Y-86064285D01*
X91324445Y-86064285D01*
X91324445Y-85171428D01*
X91491112Y-85171428D01*
X91491112Y-85528571D01*
X91493033Y-85548080D01*
X91507965Y-85584128D01*
X91535555Y-85611718D01*
X91571603Y-85626650D01*
X91591112Y-85628571D01*
X93091112Y-85628571D01*
X93110621Y-85626650D01*
X93146669Y-85611718D01*
X93174259Y-85584128D01*
X93189191Y-85548080D01*
X93191112Y-85528571D01*
X93191112Y-85330490D01*
X93907949Y-85330490D01*
X93907949Y-85369508D01*
X93922881Y-85405556D01*
X93950471Y-85433146D01*
X93986519Y-85448078D01*
X94006028Y-85449999D01*
X95506028Y-85449999D01*
X95525537Y-85448078D01*
X95561585Y-85433146D01*
X95589175Y-85405556D01*
X95604107Y-85369508D01*
X95606028Y-85349999D01*
X95606028Y-84635713D01*
X95604107Y-84616204D01*
X95589175Y-84580156D01*
X95561585Y-84552566D01*
X95525537Y-84537634D01*
X95486519Y-84537634D01*
X95450471Y-84552566D01*
X95422881Y-84580156D01*
X95407949Y-84616204D01*
X95406028Y-84635713D01*
X95406028Y-85249999D01*
X94006028Y-85249999D01*
X93986519Y-85251920D01*
X93950471Y-85266852D01*
X93922881Y-85294442D01*
X93907949Y-85330490D01*
X93191112Y-85330490D01*
X93191112Y-85171428D01*
X93190139Y-85161554D01*
X93190327Y-85158921D01*
X93189539Y-85155457D01*
X93189191Y-85151919D01*
X93188179Y-85149476D01*
X93185980Y-85139805D01*
X93114552Y-84925519D01*
X93106561Y-84907619D01*
X93104205Y-84904903D01*
X93102831Y-84901584D01*
X93090394Y-84886431D01*
X92947536Y-84743574D01*
X92939871Y-84737283D01*
X92938138Y-84735285D01*
X92935125Y-84733389D01*
X92932383Y-84731138D01*
X92929945Y-84730128D01*
X92921547Y-84724842D01*
X92778691Y-84653413D01*
X92777262Y-84652866D01*
X92776683Y-84652437D01*
X92768512Y-84649518D01*
X92760382Y-84646407D01*
X92759659Y-84646355D01*
X92758222Y-84645842D01*
X92472508Y-84574414D01*
X92469128Y-84573914D01*
X92467764Y-84573349D01*
X92460412Y-84572625D01*
X92453116Y-84571546D01*
X92451657Y-84571763D01*
X92448255Y-84571428D01*
X92233969Y-84571428D01*
X92230566Y-84571763D01*
X92229108Y-84571546D01*
X92221810Y-84572625D01*
X92214460Y-84573349D01*
X92213096Y-84573913D01*
X92209715Y-84574414D01*
X91924002Y-84645842D01*
X91922564Y-84646355D01*
X91921842Y-84646407D01*
X91913711Y-84649518D01*
X91905541Y-84652437D01*
X91904961Y-84652866D01*
X91903533Y-84653413D01*
X91760676Y-84724842D01*
X91752278Y-84730127D01*
X91749840Y-84731138D01*
X91747095Y-84733390D01*
X91744086Y-84735285D01*
X91742353Y-84737282D01*
X91734687Y-84743575D01*
X91591830Y-84886431D01*
X91579394Y-84901585D01*
X91578019Y-84904903D01*
X91575664Y-84907619D01*
X91567673Y-84925519D01*
X91496244Y-85139805D01*
X91494044Y-85149477D01*
X91493033Y-85151919D01*
X91492684Y-85155456D01*
X91491897Y-85158920D01*
X91492084Y-85161554D01*
X91491112Y-85171428D01*
X91324445Y-85171428D01*
X91324445Y-83421427D01*
X93906028Y-83421427D01*
X93906028Y-84135713D01*
X93907949Y-84155222D01*
X93922881Y-84191270D01*
X93950471Y-84218860D01*
X93986519Y-84233792D01*
X94006028Y-84235713D01*
X95506028Y-84235713D01*
X95525537Y-84233792D01*
X95561585Y-84218860D01*
X95589175Y-84191270D01*
X95604107Y-84155222D01*
X95606028Y-84135713D01*
X95606028Y-83421427D01*
X95604107Y-83401918D01*
X95589175Y-83365870D01*
X95561585Y-83338280D01*
X95525537Y-83323348D01*
X95486519Y-83323348D01*
X95450471Y-83338280D01*
X95422881Y-83365870D01*
X95407949Y-83401918D01*
X95406028Y-83421427D01*
X95406028Y-84035713D01*
X94820314Y-84035713D01*
X94820314Y-83635713D01*
X94818393Y-83616204D01*
X94803461Y-83580156D01*
X94775871Y-83552566D01*
X94739823Y-83537634D01*
X94700805Y-83537634D01*
X94664757Y-83552566D01*
X94637167Y-83580156D01*
X94622235Y-83616204D01*
X94620314Y-83635713D01*
X94620314Y-84035713D01*
X94106028Y-84035713D01*
X94106028Y-83421427D01*
X94104107Y-83401918D01*
X94089175Y-83365870D01*
X94061585Y-83338280D01*
X94025537Y-83323348D01*
X93986519Y-83323348D01*
X93950471Y-83338280D01*
X93922881Y-83365870D01*
X93907949Y-83401918D01*
X93906028Y-83421427D01*
X91324445Y-83421427D01*
X91324445Y-82064284D01*
X93906028Y-82064284D01*
X93906028Y-82778570D01*
X93907949Y-82798079D01*
X93922881Y-82834127D01*
X93950471Y-82861717D01*
X93986519Y-82876649D01*
X94006028Y-82878570D01*
X95506028Y-82878570D01*
X95525537Y-82876649D01*
X95561585Y-82861717D01*
X95589175Y-82834127D01*
X95604107Y-82798079D01*
X95604107Y-82759061D01*
X95589175Y-82723013D01*
X95561585Y-82695423D01*
X95525537Y-82680491D01*
X95506028Y-82678570D01*
X94820314Y-82678570D01*
X94820314Y-82278570D01*
X94818393Y-82259061D01*
X94803461Y-82223013D01*
X94775871Y-82195423D01*
X94739823Y-82180491D01*
X94700805Y-82180491D01*
X94664757Y-82195423D01*
X94637167Y-82223013D01*
X94622235Y-82259061D01*
X94620314Y-82278570D01*
X94620314Y-82678570D01*
X94106028Y-82678570D01*
X94106028Y-82064284D01*
X94104107Y-82044775D01*
X94089175Y-82008727D01*
X94061585Y-81981137D01*
X94025537Y-81966205D01*
X93986519Y-81966205D01*
X93950471Y-81981137D01*
X93922881Y-82008727D01*
X93907949Y-82044775D01*
X93906028Y-82064284D01*
X91324445Y-82064284D01*
X91324445Y-80849999D01*
X93906028Y-80849999D01*
X93906028Y-81707141D01*
X93907949Y-81726650D01*
X93922881Y-81762698D01*
X93950471Y-81790288D01*
X93986519Y-81805220D01*
X94025537Y-81805220D01*
X94061585Y-81790288D01*
X94089175Y-81762698D01*
X94104107Y-81726650D01*
X94106028Y-81707141D01*
X94106028Y-81378570D01*
X95506028Y-81378570D01*
X95525537Y-81376649D01*
X95561585Y-81361717D01*
X95589175Y-81334127D01*
X95604107Y-81298079D01*
X95604107Y-81259061D01*
X95589175Y-81223013D01*
X95561585Y-81195423D01*
X95525537Y-81180491D01*
X95506028Y-81178570D01*
X94106028Y-81178570D01*
X94106028Y-80849999D01*
X94104107Y-80830490D01*
X94089175Y-80794442D01*
X94061585Y-80766852D01*
X94025537Y-80751920D01*
X93986519Y-80751920D01*
X93950471Y-80766852D01*
X93922881Y-80794442D01*
X93907949Y-80830490D01*
X93906028Y-80849999D01*
X91324445Y-80849999D01*
X91324445Y-80585253D01*
X95772695Y-80585253D01*
X95772695Y-93902381D01*
G37*
D10*
G36*
X95209854Y-106285444D02*
G01*
X95306121Y-106381711D01*
X95350828Y-106471123D01*
X95350828Y-106686018D01*
X95306122Y-106775431D01*
X95209854Y-106871698D01*
X94982364Y-106928571D01*
X94519292Y-106928571D01*
X94291801Y-106871698D01*
X94195535Y-106775432D01*
X94150828Y-106686018D01*
X94150828Y-106471124D01*
X94195535Y-106381710D01*
X94291801Y-106285444D01*
X94519292Y-106228571D01*
X94982363Y-106228571D01*
X95209854Y-106285444D01*
G37*
G36*
X92068487Y-105880420D02*
G01*
X92105490Y-105917424D01*
X92150198Y-106006838D01*
X92150198Y-106321428D01*
X91735912Y-106321428D01*
X91735912Y-106006838D01*
X91780619Y-105917423D01*
X91817623Y-105880419D01*
X91907036Y-105835713D01*
X91979074Y-105835713D01*
X92068487Y-105880420D01*
G37*
G36*
X92854200Y-105808990D02*
G01*
X92891205Y-105845995D01*
X92935912Y-105935408D01*
X92935912Y-106321428D01*
X92450198Y-106321428D01*
X92450198Y-105995770D01*
X92502731Y-105838168D01*
X92531908Y-105808991D01*
X92621322Y-105764285D01*
X92764788Y-105764285D01*
X92854200Y-105808990D01*
G37*
G36*
X92507341Y-104834742D02*
G01*
X92060252Y-104685713D01*
X92507341Y-104536683D01*
X92507341Y-104834742D01*
G37*
G36*
X92139914Y-99380419D02*
G01*
X92176919Y-99417424D01*
X92221626Y-99506837D01*
X92221626Y-99892857D01*
X91735912Y-99892857D01*
X91735912Y-99506838D01*
X91780619Y-99417423D01*
X91817623Y-99380419D01*
X91907036Y-99335714D01*
X92050502Y-99335714D01*
X92139914Y-99380419D01*
G37*
G36*
X95209854Y-98999729D02*
G01*
X95306121Y-99095996D01*
X95350828Y-99185408D01*
X95350828Y-99400303D01*
X95306122Y-99489716D01*
X95209854Y-99585983D01*
X94982364Y-99642856D01*
X94519292Y-99642856D01*
X94291801Y-99585983D01*
X94195535Y-99489717D01*
X94150828Y-99400303D01*
X94150828Y-99185409D01*
X94195535Y-99095995D01*
X94291801Y-98999729D01*
X94519292Y-98942856D01*
X94982363Y-98942856D01*
X95209854Y-98999729D01*
G37*
G36*
X95817495Y-107395238D02*
G01*
X91269245Y-107395238D01*
X91269245Y-105971428D01*
X91435912Y-105971428D01*
X91435912Y-106471428D01*
X91438794Y-106500692D01*
X91461192Y-106554764D01*
X91502576Y-106596148D01*
X91556648Y-106618546D01*
X91585912Y-106621428D01*
X93085912Y-106621428D01*
X93115176Y-106618546D01*
X93169248Y-106596148D01*
X93210632Y-106554764D01*
X93233030Y-106500692D01*
X93235912Y-106471428D01*
X93235912Y-106435714D01*
X93850828Y-106435714D01*
X93850828Y-106721428D01*
X93853710Y-106750692D01*
X93855771Y-106755669D01*
X93856154Y-106761047D01*
X93866664Y-106788510D01*
X93938093Y-106931368D01*
X93946020Y-106943961D01*
X93947536Y-106947621D01*
X93950917Y-106951740D01*
X93953758Y-106956254D01*
X93956751Y-106958850D01*
X93966191Y-106970352D01*
X94109048Y-107113209D01*
X94131778Y-107131864D01*
X94142083Y-107136132D01*
X94151043Y-107142771D01*
X94178734Y-107152664D01*
X94464448Y-107224092D01*
X94469519Y-107224841D01*
X94471564Y-107225689D01*
X94482586Y-107226774D01*
X94493537Y-107228394D01*
X94495724Y-107228068D01*
X94500828Y-107228571D01*
X95000828Y-107228571D01*
X95005931Y-107228068D01*
X95008119Y-107228394D01*
X95019069Y-107226774D01*
X95030092Y-107225689D01*
X95032136Y-107224841D01*
X95037208Y-107224092D01*
X95322922Y-107152664D01*
X95350613Y-107142771D01*
X95359573Y-107136131D01*
X95369877Y-107131864D01*
X95392608Y-107113209D01*
X95535466Y-106970352D01*
X95544906Y-106958848D01*
X95547900Y-106956253D01*
X95550738Y-106951743D01*
X95554121Y-106947622D01*
X95555638Y-106943959D01*
X95563564Y-106931367D01*
X95634993Y-106788509D01*
X95645502Y-106761046D01*
X95645883Y-106755670D01*
X95647946Y-106750692D01*
X95650828Y-106721428D01*
X95650828Y-106435714D01*
X95647946Y-106406450D01*
X95645883Y-106401471D01*
X95645502Y-106396096D01*
X95634992Y-106368633D01*
X95563564Y-106225775D01*
X95555638Y-106213184D01*
X95554121Y-106209521D01*
X95550735Y-106205395D01*
X95547899Y-106200890D01*
X95544909Y-106198297D01*
X95535466Y-106186791D01*
X95392608Y-106043934D01*
X95369877Y-106025279D01*
X95359573Y-106021011D01*
X95350613Y-106014372D01*
X95322922Y-106004479D01*
X95037209Y-105933050D01*
X95032136Y-105932299D01*
X95030092Y-105931453D01*
X95019070Y-105930367D01*
X95008119Y-105928748D01*
X95005931Y-105929073D01*
X95000828Y-105928571D01*
X94500828Y-105928571D01*
X94495724Y-105929073D01*
X94493536Y-105928748D01*
X94482583Y-105930367D01*
X94471564Y-105931453D01*
X94469519Y-105932299D01*
X94464447Y-105933050D01*
X94178733Y-106004479D01*
X94151042Y-106014372D01*
X94142081Y-106021011D01*
X94131778Y-106025279D01*
X94109048Y-106043934D01*
X93966191Y-106186791D01*
X93956751Y-106198292D01*
X93953758Y-106200889D01*
X93950917Y-106205402D01*
X93947536Y-106209522D01*
X93946020Y-106213181D01*
X93938093Y-106225775D01*
X93866664Y-106368632D01*
X93856155Y-106396095D01*
X93855773Y-106401469D01*
X93853710Y-106406450D01*
X93850828Y-106435714D01*
X93235912Y-106435714D01*
X93235912Y-105899999D01*
X93233030Y-105870735D01*
X93230967Y-105865756D01*
X93230586Y-105860381D01*
X93220076Y-105832918D01*
X93148648Y-105690060D01*
X93140721Y-105677468D01*
X93139205Y-105673807D01*
X93135821Y-105669684D01*
X93132983Y-105665175D01*
X93129991Y-105662580D01*
X93120550Y-105651076D01*
X93049121Y-105579647D01*
X93037619Y-105570207D01*
X93035023Y-105567214D01*
X93030509Y-105564373D01*
X93026390Y-105560992D01*
X93022730Y-105559476D01*
X93010137Y-105551549D01*
X92867280Y-105480121D01*
X92839816Y-105469611D01*
X92834440Y-105469229D01*
X92829462Y-105467167D01*
X92800198Y-105464285D01*
X92585912Y-105464285D01*
X92556648Y-105467167D01*
X92551669Y-105469229D01*
X92546294Y-105469611D01*
X92518831Y-105480121D01*
X92375973Y-105551549D01*
X92363381Y-105559475D01*
X92359720Y-105560992D01*
X92355597Y-105564375D01*
X92351088Y-105567214D01*
X92348493Y-105570205D01*
X92336989Y-105579647D01*
X92265560Y-105651076D01*
X92264589Y-105652258D01*
X92263408Y-105651077D01*
X92251905Y-105641637D01*
X92249309Y-105638643D01*
X92244794Y-105635801D01*
X92240677Y-105632422D01*
X92237018Y-105630906D01*
X92224423Y-105622978D01*
X92081566Y-105551549D01*
X92054103Y-105541040D01*
X92048728Y-105540658D01*
X92043748Y-105538595D01*
X92014484Y-105535713D01*
X91871626Y-105535713D01*
X91842362Y-105538595D01*
X91837381Y-105540658D01*
X91832007Y-105541040D01*
X91804543Y-105551549D01*
X91661687Y-105622978D01*
X91649090Y-105630906D01*
X91645433Y-105632422D01*
X91641315Y-105635801D01*
X91636801Y-105638643D01*
X91634203Y-105641637D01*
X91622702Y-105651077D01*
X91551274Y-105722506D01*
X91541836Y-105734005D01*
X91538842Y-105736603D01*
X91535999Y-105741119D01*
X91532620Y-105745237D01*
X91531105Y-105748893D01*
X91523177Y-105761489D01*
X91451748Y-105904346D01*
X91441239Y-105931809D01*
X91440857Y-105937183D01*
X91438794Y-105942164D01*
X91435912Y-105971428D01*
X91269245Y-105971428D01*
X91269245Y-105425237D01*
X93851194Y-105425237D01*
X93853710Y-105445028D01*
X93853710Y-105464978D01*
X93857369Y-105473811D01*
X93858575Y-105483297D01*
X93868473Y-105500619D01*
X93876108Y-105519050D01*
X93882868Y-105525810D01*
X93887613Y-105534113D01*
X93903384Y-105546326D01*
X93917492Y-105560434D01*
X93926327Y-105564093D01*
X93933887Y-105569948D01*
X93953131Y-105575196D01*
X93971564Y-105582832D01*
X93986530Y-105584305D01*
X93990351Y-105585348D01*
X93993302Y-105584972D01*
X94000828Y-105585714D01*
X95500828Y-105585714D01*
X95530092Y-105582832D01*
X95584164Y-105560434D01*
X95625548Y-105519050D01*
X95647946Y-105464978D01*
X95647946Y-105406450D01*
X95625548Y-105352378D01*
X95584164Y-105310994D01*
X95530092Y-105288596D01*
X95500828Y-105285714D01*
X94565662Y-105285714D01*
X95575249Y-104708807D01*
X95581416Y-104704429D01*
X95584164Y-104703291D01*
X95586963Y-104700491D01*
X95599227Y-104691786D01*
X95611442Y-104676012D01*
X95625548Y-104661907D01*
X95629206Y-104653073D01*
X95635063Y-104645512D01*
X95640312Y-104626263D01*
X95647946Y-104607835D01*
X95647946Y-104598273D01*
X95650462Y-104589048D01*
X95647946Y-104569256D01*
X95647946Y-104549307D01*
X95644286Y-104540473D01*
X95643081Y-104530988D01*
X95633182Y-104513665D01*
X95625548Y-104495235D01*
X95618787Y-104488474D01*
X95614043Y-104480172D01*
X95598271Y-104467958D01*
X95584164Y-104453851D01*
X95575328Y-104450191D01*
X95567769Y-104444337D01*
X95548524Y-104439088D01*
X95530092Y-104431453D01*
X95515127Y-104429979D01*
X95511306Y-104428937D01*
X95508354Y-104429312D01*
X95500828Y-104428571D01*
X94000828Y-104428571D01*
X93971564Y-104431453D01*
X93917492Y-104453851D01*
X93876108Y-104495235D01*
X93853710Y-104549307D01*
X93853710Y-104607835D01*
X93876108Y-104661907D01*
X93917492Y-104703291D01*
X93971564Y-104725689D01*
X94000828Y-104728571D01*
X94935993Y-104728571D01*
X93926407Y-105305478D01*
X93920239Y-105309855D01*
X93917492Y-105310994D01*
X93914692Y-105313793D01*
X93902429Y-105322499D01*
X93890215Y-105338270D01*
X93876108Y-105352378D01*
X93872448Y-105361213D01*
X93866594Y-105368773D01*
X93861345Y-105388017D01*
X93853710Y-105406450D01*
X93853710Y-105416012D01*
X93851194Y-105425237D01*
X91269245Y-105425237D01*
X91269245Y-104666952D01*
X91437090Y-104666952D01*
X91438423Y-104685713D01*
X91437090Y-104704474D01*
X91440479Y-104714641D01*
X91441239Y-104725333D01*
X91449650Y-104742156D01*
X91455598Y-104759998D01*
X91462620Y-104768094D01*
X91467413Y-104777680D01*
X91481621Y-104790003D01*
X91493945Y-104804212D01*
X91503530Y-104809004D01*
X91511627Y-104816027D01*
X91538478Y-104828015D01*
X93038478Y-105328016D01*
X93067152Y-105334536D01*
X93125532Y-105330386D01*
X93177879Y-105304212D01*
X93216226Y-105259998D01*
X93234735Y-105204474D01*
X93230585Y-105146094D01*
X93204412Y-105093746D01*
X93160197Y-105055399D01*
X93133346Y-105043411D01*
X92807341Y-104934742D01*
X92807341Y-104436683D01*
X93133346Y-104328015D01*
X93160197Y-104316027D01*
X93204412Y-104277680D01*
X93230585Y-104225332D01*
X93234735Y-104166952D01*
X93216226Y-104111428D01*
X93177879Y-104067214D01*
X93125532Y-104041040D01*
X93067152Y-104036890D01*
X93038478Y-104043410D01*
X91538478Y-104543411D01*
X91511627Y-104555399D01*
X91503530Y-104562421D01*
X91493945Y-104567214D01*
X91481621Y-104581422D01*
X91467413Y-104593746D01*
X91462620Y-104603331D01*
X91455598Y-104611428D01*
X91449650Y-104629269D01*
X91441239Y-104646093D01*
X91440479Y-104656784D01*
X91437090Y-104666952D01*
X91269245Y-104666952D01*
X91269245Y-101900000D01*
X91435912Y-101900000D01*
X91435912Y-102757142D01*
X91438794Y-102786406D01*
X91461192Y-102840478D01*
X91502576Y-102881862D01*
X91546362Y-102899999D01*
X91502576Y-102918137D01*
X91461192Y-102959521D01*
X91438794Y-103013593D01*
X91435912Y-103042857D01*
X91435912Y-103899999D01*
X91438794Y-103929263D01*
X91461192Y-103983335D01*
X91502576Y-104024719D01*
X91556648Y-104047117D01*
X91615176Y-104047117D01*
X91669248Y-104024719D01*
X91710632Y-103983335D01*
X91733030Y-103929263D01*
X91735912Y-103899999D01*
X91735912Y-103621428D01*
X93085912Y-103621428D01*
X93115176Y-103618546D01*
X93169248Y-103596148D01*
X93210632Y-103554764D01*
X93233030Y-103500692D01*
X93233030Y-103442164D01*
X93210632Y-103388092D01*
X93169248Y-103346708D01*
X93115176Y-103324310D01*
X93085912Y-103321428D01*
X91735912Y-103321428D01*
X91735912Y-103042857D01*
X91733030Y-103013593D01*
X91710632Y-102959521D01*
X91669248Y-102918137D01*
X91625461Y-102899999D01*
X91669248Y-102881862D01*
X91710632Y-102840478D01*
X91733030Y-102786406D01*
X91735912Y-102757142D01*
X91735912Y-102478571D01*
X93085912Y-102478571D01*
X93115176Y-102475689D01*
X93169248Y-102453291D01*
X93210632Y-102411907D01*
X93233030Y-102357835D01*
X93233030Y-102299307D01*
X93210632Y-102245235D01*
X93169248Y-102203851D01*
X93115176Y-102181453D01*
X93085912Y-102178571D01*
X91735912Y-102178571D01*
X91735912Y-101900000D01*
X91733030Y-101870736D01*
X91710632Y-101816664D01*
X91669248Y-101775280D01*
X91615176Y-101752882D01*
X91556648Y-101752882D01*
X91502576Y-101775280D01*
X91461192Y-101816664D01*
X91438794Y-101870736D01*
X91435912Y-101900000D01*
X91269245Y-101900000D01*
X91269245Y-101578571D01*
X94779400Y-101578571D01*
X94779400Y-102721428D01*
X94782282Y-102750692D01*
X94804680Y-102804764D01*
X94846064Y-102846148D01*
X94900136Y-102868546D01*
X94958664Y-102868546D01*
X95012736Y-102846148D01*
X95054120Y-102804764D01*
X95076518Y-102750692D01*
X95079400Y-102721428D01*
X95079400Y-101578571D01*
X95076518Y-101549307D01*
X95054120Y-101495235D01*
X95012736Y-101453851D01*
X94958664Y-101431453D01*
X94900136Y-101431453D01*
X94846064Y-101453851D01*
X94804680Y-101495235D01*
X94782282Y-101549307D01*
X94779400Y-101578571D01*
X91269245Y-101578571D01*
X91269245Y-100685714D01*
X91435912Y-100685714D01*
X91435912Y-101400000D01*
X91438794Y-101429264D01*
X91461192Y-101483336D01*
X91502576Y-101524720D01*
X91556648Y-101547118D01*
X91585912Y-101550000D01*
X93085912Y-101550000D01*
X93115176Y-101547118D01*
X93169248Y-101524720D01*
X93210632Y-101483336D01*
X93233030Y-101429264D01*
X93235912Y-101400000D01*
X93235912Y-100685714D01*
X93233030Y-100656450D01*
X93210632Y-100602378D01*
X93169248Y-100560994D01*
X93115176Y-100538596D01*
X93056648Y-100538596D01*
X93002576Y-100560994D01*
X92961192Y-100602378D01*
X92938794Y-100656450D01*
X92935912Y-100685714D01*
X92935912Y-101250000D01*
X92450198Y-101250000D01*
X92450198Y-100900000D01*
X92447316Y-100870736D01*
X92424918Y-100816664D01*
X92383534Y-100775280D01*
X92329462Y-100752882D01*
X92270934Y-100752882D01*
X92216862Y-100775280D01*
X92175478Y-100816664D01*
X92153080Y-100870736D01*
X92150198Y-100900000D01*
X92150198Y-101250000D01*
X91735912Y-101250000D01*
X91735912Y-100685714D01*
X91733030Y-100656450D01*
X91710632Y-100602378D01*
X91669248Y-100560994D01*
X91615176Y-100538596D01*
X91556648Y-100538596D01*
X91502576Y-100560994D01*
X91461192Y-100602378D01*
X91438794Y-100656450D01*
X91435912Y-100685714D01*
X91269245Y-100685714D01*
X91269245Y-99471428D01*
X91435912Y-99471428D01*
X91435912Y-100042857D01*
X91438794Y-100072121D01*
X91461192Y-100126193D01*
X91502576Y-100167577D01*
X91556648Y-100189975D01*
X91585912Y-100192857D01*
X93085912Y-100192857D01*
X93115176Y-100189975D01*
X93169248Y-100167577D01*
X93210632Y-100126193D01*
X93233030Y-100072121D01*
X93233030Y-100013593D01*
X93210632Y-99959521D01*
X93169248Y-99918137D01*
X93115176Y-99895739D01*
X93085912Y-99892857D01*
X92521626Y-99892857D01*
X92521626Y-99763812D01*
X93171931Y-99308599D01*
X93194253Y-99289456D01*
X93225706Y-99240099D01*
X93235877Y-99182463D01*
X93228685Y-99149999D01*
X93850828Y-99149999D01*
X93850828Y-99435713D01*
X93853710Y-99464977D01*
X93855771Y-99469954D01*
X93856154Y-99475332D01*
X93866664Y-99502795D01*
X93938093Y-99645653D01*
X93946020Y-99658246D01*
X93947536Y-99661906D01*
X93950917Y-99666025D01*
X93953758Y-99670539D01*
X93956751Y-99673135D01*
X93966191Y-99684637D01*
X94109048Y-99827494D01*
X94131778Y-99846149D01*
X94142083Y-99850417D01*
X94151043Y-99857056D01*
X94178734Y-99866949D01*
X94464448Y-99938377D01*
X94469519Y-99939126D01*
X94471564Y-99939974D01*
X94482586Y-99941059D01*
X94493537Y-99942679D01*
X94495724Y-99942353D01*
X94500828Y-99942856D01*
X95000828Y-99942856D01*
X95005931Y-99942353D01*
X95008119Y-99942679D01*
X95019069Y-99941059D01*
X95030092Y-99939974D01*
X95032136Y-99939126D01*
X95037208Y-99938377D01*
X95322922Y-99866949D01*
X95350613Y-99857056D01*
X95359573Y-99850416D01*
X95369877Y-99846149D01*
X95392608Y-99827494D01*
X95535466Y-99684637D01*
X95544906Y-99673133D01*
X95547900Y-99670538D01*
X95550738Y-99666028D01*
X95554121Y-99661907D01*
X95555638Y-99658244D01*
X95563564Y-99645652D01*
X95634993Y-99502794D01*
X95645502Y-99475331D01*
X95645883Y-99469955D01*
X95647946Y-99464977D01*
X95650828Y-99435713D01*
X95650828Y-99149999D01*
X95647946Y-99120735D01*
X95645883Y-99115756D01*
X95645502Y-99110381D01*
X95634992Y-99082918D01*
X95563564Y-98940060D01*
X95555638Y-98927469D01*
X95554121Y-98923806D01*
X95550735Y-98919680D01*
X95547899Y-98915175D01*
X95544909Y-98912582D01*
X95535466Y-98901076D01*
X95392608Y-98758219D01*
X95369877Y-98739564D01*
X95359573Y-98735296D01*
X95350613Y-98728657D01*
X95322922Y-98718764D01*
X95037209Y-98647335D01*
X95032136Y-98646584D01*
X95030092Y-98645738D01*
X95019070Y-98644652D01*
X95008119Y-98643033D01*
X95005931Y-98643358D01*
X95000828Y-98642856D01*
X94500828Y-98642856D01*
X94495724Y-98643358D01*
X94493536Y-98643033D01*
X94482583Y-98644652D01*
X94471564Y-98645738D01*
X94469519Y-98646584D01*
X94464447Y-98647335D01*
X94178733Y-98718764D01*
X94151042Y-98728657D01*
X94142081Y-98735296D01*
X94131778Y-98739564D01*
X94109048Y-98758219D01*
X93966191Y-98901076D01*
X93956751Y-98912577D01*
X93953758Y-98915174D01*
X93950917Y-98919687D01*
X93947536Y-98923807D01*
X93946020Y-98927466D01*
X93938093Y-98940060D01*
X93866664Y-99082917D01*
X93856155Y-99110380D01*
X93855773Y-99115754D01*
X93853710Y-99120735D01*
X93850828Y-99149999D01*
X93228685Y-99149999D01*
X93223218Y-99125321D01*
X93189654Y-99077373D01*
X93140297Y-99045920D01*
X93082661Y-99035749D01*
X93025519Y-99048408D01*
X92999893Y-99062829D01*
X92507104Y-99407781D01*
X92505790Y-99404347D01*
X92434362Y-99261489D01*
X92426435Y-99248897D01*
X92424919Y-99245236D01*
X92421535Y-99241113D01*
X92418697Y-99236604D01*
X92415705Y-99234009D01*
X92406264Y-99222505D01*
X92334835Y-99151076D01*
X92323333Y-99141636D01*
X92320737Y-99138643D01*
X92316223Y-99135802D01*
X92312104Y-99132421D01*
X92308444Y-99130905D01*
X92295851Y-99122978D01*
X92152994Y-99051550D01*
X92125530Y-99041040D01*
X92120154Y-99040658D01*
X92115176Y-99038596D01*
X92085912Y-99035714D01*
X91871626Y-99035714D01*
X91842362Y-99038596D01*
X91837383Y-99040658D01*
X91832008Y-99041040D01*
X91804545Y-99051550D01*
X91661687Y-99122978D01*
X91649092Y-99130906D01*
X91645433Y-99132422D01*
X91641312Y-99135803D01*
X91636802Y-99138643D01*
X91634207Y-99141634D01*
X91622702Y-99151077D01*
X91551274Y-99222506D01*
X91541836Y-99234005D01*
X91538842Y-99236603D01*
X91535999Y-99241119D01*
X91532620Y-99245237D01*
X91531105Y-99248893D01*
X91523177Y-99261489D01*
X91451748Y-99404346D01*
X91441239Y-99431809D01*
X91440857Y-99437183D01*
X91438794Y-99442164D01*
X91435912Y-99471428D01*
X91269245Y-99471428D01*
X91269245Y-97760490D01*
X91435949Y-97760490D01*
X91448646Y-97817622D01*
X91482239Y-97865549D01*
X91505381Y-97883691D01*
X92092231Y-98257142D01*
X91505381Y-98630593D01*
X91482239Y-98648735D01*
X91448646Y-98696662D01*
X91435949Y-98753794D01*
X91446083Y-98811437D01*
X91477505Y-98860815D01*
X91525432Y-98894408D01*
X91582564Y-98907105D01*
X91640207Y-98896971D01*
X91666443Y-98883691D01*
X92415305Y-98407142D01*
X93085912Y-98407142D01*
X93115176Y-98404260D01*
X93169248Y-98381862D01*
X93210632Y-98340478D01*
X93233030Y-98286406D01*
X93233030Y-98227878D01*
X93210632Y-98173806D01*
X93169248Y-98132422D01*
X93115176Y-98110024D01*
X93085912Y-98107142D01*
X92415305Y-98107142D01*
X91666443Y-97630593D01*
X91640207Y-97617313D01*
X91582564Y-97607179D01*
X91525432Y-97619876D01*
X91477505Y-97653469D01*
X91446083Y-97702847D01*
X91435949Y-97760490D01*
X91269245Y-97760490D01*
X91269245Y-97435713D01*
X93850828Y-97435713D01*
X93850828Y-98149999D01*
X93853710Y-98179263D01*
X93876108Y-98233335D01*
X93917492Y-98274719D01*
X93971564Y-98297117D01*
X94000828Y-98299999D01*
X95500828Y-98299999D01*
X95530092Y-98297117D01*
X95584164Y-98274719D01*
X95625548Y-98233335D01*
X95647946Y-98179263D01*
X95647946Y-98120735D01*
X95625548Y-98066663D01*
X95584164Y-98025279D01*
X95530092Y-98002881D01*
X95500828Y-97999999D01*
X94865114Y-97999999D01*
X94865114Y-97649999D01*
X94862232Y-97620735D01*
X94839834Y-97566663D01*
X94798450Y-97525279D01*
X94744378Y-97502881D01*
X94685850Y-97502881D01*
X94631778Y-97525279D01*
X94590394Y-97566663D01*
X94567996Y-97620735D01*
X94565114Y-97649999D01*
X94565114Y-97999999D01*
X94150828Y-97999999D01*
X94150828Y-97435713D01*
X94147946Y-97406449D01*
X94125548Y-97352377D01*
X94084164Y-97310993D01*
X94030092Y-97288595D01*
X93971564Y-97288595D01*
X93917492Y-97310993D01*
X93876108Y-97352377D01*
X93853710Y-97406449D01*
X93850828Y-97435713D01*
X91269245Y-97435713D01*
X91269245Y-96149999D01*
X93850828Y-96149999D01*
X93850828Y-96864285D01*
X93853710Y-96893549D01*
X93876108Y-96947621D01*
X93917492Y-96989005D01*
X93971564Y-97011403D01*
X94000828Y-97014285D01*
X95500828Y-97014285D01*
X95530092Y-97011403D01*
X95584164Y-96989005D01*
X95625548Y-96947621D01*
X95647946Y-96893549D01*
X95647946Y-96835021D01*
X95625548Y-96780949D01*
X95584164Y-96739565D01*
X95530092Y-96717167D01*
X95500828Y-96714285D01*
X94865114Y-96714285D01*
X94865114Y-96364285D01*
X94862232Y-96335021D01*
X94839834Y-96280949D01*
X94798450Y-96239565D01*
X94744378Y-96217167D01*
X94685850Y-96217167D01*
X94631778Y-96239565D01*
X94590394Y-96280949D01*
X94567996Y-96335021D01*
X94565114Y-96364285D01*
X94565114Y-96714285D01*
X94150828Y-96714285D01*
X94150828Y-96149999D01*
X94147946Y-96120735D01*
X94125548Y-96066663D01*
X94084164Y-96025279D01*
X94030092Y-96002881D01*
X93971564Y-96002881D01*
X93917492Y-96025279D01*
X93876108Y-96066663D01*
X93853710Y-96120735D01*
X93850828Y-96149999D01*
X91269245Y-96149999D01*
X91269245Y-95836214D01*
X95817495Y-95836214D01*
X95817495Y-107395238D01*
G37*
G36*
X72571428Y-57649171D02*
G01*
X72185409Y-57649171D01*
X72095995Y-57604463D01*
X72058990Y-57567458D01*
X72014285Y-57478047D01*
X72014285Y-57334580D01*
X72058990Y-57245168D01*
X72095995Y-57208163D01*
X72185409Y-57163457D01*
X72571428Y-57163457D01*
X72571428Y-57649171D01*
G37*
G36*
X81714285Y-57649171D02*
G01*
X81399695Y-57649171D01*
X81310281Y-57604463D01*
X81273277Y-57567460D01*
X81228570Y-57478046D01*
X81228570Y-57406010D01*
X81273276Y-57316596D01*
X81310281Y-57279592D01*
X81399695Y-57234885D01*
X81714285Y-57234885D01*
X81714285Y-57649171D01*
G37*
G36*
X81714285Y-56934885D02*
G01*
X81388628Y-56934885D01*
X81231025Y-56882351D01*
X81201847Y-56853173D01*
X81157142Y-56763761D01*
X81157142Y-56620294D01*
X81201847Y-56530883D01*
X81238852Y-56493878D01*
X81328266Y-56449171D01*
X81714285Y-56449171D01*
X81714285Y-56934885D01*
G37*
G36*
X73721427Y-57324829D02*
G01*
X73572398Y-56877742D01*
X73870457Y-56877742D01*
X73721427Y-57324829D01*
G37*
G36*
X82180952Y-58115838D02*
G01*
X71547618Y-58115838D01*
X71547618Y-57299171D01*
X71714285Y-57299171D01*
X71714285Y-57513457D01*
X71717167Y-57542721D01*
X71719229Y-57547699D01*
X71719611Y-57553075D01*
X71730121Y-57580539D01*
X71801549Y-57723396D01*
X71809477Y-57735991D01*
X71810993Y-57739650D01*
X71814372Y-57743767D01*
X71817214Y-57748282D01*
X71820208Y-57750878D01*
X71829648Y-57762381D01*
X71901077Y-57833809D01*
X71912577Y-57843247D01*
X71915174Y-57846241D01*
X71919686Y-57849081D01*
X71923807Y-57852463D01*
X71927466Y-57853978D01*
X71940060Y-57861906D01*
X72082916Y-57933335D01*
X72110380Y-57943844D01*
X72115754Y-57944225D01*
X72120735Y-57946289D01*
X72149999Y-57949171D01*
X72721428Y-57949171D01*
X72750692Y-57946289D01*
X72804764Y-57923891D01*
X72846148Y-57882507D01*
X72868546Y-57828435D01*
X72871428Y-57799171D01*
X72871428Y-56317932D01*
X73072605Y-56317932D01*
X73079125Y-56346605D01*
X73579125Y-57846605D01*
X73591113Y-57873456D01*
X73598135Y-57881553D01*
X73602928Y-57891138D01*
X73617134Y-57903459D01*
X73629460Y-57917671D01*
X73639047Y-57922464D01*
X73647142Y-57929485D01*
X73664984Y-57935432D01*
X73681808Y-57943844D01*
X73692498Y-57944603D01*
X73702666Y-57947993D01*
X73721422Y-57946660D01*
X73740188Y-57947994D01*
X73750358Y-57944603D01*
X73761047Y-57943844D01*
X73777868Y-57935433D01*
X73795712Y-57929485D01*
X73803808Y-57922462D01*
X73813394Y-57917670D01*
X73825717Y-57903461D01*
X73839926Y-57891138D01*
X73844718Y-57881552D01*
X73851741Y-57873456D01*
X73863729Y-57846605D01*
X74363730Y-56346605D01*
X74370250Y-56317931D01*
X74366836Y-56269907D01*
X74502881Y-56269907D01*
X74502881Y-56328435D01*
X74525279Y-56382507D01*
X74566663Y-56423891D01*
X74620735Y-56446289D01*
X74649999Y-56449171D01*
X75214285Y-56449171D01*
X75214285Y-56934885D01*
X74864285Y-56934885D01*
X74835021Y-56937767D01*
X74780949Y-56960165D01*
X74739565Y-57001549D01*
X74717167Y-57055621D01*
X74717167Y-57114149D01*
X74739565Y-57168221D01*
X74780949Y-57209605D01*
X74835021Y-57232003D01*
X74864285Y-57234885D01*
X75214285Y-57234885D01*
X75214285Y-57649171D01*
X74649999Y-57649171D01*
X74620735Y-57652053D01*
X74566663Y-57674451D01*
X74525279Y-57715835D01*
X74502881Y-57769907D01*
X74502881Y-57828435D01*
X74525279Y-57882507D01*
X74566663Y-57923891D01*
X74620735Y-57946289D01*
X74649999Y-57949171D01*
X75364285Y-57949171D01*
X75393549Y-57946289D01*
X75447621Y-57923891D01*
X75489005Y-57882507D01*
X75511403Y-57828435D01*
X75514285Y-57799171D01*
X75514285Y-56299171D01*
X75511403Y-56269907D01*
X75717167Y-56269907D01*
X75717167Y-56328435D01*
X75739565Y-56382507D01*
X75780949Y-56423891D01*
X75835021Y-56446289D01*
X75864285Y-56449171D01*
X76428571Y-56449171D01*
X76428571Y-57799171D01*
X76431453Y-57828435D01*
X76453851Y-57882507D01*
X76495235Y-57923891D01*
X76549307Y-57946289D01*
X76607835Y-57946289D01*
X76661907Y-57923891D01*
X76703291Y-57882507D01*
X76725689Y-57828435D01*
X76728571Y-57799171D01*
X76728571Y-56412765D01*
X77074310Y-56412765D01*
X77074310Y-56471291D01*
X77096707Y-56525363D01*
X77138093Y-56566749D01*
X77192165Y-56589146D01*
X77250691Y-56589146D01*
X77304763Y-56566749D01*
X77327494Y-56548094D01*
X77373883Y-56501704D01*
X77531485Y-56449171D01*
X77625659Y-56449171D01*
X77783257Y-56501704D01*
X77883864Y-56602311D01*
X77937043Y-56708670D01*
X77999999Y-56960491D01*
X77999999Y-57137850D01*
X77937043Y-57389671D01*
X77883864Y-57496030D01*
X77783257Y-57596637D01*
X77625659Y-57649171D01*
X77531485Y-57649171D01*
X77373883Y-57596637D01*
X77327494Y-57550248D01*
X77304763Y-57531593D01*
X77250691Y-57509196D01*
X77192165Y-57509196D01*
X77138093Y-57531593D01*
X77096707Y-57572979D01*
X77074310Y-57627051D01*
X77074310Y-57685577D01*
X77096707Y-57739649D01*
X77115362Y-57762380D01*
X77186790Y-57833808D01*
X77209520Y-57852463D01*
X77214500Y-57854526D01*
X77218571Y-57858056D01*
X77245422Y-57870044D01*
X77459707Y-57941473D01*
X77474216Y-57944772D01*
X77477878Y-57946289D01*
X77483186Y-57946811D01*
X77488381Y-57947993D01*
X77492330Y-57947712D01*
X77507142Y-57949171D01*
X77649999Y-57949171D01*
X77664810Y-57947712D01*
X77668760Y-57947993D01*
X77673954Y-57946811D01*
X77679263Y-57946289D01*
X77682925Y-57944771D01*
X77697433Y-57941473D01*
X77911719Y-57870045D01*
X77938570Y-57858056D01*
X77942640Y-57854525D01*
X77947620Y-57852463D01*
X77970351Y-57833808D01*
X78034252Y-57769907D01*
X79574310Y-57769907D01*
X79574310Y-57828435D01*
X79596708Y-57882507D01*
X79638092Y-57923891D01*
X79692164Y-57946289D01*
X79721428Y-57949171D01*
X80578570Y-57949171D01*
X80607834Y-57946289D01*
X80661906Y-57923891D01*
X80703290Y-57882507D01*
X80725688Y-57828435D01*
X80725688Y-57769907D01*
X80703290Y-57715835D01*
X80661906Y-57674451D01*
X80607834Y-57652053D01*
X80578570Y-57649171D01*
X80299999Y-57649171D01*
X80299999Y-56584885D01*
X80857142Y-56584885D01*
X80857142Y-56799171D01*
X80860024Y-56828435D01*
X80862086Y-56833413D01*
X80862468Y-56838789D01*
X80872978Y-56866253D01*
X80944406Y-57009110D01*
X80952333Y-57021703D01*
X80953849Y-57025363D01*
X80957230Y-57029482D01*
X80960071Y-57033996D01*
X80963064Y-57036592D01*
X80972504Y-57048094D01*
X81043933Y-57119523D01*
X81045115Y-57120493D01*
X81043934Y-57121675D01*
X81034494Y-57133177D01*
X81031500Y-57135774D01*
X81028658Y-57140288D01*
X81025279Y-57144406D01*
X81023763Y-57148064D01*
X81015835Y-57160660D01*
X80944406Y-57303518D01*
X80933896Y-57330981D01*
X80933513Y-57336358D01*
X80931452Y-57341336D01*
X80928570Y-57370600D01*
X80928570Y-57513457D01*
X80931452Y-57542721D01*
X80933515Y-57547701D01*
X80933897Y-57553076D01*
X80944406Y-57580539D01*
X81015835Y-57723396D01*
X81023763Y-57735991D01*
X81025279Y-57739650D01*
X81028658Y-57743767D01*
X81031500Y-57748282D01*
X81034494Y-57750878D01*
X81043934Y-57762381D01*
X81115363Y-57833809D01*
X81126863Y-57843247D01*
X81129460Y-57846241D01*
X81133972Y-57849081D01*
X81138093Y-57852463D01*
X81141752Y-57853978D01*
X81154346Y-57861906D01*
X81297202Y-57933335D01*
X81324666Y-57943844D01*
X81330040Y-57944225D01*
X81335021Y-57946289D01*
X81364285Y-57949171D01*
X81864285Y-57949171D01*
X81893549Y-57946289D01*
X81947621Y-57923891D01*
X81989005Y-57882507D01*
X82011403Y-57828435D01*
X82014285Y-57799171D01*
X82014285Y-56299171D01*
X82011403Y-56269907D01*
X81989005Y-56215835D01*
X81947621Y-56174451D01*
X81893549Y-56152053D01*
X81864285Y-56149171D01*
X81292856Y-56149171D01*
X81263592Y-56152053D01*
X81258611Y-56154116D01*
X81253237Y-56154498D01*
X81225773Y-56165007D01*
X81082917Y-56236436D01*
X81070323Y-56244363D01*
X81066664Y-56245879D01*
X81062543Y-56249260D01*
X81058031Y-56252101D01*
X81055434Y-56255094D01*
X81043934Y-56264533D01*
X80972505Y-56335961D01*
X80963065Y-56347463D01*
X80960071Y-56350060D01*
X80957229Y-56354574D01*
X80953850Y-56358692D01*
X80952334Y-56362350D01*
X80944406Y-56374946D01*
X80872978Y-56517803D01*
X80862468Y-56545267D01*
X80862086Y-56550642D01*
X80860024Y-56555621D01*
X80857142Y-56584885D01*
X80299999Y-56584885D01*
X80299999Y-56299171D01*
X80297117Y-56269907D01*
X80274719Y-56215835D01*
X80233335Y-56174451D01*
X80179263Y-56152053D01*
X80120735Y-56152053D01*
X80066663Y-56174451D01*
X80025279Y-56215835D01*
X80002881Y-56269907D01*
X79999999Y-56299171D01*
X79999999Y-57649171D01*
X79721428Y-57649171D01*
X79692164Y-57652053D01*
X79638092Y-57674451D01*
X79596708Y-57715835D01*
X79574310Y-57769907D01*
X78034252Y-57769907D01*
X78113208Y-57690951D01*
X78122648Y-57679448D01*
X78125641Y-57676853D01*
X78128479Y-57672343D01*
X78131863Y-57668221D01*
X78133379Y-57664558D01*
X78141306Y-57651967D01*
X78212735Y-57509111D01*
X78213554Y-57506968D01*
X78214199Y-57506099D01*
X78218583Y-57493827D01*
X78223244Y-57481647D01*
X78223320Y-57480566D01*
X78224092Y-57478408D01*
X78295520Y-57192694D01*
X78296269Y-57187622D01*
X78297117Y-57185578D01*
X78298202Y-57174555D01*
X78299822Y-57163605D01*
X78299496Y-57161417D01*
X78299999Y-57156314D01*
X78299999Y-56942028D01*
X78299496Y-56936924D01*
X78299822Y-56934737D01*
X78298202Y-56923786D01*
X78297117Y-56912764D01*
X78296269Y-56910719D01*
X78295520Y-56905648D01*
X78224092Y-56619934D01*
X78223320Y-56617775D01*
X78223244Y-56616695D01*
X78218583Y-56604514D01*
X78214199Y-56592243D01*
X78213554Y-56591373D01*
X78212735Y-56589231D01*
X78141306Y-56446375D01*
X78133379Y-56433783D01*
X78131863Y-56430121D01*
X78128479Y-56425998D01*
X78125641Y-56421489D01*
X78122648Y-56418893D01*
X78113208Y-56407391D01*
X77970351Y-56264534D01*
X77947620Y-56245879D01*
X77942640Y-56243816D01*
X77938570Y-56240286D01*
X77911719Y-56228297D01*
X77697433Y-56156869D01*
X77682925Y-56153570D01*
X77679263Y-56152053D01*
X77673954Y-56151530D01*
X77668760Y-56150349D01*
X77664810Y-56150629D01*
X77649999Y-56149171D01*
X77507142Y-56149171D01*
X77492330Y-56150629D01*
X77488381Y-56150349D01*
X77483186Y-56151530D01*
X77477878Y-56152053D01*
X77474216Y-56153569D01*
X77459707Y-56156869D01*
X77245422Y-56228298D01*
X77218571Y-56240286D01*
X77214500Y-56243815D01*
X77209520Y-56245879D01*
X77186790Y-56264534D01*
X77115362Y-56335962D01*
X77096707Y-56358693D01*
X77074310Y-56412765D01*
X76728571Y-56412765D01*
X76728571Y-56299171D01*
X76725689Y-56269907D01*
X76703291Y-56215835D01*
X76661907Y-56174451D01*
X76607835Y-56152053D01*
X76578571Y-56149171D01*
X75864285Y-56149171D01*
X75835021Y-56152053D01*
X75780949Y-56174451D01*
X75739565Y-56215835D01*
X75717167Y-56269907D01*
X75511403Y-56269907D01*
X75489005Y-56215835D01*
X75447621Y-56174451D01*
X75393549Y-56152053D01*
X75364285Y-56149171D01*
X74649999Y-56149171D01*
X74620735Y-56152053D01*
X74566663Y-56174451D01*
X74525279Y-56215835D01*
X74502881Y-56269907D01*
X74366836Y-56269907D01*
X74366100Y-56259551D01*
X74339926Y-56207204D01*
X74295712Y-56168857D01*
X74240188Y-56150348D01*
X74181808Y-56154498D01*
X74129460Y-56180671D01*
X74091113Y-56224886D01*
X74079125Y-56251737D01*
X73970457Y-56577742D01*
X73472398Y-56577742D01*
X73363729Y-56251737D01*
X73351741Y-56224886D01*
X73313394Y-56180672D01*
X73261047Y-56154498D01*
X73202666Y-56150349D01*
X73147142Y-56168857D01*
X73102928Y-56207204D01*
X73076754Y-56259551D01*
X73072605Y-56317932D01*
X72871428Y-56317932D01*
X72871428Y-56299171D01*
X72868546Y-56269907D01*
X72846148Y-56215835D01*
X72804764Y-56174451D01*
X72750692Y-56152053D01*
X72692164Y-56152053D01*
X72638092Y-56174451D01*
X72596708Y-56215835D01*
X72574310Y-56269907D01*
X72571428Y-56299171D01*
X72571428Y-56863457D01*
X72442383Y-56863457D01*
X71987170Y-56213152D01*
X71968027Y-56190830D01*
X71918670Y-56159377D01*
X71861034Y-56149206D01*
X71803892Y-56161865D01*
X71755944Y-56195429D01*
X71724491Y-56244786D01*
X71714320Y-56302422D01*
X71726979Y-56359564D01*
X71741400Y-56385190D01*
X72086352Y-56877978D01*
X72082918Y-56879293D01*
X71940060Y-56950721D01*
X71927468Y-56958647D01*
X71923807Y-56960164D01*
X71919684Y-56963547D01*
X71915175Y-56966386D01*
X71912580Y-56969377D01*
X71901076Y-56978819D01*
X71829647Y-57050248D01*
X71820207Y-57061749D01*
X71817214Y-57064346D01*
X71814373Y-57068859D01*
X71810992Y-57072979D01*
X71809476Y-57076638D01*
X71801549Y-57089232D01*
X71730121Y-57232089D01*
X71719611Y-57259553D01*
X71719229Y-57264928D01*
X71717167Y-57269907D01*
X71714285Y-57299171D01*
X71547618Y-57299171D01*
X71547618Y-55982504D01*
X82180952Y-55982504D01*
X82180952Y-58115838D01*
G37*
G36*
X92794938Y-120356873D02*
G01*
X92891205Y-120453140D01*
X92935912Y-120542552D01*
X92935912Y-120757447D01*
X92891206Y-120846860D01*
X92794938Y-120943127D01*
X92567448Y-121000000D01*
X92104376Y-121000000D01*
X91876885Y-120943127D01*
X91780619Y-120846861D01*
X91735912Y-120757447D01*
X91735912Y-120542553D01*
X91780619Y-120453139D01*
X91876885Y-120356873D01*
X92104376Y-120300000D01*
X92567447Y-120300000D01*
X92794938Y-120356873D01*
G37*
G36*
X94554830Y-119094705D02*
G01*
X94591835Y-119131710D01*
X94636542Y-119221123D01*
X94636542Y-119607143D01*
X94150828Y-119607143D01*
X94150828Y-119221124D01*
X94195535Y-119131709D01*
X94232539Y-119094705D01*
X94321952Y-119050000D01*
X94465418Y-119050000D01*
X94554830Y-119094705D01*
G37*
G36*
X92139914Y-116130419D02*
G01*
X92176919Y-116167424D01*
X92221626Y-116256837D01*
X92221626Y-116642857D01*
X91735912Y-116642857D01*
X91735912Y-116256838D01*
X91780619Y-116167423D01*
X91817623Y-116130419D01*
X91907036Y-116085714D01*
X92050502Y-116085714D01*
X92139914Y-116130419D01*
G37*
G36*
X92794938Y-114571158D02*
G01*
X92891205Y-114667425D01*
X92935912Y-114756837D01*
X92935912Y-114971732D01*
X92891206Y-115061145D01*
X92794938Y-115157412D01*
X92567448Y-115214285D01*
X92104376Y-115214285D01*
X91876885Y-115157412D01*
X91780619Y-115061146D01*
X91735912Y-114971732D01*
X91735912Y-114756838D01*
X91780619Y-114667424D01*
X91876885Y-114571158D01*
X92104376Y-114514285D01*
X92567447Y-114514285D01*
X92794938Y-114571158D01*
G37*
G36*
X94483403Y-109808991D02*
G01*
X94520406Y-109845995D01*
X94565114Y-109935409D01*
X94565114Y-110249999D01*
X94150828Y-110249999D01*
X94150828Y-109935409D01*
X94195535Y-109845994D01*
X94232539Y-109808990D01*
X94321952Y-109764284D01*
X94393990Y-109764284D01*
X94483403Y-109808991D01*
G37*
G36*
X95269116Y-109737561D02*
G01*
X95306121Y-109774566D01*
X95350828Y-109863979D01*
X95350828Y-110249999D01*
X94865114Y-110249999D01*
X94865114Y-109924341D01*
X94917647Y-109766739D01*
X94946824Y-109737562D01*
X95036238Y-109692856D01*
X95179704Y-109692856D01*
X95269116Y-109737561D01*
G37*
G36*
X95817495Y-126502382D02*
G01*
X91269245Y-126502382D01*
X91269245Y-125471429D01*
X93850828Y-125471429D01*
X93850828Y-126185715D01*
X93853710Y-126214979D01*
X93876108Y-126269051D01*
X93917492Y-126310435D01*
X93971564Y-126332833D01*
X94000828Y-126335715D01*
X95500828Y-126335715D01*
X95530092Y-126332833D01*
X95584164Y-126310435D01*
X95625548Y-126269051D01*
X95647946Y-126214979D01*
X95647946Y-126156451D01*
X95625548Y-126102379D01*
X95584164Y-126060995D01*
X95530092Y-126038597D01*
X95500828Y-126035715D01*
X94865114Y-126035715D01*
X94865114Y-125685715D01*
X94862232Y-125656451D01*
X94839834Y-125602379D01*
X94798450Y-125560995D01*
X94744378Y-125538597D01*
X94685850Y-125538597D01*
X94631778Y-125560995D01*
X94590394Y-125602379D01*
X94567996Y-125656451D01*
X94565114Y-125685715D01*
X94565114Y-126035715D01*
X94150828Y-126035715D01*
X94150828Y-125471429D01*
X94147946Y-125442165D01*
X94125548Y-125388093D01*
X94084164Y-125346709D01*
X94030092Y-125324311D01*
X93971564Y-125324311D01*
X93917492Y-125346709D01*
X93876108Y-125388093D01*
X93853710Y-125442165D01*
X93850828Y-125471429D01*
X91269245Y-125471429D01*
X91269245Y-124870737D01*
X93853710Y-124870737D01*
X93853710Y-124929265D01*
X93876108Y-124983337D01*
X93917492Y-125024721D01*
X93971564Y-125047119D01*
X94000828Y-125050001D01*
X95500828Y-125050001D01*
X95530092Y-125047119D01*
X95584164Y-125024721D01*
X95625548Y-124983337D01*
X95647946Y-124929265D01*
X95647946Y-124870737D01*
X95625548Y-124816665D01*
X95584164Y-124775281D01*
X95530092Y-124752883D01*
X95500828Y-124750001D01*
X94000828Y-124750001D01*
X93971564Y-124752883D01*
X93917492Y-124775281D01*
X93876108Y-124816665D01*
X93853710Y-124870737D01*
X91269245Y-124870737D01*
X91269245Y-124175238D01*
X93851194Y-124175238D01*
X93853710Y-124195029D01*
X93853710Y-124214979D01*
X93857369Y-124223812D01*
X93858575Y-124233298D01*
X93868473Y-124250620D01*
X93876108Y-124269051D01*
X93882868Y-124275811D01*
X93887613Y-124284114D01*
X93903384Y-124296327D01*
X93917492Y-124310435D01*
X93926327Y-124314094D01*
X93933887Y-124319949D01*
X93953131Y-124325197D01*
X93971564Y-124332833D01*
X93986530Y-124334306D01*
X93990351Y-124335349D01*
X93993302Y-124334973D01*
X94000828Y-124335715D01*
X95500828Y-124335715D01*
X95530092Y-124332833D01*
X95584164Y-124310435D01*
X95625548Y-124269051D01*
X95647946Y-124214979D01*
X95647946Y-124156451D01*
X95625548Y-124102379D01*
X95584164Y-124060995D01*
X95530092Y-124038597D01*
X95500828Y-124035715D01*
X94565662Y-124035715D01*
X95575249Y-123458808D01*
X95581416Y-123454430D01*
X95584164Y-123453292D01*
X95586963Y-123450492D01*
X95599227Y-123441787D01*
X95611442Y-123426013D01*
X95625548Y-123411908D01*
X95629206Y-123403074D01*
X95635063Y-123395513D01*
X95640312Y-123376264D01*
X95647946Y-123357836D01*
X95647946Y-123348274D01*
X95650462Y-123339049D01*
X95647946Y-123319257D01*
X95647946Y-123299308D01*
X95644286Y-123290474D01*
X95643081Y-123280989D01*
X95633182Y-123263666D01*
X95625548Y-123245236D01*
X95618787Y-123238475D01*
X95614043Y-123230173D01*
X95598271Y-123217959D01*
X95584164Y-123203852D01*
X95575328Y-123200192D01*
X95567769Y-123194338D01*
X95548524Y-123189089D01*
X95530092Y-123181454D01*
X95515127Y-123179980D01*
X95511306Y-123178938D01*
X95508354Y-123179313D01*
X95500828Y-123178572D01*
X94000828Y-123178572D01*
X93971564Y-123181454D01*
X93917492Y-123203852D01*
X93876108Y-123245236D01*
X93853710Y-123299308D01*
X93853710Y-123357836D01*
X93876108Y-123411908D01*
X93917492Y-123453292D01*
X93971564Y-123475690D01*
X94000828Y-123478572D01*
X94935993Y-123478572D01*
X93926407Y-124055479D01*
X93920239Y-124059856D01*
X93917492Y-124060995D01*
X93914692Y-124063794D01*
X93902429Y-124072500D01*
X93890215Y-124088271D01*
X93876108Y-124102379D01*
X93872448Y-124111214D01*
X93866594Y-124118774D01*
X93861345Y-124138018D01*
X93853710Y-124156451D01*
X93853710Y-124166013D01*
X93851194Y-124175238D01*
X91269245Y-124175238D01*
X91269245Y-122007143D01*
X91435912Y-122007143D01*
X91435912Y-122150000D01*
X91437370Y-122164811D01*
X91437090Y-122168761D01*
X91438271Y-122173955D01*
X91438794Y-122179264D01*
X91440311Y-122182926D01*
X91443610Y-122197434D01*
X91515038Y-122411720D01*
X91527027Y-122438571D01*
X91530557Y-122442641D01*
X91532620Y-122447621D01*
X91551275Y-122470352D01*
X91694132Y-122613209D01*
X91705634Y-122622649D01*
X91708230Y-122625642D01*
X91712739Y-122628480D01*
X91716862Y-122631864D01*
X91720524Y-122633380D01*
X91733116Y-122641307D01*
X91875972Y-122712736D01*
X91878114Y-122713555D01*
X91878984Y-122714200D01*
X91891255Y-122718584D01*
X91903436Y-122723245D01*
X91904516Y-122723321D01*
X91906675Y-122724093D01*
X92192389Y-122795521D01*
X92197460Y-122796270D01*
X92199505Y-122797118D01*
X92210527Y-122798203D01*
X92221478Y-122799823D01*
X92223665Y-122799497D01*
X92228769Y-122800000D01*
X92443055Y-122800000D01*
X92448158Y-122799497D01*
X92450346Y-122799823D01*
X92461296Y-122798203D01*
X92472319Y-122797118D01*
X92474363Y-122796270D01*
X92479435Y-122795521D01*
X92765149Y-122724093D01*
X92767307Y-122723321D01*
X92768388Y-122723245D01*
X92780562Y-122718586D01*
X92792840Y-122714200D01*
X92793710Y-122713555D01*
X92795851Y-122712736D01*
X92938708Y-122641307D01*
X92951301Y-122633379D01*
X92954961Y-122631864D01*
X92959080Y-122628482D01*
X92963594Y-122625642D01*
X92966190Y-122622648D01*
X92977692Y-122613209D01*
X93120550Y-122470352D01*
X93139205Y-122447622D01*
X93141267Y-122442642D01*
X93144799Y-122438571D01*
X93156787Y-122411720D01*
X93228215Y-122197434D01*
X93231514Y-122182921D01*
X93233030Y-122179264D01*
X93233552Y-122173961D01*
X93234735Y-122168760D01*
X93234453Y-122164805D01*
X93235912Y-122150000D01*
X93235912Y-122007143D01*
X93234453Y-121992337D01*
X93234735Y-121988383D01*
X93233552Y-121983181D01*
X93233030Y-121977879D01*
X93231514Y-121974221D01*
X93230879Y-121971429D01*
X93850828Y-121971429D01*
X93850828Y-122185714D01*
X93852286Y-122200525D01*
X93852006Y-122204475D01*
X93853187Y-122209669D01*
X93853710Y-122214978D01*
X93855227Y-122218640D01*
X93858526Y-122233148D01*
X93929954Y-122447434D01*
X93941943Y-122474285D01*
X93945473Y-122478355D01*
X93947536Y-122483335D01*
X93966191Y-122506066D01*
X94109048Y-122648923D01*
X94120550Y-122658363D01*
X94123146Y-122661356D01*
X94127655Y-122664194D01*
X94131778Y-122667578D01*
X94135440Y-122669094D01*
X94148032Y-122677021D01*
X94290888Y-122748450D01*
X94293030Y-122749269D01*
X94293900Y-122749914D01*
X94306171Y-122754298D01*
X94318352Y-122758959D01*
X94319432Y-122759035D01*
X94321591Y-122759807D01*
X94607305Y-122831235D01*
X94612376Y-122831984D01*
X94614421Y-122832832D01*
X94625443Y-122833917D01*
X94636394Y-122835537D01*
X94638581Y-122835211D01*
X94643685Y-122835714D01*
X94857971Y-122835714D01*
X94863074Y-122835211D01*
X94865262Y-122835537D01*
X94876212Y-122833917D01*
X94887235Y-122832832D01*
X94889279Y-122831984D01*
X94894351Y-122831235D01*
X95180065Y-122759807D01*
X95182223Y-122759035D01*
X95183304Y-122758959D01*
X95195478Y-122754300D01*
X95207756Y-122749914D01*
X95208626Y-122749269D01*
X95210767Y-122748450D01*
X95353624Y-122677021D01*
X95366217Y-122669093D01*
X95369877Y-122667578D01*
X95373996Y-122664196D01*
X95378510Y-122661356D01*
X95381106Y-122658362D01*
X95392608Y-122648923D01*
X95535466Y-122506066D01*
X95554121Y-122483336D01*
X95556183Y-122478356D01*
X95559715Y-122474285D01*
X95571703Y-122447434D01*
X95643131Y-122233148D01*
X95646430Y-122218635D01*
X95647946Y-122214978D01*
X95648468Y-122209675D01*
X95649651Y-122204474D01*
X95649369Y-122200519D01*
X95650828Y-122185714D01*
X95650828Y-122042857D01*
X95649369Y-122028051D01*
X95649651Y-122024097D01*
X95648468Y-122018895D01*
X95647946Y-122013593D01*
X95646430Y-122009935D01*
X95643131Y-121995423D01*
X95571703Y-121781137D01*
X95559715Y-121754286D01*
X95556181Y-121750211D01*
X95554120Y-121745235D01*
X95535465Y-121722504D01*
X95464036Y-121651076D01*
X95441310Y-121632426D01*
X95441307Y-121632423D01*
X95387235Y-121610025D01*
X95357971Y-121607143D01*
X94857971Y-121607143D01*
X94828707Y-121610025D01*
X94774635Y-121632423D01*
X94733251Y-121673807D01*
X94710853Y-121727879D01*
X94707971Y-121757143D01*
X94707971Y-122042857D01*
X94710853Y-122072121D01*
X94733251Y-122126193D01*
X94774635Y-122167577D01*
X94828707Y-122189975D01*
X94887235Y-122189975D01*
X94941307Y-122167577D01*
X94982691Y-122126193D01*
X95005089Y-122072121D01*
X95007971Y-122042857D01*
X95007971Y-121907143D01*
X95295840Y-121907143D01*
X95298294Y-121909597D01*
X95350828Y-122067199D01*
X95350828Y-122161371D01*
X95298294Y-122318973D01*
X95197688Y-122419578D01*
X95091328Y-122472759D01*
X94839507Y-122535714D01*
X94662149Y-122535714D01*
X94410327Y-122472758D01*
X94303968Y-122419579D01*
X94203361Y-122318972D01*
X94150828Y-122161373D01*
X94150828Y-122006839D01*
X94206421Y-121895653D01*
X94216931Y-121868190D01*
X94221079Y-121809810D01*
X94202571Y-121754287D01*
X94164225Y-121710072D01*
X94111876Y-121683897D01*
X94053495Y-121679749D01*
X93997973Y-121698257D01*
X93953758Y-121736603D01*
X93938093Y-121761489D01*
X93866664Y-121904347D01*
X93856154Y-121931810D01*
X93855771Y-121937187D01*
X93853710Y-121942165D01*
X93850828Y-121971429D01*
X93230879Y-121971429D01*
X93228215Y-121959709D01*
X93156787Y-121745423D01*
X93144799Y-121718572D01*
X93141265Y-121714497D01*
X93139204Y-121709521D01*
X93120549Y-121686790D01*
X93049120Y-121615362D01*
X93026389Y-121596708D01*
X92972317Y-121574311D01*
X92913791Y-121574311D01*
X92859719Y-121596709D01*
X92818334Y-121638095D01*
X92795937Y-121692167D01*
X92795937Y-121750693D01*
X92818335Y-121804765D01*
X92836990Y-121827496D01*
X92883378Y-121873883D01*
X92935912Y-122031485D01*
X92935912Y-122125657D01*
X92883378Y-122283259D01*
X92782772Y-122383864D01*
X92676412Y-122437045D01*
X92424591Y-122500000D01*
X92247233Y-122500000D01*
X91995411Y-122437044D01*
X91889052Y-122383865D01*
X91788445Y-122283258D01*
X91735912Y-122125659D01*
X91735912Y-122031483D01*
X91788445Y-121873884D01*
X91834835Y-121827495D01*
X91853490Y-121804765D01*
X91875886Y-121750692D01*
X91875886Y-121692166D01*
X91853490Y-121638094D01*
X91812104Y-121596708D01*
X91758032Y-121574312D01*
X91699506Y-121574312D01*
X91645433Y-121596708D01*
X91622703Y-121615363D01*
X91551275Y-121686791D01*
X91532620Y-121709522D01*
X91530557Y-121714501D01*
X91527027Y-121718572D01*
X91515038Y-121745423D01*
X91443610Y-121959709D01*
X91440311Y-121974216D01*
X91438794Y-121977879D01*
X91438271Y-121983187D01*
X91437090Y-121988382D01*
X91437370Y-121992331D01*
X91435912Y-122007143D01*
X91269245Y-122007143D01*
X91269245Y-120507143D01*
X91435912Y-120507143D01*
X91435912Y-120792857D01*
X91438794Y-120822121D01*
X91440855Y-120827098D01*
X91441238Y-120832476D01*
X91451748Y-120859939D01*
X91523177Y-121002797D01*
X91531104Y-121015390D01*
X91532620Y-121019050D01*
X91536001Y-121023169D01*
X91538842Y-121027683D01*
X91541835Y-121030279D01*
X91551275Y-121041781D01*
X91694132Y-121184638D01*
X91716862Y-121203293D01*
X91727167Y-121207561D01*
X91736127Y-121214200D01*
X91763818Y-121224093D01*
X92049532Y-121295521D01*
X92054603Y-121296270D01*
X92056648Y-121297118D01*
X92067670Y-121298203D01*
X92078621Y-121299823D01*
X92080808Y-121299497D01*
X92085912Y-121300000D01*
X92585912Y-121300000D01*
X92591015Y-121299497D01*
X92593203Y-121299823D01*
X92604153Y-121298203D01*
X92615176Y-121297118D01*
X92617220Y-121296270D01*
X92622292Y-121295521D01*
X92908006Y-121224093D01*
X92935697Y-121214200D01*
X92944657Y-121207560D01*
X92954961Y-121203293D01*
X92977692Y-121184638D01*
X93120550Y-121041781D01*
X93129990Y-121030277D01*
X93132984Y-121027682D01*
X93135822Y-121023172D01*
X93139205Y-121019051D01*
X93140722Y-121015388D01*
X93148648Y-121002796D01*
X93220077Y-120859938D01*
X93230586Y-120832475D01*
X93230967Y-120827099D01*
X93233030Y-120822121D01*
X93235912Y-120792857D01*
X93235912Y-120507143D01*
X93233030Y-120477879D01*
X93230967Y-120472900D01*
X93230586Y-120467525D01*
X93220076Y-120440062D01*
X93200045Y-120400000D01*
X93850828Y-120400000D01*
X93850828Y-121114286D01*
X93853710Y-121143550D01*
X93876108Y-121197622D01*
X93917492Y-121239006D01*
X93971564Y-121261404D01*
X94000828Y-121264286D01*
X95500828Y-121264286D01*
X95530092Y-121261404D01*
X95584164Y-121239006D01*
X95625548Y-121197622D01*
X95647946Y-121143550D01*
X95650828Y-121114286D01*
X95650828Y-120400000D01*
X95647946Y-120370736D01*
X95625548Y-120316664D01*
X95584164Y-120275280D01*
X95530092Y-120252882D01*
X95471564Y-120252882D01*
X95417492Y-120275280D01*
X95376108Y-120316664D01*
X95353710Y-120370736D01*
X95350828Y-120400000D01*
X95350828Y-120964286D01*
X94865114Y-120964286D01*
X94865114Y-120614286D01*
X94862232Y-120585022D01*
X94839834Y-120530950D01*
X94798450Y-120489566D01*
X94744378Y-120467168D01*
X94685850Y-120467168D01*
X94631778Y-120489566D01*
X94590394Y-120530950D01*
X94567996Y-120585022D01*
X94565114Y-120614286D01*
X94565114Y-120964286D01*
X94150828Y-120964286D01*
X94150828Y-120400000D01*
X94147946Y-120370736D01*
X94125548Y-120316664D01*
X94084164Y-120275280D01*
X94030092Y-120252882D01*
X93971564Y-120252882D01*
X93917492Y-120275280D01*
X93876108Y-120316664D01*
X93853710Y-120370736D01*
X93850828Y-120400000D01*
X93200045Y-120400000D01*
X93148648Y-120297204D01*
X93140722Y-120284613D01*
X93139205Y-120280950D01*
X93135819Y-120276824D01*
X93132983Y-120272319D01*
X93129993Y-120269726D01*
X93120550Y-120258220D01*
X92977692Y-120115363D01*
X92954961Y-120096708D01*
X92944657Y-120092440D01*
X92935697Y-120085801D01*
X92908006Y-120075908D01*
X92622293Y-120004479D01*
X92617220Y-120003728D01*
X92615176Y-120002882D01*
X92604154Y-120001796D01*
X92593203Y-120000177D01*
X92591015Y-120000502D01*
X92585912Y-120000000D01*
X92085912Y-120000000D01*
X92080808Y-120000502D01*
X92078620Y-120000177D01*
X92067667Y-120001796D01*
X92056648Y-120002882D01*
X92054603Y-120003728D01*
X92049531Y-120004479D01*
X91763817Y-120075908D01*
X91736126Y-120085801D01*
X91727165Y-120092440D01*
X91716862Y-120096708D01*
X91694132Y-120115363D01*
X91551275Y-120258220D01*
X91541835Y-120269721D01*
X91538842Y-120272318D01*
X91536001Y-120276831D01*
X91532620Y-120280951D01*
X91531104Y-120284610D01*
X91523177Y-120297204D01*
X91451748Y-120440061D01*
X91441239Y-120467524D01*
X91440857Y-120472898D01*
X91438794Y-120477879D01*
X91435912Y-120507143D01*
X91269245Y-120507143D01*
X91269245Y-119496666D01*
X91436278Y-119496666D01*
X91438794Y-119516457D01*
X91438794Y-119536407D01*
X91442453Y-119545240D01*
X91443659Y-119554726D01*
X91453557Y-119572048D01*
X91461192Y-119590479D01*
X91467952Y-119597239D01*
X91472697Y-119605542D01*
X91488468Y-119617755D01*
X91502576Y-119631863D01*
X91511411Y-119635522D01*
X91518971Y-119641377D01*
X91538215Y-119646625D01*
X91556648Y-119654261D01*
X91571614Y-119655734D01*
X91575435Y-119656777D01*
X91578386Y-119656401D01*
X91585912Y-119657143D01*
X93085912Y-119657143D01*
X93115176Y-119654261D01*
X93169248Y-119631863D01*
X93210632Y-119590479D01*
X93233030Y-119536407D01*
X93233030Y-119477879D01*
X93210632Y-119423807D01*
X93169248Y-119382423D01*
X93115176Y-119360025D01*
X93085912Y-119357143D01*
X92150746Y-119357143D01*
X92450747Y-119185714D01*
X93850828Y-119185714D01*
X93850828Y-119757143D01*
X93853710Y-119786407D01*
X93876108Y-119840479D01*
X93917492Y-119881863D01*
X93971564Y-119904261D01*
X94000828Y-119907143D01*
X95500828Y-119907143D01*
X95530092Y-119904261D01*
X95584164Y-119881863D01*
X95625548Y-119840479D01*
X95647946Y-119786407D01*
X95647946Y-119727879D01*
X95625548Y-119673807D01*
X95584164Y-119632423D01*
X95530092Y-119610025D01*
X95500828Y-119607143D01*
X94936542Y-119607143D01*
X94936542Y-119478098D01*
X95586847Y-119022885D01*
X95609169Y-119003742D01*
X95640622Y-118954385D01*
X95650793Y-118896749D01*
X95638134Y-118839607D01*
X95604570Y-118791659D01*
X95555213Y-118760206D01*
X95497577Y-118750035D01*
X95440435Y-118762694D01*
X95414809Y-118777115D01*
X94922020Y-119122067D01*
X94920706Y-119118633D01*
X94849278Y-118975775D01*
X94841351Y-118963183D01*
X94839835Y-118959522D01*
X94836451Y-118955399D01*
X94833613Y-118950890D01*
X94830621Y-118948295D01*
X94821180Y-118936791D01*
X94749751Y-118865362D01*
X94738249Y-118855922D01*
X94735653Y-118852929D01*
X94731139Y-118850088D01*
X94727020Y-118846707D01*
X94723360Y-118845191D01*
X94710767Y-118837264D01*
X94567910Y-118765836D01*
X94540446Y-118755326D01*
X94535070Y-118754944D01*
X94530092Y-118752882D01*
X94500828Y-118750000D01*
X94286542Y-118750000D01*
X94257278Y-118752882D01*
X94252299Y-118754944D01*
X94246924Y-118755326D01*
X94219461Y-118765836D01*
X94076603Y-118837264D01*
X94064008Y-118845192D01*
X94060349Y-118846708D01*
X94056228Y-118850089D01*
X94051718Y-118852929D01*
X94049123Y-118855920D01*
X94037618Y-118865363D01*
X93966190Y-118936792D01*
X93956752Y-118948291D01*
X93953758Y-118950889D01*
X93950915Y-118955405D01*
X93947536Y-118959523D01*
X93946021Y-118963179D01*
X93938093Y-118975775D01*
X93866664Y-119118632D01*
X93856155Y-119146095D01*
X93855773Y-119151469D01*
X93853710Y-119156450D01*
X93850828Y-119185714D01*
X92450747Y-119185714D01*
X93160333Y-118780236D01*
X93166500Y-118775858D01*
X93169248Y-118774720D01*
X93172047Y-118771920D01*
X93184311Y-118763215D01*
X93196526Y-118747441D01*
X93210632Y-118733336D01*
X93214290Y-118724502D01*
X93220147Y-118716941D01*
X93225396Y-118697692D01*
X93233030Y-118679264D01*
X93233030Y-118669702D01*
X93235546Y-118660477D01*
X93233030Y-118640685D01*
X93233030Y-118620736D01*
X93229370Y-118611902D01*
X93228165Y-118602417D01*
X93218266Y-118585094D01*
X93210632Y-118566664D01*
X93203871Y-118559903D01*
X93199127Y-118551601D01*
X93183355Y-118539387D01*
X93169248Y-118525280D01*
X93160412Y-118521620D01*
X93152853Y-118515766D01*
X93133608Y-118510517D01*
X93115176Y-118502882D01*
X93100211Y-118501408D01*
X93096390Y-118500366D01*
X93093438Y-118500741D01*
X93085912Y-118500000D01*
X91585912Y-118500000D01*
X91556648Y-118502882D01*
X91502576Y-118525280D01*
X91461192Y-118566664D01*
X91438794Y-118620736D01*
X91438794Y-118679264D01*
X91461192Y-118733336D01*
X91502576Y-118774720D01*
X91556648Y-118797118D01*
X91585912Y-118800000D01*
X92521077Y-118800000D01*
X91511491Y-119376907D01*
X91505323Y-119381284D01*
X91502576Y-119382423D01*
X91499776Y-119385222D01*
X91487513Y-119393928D01*
X91475299Y-119409699D01*
X91461192Y-119423807D01*
X91457532Y-119432642D01*
X91451678Y-119440202D01*
X91446429Y-119459446D01*
X91438794Y-119477879D01*
X91438794Y-119487441D01*
X91436278Y-119496666D01*
X91269245Y-119496666D01*
X91269245Y-117292857D01*
X91435912Y-117292857D01*
X91435912Y-118149999D01*
X91438794Y-118179263D01*
X91461192Y-118233335D01*
X91502576Y-118274719D01*
X91556648Y-118297117D01*
X91615176Y-118297117D01*
X91669248Y-118274719D01*
X91710632Y-118233335D01*
X91733030Y-118179263D01*
X91735912Y-118149999D01*
X91735912Y-117871428D01*
X93085912Y-117871428D01*
X93115176Y-117868546D01*
X93169248Y-117846148D01*
X93210632Y-117804764D01*
X93233030Y-117750692D01*
X93233030Y-117692164D01*
X93210632Y-117638092D01*
X93169248Y-117596708D01*
X93115176Y-117574310D01*
X93085912Y-117571428D01*
X91735912Y-117571428D01*
X91735912Y-117292857D01*
X91733030Y-117263593D01*
X91710632Y-117209521D01*
X91669248Y-117168137D01*
X91615176Y-117145739D01*
X91556648Y-117145739D01*
X91502576Y-117168137D01*
X91461192Y-117209521D01*
X91438794Y-117263593D01*
X91435912Y-117292857D01*
X91269245Y-117292857D01*
X91269245Y-117114286D01*
X94779400Y-117114286D01*
X94779400Y-118257143D01*
X94782282Y-118286407D01*
X94804680Y-118340479D01*
X94846064Y-118381863D01*
X94900136Y-118404261D01*
X94958664Y-118404261D01*
X95012736Y-118381863D01*
X95054120Y-118340479D01*
X95076518Y-118286407D01*
X95079400Y-118257143D01*
X95079400Y-117114286D01*
X95076518Y-117085022D01*
X95054120Y-117030950D01*
X95012736Y-116989566D01*
X94958664Y-116967168D01*
X94900136Y-116967168D01*
X94846064Y-116989566D01*
X94804680Y-117030950D01*
X94782282Y-117085022D01*
X94779400Y-117114286D01*
X91269245Y-117114286D01*
X91269245Y-116221428D01*
X91435912Y-116221428D01*
X91435912Y-116792857D01*
X91438794Y-116822121D01*
X91461192Y-116876193D01*
X91502576Y-116917577D01*
X91556648Y-116939975D01*
X91585912Y-116942857D01*
X93085912Y-116942857D01*
X93115176Y-116939975D01*
X93169248Y-116917577D01*
X93210632Y-116876193D01*
X93233030Y-116822121D01*
X93233030Y-116763593D01*
X93210632Y-116709521D01*
X93169248Y-116668137D01*
X93115176Y-116645739D01*
X93085912Y-116642857D01*
X92521626Y-116642857D01*
X92521626Y-116513812D01*
X93171931Y-116058599D01*
X93194253Y-116039456D01*
X93225706Y-115990099D01*
X93235877Y-115932463D01*
X93223218Y-115875321D01*
X93189654Y-115827373D01*
X93140297Y-115795920D01*
X93082661Y-115785749D01*
X93025519Y-115798408D01*
X92999893Y-115812829D01*
X92507104Y-116157781D01*
X92505790Y-116154347D01*
X92434362Y-116011489D01*
X92426435Y-115998897D01*
X92424919Y-115995236D01*
X92421535Y-115991113D01*
X92418697Y-115986604D01*
X92415705Y-115984009D01*
X92406264Y-115972505D01*
X92334835Y-115901076D01*
X92323333Y-115891636D01*
X92320737Y-115888643D01*
X92316223Y-115885802D01*
X92312104Y-115882421D01*
X92308444Y-115880905D01*
X92295851Y-115872978D01*
X92152994Y-115801550D01*
X92125530Y-115791040D01*
X92120154Y-115790658D01*
X92115176Y-115788596D01*
X92085912Y-115785714D01*
X91871626Y-115785714D01*
X91842362Y-115788596D01*
X91837383Y-115790658D01*
X91832008Y-115791040D01*
X91804545Y-115801550D01*
X91661687Y-115872978D01*
X91649092Y-115880906D01*
X91645433Y-115882422D01*
X91641312Y-115885803D01*
X91636802Y-115888643D01*
X91634207Y-115891634D01*
X91622702Y-115901077D01*
X91551274Y-115972506D01*
X91541836Y-115984005D01*
X91538842Y-115986603D01*
X91535999Y-115991119D01*
X91532620Y-115995237D01*
X91531105Y-115998893D01*
X91523177Y-116011489D01*
X91451748Y-116154346D01*
X91441239Y-116181809D01*
X91440857Y-116187183D01*
X91438794Y-116192164D01*
X91435912Y-116221428D01*
X91269245Y-116221428D01*
X91269245Y-115757143D01*
X93850828Y-115757143D01*
X93850828Y-116614285D01*
X93853710Y-116643549D01*
X93876108Y-116697621D01*
X93917492Y-116739005D01*
X93971564Y-116761403D01*
X94030092Y-116761403D01*
X94084164Y-116739005D01*
X94125548Y-116697621D01*
X94147946Y-116643549D01*
X94150828Y-116614285D01*
X94150828Y-116335714D01*
X95500828Y-116335714D01*
X95530092Y-116332832D01*
X95584164Y-116310434D01*
X95625548Y-116269050D01*
X95647946Y-116214978D01*
X95647946Y-116156450D01*
X95625548Y-116102378D01*
X95584164Y-116060994D01*
X95530092Y-116038596D01*
X95500828Y-116035714D01*
X94150828Y-116035714D01*
X94150828Y-115757143D01*
X94147946Y-115727879D01*
X94125548Y-115673807D01*
X94084164Y-115632423D01*
X94030092Y-115610025D01*
X93971564Y-115610025D01*
X93917492Y-115632423D01*
X93876108Y-115673807D01*
X93853710Y-115727879D01*
X93850828Y-115757143D01*
X91269245Y-115757143D01*
X91269245Y-114721428D01*
X91435912Y-114721428D01*
X91435912Y-115007142D01*
X91438794Y-115036406D01*
X91440855Y-115041383D01*
X91441238Y-115046761D01*
X91451748Y-115074224D01*
X91523177Y-115217082D01*
X91531104Y-115229675D01*
X91532620Y-115233335D01*
X91536001Y-115237454D01*
X91538842Y-115241968D01*
X91541835Y-115244564D01*
X91551275Y-115256066D01*
X91694132Y-115398923D01*
X91716862Y-115417578D01*
X91727167Y-115421846D01*
X91736127Y-115428485D01*
X91763818Y-115438378D01*
X92049532Y-115509806D01*
X92054603Y-115510555D01*
X92056648Y-115511403D01*
X92067670Y-115512488D01*
X92078621Y-115514108D01*
X92080808Y-115513782D01*
X92085912Y-115514285D01*
X92585912Y-115514285D01*
X92591015Y-115513782D01*
X92593203Y-115514108D01*
X92604153Y-115512488D01*
X92615176Y-115511403D01*
X92617220Y-115510555D01*
X92622292Y-115509806D01*
X92908006Y-115438378D01*
X92935697Y-115428485D01*
X92944657Y-115421845D01*
X92954961Y-115417578D01*
X92977692Y-115398923D01*
X93120550Y-115256066D01*
X93129990Y-115244562D01*
X93132984Y-115241967D01*
X93135822Y-115237457D01*
X93139205Y-115233336D01*
X93140722Y-115229673D01*
X93148648Y-115217081D01*
X93220077Y-115074223D01*
X93230586Y-115046760D01*
X93230967Y-115041384D01*
X93233030Y-115036406D01*
X93235912Y-115007142D01*
X93235912Y-114721428D01*
X93233030Y-114692164D01*
X93230967Y-114687185D01*
X93230586Y-114681810D01*
X93220076Y-114654347D01*
X93148648Y-114511489D01*
X93140722Y-114498898D01*
X93139205Y-114495235D01*
X93135819Y-114491109D01*
X93132983Y-114486604D01*
X93129993Y-114484011D01*
X93120550Y-114472505D01*
X93018780Y-114370736D01*
X93853710Y-114370736D01*
X93853710Y-114429264D01*
X93876108Y-114483336D01*
X93917492Y-114524720D01*
X93971564Y-114547118D01*
X94000828Y-114550000D01*
X94565114Y-114550000D01*
X94565114Y-115107143D01*
X94000828Y-115107143D01*
X93971564Y-115110025D01*
X93917492Y-115132423D01*
X93876108Y-115173807D01*
X93853710Y-115227879D01*
X93853710Y-115286407D01*
X93876108Y-115340479D01*
X93917492Y-115381863D01*
X93971564Y-115404261D01*
X94000828Y-115407143D01*
X95500828Y-115407143D01*
X95530092Y-115404261D01*
X95584164Y-115381863D01*
X95625548Y-115340479D01*
X95647946Y-115286407D01*
X95647946Y-115227879D01*
X95625548Y-115173807D01*
X95584164Y-115132423D01*
X95530092Y-115110025D01*
X95500828Y-115107143D01*
X94865114Y-115107143D01*
X94865114Y-114550000D01*
X95500828Y-114550000D01*
X95530092Y-114547118D01*
X95584164Y-114524720D01*
X95625548Y-114483336D01*
X95647946Y-114429264D01*
X95647946Y-114370736D01*
X95625548Y-114316664D01*
X95584164Y-114275280D01*
X95530092Y-114252882D01*
X95500828Y-114250000D01*
X94000828Y-114250000D01*
X93971564Y-114252882D01*
X93917492Y-114275280D01*
X93876108Y-114316664D01*
X93853710Y-114370736D01*
X93018780Y-114370736D01*
X92977692Y-114329648D01*
X92954961Y-114310993D01*
X92944657Y-114306725D01*
X92935697Y-114300086D01*
X92908006Y-114290193D01*
X92622293Y-114218764D01*
X92617220Y-114218013D01*
X92615176Y-114217167D01*
X92604154Y-114216081D01*
X92593203Y-114214462D01*
X92591015Y-114214787D01*
X92585912Y-114214285D01*
X92085912Y-114214285D01*
X92080808Y-114214787D01*
X92078620Y-114214462D01*
X92067667Y-114216081D01*
X92056648Y-114217167D01*
X92054603Y-114218013D01*
X92049531Y-114218764D01*
X91763817Y-114290193D01*
X91736126Y-114300086D01*
X91727165Y-114306725D01*
X91716862Y-114310993D01*
X91694132Y-114329648D01*
X91551275Y-114472505D01*
X91541835Y-114484006D01*
X91538842Y-114486603D01*
X91536001Y-114491116D01*
X91532620Y-114495236D01*
X91531104Y-114498895D01*
X91523177Y-114511489D01*
X91451748Y-114654346D01*
X91441239Y-114681809D01*
X91440857Y-114687183D01*
X91438794Y-114692164D01*
X91435912Y-114721428D01*
X91269245Y-114721428D01*
X91269245Y-113692164D01*
X91438794Y-113692164D01*
X91438794Y-113750692D01*
X91461192Y-113804764D01*
X91502576Y-113846148D01*
X91556648Y-113868546D01*
X91585912Y-113871428D01*
X93085912Y-113871428D01*
X93115176Y-113868546D01*
X93169248Y-113846148D01*
X93210632Y-113804764D01*
X93233030Y-113750692D01*
X93235912Y-113721428D01*
X93235912Y-113007142D01*
X93233030Y-112977878D01*
X93210632Y-112923806D01*
X93169248Y-112882422D01*
X93115176Y-112860024D01*
X93056648Y-112860024D01*
X93002576Y-112882422D01*
X92961192Y-112923806D01*
X92938794Y-112977878D01*
X92935912Y-113007142D01*
X92935912Y-113571428D01*
X91585912Y-113571428D01*
X91556648Y-113574310D01*
X91502576Y-113596708D01*
X91461192Y-113638092D01*
X91438794Y-113692164D01*
X91269245Y-113692164D01*
X91269245Y-112799307D01*
X93853710Y-112799307D01*
X93853710Y-112857835D01*
X93876108Y-112911907D01*
X93917492Y-112953291D01*
X93971564Y-112975689D01*
X94000828Y-112978571D01*
X95179704Y-112978571D01*
X95269116Y-113023276D01*
X95306121Y-113060281D01*
X95350828Y-113149694D01*
X95350828Y-113364589D01*
X95306122Y-113454001D01*
X95269118Y-113491006D01*
X95179704Y-113535714D01*
X94000828Y-113535714D01*
X93971564Y-113538596D01*
X93917492Y-113560994D01*
X93876108Y-113602378D01*
X93853710Y-113656450D01*
X93853710Y-113714978D01*
X93876108Y-113769050D01*
X93917492Y-113810434D01*
X93971564Y-113832832D01*
X94000828Y-113835714D01*
X95215114Y-113835714D01*
X95244378Y-113832832D01*
X95249358Y-113830768D01*
X95254733Y-113830387D01*
X95282196Y-113819878D01*
X95425053Y-113748449D01*
X95437648Y-113740520D01*
X95441305Y-113739006D01*
X95445422Y-113735626D01*
X95449939Y-113732784D01*
X95452536Y-113729789D01*
X95464036Y-113720352D01*
X95535465Y-113648924D01*
X95544904Y-113637421D01*
X95547900Y-113634824D01*
X95550741Y-113630309D01*
X95554120Y-113626193D01*
X95555635Y-113622534D01*
X95563564Y-113609938D01*
X95634993Y-113467080D01*
X95645502Y-113439617D01*
X95645883Y-113434241D01*
X95647946Y-113429263D01*
X95650828Y-113399999D01*
X95650828Y-113114285D01*
X95647946Y-113085021D01*
X95645883Y-113080042D01*
X95645502Y-113074667D01*
X95634992Y-113047204D01*
X95563564Y-112904346D01*
X95555637Y-112891754D01*
X95554121Y-112888093D01*
X95550737Y-112883970D01*
X95547899Y-112879461D01*
X95544907Y-112876866D01*
X95535466Y-112865362D01*
X95464037Y-112793933D01*
X95452535Y-112784493D01*
X95449939Y-112781500D01*
X95445425Y-112778659D01*
X95441306Y-112775278D01*
X95437646Y-112773762D01*
X95425053Y-112765835D01*
X95282196Y-112694407D01*
X95254732Y-112683897D01*
X95249356Y-112683515D01*
X95244378Y-112681453D01*
X95215114Y-112678571D01*
X94000828Y-112678571D01*
X93971564Y-112681453D01*
X93917492Y-112703851D01*
X93876108Y-112745235D01*
X93853710Y-112799307D01*
X91269245Y-112799307D01*
X91269245Y-111137060D01*
X93852567Y-111137060D01*
X93853710Y-111140203D01*
X93853710Y-111143549D01*
X93863671Y-111167597D01*
X93872568Y-111192063D01*
X93874827Y-111194530D01*
X93876108Y-111197621D01*
X93894505Y-111216018D01*
X93912095Y-111235226D01*
X93916063Y-111237576D01*
X93917492Y-111239005D01*
X93920760Y-111240358D01*
X93937395Y-111250212D01*
X94717550Y-111614285D01*
X93937395Y-111978358D01*
X93920760Y-111988211D01*
X93917492Y-111989565D01*
X93916063Y-111990993D01*
X93912095Y-111993344D01*
X93894505Y-112012551D01*
X93876108Y-112030949D01*
X93874827Y-112034039D01*
X93872568Y-112036507D01*
X93863671Y-112060972D01*
X93853710Y-112085021D01*
X93853710Y-112088366D01*
X93852567Y-112091510D01*
X93853710Y-112117514D01*
X93853710Y-112143549D01*
X93854990Y-112146639D01*
X93855137Y-112149980D01*
X93866147Y-112173575D01*
X93876108Y-112197621D01*
X93878471Y-112199984D01*
X93879887Y-112203018D01*
X93899094Y-112220607D01*
X93917492Y-112239005D01*
X93920582Y-112240285D01*
X93923050Y-112242545D01*
X93947515Y-112251441D01*
X93971564Y-112261403D01*
X93976152Y-112261854D01*
X93978053Y-112262546D01*
X93981591Y-112262390D01*
X94000828Y-112264285D01*
X95500828Y-112264285D01*
X95530092Y-112261403D01*
X95584164Y-112239005D01*
X95625548Y-112197621D01*
X95647946Y-112143549D01*
X95647946Y-112085021D01*
X95625548Y-112030949D01*
X95584164Y-111989565D01*
X95530092Y-111967167D01*
X95500828Y-111964285D01*
X94676962Y-111964285D01*
X95135690Y-111750212D01*
X95146403Y-111743865D01*
X95150035Y-111742545D01*
X95152603Y-111740193D01*
X95160990Y-111735225D01*
X95176380Y-111718419D01*
X95193198Y-111703018D01*
X95196018Y-111696974D01*
X95200517Y-111692062D01*
X95208303Y-111670650D01*
X95217949Y-111649981D01*
X95218241Y-111643319D01*
X95220518Y-111637060D01*
X95219517Y-111614285D01*
X95220518Y-111591510D01*
X95218241Y-111585250D01*
X95217949Y-111578589D01*
X95208303Y-111557919D01*
X95200517Y-111536508D01*
X95196018Y-111531595D01*
X95193198Y-111525552D01*
X95176380Y-111510150D01*
X95160990Y-111493345D01*
X95152603Y-111488376D01*
X95150035Y-111486025D01*
X95146403Y-111484704D01*
X95135690Y-111478358D01*
X94676962Y-111264285D01*
X95500828Y-111264285D01*
X95530092Y-111261403D01*
X95584164Y-111239005D01*
X95625548Y-111197621D01*
X95647946Y-111143549D01*
X95647946Y-111085021D01*
X95625548Y-111030949D01*
X95584164Y-110989565D01*
X95530092Y-110967167D01*
X95500828Y-110964285D01*
X94000828Y-110964285D01*
X93981591Y-110966179D01*
X93978053Y-110966024D01*
X93976152Y-110966715D01*
X93971564Y-110967167D01*
X93947515Y-110977128D01*
X93923050Y-110986025D01*
X93920582Y-110988284D01*
X93917492Y-110989565D01*
X93899094Y-111007962D01*
X93879887Y-111025552D01*
X93878471Y-111028585D01*
X93876108Y-111030949D01*
X93866147Y-111054994D01*
X93855137Y-111078590D01*
X93854990Y-111081930D01*
X93853710Y-111085021D01*
X93853710Y-111111055D01*
X93852567Y-111137060D01*
X91269245Y-111137060D01*
X91269245Y-109899999D01*
X93850828Y-109899999D01*
X93850828Y-110399999D01*
X93853710Y-110429263D01*
X93876108Y-110483335D01*
X93917492Y-110524719D01*
X93971564Y-110547117D01*
X94000828Y-110549999D01*
X95500828Y-110549999D01*
X95530092Y-110547117D01*
X95584164Y-110524719D01*
X95625548Y-110483335D01*
X95647946Y-110429263D01*
X95650828Y-110399999D01*
X95650828Y-109828570D01*
X95647946Y-109799306D01*
X95645883Y-109794327D01*
X95645502Y-109788952D01*
X95634992Y-109761489D01*
X95563564Y-109618631D01*
X95555637Y-109606039D01*
X95554121Y-109602378D01*
X95550737Y-109598255D01*
X95547899Y-109593746D01*
X95544907Y-109591151D01*
X95535466Y-109579647D01*
X95464037Y-109508218D01*
X95452535Y-109498778D01*
X95449939Y-109495785D01*
X95445425Y-109492944D01*
X95441306Y-109489563D01*
X95437646Y-109488047D01*
X95425053Y-109480120D01*
X95282196Y-109408692D01*
X95254732Y-109398182D01*
X95249356Y-109397800D01*
X95244378Y-109395738D01*
X95215114Y-109392856D01*
X95000828Y-109392856D01*
X94971564Y-109395738D01*
X94966585Y-109397800D01*
X94961210Y-109398182D01*
X94933747Y-109408692D01*
X94790889Y-109480120D01*
X94778297Y-109488046D01*
X94774636Y-109489563D01*
X94770513Y-109492946D01*
X94766004Y-109495785D01*
X94763409Y-109498776D01*
X94751905Y-109508218D01*
X94680476Y-109579647D01*
X94679505Y-109580829D01*
X94678324Y-109579648D01*
X94666821Y-109570208D01*
X94664225Y-109567214D01*
X94659710Y-109564372D01*
X94655593Y-109560993D01*
X94651934Y-109559477D01*
X94639339Y-109551549D01*
X94496482Y-109480120D01*
X94469019Y-109469611D01*
X94463644Y-109469229D01*
X94458664Y-109467166D01*
X94429400Y-109464284D01*
X94286542Y-109464284D01*
X94257278Y-109467166D01*
X94252297Y-109469229D01*
X94246923Y-109469611D01*
X94219459Y-109480120D01*
X94076603Y-109551549D01*
X94064006Y-109559477D01*
X94060349Y-109560993D01*
X94056231Y-109564372D01*
X94051717Y-109567214D01*
X94049119Y-109570208D01*
X94037618Y-109579648D01*
X93966190Y-109651077D01*
X93956752Y-109662576D01*
X93953758Y-109665174D01*
X93950915Y-109669690D01*
X93947536Y-109673808D01*
X93946021Y-109677464D01*
X93938093Y-109690060D01*
X93866664Y-109832917D01*
X93856155Y-109860380D01*
X93855773Y-109865754D01*
X93853710Y-109870735D01*
X93850828Y-109899999D01*
X91269245Y-109899999D01*
X91269245Y-109226189D01*
X95817495Y-109226189D01*
X95817495Y-126502382D01*
G37*
G36*
X78579943Y-145095535D02*
G01*
X78616947Y-145132539D01*
X78661653Y-145221951D01*
X78661653Y-145365418D01*
X78616946Y-145454831D01*
X78579941Y-145491836D01*
X78490529Y-145536542D01*
X78104510Y-145536542D01*
X78104510Y-145050828D01*
X78490529Y-145050828D01*
X78579943Y-145095535D01*
G37*
G36*
X84554010Y-146717495D02*
G01*
X77637843Y-146717495D01*
X77637843Y-144900828D01*
X77804510Y-144900828D01*
X77804510Y-146400828D01*
X77807392Y-146430092D01*
X77829790Y-146484164D01*
X77871174Y-146525548D01*
X77925246Y-146547946D01*
X77983774Y-146547946D01*
X78037846Y-146525548D01*
X78079230Y-146484164D01*
X78101628Y-146430092D01*
X78104510Y-146400828D01*
X78104510Y-145836542D01*
X78233555Y-145836542D01*
X78688768Y-146486847D01*
X78707911Y-146509169D01*
X78757268Y-146540622D01*
X78814904Y-146550793D01*
X78872046Y-146538134D01*
X78919994Y-146504570D01*
X78951447Y-146455213D01*
X78961618Y-146397577D01*
X78948959Y-146340435D01*
X78934538Y-146314809D01*
X78589586Y-145822020D01*
X78593021Y-145820706D01*
X78735878Y-145749278D01*
X78748471Y-145741350D01*
X78752131Y-145739835D01*
X78756250Y-145736453D01*
X78760764Y-145733613D01*
X78763360Y-145730619D01*
X78774862Y-145721180D01*
X78846291Y-145649751D01*
X78855732Y-145638246D01*
X78858724Y-145635652D01*
X78861562Y-145631142D01*
X78864946Y-145627020D01*
X78866462Y-145623358D01*
X78874389Y-145610767D01*
X78945817Y-145467909D01*
X78956327Y-145440446D01*
X78956708Y-145435070D01*
X78958771Y-145430092D01*
X78961653Y-145400828D01*
X78961653Y-145186542D01*
X78958771Y-145157278D01*
X78956708Y-145152299D01*
X78956327Y-145146924D01*
X78945817Y-145119461D01*
X78874389Y-144976603D01*
X78866460Y-144964008D01*
X78864945Y-144960349D01*
X78861563Y-144956228D01*
X78858724Y-144951718D01*
X78855732Y-144949123D01*
X78846290Y-144937618D01*
X78809499Y-144900828D01*
X79304510Y-144900828D01*
X79304510Y-146400828D01*
X79307392Y-146430092D01*
X79329790Y-146484164D01*
X79371174Y-146525548D01*
X79425246Y-146547946D01*
X79454510Y-146550828D01*
X80168796Y-146550828D01*
X80198060Y-146547946D01*
X80252132Y-146525548D01*
X80293516Y-146484164D01*
X80315914Y-146430092D01*
X80315914Y-146371564D01*
X80293516Y-146317492D01*
X80252132Y-146276108D01*
X80198060Y-146253710D01*
X80168796Y-146250828D01*
X79604510Y-146250828D01*
X79604510Y-145765114D01*
X79954510Y-145765114D01*
X79983774Y-145762232D01*
X80037846Y-145739834D01*
X80079230Y-145698450D01*
X80101628Y-145644378D01*
X80101628Y-145585850D01*
X80079230Y-145531778D01*
X80037846Y-145490394D01*
X79983774Y-145467996D01*
X79954510Y-145465114D01*
X79604510Y-145465114D01*
X79604510Y-145186542D01*
X80590225Y-145186542D01*
X80590225Y-145329400D01*
X80593107Y-145358664D01*
X80595169Y-145363642D01*
X80595551Y-145369018D01*
X80606061Y-145396482D01*
X80677489Y-145539339D01*
X80685417Y-145551934D01*
X80686933Y-145555593D01*
X80690312Y-145559710D01*
X80693154Y-145564225D01*
X80696148Y-145566821D01*
X80705588Y-145578324D01*
X80777017Y-145649752D01*
X80788517Y-145659190D01*
X80791114Y-145662184D01*
X80795626Y-145665024D01*
X80799747Y-145668406D01*
X80803406Y-145669921D01*
X80816000Y-145677849D01*
X80958856Y-145749278D01*
X80960998Y-145750097D01*
X80961868Y-145750742D01*
X80974139Y-145755126D01*
X80986320Y-145759787D01*
X80987400Y-145759863D01*
X80989559Y-145760635D01*
X81259297Y-145828069D01*
X81365656Y-145881248D01*
X81402660Y-145918253D01*
X81447368Y-146007667D01*
X81447368Y-146079703D01*
X81402660Y-146169117D01*
X81365657Y-146206121D01*
X81276244Y-146250828D01*
X80978854Y-146250828D01*
X80787659Y-146187097D01*
X80758985Y-146180577D01*
X80700605Y-146184727D01*
X80648258Y-146210901D01*
X80609910Y-146255115D01*
X80591402Y-146310640D01*
X80595552Y-146369020D01*
X80621726Y-146421367D01*
X80665940Y-146459715D01*
X80692791Y-146471703D01*
X80907077Y-146543131D01*
X80921589Y-146546430D01*
X80925247Y-146547946D01*
X80930549Y-146548468D01*
X80935751Y-146549651D01*
X80939705Y-146549369D01*
X80954511Y-146550828D01*
X81311653Y-146550828D01*
X81340917Y-146547946D01*
X81345895Y-146545883D01*
X81351271Y-146545502D01*
X81378734Y-146534992D01*
X81521593Y-146463564D01*
X81534187Y-146455635D01*
X81537847Y-146454120D01*
X81541967Y-146450738D01*
X81546478Y-146447899D01*
X81549072Y-146444907D01*
X81560578Y-146435465D01*
X81632006Y-146364036D01*
X81641444Y-146352535D01*
X81644438Y-146349939D01*
X81647278Y-146345426D01*
X81650660Y-146341306D01*
X81652175Y-146337646D01*
X81660103Y-146325053D01*
X81731532Y-146182197D01*
X81742041Y-146154733D01*
X81742422Y-146149358D01*
X81744486Y-146144378D01*
X81747368Y-146115114D01*
X81747368Y-145972257D01*
X81744486Y-145942993D01*
X81742422Y-145938012D01*
X81742041Y-145932638D01*
X81731532Y-145905174D01*
X81660103Y-145762318D01*
X81652175Y-145749724D01*
X81650660Y-145746065D01*
X81647278Y-145741944D01*
X81644438Y-145737432D01*
X81641444Y-145734835D01*
X81632006Y-145723335D01*
X81560578Y-145651906D01*
X81549075Y-145642466D01*
X81546479Y-145639472D01*
X81541964Y-145636630D01*
X81537847Y-145633251D01*
X81534188Y-145631735D01*
X81521593Y-145623807D01*
X81378735Y-145552378D01*
X81376594Y-145551558D01*
X81375724Y-145550914D01*
X81363468Y-145546535D01*
X81351272Y-145541868D01*
X81350188Y-145541791D01*
X81348033Y-145541021D01*
X81078295Y-145473586D01*
X80971935Y-145420406D01*
X80934930Y-145383401D01*
X80890225Y-145293990D01*
X80890225Y-145221951D01*
X80934930Y-145132540D01*
X80971935Y-145095535D01*
X81061349Y-145050828D01*
X81358742Y-145050828D01*
X81549933Y-145114559D01*
X81578607Y-145121079D01*
X81636987Y-145116930D01*
X81689334Y-145090756D01*
X81727682Y-145046542D01*
X81746190Y-144991018D01*
X81742041Y-144932638D01*
X81726136Y-144900828D01*
X82090224Y-144900828D01*
X82090224Y-146400828D01*
X82093106Y-146430092D01*
X82115504Y-146484164D01*
X82156888Y-146525548D01*
X82210960Y-146547946D01*
X82240224Y-146550828D01*
X82954510Y-146550828D01*
X82983774Y-146547946D01*
X83037846Y-146525548D01*
X83079230Y-146484164D01*
X83101628Y-146430092D01*
X83101628Y-146371564D01*
X83079230Y-146317492D01*
X83037846Y-146276108D01*
X82983774Y-146253710D01*
X82954510Y-146250828D01*
X82390224Y-146250828D01*
X82390224Y-145765114D01*
X82740224Y-145765114D01*
X82769488Y-145762232D01*
X82823560Y-145739834D01*
X82864944Y-145698450D01*
X82887342Y-145644378D01*
X82887342Y-145585850D01*
X82864944Y-145531778D01*
X82823560Y-145490394D01*
X82769488Y-145467996D01*
X82740224Y-145465114D01*
X82390224Y-145465114D01*
X82390224Y-145050828D01*
X82954510Y-145050828D01*
X82983774Y-145047946D01*
X83037846Y-145025548D01*
X83079230Y-144984164D01*
X83101628Y-144930092D01*
X83101628Y-144871564D01*
X83235964Y-144871564D01*
X83235964Y-144930092D01*
X83258362Y-144984164D01*
X83299746Y-145025548D01*
X83353818Y-145047946D01*
X83383082Y-145050828D01*
X83661653Y-145050828D01*
X83661653Y-146400828D01*
X83664535Y-146430092D01*
X83686933Y-146484164D01*
X83728317Y-146525548D01*
X83782389Y-146547946D01*
X83840917Y-146547946D01*
X83894989Y-146525548D01*
X83936373Y-146484164D01*
X83958771Y-146430092D01*
X83961653Y-146400828D01*
X83961653Y-145050828D01*
X84240225Y-145050828D01*
X84269489Y-145047946D01*
X84323561Y-145025548D01*
X84364945Y-144984164D01*
X84387343Y-144930092D01*
X84387343Y-144871564D01*
X84364945Y-144817492D01*
X84323561Y-144776108D01*
X84269489Y-144753710D01*
X84240225Y-144750828D01*
X83383082Y-144750828D01*
X83353818Y-144753710D01*
X83299746Y-144776108D01*
X83258362Y-144817492D01*
X83235964Y-144871564D01*
X83101628Y-144871564D01*
X83079230Y-144817492D01*
X83037846Y-144776108D01*
X82983774Y-144753710D01*
X82954510Y-144750828D01*
X82240224Y-144750828D01*
X82210960Y-144753710D01*
X82156888Y-144776108D01*
X82115504Y-144817492D01*
X82093106Y-144871564D01*
X82090224Y-144900828D01*
X81726136Y-144900828D01*
X81715867Y-144880290D01*
X81671653Y-144841943D01*
X81644802Y-144829954D01*
X81430516Y-144758526D01*
X81416008Y-144755227D01*
X81412346Y-144753710D01*
X81407037Y-144753187D01*
X81401843Y-144752006D01*
X81397893Y-144752286D01*
X81383082Y-144750828D01*
X81025939Y-144750828D01*
X80996675Y-144753710D01*
X80991694Y-144755773D01*
X80986320Y-144756155D01*
X80958856Y-144766664D01*
X80816000Y-144838093D01*
X80803406Y-144846020D01*
X80799747Y-144847536D01*
X80795626Y-144850917D01*
X80791114Y-144853758D01*
X80788517Y-144856751D01*
X80777017Y-144866190D01*
X80705588Y-144937618D01*
X80696148Y-144949120D01*
X80693154Y-144951717D01*
X80690312Y-144956231D01*
X80686933Y-144960349D01*
X80685417Y-144964007D01*
X80677489Y-144976603D01*
X80606061Y-145119460D01*
X80595551Y-145146924D01*
X80595169Y-145152299D01*
X80593107Y-145157278D01*
X80590225Y-145186542D01*
X79604510Y-145186542D01*
X79604510Y-145050828D01*
X80168796Y-145050828D01*
X80198060Y-145047946D01*
X80252132Y-145025548D01*
X80293516Y-144984164D01*
X80315914Y-144930092D01*
X80315914Y-144871564D01*
X80293516Y-144817492D01*
X80252132Y-144776108D01*
X80198060Y-144753710D01*
X80168796Y-144750828D01*
X79454510Y-144750828D01*
X79425246Y-144753710D01*
X79371174Y-144776108D01*
X79329790Y-144817492D01*
X79307392Y-144871564D01*
X79304510Y-144900828D01*
X78809499Y-144900828D01*
X78774861Y-144866190D01*
X78763361Y-144856752D01*
X78760764Y-144853758D01*
X78756247Y-144850915D01*
X78752130Y-144847536D01*
X78748473Y-144846021D01*
X78735878Y-144838093D01*
X78593021Y-144766664D01*
X78565558Y-144756155D01*
X78560183Y-144755773D01*
X78555203Y-144753710D01*
X78525939Y-144750828D01*
X77954510Y-144750828D01*
X77925246Y-144753710D01*
X77871174Y-144776108D01*
X77829790Y-144817492D01*
X77807392Y-144871564D01*
X77804510Y-144900828D01*
X77637843Y-144900828D01*
X77637843Y-144584161D01*
X84554010Y-144584161D01*
X84554010Y-146717495D01*
G37*
D12*
X91438095Y-134604819D02*
X91438095Y-133604819D01*
X91438095Y-134081009D02*
X92009523Y-134081009D01*
X92009523Y-134604819D02*
X92009523Y-133604819D01*
X92438095Y-133700057D02*
X92485714Y-133652438D01*
X92485714Y-133652438D02*
X92580952Y-133604819D01*
X92580952Y-133604819D02*
X92819047Y-133604819D01*
X92819047Y-133604819D02*
X92914285Y-133652438D01*
X92914285Y-133652438D02*
X92961904Y-133700057D01*
X92961904Y-133700057D02*
X93009523Y-133795295D01*
X93009523Y-133795295D02*
X93009523Y-133890533D01*
X93009523Y-133890533D02*
X92961904Y-134033390D01*
X92961904Y-134033390D02*
X92390476Y-134604819D01*
X92390476Y-134604819D02*
X93009523Y-134604819D01*
X91393695Y-69554819D02*
X91393695Y-68554819D01*
X91393695Y-69031009D02*
X91965123Y-69031009D01*
X91965123Y-69554819D02*
X91965123Y-68554819D01*
X92584171Y-68983390D02*
X92488933Y-68935771D01*
X92488933Y-68935771D02*
X92441314Y-68888152D01*
X92441314Y-68888152D02*
X92393695Y-68792914D01*
X92393695Y-68792914D02*
X92393695Y-68745295D01*
X92393695Y-68745295D02*
X92441314Y-68650057D01*
X92441314Y-68650057D02*
X92488933Y-68602438D01*
X92488933Y-68602438D02*
X92584171Y-68554819D01*
X92584171Y-68554819D02*
X92774647Y-68554819D01*
X92774647Y-68554819D02*
X92869885Y-68602438D01*
X92869885Y-68602438D02*
X92917504Y-68650057D01*
X92917504Y-68650057D02*
X92965123Y-68745295D01*
X92965123Y-68745295D02*
X92965123Y-68792914D01*
X92965123Y-68792914D02*
X92917504Y-68888152D01*
X92917504Y-68888152D02*
X92869885Y-68935771D01*
X92869885Y-68935771D02*
X92774647Y-68983390D01*
X92774647Y-68983390D02*
X92584171Y-68983390D01*
X92584171Y-68983390D02*
X92488933Y-69031009D01*
X92488933Y-69031009D02*
X92441314Y-69078628D01*
X92441314Y-69078628D02*
X92393695Y-69173866D01*
X92393695Y-69173866D02*
X92393695Y-69364342D01*
X92393695Y-69364342D02*
X92441314Y-69459580D01*
X92441314Y-69459580D02*
X92488933Y-69507200D01*
X92488933Y-69507200D02*
X92584171Y-69554819D01*
X92584171Y-69554819D02*
X92774647Y-69554819D01*
X92774647Y-69554819D02*
X92869885Y-69507200D01*
X92869885Y-69507200D02*
X92917504Y-69459580D01*
X92917504Y-69459580D02*
X92965123Y-69364342D01*
X92965123Y-69364342D02*
X92965123Y-69173866D01*
X92965123Y-69173866D02*
X92917504Y-69078628D01*
X92917504Y-69078628D02*
X92869885Y-69031009D01*
X92869885Y-69031009D02*
X92774647Y-68983390D01*
X39388095Y-134554819D02*
X39388095Y-133554819D01*
X39388095Y-134031009D02*
X39959523Y-134031009D01*
X39959523Y-134554819D02*
X39959523Y-133554819D01*
X40483333Y-134554819D02*
X40673809Y-134554819D01*
X40673809Y-134554819D02*
X40769047Y-134507200D01*
X40769047Y-134507200D02*
X40816666Y-134459580D01*
X40816666Y-134459580D02*
X40911904Y-134316723D01*
X40911904Y-134316723D02*
X40959523Y-134126247D01*
X40959523Y-134126247D02*
X40959523Y-133745295D01*
X40959523Y-133745295D02*
X40911904Y-133650057D01*
X40911904Y-133650057D02*
X40864285Y-133602438D01*
X40864285Y-133602438D02*
X40769047Y-133554819D01*
X40769047Y-133554819D02*
X40578571Y-133554819D01*
X40578571Y-133554819D02*
X40483333Y-133602438D01*
X40483333Y-133602438D02*
X40435714Y-133650057D01*
X40435714Y-133650057D02*
X40388095Y-133745295D01*
X40388095Y-133745295D02*
X40388095Y-133983390D01*
X40388095Y-133983390D02*
X40435714Y-134078628D01*
X40435714Y-134078628D02*
X40483333Y-134126247D01*
X40483333Y-134126247D02*
X40578571Y-134173866D01*
X40578571Y-134173866D02*
X40769047Y-134173866D01*
X40769047Y-134173866D02*
X40864285Y-134126247D01*
X40864285Y-134126247D02*
X40911904Y-134078628D01*
X40911904Y-134078628D02*
X40959523Y-133983390D01*
X38914705Y-69528719D02*
X38914705Y-68528719D01*
X38914705Y-69004909D02*
X39486133Y-69004909D01*
X39486133Y-69528719D02*
X39486133Y-68528719D01*
X40486133Y-69528719D02*
X39914705Y-69528719D01*
X40200419Y-69528719D02*
X40200419Y-68528719D01*
X40200419Y-68528719D02*
X40105181Y-68671576D01*
X40105181Y-68671576D02*
X40009943Y-68766814D01*
X40009943Y-68766814D02*
X39914705Y-68814433D01*
X41438514Y-69528719D02*
X40867086Y-69528719D01*
X41152800Y-69528719D02*
X41152800Y-68528719D01*
X41152800Y-68528719D02*
X41057562Y-68671576D01*
X41057562Y-68671576D02*
X40962324Y-68766814D01*
X40962324Y-68766814D02*
X40867086Y-68814433D01*
M02*
