G04 #@! TF.GenerationSoftware,KiCad,Pcbnew,9.0.2*
G04 #@! TF.CreationDate,2025-12-18T00:19:16-05:00*
G04 #@! TF.ProjectId,Trackball,54726163-6b62-4616-9c6c-2e6b69636164,rev?*
G04 #@! TF.SameCoordinates,Original*
G04 #@! TF.FileFunction,Soldermask,Top*
G04 #@! TF.FilePolarity,Negative*
%FSLAX46Y46*%
G04 Gerber Fmt 4.6, Leading zero omitted, Abs format (unit mm)*
G04 Created by KiCad (PCBNEW 9.0.2) date 2025-12-18 00:19:16*
%MOMM*%
%LPD*%
G01*
G04 APERTURE LIST*
G04 APERTURE END LIST*
G36*
X78579943Y-145095535D02*
G01*
X78616947Y-145132539D01*
X78661653Y-145221951D01*
X78661653Y-145365418D01*
X78616946Y-145454831D01*
X78579941Y-145491836D01*
X78490529Y-145536542D01*
X78104510Y-145536542D01*
X78104510Y-145050828D01*
X78490529Y-145050828D01*
X78579943Y-145095535D01*
G37*
G36*
X84554010Y-146717495D02*
G01*
X77637843Y-146717495D01*
X77637843Y-144900828D01*
X77804510Y-144900828D01*
X77804510Y-146400828D01*
X77807392Y-146430092D01*
X77829790Y-146484164D01*
X77871174Y-146525548D01*
X77925246Y-146547946D01*
X77983774Y-146547946D01*
X78037846Y-146525548D01*
X78079230Y-146484164D01*
X78101628Y-146430092D01*
X78104510Y-146400828D01*
X78104510Y-145836542D01*
X78233555Y-145836542D01*
X78688768Y-146486847D01*
X78707911Y-146509169D01*
X78757268Y-146540622D01*
X78814904Y-146550793D01*
X78872046Y-146538134D01*
X78919994Y-146504570D01*
X78951447Y-146455213D01*
X78961618Y-146397577D01*
X78948959Y-146340435D01*
X78934538Y-146314809D01*
X78589586Y-145822020D01*
X78593021Y-145820706D01*
X78735878Y-145749278D01*
X78748471Y-145741350D01*
X78752131Y-145739835D01*
X78756250Y-145736453D01*
X78760764Y-145733613D01*
X78763360Y-145730619D01*
X78774862Y-145721180D01*
X78846291Y-145649751D01*
X78855732Y-145638246D01*
X78858724Y-145635652D01*
X78861562Y-145631142D01*
X78864946Y-145627020D01*
X78866462Y-145623358D01*
X78874389Y-145610767D01*
X78945817Y-145467909D01*
X78956327Y-145440446D01*
X78956708Y-145435070D01*
X78958771Y-145430092D01*
X78961653Y-145400828D01*
X78961653Y-145186542D01*
X78958771Y-145157278D01*
X78956708Y-145152299D01*
X78956327Y-145146924D01*
X78945817Y-145119461D01*
X78874389Y-144976603D01*
X78866460Y-144964008D01*
X78864945Y-144960349D01*
X78861563Y-144956228D01*
X78858724Y-144951718D01*
X78855732Y-144949123D01*
X78846290Y-144937618D01*
X78809499Y-144900828D01*
X79304510Y-144900828D01*
X79304510Y-146400828D01*
X79307392Y-146430092D01*
X79329790Y-146484164D01*
X79371174Y-146525548D01*
X79425246Y-146547946D01*
X79454510Y-146550828D01*
X80168796Y-146550828D01*
X80198060Y-146547946D01*
X80252132Y-146525548D01*
X80293516Y-146484164D01*
X80315914Y-146430092D01*
X80315914Y-146371564D01*
X80293516Y-146317492D01*
X80252132Y-146276108D01*
X80198060Y-146253710D01*
X80168796Y-146250828D01*
X79604510Y-146250828D01*
X79604510Y-145765114D01*
X79954510Y-145765114D01*
X79983774Y-145762232D01*
X80037846Y-145739834D01*
X80079230Y-145698450D01*
X80101628Y-145644378D01*
X80101628Y-145585850D01*
X80079230Y-145531778D01*
X80037846Y-145490394D01*
X79983774Y-145467996D01*
X79954510Y-145465114D01*
X79604510Y-145465114D01*
X79604510Y-145186542D01*
X80590225Y-145186542D01*
X80590225Y-145329400D01*
X80593107Y-145358664D01*
X80595169Y-145363642D01*
X80595551Y-145369018D01*
X80606061Y-145396482D01*
X80677489Y-145539339D01*
X80685417Y-145551934D01*
X80686933Y-145555593D01*
X80690312Y-145559710D01*
X80693154Y-145564225D01*
X80696148Y-145566821D01*
X80705588Y-145578324D01*
X80777017Y-145649752D01*
X80788517Y-145659190D01*
X80791114Y-145662184D01*
X80795626Y-145665024D01*
X80799747Y-145668406D01*
X80803406Y-145669921D01*
X80816000Y-145677849D01*
X80958856Y-145749278D01*
X80960998Y-145750097D01*
X80961868Y-145750742D01*
X80974139Y-145755126D01*
X80986320Y-145759787D01*
X80987400Y-145759863D01*
X80989559Y-145760635D01*
X81259297Y-145828069D01*
X81365656Y-145881248D01*
X81402660Y-145918253D01*
X81447368Y-146007667D01*
X81447368Y-146079703D01*
X81402660Y-146169117D01*
X81365657Y-146206121D01*
X81276244Y-146250828D01*
X80978854Y-146250828D01*
X80787659Y-146187097D01*
X80758985Y-146180577D01*
X80700605Y-146184727D01*
X80648258Y-146210901D01*
X80609910Y-146255115D01*
X80591402Y-146310640D01*
X80595552Y-146369020D01*
X80621726Y-146421367D01*
X80665940Y-146459715D01*
X80692791Y-146471703D01*
X80907077Y-146543131D01*
X80921589Y-146546430D01*
X80925247Y-146547946D01*
X80930549Y-146548468D01*
X80935751Y-146549651D01*
X80939705Y-146549369D01*
X80954511Y-146550828D01*
X81311653Y-146550828D01*
X81340917Y-146547946D01*
X81345895Y-146545883D01*
X81351271Y-146545502D01*
X81378734Y-146534992D01*
X81521593Y-146463564D01*
X81534187Y-146455635D01*
X81537847Y-146454120D01*
X81541967Y-146450738D01*
X81546478Y-146447899D01*
X81549072Y-146444907D01*
X81560578Y-146435465D01*
X81632006Y-146364036D01*
X81641444Y-146352535D01*
X81644438Y-146349939D01*
X81647278Y-146345426D01*
X81650660Y-146341306D01*
X81652175Y-146337646D01*
X81660103Y-146325053D01*
X81731532Y-146182197D01*
X81742041Y-146154733D01*
X81742422Y-146149358D01*
X81744486Y-146144378D01*
X81747368Y-146115114D01*
X81747368Y-145972257D01*
X81744486Y-145942993D01*
X81742422Y-145938012D01*
X81742041Y-145932638D01*
X81731532Y-145905174D01*
X81660103Y-145762318D01*
X81652175Y-145749724D01*
X81650660Y-145746065D01*
X81647278Y-145741944D01*
X81644438Y-145737432D01*
X81641444Y-145734835D01*
X81632006Y-145723335D01*
X81560578Y-145651906D01*
X81549075Y-145642466D01*
X81546479Y-145639472D01*
X81541964Y-145636630D01*
X81537847Y-145633251D01*
X81534188Y-145631735D01*
X81521593Y-145623807D01*
X81378735Y-145552378D01*
X81376594Y-145551558D01*
X81375724Y-145550914D01*
X81363468Y-145546535D01*
X81351272Y-145541868D01*
X81350188Y-145541791D01*
X81348033Y-145541021D01*
X81078295Y-145473586D01*
X80971935Y-145420406D01*
X80934930Y-145383401D01*
X80890225Y-145293990D01*
X80890225Y-145221951D01*
X80934930Y-145132540D01*
X80971935Y-145095535D01*
X81061349Y-145050828D01*
X81358742Y-145050828D01*
X81549933Y-145114559D01*
X81578607Y-145121079D01*
X81636987Y-145116930D01*
X81689334Y-145090756D01*
X81727682Y-145046542D01*
X81746190Y-144991018D01*
X81742041Y-144932638D01*
X81726136Y-144900828D01*
X82090224Y-144900828D01*
X82090224Y-146400828D01*
X82093106Y-146430092D01*
X82115504Y-146484164D01*
X82156888Y-146525548D01*
X82210960Y-146547946D01*
X82240224Y-146550828D01*
X82954510Y-146550828D01*
X82983774Y-146547946D01*
X83037846Y-146525548D01*
X83079230Y-146484164D01*
X83101628Y-146430092D01*
X83101628Y-146371564D01*
X83079230Y-146317492D01*
X83037846Y-146276108D01*
X82983774Y-146253710D01*
X82954510Y-146250828D01*
X82390224Y-146250828D01*
X82390224Y-145765114D01*
X82740224Y-145765114D01*
X82769488Y-145762232D01*
X82823560Y-145739834D01*
X82864944Y-145698450D01*
X82887342Y-145644378D01*
X82887342Y-145585850D01*
X82864944Y-145531778D01*
X82823560Y-145490394D01*
X82769488Y-145467996D01*
X82740224Y-145465114D01*
X82390224Y-145465114D01*
X82390224Y-145050828D01*
X82954510Y-145050828D01*
X82983774Y-145047946D01*
X83037846Y-145025548D01*
X83079230Y-144984164D01*
X83101628Y-144930092D01*
X83101628Y-144871564D01*
X83235964Y-144871564D01*
X83235964Y-144930092D01*
X83258362Y-144984164D01*
X83299746Y-145025548D01*
X83353818Y-145047946D01*
X83383082Y-145050828D01*
X83661653Y-145050828D01*
X83661653Y-146400828D01*
X83664535Y-146430092D01*
X83686933Y-146484164D01*
X83728317Y-146525548D01*
X83782389Y-146547946D01*
X83840917Y-146547946D01*
X83894989Y-146525548D01*
X83936373Y-146484164D01*
X83958771Y-146430092D01*
X83961653Y-146400828D01*
X83961653Y-145050828D01*
X84240225Y-145050828D01*
X84269489Y-145047946D01*
X84323561Y-145025548D01*
X84364945Y-144984164D01*
X84387343Y-144930092D01*
X84387343Y-144871564D01*
X84364945Y-144817492D01*
X84323561Y-144776108D01*
X84269489Y-144753710D01*
X84240225Y-144750828D01*
X83383082Y-144750828D01*
X83353818Y-144753710D01*
X83299746Y-144776108D01*
X83258362Y-144817492D01*
X83235964Y-144871564D01*
X83101628Y-144871564D01*
X83079230Y-144817492D01*
X83037846Y-144776108D01*
X82983774Y-144753710D01*
X82954510Y-144750828D01*
X82240224Y-144750828D01*
X82210960Y-144753710D01*
X82156888Y-144776108D01*
X82115504Y-144817492D01*
X82093106Y-144871564D01*
X82090224Y-144900828D01*
X81726136Y-144900828D01*
X81715867Y-144880290D01*
X81671653Y-144841943D01*
X81644802Y-144829954D01*
X81430516Y-144758526D01*
X81416008Y-144755227D01*
X81412346Y-144753710D01*
X81407037Y-144753187D01*
X81401843Y-144752006D01*
X81397893Y-144752286D01*
X81383082Y-144750828D01*
X81025939Y-144750828D01*
X80996675Y-144753710D01*
X80991694Y-144755773D01*
X80986320Y-144756155D01*
X80958856Y-144766664D01*
X80816000Y-144838093D01*
X80803406Y-144846020D01*
X80799747Y-144847536D01*
X80795626Y-144850917D01*
X80791114Y-144853758D01*
X80788517Y-144856751D01*
X80777017Y-144866190D01*
X80705588Y-144937618D01*
X80696148Y-144949120D01*
X80693154Y-144951717D01*
X80690312Y-144956231D01*
X80686933Y-144960349D01*
X80685417Y-144964007D01*
X80677489Y-144976603D01*
X80606061Y-145119460D01*
X80595551Y-145146924D01*
X80595169Y-145152299D01*
X80593107Y-145157278D01*
X80590225Y-145186542D01*
X79604510Y-145186542D01*
X79604510Y-145050828D01*
X80168796Y-145050828D01*
X80198060Y-145047946D01*
X80252132Y-145025548D01*
X80293516Y-144984164D01*
X80315914Y-144930092D01*
X80315914Y-144871564D01*
X80293516Y-144817492D01*
X80252132Y-144776108D01*
X80198060Y-144753710D01*
X80168796Y-144750828D01*
X79454510Y-144750828D01*
X79425246Y-144753710D01*
X79371174Y-144776108D01*
X79329790Y-144817492D01*
X79307392Y-144871564D01*
X79304510Y-144900828D01*
X78809499Y-144900828D01*
X78774861Y-144866190D01*
X78763361Y-144856752D01*
X78760764Y-144853758D01*
X78756247Y-144850915D01*
X78752130Y-144847536D01*
X78748473Y-144846021D01*
X78735878Y-144838093D01*
X78593021Y-144766664D01*
X78565558Y-144756155D01*
X78560183Y-144755773D01*
X78555203Y-144753710D01*
X78525939Y-144750828D01*
X77954510Y-144750828D01*
X77925246Y-144753710D01*
X77871174Y-144776108D01*
X77829790Y-144817492D01*
X77807392Y-144871564D01*
X77804510Y-144900828D01*
X77637843Y-144900828D01*
X77637843Y-144584161D01*
X84554010Y-144584161D01*
X84554010Y-146717495D01*
G37*
G36*
X91275432Y-145095535D02*
G01*
X91371698Y-145191801D01*
X91428572Y-145419292D01*
X91428572Y-145882363D01*
X91371698Y-146109854D01*
X91275431Y-146206122D01*
X91186019Y-146250828D01*
X90971125Y-146250828D01*
X90881711Y-146206121D01*
X90785444Y-146109854D01*
X90728572Y-145882364D01*
X90728572Y-145419291D01*
X90785444Y-145191802D01*
X90881711Y-145095534D01*
X90971125Y-145050828D01*
X91186019Y-145050828D01*
X91275432Y-145095535D01*
G37*
G36*
X91426114Y-142688445D02*
G01*
X91526721Y-142789052D01*
X91579900Y-142895411D01*
X91642856Y-143147232D01*
X91642856Y-143324591D01*
X91579900Y-143576412D01*
X91526721Y-143682772D01*
X91426115Y-143783378D01*
X91268513Y-143835912D01*
X91085713Y-143835912D01*
X91085713Y-142635912D01*
X91268516Y-142635912D01*
X91426114Y-142688445D01*
G37*
G36*
X93775431Y-142680619D02*
G01*
X93871697Y-142776885D01*
X93928571Y-143004376D01*
X93928571Y-143467447D01*
X93871697Y-143694938D01*
X93775430Y-143791206D01*
X93686018Y-143835912D01*
X93471124Y-143835912D01*
X93381710Y-143791205D01*
X93285443Y-143694938D01*
X93228571Y-143467448D01*
X93228571Y-143004375D01*
X93285443Y-142776886D01*
X93381710Y-142680618D01*
X93471124Y-142635912D01*
X93686018Y-142635912D01*
X93775431Y-142680619D01*
G37*
G36*
X94895017Y-146717495D02*
G01*
X85976189Y-146717495D01*
X85976189Y-144900828D01*
X86142856Y-144900828D01*
X86142856Y-146115114D01*
X86145738Y-146144378D01*
X86147801Y-146149358D01*
X86148183Y-146154733D01*
X86158692Y-146182196D01*
X86230121Y-146325053D01*
X86238048Y-146337646D01*
X86239564Y-146341306D01*
X86242945Y-146345425D01*
X86245786Y-146349939D01*
X86248779Y-146352535D01*
X86258219Y-146364037D01*
X86329648Y-146435466D01*
X86341152Y-146444907D01*
X86343747Y-146447899D01*
X86348256Y-146450737D01*
X86352379Y-146454121D01*
X86356040Y-146455637D01*
X86368632Y-146463564D01*
X86511490Y-146534992D01*
X86538953Y-146545502D01*
X86544328Y-146545883D01*
X86549307Y-146547946D01*
X86578571Y-146550828D01*
X86864285Y-146550828D01*
X86893549Y-146547946D01*
X86898527Y-146545883D01*
X86903903Y-146545502D01*
X86931367Y-146534992D01*
X87074224Y-146463564D01*
X87086817Y-146455636D01*
X87090477Y-146454121D01*
X87094596Y-146450739D01*
X87099110Y-146447899D01*
X87101706Y-146444905D01*
X87113208Y-146435466D01*
X87184637Y-146364037D01*
X87194078Y-146352532D01*
X87197070Y-146349938D01*
X87199908Y-146345428D01*
X87203292Y-146341306D01*
X87204808Y-146337644D01*
X87212735Y-146325053D01*
X87284163Y-146182195D01*
X87294673Y-146154732D01*
X87295054Y-146149356D01*
X87297117Y-146144378D01*
X87299999Y-146115114D01*
X87299999Y-144900828D01*
X87714285Y-144900828D01*
X87714285Y-146400828D01*
X87717167Y-146430092D01*
X87739565Y-146484164D01*
X87780949Y-146525548D01*
X87835021Y-146547946D01*
X87893549Y-146547946D01*
X87947621Y-146525548D01*
X87989005Y-146484164D01*
X88011403Y-146430092D01*
X88014285Y-146400828D01*
X88014285Y-145465661D01*
X88591192Y-146475249D01*
X88595569Y-146481416D01*
X88596708Y-146484164D01*
X88599507Y-146486963D01*
X88608213Y-146499227D01*
X88623986Y-146511442D01*
X88638092Y-146525548D01*
X88646925Y-146529206D01*
X88654487Y-146535063D01*
X88673735Y-146540312D01*
X88692164Y-146547946D01*
X88701726Y-146547946D01*
X88710951Y-146550462D01*
X88730742Y-146547946D01*
X88750692Y-146547946D01*
X88759525Y-146544286D01*
X88769011Y-146543081D01*
X88786333Y-146533182D01*
X88804764Y-146525548D01*
X88811524Y-146518787D01*
X88819827Y-146514043D01*
X88832040Y-146498271D01*
X88846148Y-146484164D01*
X88849807Y-146475328D01*
X88855662Y-146467769D01*
X88860910Y-146448524D01*
X88868546Y-146430092D01*
X88870019Y-146415127D01*
X88871062Y-146411306D01*
X88870686Y-146408354D01*
X88871428Y-146400828D01*
X88871428Y-144900828D01*
X89285714Y-144900828D01*
X89285714Y-146400828D01*
X89288596Y-146430092D01*
X89310994Y-146484164D01*
X89352378Y-146525548D01*
X89406450Y-146547946D01*
X89435714Y-146550828D01*
X90150000Y-146550828D01*
X90179264Y-146547946D01*
X90233336Y-146525548D01*
X90274720Y-146484164D01*
X90297118Y-146430092D01*
X90297118Y-146371564D01*
X90274720Y-146317492D01*
X90233336Y-146276108D01*
X90179264Y-146253710D01*
X90150000Y-146250828D01*
X89585714Y-146250828D01*
X89585714Y-145400828D01*
X90428572Y-145400828D01*
X90428572Y-145900828D01*
X90429074Y-145905931D01*
X90428749Y-145908119D01*
X90430368Y-145919069D01*
X90431454Y-145930092D01*
X90432301Y-145932136D01*
X90433051Y-145937208D01*
X90504479Y-146222922D01*
X90514372Y-146250613D01*
X90521011Y-146259573D01*
X90525279Y-146269877D01*
X90543934Y-146292608D01*
X90686792Y-146435466D01*
X90698296Y-146444907D01*
X90700891Y-146447899D01*
X90705400Y-146450737D01*
X90709523Y-146454121D01*
X90713184Y-146455637D01*
X90725776Y-146463564D01*
X90868634Y-146534992D01*
X90896097Y-146545502D01*
X90901472Y-146545883D01*
X90906451Y-146547946D01*
X90935715Y-146550828D01*
X91221429Y-146550828D01*
X91250693Y-146547946D01*
X91255671Y-146545883D01*
X91261047Y-146545502D01*
X91288511Y-146534992D01*
X91431368Y-146463564D01*
X91443959Y-146455637D01*
X91447622Y-146454121D01*
X91451744Y-146450737D01*
X91456254Y-146447899D01*
X91458849Y-146444906D01*
X91470352Y-146435466D01*
X91613209Y-146292608D01*
X91631864Y-146269877D01*
X91636130Y-146259575D01*
X91642771Y-146250614D01*
X91652664Y-146222923D01*
X91724093Y-145937209D01*
X91724843Y-145932136D01*
X91725690Y-145930092D01*
X91726775Y-145919072D01*
X91728395Y-145908120D01*
X91728069Y-145905931D01*
X91728572Y-145900828D01*
X91728572Y-145543685D01*
X92000001Y-145543685D01*
X92000001Y-145757971D01*
X92000503Y-145763074D01*
X92000178Y-145765262D01*
X92001797Y-145776212D01*
X92002883Y-145787235D01*
X92003730Y-145789279D01*
X92004480Y-145794351D01*
X92075908Y-146080065D01*
X92076679Y-146082223D01*
X92076756Y-146083304D01*
X92081414Y-146095478D01*
X92085801Y-146107756D01*
X92086445Y-146108626D01*
X92087265Y-146110767D01*
X92158694Y-146253624D01*
X92166621Y-146266217D01*
X92168137Y-146269877D01*
X92171518Y-146273996D01*
X92174359Y-146278510D01*
X92177352Y-146281106D01*
X92186792Y-146292608D01*
X92329649Y-146435466D01*
X92352379Y-146454121D01*
X92357358Y-146456183D01*
X92361430Y-146459715D01*
X92388281Y-146471703D01*
X92602567Y-146543131D01*
X92617079Y-146546430D01*
X92620737Y-146547946D01*
X92626039Y-146548468D01*
X92631241Y-146549651D01*
X92635195Y-146549369D01*
X92650001Y-146550828D01*
X92792858Y-146550828D01*
X92807663Y-146549369D01*
X92811618Y-146549651D01*
X92816819Y-146548468D01*
X92822122Y-146547946D01*
X92825779Y-146546430D01*
X92840292Y-146543131D01*
X93054578Y-146471703D01*
X93081429Y-146459715D01*
X93085502Y-146456181D01*
X93090480Y-146454120D01*
X93113211Y-146435465D01*
X93184639Y-146364036D01*
X93203293Y-146341306D01*
X93225690Y-146287233D01*
X93225689Y-146228707D01*
X93203292Y-146174635D01*
X93161906Y-146133250D01*
X93107834Y-146110853D01*
X93049308Y-146110854D01*
X92995236Y-146133251D01*
X92972505Y-146151906D01*
X92926117Y-146198294D01*
X92768515Y-146250828D01*
X92674344Y-146250828D01*
X92516741Y-146198294D01*
X92416136Y-146097688D01*
X92362955Y-145991328D01*
X92300001Y-145739507D01*
X92300001Y-145562148D01*
X92362955Y-145310327D01*
X92416136Y-145203967D01*
X92516742Y-145103361D01*
X92674344Y-145050828D01*
X92768518Y-145050828D01*
X92926116Y-145103361D01*
X92972506Y-145149751D01*
X92995236Y-145168406D01*
X93049309Y-145190802D01*
X93107835Y-145190802D01*
X93161907Y-145168406D01*
X93203293Y-145127020D01*
X93225689Y-145072948D01*
X93225689Y-145014422D01*
X93203293Y-144960349D01*
X93184638Y-144937619D01*
X93147847Y-144900828D01*
X93571429Y-144900828D01*
X93571429Y-146400828D01*
X93574311Y-146430092D01*
X93596709Y-146484164D01*
X93638093Y-146525548D01*
X93692165Y-146547946D01*
X93750693Y-146547946D01*
X93804765Y-146525548D01*
X93846149Y-146484164D01*
X93868547Y-146430092D01*
X93871429Y-146400828D01*
X93871429Y-145820103D01*
X93919485Y-145772046D01*
X94458572Y-146490828D01*
X94478436Y-146512510D01*
X94528798Y-146542329D01*
X94586735Y-146550606D01*
X94643432Y-146536081D01*
X94690254Y-146500964D01*
X94720073Y-146450603D01*
X94728350Y-146392665D01*
X94713825Y-146335969D01*
X94698572Y-146310828D01*
X94133771Y-145557760D01*
X94684638Y-145006894D01*
X94703293Y-144984164D01*
X94725690Y-144930091D01*
X94725690Y-144871565D01*
X94703293Y-144817493D01*
X94661907Y-144776107D01*
X94607835Y-144753710D01*
X94549309Y-144753710D01*
X94495236Y-144776107D01*
X94472506Y-144794762D01*
X93871429Y-145395839D01*
X93871429Y-144900828D01*
X93868547Y-144871564D01*
X93846149Y-144817492D01*
X93804765Y-144776108D01*
X93750693Y-144753710D01*
X93692165Y-144753710D01*
X93638093Y-144776108D01*
X93596709Y-144817492D01*
X93574311Y-144871564D01*
X93571429Y-144900828D01*
X93147847Y-144900828D01*
X93113210Y-144866191D01*
X93090479Y-144847536D01*
X93085499Y-144845473D01*
X93081429Y-144841943D01*
X93054578Y-144829954D01*
X92840292Y-144758526D01*
X92825784Y-144755227D01*
X92822122Y-144753710D01*
X92816813Y-144753187D01*
X92811619Y-144752006D01*
X92807669Y-144752286D01*
X92792858Y-144750828D01*
X92650001Y-144750828D01*
X92635189Y-144752286D01*
X92631240Y-144752006D01*
X92626045Y-144753187D01*
X92620737Y-144753710D01*
X92617075Y-144755226D01*
X92602566Y-144758526D01*
X92388281Y-144829955D01*
X92361430Y-144841943D01*
X92357360Y-144845472D01*
X92352379Y-144847536D01*
X92329649Y-144866191D01*
X92186792Y-145009048D01*
X92177352Y-145020549D01*
X92174359Y-145023146D01*
X92171518Y-145027659D01*
X92168137Y-145031779D01*
X92166621Y-145035438D01*
X92158694Y-145048032D01*
X92087265Y-145190889D01*
X92086445Y-145193029D01*
X92085801Y-145193900D01*
X92081414Y-145206177D01*
X92076756Y-145218352D01*
X92076679Y-145219432D01*
X92075908Y-145221591D01*
X92004480Y-145507305D01*
X92003730Y-145512376D01*
X92002883Y-145514421D01*
X92001797Y-145525443D01*
X92000178Y-145536394D01*
X92000503Y-145538581D01*
X92000001Y-145543685D01*
X91728572Y-145543685D01*
X91728572Y-145400828D01*
X91728069Y-145395724D01*
X91728395Y-145393536D01*
X91726775Y-145382583D01*
X91725690Y-145371564D01*
X91724843Y-145369519D01*
X91724093Y-145364447D01*
X91652664Y-145078733D01*
X91642771Y-145051042D01*
X91636131Y-145042081D01*
X91631864Y-145031778D01*
X91613209Y-145009048D01*
X91470352Y-144866191D01*
X91458850Y-144856751D01*
X91456254Y-144853758D01*
X91451740Y-144850917D01*
X91447621Y-144847536D01*
X91443961Y-144846020D01*
X91431368Y-144838093D01*
X91288511Y-144766664D01*
X91261048Y-144756155D01*
X91255673Y-144755773D01*
X91250693Y-144753710D01*
X91221429Y-144750828D01*
X90935715Y-144750828D01*
X90906451Y-144753710D01*
X90901470Y-144755773D01*
X90896096Y-144756155D01*
X90868632Y-144766664D01*
X90725776Y-144838093D01*
X90713182Y-144846020D01*
X90709523Y-144847536D01*
X90705403Y-144850917D01*
X90700890Y-144853758D01*
X90698293Y-144856752D01*
X90686792Y-144866191D01*
X90543934Y-145009048D01*
X90525279Y-145031778D01*
X90521010Y-145042083D01*
X90514372Y-145051043D01*
X90504479Y-145078734D01*
X90433051Y-145364448D01*
X90432301Y-145369519D01*
X90431454Y-145371564D01*
X90430368Y-145382586D01*
X90428749Y-145393537D01*
X90429074Y-145395724D01*
X90428572Y-145400828D01*
X89585714Y-145400828D01*
X89585714Y-144900828D01*
X89582832Y-144871564D01*
X89560434Y-144817492D01*
X89519050Y-144776108D01*
X89464978Y-144753710D01*
X89406450Y-144753710D01*
X89352378Y-144776108D01*
X89310994Y-144817492D01*
X89288596Y-144871564D01*
X89285714Y-144900828D01*
X88871428Y-144900828D01*
X88868546Y-144871564D01*
X88846148Y-144817492D01*
X88804764Y-144776108D01*
X88750692Y-144753710D01*
X88692164Y-144753710D01*
X88638092Y-144776108D01*
X88596708Y-144817492D01*
X88574310Y-144871564D01*
X88571428Y-144900828D01*
X88571428Y-145835992D01*
X87994521Y-144826407D01*
X87990143Y-144820239D01*
X87989005Y-144817492D01*
X87986205Y-144814692D01*
X87977500Y-144802429D01*
X87961728Y-144790215D01*
X87947621Y-144776108D01*
X87938785Y-144772448D01*
X87931226Y-144766594D01*
X87911981Y-144761345D01*
X87893549Y-144753710D01*
X87883987Y-144753710D01*
X87874762Y-144751194D01*
X87854971Y-144753710D01*
X87835021Y-144753710D01*
X87826187Y-144757369D01*
X87816702Y-144758575D01*
X87799379Y-144768473D01*
X87780949Y-144776108D01*
X87774188Y-144782868D01*
X87765886Y-144787613D01*
X87753672Y-144803384D01*
X87739565Y-144817492D01*
X87735905Y-144826327D01*
X87730051Y-144833887D01*
X87724802Y-144853131D01*
X87717167Y-144871564D01*
X87715693Y-144886530D01*
X87714651Y-144890351D01*
X87715026Y-144893302D01*
X87714285Y-144900828D01*
X87299999Y-144900828D01*
X87297117Y-144871564D01*
X87274719Y-144817492D01*
X87233335Y-144776108D01*
X87179263Y-144753710D01*
X87120735Y-144753710D01*
X87066663Y-144776108D01*
X87025279Y-144817492D01*
X87002881Y-144871564D01*
X86999999Y-144900828D01*
X86999999Y-146079704D01*
X86955292Y-146169117D01*
X86918287Y-146206122D01*
X86828875Y-146250828D01*
X86613981Y-146250828D01*
X86524567Y-146206121D01*
X86487563Y-146169117D01*
X86442856Y-146079703D01*
X86442856Y-144900828D01*
X86439974Y-144871564D01*
X86417576Y-144817492D01*
X86376192Y-144776108D01*
X86322120Y-144753710D01*
X86263592Y-144753710D01*
X86209520Y-144776108D01*
X86168136Y-144817492D01*
X86145738Y-144871564D01*
X86142856Y-144900828D01*
X85976189Y-144900828D01*
X85976189Y-142771626D01*
X86571428Y-142771626D01*
X86571428Y-142914484D01*
X86574310Y-142943748D01*
X86576372Y-142948726D01*
X86576754Y-142954102D01*
X86587264Y-142981566D01*
X86658692Y-143124423D01*
X86666620Y-143137018D01*
X86668136Y-143140677D01*
X86671515Y-143144794D01*
X86674357Y-143149309D01*
X86677351Y-143151905D01*
X86686791Y-143163408D01*
X86758220Y-143234836D01*
X86769720Y-143244274D01*
X86772317Y-143247268D01*
X86776829Y-143250108D01*
X86780950Y-143253490D01*
X86784609Y-143255005D01*
X86797203Y-143262933D01*
X86940059Y-143334362D01*
X86942201Y-143335181D01*
X86943071Y-143335826D01*
X86955342Y-143340210D01*
X86967523Y-143344871D01*
X86968603Y-143344947D01*
X86970762Y-143345719D01*
X87240500Y-143413153D01*
X87346859Y-143466332D01*
X87383863Y-143503337D01*
X87428571Y-143592751D01*
X87428571Y-143664787D01*
X87383863Y-143754201D01*
X87346860Y-143791205D01*
X87257447Y-143835912D01*
X86960057Y-143835912D01*
X86768862Y-143772181D01*
X86740188Y-143765661D01*
X86681808Y-143769811D01*
X86629461Y-143795985D01*
X86591113Y-143840199D01*
X86572605Y-143895724D01*
X86576755Y-143954104D01*
X86602929Y-144006451D01*
X86647143Y-144044799D01*
X86673994Y-144056787D01*
X86888280Y-144128215D01*
X86902792Y-144131514D01*
X86906450Y-144133030D01*
X86911752Y-144133552D01*
X86916954Y-144134735D01*
X86920908Y-144134453D01*
X86935714Y-144135912D01*
X87292856Y-144135912D01*
X87322120Y-144133030D01*
X87327098Y-144130967D01*
X87332474Y-144130586D01*
X87359937Y-144120076D01*
X87502796Y-144048648D01*
X87515390Y-144040719D01*
X87519050Y-144039204D01*
X87523170Y-144035822D01*
X87527681Y-144032983D01*
X87530275Y-144029991D01*
X87541781Y-144020549D01*
X87613209Y-143949120D01*
X87622647Y-143937619D01*
X87625641Y-143935023D01*
X87628481Y-143930510D01*
X87631863Y-143926390D01*
X87633378Y-143922730D01*
X87641306Y-143910137D01*
X87712735Y-143767281D01*
X87723244Y-143739817D01*
X87723625Y-143734442D01*
X87725689Y-143729462D01*
X87728571Y-143700198D01*
X87728571Y-143557341D01*
X87725689Y-143528077D01*
X87723625Y-143523096D01*
X87723244Y-143517722D01*
X87712735Y-143490258D01*
X87641306Y-143347402D01*
X87633378Y-143334808D01*
X87631863Y-143331149D01*
X87628481Y-143327028D01*
X87625641Y-143322516D01*
X87622647Y-143319919D01*
X87613209Y-143308419D01*
X87541781Y-143236990D01*
X87530278Y-143227550D01*
X87527682Y-143224556D01*
X87523167Y-143221714D01*
X87519050Y-143218335D01*
X87515391Y-143216819D01*
X87502796Y-143208891D01*
X87359938Y-143137462D01*
X87357797Y-143136642D01*
X87356927Y-143135998D01*
X87344671Y-143131619D01*
X87332475Y-143126952D01*
X87331391Y-143126875D01*
X87329236Y-143126105D01*
X87059498Y-143058670D01*
X86953138Y-143005490D01*
X86916133Y-142968485D01*
X86871428Y-142879074D01*
X86871428Y-142807035D01*
X86916133Y-142717624D01*
X86953138Y-142680619D01*
X87042552Y-142635912D01*
X87339945Y-142635912D01*
X87531136Y-142699643D01*
X87559810Y-142706163D01*
X87618190Y-142702014D01*
X87670537Y-142675840D01*
X87708885Y-142631626D01*
X87727393Y-142576102D01*
X87723244Y-142517722D01*
X87697070Y-142465374D01*
X87687009Y-142456648D01*
X87860024Y-142456648D01*
X87860024Y-142515176D01*
X87882422Y-142569248D01*
X87923806Y-142610632D01*
X87977878Y-142633030D01*
X88007142Y-142635912D01*
X88285713Y-142635912D01*
X88285713Y-143985912D01*
X88288595Y-144015176D01*
X88310993Y-144069248D01*
X88352377Y-144110632D01*
X88406449Y-144133030D01*
X88464977Y-144133030D01*
X88519049Y-144110632D01*
X88560433Y-144069248D01*
X88582831Y-144015176D01*
X88585713Y-143985912D01*
X88585713Y-142635912D01*
X88864285Y-142635912D01*
X88893549Y-142633030D01*
X88947621Y-142610632D01*
X88989005Y-142569248D01*
X89011403Y-142515176D01*
X89011403Y-142485912D01*
X89214284Y-142485912D01*
X89214284Y-143700198D01*
X89217166Y-143729462D01*
X89219229Y-143734442D01*
X89219611Y-143739817D01*
X89230120Y-143767280D01*
X89301549Y-143910137D01*
X89309476Y-143922730D01*
X89310992Y-143926390D01*
X89314373Y-143930509D01*
X89317214Y-143935023D01*
X89320207Y-143937619D01*
X89329647Y-143949121D01*
X89401076Y-144020550D01*
X89412580Y-144029991D01*
X89415175Y-144032983D01*
X89419684Y-144035821D01*
X89423807Y-144039205D01*
X89427468Y-144040721D01*
X89440060Y-144048648D01*
X89582918Y-144120076D01*
X89610381Y-144130586D01*
X89615756Y-144130967D01*
X89620735Y-144133030D01*
X89649999Y-144135912D01*
X89935713Y-144135912D01*
X89964977Y-144133030D01*
X89969955Y-144130967D01*
X89975331Y-144130586D01*
X90002795Y-144120076D01*
X90145652Y-144048648D01*
X90158245Y-144040720D01*
X90161905Y-144039205D01*
X90166024Y-144035823D01*
X90170538Y-144032983D01*
X90173134Y-144029989D01*
X90184636Y-144020550D01*
X90256065Y-143949121D01*
X90265506Y-143937616D01*
X90268498Y-143935022D01*
X90271336Y-143930512D01*
X90274720Y-143926390D01*
X90276236Y-143922728D01*
X90284163Y-143910137D01*
X90355591Y-143767279D01*
X90366101Y-143739816D01*
X90366482Y-143734440D01*
X90368545Y-143729462D01*
X90371427Y-143700198D01*
X90371427Y-142485912D01*
X90785713Y-142485912D01*
X90785713Y-143985912D01*
X90788595Y-144015176D01*
X90810993Y-144069248D01*
X90852377Y-144110632D01*
X90906449Y-144133030D01*
X90935713Y-144135912D01*
X91292856Y-144135912D01*
X91307661Y-144134453D01*
X91311616Y-144134735D01*
X91316817Y-144133552D01*
X91322120Y-144133030D01*
X91325777Y-144131514D01*
X91340290Y-144128215D01*
X91554576Y-144056787D01*
X91581427Y-144044799D01*
X91585498Y-144041267D01*
X91590478Y-144039205D01*
X91613208Y-144020550D01*
X91756065Y-143877692D01*
X91765503Y-143866190D01*
X91768498Y-143863594D01*
X91771338Y-143859080D01*
X91774720Y-143854961D01*
X91776235Y-143851301D01*
X91784163Y-143838708D01*
X91855592Y-143695852D01*
X91856411Y-143693709D01*
X91857056Y-143692840D01*
X91861440Y-143680568D01*
X91866101Y-143668388D01*
X91866177Y-143667307D01*
X91866949Y-143665149D01*
X91938377Y-143379435D01*
X91939126Y-143374363D01*
X91939974Y-143372319D01*
X91941059Y-143361296D01*
X91942679Y-143350346D01*
X91942353Y-143348158D01*
X91942856Y-143343055D01*
X91942856Y-143128769D01*
X91942353Y-143123665D01*
X91942679Y-143121478D01*
X91941059Y-143110527D01*
X91939974Y-143099505D01*
X91939126Y-143097460D01*
X91938377Y-143092389D01*
X91866949Y-142806675D01*
X91866177Y-142804516D01*
X91866101Y-142803436D01*
X91861440Y-142791255D01*
X91857056Y-142778984D01*
X91856411Y-142778114D01*
X91855592Y-142775972D01*
X91784163Y-142633116D01*
X91776236Y-142620524D01*
X91774720Y-142616862D01*
X91771336Y-142612739D01*
X91768498Y-142608230D01*
X91765505Y-142605634D01*
X91756065Y-142594132D01*
X91647845Y-142485912D01*
X92285713Y-142485912D01*
X92285713Y-143985912D01*
X92288595Y-144015176D01*
X92310993Y-144069248D01*
X92352377Y-144110632D01*
X92406449Y-144133030D01*
X92464977Y-144133030D01*
X92519049Y-144110632D01*
X92560433Y-144069248D01*
X92582831Y-144015176D01*
X92585713Y-143985912D01*
X92585713Y-142985912D01*
X92928571Y-142985912D01*
X92928571Y-143485912D01*
X92929073Y-143491015D01*
X92928748Y-143493203D01*
X92930367Y-143504153D01*
X92931453Y-143515176D01*
X92932300Y-143517220D01*
X92933050Y-143522292D01*
X93004478Y-143808006D01*
X93014371Y-143835697D01*
X93021010Y-143844657D01*
X93025278Y-143854961D01*
X93043933Y-143877692D01*
X93186791Y-144020550D01*
X93198295Y-144029991D01*
X93200890Y-144032983D01*
X93205399Y-144035821D01*
X93209522Y-144039205D01*
X93213183Y-144040721D01*
X93225775Y-144048648D01*
X93368633Y-144120076D01*
X93396096Y-144130586D01*
X93401471Y-144130967D01*
X93406450Y-144133030D01*
X93435714Y-144135912D01*
X93721428Y-144135912D01*
X93750692Y-144133030D01*
X93755670Y-144130967D01*
X93761046Y-144130586D01*
X93788510Y-144120076D01*
X93931367Y-144048648D01*
X93943958Y-144040721D01*
X93947621Y-144039205D01*
X93951743Y-144035821D01*
X93956253Y-144032983D01*
X93958848Y-144029990D01*
X93970351Y-144020550D01*
X94113208Y-143877692D01*
X94131863Y-143854961D01*
X94136129Y-143844659D01*
X94142770Y-143835698D01*
X94152663Y-143808007D01*
X94224092Y-143522293D01*
X94224842Y-143517220D01*
X94225689Y-143515176D01*
X94226774Y-143504156D01*
X94228394Y-143493204D01*
X94228068Y-143491015D01*
X94228571Y-143485912D01*
X94228571Y-142985912D01*
X94228068Y-142980808D01*
X94228394Y-142978620D01*
X94226774Y-142967667D01*
X94225689Y-142956648D01*
X94224842Y-142954603D01*
X94224092Y-142949531D01*
X94152663Y-142663817D01*
X94142770Y-142636126D01*
X94136130Y-142627165D01*
X94131863Y-142616862D01*
X94113208Y-142594132D01*
X93970351Y-142451275D01*
X93958849Y-142441835D01*
X93956253Y-142438842D01*
X93951739Y-142436001D01*
X93947620Y-142432620D01*
X93943960Y-142431104D01*
X93931367Y-142423177D01*
X93788510Y-142351748D01*
X93761047Y-142341239D01*
X93755672Y-142340857D01*
X93750692Y-142338794D01*
X93721428Y-142335912D01*
X93435714Y-142335912D01*
X93406450Y-142338794D01*
X93401469Y-142340857D01*
X93396095Y-142341239D01*
X93368631Y-142351748D01*
X93225775Y-142423177D01*
X93213181Y-142431104D01*
X93209522Y-142432620D01*
X93205402Y-142436001D01*
X93200889Y-142438842D01*
X93198292Y-142441836D01*
X93186791Y-142451275D01*
X93043933Y-142594132D01*
X93025278Y-142616862D01*
X93021009Y-142627167D01*
X93014371Y-142636127D01*
X93004478Y-142663818D01*
X92933050Y-142949532D01*
X92932300Y-142954603D01*
X92931453Y-142956648D01*
X92930367Y-142967670D01*
X92928748Y-142978621D01*
X92929073Y-142980808D01*
X92928571Y-142985912D01*
X92585713Y-142985912D01*
X92585713Y-142485912D01*
X92582831Y-142456648D01*
X92560433Y-142402576D01*
X92519049Y-142361192D01*
X92464977Y-142338794D01*
X92406449Y-142338794D01*
X92352377Y-142361192D01*
X92310993Y-142402576D01*
X92288595Y-142456648D01*
X92285713Y-142485912D01*
X91647845Y-142485912D01*
X91613208Y-142451275D01*
X91590477Y-142432620D01*
X91585497Y-142430557D01*
X91581427Y-142427027D01*
X91554576Y-142415038D01*
X91340290Y-142343610D01*
X91325782Y-142340311D01*
X91322120Y-142338794D01*
X91316811Y-142338271D01*
X91311617Y-142337090D01*
X91307667Y-142337370D01*
X91292856Y-142335912D01*
X90935713Y-142335912D01*
X90906449Y-142338794D01*
X90852377Y-142361192D01*
X90810993Y-142402576D01*
X90788595Y-142456648D01*
X90785713Y-142485912D01*
X90371427Y-142485912D01*
X90368545Y-142456648D01*
X90346147Y-142402576D01*
X90304763Y-142361192D01*
X90250691Y-142338794D01*
X90192163Y-142338794D01*
X90138091Y-142361192D01*
X90096707Y-142402576D01*
X90074309Y-142456648D01*
X90071427Y-142485912D01*
X90071427Y-143664788D01*
X90026720Y-143754201D01*
X89989715Y-143791206D01*
X89900303Y-143835912D01*
X89685409Y-143835912D01*
X89595995Y-143791205D01*
X89558991Y-143754201D01*
X89514284Y-143664787D01*
X89514284Y-142485912D01*
X89511402Y-142456648D01*
X89489004Y-142402576D01*
X89447620Y-142361192D01*
X89393548Y-142338794D01*
X89335020Y-142338794D01*
X89280948Y-142361192D01*
X89239564Y-142402576D01*
X89217166Y-142456648D01*
X89214284Y-142485912D01*
X89011403Y-142485912D01*
X89011403Y-142456648D01*
X88989005Y-142402576D01*
X88947621Y-142361192D01*
X88893549Y-142338794D01*
X88864285Y-142335912D01*
X88007142Y-142335912D01*
X87977878Y-142338794D01*
X87923806Y-142361192D01*
X87882422Y-142402576D01*
X87860024Y-142456648D01*
X87687009Y-142456648D01*
X87652856Y-142427027D01*
X87626005Y-142415038D01*
X87411719Y-142343610D01*
X87397211Y-142340311D01*
X87393549Y-142338794D01*
X87388240Y-142338271D01*
X87383046Y-142337090D01*
X87379096Y-142337370D01*
X87364285Y-142335912D01*
X87007142Y-142335912D01*
X86977878Y-142338794D01*
X86972897Y-142340857D01*
X86967523Y-142341239D01*
X86940059Y-142351748D01*
X86797203Y-142423177D01*
X86784609Y-142431104D01*
X86780950Y-142432620D01*
X86776829Y-142436001D01*
X86772317Y-142438842D01*
X86769720Y-142441835D01*
X86758220Y-142451274D01*
X86686791Y-142522702D01*
X86677351Y-142534204D01*
X86674357Y-142536801D01*
X86671515Y-142541315D01*
X86668136Y-142545433D01*
X86666620Y-142549091D01*
X86658692Y-142561687D01*
X86587264Y-142704544D01*
X86576754Y-142732008D01*
X86576372Y-142737383D01*
X86574310Y-142742362D01*
X86571428Y-142771626D01*
X85976189Y-142771626D01*
X85976189Y-141571154D01*
X88142857Y-141571154D01*
X88145739Y-141585563D01*
X88145739Y-141600260D01*
X88151422Y-141613980D01*
X88154335Y-141628543D01*
X88162513Y-141640755D01*
X88168137Y-141654332D01*
X88178635Y-141664830D01*
X88186901Y-141677173D01*
X88199131Y-141685326D01*
X88209521Y-141695716D01*
X88223242Y-141701399D01*
X88235600Y-141709638D01*
X88250014Y-141712489D01*
X88263593Y-141718114D01*
X88292857Y-141720996D01*
X88293015Y-141720996D01*
X89292857Y-141720996D01*
X89322121Y-141718114D01*
X89376193Y-141695716D01*
X89417577Y-141654332D01*
X89439975Y-141600260D01*
X89439975Y-141541732D01*
X89417577Y-141487660D01*
X89376193Y-141446276D01*
X89322121Y-141423878D01*
X89292857Y-141420996D01*
X88573135Y-141420996D01*
X89417665Y-140154201D01*
X89431500Y-140128253D01*
X89434352Y-140113834D01*
X89439975Y-140100260D01*
X89439975Y-140085407D01*
X89442826Y-140070996D01*
X89714285Y-140070996D01*
X89714285Y-141570996D01*
X89717167Y-141600260D01*
X89739565Y-141654332D01*
X89780949Y-141695716D01*
X89835021Y-141718114D01*
X89893549Y-141718114D01*
X89947621Y-141695716D01*
X89989005Y-141654332D01*
X90011403Y-141600260D01*
X90014285Y-141570996D01*
X90014285Y-140747129D01*
X90228358Y-141205858D01*
X90234704Y-141216571D01*
X90236025Y-141220203D01*
X90238376Y-141222771D01*
X90243345Y-141231158D01*
X90260150Y-141246548D01*
X90275552Y-141263366D01*
X90281595Y-141266186D01*
X90286508Y-141270685D01*
X90307928Y-141278474D01*
X90328590Y-141288116D01*
X90335247Y-141288408D01*
X90341510Y-141290686D01*
X90364289Y-141289685D01*
X90387060Y-141290686D01*
X90393319Y-141288409D01*
X90399981Y-141288117D01*
X90420648Y-141278472D01*
X90442063Y-141270685D01*
X90446976Y-141266185D01*
X90453018Y-141263366D01*
X90468413Y-141246553D01*
X90485226Y-141231158D01*
X90490194Y-141222769D01*
X90492545Y-141220203D01*
X90493864Y-141216573D01*
X90500212Y-141205858D01*
X90714285Y-140747130D01*
X90714285Y-141570996D01*
X90717167Y-141600260D01*
X90739565Y-141654332D01*
X90780949Y-141695716D01*
X90835021Y-141718114D01*
X90893549Y-141718114D01*
X90947621Y-141695716D01*
X90989005Y-141654332D01*
X91011403Y-141600260D01*
X91014285Y-141570996D01*
X91014285Y-140070996D01*
X91428571Y-140070996D01*
X91428571Y-141570996D01*
X91431453Y-141600260D01*
X91453851Y-141654332D01*
X91495235Y-141695716D01*
X91549307Y-141718114D01*
X91607835Y-141718114D01*
X91661907Y-141695716D01*
X91703291Y-141654332D01*
X91725689Y-141600260D01*
X91728571Y-141570996D01*
X91728571Y-140990271D01*
X91776627Y-140942214D01*
X92315714Y-141660996D01*
X92335578Y-141682678D01*
X92385940Y-141712497D01*
X92443877Y-141720774D01*
X92500574Y-141706249D01*
X92547396Y-141671132D01*
X92577215Y-141620771D01*
X92585492Y-141562833D01*
X92570967Y-141506137D01*
X92555714Y-141480996D01*
X91990913Y-140727928D01*
X92541780Y-140177062D01*
X92560435Y-140154332D01*
X92582832Y-140100259D01*
X92582832Y-140041733D01*
X92560435Y-139987661D01*
X92519049Y-139946275D01*
X92464977Y-139923878D01*
X92406451Y-139923878D01*
X92352378Y-139946275D01*
X92329648Y-139964930D01*
X91728571Y-140566007D01*
X91728571Y-140070996D01*
X91725689Y-140041732D01*
X91703291Y-139987660D01*
X91661907Y-139946276D01*
X91607835Y-139923878D01*
X91549307Y-139923878D01*
X91495235Y-139946276D01*
X91453851Y-139987660D01*
X91431453Y-140041732D01*
X91428571Y-140070996D01*
X91014285Y-140070996D01*
X91012390Y-140051758D01*
X91012546Y-140048220D01*
X91011854Y-140046319D01*
X91011403Y-140041732D01*
X91001442Y-140017686D01*
X90992545Y-139993218D01*
X90990285Y-139990750D01*
X90989005Y-139987660D01*
X90970607Y-139969262D01*
X90953018Y-139950055D01*
X90949984Y-139948639D01*
X90947621Y-139946276D01*
X90923590Y-139936322D01*
X90899981Y-139925304D01*
X90896636Y-139925157D01*
X90893549Y-139923878D01*
X90867525Y-139923878D01*
X90841510Y-139922735D01*
X90838367Y-139923878D01*
X90835021Y-139923878D01*
X90810968Y-139933841D01*
X90786508Y-139942736D01*
X90784040Y-139944995D01*
X90780949Y-139946276D01*
X90762540Y-139964684D01*
X90743345Y-139982263D01*
X90740995Y-139986229D01*
X90739565Y-139987660D01*
X90738209Y-139990932D01*
X90728358Y-140007563D01*
X90364285Y-140787719D01*
X90000212Y-140007563D01*
X89990358Y-139990928D01*
X89989005Y-139987660D01*
X89987576Y-139986231D01*
X89985226Y-139982263D01*
X89966018Y-139964673D01*
X89947621Y-139946276D01*
X89944530Y-139944995D01*
X89942063Y-139942736D01*
X89917597Y-139933839D01*
X89893549Y-139923878D01*
X89890203Y-139923878D01*
X89887060Y-139922735D01*
X89861056Y-139923878D01*
X89835021Y-139923878D01*
X89831930Y-139925158D01*
X89828590Y-139925305D01*
X89804994Y-139936315D01*
X89780949Y-139946276D01*
X89778585Y-139948639D01*
X89775552Y-139950055D01*
X89757962Y-139969262D01*
X89739565Y-139987660D01*
X89738284Y-139990750D01*
X89736025Y-139993218D01*
X89727128Y-140017683D01*
X89717167Y-140041732D01*
X89716715Y-140046320D01*
X89716024Y-140048221D01*
X89716179Y-140051759D01*
X89714285Y-140070996D01*
X89442826Y-140070996D01*
X89442857Y-140070838D01*
X89439975Y-140056428D01*
X89439975Y-140041732D01*
X89434291Y-140028011D01*
X89431379Y-140013449D01*
X89423200Y-140001236D01*
X89417577Y-139987660D01*
X89407078Y-139977161D01*
X89398813Y-139964819D01*
X89386582Y-139956665D01*
X89376193Y-139946276D01*
X89362474Y-139940593D01*
X89350114Y-139932353D01*
X89335695Y-139929500D01*
X89322121Y-139923878D01*
X89292857Y-139920996D01*
X88292857Y-139920996D01*
X88263593Y-139923878D01*
X88209521Y-139946276D01*
X88168137Y-139987660D01*
X88145739Y-140041732D01*
X88145739Y-140100260D01*
X88168137Y-140154332D01*
X88209521Y-140195716D01*
X88263593Y-140218114D01*
X88292857Y-140220996D01*
X89012580Y-140220996D01*
X88168049Y-141487791D01*
X88154215Y-141513739D01*
X88151363Y-141528153D01*
X88145739Y-141541732D01*
X88145739Y-141556585D01*
X88142857Y-141571154D01*
X85976189Y-141571154D01*
X85976189Y-139754329D01*
X94895017Y-139754329D01*
X94895017Y-146717495D01*
G37*
G36*
X92950386Y-130439599D02*
G01*
X93311419Y-130511413D01*
X93663674Y-130618268D01*
X94003759Y-130759136D01*
X94328399Y-130932660D01*
X94634468Y-131137169D01*
X94919018Y-131370692D01*
X95179308Y-131630982D01*
X95412831Y-131915532D01*
X95617340Y-132221601D01*
X95790864Y-132546241D01*
X95931732Y-132886326D01*
X96038587Y-133238581D01*
X96110401Y-133599614D01*
X96146482Y-133965947D01*
X96146482Y-134334053D01*
X96110401Y-134700386D01*
X96038587Y-135061419D01*
X95931732Y-135413674D01*
X95790864Y-135753759D01*
X95617340Y-136078399D01*
X95412831Y-136384468D01*
X95179308Y-136669018D01*
X94919018Y-136929308D01*
X94634468Y-137162831D01*
X94328399Y-137367340D01*
X94003759Y-137540864D01*
X93663674Y-137681732D01*
X93311419Y-137788587D01*
X92950386Y-137860401D01*
X92584053Y-137896482D01*
X92215947Y-137896482D01*
X91849614Y-137860401D01*
X91488581Y-137788587D01*
X91136326Y-137681732D01*
X90796241Y-137540864D01*
X90471601Y-137367340D01*
X90165532Y-137162831D01*
X89880982Y-136929308D01*
X89620692Y-136669018D01*
X89387169Y-136384468D01*
X89182660Y-136078399D01*
X89009136Y-135753759D01*
X88868268Y-135413674D01*
X88761413Y-135061419D01*
X88689599Y-134700386D01*
X88653518Y-134334053D01*
X88653518Y-133965947D01*
X88689599Y-133599614D01*
X88761413Y-133238581D01*
X88868268Y-132886326D01*
X89009136Y-132546241D01*
X89182660Y-132221601D01*
X89387169Y-131915532D01*
X89620692Y-131630982D01*
X89880982Y-131370692D01*
X90165532Y-131137169D01*
X90471601Y-130932660D01*
X90796241Y-130759136D01*
X91136326Y-130618268D01*
X91488581Y-130511413D01*
X91849614Y-130439599D01*
X92215947Y-130403518D01*
X92584053Y-130403518D01*
X92950386Y-130439599D01*
G37*
G36*
X40700386Y-130389599D02*
G01*
X41061419Y-130461413D01*
X41413674Y-130568268D01*
X41753759Y-130709136D01*
X42078399Y-130882660D01*
X42384468Y-131087169D01*
X42669018Y-131320692D01*
X42929308Y-131580982D01*
X43162831Y-131865532D01*
X43367340Y-132171601D01*
X43540864Y-132496241D01*
X43681732Y-132836326D01*
X43788587Y-133188581D01*
X43860401Y-133549614D01*
X43896482Y-133915947D01*
X43896482Y-134284053D01*
X43860401Y-134650386D01*
X43788587Y-135011419D01*
X43681732Y-135363674D01*
X43540864Y-135703759D01*
X43367340Y-136028399D01*
X43162831Y-136334468D01*
X42929308Y-136619018D01*
X42669018Y-136879308D01*
X42384468Y-137112831D01*
X42078399Y-137317340D01*
X41753759Y-137490864D01*
X41413674Y-137631732D01*
X41061419Y-137738587D01*
X40700386Y-137810401D01*
X40334053Y-137846482D01*
X39965947Y-137846482D01*
X39599614Y-137810401D01*
X39238581Y-137738587D01*
X38886326Y-137631732D01*
X38546241Y-137490864D01*
X38221601Y-137317340D01*
X37915532Y-137112831D01*
X37630982Y-136879308D01*
X37370692Y-136619018D01*
X37137169Y-136334468D01*
X36932660Y-136028399D01*
X36759136Y-135703759D01*
X36618268Y-135363674D01*
X36511413Y-135011419D01*
X36439599Y-134650386D01*
X36403518Y-134284053D01*
X36403518Y-133915947D01*
X36439599Y-133549614D01*
X36511413Y-133188581D01*
X36618268Y-132836326D01*
X36759136Y-132496241D01*
X36932660Y-132171601D01*
X37137169Y-131865532D01*
X37370692Y-131580982D01*
X37630982Y-131320692D01*
X37915532Y-131087169D01*
X38221601Y-130882660D01*
X38546241Y-130709136D01*
X38886326Y-130568268D01*
X39238581Y-130461413D01*
X39599614Y-130389599D01*
X39965947Y-130353518D01*
X40334053Y-130353518D01*
X40700386Y-130389599D01*
G37*
G36*
X94483403Y-124308992D02*
G01*
X94520406Y-124345996D01*
X94565114Y-124435410D01*
X94565114Y-124750000D01*
X94150828Y-124750000D01*
X94150828Y-124435410D01*
X94195535Y-124345995D01*
X94232539Y-124308991D01*
X94321952Y-124264285D01*
X94393990Y-124264285D01*
X94483403Y-124308992D01*
G37*
G36*
X95269116Y-124237562D02*
G01*
X95306121Y-124274567D01*
X95350828Y-124363980D01*
X95350828Y-124750000D01*
X94865114Y-124750000D01*
X94865114Y-124424342D01*
X94917647Y-124266740D01*
X94946824Y-124237563D01*
X95036238Y-124192857D01*
X95179704Y-124192857D01*
X95269116Y-124237562D01*
G37*
G36*
X92794938Y-123892587D02*
G01*
X92891205Y-123988854D01*
X92935912Y-124078266D01*
X92935912Y-124293161D01*
X92891206Y-124382574D01*
X92794938Y-124478841D01*
X92567448Y-124535714D01*
X92104376Y-124535714D01*
X91876885Y-124478841D01*
X91780619Y-124382575D01*
X91735912Y-124293161D01*
X91735912Y-124078267D01*
X91780619Y-123988853D01*
X91876885Y-123892587D01*
X92104376Y-123835714D01*
X92567447Y-123835714D01*
X92794938Y-123892587D01*
G37*
G36*
X94922257Y-123263314D02*
G01*
X94475168Y-123114285D01*
X94922257Y-122965255D01*
X94922257Y-123263314D01*
G37*
G36*
X92139914Y-122380419D02*
G01*
X92176919Y-122417424D01*
X92221626Y-122506837D01*
X92221626Y-122892857D01*
X91735912Y-122892857D01*
X91735912Y-122506838D01*
X91780619Y-122417423D01*
X91817623Y-122380419D01*
X91907036Y-122335714D01*
X92050502Y-122335714D01*
X92139914Y-122380419D01*
G37*
G36*
X92507341Y-116620456D02*
G01*
X92060252Y-116471427D01*
X92507341Y-116322397D01*
X92507341Y-116620456D01*
G37*
G36*
X94554830Y-115308991D02*
G01*
X94591835Y-115345996D01*
X94636542Y-115435409D01*
X94636542Y-115821429D01*
X94150828Y-115821429D01*
X94150828Y-115435410D01*
X94195535Y-115345995D01*
X94232539Y-115308991D01*
X94321952Y-115264286D01*
X94465418Y-115264286D01*
X94554830Y-115308991D01*
G37*
G36*
X95209854Y-113749730D02*
G01*
X95306121Y-113845997D01*
X95350828Y-113935409D01*
X95350828Y-114150304D01*
X95306122Y-114239717D01*
X95209854Y-114335984D01*
X94982364Y-114392857D01*
X94519292Y-114392857D01*
X94291801Y-114335984D01*
X94195535Y-114239718D01*
X94150828Y-114150304D01*
X94150828Y-113935410D01*
X94195535Y-113845996D01*
X94291801Y-113749730D01*
X94519292Y-113692857D01*
X94982363Y-113692857D01*
X95209854Y-113749730D01*
G37*
G36*
X92794938Y-112892586D02*
G01*
X92891205Y-112988853D01*
X92935912Y-113078265D01*
X92935912Y-113293160D01*
X92891206Y-113382573D01*
X92794938Y-113478840D01*
X92567448Y-113535713D01*
X92104376Y-113535713D01*
X91876885Y-113478840D01*
X91780619Y-113382574D01*
X91735912Y-113293160D01*
X91735912Y-113078266D01*
X91780619Y-112988852D01*
X91876885Y-112892586D01*
X92104376Y-112835713D01*
X92567447Y-112835713D01*
X92794938Y-112892586D01*
G37*
G36*
X95817495Y-125216667D02*
G01*
X91269245Y-125216667D01*
X91269245Y-124042857D01*
X91435912Y-124042857D01*
X91435912Y-124328571D01*
X91438794Y-124357835D01*
X91440855Y-124362812D01*
X91441238Y-124368190D01*
X91451748Y-124395653D01*
X91523177Y-124538511D01*
X91531104Y-124551104D01*
X91532620Y-124554764D01*
X91536001Y-124558883D01*
X91538842Y-124563397D01*
X91541835Y-124565993D01*
X91551275Y-124577495D01*
X91694132Y-124720352D01*
X91716862Y-124739007D01*
X91727167Y-124743275D01*
X91736127Y-124749914D01*
X91763818Y-124759807D01*
X92049532Y-124831235D01*
X92054603Y-124831984D01*
X92056648Y-124832832D01*
X92067670Y-124833917D01*
X92078621Y-124835537D01*
X92080808Y-124835211D01*
X92085912Y-124835714D01*
X92585912Y-124835714D01*
X92591015Y-124835211D01*
X92593203Y-124835537D01*
X92604153Y-124833917D01*
X92615176Y-124832832D01*
X92617220Y-124831984D01*
X92622292Y-124831235D01*
X92908006Y-124759807D01*
X92935697Y-124749914D01*
X92944657Y-124743274D01*
X92954961Y-124739007D01*
X92977692Y-124720352D01*
X93120550Y-124577495D01*
X93129990Y-124565991D01*
X93132984Y-124563396D01*
X93135822Y-124558886D01*
X93139205Y-124554765D01*
X93140722Y-124551102D01*
X93148648Y-124538510D01*
X93217903Y-124400000D01*
X93850828Y-124400000D01*
X93850828Y-124900000D01*
X93853710Y-124929264D01*
X93876108Y-124983336D01*
X93917492Y-125024720D01*
X93971564Y-125047118D01*
X94000828Y-125050000D01*
X95500828Y-125050000D01*
X95530092Y-125047118D01*
X95584164Y-125024720D01*
X95625548Y-124983336D01*
X95647946Y-124929264D01*
X95650828Y-124900000D01*
X95650828Y-124328571D01*
X95647946Y-124299307D01*
X95645883Y-124294328D01*
X95645502Y-124288953D01*
X95634992Y-124261490D01*
X95563564Y-124118632D01*
X95555637Y-124106040D01*
X95554121Y-124102379D01*
X95550737Y-124098256D01*
X95547899Y-124093747D01*
X95544907Y-124091152D01*
X95535466Y-124079648D01*
X95464037Y-124008219D01*
X95452535Y-123998779D01*
X95449939Y-123995786D01*
X95445425Y-123992945D01*
X95441306Y-123989564D01*
X95437646Y-123988048D01*
X95425053Y-123980121D01*
X95282196Y-123908693D01*
X95254732Y-123898183D01*
X95249356Y-123897801D01*
X95244378Y-123895739D01*
X95215114Y-123892857D01*
X95000828Y-123892857D01*
X94971564Y-123895739D01*
X94966585Y-123897801D01*
X94961210Y-123898183D01*
X94933747Y-123908693D01*
X94790889Y-123980121D01*
X94778297Y-123988047D01*
X94774636Y-123989564D01*
X94770513Y-123992947D01*
X94766004Y-123995786D01*
X94763409Y-123998777D01*
X94751905Y-124008219D01*
X94680476Y-124079648D01*
X94679505Y-124080830D01*
X94678324Y-124079649D01*
X94666821Y-124070209D01*
X94664225Y-124067215D01*
X94659710Y-124064373D01*
X94655593Y-124060994D01*
X94651934Y-124059478D01*
X94639339Y-124051550D01*
X94496482Y-123980121D01*
X94469019Y-123969612D01*
X94463644Y-123969230D01*
X94458664Y-123967167D01*
X94429400Y-123964285D01*
X94286542Y-123964285D01*
X94257278Y-123967167D01*
X94252297Y-123969230D01*
X94246923Y-123969612D01*
X94219459Y-123980121D01*
X94076603Y-124051550D01*
X94064006Y-124059478D01*
X94060349Y-124060994D01*
X94056231Y-124064373D01*
X94051717Y-124067215D01*
X94049119Y-124070209D01*
X94037618Y-124079649D01*
X93966190Y-124151078D01*
X93956752Y-124162577D01*
X93953758Y-124165175D01*
X93950915Y-124169691D01*
X93947536Y-124173809D01*
X93946021Y-124177465D01*
X93938093Y-124190061D01*
X93866664Y-124332918D01*
X93856155Y-124360381D01*
X93855773Y-124365755D01*
X93853710Y-124370736D01*
X93850828Y-124400000D01*
X93217903Y-124400000D01*
X93220077Y-124395652D01*
X93230586Y-124368189D01*
X93230967Y-124362813D01*
X93233030Y-124357835D01*
X93235912Y-124328571D01*
X93235912Y-124042857D01*
X93233030Y-124013593D01*
X93230967Y-124008614D01*
X93230586Y-124003239D01*
X93220076Y-123975776D01*
X93148648Y-123832918D01*
X93140722Y-123820327D01*
X93139205Y-123816664D01*
X93135819Y-123812538D01*
X93132983Y-123808033D01*
X93129993Y-123805440D01*
X93120550Y-123793934D01*
X92977692Y-123651077D01*
X92954961Y-123632422D01*
X92944657Y-123628154D01*
X92935697Y-123621515D01*
X92908006Y-123611622D01*
X92622293Y-123540193D01*
X92617220Y-123539442D01*
X92615176Y-123538596D01*
X92604154Y-123537510D01*
X92593203Y-123535891D01*
X92591015Y-123536216D01*
X92585912Y-123535714D01*
X92085912Y-123535714D01*
X92080808Y-123536216D01*
X92078620Y-123535891D01*
X92067667Y-123537510D01*
X92056648Y-123538596D01*
X92054603Y-123539442D01*
X92049531Y-123540193D01*
X91763817Y-123611622D01*
X91736126Y-123621515D01*
X91727165Y-123628154D01*
X91716862Y-123632422D01*
X91694132Y-123651077D01*
X91551275Y-123793934D01*
X91541835Y-123805435D01*
X91538842Y-123808032D01*
X91536001Y-123812545D01*
X91532620Y-123816665D01*
X91531104Y-123820324D01*
X91523177Y-123832918D01*
X91451748Y-123975775D01*
X91441239Y-124003238D01*
X91440857Y-124008612D01*
X91438794Y-124013593D01*
X91435912Y-124042857D01*
X91269245Y-124042857D01*
X91269245Y-122471428D01*
X91435912Y-122471428D01*
X91435912Y-123042857D01*
X91438794Y-123072121D01*
X91461192Y-123126193D01*
X91502576Y-123167577D01*
X91556648Y-123189975D01*
X91585912Y-123192857D01*
X93085912Y-123192857D01*
X93115176Y-123189975D01*
X93169248Y-123167577D01*
X93210632Y-123126193D01*
X93223336Y-123095524D01*
X93852006Y-123095524D01*
X93853339Y-123114285D01*
X93852006Y-123133046D01*
X93855395Y-123143213D01*
X93856155Y-123153905D01*
X93864566Y-123170728D01*
X93870514Y-123188570D01*
X93877536Y-123196666D01*
X93882329Y-123206252D01*
X93896537Y-123218575D01*
X93908861Y-123232784D01*
X93918446Y-123237576D01*
X93926543Y-123244599D01*
X93953394Y-123256587D01*
X95453394Y-123756588D01*
X95482068Y-123763108D01*
X95540448Y-123758958D01*
X95592795Y-123732784D01*
X95631142Y-123688570D01*
X95649651Y-123633046D01*
X95645501Y-123574666D01*
X95619328Y-123522318D01*
X95575113Y-123483971D01*
X95548262Y-123471983D01*
X95222257Y-123363314D01*
X95222257Y-122865255D01*
X95548262Y-122756587D01*
X95575113Y-122744599D01*
X95619328Y-122706252D01*
X95645501Y-122653904D01*
X95649651Y-122595524D01*
X95631142Y-122540000D01*
X95592795Y-122495786D01*
X95540448Y-122469612D01*
X95482068Y-122465462D01*
X95453394Y-122471982D01*
X93953394Y-122971983D01*
X93926543Y-122983971D01*
X93918446Y-122990993D01*
X93908861Y-122995786D01*
X93896537Y-123009994D01*
X93882329Y-123022318D01*
X93877536Y-123031903D01*
X93870514Y-123040000D01*
X93864566Y-123057841D01*
X93856155Y-123074665D01*
X93855395Y-123085356D01*
X93852006Y-123095524D01*
X93223336Y-123095524D01*
X93233030Y-123072121D01*
X93233030Y-123013593D01*
X93210632Y-122959521D01*
X93169248Y-122918137D01*
X93115176Y-122895739D01*
X93085912Y-122892857D01*
X92521626Y-122892857D01*
X92521626Y-122763812D01*
X93171931Y-122308599D01*
X93194253Y-122289456D01*
X93225706Y-122240099D01*
X93235877Y-122182463D01*
X93223218Y-122125321D01*
X93189654Y-122077373D01*
X93140297Y-122045920D01*
X93082661Y-122035749D01*
X93025519Y-122048408D01*
X92999893Y-122062829D01*
X92507104Y-122407781D01*
X92505790Y-122404347D01*
X92434362Y-122261489D01*
X92426435Y-122248897D01*
X92424919Y-122245236D01*
X92421535Y-122241113D01*
X92418697Y-122236604D01*
X92415705Y-122234009D01*
X92406264Y-122222505D01*
X92334835Y-122151076D01*
X92323333Y-122141636D01*
X92320737Y-122138643D01*
X92316223Y-122135802D01*
X92312104Y-122132421D01*
X92308444Y-122130905D01*
X92295851Y-122122978D01*
X92152994Y-122051550D01*
X92125530Y-122041040D01*
X92120154Y-122040658D01*
X92115176Y-122038596D01*
X92085912Y-122035714D01*
X91871626Y-122035714D01*
X91842362Y-122038596D01*
X91837383Y-122040658D01*
X91832008Y-122041040D01*
X91804545Y-122051550D01*
X91661687Y-122122978D01*
X91649092Y-122130906D01*
X91645433Y-122132422D01*
X91641312Y-122135803D01*
X91636802Y-122138643D01*
X91634207Y-122141634D01*
X91622702Y-122151077D01*
X91551274Y-122222506D01*
X91541836Y-122234005D01*
X91538842Y-122236603D01*
X91535999Y-122241119D01*
X91532620Y-122245237D01*
X91531105Y-122248893D01*
X91523177Y-122261489D01*
X91451748Y-122404346D01*
X91441239Y-122431809D01*
X91440857Y-122437183D01*
X91438794Y-122442164D01*
X91435912Y-122471428D01*
X91269245Y-122471428D01*
X91269245Y-121513593D01*
X91438794Y-121513593D01*
X91438794Y-121572121D01*
X91461192Y-121626193D01*
X91502576Y-121667577D01*
X91556648Y-121689975D01*
X91585912Y-121692857D01*
X93085912Y-121692857D01*
X93115176Y-121689975D01*
X93169248Y-121667577D01*
X93210632Y-121626193D01*
X93233030Y-121572121D01*
X93233030Y-121542857D01*
X93850828Y-121542857D01*
X93850828Y-121685714D01*
X93852286Y-121700525D01*
X93852006Y-121704475D01*
X93853187Y-121709669D01*
X93853710Y-121714978D01*
X93855227Y-121718640D01*
X93858526Y-121733148D01*
X93929954Y-121947434D01*
X93941943Y-121974285D01*
X93945473Y-121978355D01*
X93947536Y-121983335D01*
X93966191Y-122006066D01*
X94109048Y-122148923D01*
X94120550Y-122158363D01*
X94123146Y-122161356D01*
X94127655Y-122164194D01*
X94131778Y-122167578D01*
X94135440Y-122169094D01*
X94148032Y-122177021D01*
X94290888Y-122248450D01*
X94293030Y-122249269D01*
X94293900Y-122249914D01*
X94306171Y-122254298D01*
X94318352Y-122258959D01*
X94319432Y-122259035D01*
X94321591Y-122259807D01*
X94607305Y-122331235D01*
X94612376Y-122331984D01*
X94614421Y-122332832D01*
X94625443Y-122333917D01*
X94636394Y-122335537D01*
X94638581Y-122335211D01*
X94643685Y-122335714D01*
X94857971Y-122335714D01*
X94863074Y-122335211D01*
X94865262Y-122335537D01*
X94876212Y-122333917D01*
X94887235Y-122332832D01*
X94889279Y-122331984D01*
X94894351Y-122331235D01*
X95180065Y-122259807D01*
X95182223Y-122259035D01*
X95183304Y-122258959D01*
X95195478Y-122254300D01*
X95207756Y-122249914D01*
X95208626Y-122249269D01*
X95210767Y-122248450D01*
X95353624Y-122177021D01*
X95366217Y-122169093D01*
X95369877Y-122167578D01*
X95373996Y-122164196D01*
X95378510Y-122161356D01*
X95381106Y-122158362D01*
X95392608Y-122148923D01*
X95535466Y-122006066D01*
X95554121Y-121983336D01*
X95556183Y-121978356D01*
X95559715Y-121974285D01*
X95571703Y-121947434D01*
X95643131Y-121733148D01*
X95646430Y-121718635D01*
X95647946Y-121714978D01*
X95648468Y-121709675D01*
X95649651Y-121704474D01*
X95649369Y-121700519D01*
X95650828Y-121685714D01*
X95650828Y-121542857D01*
X95649369Y-121528051D01*
X95649651Y-121524097D01*
X95648468Y-121518895D01*
X95647946Y-121513593D01*
X95646430Y-121509935D01*
X95643131Y-121495423D01*
X95571703Y-121281137D01*
X95559715Y-121254286D01*
X95556181Y-121250211D01*
X95554120Y-121245235D01*
X95535465Y-121222504D01*
X95464036Y-121151076D01*
X95441305Y-121132422D01*
X95387233Y-121110025D01*
X95328707Y-121110025D01*
X95274635Y-121132423D01*
X95233250Y-121173809D01*
X95210853Y-121227881D01*
X95210853Y-121286407D01*
X95233251Y-121340479D01*
X95251906Y-121363210D01*
X95298294Y-121409597D01*
X95350828Y-121567199D01*
X95350828Y-121661371D01*
X95298294Y-121818973D01*
X95197688Y-121919578D01*
X95091328Y-121972759D01*
X94839507Y-122035714D01*
X94662149Y-122035714D01*
X94410327Y-121972758D01*
X94303968Y-121919579D01*
X94203361Y-121818972D01*
X94150828Y-121661373D01*
X94150828Y-121567197D01*
X94203361Y-121409598D01*
X94249751Y-121363209D01*
X94268406Y-121340479D01*
X94290802Y-121286406D01*
X94290802Y-121227880D01*
X94268406Y-121173808D01*
X94227020Y-121132422D01*
X94172948Y-121110026D01*
X94114422Y-121110026D01*
X94060349Y-121132422D01*
X94037619Y-121151077D01*
X93966191Y-121222505D01*
X93947536Y-121245236D01*
X93945473Y-121250215D01*
X93941943Y-121254286D01*
X93929954Y-121281137D01*
X93858526Y-121495423D01*
X93855227Y-121509930D01*
X93853710Y-121513593D01*
X93853187Y-121518901D01*
X93852006Y-121524096D01*
X93852286Y-121528045D01*
X93850828Y-121542857D01*
X93233030Y-121542857D01*
X93233030Y-121513593D01*
X93210632Y-121459521D01*
X93169248Y-121418137D01*
X93115176Y-121395739D01*
X93085912Y-121392857D01*
X91585912Y-121392857D01*
X91556648Y-121395739D01*
X91502576Y-121418137D01*
X91461192Y-121459521D01*
X91438794Y-121513593D01*
X91269245Y-121513593D01*
X91269245Y-120114285D01*
X91435912Y-120114285D01*
X91435912Y-120828571D01*
X91438794Y-120857835D01*
X91461192Y-120911907D01*
X91502576Y-120953291D01*
X91556648Y-120975689D01*
X91585912Y-120978571D01*
X93085912Y-120978571D01*
X93115176Y-120975689D01*
X93169248Y-120953291D01*
X93210632Y-120911907D01*
X93233030Y-120857835D01*
X93235912Y-120828571D01*
X93235912Y-120114285D01*
X93233030Y-120085021D01*
X93210632Y-120030949D01*
X93169248Y-119989565D01*
X93115176Y-119967167D01*
X93056648Y-119967167D01*
X93002576Y-119989565D01*
X92961192Y-120030949D01*
X92938794Y-120085021D01*
X92935912Y-120114285D01*
X92935912Y-120678571D01*
X92450198Y-120678571D01*
X92450198Y-120328571D01*
X92447316Y-120299307D01*
X92424918Y-120245235D01*
X92383534Y-120203851D01*
X92329462Y-120181453D01*
X92270934Y-120181453D01*
X92216862Y-120203851D01*
X92175478Y-120245235D01*
X92153080Y-120299307D01*
X92150198Y-120328571D01*
X92150198Y-120678571D01*
X91735912Y-120678571D01*
X91735912Y-120114285D01*
X91733030Y-120085021D01*
X91710632Y-120030949D01*
X91669248Y-119989565D01*
X91615176Y-119967167D01*
X91556648Y-119967167D01*
X91502576Y-119989565D01*
X91461192Y-120030949D01*
X91438794Y-120085021D01*
X91435912Y-120114285D01*
X91269245Y-120114285D01*
X91269245Y-119727880D01*
X93853710Y-119727880D01*
X93853710Y-119786406D01*
X93876107Y-119840478D01*
X93894762Y-119863209D01*
X94495839Y-120464286D01*
X94000828Y-120464286D01*
X93971564Y-120467168D01*
X93917492Y-120489566D01*
X93876108Y-120530950D01*
X93853710Y-120585022D01*
X93853710Y-120643550D01*
X93876108Y-120697622D01*
X93917492Y-120739006D01*
X93971564Y-120761404D01*
X94000828Y-120764286D01*
X95500828Y-120764286D01*
X95530092Y-120761404D01*
X95584164Y-120739006D01*
X95625548Y-120697622D01*
X95647946Y-120643550D01*
X95647946Y-120585022D01*
X95625548Y-120530950D01*
X95584164Y-120489566D01*
X95530092Y-120467168D01*
X95500828Y-120464286D01*
X94920103Y-120464286D01*
X94872046Y-120416229D01*
X95590828Y-119877143D01*
X95612510Y-119857279D01*
X95642329Y-119806917D01*
X95650606Y-119748980D01*
X95636081Y-119692283D01*
X95600964Y-119645461D01*
X95550603Y-119615642D01*
X95492665Y-119607365D01*
X95435969Y-119621890D01*
X95410828Y-119637143D01*
X94657760Y-120201943D01*
X94106894Y-119651077D01*
X94084163Y-119632422D01*
X94030091Y-119610025D01*
X93971565Y-119610025D01*
X93917493Y-119632422D01*
X93876107Y-119673808D01*
X93853710Y-119727880D01*
X91269245Y-119727880D01*
X91269245Y-119460951D01*
X91436278Y-119460951D01*
X91438794Y-119480742D01*
X91438794Y-119500692D01*
X91442453Y-119509525D01*
X91443659Y-119519011D01*
X91453557Y-119536333D01*
X91461192Y-119554764D01*
X91467952Y-119561524D01*
X91472697Y-119569827D01*
X91488468Y-119582040D01*
X91502576Y-119596148D01*
X91511411Y-119599807D01*
X91518971Y-119605662D01*
X91538215Y-119610910D01*
X91556648Y-119618546D01*
X91571614Y-119620019D01*
X91575435Y-119621062D01*
X91578386Y-119620686D01*
X91585912Y-119621428D01*
X93085912Y-119621428D01*
X93115176Y-119618546D01*
X93169248Y-119596148D01*
X93210632Y-119554764D01*
X93233030Y-119500692D01*
X93233030Y-119442164D01*
X93210632Y-119388092D01*
X93169248Y-119346708D01*
X93115176Y-119324310D01*
X93085912Y-119321428D01*
X92150746Y-119321428D01*
X93160333Y-118744521D01*
X93166500Y-118740143D01*
X93169248Y-118739005D01*
X93172047Y-118736205D01*
X93184311Y-118727500D01*
X93196526Y-118711726D01*
X93210632Y-118697621D01*
X93214290Y-118688787D01*
X93220147Y-118681226D01*
X93225396Y-118661977D01*
X93233030Y-118643549D01*
X93233030Y-118633987D01*
X93235546Y-118624762D01*
X93233030Y-118604970D01*
X93233030Y-118585021D01*
X93229370Y-118576187D01*
X93228165Y-118566702D01*
X93218266Y-118549379D01*
X93210632Y-118530949D01*
X93203871Y-118524188D01*
X93199127Y-118515886D01*
X93183355Y-118503672D01*
X93169248Y-118489565D01*
X93160412Y-118485905D01*
X93152853Y-118480051D01*
X93133608Y-118474802D01*
X93115176Y-118467167D01*
X93100211Y-118465693D01*
X93096390Y-118464651D01*
X93093438Y-118465026D01*
X93085912Y-118464285D01*
X91585912Y-118464285D01*
X91556648Y-118467167D01*
X91502576Y-118489565D01*
X91461192Y-118530949D01*
X91438794Y-118585021D01*
X91438794Y-118643549D01*
X91461192Y-118697621D01*
X91502576Y-118739005D01*
X91556648Y-118761403D01*
X91585912Y-118764285D01*
X92521077Y-118764285D01*
X91511491Y-119341192D01*
X91505323Y-119345569D01*
X91502576Y-119346708D01*
X91499776Y-119349507D01*
X91487513Y-119358213D01*
X91475299Y-119373984D01*
X91461192Y-119388092D01*
X91457532Y-119396927D01*
X91451678Y-119404487D01*
X91446429Y-119423731D01*
X91438794Y-119442164D01*
X91438794Y-119451726D01*
X91436278Y-119460951D01*
X91269245Y-119460951D01*
X91269245Y-117257142D01*
X91435912Y-117257142D01*
X91435912Y-118114284D01*
X91438794Y-118143548D01*
X91461192Y-118197620D01*
X91502576Y-118239004D01*
X91556648Y-118261402D01*
X91615176Y-118261402D01*
X91669248Y-118239004D01*
X91710632Y-118197620D01*
X91733030Y-118143548D01*
X91735912Y-118114284D01*
X91735912Y-117971429D01*
X94779400Y-117971429D01*
X94779400Y-119114286D01*
X94782282Y-119143550D01*
X94804680Y-119197622D01*
X94846064Y-119239006D01*
X94900136Y-119261404D01*
X94958664Y-119261404D01*
X95012736Y-119239006D01*
X95054120Y-119197622D01*
X95076518Y-119143550D01*
X95079400Y-119114286D01*
X95079400Y-117971429D01*
X95076518Y-117942165D01*
X95054120Y-117888093D01*
X95012736Y-117846709D01*
X94958664Y-117824311D01*
X94900136Y-117824311D01*
X94846064Y-117846709D01*
X94804680Y-117888093D01*
X94782282Y-117942165D01*
X94779400Y-117971429D01*
X91735912Y-117971429D01*
X91735912Y-117835713D01*
X93085912Y-117835713D01*
X93115176Y-117832831D01*
X93169248Y-117810433D01*
X93210632Y-117769049D01*
X93233030Y-117714977D01*
X93233030Y-117656449D01*
X93210632Y-117602377D01*
X93169248Y-117560993D01*
X93115176Y-117538595D01*
X93085912Y-117535713D01*
X91735912Y-117535713D01*
X91735912Y-117257142D01*
X91733030Y-117227878D01*
X91710632Y-117173806D01*
X91669248Y-117132422D01*
X91615176Y-117110024D01*
X91556648Y-117110024D01*
X91502576Y-117132422D01*
X91461192Y-117173806D01*
X91438794Y-117227878D01*
X91435912Y-117257142D01*
X91269245Y-117257142D01*
X91269245Y-116452666D01*
X91437090Y-116452666D01*
X91438423Y-116471427D01*
X91437090Y-116490188D01*
X91440479Y-116500355D01*
X91441239Y-116511047D01*
X91449650Y-116527870D01*
X91455598Y-116545712D01*
X91462620Y-116553808D01*
X91467413Y-116563394D01*
X91481621Y-116575717D01*
X91493945Y-116589926D01*
X91503530Y-116594718D01*
X91511627Y-116601741D01*
X91538478Y-116613729D01*
X93038478Y-117113730D01*
X93067152Y-117120250D01*
X93125532Y-117116100D01*
X93177879Y-117089926D01*
X93216226Y-117045712D01*
X93234735Y-116990188D01*
X93230585Y-116931808D01*
X93204412Y-116879460D01*
X93160197Y-116841113D01*
X93133346Y-116829125D01*
X92807341Y-116720456D01*
X92807341Y-116542857D01*
X93850828Y-116542857D01*
X93850828Y-117257143D01*
X93853710Y-117286407D01*
X93876108Y-117340479D01*
X93917492Y-117381863D01*
X93971564Y-117404261D01*
X94000828Y-117407143D01*
X95500828Y-117407143D01*
X95530092Y-117404261D01*
X95584164Y-117381863D01*
X95625548Y-117340479D01*
X95647946Y-117286407D01*
X95647946Y-117227879D01*
X95625548Y-117173807D01*
X95584164Y-117132423D01*
X95530092Y-117110025D01*
X95500828Y-117107143D01*
X94865114Y-117107143D01*
X94865114Y-116757143D01*
X94862232Y-116727879D01*
X94839834Y-116673807D01*
X94798450Y-116632423D01*
X94744378Y-116610025D01*
X94685850Y-116610025D01*
X94631778Y-116632423D01*
X94590394Y-116673807D01*
X94567996Y-116727879D01*
X94565114Y-116757143D01*
X94565114Y-117107143D01*
X94150828Y-117107143D01*
X94150828Y-116542857D01*
X94147946Y-116513593D01*
X94125548Y-116459521D01*
X94084164Y-116418137D01*
X94030092Y-116395739D01*
X93971564Y-116395739D01*
X93917492Y-116418137D01*
X93876108Y-116459521D01*
X93853710Y-116513593D01*
X93850828Y-116542857D01*
X92807341Y-116542857D01*
X92807341Y-116222397D01*
X93133346Y-116113729D01*
X93160197Y-116101741D01*
X93204412Y-116063394D01*
X93230585Y-116011046D01*
X93234735Y-115952666D01*
X93216226Y-115897142D01*
X93177879Y-115852928D01*
X93125532Y-115826754D01*
X93067152Y-115822604D01*
X93038478Y-115829124D01*
X91538478Y-116329125D01*
X91511627Y-116341113D01*
X91503530Y-116348135D01*
X91493945Y-116352928D01*
X91481621Y-116367136D01*
X91467413Y-116379460D01*
X91462620Y-116389045D01*
X91455598Y-116397142D01*
X91449650Y-116414983D01*
X91441239Y-116431807D01*
X91440479Y-116442498D01*
X91437090Y-116452666D01*
X91269245Y-116452666D01*
X91269245Y-114828571D01*
X91435912Y-114828571D01*
X91435912Y-115685713D01*
X91438794Y-115714977D01*
X91461192Y-115769049D01*
X91502576Y-115810433D01*
X91556648Y-115832831D01*
X91615176Y-115832831D01*
X91669248Y-115810433D01*
X91710632Y-115769049D01*
X91733030Y-115714977D01*
X91735912Y-115685713D01*
X91735912Y-115407142D01*
X93085912Y-115407142D01*
X93115176Y-115404260D01*
X93125460Y-115400000D01*
X93850828Y-115400000D01*
X93850828Y-115971429D01*
X93853710Y-116000693D01*
X93876108Y-116054765D01*
X93917492Y-116096149D01*
X93971564Y-116118547D01*
X94000828Y-116121429D01*
X95500828Y-116121429D01*
X95530092Y-116118547D01*
X95584164Y-116096149D01*
X95625548Y-116054765D01*
X95647946Y-116000693D01*
X95647946Y-115942165D01*
X95625548Y-115888093D01*
X95584164Y-115846709D01*
X95530092Y-115824311D01*
X95500828Y-115821429D01*
X94936542Y-115821429D01*
X94936542Y-115692384D01*
X95586847Y-115237171D01*
X95609169Y-115218028D01*
X95640622Y-115168671D01*
X95650793Y-115111035D01*
X95638134Y-115053893D01*
X95604570Y-115005945D01*
X95555213Y-114974492D01*
X95497577Y-114964321D01*
X95440435Y-114976980D01*
X95414809Y-114991401D01*
X94922020Y-115336353D01*
X94920706Y-115332919D01*
X94849278Y-115190061D01*
X94841351Y-115177469D01*
X94839835Y-115173808D01*
X94836451Y-115169685D01*
X94833613Y-115165176D01*
X94830621Y-115162581D01*
X94821180Y-115151077D01*
X94749751Y-115079648D01*
X94738249Y-115070208D01*
X94735653Y-115067215D01*
X94731139Y-115064374D01*
X94727020Y-115060993D01*
X94723360Y-115059477D01*
X94710767Y-115051550D01*
X94567910Y-114980122D01*
X94540446Y-114969612D01*
X94535070Y-114969230D01*
X94530092Y-114967168D01*
X94500828Y-114964286D01*
X94286542Y-114964286D01*
X94257278Y-114967168D01*
X94252299Y-114969230D01*
X94246924Y-114969612D01*
X94219461Y-114980122D01*
X94076603Y-115051550D01*
X94064008Y-115059478D01*
X94060349Y-115060994D01*
X94056228Y-115064375D01*
X94051718Y-115067215D01*
X94049123Y-115070206D01*
X94037618Y-115079649D01*
X93966190Y-115151078D01*
X93956752Y-115162577D01*
X93953758Y-115165175D01*
X93950915Y-115169691D01*
X93947536Y-115173809D01*
X93946021Y-115177465D01*
X93938093Y-115190061D01*
X93866664Y-115332918D01*
X93856155Y-115360381D01*
X93855773Y-115365755D01*
X93853710Y-115370736D01*
X93850828Y-115400000D01*
X93125460Y-115400000D01*
X93169248Y-115381862D01*
X93210632Y-115340478D01*
X93233030Y-115286406D01*
X93233030Y-115227878D01*
X93210632Y-115173806D01*
X93169248Y-115132422D01*
X93115176Y-115110024D01*
X93085912Y-115107142D01*
X91735912Y-115107142D01*
X91735912Y-114828571D01*
X91733030Y-114799307D01*
X91710632Y-114745235D01*
X91669248Y-114703851D01*
X91615176Y-114681453D01*
X91556648Y-114681453D01*
X91502576Y-114703851D01*
X91461192Y-114745235D01*
X91438794Y-114799307D01*
X91435912Y-114828571D01*
X91269245Y-114828571D01*
X91269245Y-114299307D01*
X91438794Y-114299307D01*
X91438794Y-114357835D01*
X91461192Y-114411907D01*
X91502576Y-114453291D01*
X91556648Y-114475689D01*
X91585912Y-114478571D01*
X93085912Y-114478571D01*
X93115176Y-114475689D01*
X93169248Y-114453291D01*
X93210632Y-114411907D01*
X93233030Y-114357835D01*
X93233030Y-114299307D01*
X93210632Y-114245235D01*
X93169248Y-114203851D01*
X93115176Y-114181453D01*
X93085912Y-114178571D01*
X91585912Y-114178571D01*
X91556648Y-114181453D01*
X91502576Y-114203851D01*
X91461192Y-114245235D01*
X91438794Y-114299307D01*
X91269245Y-114299307D01*
X91269245Y-113900000D01*
X93850828Y-113900000D01*
X93850828Y-114185714D01*
X93853710Y-114214978D01*
X93855771Y-114219955D01*
X93856154Y-114225333D01*
X93866664Y-114252796D01*
X93938093Y-114395654D01*
X93946020Y-114408247D01*
X93947536Y-114411907D01*
X93950917Y-114416026D01*
X93953758Y-114420540D01*
X93956751Y-114423136D01*
X93966191Y-114434638D01*
X94109048Y-114577495D01*
X94131778Y-114596150D01*
X94142083Y-114600418D01*
X94151043Y-114607057D01*
X94178734Y-114616950D01*
X94464448Y-114688378D01*
X94469519Y-114689127D01*
X94471564Y-114689975D01*
X94482586Y-114691060D01*
X94493537Y-114692680D01*
X94495724Y-114692354D01*
X94500828Y-114692857D01*
X95000828Y-114692857D01*
X95005931Y-114692354D01*
X95008119Y-114692680D01*
X95019069Y-114691060D01*
X95030092Y-114689975D01*
X95032136Y-114689127D01*
X95037208Y-114688378D01*
X95322922Y-114616950D01*
X95350613Y-114607057D01*
X95359573Y-114600417D01*
X95369877Y-114596150D01*
X95392608Y-114577495D01*
X95535466Y-114434638D01*
X95544906Y-114423134D01*
X95547900Y-114420539D01*
X95550738Y-114416029D01*
X95554121Y-114411908D01*
X95555638Y-114408245D01*
X95563564Y-114395653D01*
X95634993Y-114252795D01*
X95645502Y-114225332D01*
X95645883Y-114219956D01*
X95647946Y-114214978D01*
X95650828Y-114185714D01*
X95650828Y-113900000D01*
X95647946Y-113870736D01*
X95645883Y-113865757D01*
X95645502Y-113860382D01*
X95634992Y-113832919D01*
X95563564Y-113690061D01*
X95555638Y-113677470D01*
X95554121Y-113673807D01*
X95550735Y-113669681D01*
X95547899Y-113665176D01*
X95544909Y-113662583D01*
X95535466Y-113651077D01*
X95392608Y-113508220D01*
X95369877Y-113489565D01*
X95359573Y-113485297D01*
X95350613Y-113478658D01*
X95322922Y-113468765D01*
X95037209Y-113397336D01*
X95032136Y-113396585D01*
X95030092Y-113395739D01*
X95019070Y-113394653D01*
X95008119Y-113393034D01*
X95005931Y-113393359D01*
X95000828Y-113392857D01*
X94500828Y-113392857D01*
X94495724Y-113393359D01*
X94493536Y-113393034D01*
X94482583Y-113394653D01*
X94471564Y-113395739D01*
X94469519Y-113396585D01*
X94464447Y-113397336D01*
X94178733Y-113468765D01*
X94151042Y-113478658D01*
X94142081Y-113485297D01*
X94131778Y-113489565D01*
X94109048Y-113508220D01*
X93966191Y-113651077D01*
X93956751Y-113662578D01*
X93953758Y-113665175D01*
X93950917Y-113669688D01*
X93947536Y-113673808D01*
X93946020Y-113677467D01*
X93938093Y-113690061D01*
X93866664Y-113832918D01*
X93856155Y-113860381D01*
X93855773Y-113865755D01*
X93853710Y-113870736D01*
X93850828Y-113900000D01*
X91269245Y-113900000D01*
X91269245Y-113042856D01*
X91435912Y-113042856D01*
X91435912Y-113328570D01*
X91438794Y-113357834D01*
X91440855Y-113362811D01*
X91441238Y-113368189D01*
X91451748Y-113395652D01*
X91523177Y-113538510D01*
X91531104Y-113551103D01*
X91532620Y-113554763D01*
X91536001Y-113558882D01*
X91538842Y-113563396D01*
X91541835Y-113565992D01*
X91551275Y-113577494D01*
X91694132Y-113720351D01*
X91716862Y-113739006D01*
X91727167Y-113743274D01*
X91736127Y-113749913D01*
X91763818Y-113759806D01*
X92049532Y-113831234D01*
X92054603Y-113831983D01*
X92056648Y-113832831D01*
X92067670Y-113833916D01*
X92078621Y-113835536D01*
X92080808Y-113835210D01*
X92085912Y-113835713D01*
X92585912Y-113835713D01*
X92591015Y-113835210D01*
X92593203Y-113835536D01*
X92604153Y-113833916D01*
X92615176Y-113832831D01*
X92617220Y-113831983D01*
X92622292Y-113831234D01*
X92908006Y-113759806D01*
X92935697Y-113749913D01*
X92944657Y-113743273D01*
X92954961Y-113739006D01*
X92977692Y-113720351D01*
X93120550Y-113577494D01*
X93129990Y-113565990D01*
X93132984Y-113563395D01*
X93135822Y-113558885D01*
X93139205Y-113554764D01*
X93140722Y-113551101D01*
X93148648Y-113538509D01*
X93220077Y-113395651D01*
X93230586Y-113368188D01*
X93230967Y-113362812D01*
X93233030Y-113357834D01*
X93235912Y-113328570D01*
X93235912Y-113042856D01*
X93233030Y-113013592D01*
X93230967Y-113008613D01*
X93230586Y-113003238D01*
X93220076Y-112975775D01*
X93176951Y-112889523D01*
X93851194Y-112889523D01*
X93853710Y-112909314D01*
X93853710Y-112929264D01*
X93857369Y-112938097D01*
X93858575Y-112947583D01*
X93868473Y-112964905D01*
X93876108Y-112983336D01*
X93882868Y-112990096D01*
X93887613Y-112998399D01*
X93903384Y-113010612D01*
X93917492Y-113024720D01*
X93926327Y-113028379D01*
X93933887Y-113034234D01*
X93953131Y-113039482D01*
X93971564Y-113047118D01*
X93986530Y-113048591D01*
X93990351Y-113049634D01*
X93993302Y-113049258D01*
X94000828Y-113050000D01*
X95500828Y-113050000D01*
X95530092Y-113047118D01*
X95584164Y-113024720D01*
X95625548Y-112983336D01*
X95647946Y-112929264D01*
X95647946Y-112870736D01*
X95625548Y-112816664D01*
X95584164Y-112775280D01*
X95530092Y-112752882D01*
X95500828Y-112750000D01*
X94565662Y-112750000D01*
X95575249Y-112173093D01*
X95581416Y-112168715D01*
X95584164Y-112167577D01*
X95586963Y-112164777D01*
X95599227Y-112156072D01*
X95611442Y-112140298D01*
X95625548Y-112126193D01*
X95629206Y-112117359D01*
X95635063Y-112109798D01*
X95640312Y-112090549D01*
X95647946Y-112072121D01*
X95647946Y-112062559D01*
X95650462Y-112053334D01*
X95647946Y-112033542D01*
X95647946Y-112013593D01*
X95644286Y-112004759D01*
X95643081Y-111995274D01*
X95633182Y-111977951D01*
X95625548Y-111959521D01*
X95618787Y-111952760D01*
X95614043Y-111944458D01*
X95598271Y-111932244D01*
X95584164Y-111918137D01*
X95575328Y-111914477D01*
X95567769Y-111908623D01*
X95548524Y-111903374D01*
X95530092Y-111895739D01*
X95515127Y-111894265D01*
X95511306Y-111893223D01*
X95508354Y-111893598D01*
X95500828Y-111892857D01*
X94000828Y-111892857D01*
X93971564Y-111895739D01*
X93917492Y-111918137D01*
X93876108Y-111959521D01*
X93853710Y-112013593D01*
X93853710Y-112072121D01*
X93876108Y-112126193D01*
X93917492Y-112167577D01*
X93971564Y-112189975D01*
X94000828Y-112192857D01*
X94935993Y-112192857D01*
X93926407Y-112769764D01*
X93920239Y-112774141D01*
X93917492Y-112775280D01*
X93914692Y-112778079D01*
X93902429Y-112786785D01*
X93890215Y-112802556D01*
X93876108Y-112816664D01*
X93872448Y-112825499D01*
X93866594Y-112833059D01*
X93861345Y-112852303D01*
X93853710Y-112870736D01*
X93853710Y-112880298D01*
X93851194Y-112889523D01*
X93176951Y-112889523D01*
X93148648Y-112832917D01*
X93140722Y-112820326D01*
X93139205Y-112816663D01*
X93135819Y-112812537D01*
X93132983Y-112808032D01*
X93129993Y-112805439D01*
X93120550Y-112793933D01*
X92977692Y-112651076D01*
X92954961Y-112632421D01*
X92944657Y-112628153D01*
X92935697Y-112621514D01*
X92908006Y-112611621D01*
X92622293Y-112540192D01*
X92617220Y-112539441D01*
X92615176Y-112538595D01*
X92604154Y-112537509D01*
X92593203Y-112535890D01*
X92591015Y-112536215D01*
X92585912Y-112535713D01*
X92085912Y-112535713D01*
X92080808Y-112536215D01*
X92078620Y-112535890D01*
X92067667Y-112537509D01*
X92056648Y-112538595D01*
X92054603Y-112539441D01*
X92049531Y-112540192D01*
X91763817Y-112611621D01*
X91736126Y-112621514D01*
X91727165Y-112628153D01*
X91716862Y-112632421D01*
X91694132Y-112651076D01*
X91551275Y-112793933D01*
X91541835Y-112805434D01*
X91538842Y-112808031D01*
X91536001Y-112812544D01*
X91532620Y-112816664D01*
X91531104Y-112820323D01*
X91523177Y-112832917D01*
X91451748Y-112975774D01*
X91441239Y-113003237D01*
X91440857Y-113008611D01*
X91438794Y-113013592D01*
X91435912Y-113042856D01*
X91269245Y-113042856D01*
X91269245Y-112032379D01*
X91436278Y-112032379D01*
X91438794Y-112052170D01*
X91438794Y-112072120D01*
X91442453Y-112080953D01*
X91443659Y-112090439D01*
X91453557Y-112107761D01*
X91461192Y-112126192D01*
X91467952Y-112132952D01*
X91472697Y-112141255D01*
X91488468Y-112153468D01*
X91502576Y-112167576D01*
X91511411Y-112171235D01*
X91518971Y-112177090D01*
X91538215Y-112182338D01*
X91556648Y-112189974D01*
X91571614Y-112191447D01*
X91575435Y-112192490D01*
X91578386Y-112192114D01*
X91585912Y-112192856D01*
X93085912Y-112192856D01*
X93115176Y-112189974D01*
X93169248Y-112167576D01*
X93210632Y-112126192D01*
X93233030Y-112072120D01*
X93233030Y-112013592D01*
X93210632Y-111959520D01*
X93169248Y-111918136D01*
X93115176Y-111895738D01*
X93085912Y-111892856D01*
X92150746Y-111892856D01*
X93160333Y-111315949D01*
X93166500Y-111311571D01*
X93169248Y-111310433D01*
X93172047Y-111307633D01*
X93184311Y-111298928D01*
X93196526Y-111283154D01*
X93210632Y-111269049D01*
X93214290Y-111260215D01*
X93220147Y-111252654D01*
X93225396Y-111233405D01*
X93233030Y-111214977D01*
X93233030Y-111205415D01*
X93235546Y-111196190D01*
X93233030Y-111176398D01*
X93233030Y-111156449D01*
X93229370Y-111147615D01*
X93228165Y-111138130D01*
X93218266Y-111120807D01*
X93210632Y-111102377D01*
X93203871Y-111095616D01*
X93199127Y-111087314D01*
X93183355Y-111075100D01*
X93169248Y-111060993D01*
X93160412Y-111057333D01*
X93152853Y-111051479D01*
X93133608Y-111046230D01*
X93115176Y-111038595D01*
X93100211Y-111037121D01*
X93096390Y-111036079D01*
X93093438Y-111036454D01*
X93085912Y-111035713D01*
X91585912Y-111035713D01*
X91556648Y-111038595D01*
X91502576Y-111060993D01*
X91461192Y-111102377D01*
X91438794Y-111156449D01*
X91438794Y-111214977D01*
X91461192Y-111269049D01*
X91502576Y-111310433D01*
X91556648Y-111332831D01*
X91585912Y-111335713D01*
X92521077Y-111335713D01*
X91511491Y-111912620D01*
X91505323Y-111916997D01*
X91502576Y-111918136D01*
X91499776Y-111920935D01*
X91487513Y-111929641D01*
X91475299Y-111945412D01*
X91461192Y-111959520D01*
X91457532Y-111968355D01*
X91451678Y-111975915D01*
X91446429Y-111995159D01*
X91438794Y-112013592D01*
X91438794Y-112023154D01*
X91436278Y-112032379D01*
X91269245Y-112032379D01*
X91269245Y-110685714D01*
X93850828Y-110685714D01*
X93850828Y-111542856D01*
X93853710Y-111572120D01*
X93876108Y-111626192D01*
X93917492Y-111667576D01*
X93971564Y-111689974D01*
X94030092Y-111689974D01*
X94084164Y-111667576D01*
X94125548Y-111626192D01*
X94147946Y-111572120D01*
X94150828Y-111542856D01*
X94150828Y-111264285D01*
X95500828Y-111264285D01*
X95530092Y-111261403D01*
X95584164Y-111239005D01*
X95625548Y-111197621D01*
X95647946Y-111143549D01*
X95647946Y-111085021D01*
X95625548Y-111030949D01*
X95584164Y-110989565D01*
X95530092Y-110967167D01*
X95500828Y-110964285D01*
X94150828Y-110964285D01*
X94150828Y-110685714D01*
X94147946Y-110656450D01*
X94125548Y-110602378D01*
X94084164Y-110560994D01*
X94030092Y-110538596D01*
X93971564Y-110538596D01*
X93917492Y-110560994D01*
X93876108Y-110602378D01*
X93853710Y-110656450D01*
X93850828Y-110685714D01*
X91269245Y-110685714D01*
X91269245Y-110371929D01*
X95817495Y-110371929D01*
X95817495Y-125216667D01*
G37*
G36*
X95209854Y-106285444D02*
G01*
X95306121Y-106381711D01*
X95350828Y-106471123D01*
X95350828Y-106686018D01*
X95306122Y-106775431D01*
X95209854Y-106871698D01*
X94982364Y-106928571D01*
X94519292Y-106928571D01*
X94291801Y-106871698D01*
X94195535Y-106775432D01*
X94150828Y-106686018D01*
X94150828Y-106471124D01*
X94195535Y-106381710D01*
X94291801Y-106285444D01*
X94519292Y-106228571D01*
X94982363Y-106228571D01*
X95209854Y-106285444D01*
G37*
G36*
X92068487Y-105880420D02*
G01*
X92105490Y-105917424D01*
X92150198Y-106006838D01*
X92150198Y-106321428D01*
X91735912Y-106321428D01*
X91735912Y-106006838D01*
X91780619Y-105917423D01*
X91817623Y-105880419D01*
X91907036Y-105835713D01*
X91979074Y-105835713D01*
X92068487Y-105880420D01*
G37*
G36*
X92854200Y-105808990D02*
G01*
X92891205Y-105845995D01*
X92935912Y-105935408D01*
X92935912Y-106321428D01*
X92450198Y-106321428D01*
X92450198Y-105995770D01*
X92502731Y-105838168D01*
X92531908Y-105808991D01*
X92621322Y-105764285D01*
X92764788Y-105764285D01*
X92854200Y-105808990D01*
G37*
G36*
X92507341Y-104834742D02*
G01*
X92060252Y-104685713D01*
X92507341Y-104536683D01*
X92507341Y-104834742D01*
G37*
G36*
X92139914Y-99380419D02*
G01*
X92176919Y-99417424D01*
X92221626Y-99506837D01*
X92221626Y-99892857D01*
X91735912Y-99892857D01*
X91735912Y-99506838D01*
X91780619Y-99417423D01*
X91817623Y-99380419D01*
X91907036Y-99335714D01*
X92050502Y-99335714D01*
X92139914Y-99380419D01*
G37*
G36*
X95209854Y-98999729D02*
G01*
X95306121Y-99095996D01*
X95350828Y-99185408D01*
X95350828Y-99400303D01*
X95306122Y-99489716D01*
X95209854Y-99585983D01*
X94982364Y-99642856D01*
X94519292Y-99642856D01*
X94291801Y-99585983D01*
X94195535Y-99489717D01*
X94150828Y-99400303D01*
X94150828Y-99185409D01*
X94195535Y-99095995D01*
X94291801Y-98999729D01*
X94519292Y-98942856D01*
X94982363Y-98942856D01*
X95209854Y-98999729D01*
G37*
G36*
X95817495Y-107395238D02*
G01*
X91269245Y-107395238D01*
X91269245Y-105971428D01*
X91435912Y-105971428D01*
X91435912Y-106471428D01*
X91438794Y-106500692D01*
X91461192Y-106554764D01*
X91502576Y-106596148D01*
X91556648Y-106618546D01*
X91585912Y-106621428D01*
X93085912Y-106621428D01*
X93115176Y-106618546D01*
X93169248Y-106596148D01*
X93210632Y-106554764D01*
X93233030Y-106500692D01*
X93235912Y-106471428D01*
X93235912Y-106435714D01*
X93850828Y-106435714D01*
X93850828Y-106721428D01*
X93853710Y-106750692D01*
X93855771Y-106755669D01*
X93856154Y-106761047D01*
X93866664Y-106788510D01*
X93938093Y-106931368D01*
X93946020Y-106943961D01*
X93947536Y-106947621D01*
X93950917Y-106951740D01*
X93953758Y-106956254D01*
X93956751Y-106958850D01*
X93966191Y-106970352D01*
X94109048Y-107113209D01*
X94131778Y-107131864D01*
X94142083Y-107136132D01*
X94151043Y-107142771D01*
X94178734Y-107152664D01*
X94464448Y-107224092D01*
X94469519Y-107224841D01*
X94471564Y-107225689D01*
X94482586Y-107226774D01*
X94493537Y-107228394D01*
X94495724Y-107228068D01*
X94500828Y-107228571D01*
X95000828Y-107228571D01*
X95005931Y-107228068D01*
X95008119Y-107228394D01*
X95019069Y-107226774D01*
X95030092Y-107225689D01*
X95032136Y-107224841D01*
X95037208Y-107224092D01*
X95322922Y-107152664D01*
X95350613Y-107142771D01*
X95359573Y-107136131D01*
X95369877Y-107131864D01*
X95392608Y-107113209D01*
X95535466Y-106970352D01*
X95544906Y-106958848D01*
X95547900Y-106956253D01*
X95550738Y-106951743D01*
X95554121Y-106947622D01*
X95555638Y-106943959D01*
X95563564Y-106931367D01*
X95634993Y-106788509D01*
X95645502Y-106761046D01*
X95645883Y-106755670D01*
X95647946Y-106750692D01*
X95650828Y-106721428D01*
X95650828Y-106435714D01*
X95647946Y-106406450D01*
X95645883Y-106401471D01*
X95645502Y-106396096D01*
X95634992Y-106368633D01*
X95563564Y-106225775D01*
X95555638Y-106213184D01*
X95554121Y-106209521D01*
X95550735Y-106205395D01*
X95547899Y-106200890D01*
X95544909Y-106198297D01*
X95535466Y-106186791D01*
X95392608Y-106043934D01*
X95369877Y-106025279D01*
X95359573Y-106021011D01*
X95350613Y-106014372D01*
X95322922Y-106004479D01*
X95037209Y-105933050D01*
X95032136Y-105932299D01*
X95030092Y-105931453D01*
X95019070Y-105930367D01*
X95008119Y-105928748D01*
X95005931Y-105929073D01*
X95000828Y-105928571D01*
X94500828Y-105928571D01*
X94495724Y-105929073D01*
X94493536Y-105928748D01*
X94482583Y-105930367D01*
X94471564Y-105931453D01*
X94469519Y-105932299D01*
X94464447Y-105933050D01*
X94178733Y-106004479D01*
X94151042Y-106014372D01*
X94142081Y-106021011D01*
X94131778Y-106025279D01*
X94109048Y-106043934D01*
X93966191Y-106186791D01*
X93956751Y-106198292D01*
X93953758Y-106200889D01*
X93950917Y-106205402D01*
X93947536Y-106209522D01*
X93946020Y-106213181D01*
X93938093Y-106225775D01*
X93866664Y-106368632D01*
X93856155Y-106396095D01*
X93855773Y-106401469D01*
X93853710Y-106406450D01*
X93850828Y-106435714D01*
X93235912Y-106435714D01*
X93235912Y-105899999D01*
X93233030Y-105870735D01*
X93230967Y-105865756D01*
X93230586Y-105860381D01*
X93220076Y-105832918D01*
X93148648Y-105690060D01*
X93140721Y-105677468D01*
X93139205Y-105673807D01*
X93135821Y-105669684D01*
X93132983Y-105665175D01*
X93129991Y-105662580D01*
X93120550Y-105651076D01*
X93049121Y-105579647D01*
X93037619Y-105570207D01*
X93035023Y-105567214D01*
X93030509Y-105564373D01*
X93026390Y-105560992D01*
X93022730Y-105559476D01*
X93010137Y-105551549D01*
X92867280Y-105480121D01*
X92839816Y-105469611D01*
X92834440Y-105469229D01*
X92829462Y-105467167D01*
X92800198Y-105464285D01*
X92585912Y-105464285D01*
X92556648Y-105467167D01*
X92551669Y-105469229D01*
X92546294Y-105469611D01*
X92518831Y-105480121D01*
X92375973Y-105551549D01*
X92363381Y-105559475D01*
X92359720Y-105560992D01*
X92355597Y-105564375D01*
X92351088Y-105567214D01*
X92348493Y-105570205D01*
X92336989Y-105579647D01*
X92265560Y-105651076D01*
X92264589Y-105652258D01*
X92263408Y-105651077D01*
X92251905Y-105641637D01*
X92249309Y-105638643D01*
X92244794Y-105635801D01*
X92240677Y-105632422D01*
X92237018Y-105630906D01*
X92224423Y-105622978D01*
X92081566Y-105551549D01*
X92054103Y-105541040D01*
X92048728Y-105540658D01*
X92043748Y-105538595D01*
X92014484Y-105535713D01*
X91871626Y-105535713D01*
X91842362Y-105538595D01*
X91837381Y-105540658D01*
X91832007Y-105541040D01*
X91804543Y-105551549D01*
X91661687Y-105622978D01*
X91649090Y-105630906D01*
X91645433Y-105632422D01*
X91641315Y-105635801D01*
X91636801Y-105638643D01*
X91634203Y-105641637D01*
X91622702Y-105651077D01*
X91551274Y-105722506D01*
X91541836Y-105734005D01*
X91538842Y-105736603D01*
X91535999Y-105741119D01*
X91532620Y-105745237D01*
X91531105Y-105748893D01*
X91523177Y-105761489D01*
X91451748Y-105904346D01*
X91441239Y-105931809D01*
X91440857Y-105937183D01*
X91438794Y-105942164D01*
X91435912Y-105971428D01*
X91269245Y-105971428D01*
X91269245Y-105425237D01*
X93851194Y-105425237D01*
X93853710Y-105445028D01*
X93853710Y-105464978D01*
X93857369Y-105473811D01*
X93858575Y-105483297D01*
X93868473Y-105500619D01*
X93876108Y-105519050D01*
X93882868Y-105525810D01*
X93887613Y-105534113D01*
X93903384Y-105546326D01*
X93917492Y-105560434D01*
X93926327Y-105564093D01*
X93933887Y-105569948D01*
X93953131Y-105575196D01*
X93971564Y-105582832D01*
X93986530Y-105584305D01*
X93990351Y-105585348D01*
X93993302Y-105584972D01*
X94000828Y-105585714D01*
X95500828Y-105585714D01*
X95530092Y-105582832D01*
X95584164Y-105560434D01*
X95625548Y-105519050D01*
X95647946Y-105464978D01*
X95647946Y-105406450D01*
X95625548Y-105352378D01*
X95584164Y-105310994D01*
X95530092Y-105288596D01*
X95500828Y-105285714D01*
X94565662Y-105285714D01*
X95575249Y-104708807D01*
X95581416Y-104704429D01*
X95584164Y-104703291D01*
X95586963Y-104700491D01*
X95599227Y-104691786D01*
X95611442Y-104676012D01*
X95625548Y-104661907D01*
X95629206Y-104653073D01*
X95635063Y-104645512D01*
X95640312Y-104626263D01*
X95647946Y-104607835D01*
X95647946Y-104598273D01*
X95650462Y-104589048D01*
X95647946Y-104569256D01*
X95647946Y-104549307D01*
X95644286Y-104540473D01*
X95643081Y-104530988D01*
X95633182Y-104513665D01*
X95625548Y-104495235D01*
X95618787Y-104488474D01*
X95614043Y-104480172D01*
X95598271Y-104467958D01*
X95584164Y-104453851D01*
X95575328Y-104450191D01*
X95567769Y-104444337D01*
X95548524Y-104439088D01*
X95530092Y-104431453D01*
X95515127Y-104429979D01*
X95511306Y-104428937D01*
X95508354Y-104429312D01*
X95500828Y-104428571D01*
X94000828Y-104428571D01*
X93971564Y-104431453D01*
X93917492Y-104453851D01*
X93876108Y-104495235D01*
X93853710Y-104549307D01*
X93853710Y-104607835D01*
X93876108Y-104661907D01*
X93917492Y-104703291D01*
X93971564Y-104725689D01*
X94000828Y-104728571D01*
X94935993Y-104728571D01*
X93926407Y-105305478D01*
X93920239Y-105309855D01*
X93917492Y-105310994D01*
X93914692Y-105313793D01*
X93902429Y-105322499D01*
X93890215Y-105338270D01*
X93876108Y-105352378D01*
X93872448Y-105361213D01*
X93866594Y-105368773D01*
X93861345Y-105388017D01*
X93853710Y-105406450D01*
X93853710Y-105416012D01*
X93851194Y-105425237D01*
X91269245Y-105425237D01*
X91269245Y-104666952D01*
X91437090Y-104666952D01*
X91438423Y-104685713D01*
X91437090Y-104704474D01*
X91440479Y-104714641D01*
X91441239Y-104725333D01*
X91449650Y-104742156D01*
X91455598Y-104759998D01*
X91462620Y-104768094D01*
X91467413Y-104777680D01*
X91481621Y-104790003D01*
X91493945Y-104804212D01*
X91503530Y-104809004D01*
X91511627Y-104816027D01*
X91538478Y-104828015D01*
X93038478Y-105328016D01*
X93067152Y-105334536D01*
X93125532Y-105330386D01*
X93177879Y-105304212D01*
X93216226Y-105259998D01*
X93234735Y-105204474D01*
X93230585Y-105146094D01*
X93204412Y-105093746D01*
X93160197Y-105055399D01*
X93133346Y-105043411D01*
X92807341Y-104934742D01*
X92807341Y-104436683D01*
X93133346Y-104328015D01*
X93160197Y-104316027D01*
X93204412Y-104277680D01*
X93230585Y-104225332D01*
X93234735Y-104166952D01*
X93216226Y-104111428D01*
X93177879Y-104067214D01*
X93125532Y-104041040D01*
X93067152Y-104036890D01*
X93038478Y-104043410D01*
X91538478Y-104543411D01*
X91511627Y-104555399D01*
X91503530Y-104562421D01*
X91493945Y-104567214D01*
X91481621Y-104581422D01*
X91467413Y-104593746D01*
X91462620Y-104603331D01*
X91455598Y-104611428D01*
X91449650Y-104629269D01*
X91441239Y-104646093D01*
X91440479Y-104656784D01*
X91437090Y-104666952D01*
X91269245Y-104666952D01*
X91269245Y-101900000D01*
X91435912Y-101900000D01*
X91435912Y-102757142D01*
X91438794Y-102786406D01*
X91461192Y-102840478D01*
X91502576Y-102881862D01*
X91546362Y-102899999D01*
X91502576Y-102918137D01*
X91461192Y-102959521D01*
X91438794Y-103013593D01*
X91435912Y-103042857D01*
X91435912Y-103899999D01*
X91438794Y-103929263D01*
X91461192Y-103983335D01*
X91502576Y-104024719D01*
X91556648Y-104047117D01*
X91615176Y-104047117D01*
X91669248Y-104024719D01*
X91710632Y-103983335D01*
X91733030Y-103929263D01*
X91735912Y-103899999D01*
X91735912Y-103621428D01*
X93085912Y-103621428D01*
X93115176Y-103618546D01*
X93169248Y-103596148D01*
X93210632Y-103554764D01*
X93233030Y-103500692D01*
X93233030Y-103442164D01*
X93210632Y-103388092D01*
X93169248Y-103346708D01*
X93115176Y-103324310D01*
X93085912Y-103321428D01*
X91735912Y-103321428D01*
X91735912Y-103042857D01*
X91733030Y-103013593D01*
X91710632Y-102959521D01*
X91669248Y-102918137D01*
X91625461Y-102899999D01*
X91669248Y-102881862D01*
X91710632Y-102840478D01*
X91733030Y-102786406D01*
X91735912Y-102757142D01*
X91735912Y-102478571D01*
X93085912Y-102478571D01*
X93115176Y-102475689D01*
X93169248Y-102453291D01*
X93210632Y-102411907D01*
X93233030Y-102357835D01*
X93233030Y-102299307D01*
X93210632Y-102245235D01*
X93169248Y-102203851D01*
X93115176Y-102181453D01*
X93085912Y-102178571D01*
X91735912Y-102178571D01*
X91735912Y-101900000D01*
X91733030Y-101870736D01*
X91710632Y-101816664D01*
X91669248Y-101775280D01*
X91615176Y-101752882D01*
X91556648Y-101752882D01*
X91502576Y-101775280D01*
X91461192Y-101816664D01*
X91438794Y-101870736D01*
X91435912Y-101900000D01*
X91269245Y-101900000D01*
X91269245Y-101578571D01*
X94779400Y-101578571D01*
X94779400Y-102721428D01*
X94782282Y-102750692D01*
X94804680Y-102804764D01*
X94846064Y-102846148D01*
X94900136Y-102868546D01*
X94958664Y-102868546D01*
X95012736Y-102846148D01*
X95054120Y-102804764D01*
X95076518Y-102750692D01*
X95079400Y-102721428D01*
X95079400Y-101578571D01*
X95076518Y-101549307D01*
X95054120Y-101495235D01*
X95012736Y-101453851D01*
X94958664Y-101431453D01*
X94900136Y-101431453D01*
X94846064Y-101453851D01*
X94804680Y-101495235D01*
X94782282Y-101549307D01*
X94779400Y-101578571D01*
X91269245Y-101578571D01*
X91269245Y-100685714D01*
X91435912Y-100685714D01*
X91435912Y-101400000D01*
X91438794Y-101429264D01*
X91461192Y-101483336D01*
X91502576Y-101524720D01*
X91556648Y-101547118D01*
X91585912Y-101550000D01*
X93085912Y-101550000D01*
X93115176Y-101547118D01*
X93169248Y-101524720D01*
X93210632Y-101483336D01*
X93233030Y-101429264D01*
X93235912Y-101400000D01*
X93235912Y-100685714D01*
X93233030Y-100656450D01*
X93210632Y-100602378D01*
X93169248Y-100560994D01*
X93115176Y-100538596D01*
X93056648Y-100538596D01*
X93002576Y-100560994D01*
X92961192Y-100602378D01*
X92938794Y-100656450D01*
X92935912Y-100685714D01*
X92935912Y-101250000D01*
X92450198Y-101250000D01*
X92450198Y-100900000D01*
X92447316Y-100870736D01*
X92424918Y-100816664D01*
X92383534Y-100775280D01*
X92329462Y-100752882D01*
X92270934Y-100752882D01*
X92216862Y-100775280D01*
X92175478Y-100816664D01*
X92153080Y-100870736D01*
X92150198Y-100900000D01*
X92150198Y-101250000D01*
X91735912Y-101250000D01*
X91735912Y-100685714D01*
X91733030Y-100656450D01*
X91710632Y-100602378D01*
X91669248Y-100560994D01*
X91615176Y-100538596D01*
X91556648Y-100538596D01*
X91502576Y-100560994D01*
X91461192Y-100602378D01*
X91438794Y-100656450D01*
X91435912Y-100685714D01*
X91269245Y-100685714D01*
X91269245Y-99471428D01*
X91435912Y-99471428D01*
X91435912Y-100042857D01*
X91438794Y-100072121D01*
X91461192Y-100126193D01*
X91502576Y-100167577D01*
X91556648Y-100189975D01*
X91585912Y-100192857D01*
X93085912Y-100192857D01*
X93115176Y-100189975D01*
X93169248Y-100167577D01*
X93210632Y-100126193D01*
X93233030Y-100072121D01*
X93233030Y-100013593D01*
X93210632Y-99959521D01*
X93169248Y-99918137D01*
X93115176Y-99895739D01*
X93085912Y-99892857D01*
X92521626Y-99892857D01*
X92521626Y-99763812D01*
X93171931Y-99308599D01*
X93194253Y-99289456D01*
X93225706Y-99240099D01*
X93235877Y-99182463D01*
X93228685Y-99149999D01*
X93850828Y-99149999D01*
X93850828Y-99435713D01*
X93853710Y-99464977D01*
X93855771Y-99469954D01*
X93856154Y-99475332D01*
X93866664Y-99502795D01*
X93938093Y-99645653D01*
X93946020Y-99658246D01*
X93947536Y-99661906D01*
X93950917Y-99666025D01*
X93953758Y-99670539D01*
X93956751Y-99673135D01*
X93966191Y-99684637D01*
X94109048Y-99827494D01*
X94131778Y-99846149D01*
X94142083Y-99850417D01*
X94151043Y-99857056D01*
X94178734Y-99866949D01*
X94464448Y-99938377D01*
X94469519Y-99939126D01*
X94471564Y-99939974D01*
X94482586Y-99941059D01*
X94493537Y-99942679D01*
X94495724Y-99942353D01*
X94500828Y-99942856D01*
X95000828Y-99942856D01*
X95005931Y-99942353D01*
X95008119Y-99942679D01*
X95019069Y-99941059D01*
X95030092Y-99939974D01*
X95032136Y-99939126D01*
X95037208Y-99938377D01*
X95322922Y-99866949D01*
X95350613Y-99857056D01*
X95359573Y-99850416D01*
X95369877Y-99846149D01*
X95392608Y-99827494D01*
X95535466Y-99684637D01*
X95544906Y-99673133D01*
X95547900Y-99670538D01*
X95550738Y-99666028D01*
X95554121Y-99661907D01*
X95555638Y-99658244D01*
X95563564Y-99645652D01*
X95634993Y-99502794D01*
X95645502Y-99475331D01*
X95645883Y-99469955D01*
X95647946Y-99464977D01*
X95650828Y-99435713D01*
X95650828Y-99149999D01*
X95647946Y-99120735D01*
X95645883Y-99115756D01*
X95645502Y-99110381D01*
X95634992Y-99082918D01*
X95563564Y-98940060D01*
X95555638Y-98927469D01*
X95554121Y-98923806D01*
X95550735Y-98919680D01*
X95547899Y-98915175D01*
X95544909Y-98912582D01*
X95535466Y-98901076D01*
X95392608Y-98758219D01*
X95369877Y-98739564D01*
X95359573Y-98735296D01*
X95350613Y-98728657D01*
X95322922Y-98718764D01*
X95037209Y-98647335D01*
X95032136Y-98646584D01*
X95030092Y-98645738D01*
X95019070Y-98644652D01*
X95008119Y-98643033D01*
X95005931Y-98643358D01*
X95000828Y-98642856D01*
X94500828Y-98642856D01*
X94495724Y-98643358D01*
X94493536Y-98643033D01*
X94482583Y-98644652D01*
X94471564Y-98645738D01*
X94469519Y-98646584D01*
X94464447Y-98647335D01*
X94178733Y-98718764D01*
X94151042Y-98728657D01*
X94142081Y-98735296D01*
X94131778Y-98739564D01*
X94109048Y-98758219D01*
X93966191Y-98901076D01*
X93956751Y-98912577D01*
X93953758Y-98915174D01*
X93950917Y-98919687D01*
X93947536Y-98923807D01*
X93946020Y-98927466D01*
X93938093Y-98940060D01*
X93866664Y-99082917D01*
X93856155Y-99110380D01*
X93855773Y-99115754D01*
X93853710Y-99120735D01*
X93850828Y-99149999D01*
X93228685Y-99149999D01*
X93223218Y-99125321D01*
X93189654Y-99077373D01*
X93140297Y-99045920D01*
X93082661Y-99035749D01*
X93025519Y-99048408D01*
X92999893Y-99062829D01*
X92507104Y-99407781D01*
X92505790Y-99404347D01*
X92434362Y-99261489D01*
X92426435Y-99248897D01*
X92424919Y-99245236D01*
X92421535Y-99241113D01*
X92418697Y-99236604D01*
X92415705Y-99234009D01*
X92406264Y-99222505D01*
X92334835Y-99151076D01*
X92323333Y-99141636D01*
X92320737Y-99138643D01*
X92316223Y-99135802D01*
X92312104Y-99132421D01*
X92308444Y-99130905D01*
X92295851Y-99122978D01*
X92152994Y-99051550D01*
X92125530Y-99041040D01*
X92120154Y-99040658D01*
X92115176Y-99038596D01*
X92085912Y-99035714D01*
X91871626Y-99035714D01*
X91842362Y-99038596D01*
X91837383Y-99040658D01*
X91832008Y-99041040D01*
X91804545Y-99051550D01*
X91661687Y-99122978D01*
X91649092Y-99130906D01*
X91645433Y-99132422D01*
X91641312Y-99135803D01*
X91636802Y-99138643D01*
X91634207Y-99141634D01*
X91622702Y-99151077D01*
X91551274Y-99222506D01*
X91541836Y-99234005D01*
X91538842Y-99236603D01*
X91535999Y-99241119D01*
X91532620Y-99245237D01*
X91531105Y-99248893D01*
X91523177Y-99261489D01*
X91451748Y-99404346D01*
X91441239Y-99431809D01*
X91440857Y-99437183D01*
X91438794Y-99442164D01*
X91435912Y-99471428D01*
X91269245Y-99471428D01*
X91269245Y-97760490D01*
X91435949Y-97760490D01*
X91448646Y-97817622D01*
X91482239Y-97865549D01*
X91505381Y-97883691D01*
X92092231Y-98257142D01*
X91505381Y-98630593D01*
X91482239Y-98648735D01*
X91448646Y-98696662D01*
X91435949Y-98753794D01*
X91446083Y-98811437D01*
X91477505Y-98860815D01*
X91525432Y-98894408D01*
X91582564Y-98907105D01*
X91640207Y-98896971D01*
X91666443Y-98883691D01*
X92415305Y-98407142D01*
X93085912Y-98407142D01*
X93115176Y-98404260D01*
X93169248Y-98381862D01*
X93210632Y-98340478D01*
X93233030Y-98286406D01*
X93233030Y-98227878D01*
X93210632Y-98173806D01*
X93169248Y-98132422D01*
X93115176Y-98110024D01*
X93085912Y-98107142D01*
X92415305Y-98107142D01*
X91666443Y-97630593D01*
X91640207Y-97617313D01*
X91582564Y-97607179D01*
X91525432Y-97619876D01*
X91477505Y-97653469D01*
X91446083Y-97702847D01*
X91435949Y-97760490D01*
X91269245Y-97760490D01*
X91269245Y-97435713D01*
X93850828Y-97435713D01*
X93850828Y-98149999D01*
X93853710Y-98179263D01*
X93876108Y-98233335D01*
X93917492Y-98274719D01*
X93971564Y-98297117D01*
X94000828Y-98299999D01*
X95500828Y-98299999D01*
X95530092Y-98297117D01*
X95584164Y-98274719D01*
X95625548Y-98233335D01*
X95647946Y-98179263D01*
X95647946Y-98120735D01*
X95625548Y-98066663D01*
X95584164Y-98025279D01*
X95530092Y-98002881D01*
X95500828Y-97999999D01*
X94865114Y-97999999D01*
X94865114Y-97649999D01*
X94862232Y-97620735D01*
X94839834Y-97566663D01*
X94798450Y-97525279D01*
X94744378Y-97502881D01*
X94685850Y-97502881D01*
X94631778Y-97525279D01*
X94590394Y-97566663D01*
X94567996Y-97620735D01*
X94565114Y-97649999D01*
X94565114Y-97999999D01*
X94150828Y-97999999D01*
X94150828Y-97435713D01*
X94147946Y-97406449D01*
X94125548Y-97352377D01*
X94084164Y-97310993D01*
X94030092Y-97288595D01*
X93971564Y-97288595D01*
X93917492Y-97310993D01*
X93876108Y-97352377D01*
X93853710Y-97406449D01*
X93850828Y-97435713D01*
X91269245Y-97435713D01*
X91269245Y-96149999D01*
X93850828Y-96149999D01*
X93850828Y-96864285D01*
X93853710Y-96893549D01*
X93876108Y-96947621D01*
X93917492Y-96989005D01*
X93971564Y-97011403D01*
X94000828Y-97014285D01*
X95500828Y-97014285D01*
X95530092Y-97011403D01*
X95584164Y-96989005D01*
X95625548Y-96947621D01*
X95647946Y-96893549D01*
X95647946Y-96835021D01*
X95625548Y-96780949D01*
X95584164Y-96739565D01*
X95530092Y-96717167D01*
X95500828Y-96714285D01*
X94865114Y-96714285D01*
X94865114Y-96364285D01*
X94862232Y-96335021D01*
X94839834Y-96280949D01*
X94798450Y-96239565D01*
X94744378Y-96217167D01*
X94685850Y-96217167D01*
X94631778Y-96239565D01*
X94590394Y-96280949D01*
X94567996Y-96335021D01*
X94565114Y-96364285D01*
X94565114Y-96714285D01*
X94150828Y-96714285D01*
X94150828Y-96149999D01*
X94147946Y-96120735D01*
X94125548Y-96066663D01*
X94084164Y-96025279D01*
X94030092Y-96002881D01*
X93971564Y-96002881D01*
X93917492Y-96025279D01*
X93876108Y-96066663D01*
X93853710Y-96120735D01*
X93850828Y-96149999D01*
X91269245Y-96149999D01*
X91269245Y-95836214D01*
X95817495Y-95836214D01*
X95817495Y-107395238D01*
G37*
G36*
X92562541Y-88318399D02*
G01*
X91907339Y-88099999D01*
X92562541Y-87881598D01*
X92562541Y-88318399D01*
G37*
G36*
X94589648Y-86075041D02*
G01*
X94638128Y-86123521D01*
X94691742Y-86230748D01*
X94691742Y-86678571D01*
X94106028Y-86678571D01*
X94106028Y-86230750D01*
X94159644Y-86123518D01*
X94208120Y-86075041D01*
X94315349Y-86021428D01*
X94482421Y-86021428D01*
X94589648Y-86075041D01*
G37*
G36*
X92699062Y-84837206D02*
G01*
X92817592Y-84896471D01*
X92932281Y-85011160D01*
X92991112Y-85187653D01*
X92991112Y-85428571D01*
X91691112Y-85428571D01*
X91691112Y-85187655D01*
X91749943Y-85011161D01*
X91864632Y-84896471D01*
X91983160Y-84837206D01*
X92246278Y-84771428D01*
X92435946Y-84771428D01*
X92699062Y-84837206D01*
G37*
G36*
X95772695Y-93902381D02*
G01*
X91324445Y-93902381D01*
X91324445Y-93616205D01*
X93907949Y-93616205D01*
X93907949Y-93655223D01*
X93922881Y-93691271D01*
X93950471Y-93718861D01*
X93986519Y-93733793D01*
X94006028Y-93735714D01*
X95506028Y-93735714D01*
X95525537Y-93733793D01*
X95561585Y-93718861D01*
X95589175Y-93691271D01*
X95604107Y-93655223D01*
X95606028Y-93635714D01*
X95606028Y-92921428D01*
X95604107Y-92901919D01*
X95589175Y-92865871D01*
X95561585Y-92838281D01*
X95525537Y-92823349D01*
X95486519Y-92823349D01*
X95450471Y-92838281D01*
X95422881Y-92865871D01*
X95407949Y-92901919D01*
X95406028Y-92921428D01*
X95406028Y-93535714D01*
X94006028Y-93535714D01*
X93986519Y-93537635D01*
X93950471Y-93552567D01*
X93922881Y-93580157D01*
X93907949Y-93616205D01*
X91324445Y-93616205D01*
X91324445Y-91707142D01*
X93906028Y-91707142D01*
X93906028Y-92421428D01*
X93907949Y-92440937D01*
X93922881Y-92476985D01*
X93950471Y-92504575D01*
X93986519Y-92519507D01*
X94006028Y-92521428D01*
X95506028Y-92521428D01*
X95525537Y-92519507D01*
X95561585Y-92504575D01*
X95589175Y-92476985D01*
X95604107Y-92440937D01*
X95606028Y-92421428D01*
X95606028Y-91707142D01*
X95604107Y-91687633D01*
X95589175Y-91651585D01*
X95561585Y-91623995D01*
X95525537Y-91609063D01*
X95486519Y-91609063D01*
X95450471Y-91623995D01*
X95422881Y-91651585D01*
X95407949Y-91687633D01*
X95406028Y-91707142D01*
X95406028Y-92321428D01*
X94820314Y-92321428D01*
X94820314Y-91921428D01*
X94818393Y-91901919D01*
X94803461Y-91865871D01*
X94775871Y-91838281D01*
X94739823Y-91823349D01*
X94700805Y-91823349D01*
X94664757Y-91838281D01*
X94637167Y-91865871D01*
X94622235Y-91901919D01*
X94620314Y-91921428D01*
X94620314Y-92321428D01*
X94106028Y-92321428D01*
X94106028Y-91707142D01*
X94104107Y-91687633D01*
X94089175Y-91651585D01*
X94061585Y-91623995D01*
X94025537Y-91609063D01*
X93986519Y-91609063D01*
X93950471Y-91623995D01*
X93922881Y-91651585D01*
X93907949Y-91687633D01*
X93906028Y-91707142D01*
X91324445Y-91707142D01*
X91324445Y-90349999D01*
X93906028Y-90349999D01*
X93906028Y-91064285D01*
X93907949Y-91083794D01*
X93922881Y-91119842D01*
X93950471Y-91147432D01*
X93986519Y-91162364D01*
X94006028Y-91164285D01*
X95506028Y-91164285D01*
X95525537Y-91162364D01*
X95561585Y-91147432D01*
X95589175Y-91119842D01*
X95604107Y-91083794D01*
X95604107Y-91044776D01*
X95589175Y-91008728D01*
X95561585Y-90981138D01*
X95525537Y-90966206D01*
X95506028Y-90964285D01*
X94820314Y-90964285D01*
X94820314Y-90564285D01*
X94818393Y-90544776D01*
X94803461Y-90508728D01*
X94775871Y-90481138D01*
X94739823Y-90466206D01*
X94700805Y-90466206D01*
X94664757Y-90481138D01*
X94637167Y-90508728D01*
X94622235Y-90544776D01*
X94620314Y-90564285D01*
X94620314Y-90964285D01*
X94106028Y-90964285D01*
X94106028Y-90349999D01*
X94104107Y-90330490D01*
X94089175Y-90294442D01*
X94061585Y-90266852D01*
X94025537Y-90251920D01*
X93986519Y-90251920D01*
X93950471Y-90266852D01*
X93922881Y-90294442D01*
X93907949Y-90330490D01*
X93906028Y-90349999D01*
X91324445Y-90349999D01*
X91324445Y-89080491D01*
X91493033Y-89080491D01*
X91493033Y-89119509D01*
X91507965Y-89155557D01*
X91535555Y-89183147D01*
X91571603Y-89198079D01*
X91591112Y-89200000D01*
X92205398Y-89200000D01*
X92205398Y-89857143D01*
X91591112Y-89857143D01*
X91571603Y-89859064D01*
X91535555Y-89873996D01*
X91507965Y-89901586D01*
X91493033Y-89937634D01*
X91493033Y-89976652D01*
X91507965Y-90012700D01*
X91535555Y-90040290D01*
X91571603Y-90055222D01*
X91591112Y-90057143D01*
X93091112Y-90057143D01*
X93110621Y-90055222D01*
X93146669Y-90040290D01*
X93174259Y-90012700D01*
X93189191Y-89976652D01*
X93189191Y-89937634D01*
X93174259Y-89901586D01*
X93146669Y-89873996D01*
X93110621Y-89859064D01*
X93091112Y-89857143D01*
X92405398Y-89857143D01*
X92405398Y-89200000D01*
X93091112Y-89200000D01*
X93110621Y-89198079D01*
X93146669Y-89183147D01*
X93174259Y-89155557D01*
X93182478Y-89135714D01*
X93906028Y-89135714D01*
X93906028Y-89992856D01*
X93907949Y-90012365D01*
X93922881Y-90048413D01*
X93950471Y-90076003D01*
X93986519Y-90090935D01*
X94025537Y-90090935D01*
X94061585Y-90076003D01*
X94089175Y-90048413D01*
X94104107Y-90012365D01*
X94106028Y-89992856D01*
X94106028Y-89664285D01*
X95506028Y-89664285D01*
X95525537Y-89662364D01*
X95561585Y-89647432D01*
X95589175Y-89619842D01*
X95604107Y-89583794D01*
X95604107Y-89544776D01*
X95589175Y-89508728D01*
X95561585Y-89481138D01*
X95525537Y-89466206D01*
X95506028Y-89464285D01*
X94106028Y-89464285D01*
X94106028Y-89135714D01*
X94104107Y-89116205D01*
X94089175Y-89080157D01*
X94061585Y-89052567D01*
X94025537Y-89037635D01*
X93986519Y-89037635D01*
X93950471Y-89052567D01*
X93922881Y-89080157D01*
X93907949Y-89116205D01*
X93906028Y-89135714D01*
X93182478Y-89135714D01*
X93189191Y-89119509D01*
X93189191Y-89080491D01*
X93174259Y-89044443D01*
X93146669Y-89016853D01*
X93110621Y-89001921D01*
X93091112Y-89000000D01*
X91591112Y-89000000D01*
X91571603Y-89001921D01*
X91535555Y-89016853D01*
X91507965Y-89044443D01*
X91493033Y-89080491D01*
X91324445Y-89080491D01*
X91324445Y-88087492D01*
X91491897Y-88087492D01*
X91492785Y-88099999D01*
X91491897Y-88112506D01*
X91494156Y-88119284D01*
X91494663Y-88126412D01*
X91500269Y-88137624D01*
X91504235Y-88149522D01*
X91508918Y-88154921D01*
X91512113Y-88161311D01*
X91521584Y-88169526D01*
X91529800Y-88178998D01*
X91536189Y-88182192D01*
X91541589Y-88186876D01*
X91559489Y-88194867D01*
X93059489Y-88694867D01*
X93078605Y-88699214D01*
X93117525Y-88696448D01*
X93152424Y-88678998D01*
X93177989Y-88649522D01*
X93190327Y-88612506D01*
X93187561Y-88573586D01*
X93170112Y-88538688D01*
X93140635Y-88513122D01*
X93122735Y-88505131D01*
X92762541Y-88385066D01*
X92762541Y-87814931D01*
X93122735Y-87694867D01*
X93140635Y-87686876D01*
X93170112Y-87661310D01*
X93187561Y-87626412D01*
X93190327Y-87587492D01*
X93177989Y-87550476D01*
X93152424Y-87521000D01*
X93117525Y-87503550D01*
X93078605Y-87500784D01*
X93059489Y-87505131D01*
X91559489Y-88005131D01*
X91541589Y-88013122D01*
X91536189Y-88017805D01*
X91529800Y-88021000D01*
X91521584Y-88030471D01*
X91512113Y-88038687D01*
X91508918Y-88045076D01*
X91504235Y-88050476D01*
X91500269Y-88062373D01*
X91494663Y-88073586D01*
X91494156Y-88080713D01*
X91491897Y-88087492D01*
X91324445Y-88087492D01*
X91324445Y-87492857D01*
X94834600Y-87492857D01*
X94834600Y-88635714D01*
X94836521Y-88655223D01*
X94851453Y-88691271D01*
X94879043Y-88718861D01*
X94915091Y-88733793D01*
X94954109Y-88733793D01*
X94990157Y-88718861D01*
X95017747Y-88691271D01*
X95032679Y-88655223D01*
X95034600Y-88635714D01*
X95034600Y-87492857D01*
X95032679Y-87473348D01*
X95017747Y-87437300D01*
X94990157Y-87409710D01*
X94954109Y-87394778D01*
X94915091Y-87394778D01*
X94879043Y-87409710D01*
X94851453Y-87437300D01*
X94836521Y-87473348D01*
X94834600Y-87492857D01*
X91324445Y-87492857D01*
X91324445Y-87093015D01*
X91491356Y-87093015D01*
X91493033Y-87106208D01*
X91493033Y-87119509D01*
X91495472Y-87125397D01*
X91496276Y-87131722D01*
X91502876Y-87143271D01*
X91507965Y-87155557D01*
X91512472Y-87160064D01*
X91515635Y-87165599D01*
X91526149Y-87173741D01*
X91535555Y-87183147D01*
X91541445Y-87185586D01*
X91546484Y-87189489D01*
X91559312Y-87192987D01*
X91571603Y-87198079D01*
X91581580Y-87199061D01*
X91584127Y-87199756D01*
X91586094Y-87199505D01*
X91591112Y-87200000D01*
X93091112Y-87200000D01*
X93110621Y-87198079D01*
X93146669Y-87183147D01*
X93174259Y-87155557D01*
X93189191Y-87119509D01*
X93189191Y-87080491D01*
X93174259Y-87044443D01*
X93146669Y-87016853D01*
X93110621Y-87001921D01*
X93091112Y-87000000D01*
X91967668Y-87000000D01*
X93140726Y-86329681D01*
X93144837Y-86326762D01*
X93146669Y-86326004D01*
X93148534Y-86324138D01*
X93156712Y-86318334D01*
X93164858Y-86307814D01*
X93174259Y-86298414D01*
X93176697Y-86292526D01*
X93180602Y-86287485D01*
X93184101Y-86274652D01*
X93189191Y-86262366D01*
X93189191Y-86255990D01*
X93190868Y-86249841D01*
X93189191Y-86236647D01*
X93189191Y-86223348D01*
X93186751Y-86217459D01*
X93185948Y-86211135D01*
X93183666Y-86207142D01*
X93906028Y-86207142D01*
X93906028Y-86778571D01*
X93907949Y-86798080D01*
X93922881Y-86834128D01*
X93950471Y-86861718D01*
X93986519Y-86876650D01*
X94006028Y-86878571D01*
X95506028Y-86878571D01*
X95525537Y-86876650D01*
X95561585Y-86861718D01*
X95589175Y-86834128D01*
X95604107Y-86798080D01*
X95604107Y-86759062D01*
X95589175Y-86723014D01*
X95561585Y-86695424D01*
X95525537Y-86680492D01*
X95506028Y-86678571D01*
X94891742Y-86678571D01*
X94891742Y-86473493D01*
X95563374Y-86003351D01*
X95578255Y-85990590D01*
X95599224Y-85957685D01*
X95606004Y-85919260D01*
X95597565Y-85881166D01*
X95575190Y-85849201D01*
X95542285Y-85828232D01*
X95503860Y-85821452D01*
X95465766Y-85829891D01*
X95448682Y-85839505D01*
X94891742Y-86229362D01*
X94891742Y-86207142D01*
X94889821Y-86187633D01*
X94888445Y-86184312D01*
X94888191Y-86180730D01*
X94881185Y-86162421D01*
X94809757Y-86019564D01*
X94804471Y-86011167D01*
X94803461Y-86008728D01*
X94801207Y-86005981D01*
X94799314Y-86002974D01*
X94797319Y-86001244D01*
X94791025Y-85993574D01*
X94719596Y-85922145D01*
X94711929Y-85915853D01*
X94710197Y-85913856D01*
X94707185Y-85911960D01*
X94704442Y-85909709D01*
X94702004Y-85908699D01*
X94693606Y-85903413D01*
X94550749Y-85831985D01*
X94532441Y-85824979D01*
X94528857Y-85824724D01*
X94525537Y-85823349D01*
X94506028Y-85821428D01*
X94291742Y-85821428D01*
X94272233Y-85823349D01*
X94268912Y-85824724D01*
X94265330Y-85824979D01*
X94247021Y-85831985D01*
X94104164Y-85903413D01*
X94095768Y-85908697D01*
X94093327Y-85909709D01*
X94090579Y-85911964D01*
X94087574Y-85913856D01*
X94085843Y-85915850D01*
X94078174Y-85922146D01*
X94006746Y-85993575D01*
X94000453Y-86001241D01*
X93998457Y-86002973D01*
X93996563Y-86005980D01*
X93994309Y-86008728D01*
X93993297Y-86011169D01*
X93988014Y-86019564D01*
X93916585Y-86162420D01*
X93909579Y-86180729D01*
X93909324Y-86184312D01*
X93907949Y-86187633D01*
X93906028Y-86207142D01*
X93183666Y-86207142D01*
X93179347Y-86199583D01*
X93174259Y-86187300D01*
X93169753Y-86182794D01*
X93166589Y-86177257D01*
X93156069Y-86169110D01*
X93146669Y-86159710D01*
X93140781Y-86157271D01*
X93135740Y-86153367D01*
X93122907Y-86149867D01*
X93110621Y-86144778D01*
X93100643Y-86143795D01*
X93098097Y-86143101D01*
X93096129Y-86143351D01*
X93091112Y-86142857D01*
X91591112Y-86142857D01*
X91571603Y-86144778D01*
X91535555Y-86159710D01*
X91507965Y-86187300D01*
X91493033Y-86223348D01*
X91493033Y-86262366D01*
X91507965Y-86298414D01*
X91535555Y-86326004D01*
X91571603Y-86340936D01*
X91591112Y-86342857D01*
X92714556Y-86342857D01*
X91541498Y-87013176D01*
X91537387Y-87016094D01*
X91535555Y-87016853D01*
X91533688Y-87018719D01*
X91525513Y-87024523D01*
X91517370Y-87035037D01*
X91507965Y-87044443D01*
X91505525Y-87050333D01*
X91501623Y-87055372D01*
X91498124Y-87068200D01*
X91493033Y-87080491D01*
X91493033Y-87086866D01*
X91491356Y-87093015D01*
X91324445Y-87093015D01*
X91324445Y-85171428D01*
X91491112Y-85171428D01*
X91491112Y-85528571D01*
X91493033Y-85548080D01*
X91507965Y-85584128D01*
X91535555Y-85611718D01*
X91571603Y-85626650D01*
X91591112Y-85628571D01*
X93091112Y-85628571D01*
X93110621Y-85626650D01*
X93146669Y-85611718D01*
X93174259Y-85584128D01*
X93189191Y-85548080D01*
X93191112Y-85528571D01*
X93191112Y-85259062D01*
X93907949Y-85259062D01*
X93907949Y-85298080D01*
X93922881Y-85334128D01*
X93950471Y-85361718D01*
X93986519Y-85376650D01*
X94006028Y-85378571D01*
X95506028Y-85378571D01*
X95525537Y-85376650D01*
X95561585Y-85361718D01*
X95589175Y-85334128D01*
X95604107Y-85298080D01*
X95604107Y-85259062D01*
X95589175Y-85223014D01*
X95561585Y-85195424D01*
X95525537Y-85180492D01*
X95506028Y-85178571D01*
X94006028Y-85178571D01*
X93986519Y-85180492D01*
X93950471Y-85195424D01*
X93922881Y-85223014D01*
X93907949Y-85259062D01*
X93191112Y-85259062D01*
X93191112Y-85171428D01*
X93190139Y-85161554D01*
X93190327Y-85158921D01*
X93189539Y-85155457D01*
X93189191Y-85151919D01*
X93188179Y-85149476D01*
X93185980Y-85139805D01*
X93114552Y-84925519D01*
X93106561Y-84907619D01*
X93104205Y-84904903D01*
X93102831Y-84901584D01*
X93090394Y-84886431D01*
X92947536Y-84743574D01*
X92939871Y-84737283D01*
X92938138Y-84735285D01*
X92935125Y-84733389D01*
X92932383Y-84731138D01*
X92929945Y-84730128D01*
X92921547Y-84724842D01*
X92778691Y-84653413D01*
X92777262Y-84652866D01*
X92776683Y-84652437D01*
X92768512Y-84649518D01*
X92760382Y-84646407D01*
X92759659Y-84646355D01*
X92758222Y-84645842D01*
X92472508Y-84574414D01*
X92469128Y-84573914D01*
X92467764Y-84573349D01*
X92460412Y-84572625D01*
X92453116Y-84571546D01*
X92451657Y-84571763D01*
X92448255Y-84571428D01*
X92233969Y-84571428D01*
X92230566Y-84571763D01*
X92229108Y-84571546D01*
X92221810Y-84572625D01*
X92214460Y-84573349D01*
X92213096Y-84573913D01*
X92209715Y-84574414D01*
X91924002Y-84645842D01*
X91922564Y-84646355D01*
X91921842Y-84646407D01*
X91913711Y-84649518D01*
X91905541Y-84652437D01*
X91904961Y-84652866D01*
X91903533Y-84653413D01*
X91760676Y-84724842D01*
X91752278Y-84730127D01*
X91749840Y-84731138D01*
X91747095Y-84733390D01*
X91744086Y-84735285D01*
X91742353Y-84737282D01*
X91734687Y-84743575D01*
X91591830Y-84886431D01*
X91579394Y-84901585D01*
X91578019Y-84904903D01*
X91575664Y-84907619D01*
X91567673Y-84925519D01*
X91496244Y-85139805D01*
X91494044Y-85149477D01*
X91493033Y-85151919D01*
X91492684Y-85155456D01*
X91491897Y-85158920D01*
X91492084Y-85161554D01*
X91491112Y-85171428D01*
X91324445Y-85171428D01*
X91324445Y-83921428D01*
X93906028Y-83921428D01*
X93906028Y-84135713D01*
X93907000Y-84145586D01*
X93906813Y-84148221D01*
X93907600Y-84151684D01*
X93907949Y-84155222D01*
X93908960Y-84157663D01*
X93911160Y-84167336D01*
X93982589Y-84381622D01*
X93990580Y-84399522D01*
X93992935Y-84402237D01*
X93994310Y-84405556D01*
X94006746Y-84420710D01*
X94149603Y-84563566D01*
X94157269Y-84569858D01*
X94159002Y-84571856D01*
X94162011Y-84573750D01*
X94164756Y-84576003D01*
X94167194Y-84577013D01*
X94175592Y-84582299D01*
X94318449Y-84653728D01*
X94319877Y-84654274D01*
X94320457Y-84654704D01*
X94328627Y-84657622D01*
X94336758Y-84660734D01*
X94337480Y-84660785D01*
X94338918Y-84661299D01*
X94624631Y-84732727D01*
X94628012Y-84733227D01*
X94629376Y-84733792D01*
X94636726Y-84734515D01*
X94644024Y-84735595D01*
X94645482Y-84735377D01*
X94648885Y-84735713D01*
X94863171Y-84735713D01*
X94866573Y-84735377D01*
X94868032Y-84735595D01*
X94875328Y-84734515D01*
X94882680Y-84733792D01*
X94884044Y-84733226D01*
X94887424Y-84732727D01*
X95173138Y-84661299D01*
X95174575Y-84660785D01*
X95175298Y-84660734D01*
X95183428Y-84657622D01*
X95191599Y-84654704D01*
X95192178Y-84654274D01*
X95193607Y-84653728D01*
X95336463Y-84582299D01*
X95344861Y-84577012D01*
X95347299Y-84576003D01*
X95350041Y-84573751D01*
X95353054Y-84571856D01*
X95354787Y-84569857D01*
X95362452Y-84563567D01*
X95505310Y-84420710D01*
X95517747Y-84405557D01*
X95519121Y-84402237D01*
X95521477Y-84399522D01*
X95529468Y-84381622D01*
X95600896Y-84167336D01*
X95603095Y-84157664D01*
X95604107Y-84155222D01*
X95604455Y-84151683D01*
X95605243Y-84148220D01*
X95605055Y-84145586D01*
X95606028Y-84135713D01*
X95606028Y-83992856D01*
X95605055Y-83982982D01*
X95605243Y-83980349D01*
X95604455Y-83976885D01*
X95604107Y-83973347D01*
X95603095Y-83970904D01*
X95600896Y-83961233D01*
X95529468Y-83746947D01*
X95521477Y-83729047D01*
X95519122Y-83726331D01*
X95517747Y-83723012D01*
X95505310Y-83707859D01*
X95433881Y-83636431D01*
X95418728Y-83623994D01*
X95393237Y-83613436D01*
X95382680Y-83609063D01*
X95363171Y-83607142D01*
X94863171Y-83607142D01*
X94843662Y-83609063D01*
X94807614Y-83623995D01*
X94780024Y-83651585D01*
X94765092Y-83687633D01*
X94763171Y-83707142D01*
X94763171Y-83992856D01*
X94765092Y-84012365D01*
X94780024Y-84048413D01*
X94807614Y-84076003D01*
X94843662Y-84090935D01*
X94882680Y-84090935D01*
X94918728Y-84076003D01*
X94946318Y-84048413D01*
X94961250Y-84012365D01*
X94963171Y-83992856D01*
X94963171Y-83807142D01*
X95321750Y-83807142D01*
X95347197Y-83832588D01*
X95406028Y-84009081D01*
X95406028Y-84119487D01*
X95347197Y-84295980D01*
X95232508Y-84410669D01*
X95113978Y-84469934D01*
X94850862Y-84535713D01*
X94661194Y-84535713D01*
X94398076Y-84469934D01*
X94279548Y-84410669D01*
X94164859Y-84295979D01*
X94106028Y-84119485D01*
X94106028Y-83945035D01*
X94166900Y-83823291D01*
X94173906Y-83804983D01*
X94176672Y-83766063D01*
X94164333Y-83729047D01*
X94138769Y-83699570D01*
X94103870Y-83682121D01*
X94064950Y-83679355D01*
X94027934Y-83691694D01*
X93998457Y-83717258D01*
X93988014Y-83733849D01*
X93916585Y-83876707D01*
X93909579Y-83895015D01*
X93909324Y-83898598D01*
X93907949Y-83901919D01*
X93906028Y-83921428D01*
X91324445Y-83921428D01*
X91324445Y-82187633D01*
X93907949Y-82187633D01*
X93907949Y-82226651D01*
X93922881Y-82262699D01*
X93950471Y-82290289D01*
X93986519Y-82305221D01*
X94006028Y-82307142D01*
X94620314Y-82307142D01*
X94620314Y-82964285D01*
X94006028Y-82964285D01*
X93986519Y-82966206D01*
X93950471Y-82981138D01*
X93922881Y-83008728D01*
X93907949Y-83044776D01*
X93907949Y-83083794D01*
X93922881Y-83119842D01*
X93950471Y-83147432D01*
X93986519Y-83162364D01*
X94006028Y-83164285D01*
X95506028Y-83164285D01*
X95525537Y-83162364D01*
X95561585Y-83147432D01*
X95589175Y-83119842D01*
X95604107Y-83083794D01*
X95604107Y-83044776D01*
X95589175Y-83008728D01*
X95561585Y-82981138D01*
X95525537Y-82966206D01*
X95506028Y-82964285D01*
X94820314Y-82964285D01*
X94820314Y-82307142D01*
X95506028Y-82307142D01*
X95525537Y-82305221D01*
X95561585Y-82290289D01*
X95589175Y-82262699D01*
X95604107Y-82226651D01*
X95604107Y-82187633D01*
X95589175Y-82151585D01*
X95561585Y-82123995D01*
X95525537Y-82109063D01*
X95506028Y-82107142D01*
X94006028Y-82107142D01*
X93986519Y-82109063D01*
X93950471Y-82123995D01*
X93922881Y-82151585D01*
X93907949Y-82187633D01*
X91324445Y-82187633D01*
X91324445Y-80849999D01*
X93906028Y-80849999D01*
X93906028Y-81707141D01*
X93907949Y-81726650D01*
X93922881Y-81762698D01*
X93950471Y-81790288D01*
X93986519Y-81805220D01*
X94025537Y-81805220D01*
X94061585Y-81790288D01*
X94089175Y-81762698D01*
X94104107Y-81726650D01*
X94106028Y-81707141D01*
X94106028Y-81378570D01*
X95506028Y-81378570D01*
X95525537Y-81376649D01*
X95561585Y-81361717D01*
X95589175Y-81334127D01*
X95604107Y-81298079D01*
X95604107Y-81259061D01*
X95589175Y-81223013D01*
X95561585Y-81195423D01*
X95525537Y-81180491D01*
X95506028Y-81178570D01*
X94106028Y-81178570D01*
X94106028Y-80849999D01*
X94104107Y-80830490D01*
X94089175Y-80794442D01*
X94061585Y-80766852D01*
X94025537Y-80751920D01*
X93986519Y-80751920D01*
X93950471Y-80766852D01*
X93922881Y-80794442D01*
X93907949Y-80830490D01*
X93906028Y-80849999D01*
X91324445Y-80849999D01*
X91324445Y-80585253D01*
X95772695Y-80585253D01*
X95772695Y-93902381D01*
G37*
G36*
X92705986Y-65389599D02*
G01*
X93067019Y-65461413D01*
X93419274Y-65568268D01*
X93759359Y-65709136D01*
X94083999Y-65882660D01*
X94390068Y-66087169D01*
X94674618Y-66320692D01*
X94934908Y-66580982D01*
X95168431Y-66865532D01*
X95372940Y-67171601D01*
X95546464Y-67496241D01*
X95687332Y-67836326D01*
X95794187Y-68188581D01*
X95866001Y-68549614D01*
X95902082Y-68915947D01*
X95902082Y-69284053D01*
X95866001Y-69650386D01*
X95794187Y-70011419D01*
X95687332Y-70363674D01*
X95546464Y-70703759D01*
X95372940Y-71028399D01*
X95168431Y-71334468D01*
X94934908Y-71619018D01*
X94674618Y-71879308D01*
X94390068Y-72112831D01*
X94083999Y-72317340D01*
X93759359Y-72490864D01*
X93419274Y-72631732D01*
X93067019Y-72738587D01*
X92705986Y-72810401D01*
X92339653Y-72846482D01*
X91971547Y-72846482D01*
X91605214Y-72810401D01*
X91244181Y-72738587D01*
X90891926Y-72631732D01*
X90551841Y-72490864D01*
X90227201Y-72317340D01*
X89921132Y-72112831D01*
X89636582Y-71879308D01*
X89376292Y-71619018D01*
X89142769Y-71334468D01*
X88938260Y-71028399D01*
X88764736Y-70703759D01*
X88623868Y-70363674D01*
X88517013Y-70011419D01*
X88445199Y-69650386D01*
X88409118Y-69284053D01*
X88409118Y-68915947D01*
X88445199Y-68549614D01*
X88517013Y-68188581D01*
X88623868Y-67836326D01*
X88764736Y-67496241D01*
X88938260Y-67171601D01*
X89142769Y-66865532D01*
X89376292Y-66580982D01*
X89636582Y-66320692D01*
X89921132Y-66087169D01*
X90227201Y-65882660D01*
X90551841Y-65709136D01*
X90891926Y-65568268D01*
X91244181Y-65461413D01*
X91605214Y-65389599D01*
X91971547Y-65353518D01*
X92339653Y-65353518D01*
X92705986Y-65389599D01*
G37*
G36*
X40703186Y-65363499D02*
G01*
X41064219Y-65435313D01*
X41416474Y-65542168D01*
X41756559Y-65683036D01*
X42081199Y-65856560D01*
X42387268Y-66061069D01*
X42671818Y-66294592D01*
X42932108Y-66554882D01*
X43165631Y-66839432D01*
X43370140Y-67145501D01*
X43543664Y-67470141D01*
X43684532Y-67810226D01*
X43791387Y-68162481D01*
X43863201Y-68523514D01*
X43899282Y-68889847D01*
X43899282Y-69257953D01*
X43863201Y-69624286D01*
X43791387Y-69985319D01*
X43684532Y-70337574D01*
X43543664Y-70677659D01*
X43370140Y-71002299D01*
X43165631Y-71308368D01*
X42932108Y-71592918D01*
X42671818Y-71853208D01*
X42387268Y-72086731D01*
X42081199Y-72291240D01*
X41756559Y-72464764D01*
X41416474Y-72605632D01*
X41064219Y-72712487D01*
X40703186Y-72784301D01*
X40336853Y-72820382D01*
X39968747Y-72820382D01*
X39602414Y-72784301D01*
X39241381Y-72712487D01*
X38889126Y-72605632D01*
X38549041Y-72464764D01*
X38224401Y-72291240D01*
X37918332Y-72086731D01*
X37633782Y-71853208D01*
X37373492Y-71592918D01*
X37139969Y-71308368D01*
X36935460Y-71002299D01*
X36761936Y-70677659D01*
X36621068Y-70337574D01*
X36514213Y-69985319D01*
X36442399Y-69624286D01*
X36406318Y-69257953D01*
X36406318Y-68889847D01*
X36442399Y-68523514D01*
X36514213Y-68162481D01*
X36621068Y-67810226D01*
X36761936Y-67470141D01*
X36935460Y-67145501D01*
X37139969Y-66839432D01*
X37373492Y-66554882D01*
X37633782Y-66294592D01*
X37918332Y-66061069D01*
X38224401Y-65856560D01*
X38549041Y-65683036D01*
X38889126Y-65542168D01*
X39241381Y-65435313D01*
X39602414Y-65363499D01*
X39968747Y-65327418D01*
X40336853Y-65327418D01*
X40703186Y-65363499D01*
G37*
G36*
X72571428Y-57649171D02*
G01*
X72185409Y-57649171D01*
X72095995Y-57604463D01*
X72058990Y-57567458D01*
X72014285Y-57478047D01*
X72014285Y-57334580D01*
X72058990Y-57245168D01*
X72095995Y-57208163D01*
X72185409Y-57163457D01*
X72571428Y-57163457D01*
X72571428Y-57649171D01*
G37*
G36*
X81714285Y-57649171D02*
G01*
X81399695Y-57649171D01*
X81310281Y-57604463D01*
X81273277Y-57567460D01*
X81228570Y-57478046D01*
X81228570Y-57406010D01*
X81273276Y-57316596D01*
X81310281Y-57279592D01*
X81399695Y-57234885D01*
X81714285Y-57234885D01*
X81714285Y-57649171D01*
G37*
G36*
X81714285Y-56934885D02*
G01*
X81388628Y-56934885D01*
X81231025Y-56882351D01*
X81201847Y-56853173D01*
X81157142Y-56763761D01*
X81157142Y-56620294D01*
X81201847Y-56530883D01*
X81238852Y-56493878D01*
X81328266Y-56449171D01*
X81714285Y-56449171D01*
X81714285Y-56934885D01*
G37*
G36*
X73721427Y-57324829D02*
G01*
X73572398Y-56877742D01*
X73870457Y-56877742D01*
X73721427Y-57324829D01*
G37*
G36*
X82180952Y-58115838D02*
G01*
X71547618Y-58115838D01*
X71547618Y-57299171D01*
X71714285Y-57299171D01*
X71714285Y-57513457D01*
X71717167Y-57542721D01*
X71719229Y-57547699D01*
X71719611Y-57553075D01*
X71730121Y-57580539D01*
X71801549Y-57723396D01*
X71809477Y-57735991D01*
X71810993Y-57739650D01*
X71814372Y-57743767D01*
X71817214Y-57748282D01*
X71820208Y-57750878D01*
X71829648Y-57762381D01*
X71901077Y-57833809D01*
X71912577Y-57843247D01*
X71915174Y-57846241D01*
X71919686Y-57849081D01*
X71923807Y-57852463D01*
X71927466Y-57853978D01*
X71940060Y-57861906D01*
X72082916Y-57933335D01*
X72110380Y-57943844D01*
X72115754Y-57944225D01*
X72120735Y-57946289D01*
X72149999Y-57949171D01*
X72721428Y-57949171D01*
X72750692Y-57946289D01*
X72804764Y-57923891D01*
X72846148Y-57882507D01*
X72868546Y-57828435D01*
X72871428Y-57799171D01*
X72871428Y-56317932D01*
X73072605Y-56317932D01*
X73079125Y-56346605D01*
X73579125Y-57846605D01*
X73591113Y-57873456D01*
X73598135Y-57881553D01*
X73602928Y-57891138D01*
X73617134Y-57903459D01*
X73629460Y-57917671D01*
X73639047Y-57922464D01*
X73647142Y-57929485D01*
X73664984Y-57935432D01*
X73681808Y-57943844D01*
X73692498Y-57944603D01*
X73702666Y-57947993D01*
X73721422Y-57946660D01*
X73740188Y-57947994D01*
X73750358Y-57944603D01*
X73761047Y-57943844D01*
X73777868Y-57935433D01*
X73795712Y-57929485D01*
X73803808Y-57922462D01*
X73813394Y-57917670D01*
X73825717Y-57903461D01*
X73839926Y-57891138D01*
X73844718Y-57881552D01*
X73851741Y-57873456D01*
X73863729Y-57846605D01*
X74363730Y-56346605D01*
X74370250Y-56317931D01*
X74366836Y-56269907D01*
X74502881Y-56269907D01*
X74502881Y-56328435D01*
X74525279Y-56382507D01*
X74566663Y-56423891D01*
X74620735Y-56446289D01*
X74649999Y-56449171D01*
X75214285Y-56449171D01*
X75214285Y-56934885D01*
X74864285Y-56934885D01*
X74835021Y-56937767D01*
X74780949Y-56960165D01*
X74739565Y-57001549D01*
X74717167Y-57055621D01*
X74717167Y-57114149D01*
X74739565Y-57168221D01*
X74780949Y-57209605D01*
X74835021Y-57232003D01*
X74864285Y-57234885D01*
X75214285Y-57234885D01*
X75214285Y-57649171D01*
X74649999Y-57649171D01*
X74620735Y-57652053D01*
X74566663Y-57674451D01*
X74525279Y-57715835D01*
X74502881Y-57769907D01*
X74502881Y-57828435D01*
X74525279Y-57882507D01*
X74566663Y-57923891D01*
X74620735Y-57946289D01*
X74649999Y-57949171D01*
X75364285Y-57949171D01*
X75393549Y-57946289D01*
X75447621Y-57923891D01*
X75489005Y-57882507D01*
X75511403Y-57828435D01*
X75514285Y-57799171D01*
X75514285Y-56299171D01*
X75511403Y-56269907D01*
X75717167Y-56269907D01*
X75717167Y-56328435D01*
X75739565Y-56382507D01*
X75780949Y-56423891D01*
X75835021Y-56446289D01*
X75864285Y-56449171D01*
X76428571Y-56449171D01*
X76428571Y-57799171D01*
X76431453Y-57828435D01*
X76453851Y-57882507D01*
X76495235Y-57923891D01*
X76549307Y-57946289D01*
X76607835Y-57946289D01*
X76661907Y-57923891D01*
X76703291Y-57882507D01*
X76725689Y-57828435D01*
X76728571Y-57799171D01*
X76728571Y-56412765D01*
X77074310Y-56412765D01*
X77074310Y-56471291D01*
X77096707Y-56525363D01*
X77138093Y-56566749D01*
X77192165Y-56589146D01*
X77250691Y-56589146D01*
X77304763Y-56566749D01*
X77327494Y-56548094D01*
X77373883Y-56501704D01*
X77531485Y-56449171D01*
X77625659Y-56449171D01*
X77783257Y-56501704D01*
X77883864Y-56602311D01*
X77937043Y-56708670D01*
X77999999Y-56960491D01*
X77999999Y-57137850D01*
X77937043Y-57389671D01*
X77883864Y-57496030D01*
X77783257Y-57596637D01*
X77625659Y-57649171D01*
X77531485Y-57649171D01*
X77373883Y-57596637D01*
X77327494Y-57550248D01*
X77304763Y-57531593D01*
X77250691Y-57509196D01*
X77192165Y-57509196D01*
X77138093Y-57531593D01*
X77096707Y-57572979D01*
X77074310Y-57627051D01*
X77074310Y-57685577D01*
X77096707Y-57739649D01*
X77115362Y-57762380D01*
X77186790Y-57833808D01*
X77209520Y-57852463D01*
X77214500Y-57854526D01*
X77218571Y-57858056D01*
X77245422Y-57870044D01*
X77459707Y-57941473D01*
X77474216Y-57944772D01*
X77477878Y-57946289D01*
X77483186Y-57946811D01*
X77488381Y-57947993D01*
X77492330Y-57947712D01*
X77507142Y-57949171D01*
X77649999Y-57949171D01*
X77664810Y-57947712D01*
X77668760Y-57947993D01*
X77673954Y-57946811D01*
X77679263Y-57946289D01*
X77682925Y-57944771D01*
X77697433Y-57941473D01*
X77911719Y-57870045D01*
X77938570Y-57858056D01*
X77942640Y-57854525D01*
X77947620Y-57852463D01*
X77970351Y-57833808D01*
X78034252Y-57769907D01*
X79574310Y-57769907D01*
X79574310Y-57828435D01*
X79596708Y-57882507D01*
X79638092Y-57923891D01*
X79692164Y-57946289D01*
X79721428Y-57949171D01*
X80578570Y-57949171D01*
X80607834Y-57946289D01*
X80661906Y-57923891D01*
X80703290Y-57882507D01*
X80725688Y-57828435D01*
X80725688Y-57769907D01*
X80703290Y-57715835D01*
X80661906Y-57674451D01*
X80607834Y-57652053D01*
X80578570Y-57649171D01*
X80299999Y-57649171D01*
X80299999Y-56584885D01*
X80857142Y-56584885D01*
X80857142Y-56799171D01*
X80860024Y-56828435D01*
X80862086Y-56833413D01*
X80862468Y-56838789D01*
X80872978Y-56866253D01*
X80944406Y-57009110D01*
X80952333Y-57021703D01*
X80953849Y-57025363D01*
X80957230Y-57029482D01*
X80960071Y-57033996D01*
X80963064Y-57036592D01*
X80972504Y-57048094D01*
X81043933Y-57119523D01*
X81045115Y-57120493D01*
X81043934Y-57121675D01*
X81034494Y-57133177D01*
X81031500Y-57135774D01*
X81028658Y-57140288D01*
X81025279Y-57144406D01*
X81023763Y-57148064D01*
X81015835Y-57160660D01*
X80944406Y-57303518D01*
X80933896Y-57330981D01*
X80933513Y-57336358D01*
X80931452Y-57341336D01*
X80928570Y-57370600D01*
X80928570Y-57513457D01*
X80931452Y-57542721D01*
X80933515Y-57547701D01*
X80933897Y-57553076D01*
X80944406Y-57580539D01*
X81015835Y-57723396D01*
X81023763Y-57735991D01*
X81025279Y-57739650D01*
X81028658Y-57743767D01*
X81031500Y-57748282D01*
X81034494Y-57750878D01*
X81043934Y-57762381D01*
X81115363Y-57833809D01*
X81126863Y-57843247D01*
X81129460Y-57846241D01*
X81133972Y-57849081D01*
X81138093Y-57852463D01*
X81141752Y-57853978D01*
X81154346Y-57861906D01*
X81297202Y-57933335D01*
X81324666Y-57943844D01*
X81330040Y-57944225D01*
X81335021Y-57946289D01*
X81364285Y-57949171D01*
X81864285Y-57949171D01*
X81893549Y-57946289D01*
X81947621Y-57923891D01*
X81989005Y-57882507D01*
X82011403Y-57828435D01*
X82014285Y-57799171D01*
X82014285Y-56299171D01*
X82011403Y-56269907D01*
X81989005Y-56215835D01*
X81947621Y-56174451D01*
X81893549Y-56152053D01*
X81864285Y-56149171D01*
X81292856Y-56149171D01*
X81263592Y-56152053D01*
X81258611Y-56154116D01*
X81253237Y-56154498D01*
X81225773Y-56165007D01*
X81082917Y-56236436D01*
X81070323Y-56244363D01*
X81066664Y-56245879D01*
X81062543Y-56249260D01*
X81058031Y-56252101D01*
X81055434Y-56255094D01*
X81043934Y-56264533D01*
X80972505Y-56335961D01*
X80963065Y-56347463D01*
X80960071Y-56350060D01*
X80957229Y-56354574D01*
X80953850Y-56358692D01*
X80952334Y-56362350D01*
X80944406Y-56374946D01*
X80872978Y-56517803D01*
X80862468Y-56545267D01*
X80862086Y-56550642D01*
X80860024Y-56555621D01*
X80857142Y-56584885D01*
X80299999Y-56584885D01*
X80299999Y-56299171D01*
X80297117Y-56269907D01*
X80274719Y-56215835D01*
X80233335Y-56174451D01*
X80179263Y-56152053D01*
X80120735Y-56152053D01*
X80066663Y-56174451D01*
X80025279Y-56215835D01*
X80002881Y-56269907D01*
X79999999Y-56299171D01*
X79999999Y-57649171D01*
X79721428Y-57649171D01*
X79692164Y-57652053D01*
X79638092Y-57674451D01*
X79596708Y-57715835D01*
X79574310Y-57769907D01*
X78034252Y-57769907D01*
X78113208Y-57690951D01*
X78122648Y-57679448D01*
X78125641Y-57676853D01*
X78128479Y-57672343D01*
X78131863Y-57668221D01*
X78133379Y-57664558D01*
X78141306Y-57651967D01*
X78212735Y-57509111D01*
X78213554Y-57506968D01*
X78214199Y-57506099D01*
X78218583Y-57493827D01*
X78223244Y-57481647D01*
X78223320Y-57480566D01*
X78224092Y-57478408D01*
X78295520Y-57192694D01*
X78296269Y-57187622D01*
X78297117Y-57185578D01*
X78298202Y-57174555D01*
X78299822Y-57163605D01*
X78299496Y-57161417D01*
X78299999Y-57156314D01*
X78299999Y-56942028D01*
X78299496Y-56936924D01*
X78299822Y-56934737D01*
X78298202Y-56923786D01*
X78297117Y-56912764D01*
X78296269Y-56910719D01*
X78295520Y-56905648D01*
X78224092Y-56619934D01*
X78223320Y-56617775D01*
X78223244Y-56616695D01*
X78218583Y-56604514D01*
X78214199Y-56592243D01*
X78213554Y-56591373D01*
X78212735Y-56589231D01*
X78141306Y-56446375D01*
X78133379Y-56433783D01*
X78131863Y-56430121D01*
X78128479Y-56425998D01*
X78125641Y-56421489D01*
X78122648Y-56418893D01*
X78113208Y-56407391D01*
X77970351Y-56264534D01*
X77947620Y-56245879D01*
X77942640Y-56243816D01*
X77938570Y-56240286D01*
X77911719Y-56228297D01*
X77697433Y-56156869D01*
X77682925Y-56153570D01*
X77679263Y-56152053D01*
X77673954Y-56151530D01*
X77668760Y-56150349D01*
X77664810Y-56150629D01*
X77649999Y-56149171D01*
X77507142Y-56149171D01*
X77492330Y-56150629D01*
X77488381Y-56150349D01*
X77483186Y-56151530D01*
X77477878Y-56152053D01*
X77474216Y-56153569D01*
X77459707Y-56156869D01*
X77245422Y-56228298D01*
X77218571Y-56240286D01*
X77214500Y-56243815D01*
X77209520Y-56245879D01*
X77186790Y-56264534D01*
X77115362Y-56335962D01*
X77096707Y-56358693D01*
X77074310Y-56412765D01*
X76728571Y-56412765D01*
X76728571Y-56299171D01*
X76725689Y-56269907D01*
X76703291Y-56215835D01*
X76661907Y-56174451D01*
X76607835Y-56152053D01*
X76578571Y-56149171D01*
X75864285Y-56149171D01*
X75835021Y-56152053D01*
X75780949Y-56174451D01*
X75739565Y-56215835D01*
X75717167Y-56269907D01*
X75511403Y-56269907D01*
X75489005Y-56215835D01*
X75447621Y-56174451D01*
X75393549Y-56152053D01*
X75364285Y-56149171D01*
X74649999Y-56149171D01*
X74620735Y-56152053D01*
X74566663Y-56174451D01*
X74525279Y-56215835D01*
X74502881Y-56269907D01*
X74366836Y-56269907D01*
X74366100Y-56259551D01*
X74339926Y-56207204D01*
X74295712Y-56168857D01*
X74240188Y-56150348D01*
X74181808Y-56154498D01*
X74129460Y-56180671D01*
X74091113Y-56224886D01*
X74079125Y-56251737D01*
X73970457Y-56577742D01*
X73472398Y-56577742D01*
X73363729Y-56251737D01*
X73351741Y-56224886D01*
X73313394Y-56180672D01*
X73261047Y-56154498D01*
X73202666Y-56150349D01*
X73147142Y-56168857D01*
X73102928Y-56207204D01*
X73076754Y-56259551D01*
X73072605Y-56317932D01*
X72871428Y-56317932D01*
X72871428Y-56299171D01*
X72868546Y-56269907D01*
X72846148Y-56215835D01*
X72804764Y-56174451D01*
X72750692Y-56152053D01*
X72692164Y-56152053D01*
X72638092Y-56174451D01*
X72596708Y-56215835D01*
X72574310Y-56269907D01*
X72571428Y-56299171D01*
X72571428Y-56863457D01*
X72442383Y-56863457D01*
X71987170Y-56213152D01*
X71968027Y-56190830D01*
X71918670Y-56159377D01*
X71861034Y-56149206D01*
X71803892Y-56161865D01*
X71755944Y-56195429D01*
X71724491Y-56244786D01*
X71714320Y-56302422D01*
X71726979Y-56359564D01*
X71741400Y-56385190D01*
X72086352Y-56877978D01*
X72082918Y-56879293D01*
X71940060Y-56950721D01*
X71927468Y-56958647D01*
X71923807Y-56960164D01*
X71919684Y-56963547D01*
X71915175Y-56966386D01*
X71912580Y-56969377D01*
X71901076Y-56978819D01*
X71829647Y-57050248D01*
X71820207Y-57061749D01*
X71817214Y-57064346D01*
X71814373Y-57068859D01*
X71810992Y-57072979D01*
X71809476Y-57076638D01*
X71801549Y-57089232D01*
X71730121Y-57232089D01*
X71719611Y-57259553D01*
X71719229Y-57264928D01*
X71717167Y-57269907D01*
X71714285Y-57299171D01*
X71547618Y-57299171D01*
X71547618Y-55982504D01*
X82180952Y-55982504D01*
X82180952Y-58115838D01*
G37*
G36*
X91785714Y-57649171D02*
G01*
X91471124Y-57649171D01*
X91381710Y-57604463D01*
X91344706Y-57567460D01*
X91299999Y-57478046D01*
X91299999Y-57406010D01*
X91344705Y-57316596D01*
X91381710Y-57279592D01*
X91471124Y-57234885D01*
X91785714Y-57234885D01*
X91785714Y-57649171D01*
G37*
G36*
X91785714Y-56934885D02*
G01*
X91460057Y-56934885D01*
X91302454Y-56882351D01*
X91273276Y-56853173D01*
X91228571Y-56763761D01*
X91228571Y-56620294D01*
X91273276Y-56530883D01*
X91310281Y-56493878D01*
X91399695Y-56449171D01*
X91785714Y-56449171D01*
X91785714Y-56934885D01*
G37*
G36*
X92252381Y-58115838D02*
G01*
X84336215Y-58115838D01*
X84336215Y-56269907D01*
X84502882Y-56269907D01*
X84502882Y-56328435D01*
X84525280Y-56382507D01*
X84566664Y-56423891D01*
X84620736Y-56446289D01*
X84650000Y-56449171D01*
X85214286Y-56449171D01*
X85214286Y-57799171D01*
X85217168Y-57828435D01*
X85239566Y-57882507D01*
X85280950Y-57923891D01*
X85335022Y-57946289D01*
X85393550Y-57946289D01*
X85447622Y-57923891D01*
X85489006Y-57882507D01*
X85511404Y-57828435D01*
X85514286Y-57799171D01*
X85514286Y-56299171D01*
X85511404Y-56269907D01*
X85860025Y-56269907D01*
X85860025Y-56328435D01*
X85882423Y-56382507D01*
X85923807Y-56423891D01*
X85977879Y-56446289D01*
X86007143Y-56449171D01*
X86571429Y-56449171D01*
X86571429Y-56934885D01*
X86221429Y-56934885D01*
X86192165Y-56937767D01*
X86138093Y-56960165D01*
X86096709Y-57001549D01*
X86074311Y-57055621D01*
X86074311Y-57114149D01*
X86096709Y-57168221D01*
X86138093Y-57209605D01*
X86192165Y-57232003D01*
X86221429Y-57234885D01*
X86571429Y-57234885D01*
X86571429Y-57649171D01*
X86007143Y-57649171D01*
X85977879Y-57652053D01*
X85923807Y-57674451D01*
X85882423Y-57715835D01*
X85860025Y-57769907D01*
X85860025Y-57828435D01*
X85882423Y-57882507D01*
X85923807Y-57923891D01*
X85977879Y-57946289D01*
X86007143Y-57949171D01*
X86721429Y-57949171D01*
X86750693Y-57946289D01*
X86804765Y-57923891D01*
X86846149Y-57882507D01*
X86868547Y-57828435D01*
X86871429Y-57799171D01*
X86871429Y-56584885D01*
X87214285Y-56584885D01*
X87214285Y-56727742D01*
X87217167Y-56757006D01*
X87219228Y-56761983D01*
X87219611Y-56767361D01*
X87230121Y-56794824D01*
X87301550Y-56937682D01*
X87309478Y-56950277D01*
X87310994Y-56953936D01*
X87314373Y-56958053D01*
X87317215Y-56962568D01*
X87320209Y-56965164D01*
X87329649Y-56976667D01*
X87401078Y-57048095D01*
X87412578Y-57057533D01*
X87415175Y-57060527D01*
X87419687Y-57063367D01*
X87423808Y-57066749D01*
X87427467Y-57068264D01*
X87440061Y-57076192D01*
X87582917Y-57147621D01*
X87585059Y-57148440D01*
X87585929Y-57149085D01*
X87598200Y-57153469D01*
X87610381Y-57158130D01*
X87611461Y-57158206D01*
X87613620Y-57158978D01*
X87883357Y-57226411D01*
X87989718Y-57279592D01*
X88026722Y-57316597D01*
X88071428Y-57406009D01*
X88071428Y-57478047D01*
X88026722Y-57567459D01*
X87989718Y-57604463D01*
X87900304Y-57649171D01*
X87602914Y-57649171D01*
X87411719Y-57585440D01*
X87383046Y-57578920D01*
X87324666Y-57583069D01*
X87272319Y-57609242D01*
X87233971Y-57653457D01*
X87215463Y-57708981D01*
X87219612Y-57767361D01*
X87245785Y-57819708D01*
X87290000Y-57858056D01*
X87316851Y-57870044D01*
X87531136Y-57941473D01*
X87545645Y-57944772D01*
X87549307Y-57946289D01*
X87554615Y-57946811D01*
X87559810Y-57947993D01*
X87563759Y-57947712D01*
X87578571Y-57949171D01*
X87935714Y-57949171D01*
X87964978Y-57946289D01*
X87969958Y-57944225D01*
X87975333Y-57943844D01*
X88002796Y-57933335D01*
X88145653Y-57861906D01*
X88158248Y-57853977D01*
X88161905Y-57852463D01*
X88166022Y-57849083D01*
X88170539Y-57846241D01*
X88173136Y-57843246D01*
X88184636Y-57833809D01*
X88248539Y-57769907D01*
X89645739Y-57769907D01*
X89645739Y-57828435D01*
X89668137Y-57882507D01*
X89709521Y-57923891D01*
X89763593Y-57946289D01*
X89792857Y-57949171D01*
X90649999Y-57949171D01*
X90679263Y-57946289D01*
X90733335Y-57923891D01*
X90774719Y-57882507D01*
X90797117Y-57828435D01*
X90797117Y-57769907D01*
X90774719Y-57715835D01*
X90733335Y-57674451D01*
X90679263Y-57652053D01*
X90649999Y-57649171D01*
X90371428Y-57649171D01*
X90371428Y-56584885D01*
X90928571Y-56584885D01*
X90928571Y-56799171D01*
X90931453Y-56828435D01*
X90933515Y-56833413D01*
X90933897Y-56838789D01*
X90944407Y-56866253D01*
X91015835Y-57009110D01*
X91023762Y-57021703D01*
X91025278Y-57025363D01*
X91028659Y-57029482D01*
X91031500Y-57033996D01*
X91034493Y-57036592D01*
X91043933Y-57048094D01*
X91115362Y-57119523D01*
X91116544Y-57120493D01*
X91115363Y-57121675D01*
X91105923Y-57133177D01*
X91102929Y-57135774D01*
X91100087Y-57140288D01*
X91096708Y-57144406D01*
X91095192Y-57148064D01*
X91087264Y-57160660D01*
X91015835Y-57303518D01*
X91005325Y-57330981D01*
X91004942Y-57336358D01*
X91002881Y-57341336D01*
X90999999Y-57370600D01*
X90999999Y-57513457D01*
X91002881Y-57542721D01*
X91004944Y-57547701D01*
X91005326Y-57553076D01*
X91015835Y-57580539D01*
X91087264Y-57723396D01*
X91095192Y-57735991D01*
X91096708Y-57739650D01*
X91100087Y-57743767D01*
X91102929Y-57748282D01*
X91105923Y-57750878D01*
X91115363Y-57762381D01*
X91186792Y-57833809D01*
X91198292Y-57843247D01*
X91200889Y-57846241D01*
X91205401Y-57849081D01*
X91209522Y-57852463D01*
X91213181Y-57853978D01*
X91225775Y-57861906D01*
X91368631Y-57933335D01*
X91396095Y-57943844D01*
X91401469Y-57944225D01*
X91406450Y-57946289D01*
X91435714Y-57949171D01*
X91935714Y-57949171D01*
X91964978Y-57946289D01*
X92019050Y-57923891D01*
X92060434Y-57882507D01*
X92082832Y-57828435D01*
X92085714Y-57799171D01*
X92085714Y-56299171D01*
X92082832Y-56269907D01*
X92060434Y-56215835D01*
X92019050Y-56174451D01*
X91964978Y-56152053D01*
X91935714Y-56149171D01*
X91364285Y-56149171D01*
X91335021Y-56152053D01*
X91330040Y-56154116D01*
X91324666Y-56154498D01*
X91297202Y-56165007D01*
X91154346Y-56236436D01*
X91141752Y-56244363D01*
X91138093Y-56245879D01*
X91133972Y-56249260D01*
X91129460Y-56252101D01*
X91126863Y-56255094D01*
X91115363Y-56264533D01*
X91043934Y-56335961D01*
X91034494Y-56347463D01*
X91031500Y-56350060D01*
X91028658Y-56354574D01*
X91025279Y-56358692D01*
X91023763Y-56362350D01*
X91015835Y-56374946D01*
X90944407Y-56517803D01*
X90933897Y-56545267D01*
X90933515Y-56550642D01*
X90931453Y-56555621D01*
X90928571Y-56584885D01*
X90371428Y-56584885D01*
X90371428Y-56299171D01*
X90368546Y-56269907D01*
X90346148Y-56215835D01*
X90304764Y-56174451D01*
X90250692Y-56152053D01*
X90192164Y-56152053D01*
X90138092Y-56174451D01*
X90096708Y-56215835D01*
X90074310Y-56269907D01*
X90071428Y-56299171D01*
X90071428Y-57649171D01*
X89792857Y-57649171D01*
X89763593Y-57652053D01*
X89709521Y-57674451D01*
X89668137Y-57715835D01*
X89645739Y-57769907D01*
X88248539Y-57769907D01*
X88256065Y-57762381D01*
X88265507Y-57750875D01*
X88268499Y-57748281D01*
X88271338Y-57743770D01*
X88274720Y-57739650D01*
X88276235Y-57735990D01*
X88284164Y-57723396D01*
X88355592Y-57580538D01*
X88366102Y-57553075D01*
X88366483Y-57547699D01*
X88368546Y-57542721D01*
X88371428Y-57513457D01*
X88371428Y-57370600D01*
X88368546Y-57341336D01*
X88366483Y-57336357D01*
X88366102Y-57330982D01*
X88355593Y-57303519D01*
X88284164Y-57160661D01*
X88276235Y-57148064D01*
X88274720Y-57144406D01*
X88271341Y-57140289D01*
X88268500Y-57135775D01*
X88265504Y-57133177D01*
X88256065Y-57121675D01*
X88184636Y-57050247D01*
X88173136Y-57040809D01*
X88170539Y-57037815D01*
X88166022Y-57034972D01*
X88161905Y-57031593D01*
X88158248Y-57030078D01*
X88145653Y-57022150D01*
X88002796Y-56950721D01*
X88000655Y-56949901D01*
X87999785Y-56949257D01*
X87987507Y-56944870D01*
X87975333Y-56940212D01*
X87974252Y-56940135D01*
X87972094Y-56939364D01*
X87702356Y-56871929D01*
X87595996Y-56818749D01*
X87558991Y-56781745D01*
X87514285Y-56692332D01*
X87514285Y-56620295D01*
X87558992Y-56530881D01*
X87595996Y-56493878D01*
X87685410Y-56449171D01*
X87982802Y-56449171D01*
X88173993Y-56512902D01*
X88202667Y-56519422D01*
X88261047Y-56515273D01*
X88313394Y-56489100D01*
X88351742Y-56444885D01*
X88370250Y-56389361D01*
X88366101Y-56330981D01*
X88339927Y-56278634D01*
X88295713Y-56240286D01*
X88268862Y-56228298D01*
X88054578Y-56156869D01*
X88040068Y-56153569D01*
X88036407Y-56152053D01*
X88031098Y-56151530D01*
X88025904Y-56150349D01*
X88021954Y-56150629D01*
X88007143Y-56149171D01*
X87650000Y-56149171D01*
X87620736Y-56152053D01*
X87615755Y-56154116D01*
X87610381Y-56154498D01*
X87582917Y-56165007D01*
X87440061Y-56236436D01*
X87427467Y-56244363D01*
X87423808Y-56245879D01*
X87419687Y-56249260D01*
X87415175Y-56252101D01*
X87412578Y-56255094D01*
X87401078Y-56264533D01*
X87329649Y-56335961D01*
X87320209Y-56347463D01*
X87317215Y-56350060D01*
X87314373Y-56354574D01*
X87310994Y-56358692D01*
X87309478Y-56362350D01*
X87301550Y-56374946D01*
X87230121Y-56517803D01*
X87219612Y-56545266D01*
X87219230Y-56550640D01*
X87217167Y-56555621D01*
X87214285Y-56584885D01*
X86871429Y-56584885D01*
X86871429Y-56299171D01*
X86868547Y-56269907D01*
X86846149Y-56215835D01*
X86804765Y-56174451D01*
X86750693Y-56152053D01*
X86721429Y-56149171D01*
X86007143Y-56149171D01*
X85977879Y-56152053D01*
X85923807Y-56174451D01*
X85882423Y-56215835D01*
X85860025Y-56269907D01*
X85511404Y-56269907D01*
X85489006Y-56215835D01*
X85447622Y-56174451D01*
X85393550Y-56152053D01*
X85364286Y-56149171D01*
X84650000Y-56149171D01*
X84620736Y-56152053D01*
X84566664Y-56174451D01*
X84525280Y-56215835D01*
X84502882Y-56269907D01*
X84336215Y-56269907D01*
X84336215Y-55982504D01*
X92252381Y-55982504D01*
X92252381Y-58115838D01*
G37*
M02*
