G04 #@! TF.GenerationSoftware,KiCad,Pcbnew,9.0.2*
G04 #@! TF.CreationDate,2025-09-01T17:39:08-04:00*
G04 #@! TF.ProjectId,Trackball,54726163-6b62-4616-9c6c-2e6b69636164,rev?*
G04 #@! TF.SameCoordinates,Original*
G04 #@! TF.FileFunction,Copper,L1,Top*
G04 #@! TF.FilePolarity,Positive*
%FSLAX46Y46*%
G04 Gerber Fmt 4.6, Leading zero omitted, Abs format (unit mm)*
G04 Created by KiCad (PCBNEW 9.0.2) date 2025-09-01 17:39:08*
%MOMM*%
%LPD*%
G01*
G04 APERTURE LIST*
G04 #@! TA.AperFunction,ComponentPad*
%ADD10C,5.000000*%
G04 #@! TD*
G04 #@! TA.AperFunction,ComponentPad*
%ADD11R,1.700000X1.700000*%
G04 #@! TD*
G04 #@! TA.AperFunction,ComponentPad*
%ADD12C,1.700000*%
G04 #@! TD*
G04 #@! TA.AperFunction,ViaPad*
%ADD13C,0.800000*%
G04 #@! TD*
G04 APERTURE END LIST*
D10*
X69496440Y-32001386D03*
X43746440Y-48251386D03*
X37996440Y-32001386D03*
X63746440Y-48251386D03*
D11*
X57556440Y-86227386D03*
D12*
X55016440Y-86227386D03*
X52476440Y-86227386D03*
X49936440Y-86227386D03*
D11*
X29362440Y-50559386D03*
D12*
X29362440Y-53099386D03*
X29362440Y-55639386D03*
X29362440Y-58179386D03*
D11*
X78130440Y-50559386D03*
D12*
X78130440Y-53099386D03*
X78130440Y-55639386D03*
X78130440Y-58179386D03*
D13*
X63746440Y-80751386D03*
X33746440Y-50751386D03*
X73746440Y-80751386D03*
X33746440Y-40751386D03*
X33746440Y-80751386D03*
X63746440Y-90751386D03*
X48746440Y-60751386D03*
X73746440Y-60751386D03*
X73746440Y-70751386D03*
X73746440Y-50751386D03*
X58746440Y-60751386D03*
X73746440Y-40751386D03*
X43746440Y-80751386D03*
X43746440Y-90751386D03*
X33746440Y-70751386D03*
X33746440Y-60751386D03*
G04 #@! TA.AperFunction,Conductor*
G36*
X70035007Y-28580684D02*
G01*
X70392121Y-28607544D01*
X70403557Y-28608942D01*
X70756603Y-28668857D01*
X70767868Y-28671313D01*
X70828349Y-28687476D01*
X71113847Y-28763776D01*
X71124807Y-28767259D01*
X71460691Y-28891461D01*
X71471290Y-28895950D01*
X71794201Y-29050828D01*
X71804326Y-29056277D01*
X72111431Y-29240473D01*
X72121021Y-29246849D01*
X72199923Y-29304777D01*
X72409690Y-29458783D01*
X72418649Y-29466024D01*
X72686373Y-29703852D01*
X72694621Y-29711895D01*
X72939097Y-29973572D01*
X72946569Y-29982356D01*
X73125940Y-30214243D01*
X73165659Y-30265590D01*
X73172284Y-30275030D01*
X73364128Y-30577417D01*
X73369846Y-30587432D01*
X73532756Y-30906311D01*
X73537520Y-30916814D01*
X73671307Y-31252475D01*
X73673317Y-31257880D01*
X75826375Y-37487394D01*
X79039131Y-46782972D01*
X79714137Y-48735988D01*
X79720939Y-48776494D01*
X79720939Y-49585144D01*
X79701254Y-49652183D01*
X79648450Y-49697938D01*
X79579292Y-49707882D01*
X79515736Y-49678857D01*
X79477962Y-49620079D01*
X79475866Y-49609543D01*
X79475820Y-49609554D01*
X79474036Y-49602006D01*
X79423794Y-49467299D01*
X79423790Y-49467292D01*
X79337630Y-49352198D01*
X79337627Y-49352195D01*
X79222533Y-49266035D01*
X79222526Y-49266031D01*
X79087819Y-49215789D01*
X79087812Y-49215787D01*
X79028284Y-49209386D01*
X78380440Y-49209386D01*
X78380440Y-50126374D01*
X78323433Y-50093461D01*
X78196266Y-50059386D01*
X78064614Y-50059386D01*
X77937447Y-50093461D01*
X77880440Y-50126374D01*
X77880440Y-49209386D01*
X77232595Y-49209386D01*
X77173067Y-49215787D01*
X77173060Y-49215789D01*
X77038353Y-49266031D01*
X77038346Y-49266035D01*
X76923252Y-49352195D01*
X76923249Y-49352198D01*
X76837089Y-49467292D01*
X76837085Y-49467299D01*
X76786843Y-49602006D01*
X76786841Y-49602013D01*
X76780440Y-49661541D01*
X76780440Y-50309386D01*
X77697428Y-50309386D01*
X77664515Y-50366393D01*
X77630440Y-50493560D01*
X77630440Y-50625212D01*
X77664515Y-50752379D01*
X77697428Y-50809386D01*
X76780440Y-50809386D01*
X76780440Y-51457230D01*
X76786841Y-51516758D01*
X76786843Y-51516765D01*
X76837085Y-51651472D01*
X76837089Y-51651479D01*
X76923249Y-51766573D01*
X76923252Y-51766576D01*
X77038346Y-51852736D01*
X77038353Y-51852740D01*
X77173060Y-51902982D01*
X77173059Y-51902982D01*
X77255884Y-51911887D01*
X77255556Y-51914936D01*
X77272454Y-51914028D01*
X77331636Y-51947028D01*
X78001031Y-52616423D01*
X77937447Y-52633461D01*
X77823433Y-52699287D01*
X77730341Y-52792379D01*
X77664515Y-52906393D01*
X77647477Y-52969977D01*
X77015168Y-52337668D01*
X77015167Y-52337668D01*
X76975820Y-52391825D01*
X76879344Y-52581168D01*
X76813682Y-52783255D01*
X76813682Y-52783258D01*
X76780440Y-52993139D01*
X76780440Y-53205632D01*
X76813682Y-53415513D01*
X76813682Y-53415516D01*
X76879344Y-53617603D01*
X76975815Y-53806936D01*
X77015168Y-53861102D01*
X77647477Y-53228794D01*
X77664515Y-53292379D01*
X77730341Y-53406393D01*
X77823433Y-53499485D01*
X77937447Y-53565311D01*
X78001030Y-53582348D01*
X77368722Y-54214655D01*
X77368722Y-54214656D01*
X77422892Y-54254012D01*
X77432488Y-54258902D01*
X77483284Y-54306877D01*
X77500078Y-54374698D01*
X77477540Y-54440833D01*
X77432491Y-54479869D01*
X77422880Y-54484766D01*
X77368722Y-54524113D01*
X77368722Y-54524114D01*
X78001031Y-55156423D01*
X77937447Y-55173461D01*
X77823433Y-55239287D01*
X77730341Y-55332379D01*
X77664515Y-55446393D01*
X77647477Y-55509977D01*
X77015168Y-54877668D01*
X77015167Y-54877668D01*
X76975820Y-54931825D01*
X76879344Y-55121168D01*
X76813682Y-55323255D01*
X76813682Y-55323258D01*
X76780440Y-55533139D01*
X76780440Y-55745632D01*
X76813682Y-55955513D01*
X76813682Y-55955516D01*
X76879344Y-56157603D01*
X76975815Y-56346936D01*
X77015168Y-56401102D01*
X77647477Y-55768794D01*
X77664515Y-55832379D01*
X77730341Y-55946393D01*
X77823433Y-56039485D01*
X77937447Y-56105311D01*
X78001030Y-56122348D01*
X77368722Y-56754655D01*
X77368722Y-56754656D01*
X77422892Y-56794012D01*
X77432488Y-56798902D01*
X77483284Y-56846877D01*
X77500078Y-56914698D01*
X77477540Y-56980833D01*
X77432491Y-57019869D01*
X77422880Y-57024766D01*
X77368722Y-57064113D01*
X77368722Y-57064114D01*
X78001031Y-57696423D01*
X77937447Y-57713461D01*
X77823433Y-57779287D01*
X77730341Y-57872379D01*
X77664515Y-57986393D01*
X77647477Y-58049977D01*
X77015168Y-57417668D01*
X77015167Y-57417668D01*
X76975820Y-57471825D01*
X76879344Y-57661168D01*
X76813682Y-57863255D01*
X76813682Y-57863258D01*
X76780440Y-58073139D01*
X76780440Y-58285632D01*
X76813682Y-58495513D01*
X76813682Y-58495516D01*
X76879344Y-58697603D01*
X76975815Y-58886936D01*
X77015168Y-58941102D01*
X77647477Y-58308794D01*
X77664515Y-58372379D01*
X77730341Y-58486393D01*
X77823433Y-58579485D01*
X77937447Y-58645311D01*
X78001030Y-58662348D01*
X77368722Y-59294655D01*
X77368722Y-59294656D01*
X77422889Y-59334010D01*
X77612222Y-59430481D01*
X77814310Y-59496143D01*
X78024194Y-59529386D01*
X78236686Y-59529386D01*
X78446567Y-59496143D01*
X78446570Y-59496143D01*
X78648657Y-59430481D01*
X78837994Y-59334008D01*
X78892156Y-59294656D01*
X78892157Y-59294656D01*
X78259848Y-58662348D01*
X78323433Y-58645311D01*
X78437447Y-58579485D01*
X78530539Y-58486393D01*
X78596365Y-58372379D01*
X78613402Y-58308794D01*
X79245710Y-58941103D01*
X79245710Y-58941102D01*
X79285062Y-58886940D01*
X79381535Y-58697603D01*
X79447197Y-58495516D01*
X79447197Y-58495513D01*
X79474466Y-58323347D01*
X79504395Y-58260213D01*
X79563706Y-58223281D01*
X79633569Y-58224279D01*
X79691802Y-58262889D01*
X79719916Y-58326852D01*
X79720939Y-58342745D01*
X79720940Y-70343101D01*
X79720940Y-70350166D01*
X79720917Y-70352571D01*
X79701452Y-71356166D01*
X79701265Y-71360971D01*
X79642973Y-72361794D01*
X79642601Y-72366589D01*
X79545540Y-73364467D01*
X79544981Y-73369243D01*
X79409307Y-74362550D01*
X79408564Y-74367301D01*
X79234472Y-75354627D01*
X79233545Y-75359346D01*
X79021304Y-76339162D01*
X79020195Y-76343842D01*
X78770121Y-77314690D01*
X78768832Y-77319323D01*
X78481287Y-78279791D01*
X78479818Y-78284370D01*
X78155270Y-79232894D01*
X78153626Y-79237413D01*
X77792521Y-80172697D01*
X77790702Y-80177149D01*
X77393614Y-81097703D01*
X77391624Y-81102081D01*
X76959128Y-82006570D01*
X76956969Y-82010867D01*
X76489753Y-82897855D01*
X76487430Y-82902066D01*
X75986145Y-83770318D01*
X75983660Y-83774435D01*
X75449108Y-84622560D01*
X75446466Y-84626578D01*
X74879406Y-85453371D01*
X74876609Y-85457284D01*
X74277930Y-86261449D01*
X74274984Y-86265250D01*
X73645573Y-87045597D01*
X73642482Y-87049281D01*
X72983274Y-87804650D01*
X72980042Y-87808211D01*
X72292058Y-88537431D01*
X72288691Y-88540864D01*
X71572937Y-89242871D01*
X71569439Y-89246171D01*
X70827027Y-89919874D01*
X70823404Y-89923037D01*
X70055387Y-90567479D01*
X70051644Y-90570498D01*
X69259217Y-91184676D01*
X69255359Y-91187547D01*
X68439768Y-91770497D01*
X68435802Y-91773218D01*
X67598168Y-92324138D01*
X67594100Y-92326702D01*
X66735736Y-92844728D01*
X66731571Y-92847132D01*
X65853786Y-93331472D01*
X65849531Y-93333713D01*
X64953640Y-93783647D01*
X64949302Y-93785722D01*
X64036606Y-94200593D01*
X64032190Y-94202498D01*
X63104093Y-94581667D01*
X63099607Y-94583399D01*
X62157539Y-94926284D01*
X62152988Y-94927841D01*
X61198287Y-95233954D01*
X61193680Y-95235333D01*
X60227876Y-95504183D01*
X60223219Y-95505383D01*
X59247680Y-95736589D01*
X59242980Y-95737607D01*
X58259222Y-95930811D01*
X58254486Y-95931646D01*
X57263983Y-96086558D01*
X57259219Y-96087209D01*
X56263430Y-96203600D01*
X56258643Y-96204065D01*
X55259130Y-96281753D01*
X55254329Y-96282033D01*
X54252517Y-96320909D01*
X54247709Y-96321002D01*
X53245171Y-96321002D01*
X53240363Y-96320909D01*
X52238550Y-96282033D01*
X52233749Y-96281753D01*
X51234236Y-96204065D01*
X51229449Y-96203600D01*
X50233660Y-96087209D01*
X50228896Y-96086558D01*
X49238393Y-95931646D01*
X49233657Y-95930811D01*
X48249899Y-95737607D01*
X48245199Y-95736589D01*
X47269660Y-95505383D01*
X47265003Y-95504183D01*
X46299199Y-95235333D01*
X46294592Y-95233954D01*
X45339891Y-94927841D01*
X45335353Y-94926288D01*
X44972207Y-94794114D01*
X44393272Y-94583399D01*
X44388786Y-94581667D01*
X43460689Y-94202498D01*
X43456273Y-94200593D01*
X42543577Y-93785722D01*
X42539239Y-93783647D01*
X41643348Y-93333713D01*
X41639093Y-93331472D01*
X41249210Y-93116344D01*
X40761294Y-92847124D01*
X40757157Y-92844736D01*
X39898779Y-92326702D01*
X39894711Y-92324138D01*
X39057077Y-91773218D01*
X39053111Y-91770497D01*
X38237520Y-91187547D01*
X38233662Y-91184676D01*
X37441235Y-90570498D01*
X37437492Y-90567479D01*
X36669475Y-89923037D01*
X36665852Y-89919874D01*
X35923440Y-89246171D01*
X35919942Y-89242871D01*
X35204188Y-88540864D01*
X35200821Y-88537431D01*
X34896176Y-88214526D01*
X34512820Y-87808193D01*
X34509621Y-87804668D01*
X33850397Y-87049281D01*
X33847306Y-87045597D01*
X33343019Y-86420379D01*
X33217892Y-86265246D01*
X33214949Y-86261448D01*
X33161994Y-86190317D01*
X33161992Y-86190315D01*
X33110492Y-86121139D01*
X48586440Y-86121139D01*
X48586440Y-86333632D01*
X48619682Y-86543513D01*
X48619682Y-86543516D01*
X48685344Y-86745603D01*
X48781815Y-86934936D01*
X48821168Y-86989102D01*
X49453477Y-86356794D01*
X49470515Y-86420379D01*
X49536341Y-86534393D01*
X49629433Y-86627485D01*
X49743447Y-86693311D01*
X49807030Y-86710348D01*
X49174722Y-87342655D01*
X49174722Y-87342656D01*
X49228889Y-87382010D01*
X49418222Y-87478481D01*
X49620310Y-87544143D01*
X49830194Y-87577386D01*
X50042686Y-87577386D01*
X50252567Y-87544143D01*
X50252570Y-87544143D01*
X50454657Y-87478481D01*
X50643994Y-87382008D01*
X50698156Y-87342656D01*
X50698157Y-87342656D01*
X50065848Y-86710348D01*
X50129433Y-86693311D01*
X50243447Y-86627485D01*
X50336539Y-86534393D01*
X50402365Y-86420379D01*
X50419402Y-86356794D01*
X51051710Y-86989103D01*
X51051710Y-86989102D01*
X51091062Y-86934940D01*
X51095954Y-86925340D01*
X51143928Y-86874543D01*
X51211748Y-86857747D01*
X51277884Y-86880283D01*
X51316926Y-86925340D01*
X51321815Y-86934936D01*
X51361168Y-86989102D01*
X51993477Y-86356794D01*
X52010515Y-86420379D01*
X52076341Y-86534393D01*
X52169433Y-86627485D01*
X52283447Y-86693311D01*
X52347030Y-86710348D01*
X51714722Y-87342655D01*
X51714722Y-87342656D01*
X51768889Y-87382010D01*
X51958222Y-87478481D01*
X52160310Y-87544143D01*
X52370194Y-87577386D01*
X52582686Y-87577386D01*
X52792567Y-87544143D01*
X52792570Y-87544143D01*
X52994657Y-87478481D01*
X53183994Y-87382008D01*
X53238156Y-87342656D01*
X53238157Y-87342656D01*
X52605848Y-86710348D01*
X52669433Y-86693311D01*
X52783447Y-86627485D01*
X52876539Y-86534393D01*
X52942365Y-86420379D01*
X52959402Y-86356795D01*
X53591710Y-86989103D01*
X53591710Y-86989102D01*
X53631062Y-86934940D01*
X53635954Y-86925340D01*
X53683928Y-86874543D01*
X53751748Y-86857747D01*
X53817884Y-86880283D01*
X53856926Y-86925340D01*
X53861815Y-86934936D01*
X53901168Y-86989102D01*
X54533477Y-86356794D01*
X54550515Y-86420379D01*
X54616341Y-86534393D01*
X54709433Y-86627485D01*
X54823447Y-86693311D01*
X54887030Y-86710348D01*
X54254722Y-87342655D01*
X54254722Y-87342656D01*
X54308889Y-87382010D01*
X54498222Y-87478481D01*
X54700310Y-87544143D01*
X54910194Y-87577386D01*
X55122686Y-87577386D01*
X55332567Y-87544143D01*
X55332570Y-87544143D01*
X55534657Y-87478481D01*
X55723994Y-87382008D01*
X55778156Y-87342656D01*
X55778157Y-87342656D01*
X55145848Y-86710348D01*
X55209433Y-86693311D01*
X55323447Y-86627485D01*
X55416539Y-86534393D01*
X55482365Y-86420379D01*
X55499402Y-86356794D01*
X56168796Y-87026189D01*
X56202281Y-87087512D01*
X56201366Y-87102217D01*
X56203937Y-87101941D01*
X56212841Y-87184759D01*
X56212843Y-87184766D01*
X56263085Y-87319472D01*
X56263089Y-87319479D01*
X56349249Y-87434573D01*
X56349252Y-87434576D01*
X56464346Y-87520736D01*
X56464353Y-87520740D01*
X56599060Y-87570982D01*
X56599067Y-87570984D01*
X56658595Y-87577385D01*
X56658612Y-87577386D01*
X57306440Y-87577386D01*
X57306440Y-86660398D01*
X57363447Y-86693311D01*
X57490614Y-86727386D01*
X57622266Y-86727386D01*
X57749433Y-86693311D01*
X57806440Y-86660398D01*
X57806440Y-87577386D01*
X58454268Y-87577386D01*
X58454284Y-87577385D01*
X58513812Y-87570984D01*
X58513819Y-87570982D01*
X58648526Y-87520740D01*
X58648533Y-87520736D01*
X58763627Y-87434576D01*
X58763630Y-87434573D01*
X58849790Y-87319479D01*
X58849794Y-87319472D01*
X58900036Y-87184765D01*
X58900038Y-87184758D01*
X58906439Y-87125230D01*
X58906440Y-87125213D01*
X58906440Y-86477386D01*
X57989452Y-86477386D01*
X58022365Y-86420379D01*
X58056440Y-86293212D01*
X58056440Y-86161560D01*
X58022365Y-86034393D01*
X57989452Y-85977386D01*
X58906440Y-85977386D01*
X58906440Y-85329558D01*
X58906439Y-85329541D01*
X58900038Y-85270013D01*
X58900036Y-85270006D01*
X58849794Y-85135299D01*
X58849790Y-85135292D01*
X58763630Y-85020198D01*
X58763627Y-85020195D01*
X58648533Y-84934035D01*
X58648526Y-84934031D01*
X58513819Y-84883789D01*
X58513812Y-84883787D01*
X58454284Y-84877386D01*
X57806440Y-84877386D01*
X57806440Y-85794374D01*
X57749433Y-85761461D01*
X57622266Y-85727386D01*
X57490614Y-85727386D01*
X57363447Y-85761461D01*
X57306440Y-85794374D01*
X57306440Y-84877386D01*
X56658595Y-84877386D01*
X56599067Y-84883787D01*
X56599060Y-84883789D01*
X56464353Y-84934031D01*
X56464346Y-84934035D01*
X56349252Y-85020195D01*
X56349249Y-85020198D01*
X56263089Y-85135292D01*
X56263085Y-85135299D01*
X56212843Y-85270005D01*
X56212841Y-85270012D01*
X56203937Y-85352830D01*
X56200874Y-85352500D01*
X56201776Y-85369480D01*
X56168796Y-85428581D01*
X55499402Y-86097976D01*
X55482365Y-86034393D01*
X55416539Y-85920379D01*
X55323447Y-85827287D01*
X55209433Y-85761461D01*
X55145849Y-85744423D01*
X55778156Y-85112114D01*
X55723990Y-85072761D01*
X55534657Y-84976290D01*
X55332569Y-84910628D01*
X55122686Y-84877386D01*
X54910194Y-84877386D01*
X54700312Y-84910628D01*
X54700309Y-84910628D01*
X54498222Y-84976290D01*
X54308879Y-85072766D01*
X54254722Y-85112113D01*
X54254722Y-85112114D01*
X54887031Y-85744423D01*
X54823447Y-85761461D01*
X54709433Y-85827287D01*
X54616341Y-85920379D01*
X54550515Y-86034393D01*
X54533477Y-86097977D01*
X53901168Y-85465668D01*
X53901167Y-85465668D01*
X53861820Y-85519826D01*
X53856923Y-85529437D01*
X53808946Y-85580231D01*
X53741124Y-85597024D01*
X53674990Y-85574484D01*
X53635956Y-85529434D01*
X53631066Y-85519838D01*
X53591710Y-85465668D01*
X53591709Y-85465668D01*
X52959402Y-86097976D01*
X52942365Y-86034393D01*
X52876539Y-85920379D01*
X52783447Y-85827287D01*
X52669433Y-85761461D01*
X52605849Y-85744423D01*
X53238156Y-85112114D01*
X53183990Y-85072761D01*
X52994657Y-84976290D01*
X52792569Y-84910628D01*
X52582686Y-84877386D01*
X52370194Y-84877386D01*
X52160312Y-84910628D01*
X52160309Y-84910628D01*
X51958222Y-84976290D01*
X51768879Y-85072766D01*
X51714722Y-85112113D01*
X51714722Y-85112114D01*
X52347031Y-85744423D01*
X52283447Y-85761461D01*
X52169433Y-85827287D01*
X52076341Y-85920379D01*
X52010515Y-86034393D01*
X51993477Y-86097977D01*
X51361168Y-85465668D01*
X51361167Y-85465668D01*
X51321820Y-85519826D01*
X51316923Y-85529437D01*
X51268946Y-85580231D01*
X51201124Y-85597024D01*
X51134990Y-85574484D01*
X51095956Y-85529434D01*
X51091066Y-85519838D01*
X51051710Y-85465668D01*
X51051709Y-85465668D01*
X50419402Y-86097976D01*
X50402365Y-86034393D01*
X50336539Y-85920379D01*
X50243447Y-85827287D01*
X50129433Y-85761461D01*
X50065849Y-85744423D01*
X50698156Y-85112114D01*
X50643990Y-85072761D01*
X50454657Y-84976290D01*
X50252569Y-84910628D01*
X50042686Y-84877386D01*
X49830194Y-84877386D01*
X49620312Y-84910628D01*
X49620309Y-84910628D01*
X49418222Y-84976290D01*
X49228879Y-85072766D01*
X49174722Y-85112113D01*
X49174722Y-85112114D01*
X49807031Y-85744423D01*
X49743447Y-85761461D01*
X49629433Y-85827287D01*
X49536341Y-85920379D01*
X49470515Y-86034393D01*
X49453477Y-86097977D01*
X48821168Y-85465668D01*
X48821167Y-85465668D01*
X48781820Y-85519825D01*
X48685344Y-85709168D01*
X48619682Y-85911255D01*
X48619682Y-85911258D01*
X48586440Y-86121139D01*
X33110492Y-86121139D01*
X32954239Y-85911255D01*
X32616262Y-85457273D01*
X32613473Y-85453371D01*
X32555936Y-85369480D01*
X32046393Y-84626549D01*
X32043790Y-84622590D01*
X31509210Y-83774420D01*
X31506734Y-83770318D01*
X31005449Y-82902066D01*
X31003126Y-82897855D01*
X30535910Y-82010867D01*
X30533751Y-82006570D01*
X30101255Y-81102081D01*
X30099265Y-81097703D01*
X29702177Y-80177149D01*
X29700358Y-80172697D01*
X29339253Y-79237413D01*
X29337609Y-79232894D01*
X29013047Y-78284327D01*
X29011605Y-78279833D01*
X28724038Y-77319290D01*
X28722767Y-77314724D01*
X28472676Y-76343811D01*
X28471582Y-76339194D01*
X28259332Y-75359339D01*
X28258407Y-75354627D01*
X28084315Y-74367301D01*
X28083572Y-74362550D01*
X28016857Y-73874113D01*
X27947897Y-73369238D01*
X27947339Y-73364467D01*
X27850278Y-72366589D01*
X27849906Y-72361794D01*
X27820966Y-71864919D01*
X27791612Y-71360939D01*
X27791428Y-71356198D01*
X27771962Y-70352546D01*
X27771940Y-70350189D01*
X27773923Y-66108608D01*
X27774147Y-65631327D01*
X40220940Y-65631327D01*
X40220940Y-65871444D01*
X40258503Y-66108608D01*
X40332705Y-66336979D01*
X40441716Y-66550922D01*
X40582854Y-66745182D01*
X40752644Y-66914972D01*
X40946904Y-67056110D01*
X41047983Y-67107612D01*
X41160846Y-67165120D01*
X41160848Y-67165120D01*
X41160851Y-67165122D01*
X41389218Y-67239323D01*
X41626381Y-67276886D01*
X41626382Y-67276886D01*
X41866498Y-67276886D01*
X41866499Y-67276886D01*
X42103662Y-67239323D01*
X42332029Y-67165122D01*
X42545976Y-67056110D01*
X42740236Y-66914972D01*
X42910026Y-66745182D01*
X43051164Y-66550922D01*
X43160176Y-66336975D01*
X43234377Y-66108608D01*
X43271940Y-65871445D01*
X43271940Y-65631327D01*
X64220940Y-65631327D01*
X64220940Y-65871444D01*
X64258503Y-66108608D01*
X64332705Y-66336979D01*
X64441716Y-66550922D01*
X64582854Y-66745182D01*
X64752644Y-66914972D01*
X64946904Y-67056110D01*
X65047983Y-67107612D01*
X65160846Y-67165120D01*
X65160848Y-67165120D01*
X65160851Y-67165122D01*
X65389218Y-67239323D01*
X65626381Y-67276886D01*
X65626382Y-67276886D01*
X65866498Y-67276886D01*
X65866499Y-67276886D01*
X66103662Y-67239323D01*
X66332029Y-67165122D01*
X66545976Y-67056110D01*
X66740236Y-66914972D01*
X66910026Y-66745182D01*
X67051164Y-66550922D01*
X67160176Y-66336975D01*
X67234377Y-66108608D01*
X67271940Y-65871445D01*
X67271940Y-65631327D01*
X67234377Y-65394164D01*
X67160176Y-65165797D01*
X67160174Y-65165794D01*
X67160174Y-65165792D01*
X67051163Y-64951849D01*
X66910026Y-64757590D01*
X66740236Y-64587800D01*
X66545976Y-64446662D01*
X66332033Y-64337651D01*
X66103662Y-64263449D01*
X65866499Y-64225886D01*
X65626381Y-64225886D01*
X65507799Y-64244667D01*
X65389217Y-64263449D01*
X65160846Y-64337651D01*
X64946903Y-64446662D01*
X64752641Y-64587802D01*
X64582856Y-64757587D01*
X64441716Y-64951849D01*
X64332705Y-65165792D01*
X64258503Y-65394163D01*
X64220940Y-65631327D01*
X43271940Y-65631327D01*
X43234377Y-65394164D01*
X43160176Y-65165797D01*
X43160174Y-65165794D01*
X43160174Y-65165792D01*
X43051163Y-64951849D01*
X42910026Y-64757590D01*
X42740236Y-64587800D01*
X42545976Y-64446662D01*
X42332033Y-64337651D01*
X42103662Y-64263449D01*
X41866499Y-64225886D01*
X41626381Y-64225886D01*
X41507799Y-64244667D01*
X41389217Y-64263449D01*
X41160846Y-64337651D01*
X40946903Y-64446662D01*
X40752641Y-64587802D01*
X40582856Y-64757587D01*
X40441716Y-64951849D01*
X40332705Y-65165792D01*
X40258503Y-65394163D01*
X40220940Y-65631327D01*
X27774147Y-65631327D01*
X27774149Y-65626397D01*
X27777131Y-59247339D01*
X27777482Y-58495513D01*
X27777537Y-58378022D01*
X27797253Y-58310993D01*
X27850078Y-58265263D01*
X27919241Y-58255351D01*
X27982783Y-58284406D01*
X28020530Y-58343202D01*
X28024010Y-58358683D01*
X28045682Y-58495513D01*
X28045682Y-58495516D01*
X28111344Y-58697603D01*
X28207815Y-58886936D01*
X28247168Y-58941102D01*
X28879477Y-58308794D01*
X28896515Y-58372379D01*
X28962341Y-58486393D01*
X29055433Y-58579485D01*
X29169447Y-58645311D01*
X29233030Y-58662348D01*
X28600722Y-59294655D01*
X28600722Y-59294656D01*
X28654889Y-59334010D01*
X28844222Y-59430481D01*
X29046310Y-59496143D01*
X29256194Y-59529386D01*
X29468686Y-59529386D01*
X29678567Y-59496143D01*
X29678570Y-59496143D01*
X29880657Y-59430481D01*
X30069994Y-59334008D01*
X30124156Y-59294656D01*
X30124157Y-59294656D01*
X29491848Y-58662348D01*
X29555433Y-58645311D01*
X29669447Y-58579485D01*
X29762539Y-58486393D01*
X29828365Y-58372379D01*
X29845402Y-58308794D01*
X30477710Y-58941103D01*
X30477710Y-58941102D01*
X30517062Y-58886940D01*
X30613535Y-58697603D01*
X30679197Y-58495516D01*
X30679197Y-58495513D01*
X30712440Y-58285632D01*
X30712440Y-58073139D01*
X30679197Y-57863258D01*
X30679197Y-57863255D01*
X30613535Y-57661168D01*
X30517064Y-57471835D01*
X30477710Y-57417668D01*
X30477709Y-57417668D01*
X29845402Y-58049976D01*
X29828365Y-57986393D01*
X29762539Y-57872379D01*
X29669447Y-57779287D01*
X29555433Y-57713461D01*
X29491849Y-57696423D01*
X30124156Y-57064114D01*
X30069990Y-57024761D01*
X30060394Y-57019872D01*
X30009597Y-56971898D01*
X29992801Y-56904078D01*
X30013728Y-56840281D01*
X30092467Y-56722967D01*
X29491848Y-56122348D01*
X29555433Y-56105311D01*
X29669447Y-56039485D01*
X29762539Y-55946393D01*
X29828365Y-55832379D01*
X29845402Y-55768794D01*
X30477710Y-56401103D01*
X30477710Y-56401102D01*
X30517062Y-56346940D01*
X30613535Y-56157603D01*
X30679197Y-55955516D01*
X30679197Y-55955513D01*
X30712440Y-55745632D01*
X30712440Y-55533139D01*
X30679197Y-55323258D01*
X30679197Y-55323255D01*
X30613535Y-55121168D01*
X30517064Y-54931835D01*
X30477710Y-54877668D01*
X30477709Y-54877668D01*
X29845402Y-55509976D01*
X29828365Y-55446393D01*
X29762539Y-55332379D01*
X29669447Y-55239287D01*
X29555433Y-55173461D01*
X29491849Y-55156423D01*
X30124156Y-54524114D01*
X30069990Y-54484761D01*
X30060394Y-54479872D01*
X30009597Y-54431898D01*
X29992801Y-54364078D01*
X30013728Y-54300281D01*
X30092467Y-54182967D01*
X29491848Y-53582348D01*
X29555433Y-53565311D01*
X29669447Y-53499485D01*
X29762539Y-53406393D01*
X29828365Y-53292379D01*
X29845402Y-53228794D01*
X30477710Y-53861103D01*
X30477710Y-53861102D01*
X30517062Y-53806940D01*
X30613535Y-53617603D01*
X30679197Y-53415516D01*
X30679197Y-53415513D01*
X30712440Y-53205632D01*
X30712440Y-52993139D01*
X30679197Y-52783258D01*
X30679197Y-52783255D01*
X30613535Y-52581168D01*
X30517064Y-52391835D01*
X30477710Y-52337668D01*
X30477709Y-52337668D01*
X29845402Y-52969976D01*
X29828365Y-52906393D01*
X29762539Y-52792379D01*
X29669447Y-52699287D01*
X29555433Y-52633461D01*
X29491849Y-52616423D01*
X30161242Y-51947028D01*
X30222565Y-51913543D01*
X30237273Y-51914464D01*
X30236996Y-51911887D01*
X30319815Y-51902984D01*
X30454526Y-51852740D01*
X30454533Y-51852736D01*
X30569627Y-51766576D01*
X30569630Y-51766573D01*
X30655790Y-51651479D01*
X30655794Y-51651472D01*
X30706036Y-51516765D01*
X30706038Y-51516758D01*
X30712439Y-51457230D01*
X30712440Y-51457213D01*
X30712440Y-50809386D01*
X29795452Y-50809386D01*
X29828365Y-50752379D01*
X29862440Y-50625212D01*
X29862440Y-50493560D01*
X29828365Y-50366393D01*
X29795452Y-50309386D01*
X30712440Y-50309386D01*
X30712440Y-49661558D01*
X30712439Y-49661541D01*
X30706038Y-49602013D01*
X30706036Y-49602006D01*
X30655794Y-49467299D01*
X30655790Y-49467292D01*
X30569630Y-49352198D01*
X30569627Y-49352195D01*
X30454533Y-49266035D01*
X30454526Y-49266031D01*
X30319819Y-49215789D01*
X30319812Y-49215787D01*
X30260284Y-49209386D01*
X29612440Y-49209386D01*
X29612440Y-50126374D01*
X29555433Y-50093461D01*
X29428266Y-50059386D01*
X29296614Y-50059386D01*
X29169447Y-50093461D01*
X29112440Y-50126374D01*
X29112440Y-49209386D01*
X28464595Y-49209386D01*
X28405067Y-49215787D01*
X28405060Y-49215789D01*
X28270353Y-49266031D01*
X28270346Y-49266035D01*
X28155252Y-49352195D01*
X28155249Y-49352198D01*
X28069089Y-49467292D01*
X28069086Y-49467298D01*
X28021845Y-49593956D01*
X27979973Y-49649889D01*
X27914509Y-49674306D01*
X27846236Y-49659454D01*
X27796831Y-49610048D01*
X27781663Y-49550567D01*
X27782024Y-48779458D01*
X27788808Y-48739066D01*
X27789124Y-48738151D01*
X33819176Y-31265245D01*
X33820941Y-31260131D01*
X33820943Y-31260127D01*
X33822942Y-31254744D01*
X33956497Y-30919229D01*
X33961234Y-30908773D01*
X34124085Y-30589678D01*
X34129777Y-30579701D01*
X34321573Y-30277127D01*
X34328178Y-30267707D01*
X34547245Y-29984287D01*
X34554696Y-29975522D01*
X34799166Y-29713672D01*
X34807403Y-29705635D01*
X35075136Y-29467648D01*
X35084077Y-29460416D01*
X35372783Y-29248326D01*
X35382354Y-29241959D01*
X35689518Y-29057617D01*
X35699639Y-29052167D01*
X36022603Y-28897168D01*
X36033187Y-28892681D01*
X36369150Y-28768369D01*
X36380111Y-28764883D01*
X36726185Y-28672326D01*
X36737412Y-28669876D01*
X37090589Y-28609879D01*
X37102015Y-28608482D01*
X37459198Y-28581567D01*
X37470725Y-28581237D01*
X37828882Y-28587632D01*
X37840358Y-28588371D01*
X38196387Y-28628023D01*
X38207747Y-28629827D01*
X38558528Y-28702388D01*
X38569697Y-28705246D01*
X38764513Y-28764879D01*
X38912217Y-28810091D01*
X38923079Y-28813977D01*
X39257134Y-28951333D01*
X39262386Y-28953637D01*
X39267190Y-28955878D01*
X39267204Y-28955890D01*
X39267207Y-28955886D01*
X39599645Y-29111024D01*
X39599652Y-29111027D01*
X39652078Y-29157215D01*
X39671210Y-29224414D01*
X39659376Y-29276268D01*
X39557135Y-29493149D01*
X39260520Y-30214236D01*
X39260514Y-30214253D01*
X39000524Y-30949319D01*
X38777796Y-31696562D01*
X38592910Y-32454050D01*
X38446335Y-33219849D01*
X38338435Y-33992049D01*
X38338433Y-33992066D01*
X38269481Y-34768719D01*
X38269479Y-34768755D01*
X38239651Y-35547870D01*
X38249023Y-36327532D01*
X38249023Y-36327539D01*
X38297568Y-37105729D01*
X38297568Y-37105730D01*
X38385166Y-37880507D01*
X38385167Y-37880517D01*
X38511598Y-38649918D01*
X38676538Y-39411983D01*
X38676539Y-39411986D01*
X38879573Y-40164795D01*
X39120184Y-40906434D01*
X39397785Y-41635091D01*
X39711636Y-42348820D01*
X39711644Y-42348839D01*
X40060975Y-43045900D01*
X40060989Y-43045925D01*
X40444898Y-43724520D01*
X40444937Y-43724584D01*
X40636381Y-44026487D01*
X40862479Y-44383039D01*
X41312608Y-45019703D01*
X41794167Y-45632937D01*
X42020934Y-45893593D01*
X42305950Y-46221203D01*
X42542251Y-46466723D01*
X42846634Y-46782982D01*
X43414880Y-47316884D01*
X43414890Y-47316893D01*
X44009234Y-47821544D01*
X44009241Y-47821549D01*
X44009243Y-47821551D01*
X44628221Y-48295706D01*
X44628239Y-48295718D01*
X44628249Y-48295726D01*
X45270249Y-48738151D01*
X45531691Y-48899565D01*
X45933702Y-49147766D01*
X46148735Y-49266031D01*
X46616882Y-49523506D01*
X46616893Y-49523512D01*
X46616902Y-49523516D01*
X46616905Y-49523518D01*
X47318131Y-49864455D01*
X48035607Y-50169717D01*
X48767519Y-50438531D01*
X49512017Y-50670218D01*
X50267219Y-50864192D01*
X50267239Y-50864196D01*
X50267243Y-50864197D01*
X51031210Y-51019962D01*
X51031212Y-51019962D01*
X51031216Y-51019963D01*
X51802077Y-51137137D01*
X51802084Y-51137137D01*
X51802104Y-51137140D01*
X52258534Y-51183196D01*
X52577848Y-51215417D01*
X52577851Y-51215418D01*
X53356569Y-51254608D01*
X53356582Y-51254608D01*
X54136311Y-51254608D01*
X54915028Y-51215418D01*
X55401511Y-51166328D01*
X55690775Y-51137140D01*
X55690787Y-51137138D01*
X55690803Y-51137137D01*
X56461664Y-51019963D01*
X57225661Y-50864192D01*
X57980863Y-50670218D01*
X58725361Y-50438531D01*
X59457273Y-50169717D01*
X60174749Y-49864455D01*
X60875975Y-49523518D01*
X61559178Y-49147766D01*
X62222632Y-48738150D01*
X62864659Y-48295706D01*
X63483637Y-47821551D01*
X64078000Y-47316884D01*
X64646246Y-46782982D01*
X65186940Y-46221192D01*
X65698713Y-45632937D01*
X66180272Y-45019703D01*
X66630401Y-44383039D01*
X67047960Y-43724556D01*
X67047972Y-43724534D01*
X67047981Y-43724520D01*
X67254134Y-43360126D01*
X67431895Y-43045918D01*
X67781235Y-42348840D01*
X68095097Y-41635084D01*
X68372688Y-40906456D01*
X68613306Y-40164796D01*
X68816342Y-39411980D01*
X68981283Y-38649910D01*
X69107713Y-37880513D01*
X69195311Y-37105734D01*
X69243857Y-36327531D01*
X69253228Y-35547872D01*
X69223399Y-34768728D01*
X69154447Y-33992067D01*
X69046545Y-33219854D01*
X68899967Y-32454040D01*
X68715083Y-31696561D01*
X68492360Y-30949333D01*
X68232362Y-30214243D01*
X67935745Y-29493150D01*
X67833500Y-29276264D01*
X67822720Y-29207233D01*
X67850972Y-29143330D01*
X67893224Y-29111025D01*
X68047902Y-29038842D01*
X68227532Y-28955016D01*
X68227537Y-28955013D01*
X68232472Y-28952710D01*
X68237690Y-28950422D01*
X68571586Y-28813129D01*
X68582402Y-28809259D01*
X68924847Y-28704424D01*
X68935979Y-28701574D01*
X69286683Y-28629007D01*
X69298053Y-28627201D01*
X69653961Y-28587531D01*
X69665455Y-28586789D01*
X70023511Y-28580356D01*
X70035007Y-28580684D01*
G37*
G04 #@! TD.AperFunction*
G04 #@! TA.AperFunction,Conductor*
G36*
X79633569Y-55684280D02*
G01*
X79691802Y-55722890D01*
X79719916Y-55786853D01*
X79720939Y-55802746D01*
X79720939Y-58016026D01*
X79701254Y-58083065D01*
X79648450Y-58128820D01*
X79579292Y-58138764D01*
X79515736Y-58109739D01*
X79477962Y-58050961D01*
X79474466Y-58035424D01*
X79447197Y-57863258D01*
X79447197Y-57863255D01*
X79381535Y-57661168D01*
X79285064Y-57471835D01*
X79245710Y-57417668D01*
X79245709Y-57417668D01*
X78613402Y-58049976D01*
X78596365Y-57986393D01*
X78530539Y-57872379D01*
X78437447Y-57779287D01*
X78323433Y-57713461D01*
X78259849Y-57696423D01*
X78892156Y-57064114D01*
X78837990Y-57024761D01*
X78828394Y-57019872D01*
X78777597Y-56971898D01*
X78760801Y-56904078D01*
X78783337Y-56837942D01*
X78828394Y-56798900D01*
X78837994Y-56794008D01*
X78892156Y-56754656D01*
X78892157Y-56754656D01*
X78259848Y-56122348D01*
X78323433Y-56105311D01*
X78437447Y-56039485D01*
X78530539Y-55946393D01*
X78596365Y-55832379D01*
X78613402Y-55768794D01*
X79245710Y-56401103D01*
X79245710Y-56401102D01*
X79285062Y-56346940D01*
X79381535Y-56157603D01*
X79447197Y-55955516D01*
X79447197Y-55955513D01*
X79474466Y-55783348D01*
X79504395Y-55720214D01*
X79563706Y-55683282D01*
X79633569Y-55684280D01*
G37*
G04 #@! TD.AperFunction*
G04 #@! TA.AperFunction,Conductor*
G36*
X27983968Y-55751880D02*
G01*
X28021714Y-55810676D01*
X28025194Y-55826157D01*
X28045682Y-55955513D01*
X28045682Y-55955516D01*
X28111344Y-56157603D01*
X28207815Y-56346936D01*
X28247168Y-56401102D01*
X28879477Y-55768794D01*
X28896515Y-55832379D01*
X28962341Y-55946393D01*
X29055433Y-56039485D01*
X29169447Y-56105311D01*
X29233031Y-56122348D01*
X28632411Y-56722967D01*
X28711151Y-56840281D01*
X28712360Y-56844115D01*
X28715284Y-56846877D01*
X28722783Y-56877164D01*
X28732167Y-56906915D01*
X28731111Y-56910794D01*
X28732078Y-56914698D01*
X28722013Y-56944230D01*
X28713823Y-56974333D01*
X28710837Y-56977026D01*
X28709540Y-56980833D01*
X28664491Y-57019869D01*
X28654880Y-57024766D01*
X28600722Y-57064113D01*
X28600722Y-57064114D01*
X29233031Y-57696423D01*
X29169447Y-57713461D01*
X29055433Y-57779287D01*
X28962341Y-57872379D01*
X28896515Y-57986393D01*
X28879477Y-58049977D01*
X28247168Y-57417668D01*
X28247167Y-57417668D01*
X28207820Y-57471825D01*
X28111344Y-57661168D01*
X28045682Y-57863255D01*
X28045682Y-57863258D01*
X28024196Y-57998912D01*
X27994266Y-58062047D01*
X27934955Y-58098978D01*
X27865092Y-58097980D01*
X27806860Y-58059370D01*
X27778746Y-57995406D01*
X27777723Y-57979464D01*
X27778721Y-55845496D01*
X27798437Y-55778467D01*
X27851262Y-55732737D01*
X27920425Y-55722825D01*
X27983968Y-55751880D01*
G37*
G04 #@! TD.AperFunction*
G04 #@! TA.AperFunction,Conductor*
G36*
X79633569Y-53144280D02*
G01*
X79691802Y-53182890D01*
X79719916Y-53246853D01*
X79720939Y-53262746D01*
X79720939Y-55476025D01*
X79701254Y-55543064D01*
X79648450Y-55588819D01*
X79579292Y-55598763D01*
X79515736Y-55569738D01*
X79477962Y-55510960D01*
X79474466Y-55495423D01*
X79447197Y-55323258D01*
X79447197Y-55323255D01*
X79381535Y-55121168D01*
X79285064Y-54931835D01*
X79245710Y-54877668D01*
X79245709Y-54877668D01*
X78613402Y-55509976D01*
X78596365Y-55446393D01*
X78530539Y-55332379D01*
X78437447Y-55239287D01*
X78323433Y-55173461D01*
X78259849Y-55156423D01*
X78892156Y-54524114D01*
X78837990Y-54484761D01*
X78828394Y-54479872D01*
X78777597Y-54431898D01*
X78760801Y-54364078D01*
X78783337Y-54297942D01*
X78828394Y-54258900D01*
X78837994Y-54254008D01*
X78892156Y-54214656D01*
X78892157Y-54214656D01*
X78259848Y-53582348D01*
X78323433Y-53565311D01*
X78437447Y-53499485D01*
X78530539Y-53406393D01*
X78596365Y-53292379D01*
X78613402Y-53228794D01*
X79245710Y-53861103D01*
X79245710Y-53861102D01*
X79285062Y-53806940D01*
X79381535Y-53617603D01*
X79447197Y-53415516D01*
X79447197Y-53415513D01*
X79474466Y-53243348D01*
X79504395Y-53180214D01*
X79563706Y-53143282D01*
X79633569Y-53144280D01*
G37*
G04 #@! TD.AperFunction*
G04 #@! TA.AperFunction,Conductor*
G36*
X27985150Y-53219355D02*
G01*
X28022897Y-53278151D01*
X28026377Y-53293631D01*
X28045682Y-53415515D01*
X28045682Y-53415516D01*
X28111344Y-53617603D01*
X28207815Y-53806936D01*
X28247168Y-53861102D01*
X28879477Y-53228794D01*
X28896515Y-53292379D01*
X28962341Y-53406393D01*
X29055433Y-53499485D01*
X29169447Y-53565311D01*
X29233031Y-53582348D01*
X28632411Y-54182967D01*
X28711151Y-54300281D01*
X28712360Y-54304115D01*
X28715284Y-54306877D01*
X28722783Y-54337164D01*
X28732167Y-54366915D01*
X28731111Y-54370794D01*
X28732078Y-54374698D01*
X28722013Y-54404230D01*
X28713823Y-54434333D01*
X28710837Y-54437026D01*
X28709540Y-54440833D01*
X28664491Y-54479869D01*
X28654880Y-54484766D01*
X28600722Y-54524113D01*
X28600722Y-54524114D01*
X29233031Y-55156423D01*
X29169447Y-55173461D01*
X29055433Y-55239287D01*
X28962341Y-55332379D01*
X28896515Y-55446393D01*
X28879477Y-55509977D01*
X28247168Y-54877668D01*
X28247167Y-54877668D01*
X28207820Y-54931825D01*
X28111344Y-55121168D01*
X28045682Y-55323255D01*
X28045682Y-55323258D01*
X28025387Y-55451393D01*
X27995458Y-55514528D01*
X27936146Y-55551459D01*
X27866283Y-55550461D01*
X27808051Y-55511851D01*
X27779937Y-55447887D01*
X27778914Y-55431937D01*
X27778965Y-55323255D01*
X27779904Y-53312968D01*
X27799620Y-53245942D01*
X27852445Y-53200212D01*
X27921608Y-53190300D01*
X27985150Y-53219355D01*
G37*
G04 #@! TD.AperFunction*
G04 #@! TA.AperFunction,Conductor*
G36*
X79687692Y-51449128D02*
G01*
X79718968Y-51511606D01*
X79720939Y-51533626D01*
X79720939Y-52936024D01*
X79701254Y-53003063D01*
X79648450Y-53048818D01*
X79579292Y-53058762D01*
X79515736Y-53029737D01*
X79477962Y-52970959D01*
X79474466Y-52955422D01*
X79447197Y-52783258D01*
X79447197Y-52783255D01*
X79381535Y-52581168D01*
X79285064Y-52391835D01*
X79245710Y-52337668D01*
X79245709Y-52337668D01*
X78613402Y-52969976D01*
X78596365Y-52906393D01*
X78530539Y-52792379D01*
X78437447Y-52699287D01*
X78323433Y-52633461D01*
X78259849Y-52616423D01*
X78929242Y-51947028D01*
X78990565Y-51913543D01*
X79005273Y-51914464D01*
X79004996Y-51911887D01*
X79087815Y-51902984D01*
X79222526Y-51852740D01*
X79222533Y-51852736D01*
X79337627Y-51766576D01*
X79337630Y-51766573D01*
X79423790Y-51651479D01*
X79423794Y-51651472D01*
X79474036Y-51516765D01*
X79475820Y-51509218D01*
X79478051Y-51509745D01*
X79500385Y-51455823D01*
X79557777Y-51415973D01*
X79627602Y-51413477D01*
X79687692Y-51449128D01*
G37*
G04 #@! TD.AperFunction*
G04 #@! TA.AperFunction,Conductor*
G36*
X27985967Y-51471948D02*
G01*
X28020903Y-51522289D01*
X28069086Y-51651474D01*
X28069089Y-51651479D01*
X28155249Y-51766573D01*
X28155252Y-51766576D01*
X28270346Y-51852736D01*
X28270353Y-51852740D01*
X28405060Y-51902982D01*
X28405059Y-51902982D01*
X28487884Y-51911887D01*
X28487556Y-51914936D01*
X28504454Y-51914028D01*
X28563636Y-51947028D01*
X29233031Y-52616423D01*
X29169447Y-52633461D01*
X29055433Y-52699287D01*
X28962341Y-52792379D01*
X28896515Y-52906393D01*
X28879477Y-52969977D01*
X28247168Y-52337668D01*
X28247167Y-52337668D01*
X28207820Y-52391825D01*
X28111344Y-52581168D01*
X28045682Y-52783255D01*
X28045682Y-52783258D01*
X28026578Y-52903874D01*
X27996649Y-52967009D01*
X27937337Y-53003940D01*
X27867474Y-53002942D01*
X27809242Y-52964332D01*
X27781128Y-52900368D01*
X27780105Y-52884418D01*
X27780148Y-52792379D01*
X27780721Y-51565562D01*
X27800437Y-51498535D01*
X27853262Y-51452805D01*
X27922425Y-51442893D01*
X27985967Y-51471948D01*
G37*
G04 #@! TD.AperFunction*
M02*
