M48
; DRILL file {KiCad 9.0.2} date 2025-09-01T17:39:12-0400
; FORMAT={-:-/ absolute / metric / decimal}
; #@! TF.CreationDate,2025-09-01T17:39:12-04:00
; #@! TF.GenerationSoftware,Kicad,Pcbnew,9.0.2
; #@! TF.FileFunction,Plated,1,2,PTH
FMAT,2
METRIC
; #@! TA.AperFunction,Plated,PTH,ViaDrill
T1C0.400
; #@! TA.AperFunction,Plated,PTH,ComponentDrill
T2C1.000
; #@! TA.AperFunction,Plated,PTH,ComponentDrill
T3C2.500
%
G90
G05
T1
X33.746Y-40.751
X33.746Y-50.751
X33.746Y-60.751
X33.746Y-70.751
X33.746Y-80.751
X43.746Y-80.751
X43.746Y-90.751
X48.746Y-60.751
X58.746Y-60.751
X63.746Y-80.751
X63.746Y-90.751
X73.746Y-40.751
X73.746Y-50.751
X73.746Y-60.751
X73.746Y-70.751
X73.746Y-80.751
T2
X29.362Y-50.559
X29.362Y-53.099
X29.362Y-55.639
X29.362Y-58.179
X49.936Y-86.227
X52.476Y-86.227
X55.016Y-86.227
X57.556Y-86.227
X78.13Y-50.559
X78.13Y-53.099
X78.13Y-55.639
X78.13Y-58.179
T3
X37.996Y-32.001
X43.746Y-48.251
X63.746Y-48.251
X69.496Y-32.001
M30
