M48
; DRILL file {KiCad 9.0.2} date 2025-09-19T15:39:05-0400
; FORMAT={-:-/ absolute / metric / decimal}
; #@! TF.CreationDate,2025-09-19T15:39:05-04:00
; #@! TF.GenerationSoftware,Kicad,Pcbnew,9.0.2
; #@! TF.FileFunction,Plated,1,2,PTH
FMAT,2
METRIC
; #@! TA.AperFunction,Plated,PTH,ViaDrill
T1C0.400
; #@! TA.AperFunction,Plated,PTH,ComponentDrill
T2C3.700
%
G90
G05
T1
X-32.6Y-96.6
X-2.6Y-91.6
X-2.6Y-111.6
X7.4Y-76.6
X7.4Y-121.6
X22.4Y-71.6
X22.4Y-131.6
X37.4Y-71.6
X37.4Y-131.6
X52.4Y-71.6
X52.4Y-81.6
X52.4Y-91.6
X52.4Y-101.6
X52.4Y-111.6
X52.4Y-121.6
X52.4Y-131.6
T2
X-17.847Y-101.574
X-2.85Y-134.1
X-2.847Y-69.074
X57.156Y-59.574
X57.4Y-143.6
M30
