G04 #@! TF.GenerationSoftware,KiCad,Pcbnew,9.0.2*
G04 #@! TF.CreationDate,2025-09-01T17:34:04-04:00*
G04 #@! TF.ProjectId,Trackball,54726163-6b62-4616-9c6c-2e6b69636164,rev?*
G04 #@! TF.SameCoordinates,Original*
G04 #@! TF.FileFunction,Soldermask,Top*
G04 #@! TF.FilePolarity,Negative*
%FSLAX46Y46*%
G04 Gerber Fmt 4.6, Leading zero omitted, Abs format (unit mm)*
G04 Created by KiCad (PCBNEW 9.0.2) date 2025-09-01 17:34:04*
%MOMM*%
%LPD*%
G01*
G04 APERTURE LIST*
G04 APERTURE END LIST*
G36*
X241589937Y-118840083D02*
G01*
X241753282Y-118907742D01*
X241900288Y-119005969D01*
X242025307Y-119130988D01*
X242123534Y-119277994D01*
X242191193Y-119441339D01*
X242225686Y-119614745D01*
X242225686Y-119791549D01*
X242191193Y-119964955D01*
X242123534Y-120128300D01*
X242025307Y-120275306D01*
X241900288Y-120400325D01*
X241753282Y-120498552D01*
X241589937Y-120566211D01*
X241416531Y-120600704D01*
X241239727Y-120600704D01*
X241066321Y-120566211D01*
X240902976Y-120498552D01*
X240755970Y-120400325D01*
X240630951Y-120275306D01*
X240532724Y-120128300D01*
X240465065Y-119964955D01*
X240430572Y-119791549D01*
X240430572Y-119614745D01*
X240465065Y-119441339D01*
X240532724Y-119277994D01*
X240630951Y-119130988D01*
X240755970Y-119005969D01*
X240902976Y-118907742D01*
X241066321Y-118840083D01*
X241239727Y-118805590D01*
X241416531Y-118805590D01*
X241589937Y-118840083D01*
G37*
G36*
X216077121Y-116905398D02*
G01*
X216093666Y-116916454D01*
X216104722Y-116932999D01*
X216108604Y-116952516D01*
X216108604Y-118652516D01*
X216104722Y-118672033D01*
X216093666Y-118688578D01*
X216077121Y-118699634D01*
X216057604Y-118703516D01*
X214357604Y-118703516D01*
X214338087Y-118699634D01*
X214321542Y-118688578D01*
X214310486Y-118672033D01*
X214306604Y-118652516D01*
X214306604Y-116952516D01*
X214310486Y-116932999D01*
X214321542Y-116916454D01*
X214338087Y-116905398D01*
X214357604Y-116901516D01*
X216057604Y-116901516D01*
X216077121Y-116905398D01*
G37*
G36*
X245561648Y-114082484D02*
G01*
X245784717Y-114142255D01*
X245998077Y-114230631D01*
X246198075Y-114346100D01*
X246381291Y-114486687D01*
X246544589Y-114649985D01*
X246685176Y-114833201D01*
X246800645Y-115033199D01*
X246889021Y-115246559D01*
X246948792Y-115469628D01*
X246978936Y-115698591D01*
X246978936Y-115929529D01*
X246948792Y-116158492D01*
X246889021Y-116381561D01*
X246800645Y-116594921D01*
X246685176Y-116794919D01*
X246544589Y-116978135D01*
X246381291Y-117141433D01*
X246198075Y-117282020D01*
X245998077Y-117397489D01*
X245784717Y-117485865D01*
X245561648Y-117545636D01*
X245332685Y-117575780D01*
X245101747Y-117575780D01*
X244872784Y-117545636D01*
X244649715Y-117485865D01*
X244436355Y-117397489D01*
X244236357Y-117282020D01*
X244053141Y-117141433D01*
X243889843Y-116978135D01*
X243749256Y-116794919D01*
X243633787Y-116594921D01*
X243545411Y-116381561D01*
X243485640Y-116158492D01*
X243455496Y-115929529D01*
X243455496Y-115698591D01*
X243485640Y-115469628D01*
X243545411Y-115246559D01*
X243633787Y-115033199D01*
X243749256Y-114833201D01*
X243889843Y-114649985D01*
X244053141Y-114486687D01*
X244236357Y-114346100D01*
X244436355Y-114230631D01*
X244649715Y-114142255D01*
X244872784Y-114082484D01*
X245101747Y-114052340D01*
X245332685Y-114052340D01*
X245561648Y-114082484D01*
G37*
G36*
X215469150Y-114400313D02*
G01*
X215632332Y-114467905D01*
X215779192Y-114566034D01*
X215904086Y-114690928D01*
X216002215Y-114837788D01*
X216069807Y-115000970D01*
X216104265Y-115174203D01*
X216104265Y-115350829D01*
X216069807Y-115524062D01*
X216002215Y-115687244D01*
X215904086Y-115834104D01*
X215779192Y-115958998D01*
X215632332Y-116057127D01*
X215469150Y-116124719D01*
X215295917Y-116159177D01*
X215119291Y-116159177D01*
X214946058Y-116124719D01*
X214782876Y-116057127D01*
X214636016Y-115958998D01*
X214511122Y-115834104D01*
X214412993Y-115687244D01*
X214345401Y-115524062D01*
X214310943Y-115350829D01*
X214310943Y-115174203D01*
X214345401Y-115000970D01*
X214412993Y-114837788D01*
X214511122Y-114690928D01*
X214636016Y-114566034D01*
X214782876Y-114467905D01*
X214946058Y-114400313D01*
X215119291Y-114365855D01*
X215295917Y-114365855D01*
X215469150Y-114400313D01*
G37*
G36*
X215469150Y-111860314D02*
G01*
X215632332Y-111927906D01*
X215779192Y-112026035D01*
X215904086Y-112150929D01*
X216002215Y-112297789D01*
X216069807Y-112460971D01*
X216104265Y-112634204D01*
X216104265Y-112810830D01*
X216069807Y-112984063D01*
X216002215Y-113147245D01*
X215904086Y-113294105D01*
X215779192Y-113418999D01*
X215632332Y-113517128D01*
X215469150Y-113584720D01*
X215295917Y-113619178D01*
X215119291Y-113619178D01*
X214946058Y-113584720D01*
X214782876Y-113517128D01*
X214636016Y-113418999D01*
X214511122Y-113294105D01*
X214412993Y-113147245D01*
X214345401Y-112984063D01*
X214310943Y-112810830D01*
X214310943Y-112634204D01*
X214345401Y-112460971D01*
X214412993Y-112297789D01*
X214511122Y-112150929D01*
X214636016Y-112026035D01*
X214782876Y-111927906D01*
X214946058Y-111860314D01*
X215119291Y-111825856D01*
X215295917Y-111825856D01*
X215469150Y-111860314D01*
G37*
G36*
X241120413Y-110060556D02*
G01*
X241131621Y-110060556D01*
X241186819Y-110069298D01*
X241312465Y-110085840D01*
X241343120Y-110094054D01*
X241372005Y-110098629D01*
X241427551Y-110116677D01*
X241508398Y-110138340D01*
X241559981Y-110159706D01*
X241603473Y-110173838D01*
X241644217Y-110194598D01*
X241695801Y-110215965D01*
X241768284Y-110257813D01*
X241820326Y-110284330D01*
X241843986Y-110301520D01*
X241871470Y-110317388D01*
X241972005Y-110394531D01*
X242017225Y-110427385D01*
X242025150Y-110435310D01*
X242032397Y-110440871D01*
X242175834Y-110584308D01*
X242181394Y-110591554D01*
X242189321Y-110599481D01*
X242222178Y-110644705D01*
X242299317Y-110745235D01*
X242315183Y-110772716D01*
X242332376Y-110796380D01*
X242358895Y-110848427D01*
X242400740Y-110920904D01*
X242422104Y-110972481D01*
X242442868Y-111013233D01*
X242457001Y-111056730D01*
X242478365Y-111108307D01*
X242500024Y-111189141D01*
X242518077Y-111244701D01*
X242522652Y-111273591D01*
X242530865Y-111304240D01*
X242547405Y-111429874D01*
X242556150Y-111485085D01*
X242556150Y-111496293D01*
X242557343Y-111505355D01*
X242557343Y-111708194D01*
X242556150Y-111717255D01*
X242556150Y-111728465D01*
X242547404Y-111783680D01*
X242530865Y-111909309D01*
X242522653Y-111939955D01*
X242518077Y-111968849D01*
X242500022Y-112024413D01*
X242478365Y-112105242D01*
X242457002Y-112156814D01*
X242442868Y-112200317D01*
X242422102Y-112241072D01*
X242400740Y-112292645D01*
X242358899Y-112365113D01*
X242332376Y-112417170D01*
X242315180Y-112440837D01*
X242299317Y-112468314D01*
X242222192Y-112568825D01*
X242189321Y-112614069D01*
X242181390Y-112621999D01*
X242175834Y-112629241D01*
X242032397Y-112772678D01*
X242025155Y-112778234D01*
X242017225Y-112786165D01*
X241971981Y-112819036D01*
X241871470Y-112896161D01*
X241843993Y-112912024D01*
X241820326Y-112929220D01*
X241768269Y-112955743D01*
X241695801Y-112997584D01*
X241644228Y-113018946D01*
X241603473Y-113039712D01*
X241559970Y-113053846D01*
X241508398Y-113075209D01*
X241427569Y-113096866D01*
X241372005Y-113114921D01*
X241343111Y-113119497D01*
X241312465Y-113127709D01*
X241186833Y-113144249D01*
X241131621Y-113152994D01*
X241120412Y-113152994D01*
X241111351Y-113154187D01*
X240908511Y-113154187D01*
X240899450Y-113152994D01*
X240888241Y-113152994D01*
X240833030Y-113144249D01*
X240707396Y-113127709D01*
X240676747Y-113119496D01*
X240647857Y-113114921D01*
X240592297Y-113096868D01*
X240511463Y-113075209D01*
X240459886Y-113053845D01*
X240416389Y-113039712D01*
X240375637Y-113018948D01*
X240324060Y-112997584D01*
X240251583Y-112955739D01*
X240199536Y-112929220D01*
X240175872Y-112912027D01*
X240148391Y-112896161D01*
X240047861Y-112819022D01*
X240002637Y-112786165D01*
X239994710Y-112778238D01*
X239987464Y-112772678D01*
X239844027Y-112629241D01*
X239838466Y-112621994D01*
X239830541Y-112614069D01*
X239797687Y-112568849D01*
X239720544Y-112468314D01*
X239704676Y-112440830D01*
X239687486Y-112417170D01*
X239660969Y-112365128D01*
X239619121Y-112292645D01*
X239597754Y-112241061D01*
X239576994Y-112200317D01*
X239562862Y-112156825D01*
X239541496Y-112105242D01*
X239519833Y-112024395D01*
X239501785Y-111968849D01*
X239497210Y-111939964D01*
X239488996Y-111909309D01*
X239472455Y-111783666D01*
X239463712Y-111728465D01*
X239463712Y-111717255D01*
X239462519Y-111708194D01*
X239462519Y-111505355D01*
X239463712Y-111496293D01*
X239463712Y-111485085D01*
X239472454Y-111429888D01*
X239488996Y-111304240D01*
X239497210Y-111273582D01*
X239501785Y-111244701D01*
X239519831Y-111189158D01*
X239541496Y-111108307D01*
X239562864Y-111056719D01*
X239576994Y-111013233D01*
X239597752Y-110972492D01*
X239619121Y-110920904D01*
X239660973Y-110848412D01*
X239687486Y-110796380D01*
X239704673Y-110772723D01*
X239720544Y-110745235D01*
X239797701Y-110644681D01*
X239830541Y-110599481D01*
X239838463Y-110591558D01*
X239844027Y-110584308D01*
X239987464Y-110440871D01*
X239994714Y-110435307D01*
X240002637Y-110427385D01*
X240047837Y-110394545D01*
X240148391Y-110317388D01*
X240175879Y-110301517D01*
X240199536Y-110284330D01*
X240251568Y-110257817D01*
X240324060Y-110215965D01*
X240375648Y-110194596D01*
X240416389Y-110173838D01*
X240459875Y-110159708D01*
X240511463Y-110138340D01*
X240592314Y-110116675D01*
X240647857Y-110098629D01*
X240676738Y-110094054D01*
X240707396Y-110085840D01*
X240833044Y-110069298D01*
X240888241Y-110060556D01*
X240899449Y-110060556D01*
X240908511Y-110059363D01*
X241111351Y-110059363D01*
X241120413Y-110060556D01*
G37*
G36*
X249368111Y-111061909D02*
G01*
X249531456Y-111129568D01*
X249678462Y-111227795D01*
X249803481Y-111352814D01*
X249901708Y-111499820D01*
X249969367Y-111663165D01*
X250003860Y-111836571D01*
X250003860Y-112013375D01*
X249969367Y-112186781D01*
X249901708Y-112350126D01*
X249803481Y-112497132D01*
X249678462Y-112622151D01*
X249531456Y-112720378D01*
X249368111Y-112788037D01*
X249194705Y-112822530D01*
X249017901Y-112822530D01*
X248844495Y-112788037D01*
X248681150Y-112720378D01*
X248534144Y-112622151D01*
X248409125Y-112497132D01*
X248310898Y-112350126D01*
X248243239Y-112186781D01*
X248208746Y-112013375D01*
X248208746Y-111836571D01*
X248243239Y-111663165D01*
X248310898Y-111499820D01*
X248409125Y-111352814D01*
X248534144Y-111227795D01*
X248681150Y-111129568D01*
X248844495Y-111061909D01*
X249017901Y-111027416D01*
X249194705Y-111027416D01*
X249368111Y-111061909D01*
G37*
G36*
X246211581Y-108080657D02*
G01*
X246222789Y-108080657D01*
X246277987Y-108089399D01*
X246403633Y-108105941D01*
X246434288Y-108114155D01*
X246463173Y-108118730D01*
X246518719Y-108136778D01*
X246599566Y-108158441D01*
X246651149Y-108179807D01*
X246694641Y-108193939D01*
X246735385Y-108214699D01*
X246786969Y-108236066D01*
X246859452Y-108277914D01*
X246911494Y-108304431D01*
X246935154Y-108321621D01*
X246962638Y-108337489D01*
X247063173Y-108414632D01*
X247108393Y-108447486D01*
X247116318Y-108455411D01*
X247123565Y-108460972D01*
X247267002Y-108604409D01*
X247272562Y-108611655D01*
X247280489Y-108619582D01*
X247313346Y-108664806D01*
X247390485Y-108765336D01*
X247406351Y-108792817D01*
X247423544Y-108816481D01*
X247450063Y-108868528D01*
X247491908Y-108941005D01*
X247513272Y-108992582D01*
X247534036Y-109033334D01*
X247548169Y-109076831D01*
X247569533Y-109128408D01*
X247591192Y-109209242D01*
X247609245Y-109264802D01*
X247613820Y-109293692D01*
X247622033Y-109324341D01*
X247638573Y-109449975D01*
X247647318Y-109505186D01*
X247647318Y-109516394D01*
X247648511Y-109525456D01*
X247648511Y-109728295D01*
X247647318Y-109737356D01*
X247647318Y-109748566D01*
X247638572Y-109803781D01*
X247622033Y-109929410D01*
X247613821Y-109960056D01*
X247609245Y-109988950D01*
X247591190Y-110044514D01*
X247569533Y-110125343D01*
X247548170Y-110176915D01*
X247534036Y-110220418D01*
X247513270Y-110261173D01*
X247491908Y-110312746D01*
X247450067Y-110385214D01*
X247423544Y-110437271D01*
X247406348Y-110460938D01*
X247390485Y-110488415D01*
X247313360Y-110588926D01*
X247280489Y-110634170D01*
X247272558Y-110642100D01*
X247267002Y-110649342D01*
X247123565Y-110792779D01*
X247116323Y-110798335D01*
X247108393Y-110806266D01*
X247063149Y-110839137D01*
X246962638Y-110916262D01*
X246935161Y-110932125D01*
X246911494Y-110949321D01*
X246859437Y-110975844D01*
X246786969Y-111017685D01*
X246735396Y-111039047D01*
X246694641Y-111059813D01*
X246651138Y-111073947D01*
X246599566Y-111095310D01*
X246518737Y-111116967D01*
X246463173Y-111135022D01*
X246434279Y-111139598D01*
X246403633Y-111147810D01*
X246278001Y-111164350D01*
X246222789Y-111173095D01*
X246211580Y-111173095D01*
X246202519Y-111174288D01*
X245999679Y-111174288D01*
X245990618Y-111173095D01*
X245979409Y-111173095D01*
X245924198Y-111164350D01*
X245798564Y-111147810D01*
X245767915Y-111139597D01*
X245739025Y-111135022D01*
X245683465Y-111116969D01*
X245602631Y-111095310D01*
X245551054Y-111073946D01*
X245507557Y-111059813D01*
X245466805Y-111039049D01*
X245415228Y-111017685D01*
X245342751Y-110975840D01*
X245290704Y-110949321D01*
X245267040Y-110932128D01*
X245239559Y-110916262D01*
X245139029Y-110839123D01*
X245093805Y-110806266D01*
X245085878Y-110798339D01*
X245078632Y-110792779D01*
X244935195Y-110649342D01*
X244929634Y-110642095D01*
X244921709Y-110634170D01*
X244888855Y-110588950D01*
X244811712Y-110488415D01*
X244795844Y-110460931D01*
X244778654Y-110437271D01*
X244752137Y-110385229D01*
X244710289Y-110312746D01*
X244688922Y-110261162D01*
X244668162Y-110220418D01*
X244654030Y-110176926D01*
X244632664Y-110125343D01*
X244611001Y-110044496D01*
X244592953Y-109988950D01*
X244588378Y-109960065D01*
X244580164Y-109929410D01*
X244563623Y-109803767D01*
X244554880Y-109748566D01*
X244554880Y-109737356D01*
X244553687Y-109728295D01*
X244553687Y-109525456D01*
X244554880Y-109516394D01*
X244554880Y-109505186D01*
X244563622Y-109449989D01*
X244580164Y-109324341D01*
X244588378Y-109293683D01*
X244592953Y-109264802D01*
X244610999Y-109209259D01*
X244632664Y-109128408D01*
X244654032Y-109076820D01*
X244668162Y-109033334D01*
X244688920Y-108992593D01*
X244710289Y-108941005D01*
X244752141Y-108868513D01*
X244778654Y-108816481D01*
X244795841Y-108792824D01*
X244811712Y-108765336D01*
X244888869Y-108664782D01*
X244921709Y-108619582D01*
X244929631Y-108611659D01*
X244935195Y-108604409D01*
X245078632Y-108460972D01*
X245085882Y-108455408D01*
X245093805Y-108447486D01*
X245139005Y-108414646D01*
X245239559Y-108337489D01*
X245267047Y-108321618D01*
X245290704Y-108304431D01*
X245342736Y-108277918D01*
X245415228Y-108236066D01*
X245466816Y-108214697D01*
X245507557Y-108193939D01*
X245551043Y-108179809D01*
X245602631Y-108158441D01*
X245683482Y-108136776D01*
X245739025Y-108118730D01*
X245767906Y-108114155D01*
X245798564Y-108105941D01*
X245924212Y-108089399D01*
X245979409Y-108080657D01*
X245990617Y-108080657D01*
X245999679Y-108079464D01*
X246202519Y-108079464D01*
X246211581Y-108080657D01*
G37*
G36*
X215469150Y-109320313D02*
G01*
X215632332Y-109387905D01*
X215779192Y-109486034D01*
X215904086Y-109610928D01*
X216002215Y-109757788D01*
X216069807Y-109920970D01*
X216104265Y-110094203D01*
X216104265Y-110270829D01*
X216069807Y-110444062D01*
X216002215Y-110607244D01*
X215904086Y-110754104D01*
X215779192Y-110878998D01*
X215632332Y-110977127D01*
X215469150Y-111044719D01*
X215295917Y-111079177D01*
X215119291Y-111079177D01*
X214946058Y-111044719D01*
X214782876Y-110977127D01*
X214636016Y-110878998D01*
X214511122Y-110754104D01*
X214412993Y-110607244D01*
X214345401Y-110444062D01*
X214310943Y-110270829D01*
X214310943Y-110094203D01*
X214345401Y-109920970D01*
X214412993Y-109757788D01*
X214511122Y-109610928D01*
X214636016Y-109486034D01*
X214782876Y-109387905D01*
X214946058Y-109320313D01*
X215119291Y-109285855D01*
X215295917Y-109285855D01*
X215469150Y-109320313D01*
G37*
G36*
X187873900Y-106015903D02*
G01*
X188152799Y-106079560D01*
X188422817Y-106174043D01*
X188680559Y-106298165D01*
X188922782Y-106450364D01*
X189146442Y-106628727D01*
X189348725Y-106831010D01*
X189527088Y-107054670D01*
X189679287Y-107296893D01*
X189803409Y-107554635D01*
X189897892Y-107824653D01*
X189961549Y-108103552D01*
X189993579Y-108387824D01*
X189993579Y-108673896D01*
X189961549Y-108958168D01*
X189897892Y-109237067D01*
X189803409Y-109507085D01*
X189679287Y-109764827D01*
X189527088Y-110007050D01*
X189348725Y-110230710D01*
X189146442Y-110432993D01*
X188922782Y-110611356D01*
X188680559Y-110763555D01*
X188422817Y-110887677D01*
X188152799Y-110982160D01*
X187873900Y-111045817D01*
X187589628Y-111077847D01*
X187303556Y-111077847D01*
X187019284Y-111045817D01*
X186740385Y-110982160D01*
X186470367Y-110887677D01*
X186212625Y-110763555D01*
X185970402Y-110611356D01*
X185746742Y-110432993D01*
X185544459Y-110230710D01*
X185366096Y-110007050D01*
X185213897Y-109764827D01*
X185089775Y-109507085D01*
X184995292Y-109237067D01*
X184931635Y-108958168D01*
X184899605Y-108673896D01*
X184899605Y-108387824D01*
X184931635Y-108103552D01*
X184995292Y-107824653D01*
X185089775Y-107554635D01*
X185213897Y-107296893D01*
X185366096Y-107054670D01*
X185544459Y-106831010D01*
X185746742Y-106628727D01*
X185970402Y-106450364D01*
X186212625Y-106298165D01*
X186470367Y-106174043D01*
X186740385Y-106079560D01*
X187019284Y-106015903D01*
X187303556Y-105983873D01*
X187589628Y-105983873D01*
X187873900Y-106015903D01*
G37*
G36*
X247671055Y-98616829D02*
G01*
X247834400Y-98684488D01*
X247981406Y-98782715D01*
X248106425Y-98907734D01*
X248204652Y-99054740D01*
X248272311Y-99218085D01*
X248306804Y-99391491D01*
X248306804Y-99568295D01*
X248272311Y-99741701D01*
X248204652Y-99905046D01*
X248106425Y-100052052D01*
X247981406Y-100177071D01*
X247834400Y-100275298D01*
X247671055Y-100342957D01*
X247497649Y-100377450D01*
X247320845Y-100377450D01*
X247147439Y-100342957D01*
X246984094Y-100275298D01*
X246837088Y-100177071D01*
X246712069Y-100052052D01*
X246613842Y-99905046D01*
X246546183Y-99741701D01*
X246511690Y-99568295D01*
X246511690Y-99391491D01*
X246546183Y-99218085D01*
X246613842Y-99054740D01*
X246712069Y-98907734D01*
X246837088Y-98782715D01*
X246984094Y-98684488D01*
X247147439Y-98616829D01*
X247320845Y-98582336D01*
X247497649Y-98582336D01*
X247671055Y-98616829D01*
G37*
G36*
X251642766Y-93859230D02*
G01*
X251865835Y-93919001D01*
X252079195Y-94007377D01*
X252279193Y-94122846D01*
X252462409Y-94263433D01*
X252625707Y-94426731D01*
X252766294Y-94609947D01*
X252881763Y-94809945D01*
X252970139Y-95023305D01*
X253029910Y-95246374D01*
X253060054Y-95475337D01*
X253060054Y-95706275D01*
X253029910Y-95935238D01*
X252970139Y-96158307D01*
X252881763Y-96371667D01*
X252766294Y-96571665D01*
X252625707Y-96754881D01*
X252462409Y-96918179D01*
X252279193Y-97058766D01*
X252079195Y-97174235D01*
X251865835Y-97262611D01*
X251642766Y-97322382D01*
X251413803Y-97352526D01*
X251182865Y-97352526D01*
X250953902Y-97322382D01*
X250730833Y-97262611D01*
X250517473Y-97174235D01*
X250317475Y-97058766D01*
X250134259Y-96918179D01*
X249970961Y-96754881D01*
X249830374Y-96571665D01*
X249714905Y-96371667D01*
X249626529Y-96158307D01*
X249566758Y-95935238D01*
X249536614Y-95706275D01*
X249536614Y-95475337D01*
X249566758Y-95246374D01*
X249626529Y-95023305D01*
X249714905Y-94809945D01*
X249830374Y-94609947D01*
X249970961Y-94426731D01*
X250134259Y-94263433D01*
X250317475Y-94122846D01*
X250517473Y-94007377D01*
X250730833Y-93919001D01*
X250953902Y-93859230D01*
X251182865Y-93829086D01*
X251413803Y-93829086D01*
X251642766Y-93859230D01*
G37*
G36*
X247201531Y-89837302D02*
G01*
X247212739Y-89837302D01*
X247267937Y-89846044D01*
X247393583Y-89862586D01*
X247424238Y-89870800D01*
X247453123Y-89875375D01*
X247508669Y-89893423D01*
X247589516Y-89915086D01*
X247641099Y-89936452D01*
X247684591Y-89950584D01*
X247725335Y-89971344D01*
X247776919Y-89992711D01*
X247849402Y-90034559D01*
X247901444Y-90061076D01*
X247925104Y-90078266D01*
X247952588Y-90094134D01*
X248053123Y-90171277D01*
X248098343Y-90204131D01*
X248106268Y-90212056D01*
X248113515Y-90217617D01*
X248256952Y-90361054D01*
X248262512Y-90368300D01*
X248270439Y-90376227D01*
X248303296Y-90421451D01*
X248380435Y-90521981D01*
X248396301Y-90549462D01*
X248413494Y-90573126D01*
X248440013Y-90625173D01*
X248481858Y-90697650D01*
X248503222Y-90749227D01*
X248523986Y-90789979D01*
X248538119Y-90833476D01*
X248559483Y-90885053D01*
X248581142Y-90965887D01*
X248599195Y-91021447D01*
X248603770Y-91050337D01*
X248611983Y-91080986D01*
X248628523Y-91206620D01*
X248637268Y-91261831D01*
X248637268Y-91273039D01*
X248638461Y-91282101D01*
X248638461Y-91484940D01*
X248637268Y-91494001D01*
X248637268Y-91505211D01*
X248628522Y-91560426D01*
X248611983Y-91686055D01*
X248603771Y-91716701D01*
X248599195Y-91745595D01*
X248581140Y-91801159D01*
X248559483Y-91881988D01*
X248538120Y-91933560D01*
X248523986Y-91977063D01*
X248503220Y-92017818D01*
X248481858Y-92069391D01*
X248440017Y-92141859D01*
X248413494Y-92193916D01*
X248396298Y-92217583D01*
X248380435Y-92245060D01*
X248303310Y-92345571D01*
X248270439Y-92390815D01*
X248262508Y-92398745D01*
X248256952Y-92405987D01*
X248113515Y-92549424D01*
X248106273Y-92554980D01*
X248098343Y-92562911D01*
X248053099Y-92595782D01*
X247952588Y-92672907D01*
X247925111Y-92688770D01*
X247901444Y-92705966D01*
X247849387Y-92732489D01*
X247776919Y-92774330D01*
X247725346Y-92795692D01*
X247684591Y-92816458D01*
X247641088Y-92830592D01*
X247589516Y-92851955D01*
X247508687Y-92873612D01*
X247453123Y-92891667D01*
X247424229Y-92896243D01*
X247393583Y-92904455D01*
X247267951Y-92920995D01*
X247212739Y-92929740D01*
X247201530Y-92929740D01*
X247192469Y-92930933D01*
X246989629Y-92930933D01*
X246980568Y-92929740D01*
X246969359Y-92929740D01*
X246914148Y-92920995D01*
X246788514Y-92904455D01*
X246757865Y-92896242D01*
X246728975Y-92891667D01*
X246673415Y-92873614D01*
X246592581Y-92851955D01*
X246541004Y-92830591D01*
X246497507Y-92816458D01*
X246456755Y-92795694D01*
X246405178Y-92774330D01*
X246332701Y-92732485D01*
X246280654Y-92705966D01*
X246256990Y-92688773D01*
X246229509Y-92672907D01*
X246128979Y-92595768D01*
X246083755Y-92562911D01*
X246075828Y-92554984D01*
X246068582Y-92549424D01*
X245925145Y-92405987D01*
X245919584Y-92398740D01*
X245911659Y-92390815D01*
X245878805Y-92345595D01*
X245801662Y-92245060D01*
X245785794Y-92217576D01*
X245768604Y-92193916D01*
X245742087Y-92141874D01*
X245700239Y-92069391D01*
X245678872Y-92017807D01*
X245658112Y-91977063D01*
X245643980Y-91933571D01*
X245622614Y-91881988D01*
X245600951Y-91801141D01*
X245582903Y-91745595D01*
X245578328Y-91716710D01*
X245570114Y-91686055D01*
X245553573Y-91560412D01*
X245544830Y-91505211D01*
X245544830Y-91494001D01*
X245543637Y-91484940D01*
X245543637Y-91282101D01*
X245544830Y-91273039D01*
X245544830Y-91261831D01*
X245553572Y-91206634D01*
X245570114Y-91080986D01*
X245578328Y-91050328D01*
X245582903Y-91021447D01*
X245600949Y-90965904D01*
X245622614Y-90885053D01*
X245643982Y-90833465D01*
X245658112Y-90789979D01*
X245678870Y-90749238D01*
X245700239Y-90697650D01*
X245742091Y-90625158D01*
X245768604Y-90573126D01*
X245785791Y-90549469D01*
X245801662Y-90521981D01*
X245878819Y-90421427D01*
X245911659Y-90376227D01*
X245919581Y-90368304D01*
X245925145Y-90361054D01*
X246068582Y-90217617D01*
X246075832Y-90212053D01*
X246083755Y-90204131D01*
X246128955Y-90171291D01*
X246229509Y-90094134D01*
X246256997Y-90078263D01*
X246280654Y-90061076D01*
X246332686Y-90034563D01*
X246405178Y-89992711D01*
X246456766Y-89971342D01*
X246497507Y-89950584D01*
X246540993Y-89936454D01*
X246592581Y-89915086D01*
X246673432Y-89893421D01*
X246728975Y-89875375D01*
X246757856Y-89870800D01*
X246788514Y-89862586D01*
X246914162Y-89846044D01*
X246969359Y-89837302D01*
X246980567Y-89837302D01*
X246989629Y-89836109D01*
X247192469Y-89836109D01*
X247201531Y-89837302D01*
G37*
G36*
X255449229Y-90838655D02*
G01*
X255612574Y-90906314D01*
X255759580Y-91004541D01*
X255884599Y-91129560D01*
X255982826Y-91276566D01*
X256050485Y-91439911D01*
X256084978Y-91613317D01*
X256084978Y-91790121D01*
X256050485Y-91963527D01*
X255982826Y-92126872D01*
X255884599Y-92273878D01*
X255759580Y-92398897D01*
X255612574Y-92497124D01*
X255449229Y-92564783D01*
X255275823Y-92599276D01*
X255099019Y-92599276D01*
X254925613Y-92564783D01*
X254762268Y-92497124D01*
X254615262Y-92398897D01*
X254490243Y-92273878D01*
X254392016Y-92126872D01*
X254324357Y-91963527D01*
X254289864Y-91790121D01*
X254289864Y-91613317D01*
X254324357Y-91439911D01*
X254392016Y-91276566D01*
X254490243Y-91129560D01*
X254615262Y-91004541D01*
X254762268Y-90906314D01*
X254925613Y-90838655D01*
X255099019Y-90804162D01*
X255275823Y-90804162D01*
X255449229Y-90838655D01*
G37*
G36*
X252292699Y-87857403D02*
G01*
X252303907Y-87857403D01*
X252359105Y-87866145D01*
X252484751Y-87882687D01*
X252515406Y-87890901D01*
X252544291Y-87895476D01*
X252599837Y-87913524D01*
X252680684Y-87935187D01*
X252732267Y-87956553D01*
X252775759Y-87970685D01*
X252816503Y-87991445D01*
X252868087Y-88012812D01*
X252940570Y-88054660D01*
X252992612Y-88081177D01*
X253016272Y-88098367D01*
X253043756Y-88114235D01*
X253144291Y-88191378D01*
X253189511Y-88224232D01*
X253197436Y-88232157D01*
X253204683Y-88237718D01*
X253348120Y-88381155D01*
X253353680Y-88388401D01*
X253361607Y-88396328D01*
X253394464Y-88441552D01*
X253471603Y-88542082D01*
X253487469Y-88569563D01*
X253504662Y-88593227D01*
X253531181Y-88645274D01*
X253573026Y-88717751D01*
X253594390Y-88769328D01*
X253615154Y-88810080D01*
X253629287Y-88853577D01*
X253650651Y-88905154D01*
X253672310Y-88985988D01*
X253690363Y-89041548D01*
X253694938Y-89070438D01*
X253703151Y-89101087D01*
X253719691Y-89226721D01*
X253728436Y-89281932D01*
X253728436Y-89293140D01*
X253729629Y-89302202D01*
X253729629Y-89505041D01*
X253728436Y-89514102D01*
X253728436Y-89525312D01*
X253719690Y-89580527D01*
X253703151Y-89706156D01*
X253694939Y-89736802D01*
X253690363Y-89765696D01*
X253672308Y-89821260D01*
X253650651Y-89902089D01*
X253629288Y-89953661D01*
X253615154Y-89997164D01*
X253594388Y-90037919D01*
X253573026Y-90089492D01*
X253531185Y-90161960D01*
X253504662Y-90214017D01*
X253487466Y-90237684D01*
X253471603Y-90265161D01*
X253394478Y-90365672D01*
X253361607Y-90410916D01*
X253353676Y-90418846D01*
X253348120Y-90426088D01*
X253204683Y-90569525D01*
X253197441Y-90575081D01*
X253189511Y-90583012D01*
X253144267Y-90615883D01*
X253043756Y-90693008D01*
X253016279Y-90708871D01*
X252992612Y-90726067D01*
X252940555Y-90752590D01*
X252868087Y-90794431D01*
X252816514Y-90815793D01*
X252775759Y-90836559D01*
X252732256Y-90850693D01*
X252680684Y-90872056D01*
X252599855Y-90893713D01*
X252544291Y-90911768D01*
X252515397Y-90916344D01*
X252484751Y-90924556D01*
X252359119Y-90941096D01*
X252303907Y-90949841D01*
X252292698Y-90949841D01*
X252283637Y-90951034D01*
X252080797Y-90951034D01*
X252071736Y-90949841D01*
X252060527Y-90949841D01*
X252005316Y-90941096D01*
X251879682Y-90924556D01*
X251849033Y-90916343D01*
X251820143Y-90911768D01*
X251764583Y-90893715D01*
X251683749Y-90872056D01*
X251632172Y-90850692D01*
X251588675Y-90836559D01*
X251547923Y-90815795D01*
X251496346Y-90794431D01*
X251423869Y-90752586D01*
X251371822Y-90726067D01*
X251348158Y-90708874D01*
X251320677Y-90693008D01*
X251220147Y-90615869D01*
X251174923Y-90583012D01*
X251166996Y-90575085D01*
X251159750Y-90569525D01*
X251016313Y-90426088D01*
X251010752Y-90418841D01*
X251002827Y-90410916D01*
X250969973Y-90365696D01*
X250892830Y-90265161D01*
X250876962Y-90237677D01*
X250859772Y-90214017D01*
X250833255Y-90161975D01*
X250791407Y-90089492D01*
X250770040Y-90037908D01*
X250749280Y-89997164D01*
X250735148Y-89953672D01*
X250713782Y-89902089D01*
X250692119Y-89821242D01*
X250674071Y-89765696D01*
X250669496Y-89736811D01*
X250661282Y-89706156D01*
X250644741Y-89580513D01*
X250635998Y-89525312D01*
X250635998Y-89514102D01*
X250634805Y-89505041D01*
X250634805Y-89302202D01*
X250635998Y-89293140D01*
X250635998Y-89281932D01*
X250644740Y-89226735D01*
X250661282Y-89101087D01*
X250669496Y-89070429D01*
X250674071Y-89041548D01*
X250692117Y-88986005D01*
X250713782Y-88905154D01*
X250735150Y-88853566D01*
X250749280Y-88810080D01*
X250770038Y-88769339D01*
X250791407Y-88717751D01*
X250833259Y-88645259D01*
X250859772Y-88593227D01*
X250876959Y-88569570D01*
X250892830Y-88542082D01*
X250969987Y-88441528D01*
X251002827Y-88396328D01*
X251010749Y-88388405D01*
X251016313Y-88381155D01*
X251159750Y-88237718D01*
X251167000Y-88232154D01*
X251174923Y-88224232D01*
X251220123Y-88191392D01*
X251320677Y-88114235D01*
X251348165Y-88098364D01*
X251371822Y-88081177D01*
X251423854Y-88054664D01*
X251496346Y-88012812D01*
X251547934Y-87991443D01*
X251588675Y-87970685D01*
X251632161Y-87956555D01*
X251683749Y-87935187D01*
X251764600Y-87913522D01*
X251820143Y-87895476D01*
X251849024Y-87890901D01*
X251879682Y-87882687D01*
X252005330Y-87866145D01*
X252060527Y-87857403D01*
X252071735Y-87857403D01*
X252080797Y-87856210D01*
X252283637Y-87856210D01*
X252292699Y-87857403D01*
G37*
G36*
X241329459Y-88531519D02*
G01*
X241492641Y-88599111D01*
X241639501Y-88697240D01*
X241764395Y-88822134D01*
X241862524Y-88968994D01*
X241930116Y-89132176D01*
X241964574Y-89305409D01*
X241964574Y-89482035D01*
X241930116Y-89655268D01*
X241862524Y-89818450D01*
X241764395Y-89965310D01*
X241639501Y-90090204D01*
X241492641Y-90188333D01*
X241329459Y-90255925D01*
X241156226Y-90290383D01*
X240979600Y-90290383D01*
X240806367Y-90255925D01*
X240643185Y-90188333D01*
X240496325Y-90090204D01*
X240371431Y-89965310D01*
X240273302Y-89818450D01*
X240205710Y-89655268D01*
X240171252Y-89482035D01*
X240171252Y-89305409D01*
X240205710Y-89132176D01*
X240273302Y-88968994D01*
X240371431Y-88822134D01*
X240496325Y-88697240D01*
X240643185Y-88599111D01*
X240806367Y-88531519D01*
X240979600Y-88497061D01*
X241156226Y-88497061D01*
X241329459Y-88531519D01*
G37*
G36*
X243125511Y-86735467D02*
G01*
X243288693Y-86803059D01*
X243435553Y-86901188D01*
X243560447Y-87026082D01*
X243658576Y-87172942D01*
X243726168Y-87336124D01*
X243760626Y-87509357D01*
X243760626Y-87685983D01*
X243726168Y-87859216D01*
X243658576Y-88022398D01*
X243560447Y-88169258D01*
X243435553Y-88294152D01*
X243288693Y-88392281D01*
X243125511Y-88459873D01*
X242952278Y-88494331D01*
X242775652Y-88494331D01*
X242602419Y-88459873D01*
X242439237Y-88392281D01*
X242292377Y-88294152D01*
X242167483Y-88169258D01*
X242069354Y-88022398D01*
X242001762Y-87859216D01*
X241967304Y-87685983D01*
X241967304Y-87509357D01*
X242001762Y-87336124D01*
X242069354Y-87172942D01*
X242167483Y-87026082D01*
X242292377Y-86901188D01*
X242439237Y-86803059D01*
X242602419Y-86735467D01*
X242775652Y-86701009D01*
X242952278Y-86701009D01*
X243125511Y-86735467D01*
G37*
G36*
X244921562Y-84939416D02*
G01*
X245084744Y-85007008D01*
X245231604Y-85105137D01*
X245356498Y-85230031D01*
X245454627Y-85376891D01*
X245522219Y-85540073D01*
X245556677Y-85713306D01*
X245556677Y-85889932D01*
X245522219Y-86063165D01*
X245454627Y-86226347D01*
X245356498Y-86373207D01*
X245231604Y-86498101D01*
X245084744Y-86596230D01*
X244921562Y-86663822D01*
X244748329Y-86698280D01*
X244571703Y-86698280D01*
X244398470Y-86663822D01*
X244235288Y-86596230D01*
X244088428Y-86498101D01*
X243963534Y-86373207D01*
X243865405Y-86226347D01*
X243797813Y-86063165D01*
X243763355Y-85889932D01*
X243763355Y-85713306D01*
X243797813Y-85540073D01*
X243865405Y-85376891D01*
X243963534Y-85230031D01*
X244088428Y-85105137D01*
X244235288Y-85007008D01*
X244398470Y-84939416D01*
X244571703Y-84904958D01*
X244748329Y-84904958D01*
X244921562Y-84939416D01*
G37*
G36*
X246475584Y-82756368D02*
G01*
X246492129Y-82767424D01*
X247694211Y-83969506D01*
X247705267Y-83986051D01*
X247709148Y-84005568D01*
X247705267Y-84025085D01*
X247694211Y-84041630D01*
X246492129Y-85243712D01*
X246475584Y-85254768D01*
X246456067Y-85258649D01*
X246436550Y-85254768D01*
X246420005Y-85243712D01*
X245217923Y-84041630D01*
X245206867Y-84025085D01*
X245202986Y-84005568D01*
X245206867Y-83986051D01*
X245217923Y-83969506D01*
X245818964Y-83368465D01*
X246411300Y-82776128D01*
X246411303Y-82776125D01*
X246420005Y-82767424D01*
X246436550Y-82756368D01*
X246456067Y-82752487D01*
X246475584Y-82756368D01*
G37*
G36*
X179051524Y-79879801D02*
G01*
X179068069Y-79890857D01*
X179079125Y-79907402D01*
X179083007Y-79926919D01*
X179083007Y-81626919D01*
X179079125Y-81646436D01*
X179068069Y-81662981D01*
X179051524Y-81674037D01*
X179032007Y-81677919D01*
X177332007Y-81677919D01*
X177312490Y-81674037D01*
X177295945Y-81662981D01*
X177284889Y-81646436D01*
X177281007Y-81626919D01*
X177281007Y-79926919D01*
X177284889Y-79907402D01*
X177295945Y-79890857D01*
X177312490Y-79879801D01*
X177332007Y-79875919D01*
X179032007Y-79875919D01*
X179051524Y-79879801D01*
G37*
G36*
X180983553Y-79914716D02*
G01*
X181146735Y-79982308D01*
X181293595Y-80080437D01*
X181418489Y-80205331D01*
X181516618Y-80352191D01*
X181584210Y-80515373D01*
X181618668Y-80688606D01*
X181618668Y-80865232D01*
X181584210Y-81038465D01*
X181516618Y-81201647D01*
X181418489Y-81348507D01*
X181293595Y-81473401D01*
X181146735Y-81571530D01*
X180983553Y-81639122D01*
X180810320Y-81673580D01*
X180633694Y-81673580D01*
X180460461Y-81639122D01*
X180297279Y-81571530D01*
X180150419Y-81473401D01*
X180025525Y-81348507D01*
X179927396Y-81201647D01*
X179859804Y-81038465D01*
X179825346Y-80865232D01*
X179825346Y-80688606D01*
X179859804Y-80515373D01*
X179927396Y-80352191D01*
X180025525Y-80205331D01*
X180150419Y-80080437D01*
X180297279Y-79982308D01*
X180460461Y-79914716D01*
X180633694Y-79880258D01*
X180810320Y-79880258D01*
X180983553Y-79914716D01*
G37*
G36*
X183523552Y-79914716D02*
G01*
X183686734Y-79982308D01*
X183833594Y-80080437D01*
X183958488Y-80205331D01*
X184056617Y-80352191D01*
X184124209Y-80515373D01*
X184158667Y-80688606D01*
X184158667Y-80865232D01*
X184124209Y-81038465D01*
X184056617Y-81201647D01*
X183958488Y-81348507D01*
X183833594Y-81473401D01*
X183686734Y-81571530D01*
X183523552Y-81639122D01*
X183350319Y-81673580D01*
X183173693Y-81673580D01*
X183000460Y-81639122D01*
X182837278Y-81571530D01*
X182690418Y-81473401D01*
X182565524Y-81348507D01*
X182467395Y-81201647D01*
X182399803Y-81038465D01*
X182365345Y-80865232D01*
X182365345Y-80688606D01*
X182399803Y-80515373D01*
X182467395Y-80352191D01*
X182565524Y-80205331D01*
X182690418Y-80080437D01*
X182837278Y-79982308D01*
X183000460Y-79914716D01*
X183173693Y-79880258D01*
X183350319Y-79880258D01*
X183523552Y-79914716D01*
G37*
G36*
X186063553Y-79914716D02*
G01*
X186226735Y-79982308D01*
X186373595Y-80080437D01*
X186498489Y-80205331D01*
X186596618Y-80352191D01*
X186664210Y-80515373D01*
X186698668Y-80688606D01*
X186698668Y-80865232D01*
X186664210Y-81038465D01*
X186596618Y-81201647D01*
X186498489Y-81348507D01*
X186373595Y-81473401D01*
X186226735Y-81571530D01*
X186063553Y-81639122D01*
X185890320Y-81673580D01*
X185713694Y-81673580D01*
X185540461Y-81639122D01*
X185377279Y-81571530D01*
X185230419Y-81473401D01*
X185105525Y-81348507D01*
X185007396Y-81201647D01*
X184939804Y-81038465D01*
X184905346Y-80865232D01*
X184905346Y-80688606D01*
X184939804Y-80515373D01*
X185007396Y-80352191D01*
X185105525Y-80205331D01*
X185230419Y-80080437D01*
X185377279Y-79982308D01*
X185540461Y-79914716D01*
X185713694Y-79880258D01*
X185890320Y-79880258D01*
X186063553Y-79914716D01*
G37*
G36*
X179389991Y-55401201D02*
G01*
X179401199Y-55401201D01*
X179456397Y-55409943D01*
X179582043Y-55426485D01*
X179612698Y-55434699D01*
X179641583Y-55439274D01*
X179697129Y-55457322D01*
X179777976Y-55478985D01*
X179829559Y-55500351D01*
X179873051Y-55514483D01*
X179913795Y-55535243D01*
X179965379Y-55556610D01*
X180037862Y-55598458D01*
X180089904Y-55624975D01*
X180113564Y-55642165D01*
X180141048Y-55658033D01*
X180241583Y-55735176D01*
X180286803Y-55768030D01*
X180294728Y-55775955D01*
X180301975Y-55781516D01*
X180445412Y-55924953D01*
X180450972Y-55932199D01*
X180458899Y-55940126D01*
X180491756Y-55985350D01*
X180568895Y-56085880D01*
X180584761Y-56113361D01*
X180601954Y-56137025D01*
X180628473Y-56189072D01*
X180670318Y-56261549D01*
X180691682Y-56313126D01*
X180712446Y-56353878D01*
X180726579Y-56397375D01*
X180747943Y-56448952D01*
X180769602Y-56529786D01*
X180787655Y-56585346D01*
X180792230Y-56614236D01*
X180800443Y-56644885D01*
X180816983Y-56770519D01*
X180825728Y-56825730D01*
X180825728Y-56836938D01*
X180826921Y-56846000D01*
X180826921Y-57048839D01*
X180825728Y-57057900D01*
X180825728Y-57069110D01*
X180816982Y-57124325D01*
X180800443Y-57249954D01*
X180792231Y-57280600D01*
X180787655Y-57309494D01*
X180769600Y-57365058D01*
X180747943Y-57445887D01*
X180726580Y-57497459D01*
X180712446Y-57540962D01*
X180691680Y-57581717D01*
X180670318Y-57633290D01*
X180628477Y-57705758D01*
X180601954Y-57757815D01*
X180584758Y-57781482D01*
X180568895Y-57808959D01*
X180491770Y-57909470D01*
X180458899Y-57954714D01*
X180450968Y-57962644D01*
X180445412Y-57969886D01*
X180301975Y-58113323D01*
X180294733Y-58118879D01*
X180286803Y-58126810D01*
X180241559Y-58159681D01*
X180141048Y-58236806D01*
X180113571Y-58252669D01*
X180089904Y-58269865D01*
X180037847Y-58296388D01*
X179965379Y-58338229D01*
X179913806Y-58359591D01*
X179873051Y-58380357D01*
X179829548Y-58394491D01*
X179777976Y-58415854D01*
X179697147Y-58437511D01*
X179641583Y-58455566D01*
X179612689Y-58460142D01*
X179582043Y-58468354D01*
X179456411Y-58484894D01*
X179401199Y-58493639D01*
X179389990Y-58493639D01*
X179380929Y-58494832D01*
X179178089Y-58494832D01*
X179169028Y-58493639D01*
X179157819Y-58493639D01*
X179102608Y-58484894D01*
X178976974Y-58468354D01*
X178946325Y-58460141D01*
X178917435Y-58455566D01*
X178861875Y-58437513D01*
X178781041Y-58415854D01*
X178729464Y-58394490D01*
X178685967Y-58380357D01*
X178645215Y-58359593D01*
X178593638Y-58338229D01*
X178521161Y-58296384D01*
X178469114Y-58269865D01*
X178445450Y-58252672D01*
X178417969Y-58236806D01*
X178317439Y-58159667D01*
X178272215Y-58126810D01*
X178264288Y-58118883D01*
X178257042Y-58113323D01*
X178113605Y-57969886D01*
X178108044Y-57962639D01*
X178100119Y-57954714D01*
X178067265Y-57909494D01*
X177990122Y-57808959D01*
X177974254Y-57781475D01*
X177957064Y-57757815D01*
X177930547Y-57705773D01*
X177888699Y-57633290D01*
X177867332Y-57581706D01*
X177846572Y-57540962D01*
X177832440Y-57497470D01*
X177811074Y-57445887D01*
X177789411Y-57365040D01*
X177771363Y-57309494D01*
X177766788Y-57280609D01*
X177758574Y-57249954D01*
X177742033Y-57124311D01*
X177733290Y-57069110D01*
X177733290Y-57057900D01*
X177732097Y-57048839D01*
X177732097Y-56846000D01*
X177733290Y-56836938D01*
X177733290Y-56825730D01*
X177742032Y-56770533D01*
X177758574Y-56644885D01*
X177766788Y-56614227D01*
X177771363Y-56585346D01*
X177789409Y-56529803D01*
X177811074Y-56448952D01*
X177832442Y-56397364D01*
X177846572Y-56353878D01*
X177867330Y-56313137D01*
X177888699Y-56261549D01*
X177930551Y-56189057D01*
X177957064Y-56137025D01*
X177974251Y-56113368D01*
X177990122Y-56085880D01*
X178067279Y-55985326D01*
X178100119Y-55940126D01*
X178108041Y-55932203D01*
X178113605Y-55924953D01*
X178257042Y-55781516D01*
X178264292Y-55775952D01*
X178272215Y-55768030D01*
X178317415Y-55735190D01*
X178417969Y-55658033D01*
X178445457Y-55642162D01*
X178469114Y-55624975D01*
X178521146Y-55598462D01*
X178593638Y-55556610D01*
X178645226Y-55535241D01*
X178685967Y-55514483D01*
X178729453Y-55500353D01*
X178781041Y-55478985D01*
X178861892Y-55457320D01*
X178917435Y-55439274D01*
X178946316Y-55434699D01*
X178976974Y-55426485D01*
X179102622Y-55409943D01*
X179157819Y-55401201D01*
X179169027Y-55401201D01*
X179178089Y-55400008D01*
X179380929Y-55400008D01*
X179389991Y-55401201D01*
G37*
G36*
X184481159Y-53421302D02*
G01*
X184492367Y-53421302D01*
X184547565Y-53430044D01*
X184673211Y-53446586D01*
X184703866Y-53454800D01*
X184732751Y-53459375D01*
X184788297Y-53477423D01*
X184869144Y-53499086D01*
X184920727Y-53520452D01*
X184964219Y-53534584D01*
X185004963Y-53555344D01*
X185056547Y-53576711D01*
X185129030Y-53618559D01*
X185181072Y-53645076D01*
X185204732Y-53662266D01*
X185232216Y-53678134D01*
X185332751Y-53755277D01*
X185377971Y-53788131D01*
X185385896Y-53796056D01*
X185393143Y-53801617D01*
X185536580Y-53945054D01*
X185542140Y-53952300D01*
X185550067Y-53960227D01*
X185582924Y-54005451D01*
X185660063Y-54105981D01*
X185675929Y-54133462D01*
X185693122Y-54157126D01*
X185719641Y-54209173D01*
X185761486Y-54281650D01*
X185782850Y-54333227D01*
X185803614Y-54373979D01*
X185817747Y-54417476D01*
X185839111Y-54469053D01*
X185860770Y-54549887D01*
X185878823Y-54605447D01*
X185883398Y-54634337D01*
X185891611Y-54664986D01*
X185908151Y-54790620D01*
X185916896Y-54845831D01*
X185916896Y-54857039D01*
X185918089Y-54866101D01*
X185918089Y-55068940D01*
X185916896Y-55078001D01*
X185916896Y-55089211D01*
X185908150Y-55144426D01*
X185891611Y-55270055D01*
X185883399Y-55300701D01*
X185878823Y-55329595D01*
X185860768Y-55385159D01*
X185839111Y-55465988D01*
X185817748Y-55517560D01*
X185803614Y-55561063D01*
X185782848Y-55601818D01*
X185761486Y-55653391D01*
X185719645Y-55725859D01*
X185693122Y-55777916D01*
X185675926Y-55801583D01*
X185660063Y-55829060D01*
X185582938Y-55929571D01*
X185550067Y-55974815D01*
X185542136Y-55982745D01*
X185536580Y-55989987D01*
X185393143Y-56133424D01*
X185385901Y-56138980D01*
X185377971Y-56146911D01*
X185332727Y-56179782D01*
X185232216Y-56256907D01*
X185204739Y-56272770D01*
X185181072Y-56289966D01*
X185129015Y-56316489D01*
X185056547Y-56358330D01*
X185004974Y-56379692D01*
X184964219Y-56400458D01*
X184920716Y-56414592D01*
X184869144Y-56435955D01*
X184788315Y-56457612D01*
X184732751Y-56475667D01*
X184703857Y-56480243D01*
X184673211Y-56488455D01*
X184547579Y-56504995D01*
X184492367Y-56513740D01*
X184481158Y-56513740D01*
X184472097Y-56514933D01*
X184269257Y-56514933D01*
X184260196Y-56513740D01*
X184248987Y-56513740D01*
X184193776Y-56504995D01*
X184068142Y-56488455D01*
X184037493Y-56480242D01*
X184008603Y-56475667D01*
X183953043Y-56457614D01*
X183872209Y-56435955D01*
X183820632Y-56414591D01*
X183777135Y-56400458D01*
X183736383Y-56379694D01*
X183684806Y-56358330D01*
X183612329Y-56316485D01*
X183560282Y-56289966D01*
X183536618Y-56272773D01*
X183509137Y-56256907D01*
X183408607Y-56179768D01*
X183363383Y-56146911D01*
X183355456Y-56138984D01*
X183348210Y-56133424D01*
X183204773Y-55989987D01*
X183199212Y-55982740D01*
X183191287Y-55974815D01*
X183158433Y-55929595D01*
X183081290Y-55829060D01*
X183065422Y-55801576D01*
X183048232Y-55777916D01*
X183021715Y-55725874D01*
X182979867Y-55653391D01*
X182958500Y-55601807D01*
X182937740Y-55561063D01*
X182923608Y-55517571D01*
X182902242Y-55465988D01*
X182880579Y-55385141D01*
X182862531Y-55329595D01*
X182857956Y-55300710D01*
X182849742Y-55270055D01*
X182833201Y-55144412D01*
X182824458Y-55089211D01*
X182824458Y-55078001D01*
X182823265Y-55068940D01*
X182823265Y-54866101D01*
X182824458Y-54857039D01*
X182824458Y-54845831D01*
X182833200Y-54790634D01*
X182849742Y-54664986D01*
X182857956Y-54634328D01*
X182862531Y-54605447D01*
X182880577Y-54549904D01*
X182902242Y-54469053D01*
X182923610Y-54417465D01*
X182937740Y-54373979D01*
X182958498Y-54333238D01*
X182979867Y-54281650D01*
X183021719Y-54209158D01*
X183048232Y-54157126D01*
X183065419Y-54133469D01*
X183081290Y-54105981D01*
X183158447Y-54005427D01*
X183191287Y-53960227D01*
X183199209Y-53952304D01*
X183204773Y-53945054D01*
X183348210Y-53801617D01*
X183355460Y-53796053D01*
X183363383Y-53788131D01*
X183408583Y-53755291D01*
X183509137Y-53678134D01*
X183536625Y-53662263D01*
X183560282Y-53645076D01*
X183612314Y-53618563D01*
X183684806Y-53576711D01*
X183736394Y-53555342D01*
X183777135Y-53534584D01*
X183820621Y-53520454D01*
X183872209Y-53499086D01*
X183953060Y-53477421D01*
X184008603Y-53459375D01*
X184037484Y-53454800D01*
X184068142Y-53446586D01*
X184193790Y-53430044D01*
X184248987Y-53421302D01*
X184260195Y-53421302D01*
X184269257Y-53420109D01*
X184472097Y-53420109D01*
X184481159Y-53421302D01*
G37*
G36*
X206845276Y-54047336D02*
G01*
X207008458Y-54114928D01*
X207155318Y-54213057D01*
X207280212Y-54337951D01*
X207378341Y-54484811D01*
X207445933Y-54647993D01*
X207480391Y-54821226D01*
X207480391Y-54997852D01*
X207445933Y-55171085D01*
X207378341Y-55334267D01*
X207280212Y-55481127D01*
X207155318Y-55606021D01*
X207008458Y-55704150D01*
X206845276Y-55771742D01*
X206672043Y-55806200D01*
X206495417Y-55806200D01*
X206322184Y-55771742D01*
X206159002Y-55704150D01*
X206012142Y-55606021D01*
X205887248Y-55481127D01*
X205789119Y-55334267D01*
X205721527Y-55171085D01*
X205687069Y-54997852D01*
X205687069Y-54821226D01*
X205721527Y-54647993D01*
X205789119Y-54484811D01*
X205887248Y-54337951D01*
X206012142Y-54213057D01*
X206159002Y-54114928D01*
X206322184Y-54047336D01*
X206495417Y-54012878D01*
X206672043Y-54012878D01*
X206845276Y-54047336D01*
G37*
G36*
X176536113Y-53786259D02*
G01*
X176699458Y-53853918D01*
X176846464Y-53952145D01*
X176971483Y-54077164D01*
X177069710Y-54224170D01*
X177137369Y-54387515D01*
X177171862Y-54560921D01*
X177171862Y-54737725D01*
X177137369Y-54911131D01*
X177069710Y-55074476D01*
X176971483Y-55221482D01*
X176846464Y-55346501D01*
X176699458Y-55444728D01*
X176536113Y-55512387D01*
X176362707Y-55546880D01*
X176185903Y-55546880D01*
X176012497Y-55512387D01*
X175849152Y-55444728D01*
X175702146Y-55346501D01*
X175577127Y-55221482D01*
X175478900Y-55074476D01*
X175411241Y-54911131D01*
X175376748Y-54737725D01*
X175376748Y-54560921D01*
X175411241Y-54387515D01*
X175478900Y-54224170D01*
X175577127Y-54077164D01*
X175702146Y-53952145D01*
X175849152Y-53853918D01*
X176012497Y-53786259D01*
X176185903Y-53751766D01*
X176362707Y-53751766D01*
X176536113Y-53786259D01*
G37*
G36*
X208641328Y-52251284D02*
G01*
X208804510Y-52318876D01*
X208951370Y-52417005D01*
X209076264Y-52541899D01*
X209174393Y-52688759D01*
X209241985Y-52851941D01*
X209276443Y-53025174D01*
X209276443Y-53201800D01*
X209241985Y-53375033D01*
X209174393Y-53538215D01*
X209076264Y-53685075D01*
X208951370Y-53809969D01*
X208804510Y-53908098D01*
X208641328Y-53975690D01*
X208468095Y-54010148D01*
X208291469Y-54010148D01*
X208118236Y-53975690D01*
X207955054Y-53908098D01*
X207808194Y-53809969D01*
X207683300Y-53685075D01*
X207585171Y-53538215D01*
X207517579Y-53375033D01*
X207483121Y-53201800D01*
X207483121Y-53025174D01*
X207517579Y-52851941D01*
X207585171Y-52688759D01*
X207683300Y-52541899D01*
X207808194Y-52417005D01*
X207955054Y-52318876D01*
X208118236Y-52251284D01*
X208291469Y-52216826D01*
X208468095Y-52216826D01*
X208641328Y-52251284D01*
G37*
G36*
X180507824Y-49028660D02*
G01*
X180730893Y-49088431D01*
X180944253Y-49176807D01*
X181144251Y-49292276D01*
X181327467Y-49432863D01*
X181490765Y-49596161D01*
X181631352Y-49779377D01*
X181746821Y-49979375D01*
X181835197Y-50192735D01*
X181894968Y-50415804D01*
X181925112Y-50644767D01*
X181925112Y-50875705D01*
X181894968Y-51104668D01*
X181835197Y-51327737D01*
X181746821Y-51541097D01*
X181631352Y-51741095D01*
X181490765Y-51924311D01*
X181327467Y-52087609D01*
X181144251Y-52228196D01*
X180944253Y-52343665D01*
X180730893Y-52432041D01*
X180507824Y-52491812D01*
X180278861Y-52521956D01*
X180047923Y-52521956D01*
X179818960Y-52491812D01*
X179595891Y-52432041D01*
X179382531Y-52343665D01*
X179182533Y-52228196D01*
X178999317Y-52087609D01*
X178836019Y-51924311D01*
X178695432Y-51741095D01*
X178579963Y-51541097D01*
X178491587Y-51327737D01*
X178431816Y-51104668D01*
X178401672Y-50875705D01*
X178401672Y-50644767D01*
X178431816Y-50415804D01*
X178491587Y-50192735D01*
X178579963Y-49979375D01*
X178695432Y-49779377D01*
X178836019Y-49596161D01*
X178999317Y-49432863D01*
X179182533Y-49292276D01*
X179382531Y-49176807D01*
X179595891Y-49088431D01*
X179818960Y-49028660D01*
X180047923Y-48998516D01*
X180278861Y-48998516D01*
X180507824Y-49028660D01*
G37*
G36*
X199613245Y-49320083D02*
G01*
X199624453Y-49320083D01*
X199679651Y-49328825D01*
X199805297Y-49345367D01*
X199835952Y-49353581D01*
X199864837Y-49358156D01*
X199920383Y-49376204D01*
X200001230Y-49397867D01*
X200052813Y-49419233D01*
X200096305Y-49433365D01*
X200137049Y-49454125D01*
X200188633Y-49475492D01*
X200261116Y-49517340D01*
X200313158Y-49543857D01*
X200336818Y-49561047D01*
X200364302Y-49576915D01*
X200464837Y-49654058D01*
X200510057Y-49686912D01*
X200517982Y-49694837D01*
X200525229Y-49700398D01*
X200668666Y-49843835D01*
X200674226Y-49851081D01*
X200682153Y-49859008D01*
X200715010Y-49904232D01*
X200792149Y-50004762D01*
X200808015Y-50032243D01*
X200825208Y-50055907D01*
X200851727Y-50107954D01*
X200893572Y-50180431D01*
X200914936Y-50232008D01*
X200935700Y-50272760D01*
X200949833Y-50316257D01*
X200971197Y-50367834D01*
X200992856Y-50448668D01*
X201010909Y-50504228D01*
X201015484Y-50533118D01*
X201023697Y-50563767D01*
X201040237Y-50689401D01*
X201048982Y-50744612D01*
X201048982Y-50755820D01*
X201050175Y-50764882D01*
X201050175Y-50967721D01*
X201048982Y-50976782D01*
X201048982Y-50987992D01*
X201040236Y-51043207D01*
X201023697Y-51168836D01*
X201015485Y-51199482D01*
X201010909Y-51228376D01*
X200992854Y-51283940D01*
X200971197Y-51364769D01*
X200949834Y-51416341D01*
X200935700Y-51459844D01*
X200914934Y-51500599D01*
X200893572Y-51552172D01*
X200851731Y-51624640D01*
X200825208Y-51676697D01*
X200808012Y-51700364D01*
X200792149Y-51727841D01*
X200715024Y-51828352D01*
X200682153Y-51873596D01*
X200674222Y-51881526D01*
X200668666Y-51888768D01*
X200525229Y-52032205D01*
X200517987Y-52037761D01*
X200510057Y-52045692D01*
X200464813Y-52078563D01*
X200364302Y-52155688D01*
X200336825Y-52171551D01*
X200313158Y-52188747D01*
X200261101Y-52215270D01*
X200188633Y-52257111D01*
X200137060Y-52278473D01*
X200096305Y-52299239D01*
X200052802Y-52313373D01*
X200001230Y-52334736D01*
X199920401Y-52356393D01*
X199864837Y-52374448D01*
X199835943Y-52379024D01*
X199805297Y-52387236D01*
X199679665Y-52403776D01*
X199624453Y-52412521D01*
X199613244Y-52412521D01*
X199604183Y-52413714D01*
X199401343Y-52413714D01*
X199392282Y-52412521D01*
X199381073Y-52412521D01*
X199325862Y-52403776D01*
X199200228Y-52387236D01*
X199169579Y-52379023D01*
X199140689Y-52374448D01*
X199085129Y-52356395D01*
X199004295Y-52334736D01*
X198952718Y-52313372D01*
X198909221Y-52299239D01*
X198868469Y-52278475D01*
X198816892Y-52257111D01*
X198744415Y-52215266D01*
X198692368Y-52188747D01*
X198668704Y-52171554D01*
X198641223Y-52155688D01*
X198540693Y-52078549D01*
X198495469Y-52045692D01*
X198487542Y-52037765D01*
X198480296Y-52032205D01*
X198336859Y-51888768D01*
X198331298Y-51881521D01*
X198323373Y-51873596D01*
X198290519Y-51828376D01*
X198213376Y-51727841D01*
X198197508Y-51700357D01*
X198180318Y-51676697D01*
X198153801Y-51624655D01*
X198111953Y-51552172D01*
X198090586Y-51500588D01*
X198069826Y-51459844D01*
X198055694Y-51416352D01*
X198034328Y-51364769D01*
X198012665Y-51283922D01*
X197994617Y-51228376D01*
X197990042Y-51199491D01*
X197981828Y-51168836D01*
X197965287Y-51043193D01*
X197956544Y-50987992D01*
X197956544Y-50976782D01*
X197955351Y-50967721D01*
X197955351Y-50764882D01*
X197956544Y-50755820D01*
X197956544Y-50744612D01*
X197965286Y-50689415D01*
X197981828Y-50563767D01*
X197990042Y-50533109D01*
X197994617Y-50504228D01*
X198012663Y-50448685D01*
X198034328Y-50367834D01*
X198055696Y-50316246D01*
X198069826Y-50272760D01*
X198090584Y-50232019D01*
X198111953Y-50180431D01*
X198153805Y-50107939D01*
X198180318Y-50055907D01*
X198197505Y-50032250D01*
X198213376Y-50004762D01*
X198290533Y-49904208D01*
X198323373Y-49859008D01*
X198331295Y-49851085D01*
X198336859Y-49843835D01*
X198480296Y-49700398D01*
X198487546Y-49694834D01*
X198495469Y-49686912D01*
X198540669Y-49654072D01*
X198641223Y-49576915D01*
X198668711Y-49561044D01*
X198692368Y-49543857D01*
X198744400Y-49517344D01*
X198816892Y-49475492D01*
X198868480Y-49454123D01*
X198909221Y-49433365D01*
X198952707Y-49419235D01*
X199004295Y-49397867D01*
X199085146Y-49376202D01*
X199140689Y-49358156D01*
X199169570Y-49353581D01*
X199200228Y-49345367D01*
X199325876Y-49328825D01*
X199381073Y-49320083D01*
X199392281Y-49320083D01*
X199401343Y-49318890D01*
X199604183Y-49318890D01*
X199613245Y-49320083D01*
G37*
G36*
X210437379Y-50455233D02*
G01*
X210600561Y-50522825D01*
X210747421Y-50620954D01*
X210872315Y-50745848D01*
X210970444Y-50892708D01*
X211038036Y-51055890D01*
X211072494Y-51229123D01*
X211072494Y-51405749D01*
X211038036Y-51578982D01*
X210970444Y-51742164D01*
X210872315Y-51889024D01*
X210747421Y-52013918D01*
X210600561Y-52112047D01*
X210437379Y-52179639D01*
X210264146Y-52214097D01*
X210087520Y-52214097D01*
X209914287Y-52179639D01*
X209751105Y-52112047D01*
X209604245Y-52013918D01*
X209479351Y-51889024D01*
X209381222Y-51742164D01*
X209313630Y-51578982D01*
X209279172Y-51405749D01*
X209279172Y-51229123D01*
X209313630Y-51055890D01*
X209381222Y-50892708D01*
X209479351Y-50745848D01*
X209604245Y-50620954D01*
X209751105Y-50522825D01*
X209914287Y-50455233D01*
X210087520Y-50420775D01*
X210264146Y-50420775D01*
X210437379Y-50455233D01*
G37*
G36*
X211991401Y-48272185D02*
G01*
X212007946Y-48283241D01*
X213210028Y-49485323D01*
X213221084Y-49501868D01*
X213224965Y-49521385D01*
X213221084Y-49540902D01*
X213210028Y-49557447D01*
X212007946Y-50759529D01*
X211991401Y-50770585D01*
X211971884Y-50774466D01*
X211952367Y-50770585D01*
X211935822Y-50759529D01*
X210733740Y-49557447D01*
X210722684Y-49540902D01*
X210718803Y-49521385D01*
X210722684Y-49501868D01*
X210733740Y-49485323D01*
X211562515Y-48656548D01*
X211927117Y-48291945D01*
X211927120Y-48291942D01*
X211935822Y-48283241D01*
X211952367Y-48272185D01*
X211971884Y-48268304D01*
X211991401Y-48272185D01*
G37*
G36*
X204704413Y-47340184D02*
G01*
X204715621Y-47340184D01*
X204770819Y-47348926D01*
X204896465Y-47365468D01*
X204927120Y-47373682D01*
X204956005Y-47378257D01*
X205011551Y-47396305D01*
X205092398Y-47417968D01*
X205143981Y-47439334D01*
X205187473Y-47453466D01*
X205228217Y-47474226D01*
X205279801Y-47495593D01*
X205352284Y-47537441D01*
X205404326Y-47563958D01*
X205427986Y-47581148D01*
X205455470Y-47597016D01*
X205556005Y-47674159D01*
X205601225Y-47707013D01*
X205609150Y-47714938D01*
X205616397Y-47720499D01*
X205759834Y-47863936D01*
X205765394Y-47871182D01*
X205773321Y-47879109D01*
X205806178Y-47924333D01*
X205883317Y-48024863D01*
X205899183Y-48052344D01*
X205916376Y-48076008D01*
X205942895Y-48128055D01*
X205984740Y-48200532D01*
X206006104Y-48252109D01*
X206026868Y-48292861D01*
X206041001Y-48336358D01*
X206062365Y-48387935D01*
X206084024Y-48468769D01*
X206102077Y-48524329D01*
X206106652Y-48553219D01*
X206114865Y-48583868D01*
X206131405Y-48709502D01*
X206140150Y-48764713D01*
X206140150Y-48775921D01*
X206141343Y-48784983D01*
X206141343Y-48987822D01*
X206140150Y-48996883D01*
X206140150Y-49008093D01*
X206131404Y-49063308D01*
X206114865Y-49188937D01*
X206106653Y-49219583D01*
X206102077Y-49248477D01*
X206084022Y-49304041D01*
X206062365Y-49384870D01*
X206041002Y-49436442D01*
X206026868Y-49479945D01*
X206006102Y-49520700D01*
X205984740Y-49572273D01*
X205942899Y-49644741D01*
X205916376Y-49696798D01*
X205899180Y-49720465D01*
X205883317Y-49747942D01*
X205806192Y-49848453D01*
X205773321Y-49893697D01*
X205765390Y-49901627D01*
X205759834Y-49908869D01*
X205616397Y-50052306D01*
X205609155Y-50057862D01*
X205601225Y-50065793D01*
X205555981Y-50098664D01*
X205455470Y-50175789D01*
X205427993Y-50191652D01*
X205404326Y-50208848D01*
X205352269Y-50235371D01*
X205279801Y-50277212D01*
X205228228Y-50298574D01*
X205187473Y-50319340D01*
X205143970Y-50333474D01*
X205092398Y-50354837D01*
X205011569Y-50376494D01*
X204956005Y-50394549D01*
X204927111Y-50399125D01*
X204896465Y-50407337D01*
X204770833Y-50423877D01*
X204715621Y-50432622D01*
X204704412Y-50432622D01*
X204695351Y-50433815D01*
X204492511Y-50433815D01*
X204483450Y-50432622D01*
X204472241Y-50432622D01*
X204417030Y-50423877D01*
X204291396Y-50407337D01*
X204260747Y-50399124D01*
X204231857Y-50394549D01*
X204176297Y-50376496D01*
X204095463Y-50354837D01*
X204043886Y-50333473D01*
X204000389Y-50319340D01*
X203959637Y-50298576D01*
X203908060Y-50277212D01*
X203835583Y-50235367D01*
X203783536Y-50208848D01*
X203759872Y-50191655D01*
X203732391Y-50175789D01*
X203631861Y-50098650D01*
X203586637Y-50065793D01*
X203578710Y-50057866D01*
X203571464Y-50052306D01*
X203428027Y-49908869D01*
X203422466Y-49901622D01*
X203414541Y-49893697D01*
X203381687Y-49848477D01*
X203304544Y-49747942D01*
X203288676Y-49720458D01*
X203271486Y-49696798D01*
X203244969Y-49644756D01*
X203203121Y-49572273D01*
X203181754Y-49520689D01*
X203160994Y-49479945D01*
X203146862Y-49436453D01*
X203125496Y-49384870D01*
X203103833Y-49304023D01*
X203085785Y-49248477D01*
X203081210Y-49219592D01*
X203072996Y-49188937D01*
X203056455Y-49063294D01*
X203047712Y-49008093D01*
X203047712Y-48996883D01*
X203046519Y-48987822D01*
X203046519Y-48784983D01*
X203047712Y-48775921D01*
X203047712Y-48764713D01*
X203056454Y-48709516D01*
X203072996Y-48583868D01*
X203081210Y-48553210D01*
X203085785Y-48524329D01*
X203103831Y-48468786D01*
X203125496Y-48387935D01*
X203146864Y-48336347D01*
X203160994Y-48292861D01*
X203181752Y-48252120D01*
X203203121Y-48200532D01*
X203244973Y-48128040D01*
X203271486Y-48076008D01*
X203288673Y-48052351D01*
X203304544Y-48024863D01*
X203381701Y-47924309D01*
X203414541Y-47879109D01*
X203422463Y-47871186D01*
X203428027Y-47863936D01*
X203571464Y-47720499D01*
X203578714Y-47714935D01*
X203586637Y-47707013D01*
X203631837Y-47674173D01*
X203732391Y-47597016D01*
X203759879Y-47581145D01*
X203783536Y-47563958D01*
X203835568Y-47537445D01*
X203908060Y-47495593D01*
X203959648Y-47474224D01*
X204000389Y-47453466D01*
X204043875Y-47439336D01*
X204095463Y-47417968D01*
X204176314Y-47396303D01*
X204231857Y-47378257D01*
X204260738Y-47373682D01*
X204291396Y-47365468D01*
X204417044Y-47348926D01*
X204472241Y-47340184D01*
X204483449Y-47340184D01*
X204492511Y-47338991D01*
X204695351Y-47338991D01*
X204704413Y-47340184D01*
G37*
G36*
X196759367Y-47705141D02*
G01*
X196922712Y-47772800D01*
X197069718Y-47871027D01*
X197194737Y-47996046D01*
X197292964Y-48143052D01*
X197360623Y-48306397D01*
X197395116Y-48479803D01*
X197395116Y-48656607D01*
X197360623Y-48830013D01*
X197292964Y-48993358D01*
X197194737Y-49140364D01*
X197069718Y-49265383D01*
X196922712Y-49363610D01*
X196759367Y-49431269D01*
X196585961Y-49465762D01*
X196409157Y-49465762D01*
X196235751Y-49431269D01*
X196072406Y-49363610D01*
X195925400Y-49265383D01*
X195800381Y-49140364D01*
X195702154Y-48993358D01*
X195634495Y-48830013D01*
X195600002Y-48656607D01*
X195600002Y-48479803D01*
X195634495Y-48306397D01*
X195702154Y-48143052D01*
X195800381Y-47996046D01*
X195925400Y-47871027D01*
X196072406Y-47772800D01*
X196235751Y-47705141D01*
X196409157Y-47670648D01*
X196585961Y-47670648D01*
X196759367Y-47705141D01*
G37*
G36*
X184314287Y-46008085D02*
G01*
X184477632Y-46075744D01*
X184624638Y-46173971D01*
X184749657Y-46298990D01*
X184847884Y-46445996D01*
X184915543Y-46609341D01*
X184950036Y-46782747D01*
X184950036Y-46959551D01*
X184915543Y-47132957D01*
X184847884Y-47296302D01*
X184749657Y-47443308D01*
X184624638Y-47568327D01*
X184477632Y-47666554D01*
X184314287Y-47734213D01*
X184140881Y-47768706D01*
X183964077Y-47768706D01*
X183790671Y-47734213D01*
X183627326Y-47666554D01*
X183480320Y-47568327D01*
X183355301Y-47443308D01*
X183257074Y-47296302D01*
X183189415Y-47132957D01*
X183154922Y-46959551D01*
X183154922Y-46782747D01*
X183189415Y-46609341D01*
X183257074Y-46445996D01*
X183355301Y-46298990D01*
X183480320Y-46173971D01*
X183627326Y-46075744D01*
X183790671Y-46008085D01*
X183964077Y-45973592D01*
X184140881Y-45973592D01*
X184314287Y-46008085D01*
G37*
G36*
X200731078Y-42947542D02*
G01*
X200954147Y-43007313D01*
X201167507Y-43095689D01*
X201367505Y-43211158D01*
X201550721Y-43351745D01*
X201714019Y-43515043D01*
X201854606Y-43698259D01*
X201970075Y-43898257D01*
X202058451Y-44111617D01*
X202118222Y-44334686D01*
X202148366Y-44563649D01*
X202148366Y-44794587D01*
X202118222Y-45023550D01*
X202058451Y-45246619D01*
X201970075Y-45459979D01*
X201854606Y-45659977D01*
X201714019Y-45843193D01*
X201550721Y-46006491D01*
X201367505Y-46147078D01*
X201167507Y-46262547D01*
X200954147Y-46350923D01*
X200731078Y-46410694D01*
X200502115Y-46440838D01*
X200271177Y-46440838D01*
X200042214Y-46410694D01*
X199819145Y-46350923D01*
X199605785Y-46262547D01*
X199405787Y-46147078D01*
X199222571Y-46006491D01*
X199059273Y-45843193D01*
X198918686Y-45659977D01*
X198803217Y-45459979D01*
X198714841Y-45246619D01*
X198655070Y-45023550D01*
X198624926Y-44794587D01*
X198624926Y-44563649D01*
X198655070Y-44334686D01*
X198714841Y-44111617D01*
X198803217Y-43898257D01*
X198918686Y-43698259D01*
X199059273Y-43515043D01*
X199222571Y-43351745D01*
X199405787Y-43211158D01*
X199605785Y-43095689D01*
X199819145Y-43007313D01*
X200042214Y-42947542D01*
X200271177Y-42917398D01*
X200502115Y-42917398D01*
X200731078Y-42947542D01*
G37*
G36*
X204537541Y-39926967D02*
G01*
X204700886Y-39994626D01*
X204847892Y-40092853D01*
X204972911Y-40217872D01*
X205071138Y-40364878D01*
X205138797Y-40528223D01*
X205173290Y-40701629D01*
X205173290Y-40878433D01*
X205138797Y-41051839D01*
X205071138Y-41215184D01*
X204972911Y-41362190D01*
X204847892Y-41487209D01*
X204700886Y-41585436D01*
X204537541Y-41653095D01*
X204364135Y-41687588D01*
X204187331Y-41687588D01*
X204013925Y-41653095D01*
X203850580Y-41585436D01*
X203703574Y-41487209D01*
X203578555Y-41362190D01*
X203480328Y-41215184D01*
X203412669Y-41051839D01*
X203378176Y-40878433D01*
X203378176Y-40701629D01*
X203412669Y-40528223D01*
X203480328Y-40364878D01*
X203578555Y-40217872D01*
X203703574Y-40092853D01*
X203850580Y-39994626D01*
X204013925Y-39926967D01*
X204187331Y-39892474D01*
X204364135Y-39892474D01*
X204537541Y-39926967D01*
G37*
M02*
