G04 #@! TF.GenerationSoftware,KiCad,Pcbnew,9.0.2*
G04 #@! TF.CreationDate,2025-09-19T15:39:03-04:00*
G04 #@! TF.ProjectId,Trackball,54726163-6b62-4616-9c6c-2e6b69636164,rev?*
G04 #@! TF.SameCoordinates,Original*
G04 #@! TF.FileFunction,Soldermask,Bot*
G04 #@! TF.FilePolarity,Negative*
%FSLAX46Y46*%
G04 Gerber Fmt 4.6, Leading zero omitted, Abs format (unit mm)*
G04 Created by KiCad (PCBNEW 9.0.2) date 2025-09-19 15:39:03*
%MOMM*%
%LPD*%
G01*
G04 APERTURE LIST*
G04 APERTURE END LIST*
G36*
X57950386Y-139889599D02*
G01*
X58311419Y-139961413D01*
X58663674Y-140068268D01*
X59003759Y-140209136D01*
X59328399Y-140382660D01*
X59634468Y-140587169D01*
X59919018Y-140820692D01*
X60179308Y-141080982D01*
X60412831Y-141365532D01*
X60617340Y-141671601D01*
X60790864Y-141996241D01*
X60931732Y-142336326D01*
X61038587Y-142688581D01*
X61110401Y-143049614D01*
X61146482Y-143415947D01*
X61146482Y-143784053D01*
X61110401Y-144150386D01*
X61038587Y-144511419D01*
X60931732Y-144863674D01*
X60790864Y-145203759D01*
X60617340Y-145528399D01*
X60412831Y-145834468D01*
X60179308Y-146119018D01*
X59919018Y-146379308D01*
X59634468Y-146612831D01*
X59328399Y-146817340D01*
X59003759Y-146990864D01*
X58663674Y-147131732D01*
X58311419Y-147238587D01*
X57950386Y-147310401D01*
X57584053Y-147346482D01*
X57215947Y-147346482D01*
X56849614Y-147310401D01*
X56488581Y-147238587D01*
X56136326Y-147131732D01*
X55796241Y-146990864D01*
X55471601Y-146817340D01*
X55165532Y-146612831D01*
X54880982Y-146379308D01*
X54620692Y-146119018D01*
X54387169Y-145834468D01*
X54182660Y-145528399D01*
X54009136Y-145203759D01*
X53868268Y-144863674D01*
X53761413Y-144511419D01*
X53689599Y-144150386D01*
X53653518Y-143784053D01*
X53653518Y-143415947D01*
X53689599Y-143049614D01*
X53761413Y-142688581D01*
X53868268Y-142336326D01*
X54009136Y-141996241D01*
X54182660Y-141671601D01*
X54387169Y-141365532D01*
X54620692Y-141080982D01*
X54880982Y-140820692D01*
X55165532Y-140587169D01*
X55471601Y-140382660D01*
X55796241Y-140209136D01*
X56136326Y-140068268D01*
X56488581Y-139961413D01*
X56849614Y-139889599D01*
X57215947Y-139853518D01*
X57584053Y-139853518D01*
X57950386Y-139889599D01*
G37*
G36*
X-2299614Y-130389599D02*
G01*
X-1938581Y-130461413D01*
X-1586326Y-130568268D01*
X-1246241Y-130709136D01*
X-921601Y-130882660D01*
X-615532Y-131087169D01*
X-330982Y-131320692D01*
X-70692Y-131580982D01*
X162831Y-131865532D01*
X367340Y-132171601D01*
X540864Y-132496241D01*
X681732Y-132836326D01*
X788587Y-133188581D01*
X860401Y-133549614D01*
X896482Y-133915947D01*
X896482Y-134284053D01*
X860401Y-134650386D01*
X788587Y-135011419D01*
X681732Y-135363674D01*
X540864Y-135703759D01*
X367340Y-136028399D01*
X162831Y-136334468D01*
X-70692Y-136619018D01*
X-330982Y-136879308D01*
X-615532Y-137112831D01*
X-921601Y-137317340D01*
X-1246241Y-137490864D01*
X-1586326Y-137631732D01*
X-1938581Y-137738587D01*
X-2299614Y-137810401D01*
X-2665947Y-137846482D01*
X-3034053Y-137846482D01*
X-3400386Y-137810401D01*
X-3761419Y-137738587D01*
X-4113674Y-137631732D01*
X-4453759Y-137490864D01*
X-4778399Y-137317340D01*
X-5084468Y-137112831D01*
X-5369018Y-136879308D01*
X-5629308Y-136619018D01*
X-5862831Y-136334468D01*
X-6067340Y-136028399D01*
X-6240864Y-135703759D01*
X-6381732Y-135363674D01*
X-6488587Y-135011419D01*
X-6560401Y-134650386D01*
X-6596482Y-134284053D01*
X-6596482Y-133915947D01*
X-6560401Y-133549614D01*
X-6488587Y-133188581D01*
X-6381732Y-132836326D01*
X-6240864Y-132496241D01*
X-6067340Y-132171601D01*
X-5862831Y-131865532D01*
X-5629308Y-131580982D01*
X-5369018Y-131320692D01*
X-5084468Y-131087169D01*
X-4778399Y-130882660D01*
X-4453759Y-130709136D01*
X-4113674Y-130568268D01*
X-3761419Y-130461413D01*
X-3400386Y-130389599D01*
X-3034053Y-130353518D01*
X-2665947Y-130353518D01*
X-2299614Y-130389599D01*
G37*
G36*
X-17296814Y-97863499D02*
G01*
X-16935781Y-97935313D01*
X-16583526Y-98042168D01*
X-16243441Y-98183036D01*
X-15918801Y-98356560D01*
X-15612732Y-98561069D01*
X-15328182Y-98794592D01*
X-15067892Y-99054882D01*
X-14834369Y-99339432D01*
X-14629860Y-99645501D01*
X-14456336Y-99970141D01*
X-14315468Y-100310226D01*
X-14208613Y-100662481D01*
X-14136799Y-101023514D01*
X-14100718Y-101389847D01*
X-14100718Y-101757953D01*
X-14136799Y-102124286D01*
X-14208613Y-102485319D01*
X-14315468Y-102837574D01*
X-14456336Y-103177659D01*
X-14629860Y-103502299D01*
X-14834369Y-103808368D01*
X-15067892Y-104092918D01*
X-15328182Y-104353208D01*
X-15612732Y-104586731D01*
X-15918801Y-104791240D01*
X-16243441Y-104964764D01*
X-16583526Y-105105632D01*
X-16935781Y-105212487D01*
X-17296814Y-105284301D01*
X-17663147Y-105320382D01*
X-18031253Y-105320382D01*
X-18397586Y-105284301D01*
X-18758619Y-105212487D01*
X-19110874Y-105105632D01*
X-19450959Y-104964764D01*
X-19775599Y-104791240D01*
X-20081668Y-104586731D01*
X-20366218Y-104353208D01*
X-20626508Y-104092918D01*
X-20860031Y-103808368D01*
X-21064540Y-103502299D01*
X-21238064Y-103177659D01*
X-21378932Y-102837574D01*
X-21485787Y-102485319D01*
X-21557601Y-102124286D01*
X-21593682Y-101757953D01*
X-21593682Y-101389847D01*
X-21557601Y-101023514D01*
X-21485787Y-100662481D01*
X-21378932Y-100310226D01*
X-21238064Y-99970141D01*
X-21064540Y-99645501D01*
X-20860031Y-99339432D01*
X-20626508Y-99054882D01*
X-20366218Y-98794592D01*
X-20081668Y-98561069D01*
X-19775599Y-98356560D01*
X-19450959Y-98183036D01*
X-19110874Y-98042168D01*
X-18758619Y-97935313D01*
X-18397586Y-97863499D01*
X-18031253Y-97827418D01*
X-17663147Y-97827418D01*
X-17296814Y-97863499D01*
G37*
G36*
X-2296814Y-65363499D02*
G01*
X-1935781Y-65435313D01*
X-1583526Y-65542168D01*
X-1243441Y-65683036D01*
X-918801Y-65856560D01*
X-612732Y-66061069D01*
X-328182Y-66294592D01*
X-67892Y-66554882D01*
X165631Y-66839432D01*
X370140Y-67145501D01*
X543664Y-67470141D01*
X684532Y-67810226D01*
X791387Y-68162481D01*
X863201Y-68523514D01*
X899282Y-68889847D01*
X899282Y-69257953D01*
X863201Y-69624286D01*
X791387Y-69985319D01*
X684532Y-70337574D01*
X543664Y-70677659D01*
X370140Y-71002299D01*
X165631Y-71308368D01*
X-67892Y-71592918D01*
X-328182Y-71853208D01*
X-612732Y-72086731D01*
X-918801Y-72291240D01*
X-1243441Y-72464764D01*
X-1583526Y-72605632D01*
X-1935781Y-72712487D01*
X-2296814Y-72784301D01*
X-2663147Y-72820382D01*
X-3031253Y-72820382D01*
X-3397586Y-72784301D01*
X-3758619Y-72712487D01*
X-4110874Y-72605632D01*
X-4450959Y-72464764D01*
X-4775599Y-72291240D01*
X-5081668Y-72086731D01*
X-5366218Y-71853208D01*
X-5626508Y-71592918D01*
X-5860031Y-71308368D01*
X-6064540Y-71002299D01*
X-6238064Y-70677659D01*
X-6378932Y-70337574D01*
X-6485787Y-69985319D01*
X-6557601Y-69624286D01*
X-6593682Y-69257953D01*
X-6593682Y-68889847D01*
X-6557601Y-68523514D01*
X-6485787Y-68162481D01*
X-6378932Y-67810226D01*
X-6238064Y-67470141D01*
X-6064540Y-67145501D01*
X-5860031Y-66839432D01*
X-5626508Y-66554882D01*
X-5366218Y-66294592D01*
X-5081668Y-66061069D01*
X-4775599Y-65856560D01*
X-4450959Y-65683036D01*
X-4110874Y-65542168D01*
X-3758619Y-65435313D01*
X-3397586Y-65363499D01*
X-3031253Y-65327418D01*
X-2663147Y-65327418D01*
X-2296814Y-65363499D01*
G37*
G36*
X57705986Y-55863499D02*
G01*
X58067019Y-55935313D01*
X58419274Y-56042168D01*
X58759359Y-56183036D01*
X59083999Y-56356560D01*
X59390068Y-56561069D01*
X59674618Y-56794592D01*
X59934908Y-57054882D01*
X60168431Y-57339432D01*
X60372940Y-57645501D01*
X60546464Y-57970141D01*
X60687332Y-58310226D01*
X60794187Y-58662481D01*
X60866001Y-59023514D01*
X60902082Y-59389847D01*
X60902082Y-59757953D01*
X60866001Y-60124286D01*
X60794187Y-60485319D01*
X60687332Y-60837574D01*
X60546464Y-61177659D01*
X60372940Y-61502299D01*
X60168431Y-61808368D01*
X59934908Y-62092918D01*
X59674618Y-62353208D01*
X59390068Y-62586731D01*
X59083999Y-62791240D01*
X58759359Y-62964764D01*
X58419274Y-63105632D01*
X58067019Y-63212487D01*
X57705986Y-63284301D01*
X57339653Y-63320382D01*
X56971547Y-63320382D01*
X56605214Y-63284301D01*
X56244181Y-63212487D01*
X55891926Y-63105632D01*
X55551841Y-62964764D01*
X55227201Y-62791240D01*
X54921132Y-62586731D01*
X54636582Y-62353208D01*
X54376292Y-62092918D01*
X54142769Y-61808368D01*
X53938260Y-61502299D01*
X53764736Y-61177659D01*
X53623868Y-60837574D01*
X53517013Y-60485319D01*
X53445199Y-60124286D01*
X53409118Y-59757953D01*
X53409118Y-59389847D01*
X53445199Y-59023514D01*
X53517013Y-58662481D01*
X53623868Y-58310226D01*
X53764736Y-57970141D01*
X53938260Y-57645501D01*
X54142769Y-57339432D01*
X54376292Y-57054882D01*
X54636582Y-56794592D01*
X54921132Y-56561069D01*
X55227201Y-56356560D01*
X55551841Y-56183036D01*
X55891926Y-56042168D01*
X56244181Y-55935313D01*
X56605214Y-55863499D01*
X56971547Y-55827418D01*
X57339653Y-55827418D01*
X57705986Y-55863499D01*
G37*
M02*
