M48
; DRILL file {KiCad 9.0.2} date 2025-09-01T17:34:02-0400
; FORMAT={-:-/ absolute / metric / decimal}
; #@! TF.CreationDate,2025-09-01T17:34:02-04:00
; #@! TF.GenerationSoftware,Kicad,Pcbnew,9.0.2
; #@! TF.FileFunction,Plated,1,2,PTH
FMAT,2
METRIC
; #@! TA.AperFunction,Plated,PTH,ViaDrill
T1C0.400
; #@! TA.AperFunction,Plated,PTH,ComponentDrill
T2C1.000
; #@! TA.AperFunction,Plated,PTH,ComponentDrill
T3C2.500
%
G90
G05
T1
X168.143Y-71.266
X171.678Y-67.731
X171.678Y-74.802
X175.214Y-64.195
X175.214Y-71.266
X178.219Y-60.483
X178.749Y-67.731
X182.285Y-92.48
X185.82Y-88.944
X189.356Y-85.408
X192.891Y-88.944
X196.073Y-54.296
X196.427Y-85.408
X199.962Y-88.944
X203.498Y-92.48
X203.498Y-113.693
X207.033Y-96.015
X207.033Y-103.086
X207.033Y-110.157
X210.569Y-99.551
X210.569Y-106.622
X217.64Y-57.124
X221.176Y-53.589
X221.176Y-60.66
X221.176Y-124.299
X224.711Y-50.053
X224.711Y-57.124
X224.711Y-120.764
X224.711Y-127.835
X228.247Y-53.589
X228.247Y-117.228
X228.247Y-124.299
X231.782Y-120.764
X235.318Y-74.802
X237.439Y-112.632
X238.853Y-71.266
X238.853Y-78.337
X242.389Y-67.731
X242.389Y-74.802
X243.626Y-94.778
X245.924Y-71.266
T2
X178.182Y-80.777
X180.722Y-80.777
X183.262Y-80.777
X185.802Y-80.777
X206.584Y-54.91
X208.38Y-53.113
X210.176Y-51.317
X211.972Y-49.521
X215.208Y-110.183
X215.208Y-112.723
X215.208Y-115.263
X215.208Y-117.803
X241.068Y-89.394
X242.864Y-87.598
X244.66Y-85.802
X246.456Y-84.006
T3
X187.447Y-108.531
M30
