G04 #@! TF.GenerationSoftware,KiCad,Pcbnew,9.0.2*
G04 #@! TF.CreationDate,2025-09-01T17:34:04-04:00*
G04 #@! TF.ProjectId,Trackball,54726163-6b62-4616-9c6c-2e6b69636164,rev?*
G04 #@! TF.SameCoordinates,Original*
G04 #@! TF.FileFunction,Copper,L2,Bot*
G04 #@! TF.FilePolarity,Positive*
%FSLAX46Y46*%
G04 Gerber Fmt 4.6, Leading zero omitted, Abs format (unit mm)*
G04 Created by KiCad (PCBNEW 9.0.2) date 2025-09-01 17:34:04*
%MOMM*%
%LPD*%
G01*
G04 APERTURE LIST*
G04 Aperture macros list*
%AMRotRect*
0 Rectangle, with rotation*
0 The origin of the aperture is its center*
0 $1 length*
0 $2 width*
0 $3 Rotation angle, in degrees counterclockwise*
0 Add horizontal line*
21,1,$1,$2,0,0,$3*%
G04 Aperture macros list end*
G04 #@! TA.AperFunction,SMDPad,CuDef*
%ADD10RotRect,2.600000X2.600000X45.000000*%
G04 #@! TD*
G04 #@! TA.AperFunction,ComponentPad*
%ADD11RotRect,1.700000X1.700000X315.000000*%
G04 #@! TD*
G04 #@! TA.AperFunction,ComponentPad*
%ADD12C,1.700000*%
G04 #@! TD*
G04 #@! TA.AperFunction,ComponentPad*
%ADD13R,1.700000X1.700000*%
G04 #@! TD*
G04 #@! TA.AperFunction,SMDPad,CuDef*
%ADD14RotRect,2.600000X2.600000X225.000000*%
G04 #@! TD*
G04 #@! TA.AperFunction,ComponentPad*
%ADD15C,5.000000*%
G04 #@! TD*
G04 #@! TA.AperFunction,ViaPad*
%ADD16C,0.800000*%
G04 #@! TD*
G04 #@! TA.AperFunction,Conductor*
%ADD17C,0.250000*%
G04 #@! TD*
G04 APERTURE END LIST*
D10*
X186686452Y-52651747D03*
X176963734Y-59263195D03*
X206909706Y-46570629D03*
X197186988Y-53182077D03*
D11*
X211971884Y-49521385D03*
D12*
X210175833Y-51317436D03*
X208379782Y-53113487D03*
X206583730Y-54909539D03*
D11*
X246456067Y-84005568D03*
D12*
X244660016Y-85801619D03*
X242863965Y-87597670D03*
X241067913Y-89393722D03*
D13*
X178182007Y-80776919D03*
D12*
X180722007Y-80776919D03*
X183262006Y-80776919D03*
X185802007Y-80776919D03*
D13*
X215207604Y-117802516D03*
D12*
X215207604Y-115262516D03*
X215207604Y-112722517D03*
X215207604Y-110182516D03*
D14*
X238694156Y-113922549D03*
X248416874Y-107311101D03*
D15*
X187446592Y-108530860D03*
D14*
X244775274Y-93699295D03*
X254497992Y-87087847D03*
D16*
X228246653Y-53588663D03*
X242388789Y-67730799D03*
X203497916Y-92479536D03*
X185820246Y-88944002D03*
X217640052Y-57124197D03*
X171678111Y-67730799D03*
X199962382Y-88944002D03*
X224711119Y-120763807D03*
X178749179Y-67730799D03*
X207033450Y-96015070D03*
X175213645Y-64195265D03*
X171678111Y-74801866D03*
X228246653Y-124299341D03*
X207033450Y-110157205D03*
X238853255Y-71266333D03*
X238853255Y-78337400D03*
X210568984Y-99550604D03*
X196426848Y-85408468D03*
X189355780Y-85408468D03*
X175213645Y-71266333D03*
X203497916Y-113692739D03*
X221175586Y-60659731D03*
X235317721Y-74801866D03*
X242388789Y-74801866D03*
X182284713Y-92479536D03*
X224711119Y-127834875D03*
X207033450Y-103086138D03*
X168142577Y-71266333D03*
X224711119Y-50053129D03*
X192891314Y-88944002D03*
X210568984Y-106621672D03*
X245924323Y-71266333D03*
X231782187Y-120763807D03*
X221175586Y-124299341D03*
X221175586Y-53588663D03*
X224711119Y-57124197D03*
X228246653Y-117228273D03*
X178218849Y-60482954D03*
X196073295Y-54295770D03*
X237439042Y-112632079D03*
X243626226Y-94777633D03*
D17*
X176999089Y-59263195D02*
X176963734Y-59263195D01*
X178218849Y-60482954D02*
X176999089Y-59263195D01*
X196073295Y-54295770D02*
X197186988Y-53182077D01*
X237439042Y-112632079D02*
X238694156Y-113887194D01*
X238694156Y-113887194D02*
X238694156Y-113922549D01*
X243626226Y-94777633D02*
X244704564Y-93699295D01*
X244704564Y-93699295D02*
X244775274Y-93699295D01*
G04 #@! TA.AperFunction,Conductor*
G36*
X199559831Y-33953993D02*
G01*
X200742710Y-33983531D01*
X200746875Y-33983704D01*
X201928132Y-34052342D01*
X201932182Y-34052646D01*
X203110495Y-34160308D01*
X203114602Y-34160751D01*
X204288763Y-34307328D01*
X204292820Y-34307904D01*
X205463484Y-34493546D01*
X205463484Y-34493545D01*
X205463852Y-34493603D01*
X205471646Y-34494971D01*
X205471849Y-34494871D01*
X205490745Y-34497868D01*
X205490747Y-34497868D01*
X205490749Y-34497869D01*
X205515454Y-34501787D01*
X205525971Y-34502662D01*
X207086929Y-34869782D01*
X207089628Y-34870448D01*
X208702942Y-35288546D01*
X208705549Y-35289253D01*
X210308969Y-35743669D01*
X210311698Y-35744476D01*
X211904382Y-36234968D01*
X211907029Y-36235816D01*
X213488327Y-36762186D01*
X213490921Y-36763083D01*
X215059841Y-37324999D01*
X215062447Y-37325966D01*
X216618319Y-37923189D01*
X216620958Y-37924236D01*
X218162912Y-38556433D01*
X218165428Y-38557498D01*
X219692769Y-39224383D01*
X219695298Y-39225521D01*
X220867802Y-39769323D01*
X221207154Y-39926713D01*
X221209719Y-39927938D01*
X222705297Y-40663069D01*
X222707780Y-40664325D01*
X224059907Y-41367294D01*
X224186407Y-41433061D01*
X224188901Y-41434393D01*
X225649849Y-42236361D01*
X225652220Y-42237698D01*
X227094678Y-43072452D01*
X227097051Y-43073862D01*
X228520269Y-43940969D01*
X228522578Y-43942411D01*
X229323667Y-44455642D01*
X229925838Y-44841433D01*
X229928217Y-44842995D01*
X231310777Y-45773453D01*
X231313119Y-45775068D01*
X232674292Y-46736498D01*
X232676598Y-46738166D01*
X234015721Y-47730100D01*
X234017989Y-47731820D01*
X234550761Y-48145418D01*
X235334380Y-48753753D01*
X235336561Y-48755486D01*
X236629608Y-49806947D01*
X236631746Y-49808727D01*
X237900617Y-50889038D01*
X237902750Y-50890896D01*
X238910962Y-51789338D01*
X239146932Y-51999617D01*
X239149035Y-52001534D01*
X240367823Y-53138038D01*
X240369883Y-53140002D01*
X240746320Y-53507264D01*
X241483553Y-54226530D01*
X241562758Y-54303804D01*
X241564764Y-54305807D01*
X242389235Y-55147357D01*
X242730970Y-55496171D01*
X242732939Y-55498226D01*
X243872023Y-56714689D01*
X243873944Y-56716788D01*
X244200124Y-57081287D01*
X244985251Y-57958648D01*
X244987072Y-57960730D01*
X245976928Y-59118461D01*
X246070070Y-59227399D01*
X246071895Y-59229583D01*
X247125972Y-60520341D01*
X247127747Y-60522565D01*
X248152425Y-61836826D01*
X248154149Y-61839090D01*
X249072161Y-63073032D01*
X249148852Y-63176115D01*
X249150525Y-63178417D01*
X250114819Y-64537624D01*
X250116439Y-64539964D01*
X251049748Y-65920539D01*
X251051315Y-65922914D01*
X251953227Y-67324248D01*
X251954740Y-67326658D01*
X252824781Y-68748015D01*
X252826239Y-68750459D01*
X253663934Y-70191063D01*
X253665337Y-70193539D01*
X254470302Y-71652727D01*
X254471649Y-71655235D01*
X255243450Y-73132227D01*
X255244739Y-73134763D01*
X255982987Y-74628809D01*
X255984219Y-74631375D01*
X256688539Y-76141716D01*
X256689712Y-76144309D01*
X257359732Y-77670152D01*
X257360847Y-77672770D01*
X257996248Y-79213381D01*
X257997296Y-79216008D01*
X258097728Y-79476029D01*
X258597726Y-80770540D01*
X258598722Y-80773206D01*
X259163921Y-82340988D01*
X259164855Y-82343676D01*
X259694468Y-83923716D01*
X259695342Y-83926424D01*
X260189147Y-85518062D01*
X260189960Y-85520790D01*
X260647693Y-87123178D01*
X260648444Y-87125922D01*
X260832551Y-87830284D01*
X261055165Y-88681971D01*
X261069881Y-88738270D01*
X261070569Y-88741032D01*
X261454609Y-90358804D01*
X261456370Y-90367609D01*
X261643764Y-91515729D01*
X261644360Y-91519793D01*
X261794605Y-92676296D01*
X261795068Y-92680378D01*
X261907535Y-93841178D01*
X261907864Y-93845273D01*
X261982430Y-95009079D01*
X261982626Y-95013182D01*
X262019217Y-96178827D01*
X262019279Y-96182934D01*
X262017854Y-97349150D01*
X262017782Y-97353257D01*
X261978342Y-98518808D01*
X261978136Y-98522911D01*
X261900726Y-99686537D01*
X261900387Y-99690630D01*
X261785083Y-100851148D01*
X261784610Y-100855229D01*
X261631539Y-102011363D01*
X261630933Y-102015426D01*
X261440264Y-103165914D01*
X261439527Y-103169955D01*
X261211448Y-104313667D01*
X261210579Y-104317682D01*
X260945344Y-105453326D01*
X260944345Y-105457310D01*
X260642228Y-106583725D01*
X260641099Y-106587675D01*
X260302427Y-107703636D01*
X260301170Y-107707546D01*
X259926314Y-108811838D01*
X259924931Y-108815706D01*
X259514258Y-109907239D01*
X259512749Y-109911060D01*
X259066715Y-110988625D01*
X259065082Y-110992394D01*
X258584169Y-112054830D01*
X258582414Y-112058544D01*
X258067124Y-113104736D01*
X258065249Y-113108391D01*
X257516130Y-114137231D01*
X257514137Y-114140823D01*
X256931770Y-115151222D01*
X256929661Y-115154747D01*
X256314675Y-116145613D01*
X256312453Y-116149067D01*
X255665477Y-117119386D01*
X255663142Y-117122767D01*
X254984894Y-118071463D01*
X254982451Y-118074765D01*
X254273645Y-119000839D01*
X254271096Y-119004060D01*
X253532462Y-119906559D01*
X253529808Y-119909695D01*
X252762142Y-120787643D01*
X252759389Y-120790690D01*
X251963545Y-121643114D01*
X251960693Y-121646071D01*
X251137458Y-122472127D01*
X251134511Y-122474989D01*
X250284799Y-123273759D01*
X250281761Y-123276523D01*
X249406462Y-124047173D01*
X249403335Y-124049837D01*
X248503386Y-124791538D01*
X248500174Y-124794099D01*
X247576496Y-125506096D01*
X247573202Y-125508550D01*
X246626847Y-126190030D01*
X246623475Y-126192376D01*
X245655367Y-126842672D01*
X245651920Y-126844906D01*
X244663164Y-127463277D01*
X244659646Y-127465398D01*
X243651269Y-128051205D01*
X243647684Y-128053211D01*
X242620703Y-128605859D01*
X242617055Y-128607746D01*
X241572608Y-129126624D01*
X241568899Y-129128391D01*
X240508151Y-129612920D01*
X240504388Y-129614566D01*
X239428345Y-130064287D01*
X239424529Y-130065809D01*
X238334434Y-130480203D01*
X238330571Y-130481600D01*
X237227532Y-130860244D01*
X237223626Y-130861514D01*
X236108829Y-131204002D01*
X236104883Y-131205144D01*
X234979530Y-131511107D01*
X234975549Y-131512120D01*
X233840819Y-131781238D01*
X233836807Y-131782121D01*
X232693881Y-132014112D01*
X232689843Y-132014863D01*
X231540008Y-132209468D01*
X231535947Y-132210088D01*
X230380314Y-132367116D01*
X230376235Y-132367602D01*
X229216175Y-132486870D01*
X229212083Y-132487224D01*
X228048699Y-132568616D01*
X228044597Y-132568836D01*
X226879186Y-132612263D01*
X226875079Y-132612349D01*
X225708876Y-132617763D01*
X225704769Y-132617715D01*
X224539007Y-132585113D01*
X224534903Y-132584931D01*
X223370848Y-132514346D01*
X223366752Y-132514031D01*
X222205574Y-132405536D01*
X222201491Y-132405087D01*
X221311535Y-132292564D01*
X221044477Y-132258799D01*
X221040433Y-132258220D01*
X220493851Y-132170926D01*
X219891986Y-132074803D01*
X219882957Y-132073021D01*
X218536445Y-131755712D01*
X218262203Y-131691087D01*
X218259445Y-131690404D01*
X216644177Y-131270983D01*
X216641427Y-131270235D01*
X215036129Y-130814407D01*
X215033396Y-130813598D01*
X213438755Y-130321560D01*
X213436041Y-130320689D01*
X211852951Y-129792714D01*
X211850258Y-129791782D01*
X210279499Y-129228132D01*
X210276828Y-129227139D01*
X210020063Y-129128391D01*
X208719259Y-128628120D01*
X208716610Y-128627067D01*
X207172928Y-127992948D01*
X207170305Y-127991835D01*
X205641411Y-127322987D01*
X205638813Y-127321815D01*
X204125444Y-126618561D01*
X204122873Y-126617331D01*
X202625781Y-125880019D01*
X202623238Y-125878731D01*
X201143184Y-125107738D01*
X201140672Y-125106393D01*
X200570631Y-124792854D01*
X199678447Y-124302126D01*
X199675973Y-124300729D01*
X198232330Y-123463607D01*
X198229881Y-123462150D01*
X197506219Y-123020354D01*
X196805467Y-122592544D01*
X196803096Y-122591059D01*
X195398808Y-121689520D01*
X195396427Y-121687954D01*
X194065982Y-120790690D01*
X194012791Y-120754817D01*
X194010488Y-120753225D01*
X193369078Y-120299215D01*
X192648387Y-119789086D01*
X192646080Y-119787413D01*
X192545433Y-119712698D01*
X192545414Y-119712685D01*
X192415797Y-119616465D01*
X240226729Y-119616465D01*
X240226729Y-119789829D01*
X240245714Y-119909695D01*
X240253850Y-119961064D01*
X240307419Y-120125933D01*
X240307421Y-120125938D01*
X240307422Y-120125939D01*
X240386129Y-120280410D01*
X240488029Y-120420663D01*
X240610612Y-120543246D01*
X240610615Y-120543248D01*
X240750869Y-120645149D01*
X240905338Y-120723855D01*
X241070211Y-120777425D01*
X241070212Y-120777425D01*
X241070217Y-120777427D01*
X241241447Y-120804547D01*
X241241450Y-120804547D01*
X241414808Y-120804547D01*
X241414811Y-120804547D01*
X241586041Y-120777427D01*
X241750920Y-120723855D01*
X241905389Y-120645149D01*
X242045643Y-120543248D01*
X242168230Y-120420661D01*
X242270131Y-120280407D01*
X242348837Y-120125938D01*
X242402409Y-119961059D01*
X242429529Y-119789829D01*
X242429529Y-119616465D01*
X242402409Y-119445235D01*
X242348837Y-119280356D01*
X242270131Y-119125887D01*
X242168230Y-118985633D01*
X242168228Y-118985630D01*
X242045645Y-118863047D01*
X241905392Y-118761147D01*
X241905391Y-118761146D01*
X241905389Y-118761145D01*
X241750920Y-118682439D01*
X241750917Y-118682438D01*
X241750915Y-118682437D01*
X241586044Y-118628868D01*
X241586048Y-118628868D01*
X241554170Y-118623819D01*
X241414811Y-118601747D01*
X241241447Y-118601747D01*
X241070217Y-118628867D01*
X241070211Y-118628868D01*
X240905342Y-118682437D01*
X240905336Y-118682440D01*
X240750865Y-118761147D01*
X240610612Y-118863047D01*
X240488029Y-118985630D01*
X240386129Y-119125883D01*
X240307422Y-119280354D01*
X240307419Y-119280360D01*
X240253850Y-119445229D01*
X240253849Y-119445234D01*
X240253849Y-119445235D01*
X240226729Y-119616465D01*
X192415797Y-119616465D01*
X191306096Y-118792687D01*
X191303827Y-118790962D01*
X191265503Y-118761145D01*
X190003238Y-117779060D01*
X189986749Y-117766231D01*
X189984519Y-117764456D01*
X189395190Y-117284152D01*
X188690845Y-116710109D01*
X188688735Y-116708349D01*
X187419256Y-115625027D01*
X187417147Y-115623185D01*
X186657217Y-114944394D01*
X186172509Y-114511438D01*
X186170421Y-114509530D01*
X185890329Y-114247717D01*
X184951311Y-113369979D01*
X184949251Y-113368010D01*
X184639837Y-113065388D01*
X183756169Y-112201119D01*
X183754167Y-112199116D01*
X183726361Y-112170662D01*
X183035354Y-111463545D01*
X182587818Y-111005575D01*
X182585849Y-111003514D01*
X181797923Y-110159863D01*
X181446782Y-109783887D01*
X181444869Y-109781792D01*
X181432217Y-109767616D01*
X180333682Y-108536718D01*
X180331815Y-108534578D01*
X179249053Y-107264667D01*
X179247229Y-107262477D01*
X178460018Y-106295741D01*
X178193503Y-105968446D01*
X178191748Y-105966241D01*
X178103757Y-105853048D01*
X177502090Y-105079052D01*
X177167516Y-104648650D01*
X177165793Y-104646380D01*
X176171675Y-103306033D01*
X176170003Y-103303725D01*
X176089728Y-103190213D01*
X175501439Y-102358352D01*
X185637025Y-102358352D01*
X185637025Y-102358395D01*
X185655217Y-102917312D01*
X185712602Y-103473584D01*
X185808894Y-104024454D01*
X185808896Y-104024464D01*
X185943619Y-104567207D01*
X185943626Y-104567234D01*
X186116115Y-105099172D01*
X186116117Y-105099177D01*
X186219011Y-105353835D01*
X186219011Y-105359442D01*
X186222809Y-105363240D01*
X186223969Y-105366111D01*
X186227291Y-105368187D01*
X186228670Y-105371147D01*
X186238678Y-105379109D01*
X190608487Y-109748918D01*
X190611341Y-109753483D01*
X190614211Y-109754642D01*
X190618010Y-109758441D01*
X190634642Y-109765330D01*
X190646402Y-109767616D01*
X190878286Y-109861306D01*
X191410247Y-110033796D01*
X191953004Y-110168518D01*
X192503879Y-110264807D01*
X193060154Y-110322187D01*
X193619086Y-110340375D01*
X193619112Y-110340374D01*
X193619114Y-110340374D01*
X194100951Y-110322187D01*
X194177915Y-110319282D01*
X194733871Y-110259014D01*
X194733877Y-110259012D01*
X194733885Y-110259012D01*
X195284252Y-110159863D01*
X195616332Y-110075600D01*
X213849104Y-110075600D01*
X213849104Y-110289432D01*
X213874552Y-110450101D01*
X213882556Y-110500637D01*
X213925290Y-110632159D01*
X213948632Y-110703999D01*
X214023377Y-110850694D01*
X214045712Y-110894528D01*
X214052787Y-110904266D01*
X214171398Y-111067520D01*
X214171400Y-111067522D01*
X214171402Y-111067525D01*
X214322594Y-111218717D01*
X214322597Y-111218719D01*
X214322600Y-111218722D01*
X214495595Y-111344410D01*
X214495600Y-111344412D01*
X214496692Y-111345082D01*
X214497022Y-111345447D01*
X214499600Y-111347320D01*
X214499206Y-111347861D01*
X214544325Y-111397729D01*
X214555932Y-111467771D01*
X214527830Y-111532969D01*
X214499475Y-111557541D01*
X214499600Y-111557713D01*
X214497607Y-111559160D01*
X214496707Y-111559941D01*
X214495596Y-111560621D01*
X214322597Y-111686313D01*
X214322594Y-111686315D01*
X214171402Y-111837507D01*
X214171400Y-111837510D01*
X214045712Y-112010504D01*
X213948633Y-112201032D01*
X213948630Y-112201038D01*
X213882556Y-112404395D01*
X213882555Y-112404400D01*
X213882555Y-112404401D01*
X213849104Y-112615601D01*
X213849104Y-112829433D01*
X213882555Y-113040633D01*
X213882556Y-113040638D01*
X213937979Y-113211214D01*
X213948632Y-113244000D01*
X214045710Y-113434526D01*
X214171398Y-113607521D01*
X214171400Y-113607523D01*
X214171402Y-113607526D01*
X214322594Y-113758718D01*
X214322597Y-113758720D01*
X214322600Y-113758723D01*
X214495595Y-113884411D01*
X214495607Y-113884417D01*
X214496686Y-113885079D01*
X214497015Y-113885443D01*
X214499600Y-113887321D01*
X214499205Y-113887863D01*
X214544321Y-113937723D01*
X214555932Y-114007764D01*
X214527833Y-114072964D01*
X214499474Y-114097539D01*
X214499600Y-114097712D01*
X214497592Y-114099170D01*
X214496700Y-114099944D01*
X214495599Y-114100618D01*
X214322597Y-114226312D01*
X214322594Y-114226314D01*
X214171402Y-114377506D01*
X214171400Y-114377509D01*
X214045712Y-114550503D01*
X213948633Y-114741031D01*
X213948630Y-114741037D01*
X213882556Y-114944394D01*
X213882555Y-114944399D01*
X213882555Y-114944400D01*
X213849104Y-115155600D01*
X213849104Y-115369432D01*
X213858679Y-115429885D01*
X213882556Y-115580637D01*
X213948630Y-115783994D01*
X213948632Y-115783999D01*
X214045710Y-115974525D01*
X214171398Y-116147520D01*
X214171400Y-116147522D01*
X214171402Y-116147525D01*
X214274374Y-116250497D01*
X214308400Y-116312809D01*
X214303335Y-116383624D01*
X214260788Y-116440460D01*
X214229312Y-116457647D01*
X214111401Y-116501626D01*
X214111396Y-116501628D01*
X213994342Y-116589254D01*
X213906716Y-116706308D01*
X213906714Y-116706313D01*
X213855615Y-116843311D01*
X213855613Y-116843319D01*
X213849104Y-116903866D01*
X213849104Y-118701165D01*
X213855613Y-118761712D01*
X213855615Y-118761720D01*
X213906714Y-118898718D01*
X213906716Y-118898723D01*
X213994342Y-119015777D01*
X214111396Y-119103403D01*
X214111398Y-119103404D01*
X214111400Y-119103405D01*
X214170479Y-119125440D01*
X214248399Y-119154504D01*
X214248407Y-119154506D01*
X214308954Y-119161015D01*
X214308959Y-119161015D01*
X214308966Y-119161016D01*
X214308972Y-119161016D01*
X216106236Y-119161016D01*
X216106242Y-119161016D01*
X216106249Y-119161015D01*
X216106253Y-119161015D01*
X216166800Y-119154506D01*
X216166803Y-119154505D01*
X216166805Y-119154505D01*
X216303808Y-119103405D01*
X216420865Y-119015777D01*
X216430817Y-119002483D01*
X216508491Y-118898723D01*
X216508491Y-118898722D01*
X216508493Y-118898720D01*
X216559593Y-118761717D01*
X216559655Y-118761147D01*
X216566103Y-118701165D01*
X216566104Y-118701148D01*
X216566104Y-116903883D01*
X216566103Y-116903866D01*
X216559594Y-116843319D01*
X216559592Y-116843311D01*
X216508493Y-116706313D01*
X216508491Y-116706308D01*
X216420865Y-116589254D01*
X216303811Y-116501628D01*
X216303807Y-116501626D01*
X216185895Y-116457647D01*
X216129059Y-116415101D01*
X216104249Y-116348580D01*
X216119341Y-116279206D01*
X216140830Y-116250499D01*
X216243810Y-116147520D01*
X216369498Y-115974525D01*
X216466576Y-115783999D01*
X216532653Y-115580632D01*
X216566104Y-115369432D01*
X216566104Y-115155600D01*
X216532653Y-114944400D01*
X216466576Y-114741033D01*
X216369498Y-114550507D01*
X216243810Y-114377512D01*
X216243807Y-114377509D01*
X216243805Y-114377506D01*
X216092613Y-114226314D01*
X216092610Y-114226312D01*
X216092608Y-114226310D01*
X215919613Y-114100622D01*
X215919611Y-114100621D01*
X215918516Y-114099950D01*
X215918185Y-114099584D01*
X215915608Y-114097712D01*
X215916001Y-114097170D01*
X215895985Y-114075048D01*
X215872698Y-114050911D01*
X215872289Y-114048857D01*
X215870883Y-114047303D01*
X215865395Y-114014187D01*
X215858851Y-113981278D01*
X215859618Y-113979327D01*
X215859276Y-113977261D01*
X215872559Y-113946443D01*
X215881962Y-113922549D01*
X236341950Y-113922549D01*
X236362759Y-114067283D01*
X236423502Y-114200292D01*
X236461722Y-114247721D01*
X236461727Y-114247726D01*
X236461736Y-114247736D01*
X238368968Y-116154968D01*
X238368977Y-116154976D01*
X238368984Y-116154983D01*
X238416413Y-116193203D01*
X238549422Y-116253946D01*
X238694156Y-116274755D01*
X238838890Y-116253946D01*
X238971899Y-116193203D01*
X239019328Y-116154983D01*
X239231465Y-115942846D01*
X239489048Y-115685264D01*
X243252216Y-115685264D01*
X243252216Y-115942855D01*
X243285836Y-116198227D01*
X243285837Y-116198233D01*
X243285838Y-116198235D01*
X243352506Y-116447044D01*
X243451080Y-116685022D01*
X243451081Y-116685023D01*
X243451086Y-116685034D01*
X243579875Y-116908103D01*
X243736676Y-117112448D01*
X243736695Y-117112469D01*
X243918806Y-117294580D01*
X243918816Y-117294589D01*
X243918822Y-117294595D01*
X243918825Y-117294597D01*
X243918827Y-117294599D01*
X244123172Y-117451400D01*
X244346241Y-117580189D01*
X244346245Y-117580190D01*
X244346254Y-117580196D01*
X244584232Y-117678770D01*
X244833041Y-117745438D01*
X244833047Y-117745438D01*
X244833048Y-117745439D01*
X244862350Y-117749296D01*
X245088423Y-117779060D01*
X245088430Y-117779060D01*
X245346002Y-117779060D01*
X245346009Y-117779060D01*
X245601391Y-117745438D01*
X245850200Y-117678770D01*
X246088178Y-117580196D01*
X246311254Y-117451403D01*
X246311254Y-117451402D01*
X246311259Y-117451400D01*
X246429933Y-117360337D01*
X246515610Y-117294595D01*
X246697751Y-117112454D01*
X246763493Y-117026777D01*
X246854556Y-116908103D01*
X246856993Y-116903883D01*
X246983352Y-116685022D01*
X247081926Y-116447044D01*
X247148594Y-116198235D01*
X247182216Y-115942853D01*
X247182216Y-115685267D01*
X247148594Y-115429885D01*
X247081926Y-115181076D01*
X246983352Y-114943098D01*
X246983346Y-114943089D01*
X246983345Y-114943085D01*
X246854556Y-114720016D01*
X246697755Y-114515671D01*
X246697753Y-114515669D01*
X246697751Y-114515666D01*
X246697745Y-114515660D01*
X246697736Y-114515650D01*
X246515625Y-114333539D01*
X246515604Y-114333520D01*
X246311259Y-114176719D01*
X246088190Y-114047930D01*
X246088182Y-114047926D01*
X246088178Y-114047924D01*
X245850200Y-113949350D01*
X245601391Y-113882682D01*
X245601389Y-113882681D01*
X245601383Y-113882680D01*
X245346011Y-113849060D01*
X245346009Y-113849060D01*
X245088423Y-113849060D01*
X245088420Y-113849060D01*
X244833048Y-113882680D01*
X244815728Y-113887321D01*
X244584232Y-113949350D01*
X244347754Y-114047303D01*
X244346252Y-114047925D01*
X244346241Y-114047930D01*
X244123172Y-114176719D01*
X243918827Y-114333520D01*
X243918806Y-114333539D01*
X243736695Y-114515650D01*
X243736676Y-114515671D01*
X243579875Y-114720016D01*
X243451086Y-114943085D01*
X243451081Y-114943096D01*
X243352506Y-115181076D01*
X243285836Y-115429892D01*
X243252216Y-115685264D01*
X239489048Y-115685264D01*
X239582265Y-115592047D01*
X240926575Y-114247736D01*
X240926590Y-114247721D01*
X240964810Y-114200292D01*
X241025553Y-114067283D01*
X241046362Y-113922549D01*
X241025553Y-113777815D01*
X240964810Y-113644806D01*
X240926590Y-113597377D01*
X240926583Y-113597370D01*
X240926575Y-113597361D01*
X240901584Y-113572370D01*
X240867558Y-113510058D01*
X240872623Y-113439243D01*
X240915170Y-113382407D01*
X240981690Y-113357596D01*
X240990679Y-113357275D01*
X241124658Y-113357275D01*
X241124665Y-113357275D01*
X241331038Y-113330105D01*
X241352162Y-113327324D01*
X241352162Y-113327323D01*
X241352169Y-113327323D01*
X241573818Y-113267933D01*
X241785819Y-113180119D01*
X241984543Y-113065386D01*
X242166592Y-112925694D01*
X242328850Y-112763436D01*
X242468542Y-112581387D01*
X242583275Y-112382663D01*
X242671089Y-112170662D01*
X242730479Y-111949013D01*
X242745056Y-111838291D01*
X248004903Y-111838291D01*
X248004903Y-112011655D01*
X248030087Y-112170661D01*
X248032024Y-112182890D01*
X248038150Y-112201743D01*
X248085595Y-112347764D01*
X248164301Y-112502233D01*
X248164303Y-112502236D01*
X248266203Y-112642489D01*
X248388786Y-112765072D01*
X248388789Y-112765074D01*
X248529043Y-112866975D01*
X248683512Y-112945681D01*
X248848385Y-112999251D01*
X248848386Y-112999251D01*
X248848391Y-112999253D01*
X249019621Y-113026373D01*
X249019624Y-113026373D01*
X249192982Y-113026373D01*
X249192985Y-113026373D01*
X249364215Y-112999253D01*
X249529094Y-112945681D01*
X249683563Y-112866975D01*
X249823817Y-112765074D01*
X249946404Y-112642487D01*
X250048305Y-112502233D01*
X250127011Y-112347764D01*
X250180583Y-112182885D01*
X250207703Y-112011655D01*
X250207703Y-111838291D01*
X250180583Y-111667061D01*
X250127011Y-111502182D01*
X250048305Y-111347713D01*
X249954585Y-111218719D01*
X249946402Y-111207456D01*
X249823819Y-111084873D01*
X249683566Y-110982973D01*
X249683565Y-110982972D01*
X249683563Y-110982971D01*
X249529094Y-110904265D01*
X249529091Y-110904264D01*
X249529089Y-110904263D01*
X249364218Y-110850694D01*
X249364222Y-110850694D01*
X249332344Y-110845645D01*
X249192985Y-110823573D01*
X249019621Y-110823573D01*
X248848391Y-110850693D01*
X248848385Y-110850694D01*
X248683516Y-110904263D01*
X248683510Y-110904266D01*
X248529039Y-110982973D01*
X248388786Y-111084873D01*
X248266203Y-111207456D01*
X248164303Y-111347709D01*
X248085596Y-111502180D01*
X248085593Y-111502186D01*
X248032024Y-111667055D01*
X248032023Y-111667060D01*
X248032023Y-111667061D01*
X248004903Y-111838291D01*
X242745056Y-111838291D01*
X242760431Y-111721509D01*
X242760431Y-111492041D01*
X242738198Y-111323173D01*
X242730480Y-111264543D01*
X242730479Y-111264541D01*
X242730479Y-111264537D01*
X242671089Y-111042888D01*
X242583275Y-110830887D01*
X242583269Y-110830878D01*
X242583268Y-110830874D01*
X242468544Y-110632166D01*
X242468539Y-110632159D01*
X242328857Y-110450122D01*
X242328838Y-110450101D01*
X242166604Y-110287867D01*
X242166583Y-110287848D01*
X241984546Y-110148166D01*
X241984539Y-110148161D01*
X241785831Y-110033437D01*
X241785823Y-110033433D01*
X241785819Y-110033431D01*
X241573818Y-109945617D01*
X241352169Y-109886227D01*
X241352162Y-109886225D01*
X241124667Y-109856275D01*
X241124665Y-109856275D01*
X240895197Y-109856275D01*
X240895194Y-109856275D01*
X240667699Y-109886225D01*
X240446044Y-109945617D01*
X240260863Y-110022322D01*
X240234041Y-110033432D01*
X240234030Y-110033437D01*
X240035322Y-110148161D01*
X240035315Y-110148166D01*
X239853278Y-110287848D01*
X239853257Y-110287867D01*
X239691023Y-110450101D01*
X239691004Y-110450122D01*
X239551322Y-110632159D01*
X239551317Y-110632166D01*
X239436593Y-110830874D01*
X239436588Y-110830885D01*
X239436587Y-110830887D01*
X239373592Y-110982971D01*
X239348773Y-111042888D01*
X239289381Y-111264543D01*
X239259431Y-111492038D01*
X239259431Y-111626027D01*
X239239429Y-111694148D01*
X239185773Y-111740641D01*
X239115499Y-111750745D01*
X239050919Y-111721251D01*
X239044336Y-111715122D01*
X239019343Y-111690129D01*
X239019333Y-111690120D01*
X239019328Y-111690115D01*
X238971899Y-111651895D01*
X238838890Y-111591152D01*
X238694156Y-111570343D01*
X238549421Y-111591152D01*
X238416412Y-111651895D01*
X238368987Y-111690112D01*
X238368978Y-111690120D01*
X238159945Y-111899153D01*
X238097633Y-111933178D01*
X238026817Y-111928113D01*
X238000848Y-111914822D01*
X237886315Y-111838294D01*
X237869378Y-111826977D01*
X237752471Y-111778552D01*
X237704045Y-111758493D01*
X237704043Y-111758492D01*
X237704042Y-111758492D01*
X237614298Y-111740641D01*
X237528523Y-111723579D01*
X237528521Y-111723579D01*
X237349563Y-111723579D01*
X237349560Y-111723579D01*
X237218813Y-111749586D01*
X237174042Y-111758492D01*
X237174041Y-111758492D01*
X237174038Y-111758493D01*
X237008704Y-111826978D01*
X236859911Y-111926398D01*
X236859904Y-111926403D01*
X236733366Y-112052941D01*
X236733361Y-112052948D01*
X236633941Y-112201741D01*
X236565456Y-112367075D01*
X236530542Y-112542597D01*
X236530542Y-112542600D01*
X236530542Y-112721558D01*
X236565455Y-112897079D01*
X236633940Y-113062415D01*
X236664660Y-113108391D01*
X236721785Y-113193885D01*
X236743000Y-113261638D01*
X236724217Y-113330105D01*
X236706116Y-113352982D01*
X236461727Y-113597371D01*
X236461719Y-113597380D01*
X236423502Y-113644805D01*
X236420531Y-113651312D01*
X236362759Y-113777815D01*
X236341950Y-113922549D01*
X215881962Y-113922549D01*
X215884849Y-113915213D01*
X215886755Y-113913506D01*
X215887378Y-113912063D01*
X215910659Y-113890312D01*
X215916988Y-113885748D01*
X215919613Y-113884411D01*
X216092608Y-113758723D01*
X216243810Y-113607521D01*
X216369498Y-113434526D01*
X216466576Y-113244000D01*
X216532653Y-113040633D01*
X216566104Y-112829433D01*
X216566104Y-112615601D01*
X216532653Y-112404401D01*
X216466576Y-112201034D01*
X216369498Y-112010508D01*
X216243810Y-111837513D01*
X216243807Y-111837510D01*
X216243805Y-111837507D01*
X216092613Y-111686315D01*
X216092610Y-111686313D01*
X216092608Y-111686311D01*
X215961633Y-111591152D01*
X215919611Y-111560621D01*
X215918509Y-111559946D01*
X215918178Y-111559580D01*
X215915608Y-111557713D01*
X215916000Y-111557172D01*
X215870880Y-111507297D01*
X215859276Y-111437255D01*
X215887381Y-111372058D01*
X215915734Y-111347493D01*
X215915608Y-111347320D01*
X215917634Y-111345847D01*
X215918524Y-111345077D01*
X215919601Y-111344415D01*
X215919613Y-111344410D01*
X216092608Y-111218722D01*
X216243810Y-111067520D01*
X216369498Y-110894525D01*
X216466576Y-110703999D01*
X216532653Y-110500632D01*
X216566104Y-110289432D01*
X216566104Y-110075600D01*
X216532653Y-109864400D01*
X216466576Y-109661033D01*
X216390711Y-109512139D01*
X244350599Y-109512139D01*
X244350599Y-109741612D01*
X244380549Y-109969107D01*
X244380551Y-109969114D01*
X244439941Y-110190763D01*
X244527755Y-110402764D01*
X244527756Y-110402765D01*
X244527761Y-110402776D01*
X244642485Y-110601484D01*
X244642490Y-110601491D01*
X244782172Y-110783528D01*
X244782191Y-110783549D01*
X244944425Y-110945783D01*
X244944446Y-110945802D01*
X245126483Y-111085484D01*
X245126490Y-111085489D01*
X245325198Y-111200213D01*
X245325202Y-111200214D01*
X245325211Y-111200220D01*
X245537212Y-111288034D01*
X245758861Y-111347424D01*
X245758865Y-111347424D01*
X245758867Y-111347425D01*
X245817497Y-111355143D01*
X245986365Y-111377376D01*
X245986372Y-111377376D01*
X246215826Y-111377376D01*
X246215833Y-111377376D01*
X246441142Y-111347713D01*
X246443330Y-111347425D01*
X246443330Y-111347424D01*
X246443337Y-111347424D01*
X246664986Y-111288034D01*
X246876987Y-111200220D01*
X247075711Y-111085487D01*
X247257760Y-110945795D01*
X247420018Y-110783537D01*
X247559710Y-110601488D01*
X247674443Y-110402764D01*
X247762257Y-110190763D01*
X247821647Y-109969114D01*
X247851599Y-109741610D01*
X247851599Y-109606914D01*
X247871601Y-109538793D01*
X247925257Y-109492300D01*
X247995531Y-109482196D01*
X248060111Y-109511690D01*
X248066696Y-109517820D01*
X248092017Y-109543142D01*
X248092025Y-109543149D01*
X248139404Y-109581329D01*
X248272282Y-109642012D01*
X248272281Y-109642012D01*
X248416874Y-109662801D01*
X248561466Y-109642012D01*
X248694343Y-109581329D01*
X248741722Y-109543149D01*
X248741741Y-109543132D01*
X249515718Y-108769156D01*
X249515718Y-108769154D01*
X248237269Y-107490706D01*
X248094568Y-107348005D01*
X248057663Y-107311100D01*
X248776084Y-107311100D01*
X248776084Y-107311102D01*
X249874927Y-108409945D01*
X249874929Y-108409945D01*
X250648905Y-107635968D01*
X250648922Y-107635949D01*
X250687102Y-107588570D01*
X250747785Y-107455693D01*
X250768574Y-107311101D01*
X250747785Y-107166508D01*
X250687102Y-107033631D01*
X250648922Y-106986252D01*
X250648905Y-106986233D01*
X249874929Y-106212257D01*
X249874927Y-106212257D01*
X248776084Y-107311100D01*
X248057663Y-107311100D01*
X246958821Y-106212257D01*
X246958819Y-106212257D01*
X246184842Y-106986233D01*
X246184825Y-106986252D01*
X246146645Y-107033631D01*
X246085962Y-107166508D01*
X246065173Y-107311101D01*
X246085962Y-107455693D01*
X246146645Y-107588570D01*
X246184825Y-107635949D01*
X246184842Y-107635968D01*
X246210155Y-107661281D01*
X246244181Y-107723593D01*
X246239116Y-107794408D01*
X246196569Y-107851244D01*
X246130049Y-107876055D01*
X246121060Y-107876376D01*
X245986362Y-107876376D01*
X245758867Y-107906326D01*
X245537212Y-107965718D01*
X245325209Y-108053533D01*
X245325198Y-108053538D01*
X245126490Y-108168262D01*
X245126483Y-108168267D01*
X244944446Y-108307949D01*
X244944425Y-108307968D01*
X244782191Y-108470202D01*
X244782172Y-108470223D01*
X244642490Y-108652260D01*
X244642485Y-108652267D01*
X244527761Y-108850975D01*
X244527756Y-108850986D01*
X244439941Y-109062989D01*
X244380549Y-109284644D01*
X244350599Y-109512139D01*
X216390711Y-109512139D01*
X216369498Y-109470507D01*
X216243810Y-109297512D01*
X216243807Y-109297509D01*
X216243805Y-109297506D01*
X216092613Y-109146314D01*
X216092610Y-109146312D01*
X216092608Y-109146310D01*
X215919613Y-109020622D01*
X215729087Y-108923544D01*
X215729084Y-108923543D01*
X215729082Y-108923542D01*
X215525724Y-108857468D01*
X215525727Y-108857468D01*
X215484731Y-108850975D01*
X215314520Y-108824016D01*
X215100688Y-108824016D01*
X214930395Y-108850988D01*
X214889482Y-108857468D01*
X214686125Y-108923542D01*
X214686119Y-108923545D01*
X214495591Y-109020624D01*
X214322597Y-109146312D01*
X214322594Y-109146314D01*
X214171402Y-109297506D01*
X214171400Y-109297509D01*
X214045712Y-109470503D01*
X213948633Y-109661031D01*
X213948630Y-109661037D01*
X213882556Y-109864394D01*
X213882555Y-109864399D01*
X213882555Y-109864400D01*
X213849104Y-110075600D01*
X195616332Y-110075600D01*
X195826301Y-110022322D01*
X195999051Y-109965313D01*
X196042437Y-109950996D01*
X196163452Y-109911060D01*
X196357358Y-109847070D01*
X196874803Y-109634970D01*
X197376081Y-109387070D01*
X197858721Y-109104592D01*
X198320340Y-108788930D01*
X198758662Y-108441642D01*
X199171522Y-108064440D01*
X199556885Y-107659187D01*
X199912849Y-107227881D01*
X200237658Y-106772651D01*
X200529709Y-106295743D01*
X200759743Y-105853046D01*
X247318030Y-105853046D01*
X247318030Y-105853048D01*
X248416873Y-106951891D01*
X248416875Y-106951891D01*
X249515718Y-105853048D01*
X249515718Y-105853046D01*
X248741741Y-105079069D01*
X248741722Y-105079052D01*
X248694343Y-105040872D01*
X248561465Y-104980189D01*
X248561466Y-104980189D01*
X248416874Y-104959400D01*
X248272281Y-104980189D01*
X248139404Y-105040872D01*
X248092025Y-105079052D01*
X248092006Y-105079069D01*
X247318030Y-105853046D01*
X200759743Y-105853046D01*
X200787561Y-105799510D01*
X201009941Y-105286400D01*
X201195754Y-104758945D01*
X201344081Y-104219748D01*
X201454191Y-103671468D01*
X201525540Y-103116811D01*
X201557778Y-102558514D01*
X201550744Y-101999331D01*
X201504473Y-101442022D01*
X201448526Y-101079434D01*
X201419197Y-100889353D01*
X201419195Y-100889347D01*
X201419194Y-100889335D01*
X201295327Y-100343999D01*
X201133484Y-99808703D01*
X200989375Y-99430283D01*
X227424930Y-99430283D01*
X227424930Y-99434655D01*
X227424930Y-99670925D01*
X227461636Y-99902679D01*
X227462576Y-99908611D01*
X227536936Y-100137467D01*
X227536937Y-100137470D01*
X227536938Y-100137471D01*
X227646188Y-100351885D01*
X227787634Y-100546570D01*
X227787636Y-100546572D01*
X227787638Y-100546575D01*
X227957788Y-100716725D01*
X227957791Y-100716727D01*
X227957794Y-100716730D01*
X228152479Y-100858176D01*
X228366893Y-100967426D01*
X228366895Y-100967426D01*
X228366896Y-100967427D01*
X228428985Y-100987601D01*
X228595758Y-101041789D01*
X228833439Y-101079434D01*
X228833442Y-101079434D01*
X229074078Y-101079434D01*
X229074081Y-101079434D01*
X229311762Y-101041789D01*
X229540627Y-100967426D01*
X229755041Y-100858176D01*
X229949726Y-100716730D01*
X230119886Y-100546570D01*
X230261332Y-100351885D01*
X230370582Y-100137471D01*
X230444945Y-99908606D01*
X230482590Y-99670925D01*
X230482590Y-99430283D01*
X230476718Y-99393211D01*
X246307847Y-99393211D01*
X246307847Y-99566575D01*
X246334967Y-99737805D01*
X246334968Y-99737810D01*
X246386236Y-99895597D01*
X246388539Y-99902684D01*
X246391559Y-99908611D01*
X246467247Y-100057156D01*
X246569147Y-100197409D01*
X246691730Y-100319992D01*
X246691733Y-100319994D01*
X246831987Y-100421895D01*
X246986456Y-100500601D01*
X247151329Y-100554171D01*
X247151330Y-100554171D01*
X247151335Y-100554173D01*
X247322565Y-100581293D01*
X247322568Y-100581293D01*
X247495926Y-100581293D01*
X247495929Y-100581293D01*
X247667159Y-100554173D01*
X247832038Y-100500601D01*
X247986507Y-100421895D01*
X248126761Y-100319994D01*
X248249348Y-100197407D01*
X248351249Y-100057153D01*
X248429955Y-99902684D01*
X248483527Y-99737805D01*
X248510647Y-99566575D01*
X248510647Y-99393211D01*
X248483527Y-99221981D01*
X248429955Y-99057102D01*
X248351249Y-98902633D01*
X248316286Y-98854511D01*
X248249346Y-98762376D01*
X248126763Y-98639793D01*
X247986510Y-98537893D01*
X247986509Y-98537892D01*
X247986507Y-98537891D01*
X247832038Y-98459185D01*
X247832035Y-98459184D01*
X247832033Y-98459183D01*
X247667162Y-98405614D01*
X247667166Y-98405614D01*
X247635288Y-98400565D01*
X247495929Y-98378493D01*
X247322565Y-98378493D01*
X247151335Y-98405613D01*
X247151329Y-98405614D01*
X246986460Y-98459183D01*
X246986454Y-98459186D01*
X246831983Y-98537893D01*
X246691730Y-98639793D01*
X246569147Y-98762376D01*
X246467247Y-98902629D01*
X246388540Y-99057100D01*
X246388537Y-99057106D01*
X246334968Y-99221975D01*
X246334967Y-99221980D01*
X246334967Y-99221981D01*
X246307847Y-99393211D01*
X230476718Y-99393211D01*
X230444945Y-99192602D01*
X230370582Y-98963737D01*
X230261332Y-98749323D01*
X230119886Y-98554638D01*
X230119883Y-98554635D01*
X230119881Y-98554632D01*
X229949731Y-98384482D01*
X229949728Y-98384480D01*
X229949726Y-98384478D01*
X229755041Y-98243032D01*
X229540627Y-98133782D01*
X229540626Y-98133781D01*
X229540623Y-98133780D01*
X229311767Y-98059420D01*
X229311763Y-98059419D01*
X229311762Y-98059419D01*
X229074081Y-98021774D01*
X228833439Y-98021774D01*
X228595758Y-98059419D01*
X228595752Y-98059420D01*
X228366896Y-98133780D01*
X228152475Y-98243034D01*
X227957791Y-98384480D01*
X227957788Y-98384482D01*
X227787638Y-98554632D01*
X227787636Y-98554635D01*
X227646190Y-98749319D01*
X227536936Y-98963740D01*
X227462576Y-99192596D01*
X227462575Y-99192601D01*
X227462575Y-99192602D01*
X227424930Y-99430283D01*
X200989375Y-99430283D01*
X200934463Y-99286089D01*
X200699246Y-98778735D01*
X200428994Y-98289145D01*
X200399135Y-98243032D01*
X200125046Y-97819744D01*
X200125040Y-97819736D01*
X200125039Y-97819734D01*
X199788882Y-97372819D01*
X199422182Y-96950604D01*
X199026747Y-96555172D01*
X198860014Y-96410364D01*
X198604541Y-96188485D01*
X198604536Y-96188480D01*
X198263182Y-95931729D01*
X198157610Y-95852322D01*
X198157607Y-95852320D01*
X198157603Y-95852317D01*
X197688205Y-95548376D01*
X197354350Y-95364093D01*
X197198604Y-95278123D01*
X197198599Y-95278120D01*
X197198596Y-95278119D01*
X196691262Y-95042916D01*
X196691246Y-95042909D01*
X196168627Y-94843891D01*
X196168624Y-94843890D01*
X195633357Y-94682061D01*
X195633344Y-94682057D01*
X195087998Y-94558193D01*
X194861314Y-94523218D01*
X194535311Y-94472919D01*
X194535307Y-94472918D01*
X194535303Y-94472918D01*
X193978001Y-94426653D01*
X193418825Y-94419623D01*
X193418803Y-94419624D01*
X192860521Y-94451865D01*
X192305874Y-94523218D01*
X192305860Y-94523220D01*
X191757584Y-94633335D01*
X191218380Y-94781669D01*
X190690956Y-94967475D01*
X190690936Y-94967483D01*
X190177825Y-95189868D01*
X189681602Y-95447721D01*
X189681594Y-95447725D01*
X189204705Y-95739770D01*
X189204697Y-95739775D01*
X188749468Y-96064589D01*
X188749454Y-96064600D01*
X188318155Y-96420565D01*
X187912915Y-96805922D01*
X187535710Y-97218793D01*
X187188439Y-97657101D01*
X187188421Y-97657126D01*
X186872777Y-98118726D01*
X186872768Y-98118740D01*
X186590298Y-98601377D01*
X186590297Y-98601380D01*
X186342401Y-99102661D01*
X186130310Y-99620092D01*
X186130300Y-99620120D01*
X185955057Y-100151166D01*
X185817523Y-100693212D01*
X185817518Y-100693238D01*
X185718376Y-101243593D01*
X185718375Y-101243597D01*
X185658112Y-101799549D01*
X185658112Y-101799555D01*
X185637025Y-102358352D01*
X175501439Y-102358352D01*
X175206404Y-101941163D01*
X175204834Y-101938890D01*
X174272284Y-100554858D01*
X174270735Y-100552501D01*
X174266934Y-100546575D01*
X173369780Y-99147814D01*
X173368274Y-99145407D01*
X173345913Y-99108745D01*
X172499286Y-97720647D01*
X172497841Y-97718216D01*
X171661305Y-96274174D01*
X171659919Y-96271717D01*
X171633584Y-96223790D01*
X171074679Y-95206631D01*
X170856278Y-94809159D01*
X170854934Y-94806646D01*
X170492558Y-94110285D01*
X170278685Y-93699295D01*
X242423068Y-93699295D01*
X242443877Y-93844029D01*
X242504620Y-93977038D01*
X242542840Y-94024467D01*
X242774640Y-94256267D01*
X242808664Y-94318578D01*
X242803600Y-94389393D01*
X242801953Y-94393580D01*
X242752640Y-94512629D01*
X242717726Y-94688151D01*
X242717726Y-94867114D01*
X242752640Y-95042636D01*
X242752756Y-95042916D01*
X242821124Y-95207969D01*
X242920548Y-95356768D01*
X243047091Y-95483311D01*
X243195890Y-95582735D01*
X243361226Y-95651220D01*
X243536747Y-95686133D01*
X243536748Y-95686133D01*
X243715704Y-95686133D01*
X243715705Y-95686133D01*
X243891226Y-95651220D01*
X243924868Y-95637285D01*
X244010278Y-95601907D01*
X244080868Y-95594317D01*
X244144355Y-95626096D01*
X244147592Y-95629220D01*
X244450086Y-95931714D01*
X244450095Y-95931722D01*
X244450102Y-95931729D01*
X244497531Y-95969949D01*
X244630540Y-96030692D01*
X244775274Y-96051501D01*
X244920008Y-96030692D01*
X245053017Y-95969949D01*
X245100446Y-95931729D01*
X245380958Y-95651217D01*
X245570166Y-95462010D01*
X249333334Y-95462010D01*
X249333334Y-95719601D01*
X249366954Y-95974973D01*
X249366955Y-95974979D01*
X249366956Y-95974981D01*
X249433624Y-96223790D01*
X249532198Y-96461768D01*
X249532199Y-96461769D01*
X249532204Y-96461780D01*
X249660993Y-96684849D01*
X249817794Y-96889194D01*
X249817813Y-96889215D01*
X249999924Y-97071326D01*
X249999934Y-97071335D01*
X249999940Y-97071341D01*
X249999943Y-97071343D01*
X249999945Y-97071345D01*
X250204290Y-97228146D01*
X250427359Y-97356935D01*
X250427363Y-97356936D01*
X250427372Y-97356942D01*
X250665350Y-97455516D01*
X250914159Y-97522184D01*
X250914165Y-97522184D01*
X250914166Y-97522185D01*
X250943468Y-97526042D01*
X251169541Y-97555806D01*
X251169548Y-97555806D01*
X251427120Y-97555806D01*
X251427127Y-97555806D01*
X251682509Y-97522184D01*
X251931318Y-97455516D01*
X252169296Y-97356942D01*
X252392372Y-97228149D01*
X252392372Y-97228148D01*
X252392377Y-97228146D01*
X252511051Y-97137083D01*
X252596728Y-97071341D01*
X252778869Y-96889200D01*
X252873314Y-96766117D01*
X252935674Y-96684849D01*
X252955659Y-96650235D01*
X253064470Y-96461768D01*
X253163044Y-96223790D01*
X253229712Y-95974981D01*
X253263334Y-95719599D01*
X253263334Y-95462013D01*
X253229712Y-95206631D01*
X253163044Y-94957822D01*
X253064470Y-94719844D01*
X253064464Y-94719835D01*
X253064463Y-94719831D01*
X252935674Y-94496762D01*
X252778873Y-94292417D01*
X252778871Y-94292415D01*
X252778869Y-94292412D01*
X252778863Y-94292406D01*
X252778854Y-94292396D01*
X252596743Y-94110285D01*
X252596722Y-94110266D01*
X252392377Y-93953465D01*
X252169308Y-93824676D01*
X252169300Y-93824672D01*
X252169296Y-93824670D01*
X251931318Y-93726096D01*
X251682509Y-93659428D01*
X251682507Y-93659427D01*
X251682501Y-93659426D01*
X251427129Y-93625806D01*
X251427127Y-93625806D01*
X251169541Y-93625806D01*
X251169538Y-93625806D01*
X250914166Y-93659426D01*
X250665350Y-93726096D01*
X250427370Y-93824671D01*
X250427359Y-93824676D01*
X250204290Y-93953465D01*
X249999945Y-94110266D01*
X249999924Y-94110285D01*
X249817813Y-94292396D01*
X249817794Y-94292417D01*
X249660993Y-94496762D01*
X249532204Y-94719831D01*
X249532199Y-94719842D01*
X249532198Y-94719844D01*
X249494093Y-94811837D01*
X249433624Y-94957822D01*
X249366954Y-95206638D01*
X249333334Y-95462010D01*
X245570166Y-95462010D01*
X245663383Y-95368793D01*
X247007693Y-94024482D01*
X247007708Y-94024467D01*
X247045928Y-93977038D01*
X247106671Y-93844029D01*
X247127480Y-93699295D01*
X247106671Y-93554561D01*
X247045928Y-93421552D01*
X247007708Y-93374123D01*
X247007701Y-93374116D01*
X247007693Y-93374107D01*
X246982702Y-93349116D01*
X246948676Y-93286804D01*
X246953741Y-93215989D01*
X246996288Y-93159153D01*
X247062808Y-93134342D01*
X247071797Y-93134021D01*
X247205776Y-93134021D01*
X247205783Y-93134021D01*
X247411394Y-93106951D01*
X247433280Y-93104070D01*
X247433280Y-93104069D01*
X247433287Y-93104069D01*
X247654936Y-93044679D01*
X247866937Y-92956865D01*
X248065661Y-92842132D01*
X248247710Y-92702440D01*
X248409968Y-92540182D01*
X248549660Y-92358133D01*
X248664393Y-92159409D01*
X248752207Y-91947408D01*
X248811597Y-91725759D01*
X248826174Y-91615037D01*
X254086021Y-91615037D01*
X254086021Y-91788401D01*
X254111205Y-91947407D01*
X254113142Y-91959636D01*
X254155584Y-92090258D01*
X254166713Y-92124510D01*
X254245419Y-92278979D01*
X254245421Y-92278982D01*
X254347321Y-92419235D01*
X254469904Y-92541818D01*
X254469907Y-92541820D01*
X254610161Y-92643721D01*
X254764630Y-92722427D01*
X254929503Y-92775997D01*
X254929504Y-92775997D01*
X254929509Y-92775999D01*
X255100739Y-92803119D01*
X255100742Y-92803119D01*
X255274100Y-92803119D01*
X255274103Y-92803119D01*
X255445333Y-92775999D01*
X255610212Y-92722427D01*
X255764681Y-92643721D01*
X255904935Y-92541820D01*
X256027522Y-92419233D01*
X256129423Y-92278979D01*
X256208129Y-92124510D01*
X256261701Y-91959631D01*
X256288821Y-91788401D01*
X256288821Y-91615037D01*
X256261701Y-91443807D01*
X256208129Y-91278928D01*
X256129423Y-91124459D01*
X256027522Y-90984205D01*
X256027520Y-90984202D01*
X255904937Y-90861619D01*
X255764684Y-90759719D01*
X255764683Y-90759718D01*
X255764681Y-90759717D01*
X255610212Y-90681011D01*
X255610209Y-90681010D01*
X255610207Y-90681009D01*
X255445336Y-90627440D01*
X255445340Y-90627440D01*
X255413462Y-90622391D01*
X255274103Y-90600319D01*
X255100739Y-90600319D01*
X254929509Y-90627439D01*
X254929503Y-90627440D01*
X254764634Y-90681009D01*
X254764628Y-90681012D01*
X254610157Y-90759719D01*
X254469904Y-90861619D01*
X254347321Y-90984202D01*
X254245421Y-91124455D01*
X254166714Y-91278926D01*
X254166711Y-91278932D01*
X254113142Y-91443801D01*
X254113141Y-91443806D01*
X254113141Y-91443807D01*
X254086021Y-91615037D01*
X248826174Y-91615037D01*
X248841549Y-91498255D01*
X248841549Y-91268787D01*
X248818323Y-91092371D01*
X248811598Y-91041289D01*
X248811597Y-91041287D01*
X248811597Y-91041283D01*
X248752207Y-90819634D01*
X248664393Y-90607633D01*
X248664387Y-90607624D01*
X248664386Y-90607620D01*
X248549662Y-90408912D01*
X248549657Y-90408905D01*
X248409975Y-90226868D01*
X248409956Y-90226847D01*
X248247722Y-90064613D01*
X248247701Y-90064594D01*
X248065664Y-89924912D01*
X248065657Y-89924907D01*
X247866949Y-89810183D01*
X247866941Y-89810179D01*
X247866937Y-89810177D01*
X247654936Y-89722363D01*
X247433287Y-89662973D01*
X247433280Y-89662971D01*
X247205785Y-89633021D01*
X247205783Y-89633021D01*
X246976315Y-89633021D01*
X246976312Y-89633021D01*
X246748817Y-89662971D01*
X246607902Y-89700729D01*
X246527162Y-89722363D01*
X246470436Y-89745860D01*
X246315159Y-89810178D01*
X246315148Y-89810183D01*
X246116440Y-89924907D01*
X246116433Y-89924912D01*
X245934396Y-90064594D01*
X245934375Y-90064613D01*
X245772141Y-90226847D01*
X245772122Y-90226868D01*
X245632440Y-90408905D01*
X245632435Y-90408912D01*
X245517711Y-90607620D01*
X245517706Y-90607631D01*
X245517705Y-90607633D01*
X245467674Y-90728418D01*
X245429891Y-90819634D01*
X245370499Y-91041289D01*
X245340549Y-91268784D01*
X245340549Y-91402773D01*
X245320547Y-91470894D01*
X245266891Y-91517387D01*
X245196617Y-91527491D01*
X245132037Y-91497997D01*
X245125454Y-91491868D01*
X245100461Y-91466875D01*
X245100451Y-91466866D01*
X245100446Y-91466861D01*
X245053017Y-91428641D01*
X244920008Y-91367898D01*
X244775274Y-91347089D01*
X244630539Y-91367898D01*
X244497530Y-91428641D01*
X244450105Y-91466858D01*
X244450086Y-91466875D01*
X242542854Y-93374107D01*
X242542837Y-93374126D01*
X242504620Y-93421551D01*
X242504620Y-93421552D01*
X242443877Y-93554561D01*
X242423068Y-93699295D01*
X170278685Y-93699295D01*
X170084548Y-93326232D01*
X170083316Y-93323797D01*
X169412189Y-91959631D01*
X169346612Y-91826336D01*
X169345383Y-91823765D01*
X169124120Y-91347089D01*
X168642727Y-90310006D01*
X168641582Y-90307462D01*
X168628883Y-90278401D01*
X168131318Y-89139722D01*
X239733215Y-89139722D01*
X240637210Y-89139722D01*
X240601988Y-89200729D01*
X240567913Y-89327896D01*
X240567913Y-89459548D01*
X240601988Y-89586715D01*
X240637210Y-89647722D01*
X239733215Y-89647722D01*
X239743353Y-89711726D01*
X239809403Y-89915008D01*
X239809406Y-89915014D01*
X239906449Y-90105472D01*
X240032090Y-90278401D01*
X240183233Y-90429544D01*
X240356162Y-90555185D01*
X240546620Y-90652228D01*
X240546626Y-90652231D01*
X240749911Y-90718282D01*
X240813913Y-90728418D01*
X240813913Y-89824424D01*
X240874920Y-89859647D01*
X241002087Y-89893722D01*
X241133739Y-89893722D01*
X241260906Y-89859647D01*
X241321913Y-89824424D01*
X241321913Y-90728418D01*
X241385914Y-90718282D01*
X241589199Y-90652231D01*
X241589205Y-90652228D01*
X241779663Y-90555185D01*
X241952592Y-90429544D01*
X242103735Y-90278401D01*
X242229376Y-90105472D01*
X242326419Y-89915014D01*
X242326422Y-89915008D01*
X242392472Y-89711726D01*
X242402611Y-89647722D01*
X241498616Y-89647722D01*
X241533838Y-89586715D01*
X241567913Y-89459548D01*
X241567913Y-89327896D01*
X241557460Y-89288885D01*
X250431717Y-89288885D01*
X250431717Y-89518358D01*
X250461667Y-89745853D01*
X250461669Y-89745860D01*
X250521059Y-89967509D01*
X250608873Y-90179510D01*
X250608874Y-90179511D01*
X250608879Y-90179522D01*
X250723603Y-90378230D01*
X250723608Y-90378237D01*
X250863290Y-90560274D01*
X250863309Y-90560295D01*
X251025543Y-90722529D01*
X251025564Y-90722548D01*
X251207601Y-90862230D01*
X251207608Y-90862235D01*
X251406316Y-90976959D01*
X251406320Y-90976960D01*
X251406329Y-90976966D01*
X251618330Y-91064780D01*
X251839979Y-91124170D01*
X251839983Y-91124170D01*
X251839985Y-91124171D01*
X251898615Y-91131889D01*
X252067483Y-91154122D01*
X252067490Y-91154122D01*
X252296944Y-91154122D01*
X252296951Y-91154122D01*
X252522260Y-91124459D01*
X252524448Y-91124171D01*
X252524448Y-91124170D01*
X252524455Y-91124170D01*
X252746104Y-91064780D01*
X252958105Y-90976966D01*
X253156829Y-90862233D01*
X253338878Y-90722541D01*
X253501136Y-90560283D01*
X253640828Y-90378234D01*
X253755561Y-90179510D01*
X253843375Y-89967509D01*
X253902765Y-89745860D01*
X253932717Y-89518356D01*
X253932717Y-89383660D01*
X253952719Y-89315539D01*
X254006375Y-89269046D01*
X254076649Y-89258942D01*
X254141229Y-89288436D01*
X254147814Y-89294566D01*
X254173135Y-89319888D01*
X254173143Y-89319895D01*
X254220522Y-89358075D01*
X254353400Y-89418758D01*
X254353399Y-89418758D01*
X254497992Y-89439547D01*
X254642584Y-89418758D01*
X254775461Y-89358075D01*
X254822840Y-89319895D01*
X254822859Y-89319878D01*
X255596836Y-88545902D01*
X255596836Y-88545900D01*
X254318387Y-87267452D01*
X254175686Y-87124751D01*
X254138781Y-87087846D01*
X254857202Y-87087846D01*
X254857202Y-87087848D01*
X255956045Y-88186691D01*
X255956047Y-88186691D01*
X256730023Y-87412714D01*
X256730040Y-87412695D01*
X256768220Y-87365316D01*
X256828903Y-87232439D01*
X256849692Y-87087847D01*
X256828903Y-86943254D01*
X256768220Y-86810377D01*
X256730040Y-86762998D01*
X256730023Y-86762979D01*
X255956047Y-85989003D01*
X255956045Y-85989003D01*
X254857202Y-87087846D01*
X254138781Y-87087846D01*
X253039939Y-85989003D01*
X253039937Y-85989003D01*
X252265960Y-86762979D01*
X252265943Y-86762998D01*
X252227763Y-86810377D01*
X252167080Y-86943254D01*
X252146291Y-87087847D01*
X252167080Y-87232439D01*
X252227763Y-87365316D01*
X252265943Y-87412695D01*
X252265960Y-87412714D01*
X252291273Y-87438027D01*
X252325299Y-87500339D01*
X252320234Y-87571154D01*
X252277687Y-87627990D01*
X252211167Y-87652801D01*
X252202178Y-87653122D01*
X252067480Y-87653122D01*
X251839985Y-87683072D01*
X251618330Y-87742464D01*
X251406327Y-87830279D01*
X251406316Y-87830284D01*
X251207608Y-87945008D01*
X251207601Y-87945013D01*
X251025564Y-88084695D01*
X251025543Y-88084714D01*
X250863309Y-88246948D01*
X250863290Y-88246969D01*
X250723608Y-88429006D01*
X250723603Y-88429013D01*
X250608879Y-88627721D01*
X250608874Y-88627732D01*
X250521059Y-88839735D01*
X250461667Y-89061390D01*
X250431717Y-89288885D01*
X241557460Y-89288885D01*
X241533838Y-89200729D01*
X241498616Y-89139722D01*
X242402610Y-89139722D01*
X242392473Y-89075722D01*
X242391983Y-89073681D01*
X242392023Y-89072879D01*
X242391699Y-89070834D01*
X242392128Y-89070765D01*
X242395524Y-89002772D01*
X242436838Y-88945035D01*
X242502810Y-88918799D01*
X242541063Y-88921534D01*
X242541076Y-88921456D01*
X242541992Y-88921601D01*
X242543920Y-88921739D01*
X242545967Y-88922230D01*
X242609965Y-88932366D01*
X242609965Y-88028372D01*
X242670972Y-88063595D01*
X242798139Y-88097670D01*
X242929791Y-88097670D01*
X243056958Y-88063595D01*
X243117965Y-88028372D01*
X243117965Y-88932366D01*
X243181966Y-88922230D01*
X243385251Y-88856179D01*
X243385257Y-88856176D01*
X243575715Y-88759133D01*
X243748644Y-88633492D01*
X243899787Y-88482349D01*
X244025428Y-88309420D01*
X244122471Y-88118962D01*
X244122474Y-88118956D01*
X244188524Y-87915674D01*
X244198663Y-87851670D01*
X243294668Y-87851670D01*
X243329890Y-87790663D01*
X243363965Y-87663496D01*
X243363965Y-87531844D01*
X243329890Y-87404677D01*
X243294668Y-87343670D01*
X244198662Y-87343670D01*
X244188524Y-87279664D01*
X244188034Y-87277622D01*
X244188074Y-87276821D01*
X244187751Y-87274782D01*
X244188179Y-87274714D01*
X244191580Y-87206714D01*
X244232899Y-87148979D01*
X244298872Y-87122749D01*
X244337114Y-87125483D01*
X244337127Y-87125405D01*
X244338038Y-87125549D01*
X244339964Y-87125687D01*
X244342012Y-87126178D01*
X244406016Y-87136315D01*
X244406016Y-86232321D01*
X244467023Y-86267544D01*
X244594190Y-86301619D01*
X244725842Y-86301619D01*
X244853009Y-86267544D01*
X244914016Y-86232321D01*
X244914016Y-87136315D01*
X244978017Y-87126179D01*
X245181302Y-87060128D01*
X245181308Y-87060125D01*
X245371766Y-86963082D01*
X245544695Y-86837441D01*
X245695838Y-86686298D01*
X245821479Y-86513369D01*
X245918522Y-86322911D01*
X245918525Y-86322905D01*
X245984575Y-86119623D01*
X245994714Y-86055619D01*
X245090719Y-86055619D01*
X245125941Y-85994612D01*
X245160016Y-85867445D01*
X245160016Y-85735793D01*
X245125941Y-85608626D01*
X245090719Y-85547619D01*
X246037729Y-85547619D01*
X246105850Y-85567621D01*
X246146004Y-85613134D01*
X246178594Y-85639397D01*
X246178601Y-85639402D01*
X246311475Y-85700083D01*
X246311474Y-85700083D01*
X246456067Y-85720872D01*
X246600659Y-85700083D01*
X246733536Y-85639400D01*
X246745459Y-85629792D01*
X253399148Y-85629792D01*
X253399148Y-85629794D01*
X254497991Y-86728637D01*
X254497993Y-86728637D01*
X255596836Y-85629794D01*
X255596836Y-85629792D01*
X254822859Y-84855815D01*
X254822840Y-84855798D01*
X254775461Y-84817618D01*
X254642583Y-84756935D01*
X254642584Y-84756935D01*
X254497992Y-84736146D01*
X254353399Y-84756935D01*
X254220522Y-84817618D01*
X254173143Y-84855798D01*
X254173124Y-84855815D01*
X253399148Y-85629792D01*
X246745459Y-85629792D01*
X246780915Y-85601220D01*
X246780934Y-85601203D01*
X246893631Y-85488507D01*
X247236713Y-85145425D01*
X247236713Y-85145423D01*
X246581015Y-84489725D01*
X246649060Y-84471493D01*
X246763074Y-84405667D01*
X246856166Y-84312575D01*
X246921992Y-84198561D01*
X246940224Y-84130516D01*
X247595922Y-84786214D01*
X247595924Y-84786214D01*
X248051702Y-84330435D01*
X248051719Y-84330416D01*
X248089899Y-84283037D01*
X248150582Y-84150160D01*
X248171371Y-84005568D01*
X248150582Y-83860975D01*
X248089899Y-83728098D01*
X248051719Y-83680719D01*
X248051702Y-83680700D01*
X247595924Y-83224922D01*
X247595922Y-83224922D01*
X246940224Y-83880619D01*
X246921992Y-83812575D01*
X246856166Y-83698561D01*
X246763074Y-83605469D01*
X246649060Y-83539643D01*
X246581015Y-83521410D01*
X247236713Y-82865713D01*
X247236713Y-82865711D01*
X246780934Y-82409932D01*
X246780915Y-82409915D01*
X246733536Y-82371735D01*
X246600658Y-82311052D01*
X246600659Y-82311052D01*
X246456067Y-82290263D01*
X246311474Y-82311052D01*
X246178597Y-82371735D01*
X246131218Y-82409915D01*
X246131199Y-82409932D01*
X245675421Y-82865711D01*
X245675421Y-82865713D01*
X246331118Y-83521410D01*
X246263074Y-83539643D01*
X246149060Y-83605469D01*
X246055968Y-83698561D01*
X245990142Y-83812575D01*
X245971908Y-83880620D01*
X245316211Y-83224922D01*
X245316210Y-83224922D01*
X244860431Y-83680700D01*
X244860414Y-83680719D01*
X244822234Y-83728098D01*
X244761551Y-83860975D01*
X244740762Y-84005568D01*
X244761551Y-84150160D01*
X244822235Y-84283038D01*
X244848780Y-84315979D01*
X244895212Y-84357687D01*
X244914016Y-84423906D01*
X244914016Y-85370916D01*
X244853009Y-85335694D01*
X244725842Y-85301619D01*
X244594190Y-85301619D01*
X244467023Y-85335694D01*
X244406016Y-85370916D01*
X244406016Y-84466921D01*
X244342011Y-84477059D01*
X244138729Y-84543109D01*
X244138723Y-84543112D01*
X243948265Y-84640155D01*
X243775336Y-84765796D01*
X243624193Y-84916939D01*
X243498552Y-85089868D01*
X243401509Y-85280326D01*
X243401506Y-85280332D01*
X243335456Y-85483614D01*
X243325318Y-85547619D01*
X244229313Y-85547619D01*
X244194091Y-85608626D01*
X244160016Y-85735793D01*
X244160016Y-85867445D01*
X244194091Y-85994612D01*
X244229313Y-86055619D01*
X243325318Y-86055619D01*
X243335457Y-86119632D01*
X243335949Y-86121679D01*
X243335908Y-86122479D01*
X243336230Y-86124507D01*
X243335803Y-86124574D01*
X243335497Y-86130688D01*
X243338854Y-86139064D01*
X243333748Y-86165600D01*
X243332396Y-86192587D01*
X243327144Y-86199923D01*
X243325440Y-86208782D01*
X243306799Y-86228344D01*
X243291071Y-86250317D01*
X243282688Y-86253649D01*
X243276464Y-86260181D01*
X243243174Y-86273521D01*
X243117965Y-86303939D01*
X243117965Y-87166967D01*
X243056958Y-87131745D01*
X242929791Y-87097670D01*
X242798139Y-87097670D01*
X242670972Y-87131745D01*
X242609965Y-87166967D01*
X242609965Y-86262972D01*
X242545960Y-86273110D01*
X242342678Y-86339160D01*
X242342672Y-86339163D01*
X242152214Y-86436206D01*
X241979285Y-86561847D01*
X241828142Y-86712990D01*
X241702501Y-86885919D01*
X241605458Y-87076377D01*
X241605455Y-87076383D01*
X241539405Y-87279665D01*
X241529267Y-87343670D01*
X242433262Y-87343670D01*
X242398040Y-87404677D01*
X242363965Y-87531844D01*
X242363965Y-87663496D01*
X242398040Y-87790663D01*
X242433262Y-87851670D01*
X241529267Y-87851670D01*
X241539407Y-87915685D01*
X241539899Y-87917735D01*
X241539858Y-87918536D01*
X241540179Y-87920558D01*
X241539754Y-87920625D01*
X241539447Y-87926742D01*
X241542803Y-87935116D01*
X241537697Y-87961653D01*
X241536344Y-87988643D01*
X241531092Y-87995978D01*
X241529389Y-88004834D01*
X241510747Y-88024397D01*
X241495017Y-88046371D01*
X241486636Y-88049701D01*
X241480413Y-88056233D01*
X241447123Y-88069573D01*
X241321913Y-88099991D01*
X241321913Y-88963019D01*
X241260906Y-88927797D01*
X241133739Y-88893722D01*
X241002087Y-88893722D01*
X240874920Y-88927797D01*
X240813913Y-88963019D01*
X240813913Y-88059024D01*
X240749908Y-88069162D01*
X240546626Y-88135212D01*
X240546620Y-88135215D01*
X240356162Y-88232258D01*
X240183233Y-88357899D01*
X240032090Y-88509042D01*
X239906449Y-88681971D01*
X239809406Y-88872429D01*
X239809403Y-88872435D01*
X239743353Y-89075717D01*
X239733215Y-89139722D01*
X168131318Y-89139722D01*
X168038714Y-88927797D01*
X167973385Y-88778290D01*
X167972273Y-88775666D01*
X167755355Y-88246969D01*
X167338798Y-87231690D01*
X167337792Y-87229157D01*
X166739402Y-85671251D01*
X166738420Y-85668605D01*
X166727954Y-85639400D01*
X166175427Y-84097588D01*
X166174498Y-84094899D01*
X166155005Y-84036369D01*
X165647182Y-82511550D01*
X165646343Y-82508933D01*
X165154943Y-80913960D01*
X165154179Y-80911378D01*
X164861299Y-79878269D01*
X176823507Y-79878269D01*
X176823507Y-81675568D01*
X176830016Y-81736115D01*
X176830018Y-81736123D01*
X176881117Y-81873121D01*
X176881119Y-81873126D01*
X176968745Y-81990180D01*
X177085799Y-82077806D01*
X177085801Y-82077807D01*
X177085803Y-82077808D01*
X177144882Y-82099843D01*
X177222802Y-82128907D01*
X177222810Y-82128909D01*
X177283357Y-82135418D01*
X177283362Y-82135418D01*
X177283369Y-82135419D01*
X177283375Y-82135419D01*
X179080639Y-82135419D01*
X179080645Y-82135419D01*
X179080652Y-82135418D01*
X179080656Y-82135418D01*
X179141203Y-82128909D01*
X179141206Y-82128908D01*
X179141208Y-82128908D01*
X179278211Y-82077808D01*
X179334206Y-82035891D01*
X179395268Y-81990180D01*
X179482894Y-81873126D01*
X179482894Y-81873125D01*
X179482896Y-81873123D01*
X179526876Y-81755207D01*
X179569421Y-81698375D01*
X179635941Y-81673564D01*
X179705315Y-81688655D01*
X179734025Y-81710148D01*
X179836997Y-81813120D01*
X179837000Y-81813122D01*
X179837003Y-81813125D01*
X180009998Y-81938813D01*
X180200524Y-82035891D01*
X180403885Y-82101966D01*
X180403886Y-82101966D01*
X180403891Y-82101968D01*
X180615091Y-82135419D01*
X180615094Y-82135419D01*
X180828920Y-82135419D01*
X180828923Y-82135419D01*
X181040123Y-82101968D01*
X181243490Y-82035891D01*
X181434016Y-81938813D01*
X181607011Y-81813125D01*
X181758213Y-81661923D01*
X181883901Y-81488928D01*
X181883912Y-81488904D01*
X181884563Y-81487845D01*
X181884928Y-81487514D01*
X181886811Y-81484923D01*
X181887355Y-81485318D01*
X181937204Y-81440206D01*
X182007244Y-81428589D01*
X182072445Y-81456682D01*
X182097028Y-81485048D01*
X182097202Y-81484923D01*
X182098665Y-81486937D01*
X182099440Y-81487831D01*
X182100111Y-81488926D01*
X182100112Y-81488928D01*
X182225800Y-81661923D01*
X182225802Y-81661925D01*
X182225804Y-81661928D01*
X182376996Y-81813120D01*
X182376999Y-81813122D01*
X182377002Y-81813125D01*
X182549997Y-81938813D01*
X182740523Y-82035891D01*
X182943884Y-82101966D01*
X182943885Y-82101966D01*
X182943890Y-82101968D01*
X183155090Y-82135419D01*
X183155093Y-82135419D01*
X183368919Y-82135419D01*
X183368922Y-82135419D01*
X183580122Y-82101968D01*
X183783489Y-82035891D01*
X183974015Y-81938813D01*
X184147010Y-81813125D01*
X184298212Y-81661923D01*
X184423900Y-81488928D01*
X184423905Y-81488916D01*
X184424567Y-81487839D01*
X184424930Y-81487510D01*
X184426810Y-81484923D01*
X184427353Y-81485317D01*
X184477210Y-81440202D01*
X184547250Y-81428589D01*
X184612451Y-81456685D01*
X184637030Y-81485048D01*
X184637203Y-81484923D01*
X184638660Y-81486929D01*
X184639436Y-81487824D01*
X184640111Y-81488926D01*
X184640115Y-81488931D01*
X184765801Y-81661923D01*
X184765803Y-81661925D01*
X184765805Y-81661928D01*
X184916997Y-81813120D01*
X184917000Y-81813122D01*
X184917003Y-81813125D01*
X185089998Y-81938813D01*
X185280524Y-82035891D01*
X185483885Y-82101966D01*
X185483886Y-82101966D01*
X185483891Y-82101968D01*
X185695091Y-82135419D01*
X185695094Y-82135419D01*
X185908920Y-82135419D01*
X185908923Y-82135419D01*
X186120123Y-82101968D01*
X186323490Y-82035891D01*
X186514016Y-81938813D01*
X186687011Y-81813125D01*
X186838213Y-81661923D01*
X186963901Y-81488928D01*
X187060979Y-81298402D01*
X187127056Y-81095035D01*
X187160507Y-80883835D01*
X187160507Y-80670003D01*
X187127056Y-80458803D01*
X187060979Y-80255436D01*
X186963901Y-80064910D01*
X186838213Y-79891915D01*
X186838210Y-79891912D01*
X186838208Y-79891909D01*
X186687016Y-79740717D01*
X186687013Y-79740715D01*
X186687011Y-79740713D01*
X186514016Y-79615025D01*
X186323490Y-79517947D01*
X186323487Y-79517946D01*
X186323485Y-79517945D01*
X186120127Y-79451871D01*
X186120130Y-79451871D01*
X186080808Y-79445643D01*
X185908923Y-79418419D01*
X185695091Y-79418419D01*
X185483891Y-79451870D01*
X185483885Y-79451871D01*
X185280528Y-79517945D01*
X185280522Y-79517948D01*
X185089994Y-79615027D01*
X184917000Y-79740715D01*
X184916997Y-79740717D01*
X184765805Y-79891909D01*
X184765803Y-79891912D01*
X184640111Y-80064911D01*
X184639431Y-80066022D01*
X184639063Y-80066354D01*
X184637203Y-80068915D01*
X184636664Y-80068523D01*
X184586777Y-80113647D01*
X184516734Y-80125245D01*
X184451540Y-80097134D01*
X184426982Y-80068789D01*
X184426810Y-80068915D01*
X184425347Y-80066902D01*
X184424572Y-80066007D01*
X184423902Y-80064914D01*
X184423900Y-80064910D01*
X184298212Y-79891915D01*
X184298209Y-79891912D01*
X184298207Y-79891909D01*
X184147015Y-79740717D01*
X184147012Y-79740715D01*
X184147010Y-79740713D01*
X183974015Y-79615025D01*
X183783489Y-79517947D01*
X183783486Y-79517946D01*
X183783484Y-79517945D01*
X183580126Y-79451871D01*
X183580129Y-79451871D01*
X183540807Y-79445643D01*
X183368922Y-79418419D01*
X183155090Y-79418419D01*
X182943890Y-79451870D01*
X182943884Y-79451871D01*
X182740527Y-79517945D01*
X182740521Y-79517948D01*
X182549993Y-79615027D01*
X182376999Y-79740715D01*
X182376996Y-79740717D01*
X182225804Y-79891909D01*
X182225802Y-79891912D01*
X182100108Y-80064914D01*
X182099434Y-80066015D01*
X182099069Y-80066344D01*
X182097202Y-80068915D01*
X182096661Y-80068522D01*
X182046783Y-80113643D01*
X181976741Y-80125245D01*
X181911545Y-80097137D01*
X181886984Y-80068788D01*
X181886811Y-80068915D01*
X181885342Y-80066893D01*
X181884569Y-80066001D01*
X181883907Y-80064922D01*
X181883901Y-80064910D01*
X181758213Y-79891915D01*
X181758210Y-79891912D01*
X181758208Y-79891909D01*
X181607016Y-79740717D01*
X181607013Y-79740715D01*
X181607011Y-79740713D01*
X181434016Y-79615025D01*
X181243490Y-79517947D01*
X181243487Y-79517946D01*
X181243485Y-79517945D01*
X181040127Y-79451871D01*
X181040130Y-79451871D01*
X181000808Y-79445643D01*
X180828923Y-79418419D01*
X180615091Y-79418419D01*
X180403891Y-79451870D01*
X180403885Y-79451871D01*
X180200528Y-79517945D01*
X180200522Y-79517948D01*
X180009994Y-79615027D01*
X179837002Y-79740713D01*
X179734025Y-79843690D01*
X179671713Y-79877715D01*
X179600897Y-79872649D01*
X179544061Y-79830103D01*
X179526878Y-79798634D01*
X179482896Y-79680715D01*
X179482893Y-79680711D01*
X179482893Y-79680710D01*
X179395268Y-79563657D01*
X179278214Y-79476031D01*
X179278209Y-79476029D01*
X179141211Y-79424930D01*
X179141203Y-79424928D01*
X179080656Y-79418419D01*
X179080645Y-79418419D01*
X177283369Y-79418419D01*
X177283357Y-79418419D01*
X177222810Y-79424928D01*
X177222802Y-79424930D01*
X177085804Y-79476029D01*
X177085799Y-79476031D01*
X176968745Y-79563657D01*
X176881119Y-79680711D01*
X176881117Y-79680716D01*
X176830018Y-79817714D01*
X176830016Y-79817722D01*
X176823507Y-79878269D01*
X164861299Y-79878269D01*
X164698993Y-79305748D01*
X164698250Y-79303008D01*
X164675018Y-79213381D01*
X164279509Y-77687545D01*
X164278858Y-77684916D01*
X163897639Y-76064123D01*
X163895848Y-76055012D01*
X163711020Y-74889434D01*
X163710449Y-74885402D01*
X163563876Y-73711225D01*
X163563432Y-73707106D01*
X163514697Y-73173688D01*
X163455778Y-72528806D01*
X163455476Y-72524765D01*
X163386843Y-71343500D01*
X163386671Y-71339339D01*
X163374208Y-70840115D01*
X163357141Y-70156458D01*
X163357107Y-70152404D01*
X163366711Y-68969185D01*
X163366814Y-68965029D01*
X163375709Y-68749218D01*
X163415540Y-67782824D01*
X163415775Y-67778750D01*
X163480908Y-66903371D01*
X194898019Y-66903371D01*
X194898019Y-66907743D01*
X194898019Y-67144013D01*
X194935664Y-67381694D01*
X195010027Y-67610558D01*
X195119277Y-67824973D01*
X195260723Y-68019657D01*
X195260725Y-68019659D01*
X195260727Y-68019662D01*
X195430877Y-68189812D01*
X195430880Y-68189814D01*
X195430883Y-68189817D01*
X195625567Y-68331263D01*
X195839982Y-68440513D01*
X196068846Y-68514876D01*
X196306527Y-68552521D01*
X196306530Y-68552521D01*
X196547166Y-68552521D01*
X196547169Y-68552521D01*
X196784850Y-68514876D01*
X197013714Y-68440513D01*
X197228129Y-68331263D01*
X197422813Y-68189817D01*
X197592973Y-68019657D01*
X197734419Y-67824973D01*
X197843669Y-67610558D01*
X197918032Y-67381694D01*
X197955677Y-67144013D01*
X197955677Y-66903371D01*
X197918032Y-66665690D01*
X197843669Y-66436826D01*
X197734419Y-66222411D01*
X197592973Y-66027727D01*
X197592970Y-66027724D01*
X197592968Y-66027721D01*
X197422818Y-65857571D01*
X197422815Y-65857569D01*
X197422813Y-65857567D01*
X197228129Y-65716121D01*
X197013714Y-65606871D01*
X197013713Y-65606870D01*
X197013712Y-65606870D01*
X196784853Y-65532509D01*
X196784850Y-65532508D01*
X196547169Y-65494863D01*
X196306527Y-65494863D01*
X196068846Y-65532508D01*
X196068843Y-65532508D01*
X196068842Y-65532509D01*
X195839983Y-65606870D01*
X195625563Y-65716123D01*
X195430880Y-65857569D01*
X195430877Y-65857571D01*
X195260727Y-66027721D01*
X195260725Y-66027724D01*
X195119279Y-66222407D01*
X195010026Y-66436827D01*
X194958083Y-66596692D01*
X194935664Y-66665690D01*
X194898019Y-66903371D01*
X163480908Y-66903371D01*
X163503575Y-66598725D01*
X163503946Y-66594658D01*
X163630719Y-65418201D01*
X163631223Y-65414153D01*
X163796837Y-64242495D01*
X163797471Y-64238491D01*
X164001737Y-63072982D01*
X164002505Y-63068990D01*
X164245203Y-61910867D01*
X164246104Y-61906898D01*
X164526963Y-60757456D01*
X164528017Y-60753436D01*
X164846723Y-59613946D01*
X164847905Y-59609978D01*
X164854723Y-59588382D01*
X164957386Y-59263195D01*
X174611528Y-59263195D01*
X174632337Y-59407929D01*
X174693080Y-59540938D01*
X174731300Y-59588367D01*
X174731305Y-59588372D01*
X174731314Y-59588382D01*
X176638546Y-61495614D01*
X176638555Y-61495622D01*
X176638562Y-61495629D01*
X176685991Y-61533849D01*
X176819000Y-61594592D01*
X176963734Y-61615401D01*
X177108468Y-61594592D01*
X177241477Y-61533849D01*
X177288906Y-61495629D01*
X177540333Y-61244200D01*
X177602643Y-61210177D01*
X177673459Y-61215241D01*
X177699427Y-61228531D01*
X177788513Y-61288056D01*
X177953849Y-61356541D01*
X178129370Y-61391454D01*
X178129371Y-61391454D01*
X178308327Y-61391454D01*
X178308328Y-61391454D01*
X178483849Y-61356541D01*
X178649185Y-61288056D01*
X178797984Y-61188632D01*
X178924527Y-61062089D01*
X179023951Y-60913290D01*
X179092436Y-60747954D01*
X179127349Y-60572433D01*
X179127349Y-60393475D01*
X179092436Y-60217954D01*
X179023951Y-60052618D01*
X178964426Y-59963533D01*
X178943212Y-59895781D01*
X178961995Y-59827314D01*
X178980092Y-59804442D01*
X179196168Y-59588367D01*
X179234388Y-59540938D01*
X179295131Y-59407929D01*
X179315940Y-59263195D01*
X179295131Y-59118461D01*
X179234388Y-58985452D01*
X179196168Y-58938023D01*
X179196161Y-58938016D01*
X179196153Y-58938007D01*
X179171161Y-58913015D01*
X179137135Y-58850703D01*
X179142200Y-58779888D01*
X179184747Y-58723052D01*
X179251267Y-58698241D01*
X179260256Y-58697920D01*
X179394236Y-58697920D01*
X179394243Y-58697920D01*
X179599854Y-58670850D01*
X179621740Y-58667969D01*
X179621740Y-58667968D01*
X179621747Y-58667968D01*
X179843396Y-58608578D01*
X180055397Y-58520764D01*
X180254121Y-58406031D01*
X180436170Y-58266339D01*
X180598428Y-58104081D01*
X180738120Y-57922032D01*
X180852853Y-57723308D01*
X180940667Y-57511307D01*
X181000057Y-57289658D01*
X181030009Y-57062154D01*
X181030009Y-56832686D01*
X181007776Y-56663818D01*
X181000058Y-56605188D01*
X181000057Y-56605186D01*
X181000057Y-56605182D01*
X180940667Y-56383533D01*
X180852853Y-56171532D01*
X180852847Y-56171523D01*
X180852846Y-56171519D01*
X180738122Y-55972811D01*
X180738117Y-55972804D01*
X180598435Y-55790767D01*
X180598416Y-55790746D01*
X180436182Y-55628512D01*
X180436161Y-55628493D01*
X180254124Y-55488811D01*
X180254117Y-55488806D01*
X180055409Y-55374082D01*
X180055401Y-55374078D01*
X180055397Y-55374076D01*
X179843396Y-55286262D01*
X179692010Y-55245698D01*
X179621740Y-55226870D01*
X179394245Y-55196920D01*
X179394243Y-55196920D01*
X179164775Y-55196920D01*
X179164772Y-55196920D01*
X178937277Y-55226870D01*
X178715622Y-55286262D01*
X178521098Y-55366837D01*
X178503619Y-55374077D01*
X178503608Y-55374082D01*
X178304900Y-55488806D01*
X178304893Y-55488811D01*
X178122856Y-55628493D01*
X178122835Y-55628512D01*
X177960601Y-55790746D01*
X177960582Y-55790767D01*
X177820900Y-55972804D01*
X177820895Y-55972811D01*
X177706171Y-56171519D01*
X177706166Y-56171530D01*
X177706165Y-56171532D01*
X177618351Y-56383533D01*
X177558959Y-56605188D01*
X177529009Y-56832683D01*
X177529009Y-56966673D01*
X177509007Y-57034794D01*
X177455351Y-57081287D01*
X177385077Y-57091391D01*
X177320497Y-57061897D01*
X177313914Y-57055768D01*
X177288921Y-57030775D01*
X177288911Y-57030766D01*
X177288906Y-57030761D01*
X177241477Y-56992541D01*
X177108468Y-56931798D01*
X176963734Y-56910989D01*
X176818999Y-56931798D01*
X176685990Y-56992541D01*
X176638565Y-57030758D01*
X176638546Y-57030775D01*
X174731314Y-58938007D01*
X174731297Y-58938026D01*
X174693080Y-58985451D01*
X174693080Y-58985452D01*
X174632337Y-59118461D01*
X174611528Y-59263195D01*
X164957386Y-59263195D01*
X165204114Y-58481674D01*
X165205426Y-58477748D01*
X165230704Y-58406033D01*
X165598762Y-57361815D01*
X165600187Y-57357975D01*
X166030222Y-56255632D01*
X166031766Y-56251858D01*
X166498062Y-55164246D01*
X166499701Y-55160593D01*
X166779821Y-54562641D01*
X175172905Y-54562641D01*
X175172905Y-54736005D01*
X175200025Y-54907235D01*
X175200026Y-54907240D01*
X175253595Y-55072109D01*
X175253597Y-55072114D01*
X175320934Y-55204270D01*
X175332305Y-55226586D01*
X175434205Y-55366839D01*
X175556788Y-55489422D01*
X175556791Y-55489424D01*
X175697045Y-55591325D01*
X175851514Y-55670031D01*
X176016387Y-55723601D01*
X176016388Y-55723601D01*
X176016393Y-55723603D01*
X176187623Y-55750723D01*
X176187626Y-55750723D01*
X176360984Y-55750723D01*
X176360987Y-55750723D01*
X176532217Y-55723603D01*
X176697096Y-55670031D01*
X176851565Y-55591325D01*
X176991819Y-55489424D01*
X177114406Y-55366837D01*
X177216307Y-55226583D01*
X177295013Y-55072114D01*
X177348585Y-54907235D01*
X177357209Y-54852784D01*
X182620177Y-54852784D01*
X182620177Y-55082257D01*
X182650127Y-55309752D01*
X182650129Y-55309759D01*
X182709519Y-55531408D01*
X182797333Y-55743409D01*
X182797334Y-55743410D01*
X182797339Y-55743421D01*
X182912063Y-55942129D01*
X182912068Y-55942136D01*
X183051750Y-56124173D01*
X183051769Y-56124194D01*
X183214003Y-56286428D01*
X183214024Y-56286447D01*
X183396061Y-56426129D01*
X183396068Y-56426134D01*
X183594776Y-56540858D01*
X183594780Y-56540859D01*
X183594789Y-56540865D01*
X183806790Y-56628679D01*
X184028439Y-56688069D01*
X184028443Y-56688069D01*
X184028445Y-56688070D01*
X184087075Y-56695788D01*
X184255943Y-56718021D01*
X184255950Y-56718021D01*
X184485404Y-56718021D01*
X184485411Y-56718021D01*
X184691022Y-56690951D01*
X184712908Y-56688070D01*
X184712908Y-56688069D01*
X184712915Y-56688069D01*
X184934564Y-56628679D01*
X185146565Y-56540865D01*
X185345289Y-56426132D01*
X185527338Y-56286440D01*
X185689596Y-56124182D01*
X185829288Y-55942133D01*
X185944021Y-55743409D01*
X186031835Y-55531408D01*
X186091225Y-55309759D01*
X186121177Y-55082255D01*
X186121177Y-54947560D01*
X186141179Y-54879439D01*
X186194835Y-54832946D01*
X186265109Y-54822842D01*
X186329689Y-54852336D01*
X186336274Y-54858466D01*
X186361595Y-54883788D01*
X186361603Y-54883795D01*
X186408982Y-54921975D01*
X186541860Y-54982658D01*
X186541859Y-54982658D01*
X186686452Y-55003447D01*
X186831044Y-54982658D01*
X186963921Y-54921975D01*
X187011300Y-54883795D01*
X187011319Y-54883778D01*
X187785296Y-54109802D01*
X187785296Y-54109800D01*
X186506847Y-52831352D01*
X186364146Y-52688651D01*
X186327241Y-52651746D01*
X187045662Y-52651746D01*
X187045662Y-52651748D01*
X188144505Y-53750591D01*
X188144507Y-53750591D01*
X188713021Y-53182077D01*
X194834782Y-53182077D01*
X194855591Y-53326811D01*
X194916334Y-53459820D01*
X194954554Y-53507249D01*
X195221709Y-53774404D01*
X195255733Y-53836715D01*
X195250669Y-53907530D01*
X195249022Y-53911717D01*
X195199709Y-54030766D01*
X195164795Y-54206288D01*
X195164795Y-54385251D01*
X195175172Y-54437418D01*
X195199708Y-54560770D01*
X195268193Y-54726106D01*
X195367617Y-54874905D01*
X195494160Y-55001448D01*
X195642959Y-55100872D01*
X195808295Y-55169357D01*
X195983816Y-55204270D01*
X195983817Y-55204270D01*
X196162773Y-55204270D01*
X196162774Y-55204270D01*
X196338295Y-55169357D01*
X196363442Y-55158940D01*
X196457347Y-55120044D01*
X196527937Y-55112454D01*
X196591424Y-55144233D01*
X196594661Y-55147357D01*
X196861800Y-55414496D01*
X196861809Y-55414504D01*
X196861816Y-55414511D01*
X196909245Y-55452731D01*
X197042254Y-55513474D01*
X197186988Y-55534283D01*
X197331722Y-55513474D01*
X197464731Y-55452731D01*
X197512160Y-55414511D01*
X197700088Y-55226583D01*
X197889888Y-55036784D01*
X198271133Y-54655539D01*
X205249032Y-54655539D01*
X206153027Y-54655539D01*
X206117805Y-54716546D01*
X206083730Y-54843713D01*
X206083730Y-54975365D01*
X206117805Y-55102532D01*
X206153027Y-55163539D01*
X205249032Y-55163539D01*
X205259170Y-55227543D01*
X205325220Y-55430825D01*
X205325223Y-55430831D01*
X205422266Y-55621289D01*
X205547907Y-55794218D01*
X205699050Y-55945361D01*
X205871979Y-56071002D01*
X206062437Y-56168045D01*
X206062443Y-56168048D01*
X206265728Y-56234099D01*
X206329730Y-56244235D01*
X206329730Y-55340241D01*
X206390737Y-55375464D01*
X206517904Y-55409539D01*
X206649556Y-55409539D01*
X206776723Y-55375464D01*
X206837730Y-55340241D01*
X206837730Y-56244235D01*
X206901731Y-56234099D01*
X207105016Y-56168048D01*
X207105022Y-56168045D01*
X207295480Y-56071002D01*
X207468409Y-55945361D01*
X207619552Y-55794218D01*
X207745193Y-55621289D01*
X207842236Y-55430831D01*
X207842239Y-55430825D01*
X207908289Y-55227543D01*
X207918428Y-55163539D01*
X207014433Y-55163539D01*
X207049655Y-55102532D01*
X207083730Y-54975365D01*
X207083730Y-54843713D01*
X207049655Y-54716546D01*
X207014433Y-54655539D01*
X207918427Y-54655539D01*
X207908290Y-54591539D01*
X207907800Y-54589498D01*
X207907840Y-54588696D01*
X207907516Y-54586651D01*
X207907945Y-54586582D01*
X207911341Y-54518589D01*
X207952655Y-54460852D01*
X208018627Y-54434616D01*
X208056880Y-54437351D01*
X208056893Y-54437273D01*
X208057809Y-54437418D01*
X208059737Y-54437556D01*
X208061784Y-54438047D01*
X208125782Y-54448183D01*
X208125782Y-53544189D01*
X208186789Y-53579412D01*
X208313956Y-53613487D01*
X208445608Y-53613487D01*
X208572775Y-53579412D01*
X208633782Y-53544189D01*
X208633782Y-54448183D01*
X208697783Y-54438047D01*
X208901068Y-54371996D01*
X208901074Y-54371993D01*
X209091532Y-54274950D01*
X209264461Y-54149309D01*
X209415604Y-53998166D01*
X209541245Y-53825237D01*
X209638288Y-53634779D01*
X209638291Y-53634773D01*
X209704341Y-53431491D01*
X209714480Y-53367487D01*
X208810485Y-53367487D01*
X208845707Y-53306480D01*
X208879782Y-53179313D01*
X208879782Y-53047661D01*
X208845707Y-52920494D01*
X208810485Y-52859487D01*
X209714479Y-52859487D01*
X209704341Y-52795481D01*
X209703851Y-52793439D01*
X209703891Y-52792638D01*
X209703568Y-52790599D01*
X209703996Y-52790531D01*
X209707397Y-52722531D01*
X209748716Y-52664796D01*
X209814689Y-52638566D01*
X209852931Y-52641300D01*
X209852944Y-52641222D01*
X209853855Y-52641366D01*
X209855781Y-52641504D01*
X209857829Y-52641995D01*
X209921833Y-52652132D01*
X209921833Y-51748138D01*
X209982840Y-51783361D01*
X210110007Y-51817436D01*
X210241659Y-51817436D01*
X210368826Y-51783361D01*
X210429833Y-51748138D01*
X210429833Y-52652132D01*
X210493834Y-52641996D01*
X210697119Y-52575945D01*
X210697125Y-52575942D01*
X210887583Y-52478899D01*
X211060512Y-52353258D01*
X211211655Y-52202115D01*
X211337296Y-52029186D01*
X211434339Y-51838728D01*
X211434342Y-51838722D01*
X211500392Y-51635440D01*
X211510531Y-51571436D01*
X210606536Y-51571436D01*
X210641758Y-51510429D01*
X210675833Y-51383262D01*
X210675833Y-51251610D01*
X210641758Y-51124443D01*
X210606536Y-51063436D01*
X211553546Y-51063436D01*
X211621667Y-51083438D01*
X211661821Y-51128951D01*
X211694411Y-51155214D01*
X211694418Y-51155219D01*
X211827292Y-51215900D01*
X211827291Y-51215900D01*
X211971884Y-51236689D01*
X212116476Y-51215900D01*
X212249353Y-51155217D01*
X212296732Y-51117037D01*
X212296751Y-51117020D01*
X212752530Y-50661242D01*
X212752530Y-50661240D01*
X212096832Y-50005542D01*
X212164877Y-49987310D01*
X212278891Y-49921484D01*
X212371983Y-49828392D01*
X212437809Y-49714378D01*
X212456041Y-49646333D01*
X213111739Y-50302031D01*
X213111741Y-50302031D01*
X213567519Y-49846252D01*
X213567536Y-49846233D01*
X213605716Y-49798854D01*
X213666399Y-49665977D01*
X213687188Y-49521385D01*
X213666399Y-49376792D01*
X213605716Y-49243915D01*
X213567536Y-49196536D01*
X213567519Y-49196517D01*
X213111741Y-48740739D01*
X213111739Y-48740739D01*
X212456041Y-49396436D01*
X212437809Y-49328392D01*
X212371983Y-49214378D01*
X212278891Y-49121286D01*
X212164877Y-49055460D01*
X212096832Y-49037227D01*
X212752530Y-48381530D01*
X212752530Y-48381528D01*
X212296751Y-47925749D01*
X212296732Y-47925732D01*
X212249353Y-47887552D01*
X212116475Y-47826869D01*
X212116476Y-47826869D01*
X211971884Y-47806080D01*
X211827291Y-47826869D01*
X211694414Y-47887552D01*
X211647035Y-47925732D01*
X211647016Y-47925749D01*
X211191238Y-48381528D01*
X211191238Y-48381530D01*
X211846935Y-49037227D01*
X211778891Y-49055460D01*
X211664877Y-49121286D01*
X211571785Y-49214378D01*
X211505959Y-49328392D01*
X211487725Y-49396437D01*
X210832028Y-48740739D01*
X210832027Y-48740739D01*
X210376248Y-49196517D01*
X210376231Y-49196536D01*
X210338051Y-49243915D01*
X210277368Y-49376792D01*
X210256579Y-49521385D01*
X210277368Y-49665977D01*
X210338052Y-49798855D01*
X210364597Y-49831796D01*
X210411029Y-49873504D01*
X210429833Y-49939723D01*
X210429833Y-50886733D01*
X210368826Y-50851511D01*
X210241659Y-50817436D01*
X210110007Y-50817436D01*
X209982840Y-50851511D01*
X209921833Y-50886733D01*
X209921833Y-49982738D01*
X209857828Y-49992876D01*
X209654546Y-50058926D01*
X209654540Y-50058929D01*
X209464082Y-50155972D01*
X209291153Y-50281613D01*
X209140010Y-50432756D01*
X209014369Y-50605685D01*
X208917326Y-50796143D01*
X208917323Y-50796149D01*
X208851273Y-50999431D01*
X208841135Y-51063436D01*
X209745130Y-51063436D01*
X209709908Y-51124443D01*
X209675833Y-51251610D01*
X209675833Y-51383262D01*
X209709908Y-51510429D01*
X209745130Y-51571436D01*
X208841135Y-51571436D01*
X208851274Y-51635449D01*
X208851766Y-51637496D01*
X208851725Y-51638296D01*
X208852047Y-51640324D01*
X208851620Y-51640391D01*
X208851314Y-51646505D01*
X208854671Y-51654881D01*
X208849565Y-51681417D01*
X208848213Y-51708404D01*
X208842961Y-51715740D01*
X208841257Y-51724599D01*
X208822616Y-51744161D01*
X208806888Y-51766134D01*
X208798505Y-51769466D01*
X208792281Y-51775998D01*
X208758991Y-51789338D01*
X208633782Y-51819756D01*
X208633782Y-52682784D01*
X208572775Y-52647562D01*
X208445608Y-52613487D01*
X208313956Y-52613487D01*
X208186789Y-52647562D01*
X208125782Y-52682784D01*
X208125782Y-51778789D01*
X208061777Y-51788927D01*
X207858495Y-51854977D01*
X207858489Y-51854980D01*
X207668031Y-51952023D01*
X207495102Y-52077664D01*
X207343959Y-52228807D01*
X207218318Y-52401736D01*
X207121275Y-52592194D01*
X207121272Y-52592200D01*
X207055222Y-52795482D01*
X207045084Y-52859487D01*
X207949079Y-52859487D01*
X207913857Y-52920494D01*
X207879782Y-53047661D01*
X207879782Y-53179313D01*
X207913857Y-53306480D01*
X207949079Y-53367487D01*
X207045084Y-53367487D01*
X207055224Y-53431502D01*
X207055716Y-53433552D01*
X207055675Y-53434353D01*
X207055996Y-53436375D01*
X207055571Y-53436442D01*
X207055264Y-53442559D01*
X207058620Y-53450933D01*
X207053514Y-53477470D01*
X207052161Y-53504460D01*
X207046909Y-53511795D01*
X207045206Y-53520651D01*
X207026564Y-53540214D01*
X207010834Y-53562188D01*
X207002453Y-53565518D01*
X206996230Y-53572050D01*
X206962940Y-53585390D01*
X206837730Y-53615808D01*
X206837730Y-54478836D01*
X206776723Y-54443614D01*
X206649556Y-54409539D01*
X206517904Y-54409539D01*
X206390737Y-54443614D01*
X206329730Y-54478836D01*
X206329730Y-53574841D01*
X206265725Y-53584979D01*
X206062443Y-53651029D01*
X206062437Y-53651032D01*
X205871979Y-53748075D01*
X205699050Y-53873716D01*
X205547907Y-54024859D01*
X205422266Y-54197788D01*
X205325223Y-54388246D01*
X205325220Y-54388252D01*
X205259170Y-54591534D01*
X205249032Y-54655539D01*
X198271133Y-54655539D01*
X198322568Y-54604104D01*
X199419407Y-53507264D01*
X199419422Y-53507249D01*
X199457642Y-53459820D01*
X199518385Y-53326811D01*
X199539194Y-53182077D01*
X199518385Y-53037343D01*
X199457642Y-52904334D01*
X199419422Y-52856905D01*
X199386869Y-52824352D01*
X199380703Y-52815650D01*
X199372495Y-52791755D01*
X199360389Y-52769585D01*
X199361163Y-52758763D01*
X199357639Y-52748504D01*
X199363651Y-52723969D01*
X199365454Y-52698770D01*
X199371955Y-52690084D01*
X199374538Y-52679548D01*
X199392861Y-52662157D01*
X199408001Y-52641934D01*
X199418165Y-52638142D01*
X199426035Y-52630674D01*
X199450852Y-52625951D01*
X199474521Y-52617123D01*
X199483510Y-52616802D01*
X199617490Y-52616802D01*
X199617497Y-52616802D01*
X199823108Y-52589732D01*
X199844994Y-52586851D01*
X199844994Y-52586850D01*
X199845001Y-52586850D01*
X200066650Y-52527460D01*
X200278651Y-52439646D01*
X200477375Y-52324913D01*
X200659424Y-52185221D01*
X200821682Y-52022963D01*
X200961374Y-51840914D01*
X201076107Y-51642190D01*
X201163921Y-51430189D01*
X201223311Y-51208540D01*
X201233789Y-51128951D01*
X201239622Y-51084650D01*
X201249393Y-51010429D01*
X201253263Y-50981036D01*
X201253263Y-50751568D01*
X201231030Y-50582700D01*
X201223312Y-50524070D01*
X201223311Y-50524068D01*
X201223311Y-50524064D01*
X201163921Y-50302415D01*
X201076107Y-50090414D01*
X201076101Y-50090405D01*
X201076100Y-50090401D01*
X200961376Y-49891693D01*
X200961371Y-49891686D01*
X200821689Y-49709649D01*
X200821670Y-49709628D01*
X200659436Y-49547394D01*
X200659415Y-49547375D01*
X200477378Y-49407693D01*
X200477371Y-49407688D01*
X200278663Y-49292964D01*
X200278655Y-49292960D01*
X200278651Y-49292958D01*
X200066650Y-49205144D01*
X199845001Y-49145754D01*
X199844994Y-49145752D01*
X199617499Y-49115802D01*
X199617497Y-49115802D01*
X199388029Y-49115802D01*
X199388026Y-49115802D01*
X199160531Y-49145752D01*
X198971073Y-49196517D01*
X198938876Y-49205144D01*
X198744352Y-49285719D01*
X198726873Y-49292959D01*
X198726862Y-49292964D01*
X198528154Y-49407688D01*
X198528147Y-49407693D01*
X198346110Y-49547375D01*
X198346089Y-49547394D01*
X198183855Y-49709628D01*
X198183836Y-49709649D01*
X198044154Y-49891686D01*
X198044149Y-49891693D01*
X197929425Y-50090401D01*
X197929420Y-50090412D01*
X197929419Y-50090414D01*
X197850222Y-50281613D01*
X197841605Y-50302415D01*
X197782213Y-50524070D01*
X197752263Y-50751565D01*
X197752263Y-50885555D01*
X197732261Y-50953676D01*
X197678605Y-51000169D01*
X197608331Y-51010273D01*
X197543751Y-50980779D01*
X197537168Y-50974650D01*
X197512175Y-50949657D01*
X197512165Y-50949648D01*
X197512160Y-50949643D01*
X197464731Y-50911423D01*
X197331722Y-50850680D01*
X197186988Y-50829871D01*
X197042253Y-50850680D01*
X196909244Y-50911423D01*
X196861819Y-50949640D01*
X196861800Y-50949657D01*
X194954568Y-52856889D01*
X194954551Y-52856908D01*
X194916334Y-52904333D01*
X194855591Y-53037342D01*
X194851724Y-53064238D01*
X194834782Y-53182077D01*
X188713021Y-53182077D01*
X188811127Y-53083971D01*
X188918483Y-52976614D01*
X188918500Y-52976595D01*
X188956680Y-52929216D01*
X189017363Y-52796339D01*
X189038152Y-52651747D01*
X189017363Y-52507154D01*
X188956680Y-52374277D01*
X188918500Y-52326898D01*
X188918483Y-52326879D01*
X188144507Y-51552903D01*
X188144505Y-51552903D01*
X187045662Y-52651746D01*
X186327241Y-52651746D01*
X185228399Y-51552903D01*
X185228397Y-51552903D01*
X184454420Y-52326879D01*
X184454403Y-52326898D01*
X184416223Y-52374277D01*
X184355540Y-52507154D01*
X184334751Y-52651747D01*
X184355540Y-52796339D01*
X184416223Y-52929216D01*
X184454403Y-52976595D01*
X184454420Y-52976614D01*
X184479732Y-53001926D01*
X184513758Y-53064238D01*
X184508693Y-53135053D01*
X184466146Y-53191889D01*
X184399626Y-53216700D01*
X184390637Y-53217021D01*
X184255940Y-53217021D01*
X184028445Y-53246971D01*
X183806790Y-53306363D01*
X183594787Y-53394178D01*
X183594776Y-53394183D01*
X183396068Y-53508907D01*
X183396061Y-53508912D01*
X183214024Y-53648594D01*
X183214003Y-53648613D01*
X183051769Y-53810847D01*
X183051750Y-53810868D01*
X182912068Y-53992905D01*
X182912063Y-53992912D01*
X182797339Y-54191620D01*
X182797334Y-54191631D01*
X182797333Y-54191633D01*
X182782878Y-54226530D01*
X182709519Y-54403634D01*
X182650127Y-54625289D01*
X182620177Y-54852784D01*
X177357209Y-54852784D01*
X177375705Y-54736005D01*
X177375705Y-54562641D01*
X177348585Y-54391411D01*
X177295013Y-54226532D01*
X177216307Y-54072063D01*
X177114406Y-53931809D01*
X177114404Y-53931806D01*
X176991821Y-53809223D01*
X176851568Y-53707323D01*
X176851567Y-53707322D01*
X176851565Y-53707321D01*
X176697096Y-53628615D01*
X176697093Y-53628614D01*
X176697091Y-53628613D01*
X176532220Y-53575044D01*
X176532224Y-53575044D01*
X176472078Y-53565518D01*
X176360987Y-53547923D01*
X176187623Y-53547923D01*
X176016393Y-53575043D01*
X176016387Y-53575044D01*
X175851518Y-53628613D01*
X175851512Y-53628616D01*
X175697041Y-53707323D01*
X175556788Y-53809223D01*
X175434205Y-53931806D01*
X175332305Y-54072059D01*
X175253598Y-54226530D01*
X175253595Y-54226536D01*
X175200026Y-54391405D01*
X175200025Y-54391410D01*
X175200025Y-54391411D01*
X175172905Y-54562641D01*
X166779821Y-54562641D01*
X167001671Y-54089074D01*
X167003476Y-54085383D01*
X167540591Y-53031080D01*
X167542534Y-53027419D01*
X168114210Y-51991476D01*
X168116244Y-51987928D01*
X168721913Y-50971379D01*
X168724046Y-50967931D01*
X168939919Y-50631440D01*
X178198392Y-50631440D01*
X178198392Y-50889031D01*
X178232012Y-51144403D01*
X178232013Y-51144405D01*
X178232014Y-51144411D01*
X178298682Y-51393220D01*
X178397256Y-51631198D01*
X178397257Y-51631199D01*
X178397262Y-51631210D01*
X178526051Y-51854279D01*
X178682852Y-52058624D01*
X178682871Y-52058645D01*
X178864982Y-52240756D01*
X178864992Y-52240765D01*
X178864998Y-52240771D01*
X178865001Y-52240773D01*
X178865003Y-52240775D01*
X179069348Y-52397576D01*
X179292417Y-52526365D01*
X179292421Y-52526366D01*
X179292430Y-52526372D01*
X179530408Y-52624946D01*
X179779217Y-52691614D01*
X179779223Y-52691614D01*
X179779224Y-52691615D01*
X179808526Y-52695472D01*
X180034599Y-52725236D01*
X180034606Y-52725236D01*
X180292178Y-52725236D01*
X180292185Y-52725236D01*
X180547567Y-52691614D01*
X180796376Y-52624946D01*
X181034354Y-52526372D01*
X181257430Y-52397579D01*
X181257430Y-52397578D01*
X181257435Y-52397576D01*
X181394323Y-52292537D01*
X181461786Y-52240771D01*
X181643927Y-52058630D01*
X181709669Y-51972953D01*
X181800732Y-51854279D01*
X181929521Y-51631210D01*
X181929520Y-51631210D01*
X181929528Y-51631198D01*
X182028102Y-51393220D01*
X182081565Y-51193692D01*
X185587608Y-51193692D01*
X185587608Y-51193694D01*
X186686451Y-52292537D01*
X186686453Y-52292537D01*
X187785296Y-51193694D01*
X187785296Y-51193692D01*
X187011319Y-50419715D01*
X187011300Y-50419698D01*
X186963921Y-50381518D01*
X186831043Y-50320835D01*
X186831044Y-50320835D01*
X186686452Y-50300046D01*
X186541859Y-50320835D01*
X186408982Y-50381518D01*
X186361603Y-50419698D01*
X186361584Y-50419715D01*
X185587608Y-51193692D01*
X182081565Y-51193692D01*
X182094770Y-51144411D01*
X182094771Y-51144403D01*
X182097319Y-51125054D01*
X182097319Y-51125053D01*
X182113857Y-50999431D01*
X182128392Y-50889029D01*
X182128392Y-50631443D01*
X182094770Y-50376061D01*
X182028102Y-50127252D01*
X181929528Y-49889274D01*
X181929522Y-49889265D01*
X181929521Y-49889261D01*
X181800732Y-49666192D01*
X181643931Y-49461847D01*
X181643929Y-49461845D01*
X181643927Y-49461842D01*
X181643921Y-49461836D01*
X181643912Y-49461826D01*
X181461801Y-49279715D01*
X181461780Y-49279696D01*
X181257435Y-49122895D01*
X181034366Y-48994106D01*
X181034358Y-48994102D01*
X181034354Y-48994100D01*
X180796376Y-48895526D01*
X180547567Y-48828858D01*
X180547565Y-48828857D01*
X180547559Y-48828856D01*
X180292187Y-48795236D01*
X180292185Y-48795236D01*
X180034599Y-48795236D01*
X180034596Y-48795236D01*
X179779224Y-48828856D01*
X179779217Y-48828858D01*
X179530408Y-48895526D01*
X179295941Y-48992646D01*
X179292428Y-48994101D01*
X179292417Y-48994106D01*
X179069348Y-49122895D01*
X178865003Y-49279696D01*
X178864982Y-49279715D01*
X178682871Y-49461826D01*
X178682852Y-49461847D01*
X178526051Y-49666192D01*
X178397262Y-49889261D01*
X178397257Y-49889272D01*
X178298682Y-50127252D01*
X178232012Y-50376068D01*
X178198392Y-50631440D01*
X168939919Y-50631440D01*
X169362983Y-49971992D01*
X169365249Y-49968586D01*
X170036780Y-48994313D01*
X170039163Y-48990977D01*
X170415756Y-48481523D01*
X195396159Y-48481523D01*
X195396159Y-48654887D01*
X195423279Y-48826117D01*
X195423280Y-48826122D01*
X195476836Y-48990950D01*
X195476851Y-48990996D01*
X195544056Y-49122893D01*
X195555559Y-49145468D01*
X195657459Y-49285721D01*
X195780042Y-49408304D01*
X195780045Y-49408306D01*
X195920299Y-49510207D01*
X196074768Y-49588913D01*
X196239641Y-49642483D01*
X196239642Y-49642483D01*
X196239647Y-49642485D01*
X196410877Y-49669605D01*
X196410880Y-49669605D01*
X196584238Y-49669605D01*
X196584241Y-49669605D01*
X196755471Y-49642485D01*
X196920350Y-49588913D01*
X197074819Y-49510207D01*
X197215073Y-49408306D01*
X197337660Y-49285719D01*
X197439561Y-49145465D01*
X197518267Y-48990996D01*
X197571839Y-48826117D01*
X197580463Y-48771666D01*
X202843431Y-48771666D01*
X202843431Y-49001139D01*
X202873381Y-49228634D01*
X202873383Y-49228641D01*
X202932773Y-49450290D01*
X203020587Y-49662291D01*
X203020588Y-49662292D01*
X203020593Y-49662303D01*
X203135317Y-49861011D01*
X203135322Y-49861018D01*
X203275004Y-50043055D01*
X203275023Y-50043076D01*
X203437257Y-50205310D01*
X203437278Y-50205329D01*
X203619315Y-50345011D01*
X203619322Y-50345016D01*
X203818030Y-50459740D01*
X203818034Y-50459741D01*
X203818043Y-50459747D01*
X204030044Y-50547561D01*
X204251693Y-50606951D01*
X204251697Y-50606951D01*
X204251699Y-50606952D01*
X204310329Y-50614670D01*
X204479197Y-50636903D01*
X204479204Y-50636903D01*
X204708658Y-50636903D01*
X204708665Y-50636903D01*
X204914276Y-50609833D01*
X204936162Y-50606952D01*
X204936162Y-50606951D01*
X204936169Y-50606951D01*
X205157818Y-50547561D01*
X205369819Y-50459747D01*
X205568543Y-50345014D01*
X205750592Y-50205322D01*
X205912850Y-50043064D01*
X206052542Y-49861015D01*
X206167275Y-49662291D01*
X206255089Y-49450290D01*
X206314479Y-49228641D01*
X206344431Y-49001137D01*
X206344431Y-48866442D01*
X206364433Y-48798321D01*
X206418089Y-48751828D01*
X206488363Y-48741724D01*
X206552943Y-48771218D01*
X206559528Y-48777348D01*
X206584849Y-48802670D01*
X206584857Y-48802677D01*
X206632236Y-48840857D01*
X206765114Y-48901540D01*
X206765113Y-48901540D01*
X206909706Y-48922329D01*
X207054298Y-48901540D01*
X207187175Y-48840857D01*
X207234554Y-48802677D01*
X207234573Y-48802660D01*
X207796991Y-48240243D01*
X208008550Y-48028684D01*
X208008550Y-48028682D01*
X206730101Y-46750234D01*
X206587400Y-46607533D01*
X206550495Y-46570628D01*
X207268916Y-46570628D01*
X207268916Y-46570630D01*
X208367759Y-47669473D01*
X208367761Y-47669473D01*
X209141737Y-46895496D01*
X209141754Y-46895477D01*
X209179934Y-46848098D01*
X209240617Y-46715221D01*
X209261406Y-46570629D01*
X209240617Y-46426036D01*
X209179934Y-46293159D01*
X209141754Y-46245780D01*
X209141737Y-46245761D01*
X208367761Y-45471785D01*
X208367759Y-45471785D01*
X207268916Y-46570628D01*
X206550495Y-46570628D01*
X205451653Y-45471785D01*
X205451651Y-45471785D01*
X204677674Y-46245761D01*
X204677657Y-46245780D01*
X204639477Y-46293159D01*
X204578794Y-46426036D01*
X204558005Y-46570629D01*
X204578794Y-46715221D01*
X204639477Y-46848098D01*
X204677657Y-46895477D01*
X204677674Y-46895496D01*
X204702986Y-46920808D01*
X204737012Y-46983120D01*
X204731947Y-47053935D01*
X204689400Y-47110771D01*
X204622880Y-47135582D01*
X204613891Y-47135903D01*
X204479194Y-47135903D01*
X204251699Y-47165853D01*
X204030044Y-47225245D01*
X203864201Y-47293940D01*
X203818041Y-47313060D01*
X203818030Y-47313065D01*
X203619322Y-47427789D01*
X203619315Y-47427794D01*
X203437278Y-47567476D01*
X203437257Y-47567495D01*
X203275023Y-47729729D01*
X203275004Y-47729750D01*
X203135322Y-47911787D01*
X203135317Y-47911794D01*
X203020593Y-48110502D01*
X203020588Y-48110513D01*
X202932773Y-48322516D01*
X202873381Y-48544171D01*
X202843431Y-48771666D01*
X197580463Y-48771666D01*
X197598959Y-48654887D01*
X197598959Y-48481523D01*
X197571839Y-48310293D01*
X197518267Y-48145414D01*
X197439561Y-47990945D01*
X197337660Y-47850691D01*
X197337658Y-47850688D01*
X197215075Y-47728105D01*
X197074822Y-47626205D01*
X197074821Y-47626204D01*
X197074819Y-47626203D01*
X196920350Y-47547497D01*
X196920347Y-47547496D01*
X196920345Y-47547495D01*
X196755474Y-47493926D01*
X196755478Y-47493926D01*
X196723600Y-47488877D01*
X196584241Y-47466805D01*
X196410877Y-47466805D01*
X196239647Y-47493925D01*
X196239641Y-47493926D01*
X196074772Y-47547495D01*
X196074766Y-47547498D01*
X195920295Y-47626205D01*
X195780042Y-47728105D01*
X195657459Y-47850688D01*
X195555559Y-47990941D01*
X195476852Y-48145412D01*
X195476849Y-48145418D01*
X195423280Y-48310287D01*
X195423279Y-48310292D01*
X195423279Y-48310293D01*
X195396159Y-48481523D01*
X170415756Y-48481523D01*
X170742497Y-48039508D01*
X170745017Y-48036215D01*
X170750981Y-48028682D01*
X171479456Y-47108496D01*
X171482009Y-47105378D01*
X171753799Y-46784467D01*
X182951079Y-46784467D01*
X182951079Y-46957831D01*
X182974689Y-47106898D01*
X182978200Y-47129066D01*
X183031769Y-47293935D01*
X183031771Y-47293940D01*
X183110477Y-47448409D01*
X183110479Y-47448412D01*
X183212379Y-47588665D01*
X183334962Y-47711248D01*
X183362075Y-47730947D01*
X183475219Y-47813151D01*
X183629688Y-47891857D01*
X183794561Y-47945427D01*
X183794562Y-47945427D01*
X183794567Y-47945429D01*
X183965797Y-47972549D01*
X183965800Y-47972549D01*
X184139158Y-47972549D01*
X184139161Y-47972549D01*
X184310391Y-47945429D01*
X184475270Y-47891857D01*
X184629739Y-47813151D01*
X184769993Y-47711250D01*
X184892580Y-47588663D01*
X184994481Y-47448409D01*
X185073187Y-47293940D01*
X185126759Y-47129061D01*
X185153879Y-46957831D01*
X185153879Y-46784467D01*
X185126759Y-46613237D01*
X185073187Y-46448358D01*
X184994481Y-46293889D01*
X184928022Y-46202417D01*
X184892578Y-46153632D01*
X184769995Y-46031049D01*
X184629742Y-45929149D01*
X184629741Y-45929148D01*
X184629739Y-45929147D01*
X184475270Y-45850441D01*
X184475267Y-45850440D01*
X184475265Y-45850439D01*
X184310394Y-45796870D01*
X184310398Y-45796870D01*
X184278520Y-45791821D01*
X184139161Y-45769749D01*
X183965797Y-45769749D01*
X183794567Y-45796869D01*
X183794561Y-45796870D01*
X183629692Y-45850439D01*
X183629686Y-45850442D01*
X183475215Y-45929149D01*
X183334962Y-46031049D01*
X183212379Y-46153632D01*
X183110479Y-46293885D01*
X183031772Y-46448356D01*
X183031769Y-46448362D01*
X182978200Y-46613231D01*
X182978199Y-46613236D01*
X182978199Y-46613237D01*
X182951079Y-46784467D01*
X171753799Y-46784467D01*
X172246782Y-46202387D01*
X172249476Y-46199312D01*
X173043650Y-45322152D01*
X173046421Y-45319192D01*
X173790276Y-44550322D01*
X198421646Y-44550322D01*
X198421646Y-44807913D01*
X198455266Y-45063285D01*
X198455267Y-45063287D01*
X198455268Y-45063293D01*
X198521936Y-45312102D01*
X198620510Y-45550080D01*
X198620511Y-45550081D01*
X198620516Y-45550092D01*
X198749305Y-45773161D01*
X198906106Y-45977506D01*
X198906125Y-45977527D01*
X199088236Y-46159638D01*
X199088246Y-46159647D01*
X199088252Y-46159653D01*
X199088255Y-46159655D01*
X199088257Y-46159657D01*
X199292602Y-46316458D01*
X199515671Y-46445247D01*
X199515675Y-46445248D01*
X199515684Y-46445254D01*
X199753662Y-46543828D01*
X200002471Y-46610496D01*
X200002477Y-46610496D01*
X200002478Y-46610497D01*
X200023245Y-46613231D01*
X200257853Y-46644118D01*
X200257860Y-46644118D01*
X200515432Y-46644118D01*
X200515439Y-46644118D01*
X200770821Y-46610496D01*
X201019630Y-46543828D01*
X201257608Y-46445254D01*
X201480684Y-46316461D01*
X201480684Y-46316460D01*
X201480689Y-46316458D01*
X201631368Y-46200837D01*
X201685040Y-46159653D01*
X201867181Y-45977512D01*
X201932923Y-45891835D01*
X202023986Y-45773161D01*
X202152775Y-45550092D01*
X202152774Y-45550092D01*
X202152782Y-45550080D01*
X202251356Y-45312102D01*
X202304819Y-45112574D01*
X205810862Y-45112574D01*
X205810862Y-45112576D01*
X206909705Y-46211419D01*
X206909707Y-46211419D01*
X208008550Y-45112576D01*
X208008550Y-45112574D01*
X207234573Y-44338597D01*
X207234554Y-44338580D01*
X207187175Y-44300400D01*
X207054297Y-44239717D01*
X207054298Y-44239717D01*
X206909706Y-44218928D01*
X206765113Y-44239717D01*
X206632236Y-44300400D01*
X206584857Y-44338580D01*
X206584838Y-44338597D01*
X205810862Y-45112574D01*
X202304819Y-45112574D01*
X202318024Y-45063293D01*
X202318025Y-45063285D01*
X202320573Y-45043936D01*
X202320573Y-45043935D01*
X202332299Y-44954860D01*
X202351646Y-44807911D01*
X202351646Y-44550325D01*
X202318024Y-44294943D01*
X202251356Y-44046134D01*
X202152782Y-43808156D01*
X202152776Y-43808147D01*
X202152775Y-43808143D01*
X202023986Y-43585074D01*
X201867185Y-43380729D01*
X201867183Y-43380727D01*
X201867181Y-43380724D01*
X201867175Y-43380718D01*
X201867166Y-43380708D01*
X201685055Y-43198597D01*
X201685034Y-43198578D01*
X201480689Y-43041777D01*
X201257620Y-42912988D01*
X201257612Y-42912984D01*
X201257608Y-42912982D01*
X201019630Y-42814408D01*
X200770821Y-42747740D01*
X200770819Y-42747739D01*
X200770813Y-42747738D01*
X200515441Y-42714118D01*
X200515439Y-42714118D01*
X200257853Y-42714118D01*
X200257850Y-42714118D01*
X200002478Y-42747738D01*
X199753662Y-42814408D01*
X199515682Y-42912983D01*
X199515671Y-42912988D01*
X199292602Y-43041777D01*
X199088257Y-43198578D01*
X199088236Y-43198597D01*
X198906125Y-43380708D01*
X198906106Y-43380729D01*
X198749305Y-43585074D01*
X198620516Y-43808143D01*
X198620511Y-43808154D01*
X198521936Y-44046134D01*
X198455266Y-44294950D01*
X198421646Y-44550322D01*
X173790276Y-44550322D01*
X173869176Y-44468769D01*
X173872047Y-44465897D01*
X174722502Y-43643122D01*
X174725467Y-43640347D01*
X175602633Y-42846176D01*
X175605735Y-42843460D01*
X176508655Y-42078755D01*
X176511797Y-42076182D01*
X177439586Y-41341696D01*
X177442804Y-41339235D01*
X178303039Y-40703349D01*
X203174333Y-40703349D01*
X203174333Y-40876713D01*
X203193081Y-40995083D01*
X203201454Y-41047948D01*
X203255023Y-41212817D01*
X203255025Y-41212822D01*
X203255026Y-41212823D01*
X203333733Y-41367294D01*
X203435633Y-41507547D01*
X203558216Y-41630130D01*
X203558219Y-41630132D01*
X203698473Y-41732033D01*
X203852942Y-41810739D01*
X204017815Y-41864309D01*
X204017816Y-41864309D01*
X204017821Y-41864311D01*
X204189051Y-41891431D01*
X204189054Y-41891431D01*
X204362412Y-41891431D01*
X204362415Y-41891431D01*
X204533645Y-41864311D01*
X204698524Y-41810739D01*
X204852993Y-41732033D01*
X204993247Y-41630132D01*
X205115834Y-41507545D01*
X205217735Y-41367291D01*
X205296441Y-41212822D01*
X205350013Y-41047943D01*
X205377133Y-40876713D01*
X205377133Y-40703349D01*
X205350013Y-40532119D01*
X205296441Y-40367240D01*
X205217735Y-40212771D01*
X205115834Y-40072517D01*
X205115832Y-40072514D01*
X204993249Y-39949931D01*
X204852996Y-39848031D01*
X204852995Y-39848030D01*
X204852993Y-39848029D01*
X204698524Y-39769323D01*
X204698521Y-39769322D01*
X204698519Y-39769321D01*
X204533648Y-39715752D01*
X204533652Y-39715752D01*
X204501774Y-39710703D01*
X204362415Y-39688631D01*
X204189051Y-39688631D01*
X204017821Y-39715751D01*
X204017815Y-39715752D01*
X203852946Y-39769321D01*
X203852940Y-39769324D01*
X203698469Y-39848031D01*
X203558216Y-39949931D01*
X203435633Y-40072514D01*
X203333733Y-40212767D01*
X203255026Y-40367238D01*
X203255023Y-40367244D01*
X203201454Y-40532113D01*
X203201453Y-40532118D01*
X203201453Y-40532119D01*
X203174333Y-40703349D01*
X178303039Y-40703349D01*
X178394325Y-40635870D01*
X178397654Y-40633493D01*
X179371920Y-39961977D01*
X179375327Y-39959711D01*
X180371270Y-39320778D01*
X180374718Y-39318645D01*
X181391234Y-38713005D01*
X181394810Y-38710954D01*
X182430786Y-38139268D01*
X182434402Y-38137349D01*
X183488779Y-37600204D01*
X183492399Y-37598435D01*
X184563918Y-37096472D01*
X184567676Y-37094787D01*
X185655203Y-36628537D01*
X185659001Y-36626984D01*
X186761282Y-36196979D01*
X186765181Y-36195533D01*
X187881109Y-35802206D01*
X187885017Y-35800899D01*
X189013419Y-35444667D01*
X189017311Y-35443510D01*
X190156825Y-35124803D01*
X190160806Y-35123760D01*
X191310240Y-34842911D01*
X191314244Y-34842002D01*
X192472337Y-34599317D01*
X192476326Y-34598549D01*
X193641884Y-34394284D01*
X193645899Y-34393649D01*
X194817493Y-34228050D01*
X194821594Y-34227540D01*
X195998018Y-34100777D01*
X196002107Y-34100404D01*
X197182125Y-34012612D01*
X197186197Y-34012377D01*
X198368413Y-33963658D01*
X198372556Y-33963556D01*
X199555776Y-33953959D01*
X199559831Y-33953993D01*
G37*
G04 #@! TD.AperFunction*
M02*
