G04 #@! TF.GenerationSoftware,KiCad,Pcbnew,9.0.2*
G04 #@! TF.CreationDate,2025-10-02T21:33:12-04:00*
G04 #@! TF.ProjectId,Trackball,54726163-6b62-4616-9c6c-2e6b69636164,rev?*
G04 #@! TF.SameCoordinates,Original*
G04 #@! TF.FileFunction,Legend,Bot*
G04 #@! TF.FilePolarity,Positive*
%FSLAX46Y46*%
G04 Gerber Fmt 4.6, Leading zero omitted, Abs format (unit mm)*
G04 Created by KiCad (PCBNEW 9.0.2) date 2025-10-02 21:33:12*
%MOMM*%
%LPD*%
G01*
G04 APERTURE LIST*
%ADD10C,0.300000*%
%ADD11C,0.150000*%
%ADD12C,0.120000*%
G04 APERTURE END LIST*
D10*
X253370996Y-96278572D02*
X254370996Y-96278572D01*
X253370996Y-95635714D02*
X254156710Y-95635714D01*
X254156710Y-95635714D02*
X254299568Y-95707143D01*
X254299568Y-95707143D02*
X254370996Y-95850000D01*
X254370996Y-95850000D02*
X254370996Y-96064286D01*
X254370996Y-96064286D02*
X254299568Y-96207143D01*
X254299568Y-96207143D02*
X254228139Y-96278572D01*
X252799568Y-98064286D02*
X254728139Y-96778572D01*
X254370996Y-99207144D02*
X253585282Y-99207144D01*
X253585282Y-99207144D02*
X253442425Y-99135715D01*
X253442425Y-99135715D02*
X253370996Y-98992858D01*
X253370996Y-98992858D02*
X253370996Y-98707144D01*
X253370996Y-98707144D02*
X253442425Y-98564286D01*
X254299568Y-99207144D02*
X254370996Y-99064286D01*
X254370996Y-99064286D02*
X254370996Y-98707144D01*
X254370996Y-98707144D02*
X254299568Y-98564286D01*
X254299568Y-98564286D02*
X254156710Y-98492858D01*
X254156710Y-98492858D02*
X254013853Y-98492858D01*
X254013853Y-98492858D02*
X253870996Y-98564286D01*
X253870996Y-98564286D02*
X253799568Y-98707144D01*
X253799568Y-98707144D02*
X253799568Y-99064286D01*
X253799568Y-99064286D02*
X253728139Y-99207144D01*
X254370996Y-99921429D02*
X252870996Y-99921429D01*
X253799568Y-100064287D02*
X254370996Y-100492858D01*
X253370996Y-100492858D02*
X253942425Y-99921429D01*
X252870996Y-101778573D02*
X252870996Y-101492858D01*
X252870996Y-101492858D02*
X252942425Y-101350001D01*
X252942425Y-101350001D02*
X253013853Y-101278573D01*
X253013853Y-101278573D02*
X253228139Y-101135715D01*
X253228139Y-101135715D02*
X253513853Y-101064287D01*
X253513853Y-101064287D02*
X254085282Y-101064287D01*
X254085282Y-101064287D02*
X254228139Y-101135715D01*
X254228139Y-101135715D02*
X254299568Y-101207144D01*
X254299568Y-101207144D02*
X254370996Y-101350001D01*
X254370996Y-101350001D02*
X254370996Y-101635715D01*
X254370996Y-101635715D02*
X254299568Y-101778573D01*
X254299568Y-101778573D02*
X254228139Y-101850001D01*
X254228139Y-101850001D02*
X254085282Y-101921430D01*
X254085282Y-101921430D02*
X253728139Y-101921430D01*
X253728139Y-101921430D02*
X253585282Y-101850001D01*
X253585282Y-101850001D02*
X253513853Y-101778573D01*
X253513853Y-101778573D02*
X253442425Y-101635715D01*
X253442425Y-101635715D02*
X253442425Y-101350001D01*
X253442425Y-101350001D02*
X253513853Y-101207144D01*
X253513853Y-101207144D02*
X253585282Y-101135715D01*
X253585282Y-101135715D02*
X253728139Y-101064287D01*
X252870996Y-103207144D02*
X252870996Y-102921429D01*
X252870996Y-102921429D02*
X252942425Y-102778572D01*
X252942425Y-102778572D02*
X253013853Y-102707144D01*
X253013853Y-102707144D02*
X253228139Y-102564286D01*
X253228139Y-102564286D02*
X253513853Y-102492858D01*
X253513853Y-102492858D02*
X254085282Y-102492858D01*
X254085282Y-102492858D02*
X254228139Y-102564286D01*
X254228139Y-102564286D02*
X254299568Y-102635715D01*
X254299568Y-102635715D02*
X254370996Y-102778572D01*
X254370996Y-102778572D02*
X254370996Y-103064286D01*
X254370996Y-103064286D02*
X254299568Y-103207144D01*
X254299568Y-103207144D02*
X254228139Y-103278572D01*
X254228139Y-103278572D02*
X254085282Y-103350001D01*
X254085282Y-103350001D02*
X253728139Y-103350001D01*
X253728139Y-103350001D02*
X253585282Y-103278572D01*
X253585282Y-103278572D02*
X253513853Y-103207144D01*
X253513853Y-103207144D02*
X253442425Y-103064286D01*
X253442425Y-103064286D02*
X253442425Y-102778572D01*
X253442425Y-102778572D02*
X253513853Y-102635715D01*
X253513853Y-102635715D02*
X253585282Y-102564286D01*
X253585282Y-102564286D02*
X253728139Y-102492858D01*
X252870996Y-104635715D02*
X252870996Y-104350000D01*
X252870996Y-104350000D02*
X252942425Y-104207143D01*
X252942425Y-104207143D02*
X253013853Y-104135715D01*
X253013853Y-104135715D02*
X253228139Y-103992857D01*
X253228139Y-103992857D02*
X253513853Y-103921429D01*
X253513853Y-103921429D02*
X254085282Y-103921429D01*
X254085282Y-103921429D02*
X254228139Y-103992857D01*
X254228139Y-103992857D02*
X254299568Y-104064286D01*
X254299568Y-104064286D02*
X254370996Y-104207143D01*
X254370996Y-104207143D02*
X254370996Y-104492857D01*
X254370996Y-104492857D02*
X254299568Y-104635715D01*
X254299568Y-104635715D02*
X254228139Y-104707143D01*
X254228139Y-104707143D02*
X254085282Y-104778572D01*
X254085282Y-104778572D02*
X253728139Y-104778572D01*
X253728139Y-104778572D02*
X253585282Y-104707143D01*
X253585282Y-104707143D02*
X253513853Y-104635715D01*
X253513853Y-104635715D02*
X253442425Y-104492857D01*
X253442425Y-104492857D02*
X253442425Y-104207143D01*
X253442425Y-104207143D02*
X253513853Y-104064286D01*
X253513853Y-104064286D02*
X253585282Y-103992857D01*
X253585282Y-103992857D02*
X253728139Y-103921429D01*
X252870996Y-106064286D02*
X252870996Y-105778571D01*
X252870996Y-105778571D02*
X252942425Y-105635714D01*
X252942425Y-105635714D02*
X253013853Y-105564286D01*
X253013853Y-105564286D02*
X253228139Y-105421428D01*
X253228139Y-105421428D02*
X253513853Y-105350000D01*
X253513853Y-105350000D02*
X254085282Y-105350000D01*
X254085282Y-105350000D02*
X254228139Y-105421428D01*
X254228139Y-105421428D02*
X254299568Y-105492857D01*
X254299568Y-105492857D02*
X254370996Y-105635714D01*
X254370996Y-105635714D02*
X254370996Y-105921428D01*
X254370996Y-105921428D02*
X254299568Y-106064286D01*
X254299568Y-106064286D02*
X254228139Y-106135714D01*
X254228139Y-106135714D02*
X254085282Y-106207143D01*
X254085282Y-106207143D02*
X253728139Y-106207143D01*
X253728139Y-106207143D02*
X253585282Y-106135714D01*
X253585282Y-106135714D02*
X253513853Y-106064286D01*
X253513853Y-106064286D02*
X253442425Y-105921428D01*
X253442425Y-105921428D02*
X253442425Y-105635714D01*
X253442425Y-105635714D02*
X253513853Y-105492857D01*
X253513853Y-105492857D02*
X253585282Y-105421428D01*
X253585282Y-105421428D02*
X253728139Y-105350000D01*
X252870996Y-107492857D02*
X252870996Y-107207142D01*
X252870996Y-107207142D02*
X252942425Y-107064285D01*
X252942425Y-107064285D02*
X253013853Y-106992857D01*
X253013853Y-106992857D02*
X253228139Y-106849999D01*
X253228139Y-106849999D02*
X253513853Y-106778571D01*
X253513853Y-106778571D02*
X254085282Y-106778571D01*
X254085282Y-106778571D02*
X254228139Y-106849999D01*
X254228139Y-106849999D02*
X254299568Y-106921428D01*
X254299568Y-106921428D02*
X254370996Y-107064285D01*
X254370996Y-107064285D02*
X254370996Y-107349999D01*
X254370996Y-107349999D02*
X254299568Y-107492857D01*
X254299568Y-107492857D02*
X254228139Y-107564285D01*
X254228139Y-107564285D02*
X254085282Y-107635714D01*
X254085282Y-107635714D02*
X253728139Y-107635714D01*
X253728139Y-107635714D02*
X253585282Y-107564285D01*
X253585282Y-107564285D02*
X253513853Y-107492857D01*
X253513853Y-107492857D02*
X253442425Y-107349999D01*
X253442425Y-107349999D02*
X253442425Y-107064285D01*
X253442425Y-107064285D02*
X253513853Y-106921428D01*
X253513853Y-106921428D02*
X253585282Y-106849999D01*
X253585282Y-106849999D02*
X253728139Y-106778571D01*
X255285912Y-88171429D02*
X255285912Y-89028572D01*
X256785912Y-88600000D02*
X255285912Y-88600000D01*
X256785912Y-89528571D02*
X255285912Y-89528571D01*
X256785912Y-90171429D02*
X256000198Y-90171429D01*
X256000198Y-90171429D02*
X255857341Y-90100000D01*
X255857341Y-90100000D02*
X255785912Y-89957143D01*
X255785912Y-89957143D02*
X255785912Y-89742857D01*
X255785912Y-89742857D02*
X255857341Y-89600000D01*
X255857341Y-89600000D02*
X255928769Y-89528571D01*
X255785912Y-91528572D02*
X256785912Y-91528572D01*
X255785912Y-90885714D02*
X256571626Y-90885714D01*
X256571626Y-90885714D02*
X256714484Y-90957143D01*
X256714484Y-90957143D02*
X256785912Y-91100000D01*
X256785912Y-91100000D02*
X256785912Y-91314286D01*
X256785912Y-91314286D02*
X256714484Y-91457143D01*
X256714484Y-91457143D02*
X256643055Y-91528572D01*
X256785912Y-92242857D02*
X255785912Y-92242857D01*
X255928769Y-92242857D02*
X255857341Y-92314286D01*
X255857341Y-92314286D02*
X255785912Y-92457143D01*
X255785912Y-92457143D02*
X255785912Y-92671429D01*
X255785912Y-92671429D02*
X255857341Y-92814286D01*
X255857341Y-92814286D02*
X256000198Y-92885715D01*
X256000198Y-92885715D02*
X256785912Y-92885715D01*
X256000198Y-92885715D02*
X255857341Y-92957143D01*
X255857341Y-92957143D02*
X255785912Y-93100000D01*
X255785912Y-93100000D02*
X255785912Y-93314286D01*
X255785912Y-93314286D02*
X255857341Y-93457143D01*
X255857341Y-93457143D02*
X256000198Y-93528572D01*
X256000198Y-93528572D02*
X256785912Y-93528572D01*
X256785912Y-94242857D02*
X255285912Y-94242857D01*
X255857341Y-94242857D02*
X255785912Y-94385715D01*
X255785912Y-94385715D02*
X255785912Y-94671429D01*
X255785912Y-94671429D02*
X255857341Y-94814286D01*
X255857341Y-94814286D02*
X255928769Y-94885715D01*
X255928769Y-94885715D02*
X256071626Y-94957143D01*
X256071626Y-94957143D02*
X256500198Y-94957143D01*
X256500198Y-94957143D02*
X256643055Y-94885715D01*
X256643055Y-94885715D02*
X256714484Y-94814286D01*
X256714484Y-94814286D02*
X256785912Y-94671429D01*
X256785912Y-94671429D02*
X256785912Y-94385715D01*
X256785912Y-94385715D02*
X256714484Y-94242857D01*
X256714484Y-95528572D02*
X256785912Y-95671429D01*
X256785912Y-95671429D02*
X256785912Y-95957143D01*
X256785912Y-95957143D02*
X256714484Y-96100000D01*
X256714484Y-96100000D02*
X256571626Y-96171429D01*
X256571626Y-96171429D02*
X256500198Y-96171429D01*
X256500198Y-96171429D02*
X256357341Y-96100000D01*
X256357341Y-96100000D02*
X256285912Y-95957143D01*
X256285912Y-95957143D02*
X256285912Y-95742858D01*
X256285912Y-95742858D02*
X256214484Y-95600000D01*
X256214484Y-95600000D02*
X256071626Y-95528572D01*
X256071626Y-95528572D02*
X256000198Y-95528572D01*
X256000198Y-95528572D02*
X255857341Y-95600000D01*
X255857341Y-95600000D02*
X255785912Y-95742858D01*
X255785912Y-95742858D02*
X255785912Y-95957143D01*
X255785912Y-95957143D02*
X255857341Y-96100000D01*
X255285912Y-96814286D02*
X256500198Y-96814286D01*
X256500198Y-96814286D02*
X256643055Y-96885715D01*
X256643055Y-96885715D02*
X256714484Y-96957144D01*
X256714484Y-96957144D02*
X256785912Y-97100001D01*
X256785912Y-97100001D02*
X256785912Y-97385715D01*
X256785912Y-97385715D02*
X256714484Y-97528572D01*
X256714484Y-97528572D02*
X256643055Y-97600001D01*
X256643055Y-97600001D02*
X256500198Y-97671429D01*
X256500198Y-97671429D02*
X255285912Y-97671429D01*
X255785912Y-98385715D02*
X257285912Y-98385715D01*
X255857341Y-98385715D02*
X255785912Y-98528573D01*
X255785912Y-98528573D02*
X255785912Y-98814287D01*
X255785912Y-98814287D02*
X255857341Y-98957144D01*
X255857341Y-98957144D02*
X255928769Y-99028573D01*
X255928769Y-99028573D02*
X256071626Y-99100001D01*
X256071626Y-99100001D02*
X256500198Y-99100001D01*
X256500198Y-99100001D02*
X256643055Y-99028573D01*
X256643055Y-99028573D02*
X256714484Y-98957144D01*
X256714484Y-98957144D02*
X256785912Y-98814287D01*
X256785912Y-98814287D02*
X256785912Y-98528573D01*
X256785912Y-98528573D02*
X256714484Y-98385715D01*
X256643055Y-99742858D02*
X256714484Y-99814287D01*
X256714484Y-99814287D02*
X256785912Y-99742858D01*
X256785912Y-99742858D02*
X256714484Y-99671430D01*
X256714484Y-99671430D02*
X256643055Y-99742858D01*
X256643055Y-99742858D02*
X256785912Y-99742858D01*
X256214484Y-99742858D02*
X255357341Y-99671430D01*
X255357341Y-99671430D02*
X255285912Y-99742858D01*
X255285912Y-99742858D02*
X255357341Y-99814287D01*
X255357341Y-99814287D02*
X256214484Y-99742858D01*
X256214484Y-99742858D02*
X255285912Y-99742858D01*
X255285912Y-101385716D02*
X255285912Y-102242859D01*
X256785912Y-101814287D02*
X255285912Y-101814287D01*
X256785912Y-102742858D02*
X255785912Y-102742858D01*
X256071626Y-102742858D02*
X255928769Y-102814287D01*
X255928769Y-102814287D02*
X255857341Y-102885716D01*
X255857341Y-102885716D02*
X255785912Y-103028573D01*
X255785912Y-103028573D02*
X255785912Y-103171430D01*
X256785912Y-104314287D02*
X256000198Y-104314287D01*
X256000198Y-104314287D02*
X255857341Y-104242858D01*
X255857341Y-104242858D02*
X255785912Y-104100001D01*
X255785912Y-104100001D02*
X255785912Y-103814287D01*
X255785912Y-103814287D02*
X255857341Y-103671429D01*
X256714484Y-104314287D02*
X256785912Y-104171429D01*
X256785912Y-104171429D02*
X256785912Y-103814287D01*
X256785912Y-103814287D02*
X256714484Y-103671429D01*
X256714484Y-103671429D02*
X256571626Y-103600001D01*
X256571626Y-103600001D02*
X256428769Y-103600001D01*
X256428769Y-103600001D02*
X256285912Y-103671429D01*
X256285912Y-103671429D02*
X256214484Y-103814287D01*
X256214484Y-103814287D02*
X256214484Y-104171429D01*
X256214484Y-104171429D02*
X256143055Y-104314287D01*
X256714484Y-105671430D02*
X256785912Y-105528572D01*
X256785912Y-105528572D02*
X256785912Y-105242858D01*
X256785912Y-105242858D02*
X256714484Y-105100001D01*
X256714484Y-105100001D02*
X256643055Y-105028572D01*
X256643055Y-105028572D02*
X256500198Y-104957144D01*
X256500198Y-104957144D02*
X256071626Y-104957144D01*
X256071626Y-104957144D02*
X255928769Y-105028572D01*
X255928769Y-105028572D02*
X255857341Y-105100001D01*
X255857341Y-105100001D02*
X255785912Y-105242858D01*
X255785912Y-105242858D02*
X255785912Y-105528572D01*
X255785912Y-105528572D02*
X255857341Y-105671430D01*
X256785912Y-106314286D02*
X255285912Y-106314286D01*
X256214484Y-106457144D02*
X256785912Y-106885715D01*
X255785912Y-106885715D02*
X256357341Y-106314286D01*
X256785912Y-107528572D02*
X255285912Y-107528572D01*
X255857341Y-107528572D02*
X255785912Y-107671430D01*
X255785912Y-107671430D02*
X255785912Y-107957144D01*
X255785912Y-107957144D02*
X255857341Y-108100001D01*
X255857341Y-108100001D02*
X255928769Y-108171430D01*
X255928769Y-108171430D02*
X256071626Y-108242858D01*
X256071626Y-108242858D02*
X256500198Y-108242858D01*
X256500198Y-108242858D02*
X256643055Y-108171430D01*
X256643055Y-108171430D02*
X256714484Y-108100001D01*
X256714484Y-108100001D02*
X256785912Y-107957144D01*
X256785912Y-107957144D02*
X256785912Y-107671430D01*
X256785912Y-107671430D02*
X256714484Y-107528572D01*
X256785912Y-109528573D02*
X256000198Y-109528573D01*
X256000198Y-109528573D02*
X255857341Y-109457144D01*
X255857341Y-109457144D02*
X255785912Y-109314287D01*
X255785912Y-109314287D02*
X255785912Y-109028573D01*
X255785912Y-109028573D02*
X255857341Y-108885715D01*
X256714484Y-109528573D02*
X256785912Y-109385715D01*
X256785912Y-109385715D02*
X256785912Y-109028573D01*
X256785912Y-109028573D02*
X256714484Y-108885715D01*
X256714484Y-108885715D02*
X256571626Y-108814287D01*
X256571626Y-108814287D02*
X256428769Y-108814287D01*
X256428769Y-108814287D02*
X256285912Y-108885715D01*
X256285912Y-108885715D02*
X256214484Y-109028573D01*
X256214484Y-109028573D02*
X256214484Y-109385715D01*
X256214484Y-109385715D02*
X256143055Y-109528573D01*
X256785912Y-110457144D02*
X256714484Y-110314287D01*
X256714484Y-110314287D02*
X256571626Y-110242858D01*
X256571626Y-110242858D02*
X255285912Y-110242858D01*
X256785912Y-111242858D02*
X256714484Y-111100001D01*
X256714484Y-111100001D02*
X256571626Y-111028572D01*
X256571626Y-111028572D02*
X255285912Y-111028572D01*
X255785912Y-112814286D02*
X256785912Y-113171429D01*
X256785912Y-113171429D02*
X255785912Y-113528572D01*
X255785912Y-114742858D02*
X256785912Y-114742858D01*
X255214484Y-114385715D02*
X256285912Y-114028572D01*
X256285912Y-114028572D02*
X256285912Y-114957143D01*
X257700828Y-95385715D02*
X257700828Y-94671429D01*
X257700828Y-94671429D02*
X258415114Y-94600001D01*
X258415114Y-94600001D02*
X258343685Y-94671429D01*
X258343685Y-94671429D02*
X258272257Y-94814287D01*
X258272257Y-94814287D02*
X258272257Y-95171429D01*
X258272257Y-95171429D02*
X258343685Y-95314287D01*
X258343685Y-95314287D02*
X258415114Y-95385715D01*
X258415114Y-95385715D02*
X258557971Y-95457144D01*
X258557971Y-95457144D02*
X258915114Y-95457144D01*
X258915114Y-95457144D02*
X259057971Y-95385715D01*
X259057971Y-95385715D02*
X259129400Y-95314287D01*
X259129400Y-95314287D02*
X259200828Y-95171429D01*
X259200828Y-95171429D02*
X259200828Y-94814287D01*
X259200828Y-94814287D02*
X259129400Y-94671429D01*
X259129400Y-94671429D02*
X259057971Y-94600001D01*
X257843685Y-96028572D02*
X257772257Y-96100000D01*
X257772257Y-96100000D02*
X257700828Y-96242858D01*
X257700828Y-96242858D02*
X257700828Y-96600000D01*
X257700828Y-96600000D02*
X257772257Y-96742858D01*
X257772257Y-96742858D02*
X257843685Y-96814286D01*
X257843685Y-96814286D02*
X257986542Y-96885715D01*
X257986542Y-96885715D02*
X258129400Y-96885715D01*
X258129400Y-96885715D02*
X258343685Y-96814286D01*
X258343685Y-96814286D02*
X259200828Y-95957143D01*
X259200828Y-95957143D02*
X259200828Y-96885715D01*
X259057971Y-97528571D02*
X259129400Y-97600000D01*
X259129400Y-97600000D02*
X259200828Y-97528571D01*
X259200828Y-97528571D02*
X259129400Y-97457143D01*
X259129400Y-97457143D02*
X259057971Y-97528571D01*
X259057971Y-97528571D02*
X259200828Y-97528571D01*
X257700828Y-98957143D02*
X257700828Y-98242857D01*
X257700828Y-98242857D02*
X258415114Y-98171429D01*
X258415114Y-98171429D02*
X258343685Y-98242857D01*
X258343685Y-98242857D02*
X258272257Y-98385715D01*
X258272257Y-98385715D02*
X258272257Y-98742857D01*
X258272257Y-98742857D02*
X258343685Y-98885715D01*
X258343685Y-98885715D02*
X258415114Y-98957143D01*
X258415114Y-98957143D02*
X258557971Y-99028572D01*
X258557971Y-99028572D02*
X258915114Y-99028572D01*
X258915114Y-99028572D02*
X259057971Y-98957143D01*
X259057971Y-98957143D02*
X259129400Y-98885715D01*
X259129400Y-98885715D02*
X259200828Y-98742857D01*
X259200828Y-98742857D02*
X259200828Y-98385715D01*
X259200828Y-98385715D02*
X259129400Y-98242857D01*
X259129400Y-98242857D02*
X259057971Y-98171429D01*
X259200828Y-99671428D02*
X258200828Y-99671428D01*
X258343685Y-99671428D02*
X258272257Y-99742857D01*
X258272257Y-99742857D02*
X258200828Y-99885714D01*
X258200828Y-99885714D02*
X258200828Y-100100000D01*
X258200828Y-100100000D02*
X258272257Y-100242857D01*
X258272257Y-100242857D02*
X258415114Y-100314286D01*
X258415114Y-100314286D02*
X259200828Y-100314286D01*
X258415114Y-100314286D02*
X258272257Y-100385714D01*
X258272257Y-100385714D02*
X258200828Y-100528571D01*
X258200828Y-100528571D02*
X258200828Y-100742857D01*
X258200828Y-100742857D02*
X258272257Y-100885714D01*
X258272257Y-100885714D02*
X258415114Y-100957143D01*
X258415114Y-100957143D02*
X259200828Y-100957143D01*
X259200828Y-101671428D02*
X258200828Y-101671428D01*
X258343685Y-101671428D02*
X258272257Y-101742857D01*
X258272257Y-101742857D02*
X258200828Y-101885714D01*
X258200828Y-101885714D02*
X258200828Y-102100000D01*
X258200828Y-102100000D02*
X258272257Y-102242857D01*
X258272257Y-102242857D02*
X258415114Y-102314286D01*
X258415114Y-102314286D02*
X259200828Y-102314286D01*
X258415114Y-102314286D02*
X258272257Y-102385714D01*
X258272257Y-102385714D02*
X258200828Y-102528571D01*
X258200828Y-102528571D02*
X258200828Y-102742857D01*
X258200828Y-102742857D02*
X258272257Y-102885714D01*
X258272257Y-102885714D02*
X258415114Y-102957143D01*
X258415114Y-102957143D02*
X259200828Y-102957143D01*
X258415114Y-105314285D02*
X258486542Y-105528571D01*
X258486542Y-105528571D02*
X258557971Y-105600000D01*
X258557971Y-105600000D02*
X258700828Y-105671428D01*
X258700828Y-105671428D02*
X258915114Y-105671428D01*
X258915114Y-105671428D02*
X259057971Y-105600000D01*
X259057971Y-105600000D02*
X259129400Y-105528571D01*
X259129400Y-105528571D02*
X259200828Y-105385714D01*
X259200828Y-105385714D02*
X259200828Y-104814285D01*
X259200828Y-104814285D02*
X257700828Y-104814285D01*
X257700828Y-104814285D02*
X257700828Y-105314285D01*
X257700828Y-105314285D02*
X257772257Y-105457143D01*
X257772257Y-105457143D02*
X257843685Y-105528571D01*
X257843685Y-105528571D02*
X257986542Y-105600000D01*
X257986542Y-105600000D02*
X258129400Y-105600000D01*
X258129400Y-105600000D02*
X258272257Y-105528571D01*
X258272257Y-105528571D02*
X258343685Y-105457143D01*
X258343685Y-105457143D02*
X258415114Y-105314285D01*
X258415114Y-105314285D02*
X258415114Y-104814285D01*
X259200828Y-106957143D02*
X258415114Y-106957143D01*
X258415114Y-106957143D02*
X258272257Y-106885714D01*
X258272257Y-106885714D02*
X258200828Y-106742857D01*
X258200828Y-106742857D02*
X258200828Y-106457143D01*
X258200828Y-106457143D02*
X258272257Y-106314285D01*
X259129400Y-106957143D02*
X259200828Y-106814285D01*
X259200828Y-106814285D02*
X259200828Y-106457143D01*
X259200828Y-106457143D02*
X259129400Y-106314285D01*
X259129400Y-106314285D02*
X258986542Y-106242857D01*
X258986542Y-106242857D02*
X258843685Y-106242857D01*
X258843685Y-106242857D02*
X258700828Y-106314285D01*
X258700828Y-106314285D02*
X258629400Y-106457143D01*
X258629400Y-106457143D02*
X258629400Y-106814285D01*
X258629400Y-106814285D02*
X258557971Y-106957143D01*
X259200828Y-107885714D02*
X259129400Y-107742857D01*
X259129400Y-107742857D02*
X258986542Y-107671428D01*
X258986542Y-107671428D02*
X257700828Y-107671428D01*
X259200828Y-108671428D02*
X259129400Y-108528571D01*
X259129400Y-108528571D02*
X258986542Y-108457142D01*
X258986542Y-108457142D02*
X257700828Y-108457142D01*
D11*
X270504819Y-66033286D02*
X269504819Y-66033286D01*
X269504819Y-66033286D02*
X270219104Y-66366619D01*
X270219104Y-66366619D02*
X269504819Y-66699952D01*
X269504819Y-66699952D02*
X270504819Y-66699952D01*
X269504819Y-67080905D02*
X270504819Y-67747571D01*
X269504819Y-67747571D02*
X270504819Y-67080905D01*
X269838152Y-68557095D02*
X270504819Y-68557095D01*
X269457200Y-68319000D02*
X270171485Y-68080905D01*
X270171485Y-68080905D02*
X270171485Y-68699952D01*
X221335713Y-143438819D02*
X221335713Y-142438819D01*
X221335713Y-142438819D02*
X221002380Y-143153104D01*
X221002380Y-143153104D02*
X220669047Y-142438819D01*
X220669047Y-142438819D02*
X220669047Y-143438819D01*
X220288094Y-142438819D02*
X219621428Y-143438819D01*
X219621428Y-142438819D02*
X220288094Y-143438819D01*
X219335713Y-142438819D02*
X218716666Y-142438819D01*
X218716666Y-142438819D02*
X219049999Y-142819771D01*
X219049999Y-142819771D02*
X218907142Y-142819771D01*
X218907142Y-142819771D02*
X218811904Y-142867390D01*
X218811904Y-142867390D02*
X218764285Y-142915009D01*
X218764285Y-142915009D02*
X218716666Y-143010247D01*
X218716666Y-143010247D02*
X218716666Y-143248342D01*
X218716666Y-143248342D02*
X218764285Y-143343580D01*
X218764285Y-143343580D02*
X218811904Y-143391200D01*
X218811904Y-143391200D02*
X218907142Y-143438819D01*
X218907142Y-143438819D02*
X219192856Y-143438819D01*
X219192856Y-143438819D02*
X219288094Y-143391200D01*
X219288094Y-143391200D02*
X219335713Y-143343580D01*
X270554819Y-115514286D02*
X269554819Y-115514286D01*
X269554819Y-115514286D02*
X270269104Y-115847619D01*
X270269104Y-115847619D02*
X269554819Y-116180952D01*
X269554819Y-116180952D02*
X270554819Y-116180952D01*
X269554819Y-116561905D02*
X270554819Y-117228571D01*
X269554819Y-117228571D02*
X270554819Y-116561905D01*
X270554819Y-117657143D02*
X270554819Y-117847619D01*
X270554819Y-117847619D02*
X270507200Y-117942857D01*
X270507200Y-117942857D02*
X270459580Y-117990476D01*
X270459580Y-117990476D02*
X270316723Y-118085714D01*
X270316723Y-118085714D02*
X270126247Y-118133333D01*
X270126247Y-118133333D02*
X269745295Y-118133333D01*
X269745295Y-118133333D02*
X269650057Y-118085714D01*
X269650057Y-118085714D02*
X269602438Y-118038095D01*
X269602438Y-118038095D02*
X269554819Y-117942857D01*
X269554819Y-117942857D02*
X269554819Y-117752381D01*
X269554819Y-117752381D02*
X269602438Y-117657143D01*
X269602438Y-117657143D02*
X269650057Y-117609524D01*
X269650057Y-117609524D02*
X269745295Y-117561905D01*
X269745295Y-117561905D02*
X269983390Y-117561905D01*
X269983390Y-117561905D02*
X270078628Y-117609524D01*
X270078628Y-117609524D02*
X270126247Y-117657143D01*
X270126247Y-117657143D02*
X270173866Y-117752381D01*
X270173866Y-117752381D02*
X270173866Y-117942857D01*
X270173866Y-117942857D02*
X270126247Y-118038095D01*
X270126247Y-118038095D02*
X270078628Y-118085714D01*
X270078628Y-118085714D02*
X269983390Y-118133333D01*
X226835713Y-57870819D02*
X226835713Y-56870819D01*
X226835713Y-56870819D02*
X226502380Y-57585104D01*
X226502380Y-57585104D02*
X226169047Y-56870819D01*
X226169047Y-56870819D02*
X226169047Y-57870819D01*
X225788094Y-56870819D02*
X225121428Y-57870819D01*
X225121428Y-56870819D02*
X225788094Y-57870819D01*
X224311904Y-56870819D02*
X224502380Y-56870819D01*
X224502380Y-56870819D02*
X224597618Y-56918438D01*
X224597618Y-56918438D02*
X224645237Y-56966057D01*
X224645237Y-56966057D02*
X224740475Y-57108914D01*
X224740475Y-57108914D02*
X224788094Y-57299390D01*
X224788094Y-57299390D02*
X224788094Y-57680342D01*
X224788094Y-57680342D02*
X224740475Y-57775580D01*
X224740475Y-57775580D02*
X224692856Y-57823200D01*
X224692856Y-57823200D02*
X224597618Y-57870819D01*
X224597618Y-57870819D02*
X224407142Y-57870819D01*
X224407142Y-57870819D02*
X224311904Y-57823200D01*
X224311904Y-57823200D02*
X224264285Y-57775580D01*
X224264285Y-57775580D02*
X224216666Y-57680342D01*
X224216666Y-57680342D02*
X224216666Y-57442247D01*
X224216666Y-57442247D02*
X224264285Y-57347009D01*
X224264285Y-57347009D02*
X224311904Y-57299390D01*
X224311904Y-57299390D02*
X224407142Y-57251771D01*
X224407142Y-57251771D02*
X224597618Y-57251771D01*
X224597618Y-57251771D02*
X224692856Y-57299390D01*
X224692856Y-57299390D02*
X224740475Y-57347009D01*
X224740475Y-57347009D02*
X224788094Y-57442247D01*
X270754819Y-90138095D02*
X269754819Y-90138095D01*
X269754819Y-90138095D02*
X270469104Y-90471428D01*
X270469104Y-90471428D02*
X269754819Y-90804761D01*
X269754819Y-90804761D02*
X270754819Y-90804761D01*
X269754819Y-91185714D02*
X270754819Y-91852380D01*
X269754819Y-91852380D02*
X270754819Y-91185714D01*
X270754819Y-92757142D02*
X270754819Y-92185714D01*
X270754819Y-92471428D02*
X269754819Y-92471428D01*
X269754819Y-92471428D02*
X269897676Y-92376190D01*
X269897676Y-92376190D02*
X269992914Y-92280952D01*
X269992914Y-92280952D02*
X270040533Y-92185714D01*
X269754819Y-93376190D02*
X269754819Y-93471428D01*
X269754819Y-93471428D02*
X269802438Y-93566666D01*
X269802438Y-93566666D02*
X269850057Y-93614285D01*
X269850057Y-93614285D02*
X269945295Y-93661904D01*
X269945295Y-93661904D02*
X270135771Y-93709523D01*
X270135771Y-93709523D02*
X270373866Y-93709523D01*
X270373866Y-93709523D02*
X270564342Y-93661904D01*
X270564342Y-93661904D02*
X270659580Y-93614285D01*
X270659580Y-93614285D02*
X270707200Y-93566666D01*
X270707200Y-93566666D02*
X270754819Y-93471428D01*
X270754819Y-93471428D02*
X270754819Y-93376190D01*
X270754819Y-93376190D02*
X270707200Y-93280952D01*
X270707200Y-93280952D02*
X270659580Y-93233333D01*
X270659580Y-93233333D02*
X270564342Y-93185714D01*
X270564342Y-93185714D02*
X270373866Y-93138095D01*
X270373866Y-93138095D02*
X270135771Y-93138095D01*
X270135771Y-93138095D02*
X269945295Y-93185714D01*
X269945295Y-93185714D02*
X269850057Y-93233333D01*
X269850057Y-93233333D02*
X269802438Y-93280952D01*
X269802438Y-93280952D02*
X269754819Y-93376190D01*
X270722819Y-139798286D02*
X269722819Y-139798286D01*
X269722819Y-139798286D02*
X270437104Y-140131619D01*
X270437104Y-140131619D02*
X269722819Y-140464952D01*
X269722819Y-140464952D02*
X270722819Y-140464952D01*
X269722819Y-140845905D02*
X270722819Y-141512571D01*
X269722819Y-141512571D02*
X270722819Y-140845905D01*
X270722819Y-142417333D02*
X270722819Y-141845905D01*
X270722819Y-142131619D02*
X269722819Y-142131619D01*
X269722819Y-142131619D02*
X269865676Y-142036381D01*
X269865676Y-142036381D02*
X269960914Y-141941143D01*
X269960914Y-141941143D02*
X270008533Y-141845905D01*
X273222819Y-76882666D02*
X273937104Y-76882666D01*
X273937104Y-76882666D02*
X274079961Y-76835047D01*
X274079961Y-76835047D02*
X274175200Y-76739809D01*
X274175200Y-76739809D02*
X274222819Y-76596952D01*
X274222819Y-76596952D02*
X274222819Y-76501714D01*
X273222819Y-77835047D02*
X273222819Y-77358857D01*
X273222819Y-77358857D02*
X273699009Y-77311238D01*
X273699009Y-77311238D02*
X273651390Y-77358857D01*
X273651390Y-77358857D02*
X273603771Y-77454095D01*
X273603771Y-77454095D02*
X273603771Y-77692190D01*
X273603771Y-77692190D02*
X273651390Y-77787428D01*
X273651390Y-77787428D02*
X273699009Y-77835047D01*
X273699009Y-77835047D02*
X273794247Y-77882666D01*
X273794247Y-77882666D02*
X274032342Y-77882666D01*
X274032342Y-77882666D02*
X274127580Y-77835047D01*
X274127580Y-77835047D02*
X274175200Y-77787428D01*
X274175200Y-77787428D02*
X274222819Y-77692190D01*
X274222819Y-77692190D02*
X274222819Y-77454095D01*
X274222819Y-77454095D02*
X274175200Y-77358857D01*
X274175200Y-77358857D02*
X274127580Y-77311238D01*
X273222819Y-125650666D02*
X273937104Y-125650666D01*
X273937104Y-125650666D02*
X274079961Y-125603047D01*
X274079961Y-125603047D02*
X274175200Y-125507809D01*
X274175200Y-125507809D02*
X274222819Y-125364952D01*
X274222819Y-125364952D02*
X274222819Y-125269714D01*
X273556152Y-126555428D02*
X274222819Y-126555428D01*
X273175200Y-126317333D02*
X273889485Y-126079238D01*
X273889485Y-126079238D02*
X273889485Y-126698285D01*
X208379732Y-80220578D02*
X207920598Y-80767753D01*
X207920598Y-80767753D02*
X207865250Y-80907797D01*
X207865250Y-80907797D02*
X207876989Y-81041971D01*
X207876989Y-81041971D02*
X207955815Y-81170276D01*
X207955815Y-81170276D02*
X208028771Y-81231494D01*
X207990210Y-80018054D02*
X207984340Y-79950967D01*
X207984340Y-79950967D02*
X207941992Y-79853271D01*
X207941992Y-79853271D02*
X207759601Y-79700226D01*
X207759601Y-79700226D02*
X207656035Y-79675487D01*
X207656035Y-79675487D02*
X207588948Y-79681356D01*
X207588948Y-79681356D02*
X207491252Y-79723704D01*
X207491252Y-79723704D02*
X207430034Y-79796660D01*
X207430034Y-79796660D02*
X207374686Y-79936704D01*
X207374686Y-79936704D02*
X207445118Y-80741751D01*
X207445118Y-80741751D02*
X206970900Y-80343835D01*
X207678861Y-122154155D02*
X208137995Y-122701330D01*
X208137995Y-122701330D02*
X208266300Y-122780156D01*
X208266300Y-122780156D02*
X208400475Y-122791894D01*
X208400475Y-122791894D02*
X208540519Y-122736546D01*
X208540519Y-122736546D02*
X208613475Y-122675328D01*
X207387035Y-122399027D02*
X206912817Y-122796943D01*
X206912817Y-122796943D02*
X207413036Y-122874507D01*
X207413036Y-122874507D02*
X207303601Y-122966334D01*
X207303601Y-122966334D02*
X207261254Y-123064030D01*
X207261254Y-123064030D02*
X207255384Y-123131117D01*
X207255384Y-123131117D02*
X207280124Y-123234682D01*
X207280124Y-123234682D02*
X207433168Y-123417074D01*
X207433168Y-123417074D02*
X207530865Y-123459422D01*
X207530865Y-123459422D02*
X207597952Y-123465291D01*
X207597952Y-123465291D02*
X207701517Y-123440552D01*
X207701517Y-123440552D02*
X207920387Y-123256898D01*
X207920387Y-123256898D02*
X207962735Y-123159202D01*
X207962735Y-123159202D02*
X207968604Y-123092114D01*
X265809523Y-100654819D02*
X265809523Y-101369104D01*
X265809523Y-101369104D02*
X265857142Y-101511961D01*
X265857142Y-101511961D02*
X265952380Y-101607200D01*
X265952380Y-101607200D02*
X266095237Y-101654819D01*
X266095237Y-101654819D02*
X266190475Y-101654819D01*
X264809523Y-101654819D02*
X265380951Y-101654819D01*
X265095237Y-101654819D02*
X265095237Y-100654819D01*
X265095237Y-100654819D02*
X265190475Y-100797676D01*
X265190475Y-100797676D02*
X265285713Y-100892914D01*
X265285713Y-100892914D02*
X265380951Y-100940533D01*
X263952380Y-100654819D02*
X264142856Y-100654819D01*
X264142856Y-100654819D02*
X264238094Y-100702438D01*
X264238094Y-100702438D02*
X264285713Y-100750057D01*
X264285713Y-100750057D02*
X264380951Y-100892914D01*
X264380951Y-100892914D02*
X264428570Y-101083390D01*
X264428570Y-101083390D02*
X264428570Y-101464342D01*
X264428570Y-101464342D02*
X264380951Y-101559580D01*
X264380951Y-101559580D02*
X264333332Y-101607200D01*
X264333332Y-101607200D02*
X264238094Y-101654819D01*
X264238094Y-101654819D02*
X264047618Y-101654819D01*
X264047618Y-101654819D02*
X263952380Y-101607200D01*
X263952380Y-101607200D02*
X263904761Y-101559580D01*
X263904761Y-101559580D02*
X263857142Y-101464342D01*
X263857142Y-101464342D02*
X263857142Y-101226247D01*
X263857142Y-101226247D02*
X263904761Y-101131009D01*
X263904761Y-101131009D02*
X263952380Y-101083390D01*
X263952380Y-101083390D02*
X264047618Y-101035771D01*
X264047618Y-101035771D02*
X264238094Y-101035771D01*
X264238094Y-101035771D02*
X264333332Y-101083390D01*
X264333332Y-101083390D02*
X264380951Y-101131009D01*
X264380951Y-101131009D02*
X264428570Y-101226247D01*
X266518000Y-66916000D02*
X266518000Y-71416000D01*
X266518000Y-71416000D02*
X267018000Y-71416000D01*
X267218000Y-66916000D02*
X266518000Y-66916000D01*
X268718000Y-62916000D02*
X268718000Y-65416000D01*
X269218000Y-62416000D02*
X268718000Y-62916000D01*
X270618000Y-71416000D02*
X271218000Y-71416000D01*
X271218000Y-71416000D02*
X271218000Y-66916000D01*
X271718000Y-66416000D02*
X272718000Y-66416000D01*
X272718000Y-62416000D02*
X273218000Y-62916000D01*
X273218000Y-62916000D02*
X273218000Y-65916000D01*
X273218000Y-65916000D02*
X272718000Y-66416000D01*
X268718000Y-65416000D02*
G75*
G02*
X267218000Y-66916000I-1500001J1D01*
G01*
X271218000Y-66916000D02*
G75*
G02*
X271718000Y-66416000I500001J-1D01*
G01*
X215650000Y-140234000D02*
X215650000Y-140734000D01*
X215650000Y-144334000D02*
X215650000Y-144934000D01*
X215650000Y-144934000D02*
X220150000Y-144934000D01*
X220150000Y-140234000D02*
X215650000Y-140234000D01*
X220150000Y-140934000D02*
X220150000Y-140234000D01*
X220650000Y-145434000D02*
X220650000Y-146434000D01*
X221150000Y-146934000D02*
X220650000Y-146434000D01*
X224150000Y-142434000D02*
X221650000Y-142434000D01*
X224150000Y-146934000D02*
X221150000Y-146934000D01*
X224650000Y-142934000D02*
X224150000Y-142434000D01*
X224650000Y-146434000D02*
X224150000Y-146934000D01*
X220150000Y-144934000D02*
G75*
G02*
X220650000Y-145434000I-1J-500001D01*
G01*
X221650000Y-142434000D02*
G75*
G02*
X220150000Y-140934000I1J1500001D01*
G01*
X266518000Y-116600000D02*
X266518000Y-121100000D01*
X266518000Y-121100000D02*
X267018000Y-121100000D01*
X267218000Y-116600000D02*
X266518000Y-116600000D01*
X268718000Y-112600000D02*
X268718000Y-115100000D01*
X269218000Y-112100000D02*
X268718000Y-112600000D01*
X270618000Y-121100000D02*
X271218000Y-121100000D01*
X271218000Y-121100000D02*
X271218000Y-116600000D01*
X271718000Y-116100000D02*
X272718000Y-116100000D01*
X272718000Y-112100000D02*
X273218000Y-112600000D01*
X273218000Y-112600000D02*
X273218000Y-115600000D01*
X273218000Y-115600000D02*
X272718000Y-116100000D01*
X268718000Y-115100000D02*
G75*
G02*
X267218000Y-116600000I-1500001J1D01*
G01*
X271218000Y-116600000D02*
G75*
G02*
X271718000Y-116100000I500001J-1D01*
G01*
X220650000Y-56716000D02*
X221150000Y-56216000D01*
X220650000Y-60216000D02*
X221150000Y-60716000D01*
X221150000Y-56216000D02*
X224150000Y-56216000D01*
X221150000Y-60716000D02*
X223650000Y-60716000D01*
X224150000Y-56216000D02*
X224650000Y-56716000D01*
X224650000Y-57716000D02*
X224650000Y-56716000D01*
X225150000Y-62216000D02*
X225150000Y-62916000D01*
X225150000Y-62916000D02*
X229650000Y-62916000D01*
X229650000Y-58216000D02*
X225150000Y-58216000D01*
X229650000Y-58816000D02*
X229650000Y-58216000D01*
X229650000Y-62916000D02*
X229650000Y-62416000D01*
X223650000Y-60716000D02*
G75*
G02*
X225150000Y-62216000I-1J-1500001D01*
G01*
X225150000Y-58216000D02*
G75*
G02*
X224650000Y-57716000I1J500001D01*
G01*
X266518000Y-91600000D02*
X266518000Y-96100000D01*
X266518000Y-96100000D02*
X267018000Y-96100000D01*
X267218000Y-91600000D02*
X266518000Y-91600000D01*
X268718000Y-87600000D02*
X268718000Y-90100000D01*
X269218000Y-87100000D02*
X268718000Y-87600000D01*
X270618000Y-96100000D02*
X271218000Y-96100000D01*
X271218000Y-96100000D02*
X271218000Y-91600000D01*
X271718000Y-91100000D02*
X272718000Y-91100000D01*
X272718000Y-87100000D02*
X273218000Y-87600000D01*
X273218000Y-87600000D02*
X273218000Y-90600000D01*
X273218000Y-90600000D02*
X272718000Y-91100000D01*
X268718000Y-90100000D02*
G75*
G02*
X267218000Y-91600000I-1500001J1D01*
G01*
X271218000Y-91600000D02*
G75*
G02*
X271718000Y-91100000I500001J-1D01*
G01*
X266518000Y-141234000D02*
X266518000Y-145734000D01*
X266518000Y-145734000D02*
X267018000Y-145734000D01*
X267218000Y-141234000D02*
X266518000Y-141234000D01*
X268718000Y-137234000D02*
X268718000Y-139734000D01*
X269218000Y-136734000D02*
X268718000Y-137234000D01*
X270618000Y-145734000D02*
X271218000Y-145734000D01*
X271218000Y-145734000D02*
X271218000Y-141234000D01*
X271718000Y-140734000D02*
X272718000Y-140734000D01*
X272718000Y-136734000D02*
X273218000Y-137234000D01*
X273218000Y-137234000D02*
X273218000Y-140234000D01*
X273218000Y-140234000D02*
X272718000Y-140734000D01*
X268718000Y-139734000D02*
G75*
G02*
X267218000Y-141234000I-1500001J1D01*
G01*
X271218000Y-141234000D02*
G75*
G02*
X271718000Y-140734000I500001J-1D01*
G01*
D12*
X264768000Y-78596000D02*
X264768000Y-75836000D01*
X272498000Y-75836000D02*
X264768000Y-75836000D01*
X272498000Y-78596000D02*
X264768000Y-78596000D01*
X272498000Y-78596000D02*
X272498000Y-75836000D01*
X273768000Y-78596000D02*
X275148000Y-78596000D01*
X275148000Y-78596000D02*
X275148000Y-77216000D01*
X264768000Y-127364000D02*
X264768000Y-124604000D01*
X272498000Y-124604000D02*
X264768000Y-124604000D01*
X272498000Y-127364000D02*
X264768000Y-127364000D01*
X272498000Y-127364000D02*
X272498000Y-124604000D01*
X273768000Y-127364000D02*
X275148000Y-127364000D01*
X275148000Y-127364000D02*
X275148000Y-125984000D01*
X203046000Y-88205396D02*
X200931721Y-86431302D01*
X205900467Y-80509778D02*
X200931721Y-86431302D01*
X208014750Y-82283872D02*
X203046000Y-88205396D01*
X208014750Y-82283872D02*
X205900467Y-80509778D01*
X208831090Y-81310996D02*
X209718138Y-80253855D01*
X209718138Y-80253855D02*
X208660996Y-79366808D01*
X200931721Y-116778698D02*
X203046000Y-115004604D01*
X205900467Y-122700222D02*
X200931721Y-116778698D01*
X205900467Y-122700222D02*
X208014750Y-120926128D01*
X206716808Y-123673098D02*
X207603855Y-124730240D01*
X207603855Y-124730240D02*
X208660996Y-123843192D01*
X208014750Y-120926128D02*
X203046000Y-115004604D01*
X263520000Y-99060000D02*
X263520000Y-106790000D01*
X266280000Y-96410000D02*
X264900000Y-96410000D01*
X266280000Y-97790000D02*
X266280000Y-96410000D01*
X266280000Y-99060000D02*
X263520000Y-99060000D01*
X266280000Y-99060000D02*
X266280000Y-106790000D01*
X266280000Y-106790000D02*
X263520000Y-106790000D01*
M02*
