M48
; DRILL file {KiCad 9.0.2} date 2025-10-02T21:33:14-0400
; FORMAT={-:-/ absolute / metric / decimal}
; #@! TF.CreationDate,2025-10-02T21:33:14-04:00
; #@! TF.GenerationSoftware,Kicad,Pcbnew,9.0.2
; #@! TF.FileFunction,Plated,1,2,PTH
FMAT,2
METRIC
; #@! TA.AperFunction,Plated,PTH,ComponentDrill
T1C1.000
; #@! TA.AperFunction,Plated,PTH,ComponentDrill
T2C2.500
%
G90
G05
T1
X202.876Y-86.261
X202.876Y-116.949
X204.509Y-84.315
X204.509Y-118.895
X206.141Y-82.37
X206.141Y-120.84
X207.774Y-80.424
X207.774Y-122.786
X264.9Y-97.79
X264.9Y-100.33
X264.9Y-102.87
X264.9Y-105.41
X266.148Y-77.216
X266.148Y-125.984
X268.688Y-77.216
X268.688Y-125.984
X271.228Y-77.216
X271.228Y-125.984
X273.768Y-77.216
X273.768Y-125.984
T2
X205.775Y-101.596
X216.65Y-82.7
X216.65Y-120.35
X238.4Y-82.6
X238.4Y-120.6
X249.4Y-101.6
M30
