M48
; DRILL file {KiCad 9.0.2} date 2025-10-02T21:33:14-0400
; FORMAT={-:-/ absolute / metric / decimal}
; #@! TF.CreationDate,2025-10-02T21:33:14-04:00
; #@! TF.GenerationSoftware,Kicad,Pcbnew,9.0.2
; #@! TF.FileFunction,NonPlated,1,2,NPTH
FMAT,2
METRIC
; #@! TA.AperFunction,NonPlated,NPTH,ComponentDrill
T1C1.702
; #@! TA.AperFunction,NonPlated,NPTH,ComponentDrill
T2C3.000
; #@! TA.AperFunction,NonPlated,NPTH,ComponentDrill
T3C3.429
%
G90
G05
T1
X217.15Y-64.416
X217.15Y-138.734
X228.15Y-64.416
X228.15Y-138.734
X265.018Y-58.916
X265.018Y-69.916
X265.018Y-83.6
X265.018Y-94.6
X265.018Y-108.6
X265.018Y-119.6
X265.018Y-133.234
X265.018Y-144.234
T2
X217.65Y-142.484
X222.65Y-58.466
X222.65Y-144.684
X227.65Y-60.666
X268.768Y-69.416
X268.768Y-94.1
X268.768Y-119.1
X268.768Y-143.734
X270.968Y-64.416
X270.968Y-89.1
X270.968Y-114.1
X270.968Y-138.734
T3
X222.65Y-64.416
X222.65Y-138.734
X265.018Y-64.416
X265.018Y-89.1
X265.018Y-114.1
X265.018Y-138.734
M30
