G04 #@! TF.GenerationSoftware,KiCad,Pcbnew,9.0.2*
G04 #@! TF.CreationDate,2025-10-02T21:33:12-04:00*
G04 #@! TF.ProjectId,Trackball,54726163-6b62-4616-9c6c-2e6b69636164,rev?*
G04 #@! TF.SameCoordinates,Original*
G04 #@! TF.FileFunction,Profile,NP*
%FSLAX46Y46*%
G04 Gerber Fmt 4.6, Leading zero omitted, Abs format (unit mm)*
G04 Created by KiCad (PCBNEW 9.0.2) date 2025-10-02 21:33:12*
%MOMM*%
%LPD*%
G01*
G04 APERTURE LIST*
G04 #@! TA.AperFunction,Profile*
%ADD10C,0.050000*%
G04 #@! TD*
G04 APERTURE END LIST*
D10*
X259900000Y-148600000D02*
G75*
G02*
X254900000Y-143600000I0J5000000D01*
G01*
X207804827Y-125905394D02*
X204400001Y-122100000D01*
X270400000Y-54600000D02*
G75*
G02*
X275400000Y-59600000I0J-5000000D01*
G01*
X248903330Y-78600000D02*
G75*
G02*
X245896670Y-78600000I-1503330J0D01*
G01*
X245896670Y-78600000D02*
G75*
G02*
X248903330Y-78600000I1503330J0D01*
G01*
X275400000Y-143600000D02*
G75*
G02*
X270400000Y-148600000I-5000000J0D01*
G01*
X212900000Y-63958709D02*
G75*
G02*
X207804822Y-77294602I-20000000J9D01*
G01*
X275400000Y-101600000D02*
X275400000Y-59600000D01*
X232650000Y-135600000D02*
G75*
G02*
X237650000Y-130600000I5000000J0D01*
G01*
X227650000Y-148600000D02*
X217900000Y-148600000D01*
X232650000Y-67600000D02*
X232650000Y-59600000D01*
X212900000Y-143600000D02*
X212900000Y-139241291D01*
X212900000Y-59600000D02*
X212900000Y-63958700D01*
X207804827Y-125905394D02*
G75*
G02*
X212900006Y-139241291I-14904827J-13335906D01*
G01*
X248400000Y-101600000D02*
G75*
G02*
X206800000Y-101600000I-20800000J0D01*
G01*
X206800000Y-101600000D02*
G75*
G02*
X248400000Y-101600000I20800000J0D01*
G01*
X237650000Y-72600000D02*
G75*
G02*
X232650000Y-67600000I0J5000000D01*
G01*
X254900000Y-59600000D02*
G75*
G02*
X259900000Y-54600000I5000000J0D01*
G01*
X232650000Y-143600000D02*
G75*
G02*
X227650000Y-148600000I-5000000J0D01*
G01*
X248903330Y-124600000D02*
G75*
G02*
X245896670Y-124600000I-1503330J0D01*
G01*
X245896670Y-124600000D02*
G75*
G02*
X248903330Y-124600000I1503330J0D01*
G01*
X237650000Y-72600000D02*
X249900000Y-72600000D01*
X254900000Y-67600000D02*
G75*
G02*
X249900000Y-72600000I-5000000J0D01*
G01*
X212900000Y-59600000D02*
G75*
G02*
X217900000Y-54600000I5000000J0D01*
G01*
X254900000Y-59600000D02*
X254900000Y-67600000D01*
X259900000Y-54600000D02*
X270400000Y-54600000D01*
X227650000Y-54600000D02*
G75*
G02*
X232650000Y-59600000I0J-5000000D01*
G01*
X204400000Y-122100000D02*
G75*
G02*
X204400000Y-81100000I23162440J20500000D01*
G01*
X207804827Y-77294606D02*
X204400001Y-81100000D01*
X254900000Y-143600000D02*
X254900000Y-135600000D01*
X217900000Y-148600000D02*
G75*
G02*
X212900000Y-143600000I0J5000000D01*
G01*
X227650000Y-54600000D02*
X217900000Y-54600000D01*
X249900000Y-130600000D02*
G75*
G02*
X254900000Y-135600000I0J-5000000D01*
G01*
X232650000Y-135600000D02*
X232650000Y-143600000D01*
X259900000Y-148600000D02*
X270400000Y-148600000D01*
X275400000Y-101600000D02*
X275400000Y-143600000D01*
X237650000Y-130600000D02*
X249900000Y-130600000D01*
M02*
