M48
; DRILL file {KiCad 9.0.2} date 2025-10-02T21:34:00-0400
; FORMAT={-:-/ absolute / metric / decimal}
; #@! TF.CreationDate,2025-10-02T21:34:00-04:00
; #@! TF.GenerationSoftware,Kicad,Pcbnew,9.0.2
; #@! TF.FileFunction,Plated,1,2,PTH
FMAT,2
METRIC
; #@! TA.AperFunction,Plated,PTH,ComponentDrill
T1C1.000
; #@! TA.AperFunction,Plated,PTH,ComponentDrill
T2C2.500
%
G90
G05
T1
X287.676Y-86.261
X287.676Y-116.949
X289.309Y-84.315
X289.309Y-118.895
X290.941Y-82.37
X290.941Y-120.84
X292.574Y-80.424
X292.574Y-122.786
X349.7Y-97.79
X349.7Y-100.33
X349.7Y-102.87
X349.7Y-105.41
X350.948Y-77.216
X350.948Y-125.984
X353.488Y-77.216
X353.488Y-125.984
X356.028Y-77.216
X356.028Y-125.984
X358.568Y-77.216
X358.568Y-125.984
T2
X292.675Y-101.6
X302.425Y-118.7
X302.475Y-84.5
X322.225Y-84.45
X322.225Y-118.75
X332.075Y-101.65
M30
