G04 #@! TF.GenerationSoftware,KiCad,Pcbnew,9.0.2*
G04 #@! TF.CreationDate,2025-10-02T21:33:58-04:00*
G04 #@! TF.ProjectId,Trackball,54726163-6b62-4616-9c6c-2e6b69636164,rev?*
G04 #@! TF.SameCoordinates,Original*
G04 #@! TF.FileFunction,Profile,NP*
%FSLAX46Y46*%
G04 Gerber Fmt 4.6, Leading zero omitted, Abs format (unit mm)*
G04 Created by KiCad (PCBNEW 9.0.2) date 2025-10-02 21:33:58*
%MOMM*%
%LPD*%
G01*
G04 APERTURE LIST*
G04 #@! TA.AperFunction,Profile*
%ADD10C,0.050000*%
G04 #@! TD*
G04 APERTURE END LIST*
D10*
X322450000Y-130600000D02*
X334700000Y-130600000D01*
X339700000Y-143600000D02*
X339700000Y-135600000D01*
X292604827Y-125905394D02*
G75*
G02*
X297699966Y-138600001I-14937627J-13365206D01*
G01*
X355200000Y-54600000D02*
G75*
G02*
X360200000Y-59600000I0J-5000000D01*
G01*
X312450000Y-59600000D02*
G75*
G02*
X317450000Y-64600000I0J-5000000D01*
G01*
X360200000Y-143600000D02*
G75*
G02*
X355200000Y-148600000I-5000000J0D01*
G01*
X312450000Y-59600000D02*
X302700000Y-59600000D01*
X339700000Y-59600000D02*
G75*
G02*
X344700000Y-54600000I5000000J0D01*
G01*
X317450000Y-67600000D02*
X317450000Y-64600000D01*
X333703330Y-78600000D02*
G75*
G02*
X330696670Y-78600000I-1503330J0D01*
G01*
X330696670Y-78600000D02*
G75*
G02*
X333703330Y-78600000I1503330J0D01*
G01*
X333703330Y-124600000D02*
G75*
G02*
X330696670Y-124600000I-1503330J0D01*
G01*
X330696670Y-124600000D02*
G75*
G02*
X333703330Y-124600000I1503330J0D01*
G01*
X297700000Y-64600000D02*
G75*
G02*
X292604805Y-77294586I-20032800J670700D01*
G01*
X360200000Y-101600000D02*
X360200000Y-143600000D01*
X334700000Y-130600000D02*
G75*
G02*
X339700000Y-135600000I0J-5000000D01*
G01*
X317450000Y-135600000D02*
X317450000Y-138600000D01*
X292604827Y-77294606D02*
X289200001Y-81100000D01*
X339700000Y-67600000D02*
G75*
G02*
X334700000Y-72600000I-5000000J0D01*
G01*
X317450000Y-135600000D02*
G75*
G02*
X322450000Y-130600000I5000000J0D01*
G01*
X344700000Y-148600000D02*
G75*
G02*
X339700000Y-143600000I0J5000000D01*
G01*
X331100000Y-101600000D02*
G75*
G02*
X293700000Y-101600000I-18700000J0D01*
G01*
X293700000Y-101600000D02*
G75*
G02*
X331100000Y-101600000I18700000J0D01*
G01*
X322450000Y-72600000D02*
X334700000Y-72600000D01*
X289200000Y-122100000D02*
G75*
G02*
X289200000Y-81100000I23162440J20500000D01*
G01*
X344700000Y-54600000D02*
X355200000Y-54600000D01*
X302700000Y-143600000D02*
G75*
G02*
X297700000Y-138600000I0J5000000D01*
G01*
X317450000Y-138600000D02*
G75*
G02*
X312450000Y-143600000I-5000000J0D01*
G01*
X297700000Y-64600000D02*
G75*
G02*
X302700000Y-59600000I5000000J0D01*
G01*
X322450000Y-72600000D02*
G75*
G02*
X317450000Y-67600000I0J5000000D01*
G01*
X292604827Y-125905394D02*
X289200001Y-122100000D01*
X360200000Y-101600000D02*
X360200000Y-59600000D01*
X339700000Y-59600000D02*
X339700000Y-67600000D01*
X344700000Y-148600000D02*
X355200000Y-148600000D01*
X312450000Y-143600000D02*
X302700000Y-143600000D01*
M02*
