M48
; DRILL file {KiCad 9.0.2} date 2025-10-02T21:34:00-0400
; FORMAT={-:-/ absolute / metric / decimal}
; #@! TF.CreationDate,2025-10-02T21:34:00-04:00
; #@! TF.GenerationSoftware,Kicad,Pcbnew,9.0.2
; #@! TF.FileFunction,NonPlated,1,2,NPTH
FMAT,2
METRIC
; #@! TA.AperFunction,NonPlated,NPTH,ComponentDrill
T1C1.702
; #@! TA.AperFunction,NonPlated,NPTH,ComponentDrill
T2C3.000
; #@! TA.AperFunction,NonPlated,NPTH,ComponentDrill
T3C3.429
%
G90
G05
T1
X302.125Y-69.416
X302.125Y-133.034
X313.125Y-69.416
X313.125Y-133.034
X349.818Y-58.916
X349.818Y-69.916
X349.818Y-108.625
X349.818Y-119.625
X349.818Y-133.234
X349.818Y-144.234
X349.875Y-83.575
X349.875Y-94.575
T2
X302.625Y-136.784
X307.625Y-63.466
X307.625Y-138.984
X312.625Y-65.666
X353.568Y-69.416
X353.568Y-119.125
X353.568Y-143.734
X353.625Y-94.075
X355.768Y-64.416
X355.768Y-114.125
X355.768Y-138.734
X355.825Y-89.075
T3
X307.625Y-69.416
X307.625Y-133.034
X349.818Y-64.416
X349.818Y-114.125
X349.818Y-138.734
X349.875Y-89.075
M30
