M48
; DRILL file {KiCad 9.0.2} date 2025-10-02T21:34:43-0400
; FORMAT={-:-/ absolute / metric / decimal}
; #@! TF.CreationDate,2025-10-02T21:34:43-04:00
; #@! TF.GenerationSoftware,Kicad,Pcbnew,9.0.2
; #@! TF.FileFunction,NonPlated,1,2,NPTH
FMAT,2
METRIC
; #@! TA.AperFunction,NonPlated,NPTH,ComponentDrill
T1C1.702
; #@! TA.AperFunction,NonPlated,NPTH,ComponentDrill
T2C3.000
; #@! TA.AperFunction,NonPlated,NPTH,ComponentDrill
T3C3.429
%
G90
G05
T1
X389.975Y-64.441
X389.975Y-138.759
X400.975Y-64.441
X400.975Y-138.759
X437.843Y-58.941
X437.843Y-69.941
X437.843Y-83.625
X437.843Y-94.625
X437.843Y-108.625
X437.843Y-119.625
X437.843Y-133.259
X437.843Y-144.259
T2
X390.475Y-142.509
X395.475Y-58.491
X395.475Y-144.709
X400.475Y-60.691
X441.593Y-69.441
X441.593Y-94.125
X441.593Y-119.125
X441.593Y-143.759
X443.793Y-64.441
X443.793Y-89.125
X443.793Y-114.125
X443.793Y-138.759
T3
X395.475Y-64.441
X395.475Y-138.759
X437.843Y-64.441
X437.843Y-89.125
X437.843Y-114.125
X437.843Y-138.759
M30
