G04 #@! TF.GenerationSoftware,KiCad,Pcbnew,9.0.2*
G04 #@! TF.CreationDate,2025-10-02T21:34:41-04:00*
G04 #@! TF.ProjectId,Trackball,54726163-6b62-4616-9c6c-2e6b69636164,rev?*
G04 #@! TF.SameCoordinates,Original*
G04 #@! TF.FileFunction,Profile,NP*
%FSLAX46Y46*%
G04 Gerber Fmt 4.6, Leading zero omitted, Abs format (unit mm)*
G04 Created by KiCad (PCBNEW 9.0.2) date 2025-10-02 21:34:41*
%MOMM*%
%LPD*%
G01*
G04 APERTURE LIST*
G04 #@! TA.AperFunction,Profile*
%ADD10C,0.050000*%
G04 #@! TD*
G04 APERTURE END LIST*
D10*
X422025000Y-101625000D02*
G75*
G02*
X378825000Y-101625000I-21600000J0D01*
G01*
X378825000Y-101625000D02*
G75*
G02*
X422025000Y-101625000I21600000J0D01*
G01*
X410475000Y-72625000D02*
G75*
G02*
X405475000Y-67625000I0J5000000D01*
G01*
X427725000Y-143625000D02*
X427725000Y-135625000D01*
X410475000Y-72625000D02*
X422725000Y-72625000D01*
X400475000Y-148625000D02*
X390725000Y-148625000D01*
X385725000Y-63983709D02*
G75*
G02*
X380629822Y-77319602I-20000000J9D01*
G01*
X377225000Y-122125000D02*
G75*
G02*
X377225000Y-81125000I23162440J20500000D01*
G01*
X380629827Y-77319606D02*
X377225001Y-81125000D01*
X400475000Y-54625000D02*
X390725000Y-54625000D01*
X427725000Y-59625000D02*
G75*
G02*
X432725000Y-54625000I5000000J0D01*
G01*
X405475000Y-67625000D02*
X405475000Y-59625000D01*
X421728330Y-78625000D02*
G75*
G02*
X418721670Y-78625000I-1503330J0D01*
G01*
X418721670Y-78625000D02*
G75*
G02*
X421728330Y-78625000I1503330J0D01*
G01*
X427725000Y-59625000D02*
X427725000Y-67625000D01*
X385725000Y-143625000D02*
X385725000Y-139266291D01*
X385725000Y-59625000D02*
G75*
G02*
X390725000Y-54625000I5000000J0D01*
G01*
X400475000Y-54625000D02*
G75*
G02*
X405475000Y-59625000I0J-5000000D01*
G01*
X448225000Y-101625000D02*
X448225000Y-59625000D01*
X432725000Y-148625000D02*
G75*
G02*
X427725000Y-143625000I0J5000000D01*
G01*
X380629827Y-125930394D02*
X377225001Y-122125000D01*
X421728330Y-124625000D02*
G75*
G02*
X418721670Y-124625000I-1503330J0D01*
G01*
X418721670Y-124625000D02*
G75*
G02*
X421728330Y-124625000I1503330J0D01*
G01*
X448225000Y-101625000D02*
X448225000Y-143625000D01*
X432725000Y-148625000D02*
X443225000Y-148625000D01*
X390725000Y-148625000D02*
G75*
G02*
X385725000Y-143625000I0J5000000D01*
G01*
X380629827Y-125930394D02*
G75*
G02*
X385725006Y-139266291I-14904827J-13335906D01*
G01*
X427725000Y-67625000D02*
G75*
G02*
X422725000Y-72625000I-5000000J0D01*
G01*
X385725000Y-59625000D02*
X385725000Y-63983709D01*
X405475000Y-135625000D02*
G75*
G02*
X410475000Y-130625000I5000000J0D01*
G01*
X448225000Y-143625000D02*
G75*
G02*
X443225000Y-148625000I-5000000J0D01*
G01*
X410475000Y-130625000D02*
X422725000Y-130625000D01*
X405475000Y-143625000D02*
G75*
G02*
X400475000Y-148625000I-5000000J0D01*
G01*
X405475000Y-135625000D02*
X405475000Y-143625000D01*
X443225000Y-54625000D02*
G75*
G02*
X448225000Y-59625000I0J-5000000D01*
G01*
X432725000Y-54625000D02*
X443225000Y-54625000D01*
X422725000Y-130625000D02*
G75*
G02*
X427725000Y-135625000I0J-5000000D01*
G01*
M02*
