M48
; DRILL file {KiCad 9.0.2} date 2025-10-02T21:34:43-0400
; FORMAT={-:-/ absolute / metric / decimal}
; #@! TF.CreationDate,2025-10-02T21:34:43-04:00
; #@! TF.GenerationSoftware,Kicad,Pcbnew,9.0.2
; #@! TF.FileFunction,Plated,1,2,PTH
FMAT,2
METRIC
; #@! TA.AperFunction,Plated,PTH,ComponentDrill
T1C1.000
; #@! TA.AperFunction,Plated,PTH,ComponentDrill
T2C2.500
%
G90
G05
T1
X375.701Y-86.286
X375.701Y-116.974
X377.334Y-84.34
X377.334Y-118.92
X378.966Y-82.395
X378.966Y-120.865
X380.599Y-80.449
X380.599Y-122.811
X437.725Y-97.815
X437.725Y-100.355
X437.725Y-102.895
X437.725Y-105.435
X438.973Y-77.241
X438.973Y-126.009
X441.513Y-77.241
X441.513Y-126.009
X444.053Y-77.241
X444.053Y-126.009
X446.593Y-77.241
X446.593Y-126.009
T2
X377.85Y-101.621
X389.2Y-82.25
X389.2Y-121.05
X411.55Y-121.1
X411.65Y-82.2
X423.0Y-101.6
M30
