G04 #@! TF.GenerationSoftware,KiCad,Pcbnew,9.0.2*
G04 #@! TF.CreationDate,2025-10-02T21:34:41-04:00*
G04 #@! TF.ProjectId,Trackball,54726163-6b62-4616-9c6c-2e6b69636164,rev?*
G04 #@! TF.SameCoordinates,Original*
G04 #@! TF.FileFunction,Soldermask,Bot*
G04 #@! TF.FilePolarity,Negative*
%FSLAX46Y46*%
G04 Gerber Fmt 4.6, Leading zero omitted, Abs format (unit mm)*
G04 Created by KiCad (PCBNEW 9.0.2) date 2025-10-02 21:34:41*
%MOMM*%
%LPD*%
G01*
G04 APERTURE LIST*
G04 APERTURE END LIST*
G36*
X442912517Y-145686882D02*
G01*
X442929062Y-145697938D01*
X442940118Y-145714483D01*
X442944000Y-145734000D01*
X442944000Y-148334000D01*
X442940118Y-148353517D01*
X442929062Y-148370062D01*
X442912517Y-148381118D01*
X442893000Y-148385000D01*
X440293000Y-148385000D01*
X440273483Y-148381118D01*
X440256938Y-148370062D01*
X440245882Y-148353517D01*
X440242000Y-148334000D01*
X440242000Y-145734000D01*
X440245882Y-145714483D01*
X440256938Y-145697938D01*
X440273483Y-145686882D01*
X440293000Y-145683000D01*
X442893000Y-145683000D01*
X442912517Y-145686882D01*
G37*
G36*
X395585482Y-143162781D02*
G01*
X395596690Y-143162781D01*
X395651888Y-143171523D01*
X395777534Y-143188065D01*
X395808189Y-143196279D01*
X395837074Y-143200854D01*
X395892620Y-143218902D01*
X395973467Y-143240565D01*
X396025050Y-143261931D01*
X396068542Y-143276063D01*
X396109286Y-143296823D01*
X396160870Y-143318190D01*
X396233353Y-143360038D01*
X396285395Y-143386555D01*
X396309055Y-143403745D01*
X396336539Y-143419613D01*
X396437074Y-143496756D01*
X396482294Y-143529610D01*
X396490219Y-143537535D01*
X396497466Y-143543096D01*
X396640903Y-143686533D01*
X396646463Y-143693779D01*
X396654390Y-143701706D01*
X396687247Y-143746930D01*
X396764386Y-143847460D01*
X396780252Y-143874941D01*
X396797445Y-143898605D01*
X396823964Y-143950652D01*
X396865809Y-144023129D01*
X396887173Y-144074706D01*
X396907937Y-144115458D01*
X396922070Y-144158955D01*
X396943434Y-144210532D01*
X396965093Y-144291366D01*
X396983146Y-144346926D01*
X396987721Y-144375816D01*
X396995934Y-144406465D01*
X397012474Y-144532099D01*
X397021219Y-144587310D01*
X397021219Y-144598518D01*
X397022412Y-144607580D01*
X397022412Y-144810419D01*
X397021219Y-144819480D01*
X397021219Y-144830690D01*
X397012473Y-144885905D01*
X396995934Y-145011534D01*
X396987722Y-145042180D01*
X396983146Y-145071074D01*
X396965091Y-145126638D01*
X396943434Y-145207467D01*
X396922071Y-145259039D01*
X396907937Y-145302542D01*
X396887171Y-145343297D01*
X396865809Y-145394870D01*
X396823968Y-145467338D01*
X396797445Y-145519395D01*
X396780249Y-145543062D01*
X396764386Y-145570539D01*
X396687261Y-145671050D01*
X396654390Y-145716294D01*
X396646459Y-145724224D01*
X396640903Y-145731466D01*
X396497466Y-145874903D01*
X396490224Y-145880459D01*
X396482294Y-145888390D01*
X396437050Y-145921261D01*
X396336539Y-145998386D01*
X396309062Y-146014249D01*
X396285395Y-146031445D01*
X396233338Y-146057968D01*
X396160870Y-146099809D01*
X396109297Y-146121171D01*
X396068542Y-146141937D01*
X396025039Y-146156071D01*
X395973467Y-146177434D01*
X395892638Y-146199091D01*
X395837074Y-146217146D01*
X395808180Y-146221722D01*
X395777534Y-146229934D01*
X395651902Y-146246474D01*
X395596690Y-146255219D01*
X395585481Y-146255219D01*
X395576420Y-146256412D01*
X395373580Y-146256412D01*
X395364519Y-146255219D01*
X395353310Y-146255219D01*
X395298099Y-146246474D01*
X395172465Y-146229934D01*
X395141816Y-146221721D01*
X395112926Y-146217146D01*
X395057366Y-146199093D01*
X394976532Y-146177434D01*
X394924955Y-146156070D01*
X394881458Y-146141937D01*
X394840706Y-146121173D01*
X394789129Y-146099809D01*
X394716652Y-146057964D01*
X394664605Y-146031445D01*
X394640941Y-146014252D01*
X394613460Y-145998386D01*
X394512930Y-145921247D01*
X394467706Y-145888390D01*
X394459779Y-145880463D01*
X394452533Y-145874903D01*
X394309096Y-145731466D01*
X394303535Y-145724219D01*
X394295610Y-145716294D01*
X394262756Y-145671074D01*
X394185613Y-145570539D01*
X394169745Y-145543055D01*
X394152555Y-145519395D01*
X394126038Y-145467353D01*
X394084190Y-145394870D01*
X394062823Y-145343286D01*
X394042063Y-145302542D01*
X394027931Y-145259050D01*
X394006565Y-145207467D01*
X393984902Y-145126620D01*
X393966854Y-145071074D01*
X393962279Y-145042189D01*
X393954065Y-145011534D01*
X393937524Y-144885891D01*
X393928781Y-144830690D01*
X393928781Y-144819480D01*
X393927588Y-144810419D01*
X393927588Y-144607580D01*
X393928781Y-144598518D01*
X393928781Y-144587310D01*
X393937523Y-144532113D01*
X393954065Y-144406465D01*
X393962279Y-144375807D01*
X393966854Y-144346926D01*
X393984900Y-144291383D01*
X394006565Y-144210532D01*
X394027933Y-144158944D01*
X394042063Y-144115458D01*
X394062821Y-144074717D01*
X394084190Y-144023129D01*
X394126042Y-143950637D01*
X394152555Y-143898605D01*
X394169742Y-143874948D01*
X394185613Y-143847460D01*
X394262770Y-143746906D01*
X394295610Y-143701706D01*
X394303532Y-143693783D01*
X394309096Y-143686533D01*
X394452533Y-143543096D01*
X394459783Y-143537532D01*
X394467706Y-143529610D01*
X394512906Y-143496770D01*
X394613460Y-143419613D01*
X394640948Y-143403742D01*
X394664605Y-143386555D01*
X394716637Y-143360042D01*
X394789129Y-143318190D01*
X394840717Y-143296821D01*
X394881458Y-143276063D01*
X394924944Y-143261933D01*
X394976532Y-143240565D01*
X395057383Y-143218900D01*
X395112926Y-143200854D01*
X395141807Y-143196279D01*
X395172465Y-143188065D01*
X395298113Y-143171523D01*
X395353310Y-143162781D01*
X395364518Y-143162781D01*
X395373580Y-143161588D01*
X395576420Y-143161588D01*
X395585482Y-143162781D01*
G37*
G36*
X400069517Y-143361882D02*
G01*
X400086062Y-143372938D01*
X400097118Y-143389483D01*
X400101000Y-143409000D01*
X400101000Y-146009000D01*
X400097118Y-146028517D01*
X400086062Y-146045062D01*
X400069517Y-146056118D01*
X400050000Y-146060000D01*
X397450000Y-146060000D01*
X397430483Y-146056118D01*
X397413938Y-146045062D01*
X397402882Y-146028517D01*
X397399000Y-146009000D01*
X397399000Y-143409000D01*
X397402882Y-143389483D01*
X397413938Y-143372938D01*
X397430483Y-143361882D01*
X397450000Y-143358000D01*
X400050000Y-143358000D01*
X400069517Y-143361882D01*
G37*
G36*
X441703482Y-142212781D02*
G01*
X441714690Y-142212781D01*
X441769888Y-142221523D01*
X441895534Y-142238065D01*
X441926189Y-142246279D01*
X441955074Y-142250854D01*
X442010620Y-142268902D01*
X442091467Y-142290565D01*
X442143050Y-142311931D01*
X442186542Y-142326063D01*
X442227286Y-142346823D01*
X442278870Y-142368190D01*
X442351353Y-142410038D01*
X442403395Y-142436555D01*
X442427055Y-142453745D01*
X442454539Y-142469613D01*
X442555074Y-142546756D01*
X442600294Y-142579610D01*
X442608219Y-142587535D01*
X442615466Y-142593096D01*
X442758903Y-142736533D01*
X442764463Y-142743779D01*
X442772390Y-142751706D01*
X442805247Y-142796930D01*
X442882386Y-142897460D01*
X442898252Y-142924941D01*
X442915445Y-142948605D01*
X442941964Y-143000652D01*
X442983809Y-143073129D01*
X443005173Y-143124706D01*
X443025937Y-143165458D01*
X443040070Y-143208955D01*
X443061434Y-143260532D01*
X443083093Y-143341366D01*
X443101146Y-143396926D01*
X443105721Y-143425816D01*
X443113934Y-143456465D01*
X443130474Y-143582099D01*
X443139219Y-143637310D01*
X443139219Y-143648518D01*
X443140412Y-143657580D01*
X443140412Y-143860419D01*
X443139219Y-143869480D01*
X443139219Y-143880690D01*
X443130473Y-143935905D01*
X443113934Y-144061534D01*
X443105722Y-144092180D01*
X443101146Y-144121074D01*
X443083091Y-144176638D01*
X443061434Y-144257467D01*
X443040071Y-144309039D01*
X443025937Y-144352542D01*
X443005171Y-144393297D01*
X442983809Y-144444870D01*
X442941968Y-144517338D01*
X442915445Y-144569395D01*
X442898249Y-144593062D01*
X442882386Y-144620539D01*
X442805261Y-144721050D01*
X442772390Y-144766294D01*
X442764459Y-144774224D01*
X442758903Y-144781466D01*
X442615466Y-144924903D01*
X442608224Y-144930459D01*
X442600294Y-144938390D01*
X442555050Y-144971261D01*
X442454539Y-145048386D01*
X442427062Y-145064249D01*
X442403395Y-145081445D01*
X442351338Y-145107968D01*
X442278870Y-145149809D01*
X442227297Y-145171171D01*
X442186542Y-145191937D01*
X442143039Y-145206071D01*
X442091467Y-145227434D01*
X442010638Y-145249091D01*
X441955074Y-145267146D01*
X441926180Y-145271722D01*
X441895534Y-145279934D01*
X441769902Y-145296474D01*
X441714690Y-145305219D01*
X441703481Y-145305219D01*
X441694420Y-145306412D01*
X441491580Y-145306412D01*
X441482519Y-145305219D01*
X441471310Y-145305219D01*
X441416099Y-145296474D01*
X441290465Y-145279934D01*
X441259816Y-145271721D01*
X441230926Y-145267146D01*
X441175366Y-145249093D01*
X441094532Y-145227434D01*
X441042955Y-145206070D01*
X440999458Y-145191937D01*
X440958706Y-145171173D01*
X440907129Y-145149809D01*
X440834652Y-145107964D01*
X440782605Y-145081445D01*
X440758941Y-145064252D01*
X440731460Y-145048386D01*
X440630930Y-144971247D01*
X440585706Y-144938390D01*
X440577779Y-144930463D01*
X440570533Y-144924903D01*
X440427096Y-144781466D01*
X440421535Y-144774219D01*
X440413610Y-144766294D01*
X440380756Y-144721074D01*
X440303613Y-144620539D01*
X440287745Y-144593055D01*
X440270555Y-144569395D01*
X440244038Y-144517353D01*
X440202190Y-144444870D01*
X440180823Y-144393286D01*
X440160063Y-144352542D01*
X440145931Y-144309050D01*
X440124565Y-144257467D01*
X440102902Y-144176620D01*
X440084854Y-144121074D01*
X440080279Y-144092189D01*
X440072065Y-144061534D01*
X440055524Y-143935891D01*
X440046781Y-143880690D01*
X440046781Y-143869480D01*
X440045588Y-143860419D01*
X440045588Y-143657580D01*
X440046781Y-143648518D01*
X440046781Y-143637310D01*
X440055523Y-143582113D01*
X440072065Y-143456465D01*
X440080279Y-143425807D01*
X440084854Y-143396926D01*
X440102900Y-143341383D01*
X440124565Y-143260532D01*
X440145933Y-143208944D01*
X440160063Y-143165458D01*
X440180821Y-143124717D01*
X440202190Y-143073129D01*
X440244042Y-143000637D01*
X440270555Y-142948605D01*
X440287742Y-142924948D01*
X440303613Y-142897460D01*
X440380770Y-142796906D01*
X440413610Y-142751706D01*
X440421532Y-142743783D01*
X440427096Y-142736533D01*
X440570533Y-142593096D01*
X440577783Y-142587532D01*
X440585706Y-142579610D01*
X440630906Y-142546770D01*
X440731460Y-142469613D01*
X440758948Y-142453742D01*
X440782605Y-142436555D01*
X440834637Y-142410042D01*
X440907129Y-142368190D01*
X440958717Y-142346821D01*
X440999458Y-142326063D01*
X441042944Y-142311933D01*
X441094532Y-142290565D01*
X441175383Y-142268900D01*
X441230926Y-142250854D01*
X441259807Y-142246279D01*
X441290465Y-142238065D01*
X441416113Y-142221523D01*
X441471310Y-142212781D01*
X441482518Y-142212781D01*
X441491580Y-142211588D01*
X441694420Y-142211588D01*
X441703482Y-142212781D01*
G37*
G36*
X438104808Y-143395936D02*
G01*
X438268153Y-143463595D01*
X438415159Y-143561822D01*
X438540178Y-143686841D01*
X438638405Y-143833847D01*
X438706064Y-143997192D01*
X438740557Y-144170598D01*
X438740557Y-144347402D01*
X438706064Y-144520808D01*
X438638405Y-144684153D01*
X438540178Y-144831159D01*
X438415159Y-144956178D01*
X438268153Y-145054405D01*
X438104808Y-145122064D01*
X437931402Y-145156557D01*
X437754598Y-145156557D01*
X437581192Y-145122064D01*
X437417847Y-145054405D01*
X437270841Y-144956178D01*
X437145822Y-144831159D01*
X437047595Y-144684153D01*
X436979936Y-144520808D01*
X436945443Y-144347402D01*
X436945443Y-144170598D01*
X436979936Y-143997192D01*
X437047595Y-143833847D01*
X437145822Y-143686841D01*
X437270841Y-143561822D01*
X437417847Y-143463595D01*
X437581192Y-143395936D01*
X437754598Y-143361443D01*
X437931402Y-143361443D01*
X438104808Y-143395936D01*
G37*
G36*
X390585482Y-140962781D02*
G01*
X390596690Y-140962781D01*
X390651888Y-140971523D01*
X390777534Y-140988065D01*
X390808189Y-140996279D01*
X390837074Y-141000854D01*
X390892620Y-141018902D01*
X390973467Y-141040565D01*
X391025050Y-141061931D01*
X391068542Y-141076063D01*
X391109286Y-141096823D01*
X391160870Y-141118190D01*
X391233353Y-141160038D01*
X391285395Y-141186555D01*
X391309055Y-141203745D01*
X391336539Y-141219613D01*
X391437074Y-141296756D01*
X391482294Y-141329610D01*
X391490219Y-141337535D01*
X391497466Y-141343096D01*
X391640903Y-141486533D01*
X391646463Y-141493779D01*
X391654390Y-141501706D01*
X391687247Y-141546930D01*
X391764386Y-141647460D01*
X391780252Y-141674941D01*
X391797445Y-141698605D01*
X391823964Y-141750652D01*
X391865809Y-141823129D01*
X391887173Y-141874706D01*
X391907937Y-141915458D01*
X391922070Y-141958955D01*
X391943434Y-142010532D01*
X391965093Y-142091366D01*
X391983146Y-142146926D01*
X391987721Y-142175816D01*
X391995934Y-142206465D01*
X392012474Y-142332099D01*
X392021219Y-142387310D01*
X392021219Y-142398518D01*
X392022412Y-142407580D01*
X392022412Y-142610419D01*
X392021219Y-142619480D01*
X392021219Y-142630690D01*
X392012473Y-142685905D01*
X391995934Y-142811534D01*
X391987722Y-142842180D01*
X391983146Y-142871074D01*
X391965091Y-142926638D01*
X391943434Y-143007467D01*
X391922071Y-143059039D01*
X391907937Y-143102542D01*
X391887171Y-143143297D01*
X391865809Y-143194870D01*
X391823968Y-143267338D01*
X391797445Y-143319395D01*
X391780249Y-143343062D01*
X391764386Y-143370539D01*
X391687261Y-143471050D01*
X391654390Y-143516294D01*
X391646459Y-143524224D01*
X391640903Y-143531466D01*
X391497466Y-143674903D01*
X391490224Y-143680459D01*
X391482294Y-143688390D01*
X391437050Y-143721261D01*
X391336539Y-143798386D01*
X391309062Y-143814249D01*
X391285395Y-143831445D01*
X391233338Y-143857968D01*
X391160870Y-143899809D01*
X391109297Y-143921171D01*
X391068542Y-143941937D01*
X391025039Y-143956071D01*
X390973467Y-143977434D01*
X390892638Y-143999091D01*
X390837074Y-144017146D01*
X390808180Y-144021722D01*
X390777534Y-144029934D01*
X390651902Y-144046474D01*
X390596690Y-144055219D01*
X390585481Y-144055219D01*
X390576420Y-144056412D01*
X390373580Y-144056412D01*
X390364519Y-144055219D01*
X390353310Y-144055219D01*
X390298099Y-144046474D01*
X390172465Y-144029934D01*
X390141816Y-144021721D01*
X390112926Y-144017146D01*
X390057366Y-143999093D01*
X389976532Y-143977434D01*
X389924955Y-143956070D01*
X389881458Y-143941937D01*
X389840706Y-143921173D01*
X389789129Y-143899809D01*
X389716652Y-143857964D01*
X389664605Y-143831445D01*
X389640941Y-143814252D01*
X389613460Y-143798386D01*
X389512930Y-143721247D01*
X389467706Y-143688390D01*
X389459779Y-143680463D01*
X389452533Y-143674903D01*
X389309096Y-143531466D01*
X389303535Y-143524219D01*
X389295610Y-143516294D01*
X389262756Y-143471074D01*
X389185613Y-143370539D01*
X389169745Y-143343055D01*
X389152555Y-143319395D01*
X389126038Y-143267353D01*
X389084190Y-143194870D01*
X389062823Y-143143286D01*
X389042063Y-143102542D01*
X389027931Y-143059050D01*
X389006565Y-143007467D01*
X388984902Y-142926620D01*
X388966854Y-142871074D01*
X388962279Y-142842189D01*
X388954065Y-142811534D01*
X388937524Y-142685891D01*
X388928781Y-142630690D01*
X388928781Y-142619480D01*
X388927588Y-142610419D01*
X388927588Y-142407580D01*
X388928781Y-142398518D01*
X388928781Y-142387310D01*
X388937523Y-142332113D01*
X388954065Y-142206465D01*
X388962279Y-142175807D01*
X388966854Y-142146926D01*
X388984900Y-142091383D01*
X389006565Y-142010532D01*
X389027933Y-141958944D01*
X389042063Y-141915458D01*
X389062821Y-141874717D01*
X389084190Y-141823129D01*
X389126042Y-141750637D01*
X389152555Y-141698605D01*
X389169742Y-141674948D01*
X389185613Y-141647460D01*
X389262770Y-141546906D01*
X389295610Y-141501706D01*
X389303532Y-141493783D01*
X389309096Y-141486533D01*
X389452533Y-141343096D01*
X389459783Y-141337532D01*
X389467706Y-141329610D01*
X389512906Y-141296770D01*
X389613460Y-141219613D01*
X389640948Y-141203742D01*
X389664605Y-141186555D01*
X389716637Y-141160042D01*
X389789129Y-141118190D01*
X389840717Y-141096821D01*
X389881458Y-141076063D01*
X389924944Y-141061933D01*
X389976532Y-141040565D01*
X390057383Y-141018900D01*
X390112926Y-141000854D01*
X390141807Y-140996279D01*
X390172465Y-140988065D01*
X390298113Y-140971523D01*
X390353310Y-140962781D01*
X390364518Y-140962781D01*
X390373580Y-140961588D01*
X390576420Y-140961588D01*
X390585482Y-140962781D01*
G37*
G36*
X388519517Y-141161882D02*
G01*
X388536062Y-141172938D01*
X388547118Y-141189483D01*
X388551000Y-141209000D01*
X388551000Y-143809000D01*
X388547118Y-143828517D01*
X388536062Y-143845062D01*
X388519517Y-143856118D01*
X388500000Y-143860000D01*
X385900000Y-143860000D01*
X385880483Y-143856118D01*
X385863938Y-143845062D01*
X385852882Y-143828517D01*
X385849000Y-143809000D01*
X385849000Y-141209000D01*
X385852882Y-141189483D01*
X385863938Y-141172938D01*
X385880483Y-141161882D01*
X385900000Y-141158000D01*
X388500000Y-141158000D01*
X388519517Y-141161882D01*
G37*
G36*
X395819432Y-137027424D02*
G01*
X396042501Y-137087195D01*
X396255861Y-137175571D01*
X396455859Y-137291040D01*
X396639075Y-137431627D01*
X396802373Y-137594925D01*
X396942960Y-137778141D01*
X397058429Y-137978139D01*
X397146805Y-138191499D01*
X397206576Y-138414568D01*
X397236720Y-138643531D01*
X397236720Y-138874469D01*
X397206576Y-139103432D01*
X397146805Y-139326501D01*
X397058429Y-139539861D01*
X396942960Y-139739859D01*
X396802373Y-139923075D01*
X396639075Y-140086373D01*
X396455859Y-140226960D01*
X396255861Y-140342429D01*
X396042501Y-140430805D01*
X395819432Y-140490576D01*
X395590469Y-140520720D01*
X395359531Y-140520720D01*
X395130568Y-140490576D01*
X394907499Y-140430805D01*
X394694139Y-140342429D01*
X394494141Y-140226960D01*
X394310925Y-140086373D01*
X394147627Y-139923075D01*
X394007040Y-139739859D01*
X393891571Y-139539861D01*
X393803195Y-139326501D01*
X393743424Y-139103432D01*
X393713280Y-138874469D01*
X393713280Y-138643531D01*
X393743424Y-138414568D01*
X393803195Y-138191499D01*
X393891571Y-137978139D01*
X394007040Y-137778141D01*
X394147627Y-137594925D01*
X394310925Y-137431627D01*
X394494141Y-137291040D01*
X394694139Y-137175571D01*
X394907499Y-137087195D01*
X395130568Y-137027424D01*
X395359531Y-136997280D01*
X395590469Y-136997280D01*
X395819432Y-137027424D01*
G37*
G36*
X438187432Y-137027424D02*
G01*
X438410501Y-137087195D01*
X438623861Y-137175571D01*
X438823859Y-137291040D01*
X439007075Y-137431627D01*
X439170373Y-137594925D01*
X439310960Y-137778141D01*
X439426429Y-137978139D01*
X439514805Y-138191499D01*
X439574576Y-138414568D01*
X439604720Y-138643531D01*
X439604720Y-138874469D01*
X439574576Y-139103432D01*
X439514805Y-139326501D01*
X439426429Y-139539861D01*
X439310960Y-139739859D01*
X439170373Y-139923075D01*
X439007075Y-140086373D01*
X438823859Y-140226960D01*
X438623861Y-140342429D01*
X438410501Y-140430805D01*
X438187432Y-140490576D01*
X437958469Y-140520720D01*
X437727531Y-140520720D01*
X437498568Y-140490576D01*
X437275499Y-140430805D01*
X437062139Y-140342429D01*
X436862141Y-140226960D01*
X436678925Y-140086373D01*
X436515627Y-139923075D01*
X436375040Y-139739859D01*
X436259571Y-139539861D01*
X436171195Y-139326501D01*
X436111424Y-139103432D01*
X436081280Y-138874469D01*
X436081280Y-138643531D01*
X436111424Y-138414568D01*
X436171195Y-138191499D01*
X436259571Y-137978139D01*
X436375040Y-137778141D01*
X436515627Y-137594925D01*
X436678925Y-137431627D01*
X436862141Y-137291040D01*
X437062139Y-137175571D01*
X437275499Y-137087195D01*
X437498568Y-137027424D01*
X437727531Y-136997280D01*
X437958469Y-136997280D01*
X438187432Y-137027424D01*
G37*
G36*
X443903482Y-137212781D02*
G01*
X443914690Y-137212781D01*
X443969888Y-137221523D01*
X444095534Y-137238065D01*
X444126189Y-137246279D01*
X444155074Y-137250854D01*
X444210620Y-137268902D01*
X444291467Y-137290565D01*
X444343050Y-137311931D01*
X444386542Y-137326063D01*
X444427286Y-137346823D01*
X444478870Y-137368190D01*
X444551353Y-137410038D01*
X444603395Y-137436555D01*
X444627055Y-137453745D01*
X444654539Y-137469613D01*
X444755074Y-137546756D01*
X444800294Y-137579610D01*
X444808219Y-137587535D01*
X444815466Y-137593096D01*
X444958903Y-137736533D01*
X444964463Y-137743779D01*
X444972390Y-137751706D01*
X445005247Y-137796930D01*
X445082386Y-137897460D01*
X445098252Y-137924941D01*
X445115445Y-137948605D01*
X445141964Y-138000652D01*
X445183809Y-138073129D01*
X445205173Y-138124706D01*
X445225937Y-138165458D01*
X445240070Y-138208955D01*
X445261434Y-138260532D01*
X445283093Y-138341366D01*
X445301146Y-138396926D01*
X445305721Y-138425816D01*
X445313934Y-138456465D01*
X445330474Y-138582099D01*
X445339219Y-138637310D01*
X445339219Y-138648518D01*
X445340412Y-138657580D01*
X445340412Y-138860419D01*
X445339219Y-138869480D01*
X445339219Y-138880690D01*
X445330473Y-138935905D01*
X445313934Y-139061534D01*
X445305722Y-139092180D01*
X445301146Y-139121074D01*
X445283091Y-139176638D01*
X445261434Y-139257467D01*
X445240071Y-139309039D01*
X445225937Y-139352542D01*
X445205171Y-139393297D01*
X445183809Y-139444870D01*
X445141968Y-139517338D01*
X445115445Y-139569395D01*
X445098249Y-139593062D01*
X445082386Y-139620539D01*
X445005261Y-139721050D01*
X444972390Y-139766294D01*
X444964459Y-139774224D01*
X444958903Y-139781466D01*
X444815466Y-139924903D01*
X444808224Y-139930459D01*
X444800294Y-139938390D01*
X444755050Y-139971261D01*
X444654539Y-140048386D01*
X444627062Y-140064249D01*
X444603395Y-140081445D01*
X444551338Y-140107968D01*
X444478870Y-140149809D01*
X444427297Y-140171171D01*
X444386542Y-140191937D01*
X444343039Y-140206071D01*
X444291467Y-140227434D01*
X444210638Y-140249091D01*
X444155074Y-140267146D01*
X444126180Y-140271722D01*
X444095534Y-140279934D01*
X443969902Y-140296474D01*
X443914690Y-140305219D01*
X443903481Y-140305219D01*
X443894420Y-140306412D01*
X443691580Y-140306412D01*
X443682519Y-140305219D01*
X443671310Y-140305219D01*
X443616099Y-140296474D01*
X443490465Y-140279934D01*
X443459816Y-140271721D01*
X443430926Y-140267146D01*
X443375366Y-140249093D01*
X443294532Y-140227434D01*
X443242955Y-140206070D01*
X443199458Y-140191937D01*
X443158706Y-140171173D01*
X443107129Y-140149809D01*
X443034652Y-140107964D01*
X442982605Y-140081445D01*
X442958941Y-140064252D01*
X442931460Y-140048386D01*
X442830930Y-139971247D01*
X442785706Y-139938390D01*
X442777779Y-139930463D01*
X442770533Y-139924903D01*
X442627096Y-139781466D01*
X442621535Y-139774219D01*
X442613610Y-139766294D01*
X442580756Y-139721074D01*
X442503613Y-139620539D01*
X442487745Y-139593055D01*
X442470555Y-139569395D01*
X442444038Y-139517353D01*
X442402190Y-139444870D01*
X442380823Y-139393286D01*
X442360063Y-139352542D01*
X442345931Y-139309050D01*
X442324565Y-139257467D01*
X442302902Y-139176620D01*
X442284854Y-139121074D01*
X442280279Y-139092189D01*
X442272065Y-139061534D01*
X442255524Y-138935891D01*
X442246781Y-138880690D01*
X442246781Y-138869480D01*
X442245588Y-138860419D01*
X442245588Y-138657580D01*
X442246781Y-138648518D01*
X442246781Y-138637310D01*
X442255523Y-138582113D01*
X442272065Y-138456465D01*
X442280279Y-138425807D01*
X442284854Y-138396926D01*
X442302900Y-138341383D01*
X442324565Y-138260532D01*
X442345933Y-138208944D01*
X442360063Y-138165458D01*
X442380821Y-138124717D01*
X442402190Y-138073129D01*
X442444042Y-138000637D01*
X442470555Y-137948605D01*
X442487742Y-137924948D01*
X442503613Y-137897460D01*
X442580770Y-137796906D01*
X442613610Y-137751706D01*
X442621532Y-137743783D01*
X442627096Y-137736533D01*
X442770533Y-137593096D01*
X442777783Y-137587532D01*
X442785706Y-137579610D01*
X442830906Y-137546770D01*
X442931460Y-137469613D01*
X442958948Y-137453742D01*
X442982605Y-137436555D01*
X443034637Y-137410042D01*
X443107129Y-137368190D01*
X443158717Y-137346821D01*
X443199458Y-137326063D01*
X443242944Y-137311933D01*
X443294532Y-137290565D01*
X443375383Y-137268900D01*
X443430926Y-137250854D01*
X443459807Y-137246279D01*
X443490465Y-137238065D01*
X443616113Y-137221523D01*
X443671310Y-137212781D01*
X443682518Y-137212781D01*
X443691580Y-137211588D01*
X443894420Y-137211588D01*
X443903482Y-137212781D01*
G37*
G36*
X390236808Y-137895936D02*
G01*
X390400153Y-137963595D01*
X390547159Y-138061822D01*
X390672178Y-138186841D01*
X390770405Y-138333847D01*
X390838064Y-138497192D01*
X390872557Y-138670598D01*
X390872557Y-138847402D01*
X390838064Y-139020808D01*
X390770405Y-139184153D01*
X390672178Y-139331159D01*
X390547159Y-139456178D01*
X390400153Y-139554405D01*
X390236808Y-139622064D01*
X390063402Y-139656557D01*
X389886598Y-139656557D01*
X389713192Y-139622064D01*
X389549847Y-139554405D01*
X389402841Y-139456178D01*
X389277822Y-139331159D01*
X389179595Y-139184153D01*
X389111936Y-139020808D01*
X389077443Y-138847402D01*
X389077443Y-138670598D01*
X389111936Y-138497192D01*
X389179595Y-138333847D01*
X389277822Y-138186841D01*
X389402841Y-138061822D01*
X389549847Y-137963595D01*
X389713192Y-137895936D01*
X389886598Y-137861443D01*
X390063402Y-137861443D01*
X390236808Y-137895936D01*
G37*
G36*
X401236808Y-137895936D02*
G01*
X401400153Y-137963595D01*
X401547159Y-138061822D01*
X401672178Y-138186841D01*
X401770405Y-138333847D01*
X401838064Y-138497192D01*
X401872557Y-138670598D01*
X401872557Y-138847402D01*
X401838064Y-139020808D01*
X401770405Y-139184153D01*
X401672178Y-139331159D01*
X401547159Y-139456178D01*
X401400153Y-139554405D01*
X401236808Y-139622064D01*
X401063402Y-139656557D01*
X400886598Y-139656557D01*
X400713192Y-139622064D01*
X400549847Y-139554405D01*
X400402841Y-139456178D01*
X400277822Y-139331159D01*
X400179595Y-139184153D01*
X400111936Y-139020808D01*
X400077443Y-138847402D01*
X400077443Y-138670598D01*
X400111936Y-138497192D01*
X400179595Y-138333847D01*
X400277822Y-138186841D01*
X400402841Y-138061822D01*
X400549847Y-137963595D01*
X400713192Y-137895936D01*
X400886598Y-137861443D01*
X401063402Y-137861443D01*
X401236808Y-137895936D01*
G37*
G36*
X445112517Y-134136882D02*
G01*
X445129062Y-134147938D01*
X445140118Y-134164483D01*
X445144000Y-134184000D01*
X445144000Y-136784000D01*
X445140118Y-136803517D01*
X445129062Y-136820062D01*
X445112517Y-136831118D01*
X445093000Y-136835000D01*
X442493000Y-136835000D01*
X442473483Y-136831118D01*
X442456938Y-136820062D01*
X442445882Y-136803517D01*
X442442000Y-136784000D01*
X442442000Y-134184000D01*
X442445882Y-134164483D01*
X442456938Y-134147938D01*
X442473483Y-134136882D01*
X442493000Y-134133000D01*
X445093000Y-134133000D01*
X445112517Y-134136882D01*
G37*
G36*
X438104808Y-132395936D02*
G01*
X438268153Y-132463595D01*
X438415159Y-132561822D01*
X438540178Y-132686841D01*
X438638405Y-132833847D01*
X438706064Y-132997192D01*
X438740557Y-133170598D01*
X438740557Y-133347402D01*
X438706064Y-133520808D01*
X438638405Y-133684153D01*
X438540178Y-133831159D01*
X438415159Y-133956178D01*
X438268153Y-134054405D01*
X438104808Y-134122064D01*
X437931402Y-134156557D01*
X437754598Y-134156557D01*
X437581192Y-134122064D01*
X437417847Y-134054405D01*
X437270841Y-133956178D01*
X437145822Y-133831159D01*
X437047595Y-133684153D01*
X436979936Y-133520808D01*
X436945443Y-133347402D01*
X436945443Y-133170598D01*
X436979936Y-132997192D01*
X437047595Y-132833847D01*
X437145822Y-132686841D01*
X437270841Y-132561822D01*
X437417847Y-132463595D01*
X437581192Y-132395936D01*
X437754598Y-132361443D01*
X437931402Y-132361443D01*
X438104808Y-132395936D01*
G37*
G36*
X447462517Y-125111882D02*
G01*
X447479062Y-125122938D01*
X447490118Y-125139483D01*
X447494000Y-125159000D01*
X447494000Y-126859000D01*
X447490118Y-126878517D01*
X447479062Y-126895062D01*
X447462517Y-126906118D01*
X447443000Y-126910000D01*
X445743000Y-126910000D01*
X445723483Y-126906118D01*
X445706938Y-126895062D01*
X445695882Y-126878517D01*
X445692000Y-126859000D01*
X445692000Y-125159000D01*
X445695882Y-125139483D01*
X445706938Y-125122938D01*
X445723483Y-125111882D01*
X445743000Y-125108000D01*
X447443000Y-125108000D01*
X447462517Y-125111882D01*
G37*
G36*
X439234546Y-125146797D02*
G01*
X439397728Y-125214389D01*
X439544588Y-125312518D01*
X439669482Y-125437412D01*
X439767611Y-125584272D01*
X439835203Y-125747454D01*
X439869661Y-125920687D01*
X439869661Y-126097313D01*
X439835203Y-126270546D01*
X439767611Y-126433728D01*
X439669482Y-126580588D01*
X439544588Y-126705482D01*
X439397728Y-126803611D01*
X439234546Y-126871203D01*
X439061313Y-126905661D01*
X438884687Y-126905661D01*
X438711454Y-126871203D01*
X438548272Y-126803611D01*
X438401412Y-126705482D01*
X438276518Y-126580588D01*
X438178389Y-126433728D01*
X438110797Y-126270546D01*
X438076339Y-126097313D01*
X438076339Y-125920687D01*
X438110797Y-125747454D01*
X438178389Y-125584272D01*
X438276518Y-125437412D01*
X438401412Y-125312518D01*
X438548272Y-125214389D01*
X438711454Y-125146797D01*
X438884687Y-125112339D01*
X439061313Y-125112339D01*
X439234546Y-125146797D01*
G37*
G36*
X441774546Y-125146797D02*
G01*
X441937728Y-125214389D01*
X442084588Y-125312518D01*
X442209482Y-125437412D01*
X442307611Y-125584272D01*
X442375203Y-125747454D01*
X442409661Y-125920687D01*
X442409661Y-126097313D01*
X442375203Y-126270546D01*
X442307611Y-126433728D01*
X442209482Y-126580588D01*
X442084588Y-126705482D01*
X441937728Y-126803611D01*
X441774546Y-126871203D01*
X441601313Y-126905661D01*
X441424687Y-126905661D01*
X441251454Y-126871203D01*
X441088272Y-126803611D01*
X440941412Y-126705482D01*
X440816518Y-126580588D01*
X440718389Y-126433728D01*
X440650797Y-126270546D01*
X440616339Y-126097313D01*
X440616339Y-125920687D01*
X440650797Y-125747454D01*
X440718389Y-125584272D01*
X440816518Y-125437412D01*
X440941412Y-125312518D01*
X441088272Y-125214389D01*
X441251454Y-125146797D01*
X441424687Y-125112339D01*
X441601313Y-125112339D01*
X441774546Y-125146797D01*
G37*
G36*
X444314546Y-125146797D02*
G01*
X444477728Y-125214389D01*
X444624588Y-125312518D01*
X444749482Y-125437412D01*
X444847611Y-125584272D01*
X444915203Y-125747454D01*
X444949661Y-125920687D01*
X444949661Y-126097313D01*
X444915203Y-126270546D01*
X444847611Y-126433728D01*
X444749482Y-126580588D01*
X444624588Y-126705482D01*
X444477728Y-126803611D01*
X444314546Y-126871203D01*
X444141313Y-126905661D01*
X443964687Y-126905661D01*
X443791454Y-126871203D01*
X443628272Y-126803611D01*
X443481412Y-126705482D01*
X443356518Y-126580588D01*
X443258389Y-126433728D01*
X443190797Y-126270546D01*
X443156339Y-126097313D01*
X443156339Y-125920687D01*
X443190797Y-125747454D01*
X443258389Y-125584272D01*
X443356518Y-125437412D01*
X443481412Y-125312518D01*
X443628272Y-125214389D01*
X443791454Y-125146797D01*
X443964687Y-125112339D01*
X444141313Y-125112339D01*
X444314546Y-125146797D01*
G37*
G36*
X380727267Y-121568306D02*
G01*
X380742786Y-121580762D01*
X381835525Y-122883037D01*
X381845096Y-122900483D01*
X381847262Y-122920264D01*
X381841694Y-122939369D01*
X381829238Y-122954888D01*
X380526963Y-124047627D01*
X380509517Y-124057198D01*
X380489736Y-124059364D01*
X380470631Y-124053796D01*
X380455112Y-124041340D01*
X379362373Y-122739065D01*
X379352802Y-122721619D01*
X379350636Y-122701838D01*
X379356204Y-122682733D01*
X379368660Y-122667214D01*
X380670935Y-121574475D01*
X380688381Y-121564904D01*
X380708162Y-121562738D01*
X380727267Y-121568306D01*
G37*
G36*
X442912517Y-121052882D02*
G01*
X442929062Y-121063938D01*
X442940118Y-121080483D01*
X442944000Y-121100000D01*
X442944000Y-123700000D01*
X442940118Y-123719517D01*
X442929062Y-123736062D01*
X442912517Y-123747118D01*
X442893000Y-123751000D01*
X440293000Y-123751000D01*
X440273483Y-123747118D01*
X440256938Y-123736062D01*
X440245882Y-123719517D01*
X440242000Y-123700000D01*
X440242000Y-121100000D01*
X440245882Y-121080483D01*
X440256938Y-121063938D01*
X440273483Y-121052882D01*
X440293000Y-121049000D01*
X442893000Y-121049000D01*
X442912517Y-121052882D01*
G37*
G36*
X411977308Y-118585043D02*
G01*
X412256207Y-118648700D01*
X412526225Y-118743183D01*
X412783967Y-118867305D01*
X413026190Y-119019504D01*
X413249850Y-119197867D01*
X413452133Y-119400150D01*
X413630496Y-119623810D01*
X413782695Y-119866033D01*
X413906817Y-120123775D01*
X414001300Y-120393793D01*
X414064957Y-120672692D01*
X414096987Y-120956964D01*
X414096987Y-121243036D01*
X414064957Y-121527308D01*
X414001300Y-121806207D01*
X413906817Y-122076225D01*
X413782695Y-122333967D01*
X413630496Y-122576190D01*
X413452133Y-122799850D01*
X413249850Y-123002133D01*
X413026190Y-123180496D01*
X412783967Y-123332695D01*
X412526225Y-123456817D01*
X412256207Y-123551300D01*
X411977308Y-123614957D01*
X411693036Y-123646987D01*
X411406964Y-123646987D01*
X411122692Y-123614957D01*
X410843793Y-123551300D01*
X410573775Y-123456817D01*
X410316033Y-123332695D01*
X410073810Y-123180496D01*
X409850150Y-123002133D01*
X409647867Y-122799850D01*
X409469504Y-122576190D01*
X409317305Y-122333967D01*
X409193183Y-122076225D01*
X409098700Y-121806207D01*
X409035043Y-121527308D01*
X409003013Y-121243036D01*
X409003013Y-120956964D01*
X409035043Y-120672692D01*
X409098700Y-120393793D01*
X409193183Y-120123775D01*
X409317305Y-119866033D01*
X409469504Y-119623810D01*
X409647867Y-119400150D01*
X409850150Y-119197867D01*
X410073810Y-119019504D01*
X410316033Y-118867305D01*
X410573775Y-118743183D01*
X410843793Y-118648700D01*
X411122692Y-118585043D01*
X411406964Y-118553013D01*
X411693036Y-118553013D01*
X411977308Y-118585043D01*
G37*
G36*
X389627308Y-118535043D02*
G01*
X389906207Y-118598700D01*
X390176225Y-118693183D01*
X390433967Y-118817305D01*
X390676190Y-118969504D01*
X390899850Y-119147867D01*
X391102133Y-119350150D01*
X391280496Y-119573810D01*
X391432695Y-119816033D01*
X391556817Y-120073775D01*
X391651300Y-120343793D01*
X391714957Y-120622692D01*
X391746987Y-120906964D01*
X391746987Y-121193036D01*
X391714957Y-121477308D01*
X391651300Y-121756207D01*
X391556817Y-122026225D01*
X391432695Y-122283967D01*
X391280496Y-122526190D01*
X391102133Y-122749850D01*
X390899850Y-122952133D01*
X390676190Y-123130496D01*
X390433967Y-123282695D01*
X390176225Y-123406817D01*
X389906207Y-123501300D01*
X389627308Y-123564957D01*
X389343036Y-123596987D01*
X389056964Y-123596987D01*
X388772692Y-123564957D01*
X388493793Y-123501300D01*
X388223775Y-123406817D01*
X387966033Y-123282695D01*
X387723810Y-123130496D01*
X387500150Y-122952133D01*
X387297867Y-122749850D01*
X387119504Y-122526190D01*
X386967305Y-122283967D01*
X386843183Y-122026225D01*
X386748700Y-121756207D01*
X386685043Y-121477308D01*
X386653013Y-121193036D01*
X386653013Y-120906964D01*
X386685043Y-120622692D01*
X386748700Y-120343793D01*
X386843183Y-120073775D01*
X386967305Y-119816033D01*
X387119504Y-119573810D01*
X387297867Y-119350150D01*
X387500150Y-119147867D01*
X387723810Y-118969504D01*
X387966033Y-118817305D01*
X388223775Y-118693183D01*
X388493793Y-118598700D01*
X388772692Y-118535043D01*
X389056964Y-118503013D01*
X389343036Y-118503013D01*
X389627308Y-118535043D01*
G37*
G36*
X379227814Y-120003095D02*
G01*
X379390996Y-120070687D01*
X379537856Y-120168816D01*
X379662750Y-120293710D01*
X379760879Y-120440570D01*
X379828471Y-120603752D01*
X379862929Y-120776985D01*
X379862929Y-120953611D01*
X379828471Y-121126844D01*
X379760879Y-121290026D01*
X379662750Y-121436886D01*
X379537856Y-121561780D01*
X379390996Y-121659909D01*
X379227814Y-121727501D01*
X379054581Y-121761959D01*
X378877955Y-121761959D01*
X378704722Y-121727501D01*
X378541540Y-121659909D01*
X378394680Y-121561780D01*
X378269786Y-121436886D01*
X378171657Y-121290026D01*
X378104065Y-121126844D01*
X378069607Y-120953611D01*
X378069607Y-120776985D01*
X378104065Y-120603752D01*
X378171657Y-120440570D01*
X378269786Y-120293710D01*
X378394680Y-120168816D01*
X378541540Y-120070687D01*
X378704722Y-120003095D01*
X378877955Y-119968637D01*
X379054581Y-119968637D01*
X379227814Y-120003095D01*
G37*
G36*
X441703482Y-117578781D02*
G01*
X441714690Y-117578781D01*
X441769888Y-117587523D01*
X441895534Y-117604065D01*
X441926189Y-117612279D01*
X441955074Y-117616854D01*
X442010620Y-117634902D01*
X442091467Y-117656565D01*
X442143050Y-117677931D01*
X442186542Y-117692063D01*
X442227286Y-117712823D01*
X442278870Y-117734190D01*
X442351353Y-117776038D01*
X442403395Y-117802555D01*
X442427055Y-117819745D01*
X442454539Y-117835613D01*
X442555074Y-117912756D01*
X442600294Y-117945610D01*
X442608219Y-117953535D01*
X442615466Y-117959096D01*
X442758903Y-118102533D01*
X442764463Y-118109779D01*
X442772390Y-118117706D01*
X442805247Y-118162930D01*
X442882386Y-118263460D01*
X442898252Y-118290941D01*
X442915445Y-118314605D01*
X442941964Y-118366652D01*
X442983809Y-118439129D01*
X443005173Y-118490706D01*
X443025937Y-118531458D01*
X443040070Y-118574955D01*
X443061434Y-118626532D01*
X443083093Y-118707366D01*
X443101146Y-118762926D01*
X443105721Y-118791816D01*
X443113934Y-118822465D01*
X443130474Y-118948099D01*
X443139219Y-119003310D01*
X443139219Y-119014518D01*
X443140412Y-119023580D01*
X443140412Y-119226419D01*
X443139219Y-119235480D01*
X443139219Y-119246690D01*
X443130473Y-119301905D01*
X443113934Y-119427534D01*
X443105722Y-119458180D01*
X443101146Y-119487074D01*
X443083091Y-119542638D01*
X443061434Y-119623467D01*
X443040071Y-119675039D01*
X443025937Y-119718542D01*
X443005171Y-119759297D01*
X442983809Y-119810870D01*
X442941968Y-119883338D01*
X442915445Y-119935395D01*
X442898249Y-119959062D01*
X442882386Y-119986539D01*
X442805261Y-120087050D01*
X442772390Y-120132294D01*
X442764459Y-120140224D01*
X442758903Y-120147466D01*
X442615466Y-120290903D01*
X442608224Y-120296459D01*
X442600294Y-120304390D01*
X442555050Y-120337261D01*
X442454539Y-120414386D01*
X442427062Y-120430249D01*
X442403395Y-120447445D01*
X442351338Y-120473968D01*
X442278870Y-120515809D01*
X442227297Y-120537171D01*
X442186542Y-120557937D01*
X442143039Y-120572071D01*
X442091467Y-120593434D01*
X442010638Y-120615091D01*
X441955074Y-120633146D01*
X441926180Y-120637722D01*
X441895534Y-120645934D01*
X441769902Y-120662474D01*
X441714690Y-120671219D01*
X441703481Y-120671219D01*
X441694420Y-120672412D01*
X441491580Y-120672412D01*
X441482519Y-120671219D01*
X441471310Y-120671219D01*
X441416099Y-120662474D01*
X441290465Y-120645934D01*
X441259816Y-120637721D01*
X441230926Y-120633146D01*
X441175366Y-120615093D01*
X441094532Y-120593434D01*
X441042955Y-120572070D01*
X440999458Y-120557937D01*
X440958706Y-120537173D01*
X440907129Y-120515809D01*
X440834652Y-120473964D01*
X440782605Y-120447445D01*
X440758941Y-120430252D01*
X440731460Y-120414386D01*
X440630930Y-120337247D01*
X440585706Y-120304390D01*
X440577779Y-120296463D01*
X440570533Y-120290903D01*
X440427096Y-120147466D01*
X440421535Y-120140219D01*
X440413610Y-120132294D01*
X440380756Y-120087074D01*
X440303613Y-119986539D01*
X440287745Y-119959055D01*
X440270555Y-119935395D01*
X440244038Y-119883353D01*
X440202190Y-119810870D01*
X440180823Y-119759286D01*
X440160063Y-119718542D01*
X440145931Y-119675050D01*
X440124565Y-119623467D01*
X440102902Y-119542620D01*
X440084854Y-119487074D01*
X440080279Y-119458189D01*
X440072065Y-119427534D01*
X440055524Y-119301891D01*
X440046781Y-119246690D01*
X440046781Y-119235480D01*
X440045588Y-119226419D01*
X440045588Y-119023580D01*
X440046781Y-119014518D01*
X440046781Y-119003310D01*
X440055523Y-118948113D01*
X440072065Y-118822465D01*
X440080279Y-118791807D01*
X440084854Y-118762926D01*
X440102900Y-118707383D01*
X440124565Y-118626532D01*
X440145933Y-118574944D01*
X440160063Y-118531458D01*
X440180821Y-118490717D01*
X440202190Y-118439129D01*
X440244042Y-118366637D01*
X440270555Y-118314605D01*
X440287742Y-118290948D01*
X440303613Y-118263460D01*
X440380770Y-118162906D01*
X440413610Y-118117706D01*
X440421532Y-118109783D01*
X440427096Y-118102533D01*
X440570533Y-117959096D01*
X440577783Y-117953532D01*
X440585706Y-117945610D01*
X440630906Y-117912770D01*
X440731460Y-117835613D01*
X440758948Y-117819742D01*
X440782605Y-117802555D01*
X440834637Y-117776042D01*
X440907129Y-117734190D01*
X440958717Y-117712821D01*
X440999458Y-117692063D01*
X441042944Y-117677933D01*
X441094532Y-117656565D01*
X441175383Y-117634900D01*
X441230926Y-117616854D01*
X441259807Y-117612279D01*
X441290465Y-117604065D01*
X441416113Y-117587523D01*
X441471310Y-117578781D01*
X441482518Y-117578781D01*
X441491580Y-117577588D01*
X441694420Y-117577588D01*
X441703482Y-117578781D01*
G37*
G36*
X438104808Y-118761936D02*
G01*
X438268153Y-118829595D01*
X438415159Y-118927822D01*
X438540178Y-119052841D01*
X438638405Y-119199847D01*
X438706064Y-119363192D01*
X438740557Y-119536598D01*
X438740557Y-119713402D01*
X438706064Y-119886808D01*
X438638405Y-120050153D01*
X438540178Y-120197159D01*
X438415159Y-120322178D01*
X438268153Y-120420405D01*
X438104808Y-120488064D01*
X437931402Y-120522557D01*
X437754598Y-120522557D01*
X437581192Y-120488064D01*
X437417847Y-120420405D01*
X437270841Y-120322178D01*
X437145822Y-120197159D01*
X437047595Y-120050153D01*
X436979936Y-119886808D01*
X436945443Y-119713402D01*
X436945443Y-119536598D01*
X436979936Y-119363192D01*
X437047595Y-119199847D01*
X437145822Y-119052841D01*
X437270841Y-118927822D01*
X437417847Y-118829595D01*
X437581192Y-118761936D01*
X437754598Y-118727443D01*
X437931402Y-118727443D01*
X438104808Y-118761936D01*
G37*
G36*
X377595135Y-118057343D02*
G01*
X377758317Y-118124935D01*
X377905177Y-118223064D01*
X378030071Y-118347958D01*
X378128200Y-118494818D01*
X378195792Y-118658000D01*
X378230250Y-118831233D01*
X378230250Y-119007859D01*
X378195792Y-119181092D01*
X378128200Y-119344274D01*
X378030071Y-119491134D01*
X377905177Y-119616028D01*
X377758317Y-119714157D01*
X377595135Y-119781749D01*
X377421902Y-119816207D01*
X377245276Y-119816207D01*
X377072043Y-119781749D01*
X376908861Y-119714157D01*
X376762001Y-119616028D01*
X376637107Y-119491134D01*
X376538978Y-119344274D01*
X376471386Y-119181092D01*
X376436928Y-119007859D01*
X376436928Y-118831233D01*
X376471386Y-118658000D01*
X376538978Y-118494818D01*
X376637107Y-118347958D01*
X376762001Y-118223064D01*
X376908861Y-118124935D01*
X377072043Y-118057343D01*
X377245276Y-118022885D01*
X377421902Y-118022885D01*
X377595135Y-118057343D01*
G37*
G36*
X375962453Y-116111589D02*
G01*
X376125635Y-116179181D01*
X376272495Y-116277310D01*
X376397389Y-116402204D01*
X376495518Y-116549064D01*
X376563110Y-116712246D01*
X376597568Y-116885479D01*
X376597568Y-117062105D01*
X376563110Y-117235338D01*
X376495518Y-117398520D01*
X376397389Y-117545380D01*
X376272495Y-117670274D01*
X376125635Y-117768403D01*
X375962453Y-117835995D01*
X375789220Y-117870453D01*
X375612594Y-117870453D01*
X375439361Y-117835995D01*
X375276179Y-117768403D01*
X375129319Y-117670274D01*
X375004425Y-117545380D01*
X374906296Y-117398520D01*
X374838704Y-117235338D01*
X374804246Y-117062105D01*
X374804246Y-116885479D01*
X374838704Y-116712246D01*
X374906296Y-116549064D01*
X375004425Y-116402204D01*
X375129319Y-116277310D01*
X375276179Y-116179181D01*
X375439361Y-116111589D01*
X375612594Y-116077131D01*
X375789220Y-116077131D01*
X375962453Y-116111589D01*
G37*
G36*
X438187432Y-112393424D02*
G01*
X438410501Y-112453195D01*
X438623861Y-112541571D01*
X438823859Y-112657040D01*
X439007075Y-112797627D01*
X439170373Y-112960925D01*
X439310960Y-113144141D01*
X439426429Y-113344139D01*
X439514805Y-113557499D01*
X439574576Y-113780568D01*
X439604720Y-114009531D01*
X439604720Y-114240469D01*
X439574576Y-114469432D01*
X439514805Y-114692501D01*
X439426429Y-114905861D01*
X439310960Y-115105859D01*
X439170373Y-115289075D01*
X439007075Y-115452373D01*
X438823859Y-115592960D01*
X438623861Y-115708429D01*
X438410501Y-115796805D01*
X438187432Y-115856576D01*
X437958469Y-115886720D01*
X437727531Y-115886720D01*
X437498568Y-115856576D01*
X437275499Y-115796805D01*
X437062139Y-115708429D01*
X436862141Y-115592960D01*
X436678925Y-115452373D01*
X436515627Y-115289075D01*
X436375040Y-115105859D01*
X436259571Y-114905861D01*
X436171195Y-114692501D01*
X436111424Y-114469432D01*
X436081280Y-114240469D01*
X436081280Y-114009531D01*
X436111424Y-113780568D01*
X436171195Y-113557499D01*
X436259571Y-113344139D01*
X436375040Y-113144141D01*
X436515627Y-112960925D01*
X436678925Y-112797627D01*
X436862141Y-112657040D01*
X437062139Y-112541571D01*
X437275499Y-112453195D01*
X437498568Y-112393424D01*
X437727531Y-112363280D01*
X437958469Y-112363280D01*
X438187432Y-112393424D01*
G37*
G36*
X443903482Y-112578781D02*
G01*
X443914690Y-112578781D01*
X443969888Y-112587523D01*
X444095534Y-112604065D01*
X444126189Y-112612279D01*
X444155074Y-112616854D01*
X444210620Y-112634902D01*
X444291467Y-112656565D01*
X444343050Y-112677931D01*
X444386542Y-112692063D01*
X444427286Y-112712823D01*
X444478870Y-112734190D01*
X444551353Y-112776038D01*
X444603395Y-112802555D01*
X444627055Y-112819745D01*
X444654539Y-112835613D01*
X444755074Y-112912756D01*
X444800294Y-112945610D01*
X444808219Y-112953535D01*
X444815466Y-112959096D01*
X444958903Y-113102533D01*
X444964463Y-113109779D01*
X444972390Y-113117706D01*
X445005247Y-113162930D01*
X445082386Y-113263460D01*
X445098252Y-113290941D01*
X445115445Y-113314605D01*
X445141964Y-113366652D01*
X445183809Y-113439129D01*
X445205173Y-113490706D01*
X445225937Y-113531458D01*
X445240070Y-113574955D01*
X445261434Y-113626532D01*
X445283093Y-113707366D01*
X445301146Y-113762926D01*
X445305721Y-113791816D01*
X445313934Y-113822465D01*
X445330474Y-113948099D01*
X445339219Y-114003310D01*
X445339219Y-114014518D01*
X445340412Y-114023580D01*
X445340412Y-114226419D01*
X445339219Y-114235480D01*
X445339219Y-114246690D01*
X445330473Y-114301905D01*
X445313934Y-114427534D01*
X445305722Y-114458180D01*
X445301146Y-114487074D01*
X445283091Y-114542638D01*
X445261434Y-114623467D01*
X445240071Y-114675039D01*
X445225937Y-114718542D01*
X445205171Y-114759297D01*
X445183809Y-114810870D01*
X445141968Y-114883338D01*
X445115445Y-114935395D01*
X445098249Y-114959062D01*
X445082386Y-114986539D01*
X445005261Y-115087050D01*
X444972390Y-115132294D01*
X444964459Y-115140224D01*
X444958903Y-115147466D01*
X444815466Y-115290903D01*
X444808224Y-115296459D01*
X444800294Y-115304390D01*
X444755050Y-115337261D01*
X444654539Y-115414386D01*
X444627062Y-115430249D01*
X444603395Y-115447445D01*
X444551338Y-115473968D01*
X444478870Y-115515809D01*
X444427297Y-115537171D01*
X444386542Y-115557937D01*
X444343039Y-115572071D01*
X444291467Y-115593434D01*
X444210638Y-115615091D01*
X444155074Y-115633146D01*
X444126180Y-115637722D01*
X444095534Y-115645934D01*
X443969902Y-115662474D01*
X443914690Y-115671219D01*
X443903481Y-115671219D01*
X443894420Y-115672412D01*
X443691580Y-115672412D01*
X443682519Y-115671219D01*
X443671310Y-115671219D01*
X443616099Y-115662474D01*
X443490465Y-115645934D01*
X443459816Y-115637721D01*
X443430926Y-115633146D01*
X443375366Y-115615093D01*
X443294532Y-115593434D01*
X443242955Y-115572070D01*
X443199458Y-115557937D01*
X443158706Y-115537173D01*
X443107129Y-115515809D01*
X443034652Y-115473964D01*
X442982605Y-115447445D01*
X442958941Y-115430252D01*
X442931460Y-115414386D01*
X442830930Y-115337247D01*
X442785706Y-115304390D01*
X442777779Y-115296463D01*
X442770533Y-115290903D01*
X442627096Y-115147466D01*
X442621535Y-115140219D01*
X442613610Y-115132294D01*
X442580756Y-115087074D01*
X442503613Y-114986539D01*
X442487745Y-114959055D01*
X442470555Y-114935395D01*
X442444038Y-114883353D01*
X442402190Y-114810870D01*
X442380823Y-114759286D01*
X442360063Y-114718542D01*
X442345931Y-114675050D01*
X442324565Y-114623467D01*
X442302902Y-114542620D01*
X442284854Y-114487074D01*
X442280279Y-114458189D01*
X442272065Y-114427534D01*
X442255524Y-114301891D01*
X442246781Y-114246690D01*
X442246781Y-114235480D01*
X442245588Y-114226419D01*
X442245588Y-114023580D01*
X442246781Y-114014518D01*
X442246781Y-114003310D01*
X442255523Y-113948113D01*
X442272065Y-113822465D01*
X442280279Y-113791807D01*
X442284854Y-113762926D01*
X442302900Y-113707383D01*
X442324565Y-113626532D01*
X442345933Y-113574944D01*
X442360063Y-113531458D01*
X442380821Y-113490717D01*
X442402190Y-113439129D01*
X442444042Y-113366637D01*
X442470555Y-113314605D01*
X442487742Y-113290948D01*
X442503613Y-113263460D01*
X442580770Y-113162906D01*
X442613610Y-113117706D01*
X442621532Y-113109783D01*
X442627096Y-113102533D01*
X442770533Y-112959096D01*
X442777783Y-112953532D01*
X442785706Y-112945610D01*
X442830906Y-112912770D01*
X442931460Y-112835613D01*
X442958948Y-112819742D01*
X442982605Y-112802555D01*
X443034637Y-112776042D01*
X443107129Y-112734190D01*
X443158717Y-112712821D01*
X443199458Y-112692063D01*
X443242944Y-112677933D01*
X443294532Y-112656565D01*
X443375383Y-112634900D01*
X443430926Y-112616854D01*
X443459807Y-112612279D01*
X443490465Y-112604065D01*
X443616113Y-112587523D01*
X443671310Y-112578781D01*
X443682518Y-112578781D01*
X443691580Y-112577588D01*
X443894420Y-112577588D01*
X443903482Y-112578781D01*
G37*
G36*
X445112517Y-109502882D02*
G01*
X445129062Y-109513938D01*
X445140118Y-109530483D01*
X445144000Y-109550000D01*
X445144000Y-112150000D01*
X445140118Y-112169517D01*
X445129062Y-112186062D01*
X445112517Y-112197118D01*
X445093000Y-112201000D01*
X442493000Y-112201000D01*
X442473483Y-112197118D01*
X442456938Y-112186062D01*
X442445882Y-112169517D01*
X442442000Y-112150000D01*
X442442000Y-109550000D01*
X442445882Y-109530483D01*
X442456938Y-109513938D01*
X442473483Y-109502882D01*
X442493000Y-109499000D01*
X445093000Y-109499000D01*
X445112517Y-109502882D01*
G37*
G36*
X438104808Y-107761936D02*
G01*
X438268153Y-107829595D01*
X438415159Y-107927822D01*
X438540178Y-108052841D01*
X438638405Y-108199847D01*
X438706064Y-108363192D01*
X438740557Y-108536598D01*
X438740557Y-108713402D01*
X438706064Y-108886808D01*
X438638405Y-109050153D01*
X438540178Y-109197159D01*
X438415159Y-109322178D01*
X438268153Y-109420405D01*
X438104808Y-109488064D01*
X437931402Y-109522557D01*
X437754598Y-109522557D01*
X437581192Y-109488064D01*
X437417847Y-109420405D01*
X437270841Y-109322178D01*
X437145822Y-109197159D01*
X437047595Y-109050153D01*
X436979936Y-108886808D01*
X436945443Y-108713402D01*
X436945443Y-108536598D01*
X436979936Y-108363192D01*
X437047595Y-108199847D01*
X437145822Y-108052841D01*
X437270841Y-107927822D01*
X437417847Y-107829595D01*
X437581192Y-107761936D01*
X437754598Y-107727443D01*
X437931402Y-107727443D01*
X438104808Y-107761936D01*
G37*
G36*
X437986546Y-104572797D02*
G01*
X438149728Y-104640389D01*
X438296588Y-104738518D01*
X438421482Y-104863412D01*
X438519611Y-105010272D01*
X438587203Y-105173454D01*
X438621661Y-105346687D01*
X438621661Y-105523313D01*
X438587203Y-105696546D01*
X438519611Y-105859728D01*
X438421482Y-106006588D01*
X438296588Y-106131482D01*
X438149728Y-106229611D01*
X437986546Y-106297203D01*
X437813313Y-106331661D01*
X437636687Y-106331661D01*
X437463454Y-106297203D01*
X437300272Y-106229611D01*
X437153412Y-106131482D01*
X437028518Y-106006588D01*
X436930389Y-105859728D01*
X436862797Y-105696546D01*
X436828339Y-105523313D01*
X436828339Y-105346687D01*
X436862797Y-105173454D01*
X436930389Y-105010272D01*
X437028518Y-104863412D01*
X437153412Y-104738518D01*
X437300272Y-104640389D01*
X437463454Y-104572797D01*
X437636687Y-104538339D01*
X437813313Y-104538339D01*
X437986546Y-104572797D01*
G37*
G36*
X378277308Y-99106489D02*
G01*
X378556207Y-99170146D01*
X378826225Y-99264629D01*
X379083967Y-99388751D01*
X379326190Y-99540950D01*
X379549850Y-99719313D01*
X379752133Y-99921596D01*
X379930496Y-100145256D01*
X380082695Y-100387479D01*
X380206817Y-100645221D01*
X380301300Y-100915239D01*
X380364957Y-101194138D01*
X380396987Y-101478410D01*
X380396987Y-101764482D01*
X380364957Y-102048754D01*
X380301300Y-102327653D01*
X380206817Y-102597671D01*
X380082695Y-102855413D01*
X379930496Y-103097636D01*
X379752133Y-103321296D01*
X379549850Y-103523579D01*
X379326190Y-103701942D01*
X379083967Y-103854141D01*
X378826225Y-103978263D01*
X378556207Y-104072746D01*
X378277308Y-104136403D01*
X377993036Y-104168433D01*
X377706964Y-104168433D01*
X377422692Y-104136403D01*
X377143793Y-104072746D01*
X376873775Y-103978263D01*
X376616033Y-103854141D01*
X376373810Y-103701942D01*
X376150150Y-103523579D01*
X375947867Y-103321296D01*
X375769504Y-103097636D01*
X375617305Y-102855413D01*
X375493183Y-102597671D01*
X375398700Y-102327653D01*
X375335043Y-102048754D01*
X375303013Y-101764482D01*
X375303013Y-101478410D01*
X375335043Y-101194138D01*
X375398700Y-100915239D01*
X375493183Y-100645221D01*
X375617305Y-100387479D01*
X375769504Y-100145256D01*
X375947867Y-99921596D01*
X376150150Y-99719313D01*
X376373810Y-99540950D01*
X376616033Y-99388751D01*
X376873775Y-99264629D01*
X377143793Y-99170146D01*
X377422692Y-99106489D01*
X377706964Y-99074459D01*
X377993036Y-99074459D01*
X378277308Y-99106489D01*
G37*
G36*
X423427308Y-99085043D02*
G01*
X423706207Y-99148700D01*
X423976225Y-99243183D01*
X424233967Y-99367305D01*
X424476190Y-99519504D01*
X424699850Y-99697867D01*
X424902133Y-99900150D01*
X425080496Y-100123810D01*
X425232695Y-100366033D01*
X425356817Y-100623775D01*
X425451300Y-100893793D01*
X425514957Y-101172692D01*
X425546987Y-101456964D01*
X425546987Y-101743036D01*
X425514957Y-102027308D01*
X425451300Y-102306207D01*
X425356817Y-102576225D01*
X425232695Y-102833967D01*
X425080496Y-103076190D01*
X424902133Y-103299850D01*
X424699850Y-103502133D01*
X424476190Y-103680496D01*
X424233967Y-103832695D01*
X423976225Y-103956817D01*
X423706207Y-104051300D01*
X423427308Y-104114957D01*
X423143036Y-104146987D01*
X422856964Y-104146987D01*
X422572692Y-104114957D01*
X422293793Y-104051300D01*
X422023775Y-103956817D01*
X421766033Y-103832695D01*
X421523810Y-103680496D01*
X421300150Y-103502133D01*
X421097867Y-103299850D01*
X420919504Y-103076190D01*
X420767305Y-102833967D01*
X420643183Y-102576225D01*
X420548700Y-102306207D01*
X420485043Y-102027308D01*
X420453013Y-101743036D01*
X420453013Y-101456964D01*
X420485043Y-101172692D01*
X420548700Y-100893793D01*
X420643183Y-100623775D01*
X420767305Y-100366033D01*
X420919504Y-100123810D01*
X421097867Y-99900150D01*
X421300150Y-99697867D01*
X421523810Y-99519504D01*
X421766033Y-99367305D01*
X422023775Y-99243183D01*
X422293793Y-99148700D01*
X422572692Y-99085043D01*
X422856964Y-99053013D01*
X423143036Y-99053013D01*
X423427308Y-99085043D01*
G37*
G36*
X437986546Y-102032797D02*
G01*
X438149728Y-102100389D01*
X438296588Y-102198518D01*
X438421482Y-102323412D01*
X438519611Y-102470272D01*
X438587203Y-102633454D01*
X438621661Y-102806687D01*
X438621661Y-102983313D01*
X438587203Y-103156546D01*
X438519611Y-103319728D01*
X438421482Y-103466588D01*
X438296588Y-103591482D01*
X438149728Y-103689611D01*
X437986546Y-103757203D01*
X437813313Y-103791661D01*
X437636687Y-103791661D01*
X437463454Y-103757203D01*
X437300272Y-103689611D01*
X437153412Y-103591482D01*
X437028518Y-103466588D01*
X436930389Y-103319728D01*
X436862797Y-103156546D01*
X436828339Y-102983313D01*
X436828339Y-102806687D01*
X436862797Y-102633454D01*
X436930389Y-102470272D01*
X437028518Y-102323412D01*
X437153412Y-102198518D01*
X437300272Y-102100389D01*
X437463454Y-102032797D01*
X437636687Y-101998339D01*
X437813313Y-101998339D01*
X437986546Y-102032797D01*
G37*
G36*
X437986546Y-99492797D02*
G01*
X438149728Y-99560389D01*
X438296588Y-99658518D01*
X438421482Y-99783412D01*
X438519611Y-99930272D01*
X438587203Y-100093454D01*
X438621661Y-100266687D01*
X438621661Y-100443313D01*
X438587203Y-100616546D01*
X438519611Y-100779728D01*
X438421482Y-100926588D01*
X438296588Y-101051482D01*
X438149728Y-101149611D01*
X437986546Y-101217203D01*
X437813313Y-101251661D01*
X437636687Y-101251661D01*
X437463454Y-101217203D01*
X437300272Y-101149611D01*
X437153412Y-101051482D01*
X437028518Y-100926588D01*
X436930389Y-100779728D01*
X436862797Y-100616546D01*
X436828339Y-100443313D01*
X436828339Y-100266687D01*
X436862797Y-100093454D01*
X436930389Y-99930272D01*
X437028518Y-99783412D01*
X437153412Y-99658518D01*
X437300272Y-99560389D01*
X437463454Y-99492797D01*
X437636687Y-99458339D01*
X437813313Y-99458339D01*
X437986546Y-99492797D01*
G37*
G36*
X442912517Y-96052882D02*
G01*
X442929062Y-96063938D01*
X442940118Y-96080483D01*
X442944000Y-96100000D01*
X442944000Y-98700000D01*
X442940118Y-98719517D01*
X442929062Y-98736062D01*
X442912517Y-98747118D01*
X442893000Y-98751000D01*
X440293000Y-98751000D01*
X440273483Y-98747118D01*
X440256938Y-98736062D01*
X440245882Y-98719517D01*
X440242000Y-98700000D01*
X440242000Y-96100000D01*
X440245882Y-96080483D01*
X440256938Y-96063938D01*
X440273483Y-96052882D01*
X440293000Y-96049000D01*
X442893000Y-96049000D01*
X442912517Y-96052882D01*
G37*
G36*
X438594517Y-96917882D02*
G01*
X438611062Y-96928938D01*
X438622118Y-96945483D01*
X438626000Y-96965000D01*
X438626000Y-98665000D01*
X438622118Y-98684517D01*
X438611062Y-98701062D01*
X438594517Y-98712118D01*
X438575000Y-98716000D01*
X436875000Y-98716000D01*
X436855483Y-98712118D01*
X436838938Y-98701062D01*
X436827882Y-98684517D01*
X436824000Y-98665000D01*
X436824000Y-96965000D01*
X436827882Y-96945483D01*
X436838938Y-96928938D01*
X436855483Y-96917882D01*
X436875000Y-96914000D01*
X438575000Y-96914000D01*
X438594517Y-96917882D01*
G37*
G36*
X441703482Y-92578781D02*
G01*
X441714690Y-92578781D01*
X441769888Y-92587523D01*
X441895534Y-92604065D01*
X441926189Y-92612279D01*
X441955074Y-92616854D01*
X442010620Y-92634902D01*
X442091467Y-92656565D01*
X442143050Y-92677931D01*
X442186542Y-92692063D01*
X442227286Y-92712823D01*
X442278870Y-92734190D01*
X442351353Y-92776038D01*
X442403395Y-92802555D01*
X442427055Y-92819745D01*
X442454539Y-92835613D01*
X442555074Y-92912756D01*
X442600294Y-92945610D01*
X442608219Y-92953535D01*
X442615466Y-92959096D01*
X442758903Y-93102533D01*
X442764463Y-93109779D01*
X442772390Y-93117706D01*
X442805247Y-93162930D01*
X442882386Y-93263460D01*
X442898252Y-93290941D01*
X442915445Y-93314605D01*
X442941964Y-93366652D01*
X442983809Y-93439129D01*
X443005173Y-93490706D01*
X443025937Y-93531458D01*
X443040070Y-93574955D01*
X443061434Y-93626532D01*
X443083093Y-93707366D01*
X443101146Y-93762926D01*
X443105721Y-93791816D01*
X443113934Y-93822465D01*
X443130474Y-93948099D01*
X443139219Y-94003310D01*
X443139219Y-94014518D01*
X443140412Y-94023580D01*
X443140412Y-94226419D01*
X443139219Y-94235480D01*
X443139219Y-94246690D01*
X443130473Y-94301905D01*
X443113934Y-94427534D01*
X443105722Y-94458180D01*
X443101146Y-94487074D01*
X443083091Y-94542638D01*
X443061434Y-94623467D01*
X443040071Y-94675039D01*
X443025937Y-94718542D01*
X443005171Y-94759297D01*
X442983809Y-94810870D01*
X442941968Y-94883338D01*
X442915445Y-94935395D01*
X442898249Y-94959062D01*
X442882386Y-94986539D01*
X442805261Y-95087050D01*
X442772390Y-95132294D01*
X442764459Y-95140224D01*
X442758903Y-95147466D01*
X442615466Y-95290903D01*
X442608224Y-95296459D01*
X442600294Y-95304390D01*
X442555050Y-95337261D01*
X442454539Y-95414386D01*
X442427062Y-95430249D01*
X442403395Y-95447445D01*
X442351338Y-95473968D01*
X442278870Y-95515809D01*
X442227297Y-95537171D01*
X442186542Y-95557937D01*
X442143039Y-95572071D01*
X442091467Y-95593434D01*
X442010638Y-95615091D01*
X441955074Y-95633146D01*
X441926180Y-95637722D01*
X441895534Y-95645934D01*
X441769902Y-95662474D01*
X441714690Y-95671219D01*
X441703481Y-95671219D01*
X441694420Y-95672412D01*
X441491580Y-95672412D01*
X441482519Y-95671219D01*
X441471310Y-95671219D01*
X441416099Y-95662474D01*
X441290465Y-95645934D01*
X441259816Y-95637721D01*
X441230926Y-95633146D01*
X441175366Y-95615093D01*
X441094532Y-95593434D01*
X441042955Y-95572070D01*
X440999458Y-95557937D01*
X440958706Y-95537173D01*
X440907129Y-95515809D01*
X440834652Y-95473964D01*
X440782605Y-95447445D01*
X440758941Y-95430252D01*
X440731460Y-95414386D01*
X440630930Y-95337247D01*
X440585706Y-95304390D01*
X440577779Y-95296463D01*
X440570533Y-95290903D01*
X440427096Y-95147466D01*
X440421535Y-95140219D01*
X440413610Y-95132294D01*
X440380756Y-95087074D01*
X440303613Y-94986539D01*
X440287745Y-94959055D01*
X440270555Y-94935395D01*
X440244038Y-94883353D01*
X440202190Y-94810870D01*
X440180823Y-94759286D01*
X440160063Y-94718542D01*
X440145931Y-94675050D01*
X440124565Y-94623467D01*
X440102902Y-94542620D01*
X440084854Y-94487074D01*
X440080279Y-94458189D01*
X440072065Y-94427534D01*
X440055524Y-94301891D01*
X440046781Y-94246690D01*
X440046781Y-94235480D01*
X440045588Y-94226419D01*
X440045588Y-94023580D01*
X440046781Y-94014518D01*
X440046781Y-94003310D01*
X440055523Y-93948113D01*
X440072065Y-93822465D01*
X440080279Y-93791807D01*
X440084854Y-93762926D01*
X440102900Y-93707383D01*
X440124565Y-93626532D01*
X440145933Y-93574944D01*
X440160063Y-93531458D01*
X440180821Y-93490717D01*
X440202190Y-93439129D01*
X440244042Y-93366637D01*
X440270555Y-93314605D01*
X440287742Y-93290948D01*
X440303613Y-93263460D01*
X440380770Y-93162906D01*
X440413610Y-93117706D01*
X440421532Y-93109783D01*
X440427096Y-93102533D01*
X440570533Y-92959096D01*
X440577783Y-92953532D01*
X440585706Y-92945610D01*
X440630906Y-92912770D01*
X440731460Y-92835613D01*
X440758948Y-92819742D01*
X440782605Y-92802555D01*
X440834637Y-92776042D01*
X440907129Y-92734190D01*
X440958717Y-92712821D01*
X440999458Y-92692063D01*
X441042944Y-92677933D01*
X441094532Y-92656565D01*
X441175383Y-92634900D01*
X441230926Y-92616854D01*
X441259807Y-92612279D01*
X441290465Y-92604065D01*
X441416113Y-92587523D01*
X441471310Y-92578781D01*
X441482518Y-92578781D01*
X441491580Y-92577588D01*
X441694420Y-92577588D01*
X441703482Y-92578781D01*
G37*
G36*
X438104808Y-93761936D02*
G01*
X438268153Y-93829595D01*
X438415159Y-93927822D01*
X438540178Y-94052841D01*
X438638405Y-94199847D01*
X438706064Y-94363192D01*
X438740557Y-94536598D01*
X438740557Y-94713402D01*
X438706064Y-94886808D01*
X438638405Y-95050153D01*
X438540178Y-95197159D01*
X438415159Y-95322178D01*
X438268153Y-95420405D01*
X438104808Y-95488064D01*
X437931402Y-95522557D01*
X437754598Y-95522557D01*
X437581192Y-95488064D01*
X437417847Y-95420405D01*
X437270841Y-95322178D01*
X437145822Y-95197159D01*
X437047595Y-95050153D01*
X436979936Y-94886808D01*
X436945443Y-94713402D01*
X436945443Y-94536598D01*
X436979936Y-94363192D01*
X437047595Y-94199847D01*
X437145822Y-94052841D01*
X437270841Y-93927822D01*
X437417847Y-93829595D01*
X437581192Y-93761936D01*
X437754598Y-93727443D01*
X437931402Y-93727443D01*
X438104808Y-93761936D01*
G37*
G36*
X438187432Y-87393424D02*
G01*
X438410501Y-87453195D01*
X438623861Y-87541571D01*
X438823859Y-87657040D01*
X439007075Y-87797627D01*
X439170373Y-87960925D01*
X439310960Y-88144141D01*
X439426429Y-88344139D01*
X439514805Y-88557499D01*
X439574576Y-88780568D01*
X439604720Y-89009531D01*
X439604720Y-89240469D01*
X439574576Y-89469432D01*
X439514805Y-89692501D01*
X439426429Y-89905861D01*
X439310960Y-90105859D01*
X439170373Y-90289075D01*
X439007075Y-90452373D01*
X438823859Y-90592960D01*
X438623861Y-90708429D01*
X438410501Y-90796805D01*
X438187432Y-90856576D01*
X437958469Y-90886720D01*
X437727531Y-90886720D01*
X437498568Y-90856576D01*
X437275499Y-90796805D01*
X437062139Y-90708429D01*
X436862141Y-90592960D01*
X436678925Y-90452373D01*
X436515627Y-90289075D01*
X436375040Y-90105859D01*
X436259571Y-89905861D01*
X436171195Y-89692501D01*
X436111424Y-89469432D01*
X436081280Y-89240469D01*
X436081280Y-89009531D01*
X436111424Y-88780568D01*
X436171195Y-88557499D01*
X436259571Y-88344139D01*
X436375040Y-88144141D01*
X436515627Y-87960925D01*
X436678925Y-87797627D01*
X436862141Y-87657040D01*
X437062139Y-87541571D01*
X437275499Y-87453195D01*
X437498568Y-87393424D01*
X437727531Y-87363280D01*
X437958469Y-87363280D01*
X438187432Y-87393424D01*
G37*
G36*
X443903482Y-87578781D02*
G01*
X443914690Y-87578781D01*
X443969888Y-87587523D01*
X444095534Y-87604065D01*
X444126189Y-87612279D01*
X444155074Y-87616854D01*
X444210620Y-87634902D01*
X444291467Y-87656565D01*
X444343050Y-87677931D01*
X444386542Y-87692063D01*
X444427286Y-87712823D01*
X444478870Y-87734190D01*
X444551353Y-87776038D01*
X444603395Y-87802555D01*
X444627055Y-87819745D01*
X444654539Y-87835613D01*
X444755074Y-87912756D01*
X444800294Y-87945610D01*
X444808219Y-87953535D01*
X444815466Y-87959096D01*
X444958903Y-88102533D01*
X444964463Y-88109779D01*
X444972390Y-88117706D01*
X445005247Y-88162930D01*
X445082386Y-88263460D01*
X445098252Y-88290941D01*
X445115445Y-88314605D01*
X445141964Y-88366652D01*
X445183809Y-88439129D01*
X445205173Y-88490706D01*
X445225937Y-88531458D01*
X445240070Y-88574955D01*
X445261434Y-88626532D01*
X445283093Y-88707366D01*
X445301146Y-88762926D01*
X445305721Y-88791816D01*
X445313934Y-88822465D01*
X445330474Y-88948099D01*
X445339219Y-89003310D01*
X445339219Y-89014518D01*
X445340412Y-89023580D01*
X445340412Y-89226419D01*
X445339219Y-89235480D01*
X445339219Y-89246690D01*
X445330473Y-89301905D01*
X445313934Y-89427534D01*
X445305722Y-89458180D01*
X445301146Y-89487074D01*
X445283091Y-89542638D01*
X445261434Y-89623467D01*
X445240071Y-89675039D01*
X445225937Y-89718542D01*
X445205171Y-89759297D01*
X445183809Y-89810870D01*
X445141968Y-89883338D01*
X445115445Y-89935395D01*
X445098249Y-89959062D01*
X445082386Y-89986539D01*
X445005261Y-90087050D01*
X444972390Y-90132294D01*
X444964459Y-90140224D01*
X444958903Y-90147466D01*
X444815466Y-90290903D01*
X444808224Y-90296459D01*
X444800294Y-90304390D01*
X444755050Y-90337261D01*
X444654539Y-90414386D01*
X444627062Y-90430249D01*
X444603395Y-90447445D01*
X444551338Y-90473968D01*
X444478870Y-90515809D01*
X444427297Y-90537171D01*
X444386542Y-90557937D01*
X444343039Y-90572071D01*
X444291467Y-90593434D01*
X444210638Y-90615091D01*
X444155074Y-90633146D01*
X444126180Y-90637722D01*
X444095534Y-90645934D01*
X443969902Y-90662474D01*
X443914690Y-90671219D01*
X443903481Y-90671219D01*
X443894420Y-90672412D01*
X443691580Y-90672412D01*
X443682519Y-90671219D01*
X443671310Y-90671219D01*
X443616099Y-90662474D01*
X443490465Y-90645934D01*
X443459816Y-90637721D01*
X443430926Y-90633146D01*
X443375366Y-90615093D01*
X443294532Y-90593434D01*
X443242955Y-90572070D01*
X443199458Y-90557937D01*
X443158706Y-90537173D01*
X443107129Y-90515809D01*
X443034652Y-90473964D01*
X442982605Y-90447445D01*
X442958941Y-90430252D01*
X442931460Y-90414386D01*
X442830930Y-90337247D01*
X442785706Y-90304390D01*
X442777779Y-90296463D01*
X442770533Y-90290903D01*
X442627096Y-90147466D01*
X442621535Y-90140219D01*
X442613610Y-90132294D01*
X442580756Y-90087074D01*
X442503613Y-89986539D01*
X442487745Y-89959055D01*
X442470555Y-89935395D01*
X442444038Y-89883353D01*
X442402190Y-89810870D01*
X442380823Y-89759286D01*
X442360063Y-89718542D01*
X442345931Y-89675050D01*
X442324565Y-89623467D01*
X442302902Y-89542620D01*
X442284854Y-89487074D01*
X442280279Y-89458189D01*
X442272065Y-89427534D01*
X442255524Y-89301891D01*
X442246781Y-89246690D01*
X442246781Y-89235480D01*
X442245588Y-89226419D01*
X442245588Y-89023580D01*
X442246781Y-89014518D01*
X442246781Y-89003310D01*
X442255523Y-88948113D01*
X442272065Y-88822465D01*
X442280279Y-88791807D01*
X442284854Y-88762926D01*
X442302900Y-88707383D01*
X442324565Y-88626532D01*
X442345933Y-88574944D01*
X442360063Y-88531458D01*
X442380821Y-88490717D01*
X442402190Y-88439129D01*
X442444042Y-88366637D01*
X442470555Y-88314605D01*
X442487742Y-88290948D01*
X442503613Y-88263460D01*
X442580770Y-88162906D01*
X442613610Y-88117706D01*
X442621532Y-88109783D01*
X442627096Y-88102533D01*
X442770533Y-87959096D01*
X442777783Y-87953532D01*
X442785706Y-87945610D01*
X442830906Y-87912770D01*
X442931460Y-87835613D01*
X442958948Y-87819742D01*
X442982605Y-87802555D01*
X443034637Y-87776042D01*
X443107129Y-87734190D01*
X443158717Y-87712821D01*
X443199458Y-87692063D01*
X443242944Y-87677933D01*
X443294532Y-87656565D01*
X443375383Y-87634900D01*
X443430926Y-87616854D01*
X443459807Y-87612279D01*
X443490465Y-87604065D01*
X443616113Y-87587523D01*
X443671310Y-87578781D01*
X443682518Y-87578781D01*
X443691580Y-87577588D01*
X443894420Y-87577588D01*
X443903482Y-87578781D01*
G37*
G36*
X445112517Y-84502882D02*
G01*
X445129062Y-84513938D01*
X445140118Y-84530483D01*
X445144000Y-84550000D01*
X445144000Y-87150000D01*
X445140118Y-87169517D01*
X445129062Y-87186062D01*
X445112517Y-87197118D01*
X445093000Y-87201000D01*
X442493000Y-87201000D01*
X442473483Y-87197118D01*
X442456938Y-87186062D01*
X442445882Y-87169517D01*
X442442000Y-87150000D01*
X442442000Y-84550000D01*
X442445882Y-84530483D01*
X442456938Y-84513938D01*
X442473483Y-84502882D01*
X442493000Y-84499000D01*
X445093000Y-84499000D01*
X445112517Y-84502882D01*
G37*
G36*
X375962453Y-85424005D02*
G01*
X376125635Y-85491597D01*
X376272495Y-85589726D01*
X376397389Y-85714620D01*
X376495518Y-85861480D01*
X376563110Y-86024662D01*
X376597568Y-86197895D01*
X376597568Y-86374521D01*
X376563110Y-86547754D01*
X376495518Y-86710936D01*
X376397389Y-86857796D01*
X376272495Y-86982690D01*
X376125635Y-87080819D01*
X375962453Y-87148411D01*
X375789220Y-87182869D01*
X375612594Y-87182869D01*
X375439361Y-87148411D01*
X375276179Y-87080819D01*
X375129319Y-86982690D01*
X375004425Y-86857796D01*
X374906296Y-86710936D01*
X374838704Y-86547754D01*
X374804246Y-86374521D01*
X374804246Y-86197895D01*
X374838704Y-86024662D01*
X374906296Y-85861480D01*
X375004425Y-85714620D01*
X375129319Y-85589726D01*
X375276179Y-85491597D01*
X375439361Y-85424005D01*
X375612594Y-85389547D01*
X375789220Y-85389547D01*
X375962453Y-85424005D01*
G37*
G36*
X377595135Y-83478251D02*
G01*
X377758317Y-83545843D01*
X377905177Y-83643972D01*
X378030071Y-83768866D01*
X378128200Y-83915726D01*
X378195792Y-84078908D01*
X378230250Y-84252141D01*
X378230250Y-84428767D01*
X378195792Y-84602000D01*
X378128200Y-84765182D01*
X378030071Y-84912042D01*
X377905177Y-85036936D01*
X377758317Y-85135065D01*
X377595135Y-85202657D01*
X377421902Y-85237115D01*
X377245276Y-85237115D01*
X377072043Y-85202657D01*
X376908861Y-85135065D01*
X376762001Y-85036936D01*
X376637107Y-84912042D01*
X376538978Y-84765182D01*
X376471386Y-84602000D01*
X376436928Y-84428767D01*
X376436928Y-84252141D01*
X376471386Y-84078908D01*
X376538978Y-83915726D01*
X376637107Y-83768866D01*
X376762001Y-83643972D01*
X376908861Y-83545843D01*
X377072043Y-83478251D01*
X377245276Y-83443793D01*
X377421902Y-83443793D01*
X377595135Y-83478251D01*
G37*
G36*
X389627308Y-79735043D02*
G01*
X389906207Y-79798700D01*
X390176225Y-79893183D01*
X390433967Y-80017305D01*
X390676190Y-80169504D01*
X390899850Y-80347867D01*
X391102133Y-80550150D01*
X391280496Y-80773810D01*
X391432695Y-81016033D01*
X391556817Y-81273775D01*
X391651300Y-81543793D01*
X391714957Y-81822692D01*
X391746987Y-82106964D01*
X391746987Y-82393036D01*
X391714957Y-82677308D01*
X391651300Y-82956207D01*
X391556817Y-83226225D01*
X391432695Y-83483967D01*
X391280496Y-83726190D01*
X391102133Y-83949850D01*
X390899850Y-84152133D01*
X390676190Y-84330496D01*
X390433967Y-84482695D01*
X390176225Y-84606817D01*
X389906207Y-84701300D01*
X389627308Y-84764957D01*
X389343036Y-84796987D01*
X389056964Y-84796987D01*
X388772692Y-84764957D01*
X388493793Y-84701300D01*
X388223775Y-84606817D01*
X387966033Y-84482695D01*
X387723810Y-84330496D01*
X387500150Y-84152133D01*
X387297867Y-83949850D01*
X387119504Y-83726190D01*
X386967305Y-83483967D01*
X386843183Y-83226225D01*
X386748700Y-82956207D01*
X386685043Y-82677308D01*
X386653013Y-82393036D01*
X386653013Y-82106964D01*
X386685043Y-81822692D01*
X386748700Y-81543793D01*
X386843183Y-81273775D01*
X386967305Y-81016033D01*
X387119504Y-80773810D01*
X387297867Y-80550150D01*
X387500150Y-80347867D01*
X387723810Y-80169504D01*
X387966033Y-80017305D01*
X388223775Y-79893183D01*
X388493793Y-79798700D01*
X388772692Y-79735043D01*
X389056964Y-79703013D01*
X389343036Y-79703013D01*
X389627308Y-79735043D01*
G37*
G36*
X412077308Y-79685043D02*
G01*
X412356207Y-79748700D01*
X412626225Y-79843183D01*
X412883967Y-79967305D01*
X413126190Y-80119504D01*
X413349850Y-80297867D01*
X413552133Y-80500150D01*
X413730496Y-80723810D01*
X413882695Y-80966033D01*
X414006817Y-81223775D01*
X414101300Y-81493793D01*
X414164957Y-81772692D01*
X414196987Y-82056964D01*
X414196987Y-82343036D01*
X414164957Y-82627308D01*
X414101300Y-82906207D01*
X414006817Y-83176225D01*
X413882695Y-83433967D01*
X413730496Y-83676190D01*
X413552133Y-83899850D01*
X413349850Y-84102133D01*
X413126190Y-84280496D01*
X412883967Y-84432695D01*
X412626225Y-84556817D01*
X412356207Y-84651300D01*
X412077308Y-84714957D01*
X411793036Y-84746987D01*
X411506964Y-84746987D01*
X411222692Y-84714957D01*
X410943793Y-84651300D01*
X410673775Y-84556817D01*
X410416033Y-84432695D01*
X410173810Y-84280496D01*
X409950150Y-84102133D01*
X409747867Y-83899850D01*
X409569504Y-83676190D01*
X409417305Y-83433967D01*
X409293183Y-83176225D01*
X409198700Y-82906207D01*
X409135043Y-82627308D01*
X409103013Y-82343036D01*
X409103013Y-82056964D01*
X409135043Y-81772692D01*
X409198700Y-81493793D01*
X409293183Y-81223775D01*
X409417305Y-80966033D01*
X409569504Y-80723810D01*
X409747867Y-80500150D01*
X409950150Y-80297867D01*
X410173810Y-80119504D01*
X410416033Y-79967305D01*
X410673775Y-79843183D01*
X410943793Y-79748700D01*
X411222692Y-79685043D01*
X411506964Y-79653013D01*
X411793036Y-79653013D01*
X412077308Y-79685043D01*
G37*
G36*
X438104808Y-82761936D02*
G01*
X438268153Y-82829595D01*
X438415159Y-82927822D01*
X438540178Y-83052841D01*
X438638405Y-83199847D01*
X438706064Y-83363192D01*
X438740557Y-83536598D01*
X438740557Y-83713402D01*
X438706064Y-83886808D01*
X438638405Y-84050153D01*
X438540178Y-84197159D01*
X438415159Y-84322178D01*
X438268153Y-84420405D01*
X438104808Y-84488064D01*
X437931402Y-84522557D01*
X437754598Y-84522557D01*
X437581192Y-84488064D01*
X437417847Y-84420405D01*
X437270841Y-84322178D01*
X437145822Y-84197159D01*
X437047595Y-84050153D01*
X436979936Y-83886808D01*
X436945443Y-83713402D01*
X436945443Y-83536598D01*
X436979936Y-83363192D01*
X437047595Y-83199847D01*
X437145822Y-83052841D01*
X437270841Y-82927822D01*
X437417847Y-82829595D01*
X437581192Y-82761936D01*
X437754598Y-82727443D01*
X437931402Y-82727443D01*
X438104808Y-82761936D01*
G37*
G36*
X379227814Y-81532499D02*
G01*
X379390996Y-81600091D01*
X379537856Y-81698220D01*
X379662750Y-81823114D01*
X379760879Y-81969974D01*
X379828471Y-82133156D01*
X379862929Y-82306389D01*
X379862929Y-82483015D01*
X379828471Y-82656248D01*
X379760879Y-82819430D01*
X379662750Y-82966290D01*
X379537856Y-83091184D01*
X379390996Y-83189313D01*
X379227814Y-83256905D01*
X379054581Y-83291363D01*
X378877955Y-83291363D01*
X378704722Y-83256905D01*
X378541540Y-83189313D01*
X378394680Y-83091184D01*
X378269786Y-82966290D01*
X378171657Y-82819430D01*
X378104065Y-82656248D01*
X378069607Y-82483015D01*
X378069607Y-82306389D01*
X378104065Y-82133156D01*
X378171657Y-81969974D01*
X378269786Y-81823114D01*
X378394680Y-81698220D01*
X378541540Y-81600091D01*
X378704722Y-81532499D01*
X378877955Y-81498041D01*
X379054581Y-81498041D01*
X379227814Y-81532499D01*
G37*
G36*
X380509517Y-79202802D02*
G01*
X380526963Y-79212373D01*
X381829238Y-80305112D01*
X381841694Y-80320631D01*
X381847262Y-80339736D01*
X381845096Y-80359517D01*
X381835525Y-80376963D01*
X380742786Y-81679238D01*
X380727267Y-81691694D01*
X380708162Y-81697262D01*
X380688381Y-81695096D01*
X380670935Y-81685525D01*
X379368660Y-80592786D01*
X379356204Y-80577267D01*
X379350636Y-80558162D01*
X379352802Y-80538381D01*
X379362373Y-80520935D01*
X380455112Y-79218660D01*
X380470631Y-79206204D01*
X380489736Y-79200636D01*
X380509517Y-79202802D01*
G37*
G36*
X447462517Y-76343882D02*
G01*
X447479062Y-76354938D01*
X447490118Y-76371483D01*
X447494000Y-76391000D01*
X447494000Y-78091000D01*
X447490118Y-78110517D01*
X447479062Y-78127062D01*
X447462517Y-78138118D01*
X447443000Y-78142000D01*
X445743000Y-78142000D01*
X445723483Y-78138118D01*
X445706938Y-78127062D01*
X445695882Y-78110517D01*
X445692000Y-78091000D01*
X445692000Y-76391000D01*
X445695882Y-76371483D01*
X445706938Y-76354938D01*
X445723483Y-76343882D01*
X445743000Y-76340000D01*
X447443000Y-76340000D01*
X447462517Y-76343882D01*
G37*
G36*
X439234546Y-76378797D02*
G01*
X439397728Y-76446389D01*
X439544588Y-76544518D01*
X439669482Y-76669412D01*
X439767611Y-76816272D01*
X439835203Y-76979454D01*
X439869661Y-77152687D01*
X439869661Y-77329313D01*
X439835203Y-77502546D01*
X439767611Y-77665728D01*
X439669482Y-77812588D01*
X439544588Y-77937482D01*
X439397728Y-78035611D01*
X439234546Y-78103203D01*
X439061313Y-78137661D01*
X438884687Y-78137661D01*
X438711454Y-78103203D01*
X438548272Y-78035611D01*
X438401412Y-77937482D01*
X438276518Y-77812588D01*
X438178389Y-77665728D01*
X438110797Y-77502546D01*
X438076339Y-77329313D01*
X438076339Y-77152687D01*
X438110797Y-76979454D01*
X438178389Y-76816272D01*
X438276518Y-76669412D01*
X438401412Y-76544518D01*
X438548272Y-76446389D01*
X438711454Y-76378797D01*
X438884687Y-76344339D01*
X439061313Y-76344339D01*
X439234546Y-76378797D01*
G37*
G36*
X441774546Y-76378797D02*
G01*
X441937728Y-76446389D01*
X442084588Y-76544518D01*
X442209482Y-76669412D01*
X442307611Y-76816272D01*
X442375203Y-76979454D01*
X442409661Y-77152687D01*
X442409661Y-77329313D01*
X442375203Y-77502546D01*
X442307611Y-77665728D01*
X442209482Y-77812588D01*
X442084588Y-77937482D01*
X441937728Y-78035611D01*
X441774546Y-78103203D01*
X441601313Y-78137661D01*
X441424687Y-78137661D01*
X441251454Y-78103203D01*
X441088272Y-78035611D01*
X440941412Y-77937482D01*
X440816518Y-77812588D01*
X440718389Y-77665728D01*
X440650797Y-77502546D01*
X440616339Y-77329313D01*
X440616339Y-77152687D01*
X440650797Y-76979454D01*
X440718389Y-76816272D01*
X440816518Y-76669412D01*
X440941412Y-76544518D01*
X441088272Y-76446389D01*
X441251454Y-76378797D01*
X441424687Y-76344339D01*
X441601313Y-76344339D01*
X441774546Y-76378797D01*
G37*
G36*
X444314546Y-76378797D02*
G01*
X444477728Y-76446389D01*
X444624588Y-76544518D01*
X444749482Y-76669412D01*
X444847611Y-76816272D01*
X444915203Y-76979454D01*
X444949661Y-77152687D01*
X444949661Y-77329313D01*
X444915203Y-77502546D01*
X444847611Y-77665728D01*
X444749482Y-77812588D01*
X444624588Y-77937482D01*
X444477728Y-78035611D01*
X444314546Y-78103203D01*
X444141313Y-78137661D01*
X443964687Y-78137661D01*
X443791454Y-78103203D01*
X443628272Y-78035611D01*
X443481412Y-77937482D01*
X443356518Y-77812588D01*
X443258389Y-77665728D01*
X443190797Y-77502546D01*
X443156339Y-77329313D01*
X443156339Y-77152687D01*
X443190797Y-76979454D01*
X443258389Y-76816272D01*
X443356518Y-76669412D01*
X443481412Y-76544518D01*
X443628272Y-76446389D01*
X443791454Y-76378797D01*
X443964687Y-76344339D01*
X444141313Y-76344339D01*
X444314546Y-76378797D01*
G37*
G36*
X442912517Y-71368882D02*
G01*
X442929062Y-71379938D01*
X442940118Y-71396483D01*
X442944000Y-71416000D01*
X442944000Y-74016000D01*
X442940118Y-74035517D01*
X442929062Y-74052062D01*
X442912517Y-74063118D01*
X442893000Y-74067000D01*
X440293000Y-74067000D01*
X440273483Y-74063118D01*
X440256938Y-74052062D01*
X440245882Y-74035517D01*
X440242000Y-74016000D01*
X440242000Y-71416000D01*
X440245882Y-71396483D01*
X440256938Y-71379938D01*
X440273483Y-71368882D01*
X440293000Y-71365000D01*
X442893000Y-71365000D01*
X442912517Y-71368882D01*
G37*
G36*
X441703482Y-67894781D02*
G01*
X441714690Y-67894781D01*
X441769888Y-67903523D01*
X441895534Y-67920065D01*
X441926189Y-67928279D01*
X441955074Y-67932854D01*
X442010620Y-67950902D01*
X442091467Y-67972565D01*
X442143050Y-67993931D01*
X442186542Y-68008063D01*
X442227286Y-68028823D01*
X442278870Y-68050190D01*
X442351353Y-68092038D01*
X442403395Y-68118555D01*
X442427055Y-68135745D01*
X442454539Y-68151613D01*
X442555074Y-68228756D01*
X442600294Y-68261610D01*
X442608219Y-68269535D01*
X442615466Y-68275096D01*
X442758903Y-68418533D01*
X442764463Y-68425779D01*
X442772390Y-68433706D01*
X442805247Y-68478930D01*
X442882386Y-68579460D01*
X442898252Y-68606941D01*
X442915445Y-68630605D01*
X442941964Y-68682652D01*
X442983809Y-68755129D01*
X443005173Y-68806706D01*
X443025937Y-68847458D01*
X443040070Y-68890955D01*
X443061434Y-68942532D01*
X443083093Y-69023366D01*
X443101146Y-69078926D01*
X443105721Y-69107816D01*
X443113934Y-69138465D01*
X443130474Y-69264099D01*
X443139219Y-69319310D01*
X443139219Y-69330518D01*
X443140412Y-69339580D01*
X443140412Y-69542419D01*
X443139219Y-69551480D01*
X443139219Y-69562690D01*
X443130473Y-69617905D01*
X443113934Y-69743534D01*
X443105722Y-69774180D01*
X443101146Y-69803074D01*
X443083091Y-69858638D01*
X443061434Y-69939467D01*
X443040071Y-69991039D01*
X443025937Y-70034542D01*
X443005171Y-70075297D01*
X442983809Y-70126870D01*
X442941968Y-70199338D01*
X442915445Y-70251395D01*
X442898249Y-70275062D01*
X442882386Y-70302539D01*
X442805261Y-70403050D01*
X442772390Y-70448294D01*
X442764459Y-70456224D01*
X442758903Y-70463466D01*
X442615466Y-70606903D01*
X442608224Y-70612459D01*
X442600294Y-70620390D01*
X442555050Y-70653261D01*
X442454539Y-70730386D01*
X442427062Y-70746249D01*
X442403395Y-70763445D01*
X442351338Y-70789968D01*
X442278870Y-70831809D01*
X442227297Y-70853171D01*
X442186542Y-70873937D01*
X442143039Y-70888071D01*
X442091467Y-70909434D01*
X442010638Y-70931091D01*
X441955074Y-70949146D01*
X441926180Y-70953722D01*
X441895534Y-70961934D01*
X441769902Y-70978474D01*
X441714690Y-70987219D01*
X441703481Y-70987219D01*
X441694420Y-70988412D01*
X441491580Y-70988412D01*
X441482519Y-70987219D01*
X441471310Y-70987219D01*
X441416099Y-70978474D01*
X441290465Y-70961934D01*
X441259816Y-70953721D01*
X441230926Y-70949146D01*
X441175366Y-70931093D01*
X441094532Y-70909434D01*
X441042955Y-70888070D01*
X440999458Y-70873937D01*
X440958706Y-70853173D01*
X440907129Y-70831809D01*
X440834652Y-70789964D01*
X440782605Y-70763445D01*
X440758941Y-70746252D01*
X440731460Y-70730386D01*
X440630930Y-70653247D01*
X440585706Y-70620390D01*
X440577779Y-70612463D01*
X440570533Y-70606903D01*
X440427096Y-70463466D01*
X440421535Y-70456219D01*
X440413610Y-70448294D01*
X440380756Y-70403074D01*
X440303613Y-70302539D01*
X440287745Y-70275055D01*
X440270555Y-70251395D01*
X440244038Y-70199353D01*
X440202190Y-70126870D01*
X440180823Y-70075286D01*
X440160063Y-70034542D01*
X440145931Y-69991050D01*
X440124565Y-69939467D01*
X440102902Y-69858620D01*
X440084854Y-69803074D01*
X440080279Y-69774189D01*
X440072065Y-69743534D01*
X440055524Y-69617891D01*
X440046781Y-69562690D01*
X440046781Y-69551480D01*
X440045588Y-69542419D01*
X440045588Y-69339580D01*
X440046781Y-69330518D01*
X440046781Y-69319310D01*
X440055523Y-69264113D01*
X440072065Y-69138465D01*
X440080279Y-69107807D01*
X440084854Y-69078926D01*
X440102900Y-69023383D01*
X440124565Y-68942532D01*
X440145933Y-68890944D01*
X440160063Y-68847458D01*
X440180821Y-68806717D01*
X440202190Y-68755129D01*
X440244042Y-68682637D01*
X440270555Y-68630605D01*
X440287742Y-68606948D01*
X440303613Y-68579460D01*
X440380770Y-68478906D01*
X440413610Y-68433706D01*
X440421532Y-68425783D01*
X440427096Y-68418533D01*
X440570533Y-68275096D01*
X440577783Y-68269532D01*
X440585706Y-68261610D01*
X440630906Y-68228770D01*
X440731460Y-68151613D01*
X440758948Y-68135742D01*
X440782605Y-68118555D01*
X440834637Y-68092042D01*
X440907129Y-68050190D01*
X440958717Y-68028821D01*
X440999458Y-68008063D01*
X441042944Y-67993933D01*
X441094532Y-67972565D01*
X441175383Y-67950900D01*
X441230926Y-67932854D01*
X441259807Y-67928279D01*
X441290465Y-67920065D01*
X441416113Y-67903523D01*
X441471310Y-67894781D01*
X441482518Y-67894781D01*
X441491580Y-67893588D01*
X441694420Y-67893588D01*
X441703482Y-67894781D01*
G37*
G36*
X438104808Y-69077936D02*
G01*
X438268153Y-69145595D01*
X438415159Y-69243822D01*
X438540178Y-69368841D01*
X438638405Y-69515847D01*
X438706064Y-69679192D01*
X438740557Y-69852598D01*
X438740557Y-70029402D01*
X438706064Y-70202808D01*
X438638405Y-70366153D01*
X438540178Y-70513159D01*
X438415159Y-70638178D01*
X438268153Y-70736405D01*
X438104808Y-70804064D01*
X437931402Y-70838557D01*
X437754598Y-70838557D01*
X437581192Y-70804064D01*
X437417847Y-70736405D01*
X437270841Y-70638178D01*
X437145822Y-70513159D01*
X437047595Y-70366153D01*
X436979936Y-70202808D01*
X436945443Y-70029402D01*
X436945443Y-69852598D01*
X436979936Y-69679192D01*
X437047595Y-69515847D01*
X437145822Y-69368841D01*
X437270841Y-69243822D01*
X437417847Y-69145595D01*
X437581192Y-69077936D01*
X437754598Y-69043443D01*
X437931402Y-69043443D01*
X438104808Y-69077936D01*
G37*
G36*
X395819432Y-62709424D02*
G01*
X396042501Y-62769195D01*
X396255861Y-62857571D01*
X396455859Y-62973040D01*
X396639075Y-63113627D01*
X396802373Y-63276925D01*
X396942960Y-63460141D01*
X397058429Y-63660139D01*
X397146805Y-63873499D01*
X397206576Y-64096568D01*
X397236720Y-64325531D01*
X397236720Y-64556469D01*
X397206576Y-64785432D01*
X397146805Y-65008501D01*
X397058429Y-65221861D01*
X396942960Y-65421859D01*
X396802373Y-65605075D01*
X396639075Y-65768373D01*
X396455859Y-65908960D01*
X396255861Y-66024429D01*
X396042501Y-66112805D01*
X395819432Y-66172576D01*
X395590469Y-66202720D01*
X395359531Y-66202720D01*
X395130568Y-66172576D01*
X394907499Y-66112805D01*
X394694139Y-66024429D01*
X394494141Y-65908960D01*
X394310925Y-65768373D01*
X394147627Y-65605075D01*
X394007040Y-65421859D01*
X393891571Y-65221861D01*
X393803195Y-65008501D01*
X393743424Y-64785432D01*
X393713280Y-64556469D01*
X393713280Y-64325531D01*
X393743424Y-64096568D01*
X393803195Y-63873499D01*
X393891571Y-63660139D01*
X394007040Y-63460141D01*
X394147627Y-63276925D01*
X394310925Y-63113627D01*
X394494141Y-62973040D01*
X394694139Y-62857571D01*
X394907499Y-62769195D01*
X395130568Y-62709424D01*
X395359531Y-62679280D01*
X395590469Y-62679280D01*
X395819432Y-62709424D01*
G37*
G36*
X438187432Y-62709424D02*
G01*
X438410501Y-62769195D01*
X438623861Y-62857571D01*
X438823859Y-62973040D01*
X439007075Y-63113627D01*
X439170373Y-63276925D01*
X439310960Y-63460141D01*
X439426429Y-63660139D01*
X439514805Y-63873499D01*
X439574576Y-64096568D01*
X439604720Y-64325531D01*
X439604720Y-64556469D01*
X439574576Y-64785432D01*
X439514805Y-65008501D01*
X439426429Y-65221861D01*
X439310960Y-65421859D01*
X439170373Y-65605075D01*
X439007075Y-65768373D01*
X438823859Y-65908960D01*
X438623861Y-66024429D01*
X438410501Y-66112805D01*
X438187432Y-66172576D01*
X437958469Y-66202720D01*
X437727531Y-66202720D01*
X437498568Y-66172576D01*
X437275499Y-66112805D01*
X437062139Y-66024429D01*
X436862141Y-65908960D01*
X436678925Y-65768373D01*
X436515627Y-65605075D01*
X436375040Y-65421859D01*
X436259571Y-65221861D01*
X436171195Y-65008501D01*
X436111424Y-64785432D01*
X436081280Y-64556469D01*
X436081280Y-64325531D01*
X436111424Y-64096568D01*
X436171195Y-63873499D01*
X436259571Y-63660139D01*
X436375040Y-63460141D01*
X436515627Y-63276925D01*
X436678925Y-63113627D01*
X436862141Y-62973040D01*
X437062139Y-62857571D01*
X437275499Y-62769195D01*
X437498568Y-62709424D01*
X437727531Y-62679280D01*
X437958469Y-62679280D01*
X438187432Y-62709424D01*
G37*
G36*
X443903482Y-62894781D02*
G01*
X443914690Y-62894781D01*
X443969888Y-62903523D01*
X444095534Y-62920065D01*
X444126189Y-62928279D01*
X444155074Y-62932854D01*
X444210620Y-62950902D01*
X444291467Y-62972565D01*
X444343050Y-62993931D01*
X444386542Y-63008063D01*
X444427286Y-63028823D01*
X444478870Y-63050190D01*
X444551353Y-63092038D01*
X444603395Y-63118555D01*
X444627055Y-63135745D01*
X444654539Y-63151613D01*
X444755074Y-63228756D01*
X444800294Y-63261610D01*
X444808219Y-63269535D01*
X444815466Y-63275096D01*
X444958903Y-63418533D01*
X444964463Y-63425779D01*
X444972390Y-63433706D01*
X445005247Y-63478930D01*
X445082386Y-63579460D01*
X445098252Y-63606941D01*
X445115445Y-63630605D01*
X445141964Y-63682652D01*
X445183809Y-63755129D01*
X445205173Y-63806706D01*
X445225937Y-63847458D01*
X445240070Y-63890955D01*
X445261434Y-63942532D01*
X445283093Y-64023366D01*
X445301146Y-64078926D01*
X445305721Y-64107816D01*
X445313934Y-64138465D01*
X445330474Y-64264099D01*
X445339219Y-64319310D01*
X445339219Y-64330518D01*
X445340412Y-64339580D01*
X445340412Y-64542419D01*
X445339219Y-64551480D01*
X445339219Y-64562690D01*
X445330473Y-64617905D01*
X445313934Y-64743534D01*
X445305722Y-64774180D01*
X445301146Y-64803074D01*
X445283091Y-64858638D01*
X445261434Y-64939467D01*
X445240071Y-64991039D01*
X445225937Y-65034542D01*
X445205171Y-65075297D01*
X445183809Y-65126870D01*
X445141968Y-65199338D01*
X445115445Y-65251395D01*
X445098249Y-65275062D01*
X445082386Y-65302539D01*
X445005261Y-65403050D01*
X444972390Y-65448294D01*
X444964459Y-65456224D01*
X444958903Y-65463466D01*
X444815466Y-65606903D01*
X444808224Y-65612459D01*
X444800294Y-65620390D01*
X444755050Y-65653261D01*
X444654539Y-65730386D01*
X444627062Y-65746249D01*
X444603395Y-65763445D01*
X444551338Y-65789968D01*
X444478870Y-65831809D01*
X444427297Y-65853171D01*
X444386542Y-65873937D01*
X444343039Y-65888071D01*
X444291467Y-65909434D01*
X444210638Y-65931091D01*
X444155074Y-65949146D01*
X444126180Y-65953722D01*
X444095534Y-65961934D01*
X443969902Y-65978474D01*
X443914690Y-65987219D01*
X443903481Y-65987219D01*
X443894420Y-65988412D01*
X443691580Y-65988412D01*
X443682519Y-65987219D01*
X443671310Y-65987219D01*
X443616099Y-65978474D01*
X443490465Y-65961934D01*
X443459816Y-65953721D01*
X443430926Y-65949146D01*
X443375366Y-65931093D01*
X443294532Y-65909434D01*
X443242955Y-65888070D01*
X443199458Y-65873937D01*
X443158706Y-65853173D01*
X443107129Y-65831809D01*
X443034652Y-65789964D01*
X442982605Y-65763445D01*
X442958941Y-65746252D01*
X442931460Y-65730386D01*
X442830930Y-65653247D01*
X442785706Y-65620390D01*
X442777779Y-65612463D01*
X442770533Y-65606903D01*
X442627096Y-65463466D01*
X442621535Y-65456219D01*
X442613610Y-65448294D01*
X442580756Y-65403074D01*
X442503613Y-65302539D01*
X442487745Y-65275055D01*
X442470555Y-65251395D01*
X442444038Y-65199353D01*
X442402190Y-65126870D01*
X442380823Y-65075286D01*
X442360063Y-65034542D01*
X442345931Y-64991050D01*
X442324565Y-64939467D01*
X442302902Y-64858620D01*
X442284854Y-64803074D01*
X442280279Y-64774189D01*
X442272065Y-64743534D01*
X442255524Y-64617891D01*
X442246781Y-64562690D01*
X442246781Y-64551480D01*
X442245588Y-64542419D01*
X442245588Y-64339580D01*
X442246781Y-64330518D01*
X442246781Y-64319310D01*
X442255523Y-64264113D01*
X442272065Y-64138465D01*
X442280279Y-64107807D01*
X442284854Y-64078926D01*
X442302900Y-64023383D01*
X442324565Y-63942532D01*
X442345933Y-63890944D01*
X442360063Y-63847458D01*
X442380821Y-63806717D01*
X442402190Y-63755129D01*
X442444042Y-63682637D01*
X442470555Y-63630605D01*
X442487742Y-63606948D01*
X442503613Y-63579460D01*
X442580770Y-63478906D01*
X442613610Y-63433706D01*
X442621532Y-63425783D01*
X442627096Y-63418533D01*
X442770533Y-63275096D01*
X442777783Y-63269532D01*
X442785706Y-63261610D01*
X442830906Y-63228770D01*
X442931460Y-63151613D01*
X442958948Y-63135742D01*
X442982605Y-63118555D01*
X443034637Y-63092042D01*
X443107129Y-63050190D01*
X443158717Y-63028821D01*
X443199458Y-63008063D01*
X443242944Y-62993933D01*
X443294532Y-62972565D01*
X443375383Y-62950900D01*
X443430926Y-62932854D01*
X443459807Y-62928279D01*
X443490465Y-62920065D01*
X443616113Y-62903523D01*
X443671310Y-62894781D01*
X443682518Y-62894781D01*
X443691580Y-62893588D01*
X443894420Y-62893588D01*
X443903482Y-62894781D01*
G37*
G36*
X390236808Y-63577936D02*
G01*
X390400153Y-63645595D01*
X390547159Y-63743822D01*
X390672178Y-63868841D01*
X390770405Y-64015847D01*
X390838064Y-64179192D01*
X390872557Y-64352598D01*
X390872557Y-64529402D01*
X390838064Y-64702808D01*
X390770405Y-64866153D01*
X390672178Y-65013159D01*
X390547159Y-65138178D01*
X390400153Y-65236405D01*
X390236808Y-65304064D01*
X390063402Y-65338557D01*
X389886598Y-65338557D01*
X389713192Y-65304064D01*
X389549847Y-65236405D01*
X389402841Y-65138178D01*
X389277822Y-65013159D01*
X389179595Y-64866153D01*
X389111936Y-64702808D01*
X389077443Y-64529402D01*
X389077443Y-64352598D01*
X389111936Y-64179192D01*
X389179595Y-64015847D01*
X389277822Y-63868841D01*
X389402841Y-63743822D01*
X389549847Y-63645595D01*
X389713192Y-63577936D01*
X389886598Y-63543443D01*
X390063402Y-63543443D01*
X390236808Y-63577936D01*
G37*
G36*
X401236808Y-63577936D02*
G01*
X401400153Y-63645595D01*
X401547159Y-63743822D01*
X401672178Y-63868841D01*
X401770405Y-64015847D01*
X401838064Y-64179192D01*
X401872557Y-64352598D01*
X401872557Y-64529402D01*
X401838064Y-64702808D01*
X401770405Y-64866153D01*
X401672178Y-65013159D01*
X401547159Y-65138178D01*
X401400153Y-65236405D01*
X401236808Y-65304064D01*
X401063402Y-65338557D01*
X400886598Y-65338557D01*
X400713192Y-65304064D01*
X400549847Y-65236405D01*
X400402841Y-65138178D01*
X400277822Y-65013159D01*
X400179595Y-64866153D01*
X400111936Y-64702808D01*
X400077443Y-64529402D01*
X400077443Y-64352598D01*
X400111936Y-64179192D01*
X400179595Y-64015847D01*
X400277822Y-63868841D01*
X400402841Y-63743822D01*
X400549847Y-63645595D01*
X400713192Y-63577936D01*
X400886598Y-63543443D01*
X401063402Y-63543443D01*
X401236808Y-63577936D01*
G37*
G36*
X445112517Y-59818882D02*
G01*
X445129062Y-59829938D01*
X445140118Y-59846483D01*
X445144000Y-59866000D01*
X445144000Y-62466000D01*
X445140118Y-62485517D01*
X445129062Y-62502062D01*
X445112517Y-62513118D01*
X445093000Y-62517000D01*
X442493000Y-62517000D01*
X442473483Y-62513118D01*
X442456938Y-62502062D01*
X442445882Y-62485517D01*
X442442000Y-62466000D01*
X442442000Y-59866000D01*
X442445882Y-59846483D01*
X442456938Y-59829938D01*
X442473483Y-59818882D01*
X442493000Y-59815000D01*
X445093000Y-59815000D01*
X445112517Y-59818882D01*
G37*
G36*
X400585482Y-59144781D02*
G01*
X400596690Y-59144781D01*
X400651888Y-59153523D01*
X400777534Y-59170065D01*
X400808189Y-59178279D01*
X400837074Y-59182854D01*
X400892620Y-59200902D01*
X400973467Y-59222565D01*
X401025050Y-59243931D01*
X401068542Y-59258063D01*
X401109286Y-59278823D01*
X401160870Y-59300190D01*
X401233353Y-59342038D01*
X401285395Y-59368555D01*
X401309055Y-59385745D01*
X401336539Y-59401613D01*
X401437074Y-59478756D01*
X401482294Y-59511610D01*
X401490219Y-59519535D01*
X401497466Y-59525096D01*
X401640903Y-59668533D01*
X401646463Y-59675779D01*
X401654390Y-59683706D01*
X401687247Y-59728930D01*
X401764386Y-59829460D01*
X401780252Y-59856941D01*
X401797445Y-59880605D01*
X401823964Y-59932652D01*
X401865809Y-60005129D01*
X401887173Y-60056706D01*
X401907937Y-60097458D01*
X401922070Y-60140955D01*
X401943434Y-60192532D01*
X401965093Y-60273366D01*
X401983146Y-60328926D01*
X401987721Y-60357816D01*
X401995934Y-60388465D01*
X402012474Y-60514099D01*
X402021219Y-60569310D01*
X402021219Y-60580518D01*
X402022412Y-60589580D01*
X402022412Y-60792419D01*
X402021219Y-60801480D01*
X402021219Y-60812690D01*
X402012473Y-60867905D01*
X401995934Y-60993534D01*
X401987722Y-61024180D01*
X401983146Y-61053074D01*
X401965091Y-61108638D01*
X401943434Y-61189467D01*
X401922071Y-61241039D01*
X401907937Y-61284542D01*
X401887171Y-61325297D01*
X401865809Y-61376870D01*
X401823968Y-61449338D01*
X401797445Y-61501395D01*
X401780249Y-61525062D01*
X401764386Y-61552539D01*
X401687261Y-61653050D01*
X401654390Y-61698294D01*
X401646459Y-61706224D01*
X401640903Y-61713466D01*
X401497466Y-61856903D01*
X401490224Y-61862459D01*
X401482294Y-61870390D01*
X401437050Y-61903261D01*
X401336539Y-61980386D01*
X401309062Y-61996249D01*
X401285395Y-62013445D01*
X401233338Y-62039968D01*
X401160870Y-62081809D01*
X401109297Y-62103171D01*
X401068542Y-62123937D01*
X401025039Y-62138071D01*
X400973467Y-62159434D01*
X400892638Y-62181091D01*
X400837074Y-62199146D01*
X400808180Y-62203722D01*
X400777534Y-62211934D01*
X400651902Y-62228474D01*
X400596690Y-62237219D01*
X400585481Y-62237219D01*
X400576420Y-62238412D01*
X400373580Y-62238412D01*
X400364519Y-62237219D01*
X400353310Y-62237219D01*
X400298099Y-62228474D01*
X400172465Y-62211934D01*
X400141816Y-62203721D01*
X400112926Y-62199146D01*
X400057366Y-62181093D01*
X399976532Y-62159434D01*
X399924955Y-62138070D01*
X399881458Y-62123937D01*
X399840706Y-62103173D01*
X399789129Y-62081809D01*
X399716652Y-62039964D01*
X399664605Y-62013445D01*
X399640941Y-61996252D01*
X399613460Y-61980386D01*
X399512930Y-61903247D01*
X399467706Y-61870390D01*
X399459779Y-61862463D01*
X399452533Y-61856903D01*
X399309096Y-61713466D01*
X399303535Y-61706219D01*
X399295610Y-61698294D01*
X399262756Y-61653074D01*
X399185613Y-61552539D01*
X399169745Y-61525055D01*
X399152555Y-61501395D01*
X399126038Y-61449353D01*
X399084190Y-61376870D01*
X399062823Y-61325286D01*
X399042063Y-61284542D01*
X399027931Y-61241050D01*
X399006565Y-61189467D01*
X398984902Y-61108620D01*
X398966854Y-61053074D01*
X398962279Y-61024189D01*
X398954065Y-60993534D01*
X398937524Y-60867891D01*
X398928781Y-60812690D01*
X398928781Y-60801480D01*
X398927588Y-60792419D01*
X398927588Y-60589580D01*
X398928781Y-60580518D01*
X398928781Y-60569310D01*
X398937523Y-60514113D01*
X398954065Y-60388465D01*
X398962279Y-60357807D01*
X398966854Y-60328926D01*
X398984900Y-60273383D01*
X399006565Y-60192532D01*
X399027933Y-60140944D01*
X399042063Y-60097458D01*
X399062821Y-60056717D01*
X399084190Y-60005129D01*
X399126042Y-59932637D01*
X399152555Y-59880605D01*
X399169742Y-59856948D01*
X399185613Y-59829460D01*
X399262770Y-59728906D01*
X399295610Y-59683706D01*
X399303532Y-59675783D01*
X399309096Y-59668533D01*
X399452533Y-59525096D01*
X399459783Y-59519532D01*
X399467706Y-59511610D01*
X399512906Y-59478770D01*
X399613460Y-59401613D01*
X399640948Y-59385742D01*
X399664605Y-59368555D01*
X399716637Y-59342042D01*
X399789129Y-59300190D01*
X399840717Y-59278821D01*
X399881458Y-59258063D01*
X399924944Y-59243933D01*
X399976532Y-59222565D01*
X400057383Y-59200900D01*
X400112926Y-59182854D01*
X400141807Y-59178279D01*
X400172465Y-59170065D01*
X400298113Y-59153523D01*
X400353310Y-59144781D01*
X400364518Y-59144781D01*
X400373580Y-59143588D01*
X400576420Y-59143588D01*
X400585482Y-59144781D01*
G37*
G36*
X405069517Y-59343882D02*
G01*
X405086062Y-59354938D01*
X405097118Y-59371483D01*
X405101000Y-59391000D01*
X405101000Y-61991000D01*
X405097118Y-62010517D01*
X405086062Y-62027062D01*
X405069517Y-62038118D01*
X405050000Y-62042000D01*
X402450000Y-62042000D01*
X402430483Y-62038118D01*
X402413938Y-62027062D01*
X402402882Y-62010517D01*
X402399000Y-61991000D01*
X402399000Y-59391000D01*
X402402882Y-59371483D01*
X402413938Y-59354938D01*
X402430483Y-59343882D01*
X402450000Y-59340000D01*
X405050000Y-59340000D01*
X405069517Y-59343882D01*
G37*
G36*
X395585482Y-56944781D02*
G01*
X395596690Y-56944781D01*
X395651888Y-56953523D01*
X395777534Y-56970065D01*
X395808189Y-56978279D01*
X395837074Y-56982854D01*
X395892620Y-57000902D01*
X395973467Y-57022565D01*
X396025050Y-57043931D01*
X396068542Y-57058063D01*
X396109286Y-57078823D01*
X396160870Y-57100190D01*
X396233353Y-57142038D01*
X396285395Y-57168555D01*
X396309055Y-57185745D01*
X396336539Y-57201613D01*
X396437074Y-57278756D01*
X396482294Y-57311610D01*
X396490219Y-57319535D01*
X396497466Y-57325096D01*
X396640903Y-57468533D01*
X396646463Y-57475779D01*
X396654390Y-57483706D01*
X396687247Y-57528930D01*
X396764386Y-57629460D01*
X396780252Y-57656941D01*
X396797445Y-57680605D01*
X396823964Y-57732652D01*
X396865809Y-57805129D01*
X396887173Y-57856706D01*
X396907937Y-57897458D01*
X396922070Y-57940955D01*
X396943434Y-57992532D01*
X396965093Y-58073366D01*
X396983146Y-58128926D01*
X396987721Y-58157816D01*
X396995934Y-58188465D01*
X397012474Y-58314099D01*
X397021219Y-58369310D01*
X397021219Y-58380518D01*
X397022412Y-58389580D01*
X397022412Y-58592419D01*
X397021219Y-58601480D01*
X397021219Y-58612690D01*
X397012473Y-58667905D01*
X396995934Y-58793534D01*
X396987722Y-58824180D01*
X396983146Y-58853074D01*
X396965091Y-58908638D01*
X396943434Y-58989467D01*
X396922071Y-59041039D01*
X396907937Y-59084542D01*
X396887171Y-59125297D01*
X396865809Y-59176870D01*
X396823968Y-59249338D01*
X396797445Y-59301395D01*
X396780249Y-59325062D01*
X396764386Y-59352539D01*
X396687261Y-59453050D01*
X396654390Y-59498294D01*
X396646459Y-59506224D01*
X396640903Y-59513466D01*
X396497466Y-59656903D01*
X396490224Y-59662459D01*
X396482294Y-59670390D01*
X396437050Y-59703261D01*
X396336539Y-59780386D01*
X396309062Y-59796249D01*
X396285395Y-59813445D01*
X396233338Y-59839968D01*
X396160870Y-59881809D01*
X396109297Y-59903171D01*
X396068542Y-59923937D01*
X396025039Y-59938071D01*
X395973467Y-59959434D01*
X395892638Y-59981091D01*
X395837074Y-59999146D01*
X395808180Y-60003722D01*
X395777534Y-60011934D01*
X395651902Y-60028474D01*
X395596690Y-60037219D01*
X395585481Y-60037219D01*
X395576420Y-60038412D01*
X395373580Y-60038412D01*
X395364519Y-60037219D01*
X395353310Y-60037219D01*
X395298099Y-60028474D01*
X395172465Y-60011934D01*
X395141816Y-60003721D01*
X395112926Y-59999146D01*
X395057366Y-59981093D01*
X394976532Y-59959434D01*
X394924955Y-59938070D01*
X394881458Y-59923937D01*
X394840706Y-59903173D01*
X394789129Y-59881809D01*
X394716652Y-59839964D01*
X394664605Y-59813445D01*
X394640941Y-59796252D01*
X394613460Y-59780386D01*
X394512930Y-59703247D01*
X394467706Y-59670390D01*
X394459779Y-59662463D01*
X394452533Y-59656903D01*
X394309096Y-59513466D01*
X394303535Y-59506219D01*
X394295610Y-59498294D01*
X394262756Y-59453074D01*
X394185613Y-59352539D01*
X394169745Y-59325055D01*
X394152555Y-59301395D01*
X394126038Y-59249353D01*
X394084190Y-59176870D01*
X394062823Y-59125286D01*
X394042063Y-59084542D01*
X394027931Y-59041050D01*
X394006565Y-58989467D01*
X393984902Y-58908620D01*
X393966854Y-58853074D01*
X393962279Y-58824189D01*
X393954065Y-58793534D01*
X393937524Y-58667891D01*
X393928781Y-58612690D01*
X393928781Y-58601480D01*
X393927588Y-58592419D01*
X393927588Y-58389580D01*
X393928781Y-58380518D01*
X393928781Y-58369310D01*
X393937523Y-58314113D01*
X393954065Y-58188465D01*
X393962279Y-58157807D01*
X393966854Y-58128926D01*
X393984900Y-58073383D01*
X394006565Y-57992532D01*
X394027933Y-57940944D01*
X394042063Y-57897458D01*
X394062821Y-57856717D01*
X394084190Y-57805129D01*
X394126042Y-57732637D01*
X394152555Y-57680605D01*
X394169742Y-57656948D01*
X394185613Y-57629460D01*
X394262770Y-57528906D01*
X394295610Y-57483706D01*
X394303532Y-57475783D01*
X394309096Y-57468533D01*
X394452533Y-57325096D01*
X394459783Y-57319532D01*
X394467706Y-57311610D01*
X394512906Y-57278770D01*
X394613460Y-57201613D01*
X394640948Y-57185742D01*
X394664605Y-57168555D01*
X394716637Y-57142042D01*
X394789129Y-57100190D01*
X394840717Y-57078821D01*
X394881458Y-57058063D01*
X394924944Y-57043933D01*
X394976532Y-57022565D01*
X395057383Y-57000900D01*
X395112926Y-56982854D01*
X395141807Y-56978279D01*
X395172465Y-56970065D01*
X395298113Y-56953523D01*
X395353310Y-56944781D01*
X395364518Y-56944781D01*
X395373580Y-56943588D01*
X395576420Y-56943588D01*
X395585482Y-56944781D01*
G37*
G36*
X393519517Y-57143882D02*
G01*
X393536062Y-57154938D01*
X393547118Y-57171483D01*
X393551000Y-57191000D01*
X393551000Y-59791000D01*
X393547118Y-59810517D01*
X393536062Y-59827062D01*
X393519517Y-59838118D01*
X393500000Y-59842000D01*
X390900000Y-59842000D01*
X390880483Y-59838118D01*
X390863938Y-59827062D01*
X390852882Y-59810517D01*
X390849000Y-59791000D01*
X390849000Y-57191000D01*
X390852882Y-57171483D01*
X390863938Y-57154938D01*
X390880483Y-57143882D01*
X390900000Y-57140000D01*
X393500000Y-57140000D01*
X393519517Y-57143882D01*
G37*
G36*
X438104808Y-58077936D02*
G01*
X438268153Y-58145595D01*
X438415159Y-58243822D01*
X438540178Y-58368841D01*
X438638405Y-58515847D01*
X438706064Y-58679192D01*
X438740557Y-58852598D01*
X438740557Y-59029402D01*
X438706064Y-59202808D01*
X438638405Y-59366153D01*
X438540178Y-59513159D01*
X438415159Y-59638178D01*
X438268153Y-59736405D01*
X438104808Y-59804064D01*
X437931402Y-59838557D01*
X437754598Y-59838557D01*
X437581192Y-59804064D01*
X437417847Y-59736405D01*
X437270841Y-59638178D01*
X437145822Y-59513159D01*
X437047595Y-59366153D01*
X436979936Y-59202808D01*
X436945443Y-59029402D01*
X436945443Y-58852598D01*
X436979936Y-58679192D01*
X437047595Y-58515847D01*
X437145822Y-58368841D01*
X437270841Y-58243822D01*
X437417847Y-58145595D01*
X437581192Y-58077936D01*
X437754598Y-58043443D01*
X437931402Y-58043443D01*
X438104808Y-58077936D01*
G37*
M02*
