G04 #@! TF.GenerationSoftware,KiCad,Pcbnew,9.0.2*
G04 #@! TF.CreationDate,2025-09-19T15:50:49-04:00*
G04 #@! TF.ProjectId,Trackball,54726163-6b62-4616-9c6c-2e6b69636164,rev?*
G04 #@! TF.SameCoordinates,Original*
G04 #@! TF.FileFunction,Soldermask,Bot*
G04 #@! TF.FilePolarity,Negative*
%FSLAX46Y46*%
G04 Gerber Fmt 4.6, Leading zero omitted, Abs format (unit mm)*
G04 Created by KiCad (PCBNEW 9.0.2) date 2025-09-19 15:50:49*
%MOMM*%
%LPD*%
G01*
G04 APERTURE LIST*
G04 APERTURE END LIST*
G36*
X377187432Y-137002424D02*
G01*
X377410501Y-137062195D01*
X377623861Y-137150571D01*
X377823859Y-137266040D01*
X378007075Y-137406627D01*
X378170373Y-137569925D01*
X378310960Y-137753141D01*
X378426429Y-137953139D01*
X378514805Y-138166499D01*
X378574576Y-138389568D01*
X378604720Y-138618531D01*
X378604720Y-138849469D01*
X378574576Y-139078432D01*
X378514805Y-139301501D01*
X378426429Y-139514861D01*
X378310960Y-139714859D01*
X378170373Y-139898075D01*
X378007075Y-140061373D01*
X377823859Y-140201960D01*
X377623861Y-140317429D01*
X377410501Y-140405805D01*
X377187432Y-140465576D01*
X376958469Y-140495720D01*
X376727531Y-140495720D01*
X376498568Y-140465576D01*
X376275499Y-140405805D01*
X376062139Y-140317429D01*
X375862141Y-140201960D01*
X375678925Y-140061373D01*
X375515627Y-139898075D01*
X375375040Y-139714859D01*
X375259571Y-139514861D01*
X375171195Y-139301501D01*
X375111424Y-139078432D01*
X375081280Y-138849469D01*
X375081280Y-138618531D01*
X375111424Y-138389568D01*
X375171195Y-138166499D01*
X375259571Y-137953139D01*
X375375040Y-137753141D01*
X375515627Y-137569925D01*
X375678925Y-137406627D01*
X375862141Y-137266040D01*
X376062139Y-137150571D01*
X376275499Y-137062195D01*
X376498568Y-137002424D01*
X376727531Y-136972280D01*
X376958469Y-136972280D01*
X377187432Y-137002424D01*
G37*
G36*
X371604808Y-137870936D02*
G01*
X371768153Y-137938595D01*
X371915159Y-138036822D01*
X372040178Y-138161841D01*
X372138405Y-138308847D01*
X372206064Y-138472192D01*
X372240557Y-138645598D01*
X372240557Y-138822402D01*
X372206064Y-138995808D01*
X372138405Y-139159153D01*
X372040178Y-139306159D01*
X371915159Y-139431178D01*
X371768153Y-139529405D01*
X371604808Y-139597064D01*
X371431402Y-139631557D01*
X371254598Y-139631557D01*
X371081192Y-139597064D01*
X370917847Y-139529405D01*
X370770841Y-139431178D01*
X370645822Y-139306159D01*
X370547595Y-139159153D01*
X370479936Y-138995808D01*
X370445443Y-138822402D01*
X370445443Y-138645598D01*
X370479936Y-138472192D01*
X370547595Y-138308847D01*
X370645822Y-138161841D01*
X370770841Y-138036822D01*
X370917847Y-137938595D01*
X371081192Y-137870936D01*
X371254598Y-137836443D01*
X371431402Y-137836443D01*
X371604808Y-137870936D01*
G37*
G36*
X382604808Y-137870936D02*
G01*
X382768153Y-137938595D01*
X382915159Y-138036822D01*
X383040178Y-138161841D01*
X383138405Y-138308847D01*
X383206064Y-138472192D01*
X383240557Y-138645598D01*
X383240557Y-138822402D01*
X383206064Y-138995808D01*
X383138405Y-139159153D01*
X383040178Y-139306159D01*
X382915159Y-139431178D01*
X382768153Y-139529405D01*
X382604808Y-139597064D01*
X382431402Y-139631557D01*
X382254598Y-139631557D01*
X382081192Y-139597064D01*
X381917847Y-139529405D01*
X381770841Y-139431178D01*
X381645822Y-139306159D01*
X381547595Y-139159153D01*
X381479936Y-138995808D01*
X381445443Y-138822402D01*
X381445443Y-138645598D01*
X381479936Y-138472192D01*
X381547595Y-138308847D01*
X381645822Y-138161841D01*
X381770841Y-138036822D01*
X381917847Y-137938595D01*
X382081192Y-137870936D01*
X382254598Y-137836443D01*
X382431402Y-137836443D01*
X382604808Y-137870936D01*
G37*
G36*
X381953482Y-133437781D02*
G01*
X381964690Y-133437781D01*
X382019888Y-133446523D01*
X382145534Y-133463065D01*
X382176189Y-133471279D01*
X382205074Y-133475854D01*
X382260620Y-133493902D01*
X382341467Y-133515565D01*
X382393050Y-133536931D01*
X382436542Y-133551063D01*
X382477286Y-133571823D01*
X382528870Y-133593190D01*
X382601353Y-133635038D01*
X382653395Y-133661555D01*
X382677055Y-133678745D01*
X382704539Y-133694613D01*
X382805074Y-133771756D01*
X382850294Y-133804610D01*
X382858219Y-133812535D01*
X382865466Y-133818096D01*
X383008903Y-133961533D01*
X383014463Y-133968779D01*
X383022390Y-133976706D01*
X383055247Y-134021930D01*
X383132386Y-134122460D01*
X383148252Y-134149941D01*
X383165445Y-134173605D01*
X383191964Y-134225652D01*
X383233809Y-134298129D01*
X383255173Y-134349706D01*
X383275937Y-134390458D01*
X383290070Y-134433955D01*
X383311434Y-134485532D01*
X383333093Y-134566366D01*
X383351146Y-134621926D01*
X383355721Y-134650816D01*
X383363934Y-134681465D01*
X383380474Y-134807099D01*
X383389219Y-134862310D01*
X383389219Y-134873518D01*
X383390412Y-134882580D01*
X383390412Y-135085419D01*
X383389219Y-135094480D01*
X383389219Y-135105690D01*
X383380473Y-135160905D01*
X383363934Y-135286534D01*
X383355722Y-135317180D01*
X383351146Y-135346074D01*
X383333091Y-135401638D01*
X383311434Y-135482467D01*
X383290071Y-135534039D01*
X383275937Y-135577542D01*
X383255171Y-135618297D01*
X383233809Y-135669870D01*
X383191968Y-135742338D01*
X383165445Y-135794395D01*
X383148249Y-135818062D01*
X383132386Y-135845539D01*
X383055261Y-135946050D01*
X383022390Y-135991294D01*
X383014459Y-135999224D01*
X383008903Y-136006466D01*
X382865466Y-136149903D01*
X382858224Y-136155459D01*
X382850294Y-136163390D01*
X382805050Y-136196261D01*
X382704539Y-136273386D01*
X382677062Y-136289249D01*
X382653395Y-136306445D01*
X382601338Y-136332968D01*
X382528870Y-136374809D01*
X382477297Y-136396171D01*
X382436542Y-136416937D01*
X382393039Y-136431071D01*
X382341467Y-136452434D01*
X382260638Y-136474091D01*
X382205074Y-136492146D01*
X382176180Y-136496722D01*
X382145534Y-136504934D01*
X382019902Y-136521474D01*
X381964690Y-136530219D01*
X381953481Y-136530219D01*
X381944420Y-136531412D01*
X381741580Y-136531412D01*
X381732519Y-136530219D01*
X381721310Y-136530219D01*
X381666099Y-136521474D01*
X381540465Y-136504934D01*
X381509816Y-136496721D01*
X381480926Y-136492146D01*
X381425366Y-136474093D01*
X381344532Y-136452434D01*
X381292955Y-136431070D01*
X381249458Y-136416937D01*
X381208706Y-136396173D01*
X381157129Y-136374809D01*
X381084652Y-136332964D01*
X381032605Y-136306445D01*
X381008941Y-136289252D01*
X380981460Y-136273386D01*
X380880930Y-136196247D01*
X380835706Y-136163390D01*
X380827779Y-136155463D01*
X380820533Y-136149903D01*
X380677096Y-136006466D01*
X380671535Y-135999219D01*
X380663610Y-135991294D01*
X380630756Y-135946074D01*
X380553613Y-135845539D01*
X380537745Y-135818055D01*
X380520555Y-135794395D01*
X380494038Y-135742353D01*
X380452190Y-135669870D01*
X380430823Y-135618286D01*
X380410063Y-135577542D01*
X380395931Y-135534050D01*
X380374565Y-135482467D01*
X380352902Y-135401620D01*
X380334854Y-135346074D01*
X380330279Y-135317189D01*
X380322065Y-135286534D01*
X380305524Y-135160891D01*
X380296781Y-135105690D01*
X380296781Y-135094480D01*
X380295588Y-135085419D01*
X380295588Y-134882580D01*
X380296781Y-134873518D01*
X380296781Y-134862310D01*
X380305523Y-134807113D01*
X380322065Y-134681465D01*
X380330279Y-134650807D01*
X380334854Y-134621926D01*
X380352900Y-134566383D01*
X380374565Y-134485532D01*
X380395933Y-134433944D01*
X380410063Y-134390458D01*
X380430821Y-134349717D01*
X380452190Y-134298129D01*
X380494042Y-134225637D01*
X380520555Y-134173605D01*
X380537742Y-134149948D01*
X380553613Y-134122460D01*
X380630770Y-134021906D01*
X380663610Y-133976706D01*
X380671532Y-133968783D01*
X380677096Y-133961533D01*
X380820533Y-133818096D01*
X380827783Y-133812532D01*
X380835706Y-133804610D01*
X380880906Y-133771770D01*
X380981460Y-133694613D01*
X381008948Y-133678742D01*
X381032605Y-133661555D01*
X381084637Y-133635042D01*
X381157129Y-133593190D01*
X381208717Y-133571821D01*
X381249458Y-133551063D01*
X381292944Y-133536933D01*
X381344532Y-133515565D01*
X381425383Y-133493900D01*
X381480926Y-133475854D01*
X381509807Y-133471279D01*
X381540465Y-133463065D01*
X381666113Y-133446523D01*
X381721310Y-133437781D01*
X381732518Y-133437781D01*
X381741580Y-133436588D01*
X381944420Y-133436588D01*
X381953482Y-133437781D01*
G37*
G36*
X386437517Y-133636882D02*
G01*
X386454062Y-133647938D01*
X386465118Y-133664483D01*
X386469000Y-133684000D01*
X386469000Y-136284000D01*
X386465118Y-136303517D01*
X386454062Y-136320062D01*
X386437517Y-136331118D01*
X386418000Y-136335000D01*
X383818000Y-136335000D01*
X383798483Y-136331118D01*
X383781938Y-136320062D01*
X383770882Y-136303517D01*
X383767000Y-136284000D01*
X383767000Y-133684000D01*
X383770882Y-133664483D01*
X383781938Y-133647938D01*
X383798483Y-133636882D01*
X383818000Y-133633000D01*
X386418000Y-133633000D01*
X386437517Y-133636882D01*
G37*
G36*
X376953482Y-131237781D02*
G01*
X376964690Y-131237781D01*
X377019888Y-131246523D01*
X377145534Y-131263065D01*
X377176189Y-131271279D01*
X377205074Y-131275854D01*
X377260620Y-131293902D01*
X377341467Y-131315565D01*
X377393050Y-131336931D01*
X377436542Y-131351063D01*
X377477286Y-131371823D01*
X377528870Y-131393190D01*
X377601353Y-131435038D01*
X377653395Y-131461555D01*
X377677055Y-131478745D01*
X377704539Y-131494613D01*
X377805074Y-131571756D01*
X377850294Y-131604610D01*
X377858219Y-131612535D01*
X377865466Y-131618096D01*
X378008903Y-131761533D01*
X378014463Y-131768779D01*
X378022390Y-131776706D01*
X378055247Y-131821930D01*
X378132386Y-131922460D01*
X378148252Y-131949941D01*
X378165445Y-131973605D01*
X378191964Y-132025652D01*
X378233809Y-132098129D01*
X378255173Y-132149706D01*
X378275937Y-132190458D01*
X378290070Y-132233955D01*
X378311434Y-132285532D01*
X378333093Y-132366366D01*
X378351146Y-132421926D01*
X378355721Y-132450816D01*
X378363934Y-132481465D01*
X378380474Y-132607099D01*
X378389219Y-132662310D01*
X378389219Y-132673518D01*
X378390412Y-132682580D01*
X378390412Y-132885419D01*
X378389219Y-132894480D01*
X378389219Y-132905690D01*
X378380473Y-132960905D01*
X378363934Y-133086534D01*
X378355722Y-133117180D01*
X378351146Y-133146074D01*
X378333091Y-133201638D01*
X378311434Y-133282467D01*
X378290071Y-133334039D01*
X378275937Y-133377542D01*
X378255171Y-133418297D01*
X378233809Y-133469870D01*
X378191968Y-133542338D01*
X378165445Y-133594395D01*
X378148249Y-133618062D01*
X378132386Y-133645539D01*
X378055261Y-133746050D01*
X378022390Y-133791294D01*
X378014459Y-133799224D01*
X378008903Y-133806466D01*
X377865466Y-133949903D01*
X377858224Y-133955459D01*
X377850294Y-133963390D01*
X377805050Y-133996261D01*
X377704539Y-134073386D01*
X377677062Y-134089249D01*
X377653395Y-134106445D01*
X377601338Y-134132968D01*
X377528870Y-134174809D01*
X377477297Y-134196171D01*
X377436542Y-134216937D01*
X377393039Y-134231071D01*
X377341467Y-134252434D01*
X377260638Y-134274091D01*
X377205074Y-134292146D01*
X377176180Y-134296722D01*
X377145534Y-134304934D01*
X377019902Y-134321474D01*
X376964690Y-134330219D01*
X376953481Y-134330219D01*
X376944420Y-134331412D01*
X376741580Y-134331412D01*
X376732519Y-134330219D01*
X376721310Y-134330219D01*
X376666099Y-134321474D01*
X376540465Y-134304934D01*
X376509816Y-134296721D01*
X376480926Y-134292146D01*
X376425366Y-134274093D01*
X376344532Y-134252434D01*
X376292955Y-134231070D01*
X376249458Y-134216937D01*
X376208706Y-134196173D01*
X376157129Y-134174809D01*
X376084652Y-134132964D01*
X376032605Y-134106445D01*
X376008941Y-134089252D01*
X375981460Y-134073386D01*
X375880930Y-133996247D01*
X375835706Y-133963390D01*
X375827779Y-133955463D01*
X375820533Y-133949903D01*
X375677096Y-133806466D01*
X375671535Y-133799219D01*
X375663610Y-133791294D01*
X375630756Y-133746074D01*
X375553613Y-133645539D01*
X375537745Y-133618055D01*
X375520555Y-133594395D01*
X375494038Y-133542353D01*
X375452190Y-133469870D01*
X375430823Y-133418286D01*
X375410063Y-133377542D01*
X375395931Y-133334050D01*
X375374565Y-133282467D01*
X375352902Y-133201620D01*
X375334854Y-133146074D01*
X375330279Y-133117189D01*
X375322065Y-133086534D01*
X375305524Y-132960891D01*
X375296781Y-132905690D01*
X375296781Y-132894480D01*
X375295588Y-132885419D01*
X375295588Y-132682580D01*
X375296781Y-132673518D01*
X375296781Y-132662310D01*
X375305523Y-132607113D01*
X375322065Y-132481465D01*
X375330279Y-132450807D01*
X375334854Y-132421926D01*
X375352900Y-132366383D01*
X375374565Y-132285532D01*
X375395933Y-132233944D01*
X375410063Y-132190458D01*
X375430821Y-132149717D01*
X375452190Y-132098129D01*
X375494042Y-132025637D01*
X375520555Y-131973605D01*
X375537742Y-131949948D01*
X375553613Y-131922460D01*
X375630770Y-131821906D01*
X375663610Y-131776706D01*
X375671532Y-131768783D01*
X375677096Y-131761533D01*
X375820533Y-131618096D01*
X375827783Y-131612532D01*
X375835706Y-131604610D01*
X375880906Y-131571770D01*
X375981460Y-131494613D01*
X376008948Y-131478742D01*
X376032605Y-131461555D01*
X376084637Y-131435042D01*
X376157129Y-131393190D01*
X376208717Y-131371821D01*
X376249458Y-131351063D01*
X376292944Y-131336933D01*
X376344532Y-131315565D01*
X376425383Y-131293900D01*
X376480926Y-131275854D01*
X376509807Y-131271279D01*
X376540465Y-131263065D01*
X376666113Y-131246523D01*
X376721310Y-131237781D01*
X376732518Y-131237781D01*
X376741580Y-131236588D01*
X376944420Y-131236588D01*
X376953482Y-131237781D01*
G37*
G36*
X374887517Y-131436882D02*
G01*
X374904062Y-131447938D01*
X374915118Y-131464483D01*
X374919000Y-131484000D01*
X374919000Y-134084000D01*
X374915118Y-134103517D01*
X374904062Y-134120062D01*
X374887517Y-134131118D01*
X374868000Y-134135000D01*
X372268000Y-134135000D01*
X372248483Y-134131118D01*
X372231938Y-134120062D01*
X372220882Y-134103517D01*
X372217000Y-134084000D01*
X372217000Y-131484000D01*
X372220882Y-131464483D01*
X372231938Y-131447938D01*
X372248483Y-131436882D01*
X372268000Y-131433000D01*
X374868000Y-131433000D01*
X374887517Y-131436882D01*
G37*
G36*
X386462517Y-125086882D02*
G01*
X386479062Y-125097938D01*
X386490118Y-125114483D01*
X386494000Y-125134000D01*
X386494000Y-126834000D01*
X386490118Y-126853517D01*
X386479062Y-126870062D01*
X386462517Y-126881118D01*
X386443000Y-126885000D01*
X384743000Y-126885000D01*
X384723483Y-126881118D01*
X384706938Y-126870062D01*
X384695882Y-126853517D01*
X384692000Y-126834000D01*
X384692000Y-125134000D01*
X384695882Y-125114483D01*
X384706938Y-125097938D01*
X384723483Y-125086882D01*
X384743000Y-125083000D01*
X386443000Y-125083000D01*
X386462517Y-125086882D01*
G37*
G36*
X378234546Y-125121797D02*
G01*
X378397728Y-125189389D01*
X378544588Y-125287518D01*
X378669482Y-125412412D01*
X378767611Y-125559272D01*
X378835203Y-125722454D01*
X378869661Y-125895687D01*
X378869661Y-126072313D01*
X378835203Y-126245546D01*
X378767611Y-126408728D01*
X378669482Y-126555588D01*
X378544588Y-126680482D01*
X378397728Y-126778611D01*
X378234546Y-126846203D01*
X378061313Y-126880661D01*
X377884687Y-126880661D01*
X377711454Y-126846203D01*
X377548272Y-126778611D01*
X377401412Y-126680482D01*
X377276518Y-126555588D01*
X377178389Y-126408728D01*
X377110797Y-126245546D01*
X377076339Y-126072313D01*
X377076339Y-125895687D01*
X377110797Y-125722454D01*
X377178389Y-125559272D01*
X377276518Y-125412412D01*
X377401412Y-125287518D01*
X377548272Y-125189389D01*
X377711454Y-125121797D01*
X377884687Y-125087339D01*
X378061313Y-125087339D01*
X378234546Y-125121797D01*
G37*
G36*
X380774546Y-125121797D02*
G01*
X380937728Y-125189389D01*
X381084588Y-125287518D01*
X381209482Y-125412412D01*
X381307611Y-125559272D01*
X381375203Y-125722454D01*
X381409661Y-125895687D01*
X381409661Y-126072313D01*
X381375203Y-126245546D01*
X381307611Y-126408728D01*
X381209482Y-126555588D01*
X381084588Y-126680482D01*
X380937728Y-126778611D01*
X380774546Y-126846203D01*
X380601313Y-126880661D01*
X380424687Y-126880661D01*
X380251454Y-126846203D01*
X380088272Y-126778611D01*
X379941412Y-126680482D01*
X379816518Y-126555588D01*
X379718389Y-126408728D01*
X379650797Y-126245546D01*
X379616339Y-126072313D01*
X379616339Y-125895687D01*
X379650797Y-125722454D01*
X379718389Y-125559272D01*
X379816518Y-125412412D01*
X379941412Y-125287518D01*
X380088272Y-125189389D01*
X380251454Y-125121797D01*
X380424687Y-125087339D01*
X380601313Y-125087339D01*
X380774546Y-125121797D01*
G37*
G36*
X383314546Y-125121797D02*
G01*
X383477728Y-125189389D01*
X383624588Y-125287518D01*
X383749482Y-125412412D01*
X383847611Y-125559272D01*
X383915203Y-125722454D01*
X383949661Y-125895687D01*
X383949661Y-126072313D01*
X383915203Y-126245546D01*
X383847611Y-126408728D01*
X383749482Y-126555588D01*
X383624588Y-126680482D01*
X383477728Y-126778611D01*
X383314546Y-126846203D01*
X383141313Y-126880661D01*
X382964687Y-126880661D01*
X382791454Y-126846203D01*
X382628272Y-126778611D01*
X382481412Y-126680482D01*
X382356518Y-126555588D01*
X382258389Y-126408728D01*
X382190797Y-126245546D01*
X382156339Y-126072313D01*
X382156339Y-125895687D01*
X382190797Y-125722454D01*
X382258389Y-125559272D01*
X382356518Y-125412412D01*
X382481412Y-125287518D01*
X382628272Y-125189389D01*
X382791454Y-125121797D01*
X382964687Y-125087339D01*
X383141313Y-125087339D01*
X383314546Y-125121797D01*
G37*
G36*
X324618466Y-121536851D02*
G01*
X324635011Y-121547907D01*
X325837093Y-122749989D01*
X325848149Y-122766534D01*
X325852030Y-122786051D01*
X325848149Y-122805568D01*
X325837093Y-122822113D01*
X324635011Y-124024195D01*
X324618466Y-124035251D01*
X324598949Y-124039132D01*
X324579432Y-124035251D01*
X324562887Y-124024195D01*
X323360805Y-122822113D01*
X323349749Y-122805568D01*
X323345868Y-122786051D01*
X323349749Y-122766534D01*
X323360805Y-122749989D01*
X324224734Y-121886060D01*
X324554182Y-121556611D01*
X324554185Y-121556608D01*
X324562887Y-121547907D01*
X324579432Y-121536851D01*
X324598949Y-121532970D01*
X324618466Y-121536851D01*
G37*
G36*
X323064444Y-120127797D02*
G01*
X323227626Y-120195389D01*
X323374486Y-120293518D01*
X323499380Y-120418412D01*
X323597509Y-120565272D01*
X323665101Y-120728454D01*
X323699559Y-120901687D01*
X323699559Y-121078313D01*
X323665101Y-121251546D01*
X323597509Y-121414728D01*
X323499380Y-121561588D01*
X323374486Y-121686482D01*
X323227626Y-121784611D01*
X323064444Y-121852203D01*
X322891211Y-121886661D01*
X322714585Y-121886661D01*
X322541352Y-121852203D01*
X322378170Y-121784611D01*
X322231310Y-121686482D01*
X322106416Y-121561588D01*
X322008287Y-121414728D01*
X321940695Y-121251546D01*
X321906237Y-121078313D01*
X321906237Y-120901687D01*
X321940695Y-120728454D01*
X322008287Y-120565272D01*
X322106416Y-120418412D01*
X322231310Y-120293518D01*
X322378170Y-120195389D01*
X322541352Y-120127797D01*
X322714585Y-120093339D01*
X322891211Y-120093339D01*
X323064444Y-120127797D01*
G37*
G36*
X352677308Y-116235043D02*
G01*
X352956207Y-116298700D01*
X353226225Y-116393183D01*
X353483967Y-116517305D01*
X353726190Y-116669504D01*
X353949850Y-116847867D01*
X354152133Y-117050150D01*
X354330496Y-117273810D01*
X354482695Y-117516033D01*
X354606817Y-117773775D01*
X354701300Y-118043793D01*
X354764957Y-118322692D01*
X354796987Y-118606964D01*
X354796987Y-118893036D01*
X354764957Y-119177308D01*
X354701300Y-119456207D01*
X354606817Y-119726225D01*
X354482695Y-119983967D01*
X354330496Y-120226190D01*
X354152133Y-120449850D01*
X353949850Y-120652133D01*
X353726190Y-120830496D01*
X353483967Y-120982695D01*
X353226225Y-121106817D01*
X352956207Y-121201300D01*
X352677308Y-121264957D01*
X352393036Y-121296987D01*
X352106964Y-121296987D01*
X351822692Y-121264957D01*
X351543793Y-121201300D01*
X351273775Y-121106817D01*
X351016033Y-120982695D01*
X350773810Y-120830496D01*
X350550150Y-120652133D01*
X350347867Y-120449850D01*
X350169504Y-120226190D01*
X350017305Y-119983967D01*
X349893183Y-119726225D01*
X349798700Y-119456207D01*
X349735043Y-119177308D01*
X349703013Y-118893036D01*
X349703013Y-118606964D01*
X349735043Y-118322692D01*
X349798700Y-118043793D01*
X349893183Y-117773775D01*
X350017305Y-117516033D01*
X350169504Y-117273810D01*
X350347867Y-117050150D01*
X350550150Y-116847867D01*
X350773810Y-116669504D01*
X351016033Y-116517305D01*
X351273775Y-116393183D01*
X351543793Y-116298700D01*
X351822692Y-116235043D01*
X352106964Y-116203013D01*
X352393036Y-116203013D01*
X352677308Y-116235043D01*
G37*
G36*
X332877308Y-116185043D02*
G01*
X333156207Y-116248700D01*
X333426225Y-116343183D01*
X333683967Y-116467305D01*
X333926190Y-116619504D01*
X334149850Y-116797867D01*
X334352133Y-117000150D01*
X334530496Y-117223810D01*
X334682695Y-117466033D01*
X334806817Y-117723775D01*
X334901300Y-117993793D01*
X334964957Y-118272692D01*
X334996987Y-118556964D01*
X334996987Y-118843036D01*
X334964957Y-119127308D01*
X334901300Y-119406207D01*
X334806817Y-119676225D01*
X334682695Y-119933967D01*
X334530496Y-120176190D01*
X334352133Y-120399850D01*
X334149850Y-120602133D01*
X333926190Y-120780496D01*
X333683967Y-120932695D01*
X333426225Y-121056817D01*
X333156207Y-121151300D01*
X332877308Y-121214957D01*
X332593036Y-121246987D01*
X332306964Y-121246987D01*
X332022692Y-121214957D01*
X331743793Y-121151300D01*
X331473775Y-121056817D01*
X331216033Y-120932695D01*
X330973810Y-120780496D01*
X330750150Y-120602133D01*
X330547867Y-120399850D01*
X330369504Y-120176190D01*
X330217305Y-119933967D01*
X330093183Y-119676225D01*
X329998700Y-119406207D01*
X329935043Y-119127308D01*
X329903013Y-118843036D01*
X329903013Y-118556964D01*
X329935043Y-118272692D01*
X329998700Y-117993793D01*
X330093183Y-117723775D01*
X330217305Y-117466033D01*
X330369504Y-117223810D01*
X330547867Y-117000150D01*
X330750150Y-116797867D01*
X330973810Y-116619504D01*
X331216033Y-116467305D01*
X331473775Y-116343183D01*
X331743793Y-116248700D01*
X332022692Y-116185043D01*
X332306964Y-116153013D01*
X332593036Y-116153013D01*
X332877308Y-116185043D01*
G37*
G36*
X321268393Y-118331746D02*
G01*
X321431575Y-118399338D01*
X321578435Y-118497467D01*
X321703329Y-118622361D01*
X321801458Y-118769221D01*
X321869050Y-118932403D01*
X321903508Y-119105636D01*
X321903508Y-119282262D01*
X321869050Y-119455495D01*
X321801458Y-119618677D01*
X321703329Y-119765537D01*
X321578435Y-119890431D01*
X321431575Y-119988560D01*
X321268393Y-120056152D01*
X321095160Y-120090610D01*
X320918534Y-120090610D01*
X320745301Y-120056152D01*
X320582119Y-119988560D01*
X320435259Y-119890431D01*
X320310365Y-119765537D01*
X320212236Y-119618677D01*
X320144644Y-119455495D01*
X320110186Y-119282262D01*
X320110186Y-119105636D01*
X320144644Y-118932403D01*
X320212236Y-118769221D01*
X320310365Y-118622361D01*
X320435259Y-118497467D01*
X320582119Y-118399338D01*
X320745301Y-118331746D01*
X320918534Y-118297288D01*
X321095160Y-118297288D01*
X321268393Y-118331746D01*
G37*
G36*
X319472341Y-116535694D02*
G01*
X319635523Y-116603286D01*
X319782383Y-116701415D01*
X319907277Y-116826309D01*
X320005406Y-116973169D01*
X320072998Y-117136351D01*
X320107456Y-117309584D01*
X320107456Y-117486210D01*
X320072998Y-117659443D01*
X320005406Y-117822625D01*
X319907277Y-117969485D01*
X319782383Y-118094379D01*
X319635523Y-118192508D01*
X319472341Y-118260100D01*
X319299108Y-118294558D01*
X319122482Y-118294558D01*
X318949249Y-118260100D01*
X318786067Y-118192508D01*
X318639207Y-118094379D01*
X318514313Y-117969485D01*
X318416184Y-117822625D01*
X318348592Y-117659443D01*
X318314134Y-117486210D01*
X318314134Y-117309584D01*
X318348592Y-117136351D01*
X318416184Y-116973169D01*
X318514313Y-116826309D01*
X318639207Y-116701415D01*
X318786067Y-116603286D01*
X318949249Y-116535694D01*
X319122482Y-116501236D01*
X319299108Y-116501236D01*
X319472341Y-116535694D01*
G37*
G36*
X362527308Y-99135043D02*
G01*
X362806207Y-99198700D01*
X363076225Y-99293183D01*
X363333967Y-99417305D01*
X363576190Y-99569504D01*
X363799850Y-99747867D01*
X364002133Y-99950150D01*
X364180496Y-100173810D01*
X364332695Y-100416033D01*
X364456817Y-100673775D01*
X364551300Y-100943793D01*
X364614957Y-101222692D01*
X364646987Y-101506964D01*
X364646987Y-101793036D01*
X364614957Y-102077308D01*
X364551300Y-102356207D01*
X364456817Y-102626225D01*
X364332695Y-102883967D01*
X364180496Y-103126190D01*
X364002133Y-103349850D01*
X363799850Y-103552133D01*
X363576190Y-103730496D01*
X363333967Y-103882695D01*
X363076225Y-104006817D01*
X362806207Y-104101300D01*
X362527308Y-104164957D01*
X362243036Y-104196987D01*
X361956964Y-104196987D01*
X361672692Y-104164957D01*
X361393793Y-104101300D01*
X361123775Y-104006817D01*
X360866033Y-103882695D01*
X360623810Y-103730496D01*
X360400150Y-103552133D01*
X360197867Y-103349850D01*
X360019504Y-103126190D01*
X359867305Y-102883967D01*
X359743183Y-102626225D01*
X359648700Y-102356207D01*
X359585043Y-102077308D01*
X359553013Y-101793036D01*
X359553013Y-101506964D01*
X359585043Y-101222692D01*
X359648700Y-100943793D01*
X359743183Y-100673775D01*
X359867305Y-100416033D01*
X360019504Y-100173810D01*
X360197867Y-99950150D01*
X360400150Y-99747867D01*
X360623810Y-99569504D01*
X360866033Y-99417305D01*
X361123775Y-99293183D01*
X361393793Y-99198700D01*
X361672692Y-99135043D01*
X361956964Y-99103013D01*
X362243036Y-99103013D01*
X362527308Y-99135043D01*
G37*
G36*
X323127308Y-99085043D02*
G01*
X323406207Y-99148700D01*
X323676225Y-99243183D01*
X323933967Y-99367305D01*
X324176190Y-99519504D01*
X324399850Y-99697867D01*
X324602133Y-99900150D01*
X324780496Y-100123810D01*
X324932695Y-100366033D01*
X325056817Y-100623775D01*
X325151300Y-100893793D01*
X325214957Y-101172692D01*
X325246987Y-101456964D01*
X325246987Y-101743036D01*
X325214957Y-102027308D01*
X325151300Y-102306207D01*
X325056817Y-102576225D01*
X324932695Y-102833967D01*
X324780496Y-103076190D01*
X324602133Y-103299850D01*
X324399850Y-103502133D01*
X324176190Y-103680496D01*
X323933967Y-103832695D01*
X323676225Y-103956817D01*
X323406207Y-104051300D01*
X323127308Y-104114957D01*
X322843036Y-104146987D01*
X322556964Y-104146987D01*
X322272692Y-104114957D01*
X321993793Y-104051300D01*
X321723775Y-103956817D01*
X321466033Y-103832695D01*
X321223810Y-103680496D01*
X321000150Y-103502133D01*
X320797867Y-103299850D01*
X320619504Y-103076190D01*
X320467305Y-102833967D01*
X320343183Y-102576225D01*
X320248700Y-102306207D01*
X320185043Y-102027308D01*
X320153013Y-101743036D01*
X320153013Y-101456964D01*
X320185043Y-101172692D01*
X320248700Y-100893793D01*
X320343183Y-100623775D01*
X320467305Y-100366033D01*
X320619504Y-100123810D01*
X320797867Y-99900150D01*
X321000150Y-99697867D01*
X321223810Y-99519504D01*
X321466033Y-99367305D01*
X321723775Y-99243183D01*
X321993793Y-99148700D01*
X322272692Y-99085043D01*
X322556964Y-99053013D01*
X322843036Y-99053013D01*
X323127308Y-99085043D01*
G37*
G36*
X332927308Y-81985043D02*
G01*
X333206207Y-82048700D01*
X333476225Y-82143183D01*
X333733967Y-82267305D01*
X333976190Y-82419504D01*
X334199850Y-82597867D01*
X334402133Y-82800150D01*
X334580496Y-83023810D01*
X334732695Y-83266033D01*
X334856817Y-83523775D01*
X334951300Y-83793793D01*
X335014957Y-84072692D01*
X335046987Y-84356964D01*
X335046987Y-84643036D01*
X335014957Y-84927308D01*
X334951300Y-85206207D01*
X334856817Y-85476225D01*
X334732695Y-85733967D01*
X334580496Y-85976190D01*
X334402133Y-86199850D01*
X334199850Y-86402133D01*
X333976190Y-86580496D01*
X333733967Y-86732695D01*
X333476225Y-86856817D01*
X333206207Y-86951300D01*
X332927308Y-87014957D01*
X332643036Y-87046987D01*
X332356964Y-87046987D01*
X332072692Y-87014957D01*
X331793793Y-86951300D01*
X331523775Y-86856817D01*
X331266033Y-86732695D01*
X331023810Y-86580496D01*
X330800150Y-86402133D01*
X330597867Y-86199850D01*
X330419504Y-85976190D01*
X330267305Y-85733967D01*
X330143183Y-85476225D01*
X330048700Y-85206207D01*
X329985043Y-84927308D01*
X329953013Y-84643036D01*
X329953013Y-84356964D01*
X329985043Y-84072692D01*
X330048700Y-83793793D01*
X330143183Y-83523775D01*
X330267305Y-83266033D01*
X330419504Y-83023810D01*
X330597867Y-82800150D01*
X330800150Y-82597867D01*
X331023810Y-82419504D01*
X331266033Y-82267305D01*
X331523775Y-82143183D01*
X331793793Y-82048700D01*
X332072692Y-81985043D01*
X332356964Y-81953013D01*
X332643036Y-81953013D01*
X332927308Y-81985043D01*
G37*
G36*
X352677308Y-81935043D02*
G01*
X352956207Y-81998700D01*
X353226225Y-82093183D01*
X353483967Y-82217305D01*
X353726190Y-82369504D01*
X353949850Y-82547867D01*
X354152133Y-82750150D01*
X354330496Y-82973810D01*
X354482695Y-83216033D01*
X354606817Y-83473775D01*
X354701300Y-83743793D01*
X354764957Y-84022692D01*
X354796987Y-84306964D01*
X354796987Y-84593036D01*
X354764957Y-84877308D01*
X354701300Y-85156207D01*
X354606817Y-85426225D01*
X354482695Y-85683967D01*
X354330496Y-85926190D01*
X354152133Y-86149850D01*
X353949850Y-86352133D01*
X353726190Y-86530496D01*
X353483967Y-86682695D01*
X353226225Y-86806817D01*
X352956207Y-86901300D01*
X352677308Y-86964957D01*
X352393036Y-86996987D01*
X352106964Y-86996987D01*
X351822692Y-86964957D01*
X351543793Y-86901300D01*
X351273775Y-86806817D01*
X351016033Y-86682695D01*
X350773810Y-86530496D01*
X350550150Y-86352133D01*
X350347867Y-86149850D01*
X350169504Y-85926190D01*
X350017305Y-85683967D01*
X349893183Y-85426225D01*
X349798700Y-85156207D01*
X349735043Y-84877308D01*
X349703013Y-84593036D01*
X349703013Y-84306964D01*
X349735043Y-84022692D01*
X349798700Y-83743793D01*
X349893183Y-83473775D01*
X350017305Y-83216033D01*
X350169504Y-82973810D01*
X350347867Y-82750150D01*
X350550150Y-82547867D01*
X350773810Y-82369504D01*
X351016033Y-82217305D01*
X351273775Y-82093183D01*
X351543793Y-81998700D01*
X351822692Y-81935043D01*
X352106964Y-81903013D01*
X352393036Y-81903013D01*
X352677308Y-81935043D01*
G37*
G36*
X319472341Y-84949900D02*
G01*
X319635523Y-85017492D01*
X319782383Y-85115621D01*
X319907277Y-85240515D01*
X320005406Y-85387375D01*
X320072998Y-85550557D01*
X320107456Y-85723790D01*
X320107456Y-85900416D01*
X320072998Y-86073649D01*
X320005406Y-86236831D01*
X319907277Y-86383691D01*
X319782383Y-86508585D01*
X319635523Y-86606714D01*
X319472341Y-86674306D01*
X319299108Y-86708764D01*
X319122482Y-86708764D01*
X318949249Y-86674306D01*
X318786067Y-86606714D01*
X318639207Y-86508585D01*
X318514313Y-86383691D01*
X318416184Y-86236831D01*
X318348592Y-86073649D01*
X318314134Y-85900416D01*
X318314134Y-85723790D01*
X318348592Y-85550557D01*
X318416184Y-85387375D01*
X318514313Y-85240515D01*
X318639207Y-85115621D01*
X318786067Y-85017492D01*
X318949249Y-84949900D01*
X319122482Y-84915442D01*
X319299108Y-84915442D01*
X319472341Y-84949900D01*
G37*
G36*
X321268393Y-83153848D02*
G01*
X321431575Y-83221440D01*
X321578435Y-83319569D01*
X321703329Y-83444463D01*
X321801458Y-83591323D01*
X321869050Y-83754505D01*
X321903508Y-83927738D01*
X321903508Y-84104364D01*
X321869050Y-84277597D01*
X321801458Y-84440779D01*
X321703329Y-84587639D01*
X321578435Y-84712533D01*
X321431575Y-84810662D01*
X321268393Y-84878254D01*
X321095160Y-84912712D01*
X320918534Y-84912712D01*
X320745301Y-84878254D01*
X320582119Y-84810662D01*
X320435259Y-84712533D01*
X320310365Y-84587639D01*
X320212236Y-84440779D01*
X320144644Y-84277597D01*
X320110186Y-84104364D01*
X320110186Y-83927738D01*
X320144644Y-83754505D01*
X320212236Y-83591323D01*
X320310365Y-83444463D01*
X320435259Y-83319569D01*
X320582119Y-83221440D01*
X320745301Y-83153848D01*
X320918534Y-83119390D01*
X321095160Y-83119390D01*
X321268393Y-83153848D01*
G37*
G36*
X323064444Y-81357797D02*
G01*
X323227626Y-81425389D01*
X323374486Y-81523518D01*
X323499380Y-81648412D01*
X323597509Y-81795272D01*
X323665101Y-81958454D01*
X323699559Y-82131687D01*
X323699559Y-82308313D01*
X323665101Y-82481546D01*
X323597509Y-82644728D01*
X323499380Y-82791588D01*
X323374486Y-82916482D01*
X323227626Y-83014611D01*
X323064444Y-83082203D01*
X322891211Y-83116661D01*
X322714585Y-83116661D01*
X322541352Y-83082203D01*
X322378170Y-83014611D01*
X322231310Y-82916482D01*
X322106416Y-82791588D01*
X322008287Y-82644728D01*
X321940695Y-82481546D01*
X321906237Y-82308313D01*
X321906237Y-82131687D01*
X321940695Y-81958454D01*
X322008287Y-81795272D01*
X322106416Y-81648412D01*
X322231310Y-81523518D01*
X322378170Y-81425389D01*
X322541352Y-81357797D01*
X322714585Y-81323339D01*
X322891211Y-81323339D01*
X323064444Y-81357797D01*
G37*
G36*
X324618466Y-79174749D02*
G01*
X324635011Y-79185805D01*
X325837093Y-80387887D01*
X325848149Y-80404432D01*
X325852030Y-80423949D01*
X325848149Y-80443466D01*
X325837093Y-80460011D01*
X324635011Y-81662093D01*
X324618466Y-81673149D01*
X324598949Y-81677030D01*
X324579432Y-81673149D01*
X324562887Y-81662093D01*
X323360805Y-80460011D01*
X323349749Y-80443466D01*
X323345868Y-80423949D01*
X323349749Y-80404432D01*
X323360805Y-80387887D01*
X323961846Y-79786846D01*
X324554182Y-79194509D01*
X324554185Y-79194506D01*
X324562887Y-79185805D01*
X324579432Y-79174749D01*
X324598949Y-79170868D01*
X324618466Y-79174749D01*
G37*
G36*
X386462517Y-76318882D02*
G01*
X386479062Y-76329938D01*
X386490118Y-76346483D01*
X386494000Y-76366000D01*
X386494000Y-78066000D01*
X386490118Y-78085517D01*
X386479062Y-78102062D01*
X386462517Y-78113118D01*
X386443000Y-78117000D01*
X384743000Y-78117000D01*
X384723483Y-78113118D01*
X384706938Y-78102062D01*
X384695882Y-78085517D01*
X384692000Y-78066000D01*
X384692000Y-76366000D01*
X384695882Y-76346483D01*
X384706938Y-76329938D01*
X384723483Y-76318882D01*
X384743000Y-76315000D01*
X386443000Y-76315000D01*
X386462517Y-76318882D01*
G37*
G36*
X378234546Y-76353797D02*
G01*
X378397728Y-76421389D01*
X378544588Y-76519518D01*
X378669482Y-76644412D01*
X378767611Y-76791272D01*
X378835203Y-76954454D01*
X378869661Y-77127687D01*
X378869661Y-77304313D01*
X378835203Y-77477546D01*
X378767611Y-77640728D01*
X378669482Y-77787588D01*
X378544588Y-77912482D01*
X378397728Y-78010611D01*
X378234546Y-78078203D01*
X378061313Y-78112661D01*
X377884687Y-78112661D01*
X377711454Y-78078203D01*
X377548272Y-78010611D01*
X377401412Y-77912482D01*
X377276518Y-77787588D01*
X377178389Y-77640728D01*
X377110797Y-77477546D01*
X377076339Y-77304313D01*
X377076339Y-77127687D01*
X377110797Y-76954454D01*
X377178389Y-76791272D01*
X377276518Y-76644412D01*
X377401412Y-76519518D01*
X377548272Y-76421389D01*
X377711454Y-76353797D01*
X377884687Y-76319339D01*
X378061313Y-76319339D01*
X378234546Y-76353797D01*
G37*
G36*
X380774546Y-76353797D02*
G01*
X380937728Y-76421389D01*
X381084588Y-76519518D01*
X381209482Y-76644412D01*
X381307611Y-76791272D01*
X381375203Y-76954454D01*
X381409661Y-77127687D01*
X381409661Y-77304313D01*
X381375203Y-77477546D01*
X381307611Y-77640728D01*
X381209482Y-77787588D01*
X381084588Y-77912482D01*
X380937728Y-78010611D01*
X380774546Y-78078203D01*
X380601313Y-78112661D01*
X380424687Y-78112661D01*
X380251454Y-78078203D01*
X380088272Y-78010611D01*
X379941412Y-77912482D01*
X379816518Y-77787588D01*
X379718389Y-77640728D01*
X379650797Y-77477546D01*
X379616339Y-77304313D01*
X379616339Y-77127687D01*
X379650797Y-76954454D01*
X379718389Y-76791272D01*
X379816518Y-76644412D01*
X379941412Y-76519518D01*
X380088272Y-76421389D01*
X380251454Y-76353797D01*
X380424687Y-76319339D01*
X380601313Y-76319339D01*
X380774546Y-76353797D01*
G37*
G36*
X383314546Y-76353797D02*
G01*
X383477728Y-76421389D01*
X383624588Y-76519518D01*
X383749482Y-76644412D01*
X383847611Y-76791272D01*
X383915203Y-76954454D01*
X383949661Y-77127687D01*
X383949661Y-77304313D01*
X383915203Y-77477546D01*
X383847611Y-77640728D01*
X383749482Y-77787588D01*
X383624588Y-77912482D01*
X383477728Y-78010611D01*
X383314546Y-78078203D01*
X383141313Y-78112661D01*
X382964687Y-78112661D01*
X382791454Y-78078203D01*
X382628272Y-78010611D01*
X382481412Y-77912482D01*
X382356518Y-77787588D01*
X382258389Y-77640728D01*
X382190797Y-77477546D01*
X382156339Y-77304313D01*
X382156339Y-77127687D01*
X382190797Y-76954454D01*
X382258389Y-76791272D01*
X382356518Y-76644412D01*
X382481412Y-76519518D01*
X382628272Y-76421389D01*
X382791454Y-76353797D01*
X382964687Y-76319339D01*
X383141313Y-76319339D01*
X383314546Y-76353797D01*
G37*
G36*
X376953482Y-68819781D02*
G01*
X376964690Y-68819781D01*
X377019888Y-68828523D01*
X377145534Y-68845065D01*
X377176189Y-68853279D01*
X377205074Y-68857854D01*
X377260620Y-68875902D01*
X377341467Y-68897565D01*
X377393050Y-68918931D01*
X377436542Y-68933063D01*
X377477286Y-68953823D01*
X377528870Y-68975190D01*
X377601353Y-69017038D01*
X377653395Y-69043555D01*
X377677055Y-69060745D01*
X377704539Y-69076613D01*
X377805074Y-69153756D01*
X377850294Y-69186610D01*
X377858219Y-69194535D01*
X377865466Y-69200096D01*
X378008903Y-69343533D01*
X378014463Y-69350779D01*
X378022390Y-69358706D01*
X378055247Y-69403930D01*
X378132386Y-69504460D01*
X378148252Y-69531941D01*
X378165445Y-69555605D01*
X378191964Y-69607652D01*
X378233809Y-69680129D01*
X378255173Y-69731706D01*
X378275937Y-69772458D01*
X378290070Y-69815955D01*
X378311434Y-69867532D01*
X378333093Y-69948366D01*
X378351146Y-70003926D01*
X378355721Y-70032816D01*
X378363934Y-70063465D01*
X378380474Y-70189099D01*
X378389219Y-70244310D01*
X378389219Y-70255518D01*
X378390412Y-70264580D01*
X378390412Y-70467419D01*
X378389219Y-70476480D01*
X378389219Y-70487690D01*
X378380473Y-70542905D01*
X378363934Y-70668534D01*
X378355722Y-70699180D01*
X378351146Y-70728074D01*
X378333091Y-70783638D01*
X378311434Y-70864467D01*
X378290071Y-70916039D01*
X378275937Y-70959542D01*
X378255171Y-71000297D01*
X378233809Y-71051870D01*
X378191968Y-71124338D01*
X378165445Y-71176395D01*
X378148249Y-71200062D01*
X378132386Y-71227539D01*
X378055261Y-71328050D01*
X378022390Y-71373294D01*
X378014459Y-71381224D01*
X378008903Y-71388466D01*
X377865466Y-71531903D01*
X377858224Y-71537459D01*
X377850294Y-71545390D01*
X377805050Y-71578261D01*
X377704539Y-71655386D01*
X377677062Y-71671249D01*
X377653395Y-71688445D01*
X377601338Y-71714968D01*
X377528870Y-71756809D01*
X377477297Y-71778171D01*
X377436542Y-71798937D01*
X377393039Y-71813071D01*
X377341467Y-71834434D01*
X377260638Y-71856091D01*
X377205074Y-71874146D01*
X377176180Y-71878722D01*
X377145534Y-71886934D01*
X377019902Y-71903474D01*
X376964690Y-71912219D01*
X376953481Y-71912219D01*
X376944420Y-71913412D01*
X376741580Y-71913412D01*
X376732519Y-71912219D01*
X376721310Y-71912219D01*
X376666099Y-71903474D01*
X376540465Y-71886934D01*
X376509816Y-71878721D01*
X376480926Y-71874146D01*
X376425366Y-71856093D01*
X376344532Y-71834434D01*
X376292955Y-71813070D01*
X376249458Y-71798937D01*
X376208706Y-71778173D01*
X376157129Y-71756809D01*
X376084652Y-71714964D01*
X376032605Y-71688445D01*
X376008941Y-71671252D01*
X375981460Y-71655386D01*
X375880930Y-71578247D01*
X375835706Y-71545390D01*
X375827779Y-71537463D01*
X375820533Y-71531903D01*
X375677096Y-71388466D01*
X375671535Y-71381219D01*
X375663610Y-71373294D01*
X375630756Y-71328074D01*
X375553613Y-71227539D01*
X375537745Y-71200055D01*
X375520555Y-71176395D01*
X375494038Y-71124353D01*
X375452190Y-71051870D01*
X375430823Y-71000286D01*
X375410063Y-70959542D01*
X375395931Y-70916050D01*
X375374565Y-70864467D01*
X375352902Y-70783620D01*
X375334854Y-70728074D01*
X375330279Y-70699189D01*
X375322065Y-70668534D01*
X375305524Y-70542891D01*
X375296781Y-70487690D01*
X375296781Y-70476480D01*
X375295588Y-70467419D01*
X375295588Y-70264580D01*
X375296781Y-70255518D01*
X375296781Y-70244310D01*
X375305523Y-70189113D01*
X375322065Y-70063465D01*
X375330279Y-70032807D01*
X375334854Y-70003926D01*
X375352900Y-69948383D01*
X375374565Y-69867532D01*
X375395933Y-69815944D01*
X375410063Y-69772458D01*
X375430821Y-69731717D01*
X375452190Y-69680129D01*
X375494042Y-69607637D01*
X375520555Y-69555605D01*
X375537742Y-69531948D01*
X375553613Y-69504460D01*
X375630770Y-69403906D01*
X375663610Y-69358706D01*
X375671532Y-69350783D01*
X375677096Y-69343533D01*
X375820533Y-69200096D01*
X375827783Y-69194532D01*
X375835706Y-69186610D01*
X375880906Y-69153770D01*
X375981460Y-69076613D01*
X376008948Y-69060742D01*
X376032605Y-69043555D01*
X376084637Y-69017042D01*
X376157129Y-68975190D01*
X376208717Y-68953821D01*
X376249458Y-68933063D01*
X376292944Y-68918933D01*
X376344532Y-68897565D01*
X376425383Y-68875900D01*
X376480926Y-68857854D01*
X376509807Y-68853279D01*
X376540465Y-68845065D01*
X376666113Y-68828523D01*
X376721310Y-68819781D01*
X376732518Y-68819781D01*
X376741580Y-68818588D01*
X376944420Y-68818588D01*
X376953482Y-68819781D01*
G37*
G36*
X381437517Y-69018882D02*
G01*
X381454062Y-69029938D01*
X381465118Y-69046483D01*
X381469000Y-69066000D01*
X381469000Y-71666000D01*
X381465118Y-71685517D01*
X381454062Y-71702062D01*
X381437517Y-71713118D01*
X381418000Y-71717000D01*
X378818000Y-71717000D01*
X378798483Y-71713118D01*
X378781938Y-71702062D01*
X378770882Y-71685517D01*
X378767000Y-71666000D01*
X378767000Y-69066000D01*
X378770882Y-69046483D01*
X378781938Y-69029938D01*
X378798483Y-69018882D01*
X378818000Y-69015000D01*
X381418000Y-69015000D01*
X381437517Y-69018882D01*
G37*
G36*
X371953482Y-66619781D02*
G01*
X371964690Y-66619781D01*
X372019888Y-66628523D01*
X372145534Y-66645065D01*
X372176189Y-66653279D01*
X372205074Y-66657854D01*
X372260620Y-66675902D01*
X372341467Y-66697565D01*
X372393050Y-66718931D01*
X372436542Y-66733063D01*
X372477286Y-66753823D01*
X372528870Y-66775190D01*
X372601353Y-66817038D01*
X372653395Y-66843555D01*
X372677055Y-66860745D01*
X372704539Y-66876613D01*
X372805074Y-66953756D01*
X372850294Y-66986610D01*
X372858219Y-66994535D01*
X372865466Y-67000096D01*
X373008903Y-67143533D01*
X373014463Y-67150779D01*
X373022390Y-67158706D01*
X373055247Y-67203930D01*
X373132386Y-67304460D01*
X373148252Y-67331941D01*
X373165445Y-67355605D01*
X373191964Y-67407652D01*
X373233809Y-67480129D01*
X373255173Y-67531706D01*
X373275937Y-67572458D01*
X373290070Y-67615955D01*
X373311434Y-67667532D01*
X373333093Y-67748366D01*
X373351146Y-67803926D01*
X373355721Y-67832816D01*
X373363934Y-67863465D01*
X373380474Y-67989099D01*
X373389219Y-68044310D01*
X373389219Y-68055518D01*
X373390412Y-68064580D01*
X373390412Y-68267419D01*
X373389219Y-68276480D01*
X373389219Y-68287690D01*
X373380473Y-68342905D01*
X373363934Y-68468534D01*
X373355722Y-68499180D01*
X373351146Y-68528074D01*
X373333091Y-68583638D01*
X373311434Y-68664467D01*
X373290071Y-68716039D01*
X373275937Y-68759542D01*
X373255171Y-68800297D01*
X373233809Y-68851870D01*
X373191968Y-68924338D01*
X373165445Y-68976395D01*
X373148249Y-69000062D01*
X373132386Y-69027539D01*
X373055261Y-69128050D01*
X373022390Y-69173294D01*
X373014459Y-69181224D01*
X373008903Y-69188466D01*
X372865466Y-69331903D01*
X372858224Y-69337459D01*
X372850294Y-69345390D01*
X372805050Y-69378261D01*
X372704539Y-69455386D01*
X372677062Y-69471249D01*
X372653395Y-69488445D01*
X372601338Y-69514968D01*
X372528870Y-69556809D01*
X372477297Y-69578171D01*
X372436542Y-69598937D01*
X372393039Y-69613071D01*
X372341467Y-69634434D01*
X372260638Y-69656091D01*
X372205074Y-69674146D01*
X372176180Y-69678722D01*
X372145534Y-69686934D01*
X372019902Y-69703474D01*
X371964690Y-69712219D01*
X371953481Y-69712219D01*
X371944420Y-69713412D01*
X371741580Y-69713412D01*
X371732519Y-69712219D01*
X371721310Y-69712219D01*
X371666099Y-69703474D01*
X371540465Y-69686934D01*
X371509816Y-69678721D01*
X371480926Y-69674146D01*
X371425366Y-69656093D01*
X371344532Y-69634434D01*
X371292955Y-69613070D01*
X371249458Y-69598937D01*
X371208706Y-69578173D01*
X371157129Y-69556809D01*
X371084652Y-69514964D01*
X371032605Y-69488445D01*
X371008941Y-69471252D01*
X370981460Y-69455386D01*
X370880930Y-69378247D01*
X370835706Y-69345390D01*
X370827779Y-69337463D01*
X370820533Y-69331903D01*
X370677096Y-69188466D01*
X370671535Y-69181219D01*
X370663610Y-69173294D01*
X370630756Y-69128074D01*
X370553613Y-69027539D01*
X370537745Y-69000055D01*
X370520555Y-68976395D01*
X370494038Y-68924353D01*
X370452190Y-68851870D01*
X370430823Y-68800286D01*
X370410063Y-68759542D01*
X370395931Y-68716050D01*
X370374565Y-68664467D01*
X370352902Y-68583620D01*
X370334854Y-68528074D01*
X370330279Y-68499189D01*
X370322065Y-68468534D01*
X370305524Y-68342891D01*
X370296781Y-68287690D01*
X370296781Y-68276480D01*
X370295588Y-68267419D01*
X370295588Y-68064580D01*
X370296781Y-68055518D01*
X370296781Y-68044310D01*
X370305523Y-67989113D01*
X370322065Y-67863465D01*
X370330279Y-67832807D01*
X370334854Y-67803926D01*
X370352900Y-67748383D01*
X370374565Y-67667532D01*
X370395933Y-67615944D01*
X370410063Y-67572458D01*
X370430821Y-67531717D01*
X370452190Y-67480129D01*
X370494042Y-67407637D01*
X370520555Y-67355605D01*
X370537742Y-67331948D01*
X370553613Y-67304460D01*
X370630770Y-67203906D01*
X370663610Y-67158706D01*
X370671532Y-67150783D01*
X370677096Y-67143533D01*
X370820533Y-67000096D01*
X370827783Y-66994532D01*
X370835706Y-66986610D01*
X370880906Y-66953770D01*
X370981460Y-66876613D01*
X371008948Y-66860742D01*
X371032605Y-66843555D01*
X371084637Y-66817042D01*
X371157129Y-66775190D01*
X371208717Y-66753821D01*
X371249458Y-66733063D01*
X371292944Y-66718933D01*
X371344532Y-66697565D01*
X371425383Y-66675900D01*
X371480926Y-66657854D01*
X371509807Y-66653279D01*
X371540465Y-66645065D01*
X371666113Y-66628523D01*
X371721310Y-66619781D01*
X371732518Y-66619781D01*
X371741580Y-66618588D01*
X371944420Y-66618588D01*
X371953482Y-66619781D01*
G37*
G36*
X369887517Y-66818882D02*
G01*
X369904062Y-66829938D01*
X369915118Y-66846483D01*
X369919000Y-66866000D01*
X369919000Y-69466000D01*
X369915118Y-69485517D01*
X369904062Y-69502062D01*
X369887517Y-69513118D01*
X369868000Y-69517000D01*
X367268000Y-69517000D01*
X367248483Y-69513118D01*
X367231938Y-69502062D01*
X367220882Y-69485517D01*
X367217000Y-69466000D01*
X367217000Y-66866000D01*
X367220882Y-66846483D01*
X367231938Y-66829938D01*
X367248483Y-66818882D01*
X367268000Y-66815000D01*
X369868000Y-66815000D01*
X369887517Y-66818882D01*
G37*
G36*
X377187432Y-62684424D02*
G01*
X377410501Y-62744195D01*
X377623861Y-62832571D01*
X377823859Y-62948040D01*
X378007075Y-63088627D01*
X378170373Y-63251925D01*
X378310960Y-63435141D01*
X378426429Y-63635139D01*
X378514805Y-63848499D01*
X378574576Y-64071568D01*
X378604720Y-64300531D01*
X378604720Y-64531469D01*
X378574576Y-64760432D01*
X378514805Y-64983501D01*
X378426429Y-65196861D01*
X378310960Y-65396859D01*
X378170373Y-65580075D01*
X378007075Y-65743373D01*
X377823859Y-65883960D01*
X377623861Y-65999429D01*
X377410501Y-66087805D01*
X377187432Y-66147576D01*
X376958469Y-66177720D01*
X376727531Y-66177720D01*
X376498568Y-66147576D01*
X376275499Y-66087805D01*
X376062139Y-65999429D01*
X375862141Y-65883960D01*
X375678925Y-65743373D01*
X375515627Y-65580075D01*
X375375040Y-65396859D01*
X375259571Y-65196861D01*
X375171195Y-64983501D01*
X375111424Y-64760432D01*
X375081280Y-64531469D01*
X375081280Y-64300531D01*
X375111424Y-64071568D01*
X375171195Y-63848499D01*
X375259571Y-63635139D01*
X375375040Y-63435141D01*
X375515627Y-63251925D01*
X375678925Y-63088627D01*
X375862141Y-62948040D01*
X376062139Y-62832571D01*
X376275499Y-62744195D01*
X376498568Y-62684424D01*
X376727531Y-62654280D01*
X376958469Y-62654280D01*
X377187432Y-62684424D01*
G37*
G36*
X371604808Y-63552936D02*
G01*
X371768153Y-63620595D01*
X371915159Y-63718822D01*
X372040178Y-63843841D01*
X372138405Y-63990847D01*
X372206064Y-64154192D01*
X372240557Y-64327598D01*
X372240557Y-64504402D01*
X372206064Y-64677808D01*
X372138405Y-64841153D01*
X372040178Y-64988159D01*
X371915159Y-65113178D01*
X371768153Y-65211405D01*
X371604808Y-65279064D01*
X371431402Y-65313557D01*
X371254598Y-65313557D01*
X371081192Y-65279064D01*
X370917847Y-65211405D01*
X370770841Y-65113178D01*
X370645822Y-64988159D01*
X370547595Y-64841153D01*
X370479936Y-64677808D01*
X370445443Y-64504402D01*
X370445443Y-64327598D01*
X370479936Y-64154192D01*
X370547595Y-63990847D01*
X370645822Y-63843841D01*
X370770841Y-63718822D01*
X370917847Y-63620595D01*
X371081192Y-63552936D01*
X371254598Y-63518443D01*
X371431402Y-63518443D01*
X371604808Y-63552936D01*
G37*
G36*
X382604808Y-63552936D02*
G01*
X382768153Y-63620595D01*
X382915159Y-63718822D01*
X383040178Y-63843841D01*
X383138405Y-63990847D01*
X383206064Y-64154192D01*
X383240557Y-64327598D01*
X383240557Y-64504402D01*
X383206064Y-64677808D01*
X383138405Y-64841153D01*
X383040178Y-64988159D01*
X382915159Y-65113178D01*
X382768153Y-65211405D01*
X382604808Y-65279064D01*
X382431402Y-65313557D01*
X382254598Y-65313557D01*
X382081192Y-65279064D01*
X381917847Y-65211405D01*
X381770841Y-65113178D01*
X381645822Y-64988159D01*
X381547595Y-64841153D01*
X381479936Y-64677808D01*
X381445443Y-64504402D01*
X381445443Y-64327598D01*
X381479936Y-64154192D01*
X381547595Y-63990847D01*
X381645822Y-63843841D01*
X381770841Y-63718822D01*
X381917847Y-63620595D01*
X382081192Y-63552936D01*
X382254598Y-63518443D01*
X382431402Y-63518443D01*
X382604808Y-63552936D01*
G37*
M02*
