M48
; DRILL file {KiCad 9.0.2} date 2025-09-19T14:57:47-0400
; FORMAT={-:-/ absolute / metric / decimal}
; #@! TF.CreationDate,2025-09-19T14:57:47-04:00
; #@! TF.GenerationSoftware,Kicad,Pcbnew,9.0.2
; #@! TF.FileFunction,Plated,1,2,PTH
FMAT,2
METRIC
; #@! TA.AperFunction,Plated,PTH,ComponentDrill
T1C1.000
; #@! TA.AperFunction,Plated,PTH,ComponentDrill
T2C2.500
%
G90
G05
T1
X319.211Y-85.812
X319.211Y-117.398
X321.007Y-84.016
X321.007Y-119.194
X322.803Y-82.22
X322.803Y-120.99
X324.599Y-80.424
X324.599Y-122.786
X377.973Y-77.216
X377.973Y-125.984
X380.513Y-77.216
X380.513Y-125.984
X383.053Y-77.216
X383.053Y-125.984
X385.593Y-77.216
X385.593Y-125.984
T2
X322.7Y-101.6
X332.45Y-118.7
X332.5Y-84.5
X352.25Y-84.45
X352.25Y-118.75
X362.1Y-101.65
M30
