G04 #@! TF.GenerationSoftware,KiCad,Pcbnew,9.0.2*
G04 #@! TF.CreationDate,2025-09-19T15:50:49-04:00*
G04 #@! TF.ProjectId,Trackball,54726163-6b62-4616-9c6c-2e6b69636164,rev?*
G04 #@! TF.SameCoordinates,Original*
G04 #@! TF.FileFunction,Legend,Bot*
G04 #@! TF.FilePolarity,Positive*
%FSLAX46Y46*%
G04 Gerber Fmt 4.6, Leading zero omitted, Abs format (unit mm)*
G04 Created by KiCad (PCBNEW 9.0.2) date 2025-09-19 15:50:49*
%MOMM*%
%LPD*%
G01*
G04 APERTURE LIST*
%ADD10C,0.300000*%
%ADD11C,0.150000*%
%ADD12C,0.120000*%
G04 APERTURE END LIST*
D10*
X375445996Y-96028572D02*
X376445996Y-96028572D01*
X375445996Y-95385714D02*
X376231710Y-95385714D01*
X376231710Y-95385714D02*
X376374568Y-95457143D01*
X376374568Y-95457143D02*
X376445996Y-95600000D01*
X376445996Y-95600000D02*
X376445996Y-95814286D01*
X376445996Y-95814286D02*
X376374568Y-95957143D01*
X376374568Y-95957143D02*
X376303139Y-96028572D01*
X374874568Y-97814286D02*
X376803139Y-96528572D01*
X376445996Y-98957144D02*
X375660282Y-98957144D01*
X375660282Y-98957144D02*
X375517425Y-98885715D01*
X375517425Y-98885715D02*
X375445996Y-98742858D01*
X375445996Y-98742858D02*
X375445996Y-98457144D01*
X375445996Y-98457144D02*
X375517425Y-98314286D01*
X376374568Y-98957144D02*
X376445996Y-98814286D01*
X376445996Y-98814286D02*
X376445996Y-98457144D01*
X376445996Y-98457144D02*
X376374568Y-98314286D01*
X376374568Y-98314286D02*
X376231710Y-98242858D01*
X376231710Y-98242858D02*
X376088853Y-98242858D01*
X376088853Y-98242858D02*
X375945996Y-98314286D01*
X375945996Y-98314286D02*
X375874568Y-98457144D01*
X375874568Y-98457144D02*
X375874568Y-98814286D01*
X375874568Y-98814286D02*
X375803139Y-98957144D01*
X376445996Y-99671429D02*
X374945996Y-99671429D01*
X375874568Y-99814287D02*
X376445996Y-100242858D01*
X375445996Y-100242858D02*
X376017425Y-99671429D01*
X374945996Y-101528573D02*
X374945996Y-101242858D01*
X374945996Y-101242858D02*
X375017425Y-101100001D01*
X375017425Y-101100001D02*
X375088853Y-101028573D01*
X375088853Y-101028573D02*
X375303139Y-100885715D01*
X375303139Y-100885715D02*
X375588853Y-100814287D01*
X375588853Y-100814287D02*
X376160282Y-100814287D01*
X376160282Y-100814287D02*
X376303139Y-100885715D01*
X376303139Y-100885715D02*
X376374568Y-100957144D01*
X376374568Y-100957144D02*
X376445996Y-101100001D01*
X376445996Y-101100001D02*
X376445996Y-101385715D01*
X376445996Y-101385715D02*
X376374568Y-101528573D01*
X376374568Y-101528573D02*
X376303139Y-101600001D01*
X376303139Y-101600001D02*
X376160282Y-101671430D01*
X376160282Y-101671430D02*
X375803139Y-101671430D01*
X375803139Y-101671430D02*
X375660282Y-101600001D01*
X375660282Y-101600001D02*
X375588853Y-101528573D01*
X375588853Y-101528573D02*
X375517425Y-101385715D01*
X375517425Y-101385715D02*
X375517425Y-101100001D01*
X375517425Y-101100001D02*
X375588853Y-100957144D01*
X375588853Y-100957144D02*
X375660282Y-100885715D01*
X375660282Y-100885715D02*
X375803139Y-100814287D01*
X374945996Y-102957144D02*
X374945996Y-102671429D01*
X374945996Y-102671429D02*
X375017425Y-102528572D01*
X375017425Y-102528572D02*
X375088853Y-102457144D01*
X375088853Y-102457144D02*
X375303139Y-102314286D01*
X375303139Y-102314286D02*
X375588853Y-102242858D01*
X375588853Y-102242858D02*
X376160282Y-102242858D01*
X376160282Y-102242858D02*
X376303139Y-102314286D01*
X376303139Y-102314286D02*
X376374568Y-102385715D01*
X376374568Y-102385715D02*
X376445996Y-102528572D01*
X376445996Y-102528572D02*
X376445996Y-102814286D01*
X376445996Y-102814286D02*
X376374568Y-102957144D01*
X376374568Y-102957144D02*
X376303139Y-103028572D01*
X376303139Y-103028572D02*
X376160282Y-103100001D01*
X376160282Y-103100001D02*
X375803139Y-103100001D01*
X375803139Y-103100001D02*
X375660282Y-103028572D01*
X375660282Y-103028572D02*
X375588853Y-102957144D01*
X375588853Y-102957144D02*
X375517425Y-102814286D01*
X375517425Y-102814286D02*
X375517425Y-102528572D01*
X375517425Y-102528572D02*
X375588853Y-102385715D01*
X375588853Y-102385715D02*
X375660282Y-102314286D01*
X375660282Y-102314286D02*
X375803139Y-102242858D01*
X374945996Y-104385715D02*
X374945996Y-104100000D01*
X374945996Y-104100000D02*
X375017425Y-103957143D01*
X375017425Y-103957143D02*
X375088853Y-103885715D01*
X375088853Y-103885715D02*
X375303139Y-103742857D01*
X375303139Y-103742857D02*
X375588853Y-103671429D01*
X375588853Y-103671429D02*
X376160282Y-103671429D01*
X376160282Y-103671429D02*
X376303139Y-103742857D01*
X376303139Y-103742857D02*
X376374568Y-103814286D01*
X376374568Y-103814286D02*
X376445996Y-103957143D01*
X376445996Y-103957143D02*
X376445996Y-104242857D01*
X376445996Y-104242857D02*
X376374568Y-104385715D01*
X376374568Y-104385715D02*
X376303139Y-104457143D01*
X376303139Y-104457143D02*
X376160282Y-104528572D01*
X376160282Y-104528572D02*
X375803139Y-104528572D01*
X375803139Y-104528572D02*
X375660282Y-104457143D01*
X375660282Y-104457143D02*
X375588853Y-104385715D01*
X375588853Y-104385715D02*
X375517425Y-104242857D01*
X375517425Y-104242857D02*
X375517425Y-103957143D01*
X375517425Y-103957143D02*
X375588853Y-103814286D01*
X375588853Y-103814286D02*
X375660282Y-103742857D01*
X375660282Y-103742857D02*
X375803139Y-103671429D01*
X374945996Y-105814286D02*
X374945996Y-105528571D01*
X374945996Y-105528571D02*
X375017425Y-105385714D01*
X375017425Y-105385714D02*
X375088853Y-105314286D01*
X375088853Y-105314286D02*
X375303139Y-105171428D01*
X375303139Y-105171428D02*
X375588853Y-105100000D01*
X375588853Y-105100000D02*
X376160282Y-105100000D01*
X376160282Y-105100000D02*
X376303139Y-105171428D01*
X376303139Y-105171428D02*
X376374568Y-105242857D01*
X376374568Y-105242857D02*
X376445996Y-105385714D01*
X376445996Y-105385714D02*
X376445996Y-105671428D01*
X376445996Y-105671428D02*
X376374568Y-105814286D01*
X376374568Y-105814286D02*
X376303139Y-105885714D01*
X376303139Y-105885714D02*
X376160282Y-105957143D01*
X376160282Y-105957143D02*
X375803139Y-105957143D01*
X375803139Y-105957143D02*
X375660282Y-105885714D01*
X375660282Y-105885714D02*
X375588853Y-105814286D01*
X375588853Y-105814286D02*
X375517425Y-105671428D01*
X375517425Y-105671428D02*
X375517425Y-105385714D01*
X375517425Y-105385714D02*
X375588853Y-105242857D01*
X375588853Y-105242857D02*
X375660282Y-105171428D01*
X375660282Y-105171428D02*
X375803139Y-105100000D01*
X374945996Y-107242857D02*
X374945996Y-106957142D01*
X374945996Y-106957142D02*
X375017425Y-106814285D01*
X375017425Y-106814285D02*
X375088853Y-106742857D01*
X375088853Y-106742857D02*
X375303139Y-106599999D01*
X375303139Y-106599999D02*
X375588853Y-106528571D01*
X375588853Y-106528571D02*
X376160282Y-106528571D01*
X376160282Y-106528571D02*
X376303139Y-106599999D01*
X376303139Y-106599999D02*
X376374568Y-106671428D01*
X376374568Y-106671428D02*
X376445996Y-106814285D01*
X376445996Y-106814285D02*
X376445996Y-107099999D01*
X376445996Y-107099999D02*
X376374568Y-107242857D01*
X376374568Y-107242857D02*
X376303139Y-107314285D01*
X376303139Y-107314285D02*
X376160282Y-107385714D01*
X376160282Y-107385714D02*
X375803139Y-107385714D01*
X375803139Y-107385714D02*
X375660282Y-107314285D01*
X375660282Y-107314285D02*
X375588853Y-107242857D01*
X375588853Y-107242857D02*
X375517425Y-107099999D01*
X375517425Y-107099999D02*
X375517425Y-106814285D01*
X375517425Y-106814285D02*
X375588853Y-106671428D01*
X375588853Y-106671428D02*
X375660282Y-106599999D01*
X375660282Y-106599999D02*
X375803139Y-106528571D01*
X377360912Y-87921429D02*
X377360912Y-88778572D01*
X378860912Y-88350000D02*
X377360912Y-88350000D01*
X378860912Y-89278571D02*
X377360912Y-89278571D01*
X378860912Y-89921429D02*
X378075198Y-89921429D01*
X378075198Y-89921429D02*
X377932341Y-89850000D01*
X377932341Y-89850000D02*
X377860912Y-89707143D01*
X377860912Y-89707143D02*
X377860912Y-89492857D01*
X377860912Y-89492857D02*
X377932341Y-89350000D01*
X377932341Y-89350000D02*
X378003769Y-89278571D01*
X377860912Y-91278572D02*
X378860912Y-91278572D01*
X377860912Y-90635714D02*
X378646626Y-90635714D01*
X378646626Y-90635714D02*
X378789484Y-90707143D01*
X378789484Y-90707143D02*
X378860912Y-90850000D01*
X378860912Y-90850000D02*
X378860912Y-91064286D01*
X378860912Y-91064286D02*
X378789484Y-91207143D01*
X378789484Y-91207143D02*
X378718055Y-91278572D01*
X378860912Y-91992857D02*
X377860912Y-91992857D01*
X378003769Y-91992857D02*
X377932341Y-92064286D01*
X377932341Y-92064286D02*
X377860912Y-92207143D01*
X377860912Y-92207143D02*
X377860912Y-92421429D01*
X377860912Y-92421429D02*
X377932341Y-92564286D01*
X377932341Y-92564286D02*
X378075198Y-92635715D01*
X378075198Y-92635715D02*
X378860912Y-92635715D01*
X378075198Y-92635715D02*
X377932341Y-92707143D01*
X377932341Y-92707143D02*
X377860912Y-92850000D01*
X377860912Y-92850000D02*
X377860912Y-93064286D01*
X377860912Y-93064286D02*
X377932341Y-93207143D01*
X377932341Y-93207143D02*
X378075198Y-93278572D01*
X378075198Y-93278572D02*
X378860912Y-93278572D01*
X378860912Y-93992857D02*
X377360912Y-93992857D01*
X377932341Y-93992857D02*
X377860912Y-94135715D01*
X377860912Y-94135715D02*
X377860912Y-94421429D01*
X377860912Y-94421429D02*
X377932341Y-94564286D01*
X377932341Y-94564286D02*
X378003769Y-94635715D01*
X378003769Y-94635715D02*
X378146626Y-94707143D01*
X378146626Y-94707143D02*
X378575198Y-94707143D01*
X378575198Y-94707143D02*
X378718055Y-94635715D01*
X378718055Y-94635715D02*
X378789484Y-94564286D01*
X378789484Y-94564286D02*
X378860912Y-94421429D01*
X378860912Y-94421429D02*
X378860912Y-94135715D01*
X378860912Y-94135715D02*
X378789484Y-93992857D01*
X378789484Y-95278572D02*
X378860912Y-95421429D01*
X378860912Y-95421429D02*
X378860912Y-95707143D01*
X378860912Y-95707143D02*
X378789484Y-95850000D01*
X378789484Y-95850000D02*
X378646626Y-95921429D01*
X378646626Y-95921429D02*
X378575198Y-95921429D01*
X378575198Y-95921429D02*
X378432341Y-95850000D01*
X378432341Y-95850000D02*
X378360912Y-95707143D01*
X378360912Y-95707143D02*
X378360912Y-95492858D01*
X378360912Y-95492858D02*
X378289484Y-95350000D01*
X378289484Y-95350000D02*
X378146626Y-95278572D01*
X378146626Y-95278572D02*
X378075198Y-95278572D01*
X378075198Y-95278572D02*
X377932341Y-95350000D01*
X377932341Y-95350000D02*
X377860912Y-95492858D01*
X377860912Y-95492858D02*
X377860912Y-95707143D01*
X377860912Y-95707143D02*
X377932341Y-95850000D01*
X377360912Y-96564286D02*
X378575198Y-96564286D01*
X378575198Y-96564286D02*
X378718055Y-96635715D01*
X378718055Y-96635715D02*
X378789484Y-96707144D01*
X378789484Y-96707144D02*
X378860912Y-96850001D01*
X378860912Y-96850001D02*
X378860912Y-97135715D01*
X378860912Y-97135715D02*
X378789484Y-97278572D01*
X378789484Y-97278572D02*
X378718055Y-97350001D01*
X378718055Y-97350001D02*
X378575198Y-97421429D01*
X378575198Y-97421429D02*
X377360912Y-97421429D01*
X377860912Y-98135715D02*
X379360912Y-98135715D01*
X377932341Y-98135715D02*
X377860912Y-98278573D01*
X377860912Y-98278573D02*
X377860912Y-98564287D01*
X377860912Y-98564287D02*
X377932341Y-98707144D01*
X377932341Y-98707144D02*
X378003769Y-98778573D01*
X378003769Y-98778573D02*
X378146626Y-98850001D01*
X378146626Y-98850001D02*
X378575198Y-98850001D01*
X378575198Y-98850001D02*
X378718055Y-98778573D01*
X378718055Y-98778573D02*
X378789484Y-98707144D01*
X378789484Y-98707144D02*
X378860912Y-98564287D01*
X378860912Y-98564287D02*
X378860912Y-98278573D01*
X378860912Y-98278573D02*
X378789484Y-98135715D01*
X378718055Y-99492858D02*
X378789484Y-99564287D01*
X378789484Y-99564287D02*
X378860912Y-99492858D01*
X378860912Y-99492858D02*
X378789484Y-99421430D01*
X378789484Y-99421430D02*
X378718055Y-99492858D01*
X378718055Y-99492858D02*
X378860912Y-99492858D01*
X378289484Y-99492858D02*
X377432341Y-99421430D01*
X377432341Y-99421430D02*
X377360912Y-99492858D01*
X377360912Y-99492858D02*
X377432341Y-99564287D01*
X377432341Y-99564287D02*
X378289484Y-99492858D01*
X378289484Y-99492858D02*
X377360912Y-99492858D01*
X377360912Y-101135716D02*
X377360912Y-101992859D01*
X378860912Y-101564287D02*
X377360912Y-101564287D01*
X378860912Y-102492858D02*
X377860912Y-102492858D01*
X378146626Y-102492858D02*
X378003769Y-102564287D01*
X378003769Y-102564287D02*
X377932341Y-102635716D01*
X377932341Y-102635716D02*
X377860912Y-102778573D01*
X377860912Y-102778573D02*
X377860912Y-102921430D01*
X378860912Y-104064287D02*
X378075198Y-104064287D01*
X378075198Y-104064287D02*
X377932341Y-103992858D01*
X377932341Y-103992858D02*
X377860912Y-103850001D01*
X377860912Y-103850001D02*
X377860912Y-103564287D01*
X377860912Y-103564287D02*
X377932341Y-103421429D01*
X378789484Y-104064287D02*
X378860912Y-103921429D01*
X378860912Y-103921429D02*
X378860912Y-103564287D01*
X378860912Y-103564287D02*
X378789484Y-103421429D01*
X378789484Y-103421429D02*
X378646626Y-103350001D01*
X378646626Y-103350001D02*
X378503769Y-103350001D01*
X378503769Y-103350001D02*
X378360912Y-103421429D01*
X378360912Y-103421429D02*
X378289484Y-103564287D01*
X378289484Y-103564287D02*
X378289484Y-103921429D01*
X378289484Y-103921429D02*
X378218055Y-104064287D01*
X378789484Y-105421430D02*
X378860912Y-105278572D01*
X378860912Y-105278572D02*
X378860912Y-104992858D01*
X378860912Y-104992858D02*
X378789484Y-104850001D01*
X378789484Y-104850001D02*
X378718055Y-104778572D01*
X378718055Y-104778572D02*
X378575198Y-104707144D01*
X378575198Y-104707144D02*
X378146626Y-104707144D01*
X378146626Y-104707144D02*
X378003769Y-104778572D01*
X378003769Y-104778572D02*
X377932341Y-104850001D01*
X377932341Y-104850001D02*
X377860912Y-104992858D01*
X377860912Y-104992858D02*
X377860912Y-105278572D01*
X377860912Y-105278572D02*
X377932341Y-105421430D01*
X378860912Y-106064286D02*
X377360912Y-106064286D01*
X378289484Y-106207144D02*
X378860912Y-106635715D01*
X377860912Y-106635715D02*
X378432341Y-106064286D01*
X378860912Y-107278572D02*
X377360912Y-107278572D01*
X377932341Y-107278572D02*
X377860912Y-107421430D01*
X377860912Y-107421430D02*
X377860912Y-107707144D01*
X377860912Y-107707144D02*
X377932341Y-107850001D01*
X377932341Y-107850001D02*
X378003769Y-107921430D01*
X378003769Y-107921430D02*
X378146626Y-107992858D01*
X378146626Y-107992858D02*
X378575198Y-107992858D01*
X378575198Y-107992858D02*
X378718055Y-107921430D01*
X378718055Y-107921430D02*
X378789484Y-107850001D01*
X378789484Y-107850001D02*
X378860912Y-107707144D01*
X378860912Y-107707144D02*
X378860912Y-107421430D01*
X378860912Y-107421430D02*
X378789484Y-107278572D01*
X378860912Y-109278573D02*
X378075198Y-109278573D01*
X378075198Y-109278573D02*
X377932341Y-109207144D01*
X377932341Y-109207144D02*
X377860912Y-109064287D01*
X377860912Y-109064287D02*
X377860912Y-108778573D01*
X377860912Y-108778573D02*
X377932341Y-108635715D01*
X378789484Y-109278573D02*
X378860912Y-109135715D01*
X378860912Y-109135715D02*
X378860912Y-108778573D01*
X378860912Y-108778573D02*
X378789484Y-108635715D01*
X378789484Y-108635715D02*
X378646626Y-108564287D01*
X378646626Y-108564287D02*
X378503769Y-108564287D01*
X378503769Y-108564287D02*
X378360912Y-108635715D01*
X378360912Y-108635715D02*
X378289484Y-108778573D01*
X378289484Y-108778573D02*
X378289484Y-109135715D01*
X378289484Y-109135715D02*
X378218055Y-109278573D01*
X378860912Y-110207144D02*
X378789484Y-110064287D01*
X378789484Y-110064287D02*
X378646626Y-109992858D01*
X378646626Y-109992858D02*
X377360912Y-109992858D01*
X378860912Y-110992858D02*
X378789484Y-110850001D01*
X378789484Y-110850001D02*
X378646626Y-110778572D01*
X378646626Y-110778572D02*
X377360912Y-110778572D01*
X377860912Y-112564286D02*
X378860912Y-112921429D01*
X378860912Y-112921429D02*
X377860912Y-113278572D01*
X377860912Y-114492858D02*
X378860912Y-114492858D01*
X377289484Y-114135715D02*
X378360912Y-113778572D01*
X378360912Y-113778572D02*
X378360912Y-114707143D01*
X380275828Y-96135715D02*
X381275828Y-96135715D01*
X379704400Y-95778572D02*
X380775828Y-95421429D01*
X380775828Y-95421429D02*
X380775828Y-96350000D01*
X380275828Y-97564286D02*
X381275828Y-97564286D01*
X379704400Y-97207143D02*
X380775828Y-96850000D01*
X380775828Y-96850000D02*
X380775828Y-97778571D01*
X381275828Y-98349999D02*
X380275828Y-98349999D01*
X380418685Y-98349999D02*
X380347257Y-98421428D01*
X380347257Y-98421428D02*
X380275828Y-98564285D01*
X380275828Y-98564285D02*
X380275828Y-98778571D01*
X380275828Y-98778571D02*
X380347257Y-98921428D01*
X380347257Y-98921428D02*
X380490114Y-98992857D01*
X380490114Y-98992857D02*
X381275828Y-98992857D01*
X380490114Y-98992857D02*
X380347257Y-99064285D01*
X380347257Y-99064285D02*
X380275828Y-99207142D01*
X380275828Y-99207142D02*
X380275828Y-99421428D01*
X380275828Y-99421428D02*
X380347257Y-99564285D01*
X380347257Y-99564285D02*
X380490114Y-99635714D01*
X380490114Y-99635714D02*
X381275828Y-99635714D01*
X381275828Y-100349999D02*
X380275828Y-100349999D01*
X380418685Y-100349999D02*
X380347257Y-100421428D01*
X380347257Y-100421428D02*
X380275828Y-100564285D01*
X380275828Y-100564285D02*
X380275828Y-100778571D01*
X380275828Y-100778571D02*
X380347257Y-100921428D01*
X380347257Y-100921428D02*
X380490114Y-100992857D01*
X380490114Y-100992857D02*
X381275828Y-100992857D01*
X380490114Y-100992857D02*
X380347257Y-101064285D01*
X380347257Y-101064285D02*
X380275828Y-101207142D01*
X380275828Y-101207142D02*
X380275828Y-101421428D01*
X380275828Y-101421428D02*
X380347257Y-101564285D01*
X380347257Y-101564285D02*
X380490114Y-101635714D01*
X380490114Y-101635714D02*
X381275828Y-101635714D01*
X380490114Y-103992856D02*
X380561542Y-104207142D01*
X380561542Y-104207142D02*
X380632971Y-104278571D01*
X380632971Y-104278571D02*
X380775828Y-104349999D01*
X380775828Y-104349999D02*
X380990114Y-104349999D01*
X380990114Y-104349999D02*
X381132971Y-104278571D01*
X381132971Y-104278571D02*
X381204400Y-104207142D01*
X381204400Y-104207142D02*
X381275828Y-104064285D01*
X381275828Y-104064285D02*
X381275828Y-103492856D01*
X381275828Y-103492856D02*
X379775828Y-103492856D01*
X379775828Y-103492856D02*
X379775828Y-103992856D01*
X379775828Y-103992856D02*
X379847257Y-104135714D01*
X379847257Y-104135714D02*
X379918685Y-104207142D01*
X379918685Y-104207142D02*
X380061542Y-104278571D01*
X380061542Y-104278571D02*
X380204400Y-104278571D01*
X380204400Y-104278571D02*
X380347257Y-104207142D01*
X380347257Y-104207142D02*
X380418685Y-104135714D01*
X380418685Y-104135714D02*
X380490114Y-103992856D01*
X380490114Y-103992856D02*
X380490114Y-103492856D01*
X381275828Y-105635714D02*
X380490114Y-105635714D01*
X380490114Y-105635714D02*
X380347257Y-105564285D01*
X380347257Y-105564285D02*
X380275828Y-105421428D01*
X380275828Y-105421428D02*
X380275828Y-105135714D01*
X380275828Y-105135714D02*
X380347257Y-104992856D01*
X381204400Y-105635714D02*
X381275828Y-105492856D01*
X381275828Y-105492856D02*
X381275828Y-105135714D01*
X381275828Y-105135714D02*
X381204400Y-104992856D01*
X381204400Y-104992856D02*
X381061542Y-104921428D01*
X381061542Y-104921428D02*
X380918685Y-104921428D01*
X380918685Y-104921428D02*
X380775828Y-104992856D01*
X380775828Y-104992856D02*
X380704400Y-105135714D01*
X380704400Y-105135714D02*
X380704400Y-105492856D01*
X380704400Y-105492856D02*
X380632971Y-105635714D01*
X381275828Y-106564285D02*
X381204400Y-106421428D01*
X381204400Y-106421428D02*
X381061542Y-106349999D01*
X381061542Y-106349999D02*
X379775828Y-106349999D01*
X381275828Y-107349999D02*
X381204400Y-107207142D01*
X381204400Y-107207142D02*
X381061542Y-107135713D01*
X381061542Y-107135713D02*
X379775828Y-107135713D01*
D11*
X380478713Y-133938819D02*
X380478713Y-132938819D01*
X380478713Y-132938819D02*
X380145380Y-133653104D01*
X380145380Y-133653104D02*
X379812047Y-132938819D01*
X379812047Y-132938819D02*
X379812047Y-133938819D01*
X379431094Y-132938819D02*
X378764428Y-133938819D01*
X378764428Y-132938819D02*
X379431094Y-133938819D01*
X377859666Y-133938819D02*
X378431094Y-133938819D01*
X378145380Y-133938819D02*
X378145380Y-132938819D01*
X378145380Y-132938819D02*
X378240618Y-133081676D01*
X378240618Y-133081676D02*
X378335856Y-133176914D01*
X378335856Y-133176914D02*
X378431094Y-133224533D01*
X375225713Y-69902819D02*
X375225713Y-68902819D01*
X375225713Y-68902819D02*
X374892380Y-69617104D01*
X374892380Y-69617104D02*
X374559047Y-68902819D01*
X374559047Y-68902819D02*
X374559047Y-69902819D01*
X374178094Y-68902819D02*
X373511428Y-69902819D01*
X373511428Y-68902819D02*
X374178094Y-69902819D01*
X372701904Y-69236152D02*
X372701904Y-69902819D01*
X372939999Y-68855200D02*
X373178094Y-69569485D01*
X373178094Y-69569485D02*
X372559047Y-69569485D01*
X325220152Y-80274150D02*
X324715076Y-80779226D01*
X324715076Y-80779226D02*
X324647732Y-80913913D01*
X324647732Y-80913913D02*
X324647732Y-81048600D01*
X324647732Y-81048600D02*
X324715076Y-81183287D01*
X324715076Y-81183287D02*
X324782419Y-81250631D01*
X324849763Y-80038447D02*
X324849763Y-79971104D01*
X324849763Y-79971104D02*
X324816091Y-79870089D01*
X324816091Y-79870089D02*
X324647732Y-79701730D01*
X324647732Y-79701730D02*
X324546717Y-79668058D01*
X324546717Y-79668058D02*
X324479373Y-79668058D01*
X324479373Y-79668058D02*
X324378358Y-79701730D01*
X324378358Y-79701730D02*
X324311015Y-79769073D01*
X324311015Y-79769073D02*
X324243671Y-79903760D01*
X324243671Y-79903760D02*
X324243671Y-80711882D01*
X324243671Y-80711882D02*
X323805938Y-80274150D01*
X385047819Y-125650666D02*
X385762104Y-125650666D01*
X385762104Y-125650666D02*
X385904961Y-125603047D01*
X385904961Y-125603047D02*
X386000200Y-125507809D01*
X386000200Y-125507809D02*
X386047819Y-125364952D01*
X386047819Y-125364952D02*
X386047819Y-125269714D01*
X385381152Y-126555428D02*
X386047819Y-126555428D01*
X385000200Y-126317333D02*
X385714485Y-126079238D01*
X385714485Y-126079238D02*
X385714485Y-126698285D01*
X324449150Y-122164847D02*
X324954226Y-122669923D01*
X324954226Y-122669923D02*
X325088913Y-122737267D01*
X325088913Y-122737267D02*
X325223600Y-122737267D01*
X325223600Y-122737267D02*
X325358287Y-122669923D01*
X325358287Y-122669923D02*
X325425631Y-122602580D01*
X324179776Y-122434221D02*
X323742043Y-122871954D01*
X323742043Y-122871954D02*
X324247119Y-122905626D01*
X324247119Y-122905626D02*
X324146104Y-123006641D01*
X324146104Y-123006641D02*
X324112432Y-123107656D01*
X324112432Y-123107656D02*
X324112432Y-123175000D01*
X324112432Y-123175000D02*
X324146104Y-123276015D01*
X324146104Y-123276015D02*
X324314463Y-123444374D01*
X324314463Y-123444374D02*
X324415478Y-123478045D01*
X324415478Y-123478045D02*
X324482821Y-123478045D01*
X324482821Y-123478045D02*
X324583837Y-123444374D01*
X324583837Y-123444374D02*
X324785867Y-123242343D01*
X324785867Y-123242343D02*
X324819539Y-123141328D01*
X324819539Y-123141328D02*
X324819539Y-123073984D01*
X385047819Y-76882666D02*
X385762104Y-76882666D01*
X385762104Y-76882666D02*
X385904961Y-76835047D01*
X385904961Y-76835047D02*
X386000200Y-76739809D01*
X386000200Y-76739809D02*
X386047819Y-76596952D01*
X386047819Y-76596952D02*
X386047819Y-76501714D01*
X385047819Y-77835047D02*
X385047819Y-77358857D01*
X385047819Y-77358857D02*
X385524009Y-77311238D01*
X385524009Y-77311238D02*
X385476390Y-77358857D01*
X385476390Y-77358857D02*
X385428771Y-77454095D01*
X385428771Y-77454095D02*
X385428771Y-77692190D01*
X385428771Y-77692190D02*
X385476390Y-77787428D01*
X385476390Y-77787428D02*
X385524009Y-77835047D01*
X385524009Y-77835047D02*
X385619247Y-77882666D01*
X385619247Y-77882666D02*
X385857342Y-77882666D01*
X385857342Y-77882666D02*
X385952580Y-77835047D01*
X385952580Y-77835047D02*
X386000200Y-77787428D01*
X386000200Y-77787428D02*
X386047819Y-77692190D01*
X386047819Y-77692190D02*
X386047819Y-77454095D01*
X386047819Y-77454095D02*
X386000200Y-77358857D01*
X386000200Y-77358857D02*
X385952580Y-77311238D01*
X374843000Y-131034000D02*
X375343000Y-130534000D01*
X374843000Y-134534000D02*
X375343000Y-135034000D01*
X375343000Y-130534000D02*
X378343000Y-130534000D01*
X375343000Y-135034000D02*
X377843000Y-135034000D01*
X378343000Y-130534000D02*
X378843000Y-131034000D01*
X378843000Y-132034000D02*
X378843000Y-131034000D01*
X379343000Y-136534000D02*
X379343000Y-137234000D01*
X379343000Y-137234000D02*
X383843000Y-137234000D01*
X383843000Y-132534000D02*
X379343000Y-132534000D01*
X383843000Y-133134000D02*
X383843000Y-132534000D01*
X383843000Y-137234000D02*
X383843000Y-136734000D01*
X377843000Y-135034000D02*
G75*
G02*
X379343000Y-136534000I-1J-1500001D01*
G01*
X379343000Y-132534000D02*
G75*
G02*
X378843000Y-132034000I1J500001D01*
G01*
X369843000Y-65916000D02*
X369843000Y-66416000D01*
X369843000Y-70016000D02*
X369843000Y-70616000D01*
X369843000Y-70616000D02*
X374343000Y-70616000D01*
X374343000Y-65916000D02*
X369843000Y-65916000D01*
X374343000Y-66616000D02*
X374343000Y-65916000D01*
X374843000Y-71116000D02*
X374843000Y-72116000D01*
X375343000Y-72616000D02*
X374843000Y-72116000D01*
X378343000Y-68116000D02*
X375843000Y-68116000D01*
X378343000Y-72616000D02*
X375343000Y-72616000D01*
X378843000Y-68616000D02*
X378343000Y-68116000D01*
X378843000Y-72116000D02*
X378343000Y-72616000D01*
X374343000Y-70616000D02*
G75*
G02*
X374843000Y-71116000I-1J-500001D01*
G01*
X375843000Y-68116000D02*
G75*
G02*
X374343000Y-66616000I1J1500001D01*
G01*
D12*
X319210795Y-87763717D02*
X317259181Y-85812103D01*
X322725116Y-80346167D02*
X317259181Y-85812103D01*
X324676731Y-82297782D02*
X319210795Y-87763717D01*
X324676731Y-82297782D02*
X322725116Y-80346167D01*
X325574756Y-81399756D02*
X326550564Y-80423949D01*
X326550564Y-80423949D02*
X325574756Y-79448142D01*
X376593000Y-127364000D02*
X376593000Y-124604000D01*
X384323000Y-124604000D02*
X376593000Y-124604000D01*
X384323000Y-127364000D02*
X376593000Y-127364000D01*
X384323000Y-127364000D02*
X384323000Y-124604000D01*
X385593000Y-127364000D02*
X386973000Y-127364000D01*
X386973000Y-127364000D02*
X386973000Y-125984000D01*
X317259181Y-117397897D02*
X319210795Y-115446283D01*
X322725116Y-122863833D02*
X317259181Y-117397897D01*
X322725116Y-122863833D02*
X324676731Y-120912218D01*
X323623142Y-123761858D02*
X324598949Y-124737666D01*
X324598949Y-124737666D02*
X325574756Y-123761858D01*
X324676731Y-120912218D02*
X319210795Y-115446283D01*
X376593000Y-78596000D02*
X376593000Y-75836000D01*
X384323000Y-75836000D02*
X376593000Y-75836000D01*
X384323000Y-78596000D02*
X376593000Y-78596000D01*
X384323000Y-78596000D02*
X384323000Y-75836000D01*
X385593000Y-78596000D02*
X386973000Y-78596000D01*
X386973000Y-78596000D02*
X386973000Y-77216000D01*
M02*
