M48
; DRILL file {KiCad 9.0.2} date 2025-10-02T21:32:25-0400
; FORMAT={-:-/ absolute / metric / decimal}
; #@! TF.CreationDate,2025-10-02T21:32:25-04:00
; #@! TF.GenerationSoftware,Kicad,Pcbnew,9.0.2
; #@! TF.FileFunction,Plated,1,2,PTH
FMAT,2
METRIC
; #@! TA.AperFunction,Plated,PTH,ViaDrill
T1C0.400
; #@! TA.AperFunction,Plated,PTH,ComponentDrill
T2C0.750
; #@! TA.AperFunction,Plated,PTH,ComponentDrill
T3C0.800
; #@! TA.AperFunction,Plated,PTH,ComponentDrill
T4C1.000
; #@! TA.AperFunction,Plated,PTH,ComponentDrill
T5C1.100
; #@! TA.AperFunction,Plated,PTH,ComponentDrill
T6C3.700
%
G90
G05
T1
X112.4Y-91.6
X112.4Y-96.6
X112.4Y-101.6
X112.4Y-106.6
X112.4Y-111.6
X117.4Y-91.6
X117.4Y-111.6
X122.4Y-81.6
X122.4Y-86.6
X122.4Y-91.6
X122.4Y-111.6
X122.4Y-116.6
X122.4Y-121.6
X127.4Y-56.6
X127.4Y-61.6
X127.4Y-76.6
X127.4Y-81.6
X127.4Y-121.6
X127.4Y-126.6
X127.4Y-141.6
X127.4Y-146.6
X132.4Y-56.6
X132.4Y-146.6
X137.4Y-56.6
X137.4Y-146.6
X141.65Y-69.1
X141.65Y-134.35
X142.4Y-56.6
X142.4Y-76.6
X142.4Y-126.6
X142.4Y-146.6
X147.4Y-56.6
X147.4Y-146.6
X152.025Y-93.725
X154.15Y-116.6
X154.9Y-99.6
X156.134Y-116.85
X158.9Y-106.85
X159.15Y-99.6
X164.4Y-112.35
X165.15Y-74.6
X165.4Y-97.6
X166.15Y-78.1
X166.15Y-79.1
X167.4Y-84.14
X167.9Y-112.35
X167.925Y-86.85
X167.925Y-92.1
X169.4Y-78.35
X171.15Y-117.35
X172.15Y-124.1
X172.4Y-123.1
X172.693Y-122.143
X173.4Y-139.6
X176.65Y-63.85
X179.9Y-88.85
X180.9Y-83.6
X182.66Y-121.34
X184.4Y-116.6
T2
X176.9Y-84.35
X176.9Y-115.35
X181.9Y-99.6
T3
X176.9Y-86.35
X176.9Y-88.35
X176.9Y-117.35
X176.9Y-119.35
X181.9Y-101.6
X181.9Y-103.6
T4
X114.876Y-116.949
X114.882Y-86.257
X116.509Y-118.895
X116.515Y-84.312
X118.141Y-120.84
X118.147Y-82.366
X119.774Y-122.786
X119.78Y-80.42
X147.4Y-81.6
X147.4Y-84.14
X147.4Y-86.68
X147.4Y-116.52
X147.4Y-119.06
X147.4Y-121.6
X169.86Y-75.1
X172.4Y-75.1
X176.9Y-82.35
X176.9Y-90.35
X176.9Y-97.8
X176.9Y-100.34
X176.9Y-102.88
X176.9Y-105.42
X176.9Y-113.35
X176.9Y-121.35
X178.148Y-77.216
X178.148Y-125.984
X180.688Y-77.216
X180.688Y-125.984
X181.9Y-97.6
X181.9Y-105.6
X183.228Y-77.216
X183.228Y-125.984
X185.768Y-77.216
X185.768Y-125.984
T5
X154.72Y-93.96
X154.72Y-109.2
X157.26Y-93.96
X157.26Y-109.2
X159.8Y-93.96
X159.8Y-109.2
X162.34Y-93.96
X162.34Y-109.2
X164.88Y-93.96
X164.88Y-109.2
X167.42Y-93.96
X167.42Y-109.2
X169.96Y-93.96
X169.96Y-109.2
X172.5Y-93.96
X172.5Y-109.2
X175.04Y-93.96
X175.04Y-109.2
X177.58Y-93.96
X177.58Y-109.2
X180.12Y-93.96
X180.12Y-109.2
X182.66Y-93.96
X182.66Y-109.2
T6
X130.4Y-69.1
X130.4Y-134.15
X182.403Y-69.1
X182.447Y-134.15
M30
