M48
; DRILL file {KiCad 9.0.2} date 2025-09-19T15:47:31-0400
; FORMAT={-:-/ absolute / metric / decimal}
; #@! TF.CreationDate,2025-09-19T15:47:31-04:00
; #@! TF.GenerationSoftware,Kicad,Pcbnew,9.0.2
; #@! TF.FileFunction,NonPlated,1,2,NPTH
FMAT,2
METRIC
; #@! TA.AperFunction,NonPlated,NPTH,ComponentDrill
T1C1.702
; #@! TA.AperFunction,NonPlated,NPTH,ComponentDrill
T2C3.000
; #@! TA.AperFunction,NonPlated,NPTH,ComponentDrill
T3C3.429
%
G90
G05
T1
X114.9Y-64.436
X114.9Y-139.464
X125.9Y-64.436
X125.9Y-139.464
X133.5Y-64.436
X133.5Y-139.464
X144.5Y-64.436
X144.5Y-139.464
T2
X115.4Y-68.186
X120.4Y-70.386
X120.4Y-133.514
X125.4Y-135.714
X134.0Y-68.186
X139.0Y-70.386
X139.0Y-133.514
X144.0Y-135.714
T3
X120.4Y-64.436
X120.4Y-139.464
X139.0Y-64.436
X139.0Y-139.464
M30
