G04 #@! TF.GenerationSoftware,KiCad,Pcbnew,9.0.2*
G04 #@! TF.CreationDate,2025-09-19T15:47:29-04:00*
G04 #@! TF.ProjectId,Trackball,54726163-6b62-4616-9c6c-2e6b69636164,rev?*
G04 #@! TF.SameCoordinates,Original*
G04 #@! TF.FileFunction,Legend,Bot*
G04 #@! TF.FilePolarity,Positive*
%FSLAX46Y46*%
G04 Gerber Fmt 4.6, Leading zero omitted, Abs format (unit mm)*
G04 Created by KiCad (PCBNEW 9.0.2) date 2025-09-19 15:47:29*
%MOMM*%
%LPD*%
G01*
G04 APERTURE LIST*
%ADD10C,0.150000*%
%ADD11C,0.300000*%
%ADD12R,1.600000X1.600000*%
%ADD13C,1.600000*%
G04 APERTURE END LIST*
D10*
X164631375Y-83385714D02*
X164631375Y-82909524D01*
X164631375Y-82909524D02*
X163631375Y-82909524D01*
X164107565Y-83719048D02*
X164107565Y-84052381D01*
X164631375Y-84195238D02*
X164631375Y-83719048D01*
X164631375Y-83719048D02*
X163631375Y-83719048D01*
X163631375Y-83719048D02*
X163631375Y-84195238D01*
X164107565Y-84957143D02*
X164107565Y-84623810D01*
X164631375Y-84623810D02*
X163631375Y-84623810D01*
X163631375Y-84623810D02*
X163631375Y-85100000D01*
X163631375Y-85338096D02*
X163631375Y-85909524D01*
X164631375Y-85623810D02*
X163631375Y-85623810D01*
X164250422Y-86242858D02*
X164250422Y-87004763D01*
X164631375Y-88052381D02*
X164155184Y-87719048D01*
X164631375Y-87480953D02*
X163631375Y-87480953D01*
X163631375Y-87480953D02*
X163631375Y-87861905D01*
X163631375Y-87861905D02*
X163678994Y-87957143D01*
X163678994Y-87957143D02*
X163726613Y-88004762D01*
X163726613Y-88004762D02*
X163821851Y-88052381D01*
X163821851Y-88052381D02*
X163964708Y-88052381D01*
X163964708Y-88052381D02*
X164059946Y-88004762D01*
X164059946Y-88004762D02*
X164107565Y-87957143D01*
X164107565Y-87957143D02*
X164155184Y-87861905D01*
X164155184Y-87861905D02*
X164155184Y-87480953D01*
X164631375Y-88480953D02*
X163631375Y-88480953D01*
X163678994Y-89480952D02*
X163631375Y-89385714D01*
X163631375Y-89385714D02*
X163631375Y-89242857D01*
X163631375Y-89242857D02*
X163678994Y-89100000D01*
X163678994Y-89100000D02*
X163774232Y-89004762D01*
X163774232Y-89004762D02*
X163869470Y-88957143D01*
X163869470Y-88957143D02*
X164059946Y-88909524D01*
X164059946Y-88909524D02*
X164202803Y-88909524D01*
X164202803Y-88909524D02*
X164393279Y-88957143D01*
X164393279Y-88957143D02*
X164488517Y-89004762D01*
X164488517Y-89004762D02*
X164583756Y-89100000D01*
X164583756Y-89100000D02*
X164631375Y-89242857D01*
X164631375Y-89242857D02*
X164631375Y-89338095D01*
X164631375Y-89338095D02*
X164583756Y-89480952D01*
X164583756Y-89480952D02*
X164536136Y-89528571D01*
X164536136Y-89528571D02*
X164202803Y-89528571D01*
X164202803Y-89528571D02*
X164202803Y-89338095D01*
X164631375Y-89957143D02*
X163631375Y-89957143D01*
X164107565Y-89957143D02*
X164107565Y-90528571D01*
X164631375Y-90528571D02*
X163631375Y-90528571D01*
X163631375Y-90861905D02*
X163631375Y-91433333D01*
X164631375Y-91147619D02*
X163631375Y-91147619D01*
X166241319Y-85361905D02*
X165241319Y-85361905D01*
X165717509Y-85361905D02*
X165717509Y-85933333D01*
X166241319Y-85933333D02*
X165241319Y-85933333D01*
X165955604Y-86361905D02*
X165955604Y-86838095D01*
X166241319Y-86266667D02*
X165241319Y-86600000D01*
X165241319Y-86600000D02*
X166241319Y-86933333D01*
X166241319Y-87266667D02*
X165241319Y-87266667D01*
X165241319Y-87266667D02*
X166241319Y-87838095D01*
X166241319Y-87838095D02*
X165241319Y-87838095D01*
X166241319Y-88314286D02*
X165241319Y-88314286D01*
X165241319Y-88314286D02*
X165241319Y-88552381D01*
X165241319Y-88552381D02*
X165288938Y-88695238D01*
X165288938Y-88695238D02*
X165384176Y-88790476D01*
X165384176Y-88790476D02*
X165479414Y-88838095D01*
X165479414Y-88838095D02*
X165669890Y-88885714D01*
X165669890Y-88885714D02*
X165812747Y-88885714D01*
X165812747Y-88885714D02*
X166003223Y-88838095D01*
X166003223Y-88838095D02*
X166098461Y-88790476D01*
X166098461Y-88790476D02*
X166193700Y-88695238D01*
X166193700Y-88695238D02*
X166241319Y-88552381D01*
X166241319Y-88552381D02*
X166241319Y-88314286D01*
X147813220Y-111728922D02*
X147051316Y-111728922D01*
X147432268Y-112109875D02*
X147432268Y-111347970D01*
X146241792Y-111586065D02*
X146098935Y-111633684D01*
X146098935Y-111633684D02*
X146051316Y-111681303D01*
X146051316Y-111681303D02*
X146003697Y-111776541D01*
X146003697Y-111776541D02*
X146003697Y-111919398D01*
X146003697Y-111919398D02*
X146051316Y-112014636D01*
X146051316Y-112014636D02*
X146098935Y-112062256D01*
X146098935Y-112062256D02*
X146194173Y-112109875D01*
X146194173Y-112109875D02*
X146575125Y-112109875D01*
X146575125Y-112109875D02*
X146575125Y-111109875D01*
X146575125Y-111109875D02*
X146241792Y-111109875D01*
X146241792Y-111109875D02*
X146146554Y-111157494D01*
X146146554Y-111157494D02*
X146098935Y-111205113D01*
X146098935Y-111205113D02*
X146051316Y-111300351D01*
X146051316Y-111300351D02*
X146051316Y-111395589D01*
X146051316Y-111395589D02*
X146098935Y-111490827D01*
X146098935Y-111490827D02*
X146146554Y-111538446D01*
X146146554Y-111538446D02*
X146241792Y-111586065D01*
X146241792Y-111586065D02*
X146575125Y-111586065D01*
X145146554Y-112109875D02*
X145146554Y-111586065D01*
X145146554Y-111586065D02*
X145194173Y-111490827D01*
X145194173Y-111490827D02*
X145289411Y-111443208D01*
X145289411Y-111443208D02*
X145479887Y-111443208D01*
X145479887Y-111443208D02*
X145575125Y-111490827D01*
X145146554Y-112062256D02*
X145241792Y-112109875D01*
X145241792Y-112109875D02*
X145479887Y-112109875D01*
X145479887Y-112109875D02*
X145575125Y-112062256D01*
X145575125Y-112062256D02*
X145622744Y-111967017D01*
X145622744Y-111967017D02*
X145622744Y-111871779D01*
X145622744Y-111871779D02*
X145575125Y-111776541D01*
X145575125Y-111776541D02*
X145479887Y-111728922D01*
X145479887Y-111728922D02*
X145241792Y-111728922D01*
X145241792Y-111728922D02*
X145146554Y-111681303D01*
X144813220Y-111443208D02*
X144432268Y-111443208D01*
X144670363Y-111109875D02*
X144670363Y-111967017D01*
X144670363Y-111967017D02*
X144622744Y-112062256D01*
X144622744Y-112062256D02*
X144527506Y-112109875D01*
X144527506Y-112109875D02*
X144432268Y-112109875D01*
X144241791Y-111443208D02*
X143860839Y-111443208D01*
X144098934Y-111109875D02*
X144098934Y-111967017D01*
X144098934Y-111967017D02*
X144051315Y-112062256D01*
X144051315Y-112062256D02*
X143956077Y-112109875D01*
X143956077Y-112109875D02*
X143860839Y-112109875D01*
X143146553Y-112062256D02*
X143241791Y-112109875D01*
X143241791Y-112109875D02*
X143432267Y-112109875D01*
X143432267Y-112109875D02*
X143527505Y-112062256D01*
X143527505Y-112062256D02*
X143575124Y-111967017D01*
X143575124Y-111967017D02*
X143575124Y-111586065D01*
X143575124Y-111586065D02*
X143527505Y-111490827D01*
X143527505Y-111490827D02*
X143432267Y-111443208D01*
X143432267Y-111443208D02*
X143241791Y-111443208D01*
X143241791Y-111443208D02*
X143146553Y-111490827D01*
X143146553Y-111490827D02*
X143098934Y-111586065D01*
X143098934Y-111586065D02*
X143098934Y-111681303D01*
X143098934Y-111681303D02*
X143575124Y-111776541D01*
X142670362Y-112109875D02*
X142670362Y-111443208D01*
X142670362Y-111633684D02*
X142622743Y-111538446D01*
X142622743Y-111538446D02*
X142575124Y-111490827D01*
X142575124Y-111490827D02*
X142479886Y-111443208D01*
X142479886Y-111443208D02*
X142384648Y-111443208D01*
X142146552Y-111443208D02*
X141908457Y-112109875D01*
X141670362Y-111443208D02*
X141908457Y-112109875D01*
X141908457Y-112109875D02*
X142003695Y-112347970D01*
X142003695Y-112347970D02*
X142051314Y-112395589D01*
X142051314Y-112395589D02*
X142146552Y-112443208D01*
X146765601Y-114100771D02*
X146813220Y-114053152D01*
X146813220Y-114053152D02*
X146908458Y-113910295D01*
X146908458Y-113910295D02*
X146956077Y-113815057D01*
X146956077Y-113815057D02*
X147003696Y-113672200D01*
X147003696Y-113672200D02*
X147051315Y-113434104D01*
X147051315Y-113434104D02*
X147051315Y-113243628D01*
X147051315Y-113243628D02*
X147003696Y-113005533D01*
X147003696Y-113005533D02*
X146956077Y-112862676D01*
X146956077Y-112862676D02*
X146908458Y-112767438D01*
X146908458Y-112767438D02*
X146813220Y-112624580D01*
X146813220Y-112624580D02*
X146765601Y-112576961D01*
X145813220Y-113719819D02*
X146146553Y-113243628D01*
X146384648Y-113719819D02*
X146384648Y-112719819D01*
X146384648Y-112719819D02*
X146003696Y-112719819D01*
X146003696Y-112719819D02*
X145908458Y-112767438D01*
X145908458Y-112767438D02*
X145860839Y-112815057D01*
X145860839Y-112815057D02*
X145813220Y-112910295D01*
X145813220Y-112910295D02*
X145813220Y-113053152D01*
X145813220Y-113053152D02*
X145860839Y-113148390D01*
X145860839Y-113148390D02*
X145908458Y-113196009D01*
X145908458Y-113196009D02*
X146003696Y-113243628D01*
X146003696Y-113243628D02*
X146384648Y-113243628D01*
X145003696Y-113672200D02*
X145098934Y-113719819D01*
X145098934Y-113719819D02*
X145289410Y-113719819D01*
X145289410Y-113719819D02*
X145384648Y-113672200D01*
X145384648Y-113672200D02*
X145432267Y-113576961D01*
X145432267Y-113576961D02*
X145432267Y-113196009D01*
X145432267Y-113196009D02*
X145384648Y-113100771D01*
X145384648Y-113100771D02*
X145289410Y-113053152D01*
X145289410Y-113053152D02*
X145098934Y-113053152D01*
X145098934Y-113053152D02*
X145003696Y-113100771D01*
X145003696Y-113100771D02*
X144956077Y-113196009D01*
X144956077Y-113196009D02*
X144956077Y-113291247D01*
X144956077Y-113291247D02*
X145432267Y-113386485D01*
X144098934Y-113719819D02*
X144098934Y-112719819D01*
X144098934Y-113672200D02*
X144194172Y-113719819D01*
X144194172Y-113719819D02*
X144384648Y-113719819D01*
X144384648Y-113719819D02*
X144479886Y-113672200D01*
X144479886Y-113672200D02*
X144527505Y-113624580D01*
X144527505Y-113624580D02*
X144575124Y-113529342D01*
X144575124Y-113529342D02*
X144575124Y-113243628D01*
X144575124Y-113243628D02*
X144527505Y-113148390D01*
X144527505Y-113148390D02*
X144479886Y-113100771D01*
X144479886Y-113100771D02*
X144384648Y-113053152D01*
X144384648Y-113053152D02*
X144194172Y-113053152D01*
X144194172Y-113053152D02*
X144098934Y-113100771D01*
X143717981Y-114100771D02*
X143670362Y-114053152D01*
X143670362Y-114053152D02*
X143575124Y-113910295D01*
X143575124Y-113910295D02*
X143527505Y-113815057D01*
X143527505Y-113815057D02*
X143479886Y-113672200D01*
X143479886Y-113672200D02*
X143432267Y-113434104D01*
X143432267Y-113434104D02*
X143432267Y-113243628D01*
X143432267Y-113243628D02*
X143479886Y-113005533D01*
X143479886Y-113005533D02*
X143527505Y-112862676D01*
X143527505Y-112862676D02*
X143575124Y-112767438D01*
X143575124Y-112767438D02*
X143670362Y-112624580D01*
X143670362Y-112624580D02*
X143717981Y-112576961D01*
D11*
X156238346Y-146150828D02*
X156738346Y-145436542D01*
X157095489Y-146150828D02*
X157095489Y-144650828D01*
X157095489Y-144650828D02*
X156524060Y-144650828D01*
X156524060Y-144650828D02*
X156381203Y-144722257D01*
X156381203Y-144722257D02*
X156309774Y-144793685D01*
X156309774Y-144793685D02*
X156238346Y-144936542D01*
X156238346Y-144936542D02*
X156238346Y-145150828D01*
X156238346Y-145150828D02*
X156309774Y-145293685D01*
X156309774Y-145293685D02*
X156381203Y-145365114D01*
X156381203Y-145365114D02*
X156524060Y-145436542D01*
X156524060Y-145436542D02*
X157095489Y-145436542D01*
X155595489Y-145365114D02*
X155095489Y-145365114D01*
X154881203Y-146150828D02*
X155595489Y-146150828D01*
X155595489Y-146150828D02*
X155595489Y-144650828D01*
X155595489Y-144650828D02*
X154881203Y-144650828D01*
X154309774Y-146079400D02*
X154095489Y-146150828D01*
X154095489Y-146150828D02*
X153738346Y-146150828D01*
X153738346Y-146150828D02*
X153595489Y-146079400D01*
X153595489Y-146079400D02*
X153524060Y-146007971D01*
X153524060Y-146007971D02*
X153452631Y-145865114D01*
X153452631Y-145865114D02*
X153452631Y-145722257D01*
X153452631Y-145722257D02*
X153524060Y-145579400D01*
X153524060Y-145579400D02*
X153595489Y-145507971D01*
X153595489Y-145507971D02*
X153738346Y-145436542D01*
X153738346Y-145436542D02*
X154024060Y-145365114D01*
X154024060Y-145365114D02*
X154166917Y-145293685D01*
X154166917Y-145293685D02*
X154238346Y-145222257D01*
X154238346Y-145222257D02*
X154309774Y-145079400D01*
X154309774Y-145079400D02*
X154309774Y-144936542D01*
X154309774Y-144936542D02*
X154238346Y-144793685D01*
X154238346Y-144793685D02*
X154166917Y-144722257D01*
X154166917Y-144722257D02*
X154024060Y-144650828D01*
X154024060Y-144650828D02*
X153666917Y-144650828D01*
X153666917Y-144650828D02*
X153452631Y-144722257D01*
X152809775Y-145365114D02*
X152309775Y-145365114D01*
X152095489Y-146150828D02*
X152809775Y-146150828D01*
X152809775Y-146150828D02*
X152809775Y-144650828D01*
X152809775Y-144650828D02*
X152095489Y-144650828D01*
X151666917Y-144650828D02*
X150809775Y-144650828D01*
X151238346Y-146150828D02*
X151238346Y-144650828D01*
D10*
X128510839Y-82172200D02*
X128367982Y-82219819D01*
X128367982Y-82219819D02*
X128129887Y-82219819D01*
X128129887Y-82219819D02*
X128034649Y-82172200D01*
X128034649Y-82172200D02*
X127987030Y-82124580D01*
X127987030Y-82124580D02*
X127939411Y-82029342D01*
X127939411Y-82029342D02*
X127939411Y-81934104D01*
X127939411Y-81934104D02*
X127987030Y-81838866D01*
X127987030Y-81838866D02*
X128034649Y-81791247D01*
X128034649Y-81791247D02*
X128129887Y-81743628D01*
X128129887Y-81743628D02*
X128320363Y-81696009D01*
X128320363Y-81696009D02*
X128415601Y-81648390D01*
X128415601Y-81648390D02*
X128463220Y-81600771D01*
X128463220Y-81600771D02*
X128510839Y-81505533D01*
X128510839Y-81505533D02*
X128510839Y-81410295D01*
X128510839Y-81410295D02*
X128463220Y-81315057D01*
X128463220Y-81315057D02*
X128415601Y-81267438D01*
X128415601Y-81267438D02*
X128320363Y-81219819D01*
X128320363Y-81219819D02*
X128082268Y-81219819D01*
X128082268Y-81219819D02*
X127939411Y-81267438D01*
X126939411Y-82124580D02*
X126987030Y-82172200D01*
X126987030Y-82172200D02*
X127129887Y-82219819D01*
X127129887Y-82219819D02*
X127225125Y-82219819D01*
X127225125Y-82219819D02*
X127367982Y-82172200D01*
X127367982Y-82172200D02*
X127463220Y-82076961D01*
X127463220Y-82076961D02*
X127510839Y-81981723D01*
X127510839Y-81981723D02*
X127558458Y-81791247D01*
X127558458Y-81791247D02*
X127558458Y-81648390D01*
X127558458Y-81648390D02*
X127510839Y-81457914D01*
X127510839Y-81457914D02*
X127463220Y-81362676D01*
X127463220Y-81362676D02*
X127367982Y-81267438D01*
X127367982Y-81267438D02*
X127225125Y-81219819D01*
X127225125Y-81219819D02*
X127129887Y-81219819D01*
X127129887Y-81219819D02*
X126987030Y-81267438D01*
X126987030Y-81267438D02*
X126939411Y-81315057D01*
X126034649Y-82219819D02*
X126510839Y-82219819D01*
X126510839Y-82219819D02*
X126510839Y-81219819D01*
X125701315Y-82219819D02*
X125701315Y-81219819D01*
X125129887Y-82219819D02*
X125558458Y-81648390D01*
X125129887Y-81219819D02*
X125701315Y-81791247D01*
X163631375Y-111983334D02*
X163631375Y-112554762D01*
X164631375Y-112269048D02*
X163631375Y-112269048D01*
X164631375Y-112888096D02*
X163631375Y-112888096D01*
X164107565Y-112888096D02*
X164107565Y-113459524D01*
X164631375Y-113459524D02*
X163631375Y-113459524D01*
X163631375Y-113935715D02*
X164440898Y-113935715D01*
X164440898Y-113935715D02*
X164536136Y-113983334D01*
X164536136Y-113983334D02*
X164583756Y-114030953D01*
X164583756Y-114030953D02*
X164631375Y-114126191D01*
X164631375Y-114126191D02*
X164631375Y-114316667D01*
X164631375Y-114316667D02*
X164583756Y-114411905D01*
X164583756Y-114411905D02*
X164536136Y-114459524D01*
X164536136Y-114459524D02*
X164440898Y-114507143D01*
X164440898Y-114507143D02*
X163631375Y-114507143D01*
X164631375Y-114983334D02*
X163631375Y-114983334D01*
X163631375Y-114983334D02*
X164345660Y-115316667D01*
X164345660Y-115316667D02*
X163631375Y-115650000D01*
X163631375Y-115650000D02*
X164631375Y-115650000D01*
X164107565Y-116459524D02*
X164155184Y-116602381D01*
X164155184Y-116602381D02*
X164202803Y-116650000D01*
X164202803Y-116650000D02*
X164298041Y-116697619D01*
X164298041Y-116697619D02*
X164440898Y-116697619D01*
X164440898Y-116697619D02*
X164536136Y-116650000D01*
X164536136Y-116650000D02*
X164583756Y-116602381D01*
X164583756Y-116602381D02*
X164631375Y-116507143D01*
X164631375Y-116507143D02*
X164631375Y-116126191D01*
X164631375Y-116126191D02*
X163631375Y-116126191D01*
X163631375Y-116126191D02*
X163631375Y-116459524D01*
X163631375Y-116459524D02*
X163678994Y-116554762D01*
X163678994Y-116554762D02*
X163726613Y-116602381D01*
X163726613Y-116602381D02*
X163821851Y-116650000D01*
X163821851Y-116650000D02*
X163917089Y-116650000D01*
X163917089Y-116650000D02*
X164012327Y-116602381D01*
X164012327Y-116602381D02*
X164059946Y-116554762D01*
X164059946Y-116554762D02*
X164107565Y-116459524D01*
X164107565Y-116459524D02*
X164107565Y-116126191D01*
X164250422Y-117126191D02*
X164250422Y-117888096D01*
X164107565Y-118697619D02*
X164107565Y-118364286D01*
X164631375Y-118364286D02*
X163631375Y-118364286D01*
X163631375Y-118364286D02*
X163631375Y-118840476D01*
X164631375Y-119221429D02*
X163631375Y-119221429D01*
X164631375Y-119697619D02*
X163631375Y-119697619D01*
X163631375Y-119697619D02*
X164631375Y-120269047D01*
X164631375Y-120269047D02*
X163631375Y-120269047D01*
X163678994Y-121269047D02*
X163631375Y-121173809D01*
X163631375Y-121173809D02*
X163631375Y-121030952D01*
X163631375Y-121030952D02*
X163678994Y-120888095D01*
X163678994Y-120888095D02*
X163774232Y-120792857D01*
X163774232Y-120792857D02*
X163869470Y-120745238D01*
X163869470Y-120745238D02*
X164059946Y-120697619D01*
X164059946Y-120697619D02*
X164202803Y-120697619D01*
X164202803Y-120697619D02*
X164393279Y-120745238D01*
X164393279Y-120745238D02*
X164488517Y-120792857D01*
X164488517Y-120792857D02*
X164583756Y-120888095D01*
X164583756Y-120888095D02*
X164631375Y-121030952D01*
X164631375Y-121030952D02*
X164631375Y-121126190D01*
X164631375Y-121126190D02*
X164583756Y-121269047D01*
X164583756Y-121269047D02*
X164536136Y-121316666D01*
X164536136Y-121316666D02*
X164202803Y-121316666D01*
X164202803Y-121316666D02*
X164202803Y-121126190D01*
X164107565Y-121745238D02*
X164107565Y-122078571D01*
X164631375Y-122221428D02*
X164631375Y-121745238D01*
X164631375Y-121745238D02*
X163631375Y-121745238D01*
X163631375Y-121745238D02*
X163631375Y-122221428D01*
X164631375Y-123221428D02*
X164155184Y-122888095D01*
X164631375Y-122650000D02*
X163631375Y-122650000D01*
X163631375Y-122650000D02*
X163631375Y-123030952D01*
X163631375Y-123030952D02*
X163678994Y-123126190D01*
X163678994Y-123126190D02*
X163726613Y-123173809D01*
X163726613Y-123173809D02*
X163821851Y-123221428D01*
X163821851Y-123221428D02*
X163964708Y-123221428D01*
X163964708Y-123221428D02*
X164059946Y-123173809D01*
X164059946Y-123173809D02*
X164107565Y-123126190D01*
X164107565Y-123126190D02*
X164155184Y-123030952D01*
X164155184Y-123030952D02*
X164155184Y-122650000D01*
X166146080Y-115102380D02*
X166193700Y-115054761D01*
X166193700Y-115054761D02*
X166241319Y-114911904D01*
X166241319Y-114911904D02*
X166241319Y-114816666D01*
X166241319Y-114816666D02*
X166193700Y-114673809D01*
X166193700Y-114673809D02*
X166098461Y-114578571D01*
X166098461Y-114578571D02*
X166003223Y-114530952D01*
X166003223Y-114530952D02*
X165812747Y-114483333D01*
X165812747Y-114483333D02*
X165669890Y-114483333D01*
X165669890Y-114483333D02*
X165479414Y-114530952D01*
X165479414Y-114530952D02*
X165384176Y-114578571D01*
X165384176Y-114578571D02*
X165288938Y-114673809D01*
X165288938Y-114673809D02*
X165241319Y-114816666D01*
X165241319Y-114816666D02*
X165241319Y-114911904D01*
X165241319Y-114911904D02*
X165288938Y-115054761D01*
X165288938Y-115054761D02*
X165336557Y-115102380D01*
X165241319Y-115721428D02*
X165241319Y-115911904D01*
X165241319Y-115911904D02*
X165288938Y-116007142D01*
X165288938Y-116007142D02*
X165384176Y-116102380D01*
X165384176Y-116102380D02*
X165574652Y-116149999D01*
X165574652Y-116149999D02*
X165907985Y-116149999D01*
X165907985Y-116149999D02*
X166098461Y-116102380D01*
X166098461Y-116102380D02*
X166193700Y-116007142D01*
X166193700Y-116007142D02*
X166241319Y-115911904D01*
X166241319Y-115911904D02*
X166241319Y-115721428D01*
X166241319Y-115721428D02*
X166193700Y-115626190D01*
X166193700Y-115626190D02*
X166098461Y-115530952D01*
X166098461Y-115530952D02*
X165907985Y-115483333D01*
X165907985Y-115483333D02*
X165574652Y-115483333D01*
X165574652Y-115483333D02*
X165384176Y-115530952D01*
X165384176Y-115530952D02*
X165288938Y-115626190D01*
X165288938Y-115626190D02*
X165241319Y-115721428D01*
X166241319Y-116578571D02*
X165241319Y-116578571D01*
X165241319Y-116578571D02*
X166241319Y-117149999D01*
X166241319Y-117149999D02*
X165241319Y-117149999D01*
X165241319Y-117483333D02*
X165241319Y-118054761D01*
X166241319Y-117769047D02*
X165241319Y-117769047D01*
X166241319Y-118959523D02*
X165765128Y-118626190D01*
X166241319Y-118388095D02*
X165241319Y-118388095D01*
X165241319Y-118388095D02*
X165241319Y-118769047D01*
X165241319Y-118769047D02*
X165288938Y-118864285D01*
X165288938Y-118864285D02*
X165336557Y-118911904D01*
X165336557Y-118911904D02*
X165431795Y-118959523D01*
X165431795Y-118959523D02*
X165574652Y-118959523D01*
X165574652Y-118959523D02*
X165669890Y-118911904D01*
X165669890Y-118911904D02*
X165717509Y-118864285D01*
X165717509Y-118864285D02*
X165765128Y-118769047D01*
X165765128Y-118769047D02*
X165765128Y-118388095D01*
X165241319Y-119578571D02*
X165241319Y-119769047D01*
X165241319Y-119769047D02*
X165288938Y-119864285D01*
X165288938Y-119864285D02*
X165384176Y-119959523D01*
X165384176Y-119959523D02*
X165574652Y-120007142D01*
X165574652Y-120007142D02*
X165907985Y-120007142D01*
X165907985Y-120007142D02*
X166098461Y-119959523D01*
X166098461Y-119959523D02*
X166193700Y-119864285D01*
X166193700Y-119864285D02*
X166241319Y-119769047D01*
X166241319Y-119769047D02*
X166241319Y-119578571D01*
X166241319Y-119578571D02*
X166193700Y-119483333D01*
X166193700Y-119483333D02*
X166098461Y-119388095D01*
X166098461Y-119388095D02*
X165907985Y-119340476D01*
X165907985Y-119340476D02*
X165574652Y-119340476D01*
X165574652Y-119340476D02*
X165384176Y-119388095D01*
X165384176Y-119388095D02*
X165288938Y-119483333D01*
X165288938Y-119483333D02*
X165241319Y-119578571D01*
X166241319Y-120911904D02*
X166241319Y-120435714D01*
X166241319Y-120435714D02*
X165241319Y-120435714D01*
X127639411Y-121367438D02*
X127734649Y-121319819D01*
X127734649Y-121319819D02*
X127877506Y-121319819D01*
X127877506Y-121319819D02*
X128020363Y-121367438D01*
X128020363Y-121367438D02*
X128115601Y-121462676D01*
X128115601Y-121462676D02*
X128163220Y-121557914D01*
X128163220Y-121557914D02*
X128210839Y-121748390D01*
X128210839Y-121748390D02*
X128210839Y-121891247D01*
X128210839Y-121891247D02*
X128163220Y-122081723D01*
X128163220Y-122081723D02*
X128115601Y-122176961D01*
X128115601Y-122176961D02*
X128020363Y-122272200D01*
X128020363Y-122272200D02*
X127877506Y-122319819D01*
X127877506Y-122319819D02*
X127782268Y-122319819D01*
X127782268Y-122319819D02*
X127639411Y-122272200D01*
X127639411Y-122272200D02*
X127591792Y-122224580D01*
X127591792Y-122224580D02*
X127591792Y-121891247D01*
X127591792Y-121891247D02*
X127782268Y-121891247D01*
X127163220Y-122319819D02*
X127163220Y-121319819D01*
X127163220Y-121319819D02*
X126591792Y-122319819D01*
X126591792Y-122319819D02*
X126591792Y-121319819D01*
X126115601Y-122319819D02*
X126115601Y-121319819D01*
X126115601Y-121319819D02*
X125877506Y-121319819D01*
X125877506Y-121319819D02*
X125734649Y-121367438D01*
X125734649Y-121367438D02*
X125639411Y-121462676D01*
X125639411Y-121462676D02*
X125591792Y-121557914D01*
X125591792Y-121557914D02*
X125544173Y-121748390D01*
X125544173Y-121748390D02*
X125544173Y-121891247D01*
X125544173Y-121891247D02*
X125591792Y-122081723D01*
X125591792Y-122081723D02*
X125639411Y-122176961D01*
X125639411Y-122176961D02*
X125734649Y-122272200D01*
X125734649Y-122272200D02*
X125877506Y-122319819D01*
X125877506Y-122319819D02*
X126115601Y-122319819D01*
D11*
X164510828Y-130654510D02*
X165725114Y-130654510D01*
X165725114Y-130654510D02*
X165867971Y-130725939D01*
X165867971Y-130725939D02*
X165939400Y-130797368D01*
X165939400Y-130797368D02*
X166010828Y-130940225D01*
X166010828Y-130940225D02*
X166010828Y-131225939D01*
X166010828Y-131225939D02*
X165939400Y-131368796D01*
X165939400Y-131368796D02*
X165867971Y-131440225D01*
X165867971Y-131440225D02*
X165725114Y-131511653D01*
X165725114Y-131511653D02*
X164510828Y-131511653D01*
X166010828Y-132225939D02*
X164510828Y-132225939D01*
X164510828Y-132225939D02*
X166010828Y-133083082D01*
X166010828Y-133083082D02*
X164510828Y-133083082D01*
X166010828Y-134511654D02*
X166010828Y-133797368D01*
X166010828Y-133797368D02*
X164510828Y-133797368D01*
X164510828Y-135297369D02*
X164510828Y-135583083D01*
X164510828Y-135583083D02*
X164582257Y-135725940D01*
X164582257Y-135725940D02*
X164725114Y-135868797D01*
X164725114Y-135868797D02*
X165010828Y-135940226D01*
X165010828Y-135940226D02*
X165510828Y-135940226D01*
X165510828Y-135940226D02*
X165796542Y-135868797D01*
X165796542Y-135868797D02*
X165939400Y-135725940D01*
X165939400Y-135725940D02*
X166010828Y-135583083D01*
X166010828Y-135583083D02*
X166010828Y-135297369D01*
X166010828Y-135297369D02*
X165939400Y-135154512D01*
X165939400Y-135154512D02*
X165796542Y-135011654D01*
X165796542Y-135011654D02*
X165510828Y-134940226D01*
X165510828Y-134940226D02*
X165010828Y-134940226D01*
X165010828Y-134940226D02*
X164725114Y-135011654D01*
X164725114Y-135011654D02*
X164582257Y-135154512D01*
X164582257Y-135154512D02*
X164510828Y-135297369D01*
X165867971Y-137440226D02*
X165939400Y-137368798D01*
X165939400Y-137368798D02*
X166010828Y-137154512D01*
X166010828Y-137154512D02*
X166010828Y-137011655D01*
X166010828Y-137011655D02*
X165939400Y-136797369D01*
X165939400Y-136797369D02*
X165796542Y-136654512D01*
X165796542Y-136654512D02*
X165653685Y-136583083D01*
X165653685Y-136583083D02*
X165367971Y-136511655D01*
X165367971Y-136511655D02*
X165153685Y-136511655D01*
X165153685Y-136511655D02*
X164867971Y-136583083D01*
X164867971Y-136583083D02*
X164725114Y-136654512D01*
X164725114Y-136654512D02*
X164582257Y-136797369D01*
X164582257Y-136797369D02*
X164510828Y-137011655D01*
X164510828Y-137011655D02*
X164510828Y-137154512D01*
X164510828Y-137154512D02*
X164582257Y-137368798D01*
X164582257Y-137368798D02*
X164653685Y-137440226D01*
X166010828Y-138083083D02*
X164510828Y-138083083D01*
X166010828Y-138940226D02*
X165153685Y-138297369D01*
X164510828Y-138940226D02*
X165367971Y-138083083D01*
D10*
X128558458Y-85719819D02*
X127939411Y-85719819D01*
X127939411Y-85719819D02*
X128272744Y-86100771D01*
X128272744Y-86100771D02*
X128129887Y-86100771D01*
X128129887Y-86100771D02*
X128034649Y-86148390D01*
X128034649Y-86148390D02*
X127987030Y-86196009D01*
X127987030Y-86196009D02*
X127939411Y-86291247D01*
X127939411Y-86291247D02*
X127939411Y-86529342D01*
X127939411Y-86529342D02*
X127987030Y-86624580D01*
X127987030Y-86624580D02*
X128034649Y-86672200D01*
X128034649Y-86672200D02*
X128129887Y-86719819D01*
X128129887Y-86719819D02*
X128415601Y-86719819D01*
X128415601Y-86719819D02*
X128510839Y-86672200D01*
X128510839Y-86672200D02*
X128558458Y-86624580D01*
X127510839Y-86624580D02*
X127463220Y-86672200D01*
X127463220Y-86672200D02*
X127510839Y-86719819D01*
X127510839Y-86719819D02*
X127558458Y-86672200D01*
X127558458Y-86672200D02*
X127510839Y-86624580D01*
X127510839Y-86624580D02*
X127510839Y-86719819D01*
X127129887Y-85719819D02*
X126510840Y-85719819D01*
X126510840Y-85719819D02*
X126844173Y-86100771D01*
X126844173Y-86100771D02*
X126701316Y-86100771D01*
X126701316Y-86100771D02*
X126606078Y-86148390D01*
X126606078Y-86148390D02*
X126558459Y-86196009D01*
X126558459Y-86196009D02*
X126510840Y-86291247D01*
X126510840Y-86291247D02*
X126510840Y-86529342D01*
X126510840Y-86529342D02*
X126558459Y-86624580D01*
X126558459Y-86624580D02*
X126606078Y-86672200D01*
X126606078Y-86672200D02*
X126701316Y-86719819D01*
X126701316Y-86719819D02*
X126987030Y-86719819D01*
X126987030Y-86719819D02*
X127082268Y-86672200D01*
X127082268Y-86672200D02*
X127129887Y-86624580D01*
X126225125Y-85719819D02*
X125891792Y-86719819D01*
X125891792Y-86719819D02*
X125558459Y-85719819D01*
X128163220Y-117319819D02*
X128163220Y-116319819D01*
X128163220Y-116319819D02*
X127829887Y-117034104D01*
X127829887Y-117034104D02*
X127496554Y-116319819D01*
X127496554Y-116319819D02*
X127496554Y-117319819D01*
X126829887Y-116319819D02*
X126639411Y-116319819D01*
X126639411Y-116319819D02*
X126544173Y-116367438D01*
X126544173Y-116367438D02*
X126448935Y-116462676D01*
X126448935Y-116462676D02*
X126401316Y-116653152D01*
X126401316Y-116653152D02*
X126401316Y-116986485D01*
X126401316Y-116986485D02*
X126448935Y-117176961D01*
X126448935Y-117176961D02*
X126544173Y-117272200D01*
X126544173Y-117272200D02*
X126639411Y-117319819D01*
X126639411Y-117319819D02*
X126829887Y-117319819D01*
X126829887Y-117319819D02*
X126925125Y-117272200D01*
X126925125Y-117272200D02*
X127020363Y-117176961D01*
X127020363Y-117176961D02*
X127067982Y-116986485D01*
X127067982Y-116986485D02*
X127067982Y-116653152D01*
X127067982Y-116653152D02*
X127020363Y-116462676D01*
X127020363Y-116462676D02*
X126925125Y-116367438D01*
X126925125Y-116367438D02*
X126829887Y-116319819D01*
X126115601Y-116319819D02*
X125544173Y-116319819D01*
X125829887Y-117319819D02*
X125829887Y-116319819D01*
D11*
X147864285Y-56834885D02*
X148078571Y-56763457D01*
X148078571Y-56763457D02*
X148150000Y-56692028D01*
X148150000Y-56692028D02*
X148221428Y-56549171D01*
X148221428Y-56549171D02*
X148221428Y-56334885D01*
X148221428Y-56334885D02*
X148150000Y-56192028D01*
X148150000Y-56192028D02*
X148078571Y-56120600D01*
X148078571Y-56120600D02*
X147935714Y-56049171D01*
X147935714Y-56049171D02*
X147364285Y-56049171D01*
X147364285Y-56049171D02*
X147364285Y-57549171D01*
X147364285Y-57549171D02*
X147864285Y-57549171D01*
X147864285Y-57549171D02*
X148007143Y-57477742D01*
X148007143Y-57477742D02*
X148078571Y-57406314D01*
X148078571Y-57406314D02*
X148150000Y-57263457D01*
X148150000Y-57263457D02*
X148150000Y-57120600D01*
X148150000Y-57120600D02*
X148078571Y-56977742D01*
X148078571Y-56977742D02*
X148007143Y-56906314D01*
X148007143Y-56906314D02*
X147864285Y-56834885D01*
X147864285Y-56834885D02*
X147364285Y-56834885D01*
X148650000Y-57549171D02*
X149507143Y-57549171D01*
X149078571Y-56049171D02*
X149078571Y-57549171D01*
X151078571Y-56120600D02*
X151292857Y-56049171D01*
X151292857Y-56049171D02*
X151649999Y-56049171D01*
X151649999Y-56049171D02*
X151792857Y-56120600D01*
X151792857Y-56120600D02*
X151864285Y-56192028D01*
X151864285Y-56192028D02*
X151935714Y-56334885D01*
X151935714Y-56334885D02*
X151935714Y-56477742D01*
X151935714Y-56477742D02*
X151864285Y-56620600D01*
X151864285Y-56620600D02*
X151792857Y-56692028D01*
X151792857Y-56692028D02*
X151649999Y-56763457D01*
X151649999Y-56763457D02*
X151364285Y-56834885D01*
X151364285Y-56834885D02*
X151221428Y-56906314D01*
X151221428Y-56906314D02*
X151149999Y-56977742D01*
X151149999Y-56977742D02*
X151078571Y-57120600D01*
X151078571Y-57120600D02*
X151078571Y-57263457D01*
X151078571Y-57263457D02*
X151149999Y-57406314D01*
X151149999Y-57406314D02*
X151221428Y-57477742D01*
X151221428Y-57477742D02*
X151364285Y-57549171D01*
X151364285Y-57549171D02*
X151721428Y-57549171D01*
X151721428Y-57549171D02*
X151935714Y-57477742D01*
X152578570Y-56834885D02*
X153078570Y-56834885D01*
X153292856Y-56049171D02*
X152578570Y-56049171D01*
X152578570Y-56049171D02*
X152578570Y-57549171D01*
X152578570Y-57549171D02*
X153292856Y-57549171D01*
X154649999Y-56049171D02*
X153935713Y-56049171D01*
X153935713Y-56049171D02*
X153935713Y-57549171D01*
X155149999Y-56834885D02*
X155649999Y-56834885D01*
X155864285Y-56049171D02*
X155149999Y-56049171D01*
X155149999Y-56049171D02*
X155149999Y-57549171D01*
X155149999Y-57549171D02*
X155864285Y-57549171D01*
X157364285Y-56192028D02*
X157292857Y-56120600D01*
X157292857Y-56120600D02*
X157078571Y-56049171D01*
X157078571Y-56049171D02*
X156935714Y-56049171D01*
X156935714Y-56049171D02*
X156721428Y-56120600D01*
X156721428Y-56120600D02*
X156578571Y-56263457D01*
X156578571Y-56263457D02*
X156507142Y-56406314D01*
X156507142Y-56406314D02*
X156435714Y-56692028D01*
X156435714Y-56692028D02*
X156435714Y-56906314D01*
X156435714Y-56906314D02*
X156507142Y-57192028D01*
X156507142Y-57192028D02*
X156578571Y-57334885D01*
X156578571Y-57334885D02*
X156721428Y-57477742D01*
X156721428Y-57477742D02*
X156935714Y-57549171D01*
X156935714Y-57549171D02*
X157078571Y-57549171D01*
X157078571Y-57549171D02*
X157292857Y-57477742D01*
X157292857Y-57477742D02*
X157364285Y-57406314D01*
X157792857Y-57549171D02*
X158650000Y-57549171D01*
X158221428Y-56049171D02*
X158221428Y-57549171D01*
X103870996Y-96282126D02*
X104870996Y-96282126D01*
X103870996Y-95639268D02*
X104656710Y-95639268D01*
X104656710Y-95639268D02*
X104799568Y-95710697D01*
X104799568Y-95710697D02*
X104870996Y-95853554D01*
X104870996Y-95853554D02*
X104870996Y-96067840D01*
X104870996Y-96067840D02*
X104799568Y-96210697D01*
X104799568Y-96210697D02*
X104728139Y-96282126D01*
X103299568Y-98067840D02*
X105228139Y-96782126D01*
X104870996Y-99210698D02*
X104085282Y-99210698D01*
X104085282Y-99210698D02*
X103942425Y-99139269D01*
X103942425Y-99139269D02*
X103870996Y-98996412D01*
X103870996Y-98996412D02*
X103870996Y-98710698D01*
X103870996Y-98710698D02*
X103942425Y-98567840D01*
X104799568Y-99210698D02*
X104870996Y-99067840D01*
X104870996Y-99067840D02*
X104870996Y-98710698D01*
X104870996Y-98710698D02*
X104799568Y-98567840D01*
X104799568Y-98567840D02*
X104656710Y-98496412D01*
X104656710Y-98496412D02*
X104513853Y-98496412D01*
X104513853Y-98496412D02*
X104370996Y-98567840D01*
X104370996Y-98567840D02*
X104299568Y-98710698D01*
X104299568Y-98710698D02*
X104299568Y-99067840D01*
X104299568Y-99067840D02*
X104228139Y-99210698D01*
X104870996Y-99924983D02*
X103370996Y-99924983D01*
X104299568Y-100067841D02*
X104870996Y-100496412D01*
X103870996Y-100496412D02*
X104442425Y-99924983D01*
X103370996Y-101782127D02*
X103370996Y-101496412D01*
X103370996Y-101496412D02*
X103442425Y-101353555D01*
X103442425Y-101353555D02*
X103513853Y-101282127D01*
X103513853Y-101282127D02*
X103728139Y-101139269D01*
X103728139Y-101139269D02*
X104013853Y-101067841D01*
X104013853Y-101067841D02*
X104585282Y-101067841D01*
X104585282Y-101067841D02*
X104728139Y-101139269D01*
X104728139Y-101139269D02*
X104799568Y-101210698D01*
X104799568Y-101210698D02*
X104870996Y-101353555D01*
X104870996Y-101353555D02*
X104870996Y-101639269D01*
X104870996Y-101639269D02*
X104799568Y-101782127D01*
X104799568Y-101782127D02*
X104728139Y-101853555D01*
X104728139Y-101853555D02*
X104585282Y-101924984D01*
X104585282Y-101924984D02*
X104228139Y-101924984D01*
X104228139Y-101924984D02*
X104085282Y-101853555D01*
X104085282Y-101853555D02*
X104013853Y-101782127D01*
X104013853Y-101782127D02*
X103942425Y-101639269D01*
X103942425Y-101639269D02*
X103942425Y-101353555D01*
X103942425Y-101353555D02*
X104013853Y-101210698D01*
X104013853Y-101210698D02*
X104085282Y-101139269D01*
X104085282Y-101139269D02*
X104228139Y-101067841D01*
X103370996Y-103210698D02*
X103370996Y-102924983D01*
X103370996Y-102924983D02*
X103442425Y-102782126D01*
X103442425Y-102782126D02*
X103513853Y-102710698D01*
X103513853Y-102710698D02*
X103728139Y-102567840D01*
X103728139Y-102567840D02*
X104013853Y-102496412D01*
X104013853Y-102496412D02*
X104585282Y-102496412D01*
X104585282Y-102496412D02*
X104728139Y-102567840D01*
X104728139Y-102567840D02*
X104799568Y-102639269D01*
X104799568Y-102639269D02*
X104870996Y-102782126D01*
X104870996Y-102782126D02*
X104870996Y-103067840D01*
X104870996Y-103067840D02*
X104799568Y-103210698D01*
X104799568Y-103210698D02*
X104728139Y-103282126D01*
X104728139Y-103282126D02*
X104585282Y-103353555D01*
X104585282Y-103353555D02*
X104228139Y-103353555D01*
X104228139Y-103353555D02*
X104085282Y-103282126D01*
X104085282Y-103282126D02*
X104013853Y-103210698D01*
X104013853Y-103210698D02*
X103942425Y-103067840D01*
X103942425Y-103067840D02*
X103942425Y-102782126D01*
X103942425Y-102782126D02*
X104013853Y-102639269D01*
X104013853Y-102639269D02*
X104085282Y-102567840D01*
X104085282Y-102567840D02*
X104228139Y-102496412D01*
X103370996Y-104639269D02*
X103370996Y-104353554D01*
X103370996Y-104353554D02*
X103442425Y-104210697D01*
X103442425Y-104210697D02*
X103513853Y-104139269D01*
X103513853Y-104139269D02*
X103728139Y-103996411D01*
X103728139Y-103996411D02*
X104013853Y-103924983D01*
X104013853Y-103924983D02*
X104585282Y-103924983D01*
X104585282Y-103924983D02*
X104728139Y-103996411D01*
X104728139Y-103996411D02*
X104799568Y-104067840D01*
X104799568Y-104067840D02*
X104870996Y-104210697D01*
X104870996Y-104210697D02*
X104870996Y-104496411D01*
X104870996Y-104496411D02*
X104799568Y-104639269D01*
X104799568Y-104639269D02*
X104728139Y-104710697D01*
X104728139Y-104710697D02*
X104585282Y-104782126D01*
X104585282Y-104782126D02*
X104228139Y-104782126D01*
X104228139Y-104782126D02*
X104085282Y-104710697D01*
X104085282Y-104710697D02*
X104013853Y-104639269D01*
X104013853Y-104639269D02*
X103942425Y-104496411D01*
X103942425Y-104496411D02*
X103942425Y-104210697D01*
X103942425Y-104210697D02*
X104013853Y-104067840D01*
X104013853Y-104067840D02*
X104085282Y-103996411D01*
X104085282Y-103996411D02*
X104228139Y-103924983D01*
X103370996Y-106067840D02*
X103370996Y-105782125D01*
X103370996Y-105782125D02*
X103442425Y-105639268D01*
X103442425Y-105639268D02*
X103513853Y-105567840D01*
X103513853Y-105567840D02*
X103728139Y-105424982D01*
X103728139Y-105424982D02*
X104013853Y-105353554D01*
X104013853Y-105353554D02*
X104585282Y-105353554D01*
X104585282Y-105353554D02*
X104728139Y-105424982D01*
X104728139Y-105424982D02*
X104799568Y-105496411D01*
X104799568Y-105496411D02*
X104870996Y-105639268D01*
X104870996Y-105639268D02*
X104870996Y-105924982D01*
X104870996Y-105924982D02*
X104799568Y-106067840D01*
X104799568Y-106067840D02*
X104728139Y-106139268D01*
X104728139Y-106139268D02*
X104585282Y-106210697D01*
X104585282Y-106210697D02*
X104228139Y-106210697D01*
X104228139Y-106210697D02*
X104085282Y-106139268D01*
X104085282Y-106139268D02*
X104013853Y-106067840D01*
X104013853Y-106067840D02*
X103942425Y-105924982D01*
X103942425Y-105924982D02*
X103942425Y-105639268D01*
X103942425Y-105639268D02*
X104013853Y-105496411D01*
X104013853Y-105496411D02*
X104085282Y-105424982D01*
X104085282Y-105424982D02*
X104228139Y-105353554D01*
X103370996Y-107496411D02*
X103370996Y-107210696D01*
X103370996Y-107210696D02*
X103442425Y-107067839D01*
X103442425Y-107067839D02*
X103513853Y-106996411D01*
X103513853Y-106996411D02*
X103728139Y-106853553D01*
X103728139Y-106853553D02*
X104013853Y-106782125D01*
X104013853Y-106782125D02*
X104585282Y-106782125D01*
X104585282Y-106782125D02*
X104728139Y-106853553D01*
X104728139Y-106853553D02*
X104799568Y-106924982D01*
X104799568Y-106924982D02*
X104870996Y-107067839D01*
X104870996Y-107067839D02*
X104870996Y-107353553D01*
X104870996Y-107353553D02*
X104799568Y-107496411D01*
X104799568Y-107496411D02*
X104728139Y-107567839D01*
X104728139Y-107567839D02*
X104585282Y-107639268D01*
X104585282Y-107639268D02*
X104228139Y-107639268D01*
X104228139Y-107639268D02*
X104085282Y-107567839D01*
X104085282Y-107567839D02*
X104013853Y-107496411D01*
X104013853Y-107496411D02*
X103942425Y-107353553D01*
X103942425Y-107353553D02*
X103942425Y-107067839D01*
X103942425Y-107067839D02*
X104013853Y-106924982D01*
X104013853Y-106924982D02*
X104085282Y-106853553D01*
X104085282Y-106853553D02*
X104228139Y-106782125D01*
X105785912Y-88174983D02*
X105785912Y-89032126D01*
X107285912Y-88603554D02*
X105785912Y-88603554D01*
X107285912Y-89532125D02*
X105785912Y-89532125D01*
X107285912Y-90174983D02*
X106500198Y-90174983D01*
X106500198Y-90174983D02*
X106357341Y-90103554D01*
X106357341Y-90103554D02*
X106285912Y-89960697D01*
X106285912Y-89960697D02*
X106285912Y-89746411D01*
X106285912Y-89746411D02*
X106357341Y-89603554D01*
X106357341Y-89603554D02*
X106428769Y-89532125D01*
X106285912Y-91532126D02*
X107285912Y-91532126D01*
X106285912Y-90889268D02*
X107071626Y-90889268D01*
X107071626Y-90889268D02*
X107214484Y-90960697D01*
X107214484Y-90960697D02*
X107285912Y-91103554D01*
X107285912Y-91103554D02*
X107285912Y-91317840D01*
X107285912Y-91317840D02*
X107214484Y-91460697D01*
X107214484Y-91460697D02*
X107143055Y-91532126D01*
X107285912Y-92246411D02*
X106285912Y-92246411D01*
X106428769Y-92246411D02*
X106357341Y-92317840D01*
X106357341Y-92317840D02*
X106285912Y-92460697D01*
X106285912Y-92460697D02*
X106285912Y-92674983D01*
X106285912Y-92674983D02*
X106357341Y-92817840D01*
X106357341Y-92817840D02*
X106500198Y-92889269D01*
X106500198Y-92889269D02*
X107285912Y-92889269D01*
X106500198Y-92889269D02*
X106357341Y-92960697D01*
X106357341Y-92960697D02*
X106285912Y-93103554D01*
X106285912Y-93103554D02*
X106285912Y-93317840D01*
X106285912Y-93317840D02*
X106357341Y-93460697D01*
X106357341Y-93460697D02*
X106500198Y-93532126D01*
X106500198Y-93532126D02*
X107285912Y-93532126D01*
X107285912Y-94246411D02*
X105785912Y-94246411D01*
X106357341Y-94246411D02*
X106285912Y-94389269D01*
X106285912Y-94389269D02*
X106285912Y-94674983D01*
X106285912Y-94674983D02*
X106357341Y-94817840D01*
X106357341Y-94817840D02*
X106428769Y-94889269D01*
X106428769Y-94889269D02*
X106571626Y-94960697D01*
X106571626Y-94960697D02*
X107000198Y-94960697D01*
X107000198Y-94960697D02*
X107143055Y-94889269D01*
X107143055Y-94889269D02*
X107214484Y-94817840D01*
X107214484Y-94817840D02*
X107285912Y-94674983D01*
X107285912Y-94674983D02*
X107285912Y-94389269D01*
X107285912Y-94389269D02*
X107214484Y-94246411D01*
X107214484Y-95532126D02*
X107285912Y-95674983D01*
X107285912Y-95674983D02*
X107285912Y-95960697D01*
X107285912Y-95960697D02*
X107214484Y-96103554D01*
X107214484Y-96103554D02*
X107071626Y-96174983D01*
X107071626Y-96174983D02*
X107000198Y-96174983D01*
X107000198Y-96174983D02*
X106857341Y-96103554D01*
X106857341Y-96103554D02*
X106785912Y-95960697D01*
X106785912Y-95960697D02*
X106785912Y-95746412D01*
X106785912Y-95746412D02*
X106714484Y-95603554D01*
X106714484Y-95603554D02*
X106571626Y-95532126D01*
X106571626Y-95532126D02*
X106500198Y-95532126D01*
X106500198Y-95532126D02*
X106357341Y-95603554D01*
X106357341Y-95603554D02*
X106285912Y-95746412D01*
X106285912Y-95746412D02*
X106285912Y-95960697D01*
X106285912Y-95960697D02*
X106357341Y-96103554D01*
X105785912Y-96817840D02*
X107000198Y-96817840D01*
X107000198Y-96817840D02*
X107143055Y-96889269D01*
X107143055Y-96889269D02*
X107214484Y-96960698D01*
X107214484Y-96960698D02*
X107285912Y-97103555D01*
X107285912Y-97103555D02*
X107285912Y-97389269D01*
X107285912Y-97389269D02*
X107214484Y-97532126D01*
X107214484Y-97532126D02*
X107143055Y-97603555D01*
X107143055Y-97603555D02*
X107000198Y-97674983D01*
X107000198Y-97674983D02*
X105785912Y-97674983D01*
X106285912Y-98389269D02*
X107785912Y-98389269D01*
X106357341Y-98389269D02*
X106285912Y-98532127D01*
X106285912Y-98532127D02*
X106285912Y-98817841D01*
X106285912Y-98817841D02*
X106357341Y-98960698D01*
X106357341Y-98960698D02*
X106428769Y-99032127D01*
X106428769Y-99032127D02*
X106571626Y-99103555D01*
X106571626Y-99103555D02*
X107000198Y-99103555D01*
X107000198Y-99103555D02*
X107143055Y-99032127D01*
X107143055Y-99032127D02*
X107214484Y-98960698D01*
X107214484Y-98960698D02*
X107285912Y-98817841D01*
X107285912Y-98817841D02*
X107285912Y-98532127D01*
X107285912Y-98532127D02*
X107214484Y-98389269D01*
X107143055Y-99746412D02*
X107214484Y-99817841D01*
X107214484Y-99817841D02*
X107285912Y-99746412D01*
X107285912Y-99746412D02*
X107214484Y-99674984D01*
X107214484Y-99674984D02*
X107143055Y-99746412D01*
X107143055Y-99746412D02*
X107285912Y-99746412D01*
X106714484Y-99746412D02*
X105857341Y-99674984D01*
X105857341Y-99674984D02*
X105785912Y-99746412D01*
X105785912Y-99746412D02*
X105857341Y-99817841D01*
X105857341Y-99817841D02*
X106714484Y-99746412D01*
X106714484Y-99746412D02*
X105785912Y-99746412D01*
X105785912Y-101389270D02*
X105785912Y-102246413D01*
X107285912Y-101817841D02*
X105785912Y-101817841D01*
X107285912Y-102746412D02*
X106285912Y-102746412D01*
X106571626Y-102746412D02*
X106428769Y-102817841D01*
X106428769Y-102817841D02*
X106357341Y-102889270D01*
X106357341Y-102889270D02*
X106285912Y-103032127D01*
X106285912Y-103032127D02*
X106285912Y-103174984D01*
X107285912Y-104317841D02*
X106500198Y-104317841D01*
X106500198Y-104317841D02*
X106357341Y-104246412D01*
X106357341Y-104246412D02*
X106285912Y-104103555D01*
X106285912Y-104103555D02*
X106285912Y-103817841D01*
X106285912Y-103817841D02*
X106357341Y-103674983D01*
X107214484Y-104317841D02*
X107285912Y-104174983D01*
X107285912Y-104174983D02*
X107285912Y-103817841D01*
X107285912Y-103817841D02*
X107214484Y-103674983D01*
X107214484Y-103674983D02*
X107071626Y-103603555D01*
X107071626Y-103603555D02*
X106928769Y-103603555D01*
X106928769Y-103603555D02*
X106785912Y-103674983D01*
X106785912Y-103674983D02*
X106714484Y-103817841D01*
X106714484Y-103817841D02*
X106714484Y-104174983D01*
X106714484Y-104174983D02*
X106643055Y-104317841D01*
X107214484Y-105674984D02*
X107285912Y-105532126D01*
X107285912Y-105532126D02*
X107285912Y-105246412D01*
X107285912Y-105246412D02*
X107214484Y-105103555D01*
X107214484Y-105103555D02*
X107143055Y-105032126D01*
X107143055Y-105032126D02*
X107000198Y-104960698D01*
X107000198Y-104960698D02*
X106571626Y-104960698D01*
X106571626Y-104960698D02*
X106428769Y-105032126D01*
X106428769Y-105032126D02*
X106357341Y-105103555D01*
X106357341Y-105103555D02*
X106285912Y-105246412D01*
X106285912Y-105246412D02*
X106285912Y-105532126D01*
X106285912Y-105532126D02*
X106357341Y-105674984D01*
X107285912Y-106317840D02*
X105785912Y-106317840D01*
X106714484Y-106460698D02*
X107285912Y-106889269D01*
X106285912Y-106889269D02*
X106857341Y-106317840D01*
X107285912Y-107532126D02*
X105785912Y-107532126D01*
X106357341Y-107532126D02*
X106285912Y-107674984D01*
X106285912Y-107674984D02*
X106285912Y-107960698D01*
X106285912Y-107960698D02*
X106357341Y-108103555D01*
X106357341Y-108103555D02*
X106428769Y-108174984D01*
X106428769Y-108174984D02*
X106571626Y-108246412D01*
X106571626Y-108246412D02*
X107000198Y-108246412D01*
X107000198Y-108246412D02*
X107143055Y-108174984D01*
X107143055Y-108174984D02*
X107214484Y-108103555D01*
X107214484Y-108103555D02*
X107285912Y-107960698D01*
X107285912Y-107960698D02*
X107285912Y-107674984D01*
X107285912Y-107674984D02*
X107214484Y-107532126D01*
X107285912Y-109532127D02*
X106500198Y-109532127D01*
X106500198Y-109532127D02*
X106357341Y-109460698D01*
X106357341Y-109460698D02*
X106285912Y-109317841D01*
X106285912Y-109317841D02*
X106285912Y-109032127D01*
X106285912Y-109032127D02*
X106357341Y-108889269D01*
X107214484Y-109532127D02*
X107285912Y-109389269D01*
X107285912Y-109389269D02*
X107285912Y-109032127D01*
X107285912Y-109032127D02*
X107214484Y-108889269D01*
X107214484Y-108889269D02*
X107071626Y-108817841D01*
X107071626Y-108817841D02*
X106928769Y-108817841D01*
X106928769Y-108817841D02*
X106785912Y-108889269D01*
X106785912Y-108889269D02*
X106714484Y-109032127D01*
X106714484Y-109032127D02*
X106714484Y-109389269D01*
X106714484Y-109389269D02*
X106643055Y-109532127D01*
X107285912Y-110460698D02*
X107214484Y-110317841D01*
X107214484Y-110317841D02*
X107071626Y-110246412D01*
X107071626Y-110246412D02*
X105785912Y-110246412D01*
X107285912Y-111246412D02*
X107214484Y-111103555D01*
X107214484Y-111103555D02*
X107071626Y-111032126D01*
X107071626Y-111032126D02*
X105785912Y-111032126D01*
X106285912Y-112817840D02*
X107285912Y-113174983D01*
X107285912Y-113174983D02*
X106285912Y-113532126D01*
X106285912Y-114746412D02*
X107285912Y-114746412D01*
X105714484Y-114389269D02*
X106785912Y-114032126D01*
X106785912Y-114032126D02*
X106785912Y-114960697D01*
X108343685Y-94317841D02*
X108272257Y-94389269D01*
X108272257Y-94389269D02*
X108200828Y-94532127D01*
X108200828Y-94532127D02*
X108200828Y-94889269D01*
X108200828Y-94889269D02*
X108272257Y-95032127D01*
X108272257Y-95032127D02*
X108343685Y-95103555D01*
X108343685Y-95103555D02*
X108486542Y-95174984D01*
X108486542Y-95174984D02*
X108629400Y-95174984D01*
X108629400Y-95174984D02*
X108843685Y-95103555D01*
X108843685Y-95103555D02*
X109700828Y-94246412D01*
X109700828Y-94246412D02*
X109700828Y-95174984D01*
X108200828Y-96103555D02*
X108200828Y-96246412D01*
X108200828Y-96246412D02*
X108272257Y-96389269D01*
X108272257Y-96389269D02*
X108343685Y-96460698D01*
X108343685Y-96460698D02*
X108486542Y-96532126D01*
X108486542Y-96532126D02*
X108772257Y-96603555D01*
X108772257Y-96603555D02*
X109129400Y-96603555D01*
X109129400Y-96603555D02*
X109415114Y-96532126D01*
X109415114Y-96532126D02*
X109557971Y-96460698D01*
X109557971Y-96460698D02*
X109629400Y-96389269D01*
X109629400Y-96389269D02*
X109700828Y-96246412D01*
X109700828Y-96246412D02*
X109700828Y-96103555D01*
X109700828Y-96103555D02*
X109629400Y-95960698D01*
X109629400Y-95960698D02*
X109557971Y-95889269D01*
X109557971Y-95889269D02*
X109415114Y-95817840D01*
X109415114Y-95817840D02*
X109129400Y-95746412D01*
X109129400Y-95746412D02*
X108772257Y-95746412D01*
X108772257Y-95746412D02*
X108486542Y-95817840D01*
X108486542Y-95817840D02*
X108343685Y-95889269D01*
X108343685Y-95889269D02*
X108272257Y-95960698D01*
X108272257Y-95960698D02*
X108200828Y-96103555D01*
X108343685Y-97174983D02*
X108272257Y-97246411D01*
X108272257Y-97246411D02*
X108200828Y-97389269D01*
X108200828Y-97389269D02*
X108200828Y-97746411D01*
X108200828Y-97746411D02*
X108272257Y-97889269D01*
X108272257Y-97889269D02*
X108343685Y-97960697D01*
X108343685Y-97960697D02*
X108486542Y-98032126D01*
X108486542Y-98032126D02*
X108629400Y-98032126D01*
X108629400Y-98032126D02*
X108843685Y-97960697D01*
X108843685Y-97960697D02*
X109700828Y-97103554D01*
X109700828Y-97103554D02*
X109700828Y-98032126D01*
X108200828Y-99389268D02*
X108200828Y-98674982D01*
X108200828Y-98674982D02*
X108915114Y-98603554D01*
X108915114Y-98603554D02*
X108843685Y-98674982D01*
X108843685Y-98674982D02*
X108772257Y-98817840D01*
X108772257Y-98817840D02*
X108772257Y-99174982D01*
X108772257Y-99174982D02*
X108843685Y-99317840D01*
X108843685Y-99317840D02*
X108915114Y-99389268D01*
X108915114Y-99389268D02*
X109057971Y-99460697D01*
X109057971Y-99460697D02*
X109415114Y-99460697D01*
X109415114Y-99460697D02*
X109557971Y-99389268D01*
X109557971Y-99389268D02*
X109629400Y-99317840D01*
X109629400Y-99317840D02*
X109700828Y-99174982D01*
X109700828Y-99174982D02*
X109700828Y-98817840D01*
X109700828Y-98817840D02*
X109629400Y-98674982D01*
X109629400Y-98674982D02*
X109557971Y-98603554D01*
X109129400Y-100103553D02*
X109129400Y-101246411D01*
X108200828Y-102246411D02*
X108200828Y-102389268D01*
X108200828Y-102389268D02*
X108272257Y-102532125D01*
X108272257Y-102532125D02*
X108343685Y-102603554D01*
X108343685Y-102603554D02*
X108486542Y-102674982D01*
X108486542Y-102674982D02*
X108772257Y-102746411D01*
X108772257Y-102746411D02*
X109129400Y-102746411D01*
X109129400Y-102746411D02*
X109415114Y-102674982D01*
X109415114Y-102674982D02*
X109557971Y-102603554D01*
X109557971Y-102603554D02*
X109629400Y-102532125D01*
X109629400Y-102532125D02*
X109700828Y-102389268D01*
X109700828Y-102389268D02*
X109700828Y-102246411D01*
X109700828Y-102246411D02*
X109629400Y-102103554D01*
X109629400Y-102103554D02*
X109557971Y-102032125D01*
X109557971Y-102032125D02*
X109415114Y-101960696D01*
X109415114Y-101960696D02*
X109129400Y-101889268D01*
X109129400Y-101889268D02*
X108772257Y-101889268D01*
X108772257Y-101889268D02*
X108486542Y-101960696D01*
X108486542Y-101960696D02*
X108343685Y-102032125D01*
X108343685Y-102032125D02*
X108272257Y-102103554D01*
X108272257Y-102103554D02*
X108200828Y-102246411D01*
X109700828Y-103460696D02*
X109700828Y-103746410D01*
X109700828Y-103746410D02*
X109629400Y-103889267D01*
X109629400Y-103889267D02*
X109557971Y-103960696D01*
X109557971Y-103960696D02*
X109343685Y-104103553D01*
X109343685Y-104103553D02*
X109057971Y-104174982D01*
X109057971Y-104174982D02*
X108486542Y-104174982D01*
X108486542Y-104174982D02*
X108343685Y-104103553D01*
X108343685Y-104103553D02*
X108272257Y-104032125D01*
X108272257Y-104032125D02*
X108200828Y-103889267D01*
X108200828Y-103889267D02*
X108200828Y-103603553D01*
X108200828Y-103603553D02*
X108272257Y-103460696D01*
X108272257Y-103460696D02*
X108343685Y-103389267D01*
X108343685Y-103389267D02*
X108486542Y-103317839D01*
X108486542Y-103317839D02*
X108843685Y-103317839D01*
X108843685Y-103317839D02*
X108986542Y-103389267D01*
X108986542Y-103389267D02*
X109057971Y-103460696D01*
X109057971Y-103460696D02*
X109129400Y-103603553D01*
X109129400Y-103603553D02*
X109129400Y-103889267D01*
X109129400Y-103889267D02*
X109057971Y-104032125D01*
X109057971Y-104032125D02*
X108986542Y-104103553D01*
X108986542Y-104103553D02*
X108843685Y-104174982D01*
X109129400Y-104817838D02*
X109129400Y-105960696D01*
X109700828Y-107460696D02*
X109700828Y-106603553D01*
X109700828Y-107032124D02*
X108200828Y-107032124D01*
X108200828Y-107032124D02*
X108415114Y-106889267D01*
X108415114Y-106889267D02*
X108557971Y-106746410D01*
X108557971Y-106746410D02*
X108629400Y-106603553D01*
X109700828Y-108174981D02*
X109700828Y-108460695D01*
X109700828Y-108460695D02*
X109629400Y-108603552D01*
X109629400Y-108603552D02*
X109557971Y-108674981D01*
X109557971Y-108674981D02*
X109343685Y-108817838D01*
X109343685Y-108817838D02*
X109057971Y-108889267D01*
X109057971Y-108889267D02*
X108486542Y-108889267D01*
X108486542Y-108889267D02*
X108343685Y-108817838D01*
X108343685Y-108817838D02*
X108272257Y-108746410D01*
X108272257Y-108746410D02*
X108200828Y-108603552D01*
X108200828Y-108603552D02*
X108200828Y-108317838D01*
X108200828Y-108317838D02*
X108272257Y-108174981D01*
X108272257Y-108174981D02*
X108343685Y-108103552D01*
X108343685Y-108103552D02*
X108486542Y-108032124D01*
X108486542Y-108032124D02*
X108843685Y-108032124D01*
X108843685Y-108032124D02*
X108986542Y-108103552D01*
X108986542Y-108103552D02*
X109057971Y-108174981D01*
X109057971Y-108174981D02*
X109129400Y-108317838D01*
X109129400Y-108317838D02*
X109129400Y-108603552D01*
X109129400Y-108603552D02*
X109057971Y-108746410D01*
X109057971Y-108746410D02*
X108986542Y-108817838D01*
X108986542Y-108817838D02*
X108843685Y-108889267D01*
D10*
X128510839Y-84172200D02*
X128367982Y-84219819D01*
X128367982Y-84219819D02*
X128129887Y-84219819D01*
X128129887Y-84219819D02*
X128034649Y-84172200D01*
X128034649Y-84172200D02*
X127987030Y-84124580D01*
X127987030Y-84124580D02*
X127939411Y-84029342D01*
X127939411Y-84029342D02*
X127939411Y-83934104D01*
X127939411Y-83934104D02*
X127987030Y-83838866D01*
X127987030Y-83838866D02*
X128034649Y-83791247D01*
X128034649Y-83791247D02*
X128129887Y-83743628D01*
X128129887Y-83743628D02*
X128320363Y-83696009D01*
X128320363Y-83696009D02*
X128415601Y-83648390D01*
X128415601Y-83648390D02*
X128463220Y-83600771D01*
X128463220Y-83600771D02*
X128510839Y-83505533D01*
X128510839Y-83505533D02*
X128510839Y-83410295D01*
X128510839Y-83410295D02*
X128463220Y-83315057D01*
X128463220Y-83315057D02*
X128415601Y-83267438D01*
X128415601Y-83267438D02*
X128320363Y-83219819D01*
X128320363Y-83219819D02*
X128082268Y-83219819D01*
X128082268Y-83219819D02*
X127939411Y-83267438D01*
X127510839Y-84219819D02*
X127510839Y-83219819D01*
X127510839Y-83219819D02*
X127272744Y-83219819D01*
X127272744Y-83219819D02*
X127129887Y-83267438D01*
X127129887Y-83267438D02*
X127034649Y-83362676D01*
X127034649Y-83362676D02*
X126987030Y-83457914D01*
X126987030Y-83457914D02*
X126939411Y-83648390D01*
X126939411Y-83648390D02*
X126939411Y-83791247D01*
X126939411Y-83791247D02*
X126987030Y-83981723D01*
X126987030Y-83981723D02*
X127034649Y-84076961D01*
X127034649Y-84076961D02*
X127129887Y-84172200D01*
X127129887Y-84172200D02*
X127272744Y-84219819D01*
X127272744Y-84219819D02*
X127510839Y-84219819D01*
X126510839Y-84219819D02*
X126510839Y-83219819D01*
X125844173Y-83219819D02*
X125653697Y-83219819D01*
X125653697Y-83219819D02*
X125558459Y-83267438D01*
X125558459Y-83267438D02*
X125463221Y-83362676D01*
X125463221Y-83362676D02*
X125415602Y-83553152D01*
X125415602Y-83553152D02*
X125415602Y-83886485D01*
X125415602Y-83886485D02*
X125463221Y-84076961D01*
X125463221Y-84076961D02*
X125558459Y-84172200D01*
X125558459Y-84172200D02*
X125653697Y-84219819D01*
X125653697Y-84219819D02*
X125844173Y-84219819D01*
X125844173Y-84219819D02*
X125939411Y-84172200D01*
X125939411Y-84172200D02*
X126034649Y-84076961D01*
X126034649Y-84076961D02*
X126082268Y-83886485D01*
X126082268Y-83886485D02*
X126082268Y-83553152D01*
X126082268Y-83553152D02*
X126034649Y-83362676D01*
X126034649Y-83362676D02*
X125939411Y-83267438D01*
X125939411Y-83267438D02*
X125844173Y-83219819D01*
D11*
X165225114Y-64885714D02*
X165296542Y-65100000D01*
X165296542Y-65100000D02*
X165367971Y-65171429D01*
X165367971Y-65171429D02*
X165510828Y-65242857D01*
X165510828Y-65242857D02*
X165725114Y-65242857D01*
X165725114Y-65242857D02*
X165867971Y-65171429D01*
X165867971Y-65171429D02*
X165939400Y-65100000D01*
X165939400Y-65100000D02*
X166010828Y-64957143D01*
X166010828Y-64957143D02*
X166010828Y-64385714D01*
X166010828Y-64385714D02*
X164510828Y-64385714D01*
X164510828Y-64385714D02*
X164510828Y-64885714D01*
X164510828Y-64885714D02*
X164582257Y-65028572D01*
X164582257Y-65028572D02*
X164653685Y-65100000D01*
X164653685Y-65100000D02*
X164796542Y-65171429D01*
X164796542Y-65171429D02*
X164939400Y-65171429D01*
X164939400Y-65171429D02*
X165082257Y-65100000D01*
X165082257Y-65100000D02*
X165153685Y-65028572D01*
X165153685Y-65028572D02*
X165225114Y-64885714D01*
X165225114Y-64885714D02*
X165225114Y-64385714D01*
X164510828Y-65671429D02*
X164510828Y-66528572D01*
X166010828Y-66100000D02*
X164510828Y-66100000D01*
X165867971Y-69028571D02*
X165939400Y-68957143D01*
X165939400Y-68957143D02*
X166010828Y-68742857D01*
X166010828Y-68742857D02*
X166010828Y-68600000D01*
X166010828Y-68600000D02*
X165939400Y-68385714D01*
X165939400Y-68385714D02*
X165796542Y-68242857D01*
X165796542Y-68242857D02*
X165653685Y-68171428D01*
X165653685Y-68171428D02*
X165367971Y-68100000D01*
X165367971Y-68100000D02*
X165153685Y-68100000D01*
X165153685Y-68100000D02*
X164867971Y-68171428D01*
X164867971Y-68171428D02*
X164725114Y-68242857D01*
X164725114Y-68242857D02*
X164582257Y-68385714D01*
X164582257Y-68385714D02*
X164510828Y-68600000D01*
X164510828Y-68600000D02*
X164510828Y-68742857D01*
X164510828Y-68742857D02*
X164582257Y-68957143D01*
X164582257Y-68957143D02*
X164653685Y-69028571D01*
X166010828Y-70385714D02*
X166010828Y-69671428D01*
X166010828Y-69671428D02*
X164510828Y-69671428D01*
X165225114Y-70885714D02*
X165225114Y-71385714D01*
X166010828Y-71600000D02*
X166010828Y-70885714D01*
X166010828Y-70885714D02*
X164510828Y-70885714D01*
X164510828Y-70885714D02*
X164510828Y-71600000D01*
X165582257Y-72171429D02*
X165582257Y-72885715D01*
X166010828Y-72028572D02*
X164510828Y-72528572D01*
X164510828Y-72528572D02*
X166010828Y-73028572D01*
X166010828Y-74385714D02*
X165296542Y-73885714D01*
X166010828Y-73528571D02*
X164510828Y-73528571D01*
X164510828Y-73528571D02*
X164510828Y-74100000D01*
X164510828Y-74100000D02*
X164582257Y-74242857D01*
X164582257Y-74242857D02*
X164653685Y-74314286D01*
X164653685Y-74314286D02*
X164796542Y-74385714D01*
X164796542Y-74385714D02*
X165010828Y-74385714D01*
X165010828Y-74385714D02*
X165153685Y-74314286D01*
X165153685Y-74314286D02*
X165225114Y-74242857D01*
X165225114Y-74242857D02*
X165296542Y-74100000D01*
X165296542Y-74100000D02*
X165296542Y-73528571D01*
D10*
X164686065Y-98519047D02*
X164733684Y-98661904D01*
X164733684Y-98661904D02*
X164781303Y-98709523D01*
X164781303Y-98709523D02*
X164876541Y-98757142D01*
X164876541Y-98757142D02*
X165019398Y-98757142D01*
X165019398Y-98757142D02*
X165114636Y-98709523D01*
X165114636Y-98709523D02*
X165162256Y-98661904D01*
X165162256Y-98661904D02*
X165209875Y-98566666D01*
X165209875Y-98566666D02*
X165209875Y-98185714D01*
X165209875Y-98185714D02*
X164209875Y-98185714D01*
X164209875Y-98185714D02*
X164209875Y-98519047D01*
X164209875Y-98519047D02*
X164257494Y-98614285D01*
X164257494Y-98614285D02*
X164305113Y-98661904D01*
X164305113Y-98661904D02*
X164400351Y-98709523D01*
X164400351Y-98709523D02*
X164495589Y-98709523D01*
X164495589Y-98709523D02*
X164590827Y-98661904D01*
X164590827Y-98661904D02*
X164638446Y-98614285D01*
X164638446Y-98614285D02*
X164686065Y-98519047D01*
X164686065Y-98519047D02*
X164686065Y-98185714D01*
X164924160Y-99138095D02*
X164924160Y-99614285D01*
X165209875Y-99042857D02*
X164209875Y-99376190D01*
X164209875Y-99376190D02*
X165209875Y-99709523D01*
X164209875Y-99900000D02*
X164209875Y-100471428D01*
X165209875Y-100185714D02*
X164209875Y-100185714D01*
X164209875Y-100661905D02*
X164209875Y-101233333D01*
X165209875Y-100947619D02*
X164209875Y-100947619D01*
X164686065Y-101566667D02*
X164686065Y-101900000D01*
X165209875Y-102042857D02*
X165209875Y-101566667D01*
X165209875Y-101566667D02*
X164209875Y-101566667D01*
X164209875Y-101566667D02*
X164209875Y-102042857D01*
X165209875Y-103042857D02*
X164733684Y-102709524D01*
X165209875Y-102471429D02*
X164209875Y-102471429D01*
X164209875Y-102471429D02*
X164209875Y-102852381D01*
X164209875Y-102852381D02*
X164257494Y-102947619D01*
X164257494Y-102947619D02*
X164305113Y-102995238D01*
X164305113Y-102995238D02*
X164400351Y-103042857D01*
X164400351Y-103042857D02*
X164543208Y-103042857D01*
X164543208Y-103042857D02*
X164638446Y-102995238D01*
X164638446Y-102995238D02*
X164686065Y-102947619D01*
X164686065Y-102947619D02*
X164733684Y-102852381D01*
X164733684Y-102852381D02*
X164733684Y-102471429D01*
X164733684Y-103661905D02*
X165209875Y-103661905D01*
X164209875Y-103328572D02*
X164733684Y-103661905D01*
X164733684Y-103661905D02*
X164209875Y-103995238D01*
X165819819Y-98019047D02*
X165819819Y-98209523D01*
X165819819Y-98209523D02*
X165867438Y-98304761D01*
X165867438Y-98304761D02*
X165962676Y-98399999D01*
X165962676Y-98399999D02*
X166153152Y-98447618D01*
X166153152Y-98447618D02*
X166486485Y-98447618D01*
X166486485Y-98447618D02*
X166676961Y-98399999D01*
X166676961Y-98399999D02*
X166772200Y-98304761D01*
X166772200Y-98304761D02*
X166819819Y-98209523D01*
X166819819Y-98209523D02*
X166819819Y-98019047D01*
X166819819Y-98019047D02*
X166772200Y-97923809D01*
X166772200Y-97923809D02*
X166676961Y-97828571D01*
X166676961Y-97828571D02*
X166486485Y-97780952D01*
X166486485Y-97780952D02*
X166153152Y-97780952D01*
X166153152Y-97780952D02*
X165962676Y-97828571D01*
X165962676Y-97828571D02*
X165867438Y-97923809D01*
X165867438Y-97923809D02*
X165819819Y-98019047D01*
X166296009Y-99209523D02*
X166296009Y-98876190D01*
X166819819Y-98876190D02*
X165819819Y-98876190D01*
X165819819Y-98876190D02*
X165819819Y-99352380D01*
X166296009Y-100066666D02*
X166296009Y-99733333D01*
X166819819Y-99733333D02*
X165819819Y-99733333D01*
X165819819Y-99733333D02*
X165819819Y-100209523D01*
X166438866Y-101352381D02*
X166438866Y-102114286D01*
X165819819Y-103542857D02*
X165819819Y-103733333D01*
X165819819Y-103733333D02*
X165867438Y-103828571D01*
X165867438Y-103828571D02*
X165962676Y-103923809D01*
X165962676Y-103923809D02*
X166153152Y-103971428D01*
X166153152Y-103971428D02*
X166486485Y-103971428D01*
X166486485Y-103971428D02*
X166676961Y-103923809D01*
X166676961Y-103923809D02*
X166772200Y-103828571D01*
X166772200Y-103828571D02*
X166819819Y-103733333D01*
X166819819Y-103733333D02*
X166819819Y-103542857D01*
X166819819Y-103542857D02*
X166772200Y-103447619D01*
X166772200Y-103447619D02*
X166676961Y-103352381D01*
X166676961Y-103352381D02*
X166486485Y-103304762D01*
X166486485Y-103304762D02*
X166153152Y-103304762D01*
X166153152Y-103304762D02*
X165962676Y-103352381D01*
X165962676Y-103352381D02*
X165867438Y-103447619D01*
X165867438Y-103447619D02*
X165819819Y-103542857D01*
X166819819Y-104400000D02*
X165819819Y-104400000D01*
X165819819Y-104400000D02*
X166819819Y-104971428D01*
X166819819Y-104971428D02*
X165819819Y-104971428D01*
D11*
X155345489Y-98156080D02*
X155345489Y-96656080D01*
X155345489Y-96656080D02*
X154774060Y-96656080D01*
X154774060Y-96656080D02*
X154631203Y-96727509D01*
X154631203Y-96727509D02*
X154559774Y-96798937D01*
X154559774Y-96798937D02*
X154488346Y-96941794D01*
X154488346Y-96941794D02*
X154488346Y-97156080D01*
X154488346Y-97156080D02*
X154559774Y-97298937D01*
X154559774Y-97298937D02*
X154631203Y-97370366D01*
X154631203Y-97370366D02*
X154774060Y-97441794D01*
X154774060Y-97441794D02*
X155345489Y-97441794D01*
X153845489Y-98156080D02*
X153845489Y-97156080D01*
X153845489Y-97441794D02*
X153774060Y-97298937D01*
X153774060Y-97298937D02*
X153702632Y-97227509D01*
X153702632Y-97227509D02*
X153559774Y-97156080D01*
X153559774Y-97156080D02*
X153416917Y-97156080D01*
X152702632Y-98156080D02*
X152845489Y-98084652D01*
X152845489Y-98084652D02*
X152916918Y-98013223D01*
X152916918Y-98013223D02*
X152988346Y-97870366D01*
X152988346Y-97870366D02*
X152988346Y-97441794D01*
X152988346Y-97441794D02*
X152916918Y-97298937D01*
X152916918Y-97298937D02*
X152845489Y-97227509D01*
X152845489Y-97227509D02*
X152702632Y-97156080D01*
X152702632Y-97156080D02*
X152488346Y-97156080D01*
X152488346Y-97156080D02*
X152345489Y-97227509D01*
X152345489Y-97227509D02*
X152274061Y-97298937D01*
X152274061Y-97298937D02*
X152202632Y-97441794D01*
X152202632Y-97441794D02*
X152202632Y-97870366D01*
X152202632Y-97870366D02*
X152274061Y-98013223D01*
X152274061Y-98013223D02*
X152345489Y-98084652D01*
X152345489Y-98084652D02*
X152488346Y-98156080D01*
X152488346Y-98156080D02*
X152702632Y-98156080D01*
X151559775Y-98156080D02*
X151559775Y-96656080D01*
X151559775Y-96656080D02*
X151059775Y-97727509D01*
X151059775Y-97727509D02*
X150559775Y-96656080D01*
X150559775Y-96656080D02*
X150559775Y-98156080D01*
X149845489Y-98156080D02*
X149845489Y-97156080D01*
X149845489Y-96656080D02*
X149916917Y-96727509D01*
X149916917Y-96727509D02*
X149845489Y-96798937D01*
X149845489Y-96798937D02*
X149774060Y-96727509D01*
X149774060Y-96727509D02*
X149845489Y-96656080D01*
X149845489Y-96656080D02*
X149845489Y-96798937D01*
X148488346Y-98084652D02*
X148631203Y-98156080D01*
X148631203Y-98156080D02*
X148916917Y-98156080D01*
X148916917Y-98156080D02*
X149059774Y-98084652D01*
X149059774Y-98084652D02*
X149131203Y-98013223D01*
X149131203Y-98013223D02*
X149202631Y-97870366D01*
X149202631Y-97870366D02*
X149202631Y-97441794D01*
X149202631Y-97441794D02*
X149131203Y-97298937D01*
X149131203Y-97298937D02*
X149059774Y-97227509D01*
X149059774Y-97227509D02*
X148916917Y-97156080D01*
X148916917Y-97156080D02*
X148631203Y-97156080D01*
X148631203Y-97156080D02*
X148488346Y-97227509D01*
X147845489Y-98156080D02*
X147845489Y-97156080D01*
X147845489Y-97441794D02*
X147774060Y-97298937D01*
X147774060Y-97298937D02*
X147702632Y-97227509D01*
X147702632Y-97227509D02*
X147559774Y-97156080D01*
X147559774Y-97156080D02*
X147416917Y-97156080D01*
X146702632Y-98156080D02*
X146845489Y-98084652D01*
X146845489Y-98084652D02*
X146916918Y-98013223D01*
X146916918Y-98013223D02*
X146988346Y-97870366D01*
X146988346Y-97870366D02*
X146988346Y-97441794D01*
X146988346Y-97441794D02*
X146916918Y-97298937D01*
X146916918Y-97298937D02*
X146845489Y-97227509D01*
X146845489Y-97227509D02*
X146702632Y-97156080D01*
X146702632Y-97156080D02*
X146488346Y-97156080D01*
X146488346Y-97156080D02*
X146345489Y-97227509D01*
X146345489Y-97227509D02*
X146274061Y-97298937D01*
X146274061Y-97298937D02*
X146202632Y-97441794D01*
X146202632Y-97441794D02*
X146202632Y-97870366D01*
X146202632Y-97870366D02*
X146274061Y-98013223D01*
X146274061Y-98013223D02*
X146345489Y-98084652D01*
X146345489Y-98084652D02*
X146488346Y-98156080D01*
X146488346Y-98156080D02*
X146702632Y-98156080D01*
X155131203Y-100570996D02*
X155274060Y-100499568D01*
X155274060Y-100499568D02*
X155345489Y-100428139D01*
X155345489Y-100428139D02*
X155416917Y-100285282D01*
X155416917Y-100285282D02*
X155416917Y-99856710D01*
X155416917Y-99856710D02*
X155345489Y-99713853D01*
X155345489Y-99713853D02*
X155274060Y-99642425D01*
X155274060Y-99642425D02*
X155131203Y-99570996D01*
X155131203Y-99570996D02*
X154916917Y-99570996D01*
X154916917Y-99570996D02*
X154774060Y-99642425D01*
X154774060Y-99642425D02*
X154702632Y-99713853D01*
X154702632Y-99713853D02*
X154631203Y-99856710D01*
X154631203Y-99856710D02*
X154631203Y-100285282D01*
X154631203Y-100285282D02*
X154702632Y-100428139D01*
X154702632Y-100428139D02*
X154774060Y-100499568D01*
X154774060Y-100499568D02*
X154916917Y-100570996D01*
X154916917Y-100570996D02*
X155131203Y-100570996D01*
X153988346Y-99570996D02*
X153988346Y-100570996D01*
X153988346Y-99713853D02*
X153916917Y-99642425D01*
X153916917Y-99642425D02*
X153774060Y-99570996D01*
X153774060Y-99570996D02*
X153559774Y-99570996D01*
X153559774Y-99570996D02*
X153416917Y-99642425D01*
X153416917Y-99642425D02*
X153345489Y-99785282D01*
X153345489Y-99785282D02*
X153345489Y-100570996D01*
X151702631Y-99570996D02*
X151131203Y-99570996D01*
X151488346Y-99070996D02*
X151488346Y-100356710D01*
X151488346Y-100356710D02*
X151416917Y-100499568D01*
X151416917Y-100499568D02*
X151274060Y-100570996D01*
X151274060Y-100570996D02*
X151131203Y-100570996D01*
X150631203Y-100570996D02*
X150631203Y-99070996D01*
X149988346Y-100570996D02*
X149988346Y-99785282D01*
X149988346Y-99785282D02*
X150059774Y-99642425D01*
X150059774Y-99642425D02*
X150202631Y-99570996D01*
X150202631Y-99570996D02*
X150416917Y-99570996D01*
X150416917Y-99570996D02*
X150559774Y-99642425D01*
X150559774Y-99642425D02*
X150631203Y-99713853D01*
X148702631Y-100499568D02*
X148845488Y-100570996D01*
X148845488Y-100570996D02*
X149131203Y-100570996D01*
X149131203Y-100570996D02*
X149274060Y-100499568D01*
X149274060Y-100499568D02*
X149345488Y-100356710D01*
X149345488Y-100356710D02*
X149345488Y-99785282D01*
X149345488Y-99785282D02*
X149274060Y-99642425D01*
X149274060Y-99642425D02*
X149131203Y-99570996D01*
X149131203Y-99570996D02*
X148845488Y-99570996D01*
X148845488Y-99570996D02*
X148702631Y-99642425D01*
X148702631Y-99642425D02*
X148631203Y-99785282D01*
X148631203Y-99785282D02*
X148631203Y-99928139D01*
X148631203Y-99928139D02*
X149345488Y-100070996D01*
X155131203Y-102985912D02*
X155274060Y-102914484D01*
X155274060Y-102914484D02*
X155345489Y-102843055D01*
X155345489Y-102843055D02*
X155416917Y-102700198D01*
X155416917Y-102700198D02*
X155416917Y-102271626D01*
X155416917Y-102271626D02*
X155345489Y-102128769D01*
X155345489Y-102128769D02*
X155274060Y-102057341D01*
X155274060Y-102057341D02*
X155131203Y-101985912D01*
X155131203Y-101985912D02*
X154916917Y-101985912D01*
X154916917Y-101985912D02*
X154774060Y-102057341D01*
X154774060Y-102057341D02*
X154702632Y-102128769D01*
X154702632Y-102128769D02*
X154631203Y-102271626D01*
X154631203Y-102271626D02*
X154631203Y-102700198D01*
X154631203Y-102700198D02*
X154702632Y-102843055D01*
X154702632Y-102843055D02*
X154774060Y-102914484D01*
X154774060Y-102914484D02*
X154916917Y-102985912D01*
X154916917Y-102985912D02*
X155131203Y-102985912D01*
X154202631Y-101985912D02*
X153631203Y-101985912D01*
X153988346Y-101485912D02*
X153988346Y-102771626D01*
X153988346Y-102771626D02*
X153916917Y-102914484D01*
X153916917Y-102914484D02*
X153774060Y-102985912D01*
X153774060Y-102985912D02*
X153631203Y-102985912D01*
X153131203Y-102985912D02*
X153131203Y-101485912D01*
X152488346Y-102985912D02*
X152488346Y-102200198D01*
X152488346Y-102200198D02*
X152559774Y-102057341D01*
X152559774Y-102057341D02*
X152702631Y-101985912D01*
X152702631Y-101985912D02*
X152916917Y-101985912D01*
X152916917Y-101985912D02*
X153059774Y-102057341D01*
X153059774Y-102057341D02*
X153131203Y-102128769D01*
X151202631Y-102914484D02*
X151345488Y-102985912D01*
X151345488Y-102985912D02*
X151631203Y-102985912D01*
X151631203Y-102985912D02*
X151774060Y-102914484D01*
X151774060Y-102914484D02*
X151845488Y-102771626D01*
X151845488Y-102771626D02*
X151845488Y-102200198D01*
X151845488Y-102200198D02*
X151774060Y-102057341D01*
X151774060Y-102057341D02*
X151631203Y-101985912D01*
X151631203Y-101985912D02*
X151345488Y-101985912D01*
X151345488Y-101985912D02*
X151202631Y-102057341D01*
X151202631Y-102057341D02*
X151131203Y-102200198D01*
X151131203Y-102200198D02*
X151131203Y-102343055D01*
X151131203Y-102343055D02*
X151845488Y-102485912D01*
X150488346Y-102985912D02*
X150488346Y-101985912D01*
X150488346Y-102271626D02*
X150416917Y-102128769D01*
X150416917Y-102128769D02*
X150345489Y-102057341D01*
X150345489Y-102057341D02*
X150202631Y-101985912D01*
X150202631Y-101985912D02*
X150059774Y-101985912D01*
X148488346Y-102914484D02*
X148345489Y-102985912D01*
X148345489Y-102985912D02*
X148059775Y-102985912D01*
X148059775Y-102985912D02*
X147916918Y-102914484D01*
X147916918Y-102914484D02*
X147845489Y-102771626D01*
X147845489Y-102771626D02*
X147845489Y-102700198D01*
X147845489Y-102700198D02*
X147916918Y-102557341D01*
X147916918Y-102557341D02*
X148059775Y-102485912D01*
X148059775Y-102485912D02*
X148274061Y-102485912D01*
X148274061Y-102485912D02*
X148416918Y-102414484D01*
X148416918Y-102414484D02*
X148488346Y-102271626D01*
X148488346Y-102271626D02*
X148488346Y-102200198D01*
X148488346Y-102200198D02*
X148416918Y-102057341D01*
X148416918Y-102057341D02*
X148274061Y-101985912D01*
X148274061Y-101985912D02*
X148059775Y-101985912D01*
X148059775Y-101985912D02*
X147916918Y-102057341D01*
X147202632Y-102985912D02*
X147202632Y-101985912D01*
X147202632Y-101485912D02*
X147274060Y-101557341D01*
X147274060Y-101557341D02*
X147202632Y-101628769D01*
X147202632Y-101628769D02*
X147131203Y-101557341D01*
X147131203Y-101557341D02*
X147202632Y-101485912D01*
X147202632Y-101485912D02*
X147202632Y-101628769D01*
X145845489Y-102985912D02*
X145845489Y-101485912D01*
X145845489Y-102914484D02*
X145988346Y-102985912D01*
X145988346Y-102985912D02*
X146274060Y-102985912D01*
X146274060Y-102985912D02*
X146416917Y-102914484D01*
X146416917Y-102914484D02*
X146488346Y-102843055D01*
X146488346Y-102843055D02*
X146559774Y-102700198D01*
X146559774Y-102700198D02*
X146559774Y-102271626D01*
X146559774Y-102271626D02*
X146488346Y-102128769D01*
X146488346Y-102128769D02*
X146416917Y-102057341D01*
X146416917Y-102057341D02*
X146274060Y-101985912D01*
X146274060Y-101985912D02*
X145988346Y-101985912D01*
X145988346Y-101985912D02*
X145845489Y-102057341D01*
X144559774Y-102914484D02*
X144702631Y-102985912D01*
X144702631Y-102985912D02*
X144988346Y-102985912D01*
X144988346Y-102985912D02*
X145131203Y-102914484D01*
X145131203Y-102914484D02*
X145202631Y-102771626D01*
X145202631Y-102771626D02*
X145202631Y-102200198D01*
X145202631Y-102200198D02*
X145131203Y-102057341D01*
X145131203Y-102057341D02*
X144988346Y-101985912D01*
X144988346Y-101985912D02*
X144702631Y-101985912D01*
X144702631Y-101985912D02*
X144559774Y-102057341D01*
X144559774Y-102057341D02*
X144488346Y-102200198D01*
X144488346Y-102200198D02*
X144488346Y-102343055D01*
X144488346Y-102343055D02*
X145202631Y-102485912D01*
X154845489Y-104615114D02*
X155345489Y-104615114D01*
X155345489Y-105400828D02*
X155345489Y-103900828D01*
X155345489Y-103900828D02*
X154631203Y-103900828D01*
X154131203Y-104972257D02*
X153416918Y-104972257D01*
X154274060Y-105400828D02*
X153774060Y-103900828D01*
X153774060Y-103900828D02*
X153274060Y-105400828D01*
X151916918Y-105257971D02*
X151988346Y-105329400D01*
X151988346Y-105329400D02*
X152202632Y-105400828D01*
X152202632Y-105400828D02*
X152345489Y-105400828D01*
X152345489Y-105400828D02*
X152559775Y-105329400D01*
X152559775Y-105329400D02*
X152702632Y-105186542D01*
X152702632Y-105186542D02*
X152774061Y-105043685D01*
X152774061Y-105043685D02*
X152845489Y-104757971D01*
X152845489Y-104757971D02*
X152845489Y-104543685D01*
X152845489Y-104543685D02*
X152774061Y-104257971D01*
X152774061Y-104257971D02*
X152702632Y-104115114D01*
X152702632Y-104115114D02*
X152559775Y-103972257D01*
X152559775Y-103972257D02*
X152345489Y-103900828D01*
X152345489Y-103900828D02*
X152202632Y-103900828D01*
X152202632Y-103900828D02*
X151988346Y-103972257D01*
X151988346Y-103972257D02*
X151916918Y-104043685D01*
X151274061Y-104615114D02*
X150774061Y-104615114D01*
X150559775Y-105400828D02*
X151274061Y-105400828D01*
X151274061Y-105400828D02*
X151274061Y-103900828D01*
X151274061Y-103900828D02*
X150559775Y-103900828D01*
X148774061Y-105400828D02*
X148774061Y-103900828D01*
X148774061Y-103900828D02*
X148416918Y-103900828D01*
X148416918Y-103900828D02*
X148202632Y-103972257D01*
X148202632Y-103972257D02*
X148059775Y-104115114D01*
X148059775Y-104115114D02*
X147988346Y-104257971D01*
X147988346Y-104257971D02*
X147916918Y-104543685D01*
X147916918Y-104543685D02*
X147916918Y-104757971D01*
X147916918Y-104757971D02*
X147988346Y-105043685D01*
X147988346Y-105043685D02*
X148059775Y-105186542D01*
X148059775Y-105186542D02*
X148202632Y-105329400D01*
X148202632Y-105329400D02*
X148416918Y-105400828D01*
X148416918Y-105400828D02*
X148774061Y-105400828D01*
X146988346Y-103900828D02*
X146702632Y-103900828D01*
X146702632Y-103900828D02*
X146559775Y-103972257D01*
X146559775Y-103972257D02*
X146416918Y-104115114D01*
X146416918Y-104115114D02*
X146345489Y-104400828D01*
X146345489Y-104400828D02*
X146345489Y-104900828D01*
X146345489Y-104900828D02*
X146416918Y-105186542D01*
X146416918Y-105186542D02*
X146559775Y-105329400D01*
X146559775Y-105329400D02*
X146702632Y-105400828D01*
X146702632Y-105400828D02*
X146988346Y-105400828D01*
X146988346Y-105400828D02*
X147131204Y-105329400D01*
X147131204Y-105329400D02*
X147274061Y-105186542D01*
X147274061Y-105186542D02*
X147345489Y-104900828D01*
X147345489Y-104900828D02*
X147345489Y-104400828D01*
X147345489Y-104400828D02*
X147274061Y-104115114D01*
X147274061Y-104115114D02*
X147131204Y-103972257D01*
X147131204Y-103972257D02*
X146988346Y-103900828D01*
X145845489Y-103900828D02*
X145488346Y-105400828D01*
X145488346Y-105400828D02*
X145202632Y-104329400D01*
X145202632Y-104329400D02*
X144916917Y-105400828D01*
X144916917Y-105400828D02*
X144559775Y-103900828D01*
X143988346Y-105400828D02*
X143988346Y-103900828D01*
X143988346Y-103900828D02*
X143131203Y-105400828D01*
X143131203Y-105400828D02*
X143131203Y-103900828D01*
D10*
X128163220Y-119819819D02*
X128163220Y-118819819D01*
X128163220Y-118819819D02*
X127591792Y-119819819D01*
X127591792Y-119819819D02*
X127591792Y-118819819D01*
X126544173Y-119724580D02*
X126591792Y-119772200D01*
X126591792Y-119772200D02*
X126734649Y-119819819D01*
X126734649Y-119819819D02*
X126829887Y-119819819D01*
X126829887Y-119819819D02*
X126972744Y-119772200D01*
X126972744Y-119772200D02*
X127067982Y-119676961D01*
X127067982Y-119676961D02*
X127115601Y-119581723D01*
X127115601Y-119581723D02*
X127163220Y-119391247D01*
X127163220Y-119391247D02*
X127163220Y-119248390D01*
X127163220Y-119248390D02*
X127115601Y-119057914D01*
X127115601Y-119057914D02*
X127067982Y-118962676D01*
X127067982Y-118962676D02*
X126972744Y-118867438D01*
X126972744Y-118867438D02*
X126829887Y-118819819D01*
X126829887Y-118819819D02*
X126734649Y-118819819D01*
X126734649Y-118819819D02*
X126591792Y-118867438D01*
X126591792Y-118867438D02*
X126544173Y-118915057D01*
X126163220Y-119772200D02*
X126020363Y-119819819D01*
X126020363Y-119819819D02*
X125782268Y-119819819D01*
X125782268Y-119819819D02*
X125687030Y-119772200D01*
X125687030Y-119772200D02*
X125639411Y-119724580D01*
X125639411Y-119724580D02*
X125591792Y-119629342D01*
X125591792Y-119629342D02*
X125591792Y-119534104D01*
X125591792Y-119534104D02*
X125639411Y-119438866D01*
X125639411Y-119438866D02*
X125687030Y-119391247D01*
X125687030Y-119391247D02*
X125782268Y-119343628D01*
X125782268Y-119343628D02*
X125972744Y-119296009D01*
X125972744Y-119296009D02*
X126067982Y-119248390D01*
X126067982Y-119248390D02*
X126115601Y-119200771D01*
X126115601Y-119200771D02*
X126163220Y-119105533D01*
X126163220Y-119105533D02*
X126163220Y-119010295D01*
X126163220Y-119010295D02*
X126115601Y-118915057D01*
X126115601Y-118915057D02*
X126067982Y-118867438D01*
X126067982Y-118867438D02*
X125972744Y-118819819D01*
X125972744Y-118819819D02*
X125734649Y-118819819D01*
X125734649Y-118819819D02*
X125591792Y-118867438D01*
X143035713Y-135168819D02*
X143035713Y-134168819D01*
X143035713Y-134168819D02*
X142702380Y-134883104D01*
X142702380Y-134883104D02*
X142369047Y-134168819D01*
X142369047Y-134168819D02*
X142369047Y-135168819D01*
X141988094Y-134168819D02*
X141321428Y-135168819D01*
X141321428Y-134168819D02*
X141988094Y-135168819D01*
X140988094Y-134264057D02*
X140940475Y-134216438D01*
X140940475Y-134216438D02*
X140845237Y-134168819D01*
X140845237Y-134168819D02*
X140607142Y-134168819D01*
X140607142Y-134168819D02*
X140511904Y-134216438D01*
X140511904Y-134216438D02*
X140464285Y-134264057D01*
X140464285Y-134264057D02*
X140416666Y-134359295D01*
X140416666Y-134359295D02*
X140416666Y-134454533D01*
X140416666Y-134454533D02*
X140464285Y-134597390D01*
X140464285Y-134597390D02*
X141035713Y-135168819D01*
X141035713Y-135168819D02*
X140416666Y-135168819D01*
X124285713Y-135668819D02*
X124285713Y-134668819D01*
X124285713Y-134668819D02*
X123952380Y-135383104D01*
X123952380Y-135383104D02*
X123619047Y-134668819D01*
X123619047Y-134668819D02*
X123619047Y-135668819D01*
X123238094Y-134668819D02*
X122571428Y-135668819D01*
X122571428Y-134668819D02*
X123238094Y-135668819D01*
X122285713Y-134668819D02*
X121666666Y-134668819D01*
X121666666Y-134668819D02*
X121999999Y-135049771D01*
X121999999Y-135049771D02*
X121857142Y-135049771D01*
X121857142Y-135049771D02*
X121761904Y-135097390D01*
X121761904Y-135097390D02*
X121714285Y-135145009D01*
X121714285Y-135145009D02*
X121666666Y-135240247D01*
X121666666Y-135240247D02*
X121666666Y-135478342D01*
X121666666Y-135478342D02*
X121714285Y-135573580D01*
X121714285Y-135573580D02*
X121761904Y-135621200D01*
X121761904Y-135621200D02*
X121857142Y-135668819D01*
X121857142Y-135668819D02*
X122142856Y-135668819D01*
X122142856Y-135668819D02*
X122238094Y-135621200D01*
X122238094Y-135621200D02*
X122285713Y-135573580D01*
X137285713Y-69890819D02*
X137285713Y-68890819D01*
X137285713Y-68890819D02*
X136952380Y-69605104D01*
X136952380Y-69605104D02*
X136619047Y-68890819D01*
X136619047Y-68890819D02*
X136619047Y-69890819D01*
X136238094Y-68890819D02*
X135571428Y-69890819D01*
X135571428Y-68890819D02*
X136238094Y-69890819D01*
X134714285Y-68890819D02*
X135190475Y-68890819D01*
X135190475Y-68890819D02*
X135238094Y-69367009D01*
X135238094Y-69367009D02*
X135190475Y-69319390D01*
X135190475Y-69319390D02*
X135095237Y-69271771D01*
X135095237Y-69271771D02*
X134857142Y-69271771D01*
X134857142Y-69271771D02*
X134761904Y-69319390D01*
X134761904Y-69319390D02*
X134714285Y-69367009D01*
X134714285Y-69367009D02*
X134666666Y-69462247D01*
X134666666Y-69462247D02*
X134666666Y-69700342D01*
X134666666Y-69700342D02*
X134714285Y-69795580D01*
X134714285Y-69795580D02*
X134761904Y-69843200D01*
X134761904Y-69843200D02*
X134857142Y-69890819D01*
X134857142Y-69890819D02*
X135095237Y-69890819D01*
X135095237Y-69890819D02*
X135190475Y-69843200D01*
X135190475Y-69843200D02*
X135238094Y-69795580D01*
X118785713Y-69890819D02*
X118785713Y-68890819D01*
X118785713Y-68890819D02*
X118452380Y-69605104D01*
X118452380Y-69605104D02*
X118119047Y-68890819D01*
X118119047Y-68890819D02*
X118119047Y-69890819D01*
X117738094Y-68890819D02*
X117071428Y-69890819D01*
X117071428Y-68890819D02*
X117738094Y-69890819D01*
X116261904Y-68890819D02*
X116452380Y-68890819D01*
X116452380Y-68890819D02*
X116547618Y-68938438D01*
X116547618Y-68938438D02*
X116595237Y-68986057D01*
X116595237Y-68986057D02*
X116690475Y-69128914D01*
X116690475Y-69128914D02*
X116738094Y-69319390D01*
X116738094Y-69319390D02*
X116738094Y-69700342D01*
X116738094Y-69700342D02*
X116690475Y-69795580D01*
X116690475Y-69795580D02*
X116642856Y-69843200D01*
X116642856Y-69843200D02*
X116547618Y-69890819D01*
X116547618Y-69890819D02*
X116357142Y-69890819D01*
X116357142Y-69890819D02*
X116261904Y-69843200D01*
X116261904Y-69843200D02*
X116214285Y-69795580D01*
X116214285Y-69795580D02*
X116166666Y-69700342D01*
X116166666Y-69700342D02*
X116166666Y-69462247D01*
X116166666Y-69462247D02*
X116214285Y-69367009D01*
X116214285Y-69367009D02*
X116261904Y-69319390D01*
X116261904Y-69319390D02*
X116357142Y-69271771D01*
X116357142Y-69271771D02*
X116547618Y-69271771D01*
X116547618Y-69271771D02*
X116642856Y-69319390D01*
X116642856Y-69319390D02*
X116690475Y-69367009D01*
X116690475Y-69367009D02*
X116738094Y-69462247D01*
X137000000Y-131764000D02*
X137500000Y-131264000D01*
X137000000Y-135264000D02*
X137500000Y-135764000D01*
X137500000Y-131264000D02*
X140500000Y-131264000D01*
X137500000Y-135764000D02*
X140000000Y-135764000D01*
X140500000Y-131264000D02*
X141000000Y-131764000D01*
X141000000Y-132764000D02*
X141000000Y-131764000D01*
X141500000Y-137264000D02*
X141500000Y-137964000D01*
X141500000Y-137964000D02*
X146000000Y-137964000D01*
X146000000Y-133264000D02*
X141500000Y-133264000D01*
X146000000Y-133864000D02*
X146000000Y-133264000D01*
X146000000Y-137964000D02*
X146000000Y-137464000D01*
X140000000Y-135764000D02*
G75*
G02*
X141500000Y-137264000I-1J-1500001D01*
G01*
X141500000Y-133264000D02*
G75*
G02*
X141000000Y-132764000I1J500001D01*
G01*
X118400000Y-131764000D02*
X118900000Y-131264000D01*
X118400000Y-135264000D02*
X118900000Y-135764000D01*
X118900000Y-131264000D02*
X121900000Y-131264000D01*
X118900000Y-135764000D02*
X121400000Y-135764000D01*
X121900000Y-131264000D02*
X122400000Y-131764000D01*
X122400000Y-132764000D02*
X122400000Y-131764000D01*
X122900000Y-137264000D02*
X122900000Y-137964000D01*
X122900000Y-137964000D02*
X127400000Y-137964000D01*
X127400000Y-133264000D02*
X122900000Y-133264000D01*
X127400000Y-133864000D02*
X127400000Y-133264000D01*
X127400000Y-137964000D02*
X127400000Y-137464000D01*
X121400000Y-135764000D02*
G75*
G02*
X122900000Y-137264000I-1J-1500001D01*
G01*
X122900000Y-133264000D02*
G75*
G02*
X122400000Y-132764000I1J500001D01*
G01*
X132000000Y-65936000D02*
X132000000Y-66436000D01*
X132000000Y-70036000D02*
X132000000Y-70636000D01*
X132000000Y-70636000D02*
X136500000Y-70636000D01*
X136500000Y-65936000D02*
X132000000Y-65936000D01*
X136500000Y-66636000D02*
X136500000Y-65936000D01*
X137000000Y-71136000D02*
X137000000Y-72136000D01*
X137500000Y-72636000D02*
X137000000Y-72136000D01*
X140500000Y-68136000D02*
X138000000Y-68136000D01*
X140500000Y-72636000D02*
X137500000Y-72636000D01*
X141000000Y-68636000D02*
X140500000Y-68136000D01*
X141000000Y-72136000D02*
X140500000Y-72636000D01*
X136500000Y-70636000D02*
G75*
G02*
X137000000Y-71136000I-1J-500001D01*
G01*
X138000000Y-68136000D02*
G75*
G02*
X136500000Y-66636000I1J1500001D01*
G01*
X113400000Y-65936000D02*
X113400000Y-66436000D01*
X113400000Y-70036000D02*
X113400000Y-70636000D01*
X113400000Y-70636000D02*
X117900000Y-70636000D01*
X117900000Y-65936000D02*
X113400000Y-65936000D01*
X117900000Y-66636000D02*
X117900000Y-65936000D01*
X118400000Y-71136000D02*
X118400000Y-72136000D01*
X118900000Y-72636000D02*
X118400000Y-72136000D01*
X121900000Y-68136000D02*
X119400000Y-68136000D01*
X121900000Y-72636000D02*
X118900000Y-72636000D01*
X122400000Y-68636000D02*
X121900000Y-68136000D01*
X122400000Y-72136000D02*
X121900000Y-72636000D01*
X117900000Y-70636000D02*
G75*
G02*
X118400000Y-71136000I-1J-500001D01*
G01*
X119400000Y-68136000D02*
G75*
G02*
X117900000Y-66636000I1J1500001D01*
G01*
D12*
X165660000Y-109200000D03*
D13*
X163120000Y-109200000D03*
X160580000Y-109200000D03*
X158040000Y-109200000D03*
X155500000Y-109200000D03*
X152960000Y-109200000D03*
X150420000Y-109200000D03*
X147880000Y-109200000D03*
X145340000Y-109200000D03*
X142800000Y-109200000D03*
X140260000Y-109200000D03*
X137720000Y-109200000D03*
X137720000Y-93960000D03*
X140260000Y-93960000D03*
X142800000Y-93960000D03*
X145340000Y-93960000D03*
X147880000Y-93960000D03*
X150420000Y-93960000D03*
X152960000Y-93960000D03*
X155500000Y-93960000D03*
X158040000Y-93960000D03*
X160580000Y-93960000D03*
X163120000Y-93960000D03*
X165660000Y-93960000D03*
M02*
