G04 #@! TF.GenerationSoftware,KiCad,Pcbnew,9.0.2*
G04 #@! TF.CreationDate,2025-12-18T00:12:00-05:00*
G04 #@! TF.ProjectId,Trackball,54726163-6b62-4616-9c6c-2e6b69636164,rev?*
G04 #@! TF.SameCoordinates,Original*
G04 #@! TF.FileFunction,Soldermask,Bot*
G04 #@! TF.FilePolarity,Negative*
%FSLAX46Y46*%
G04 Gerber Fmt 4.6, Leading zero omitted, Abs format (unit mm)*
G04 Created by KiCad (PCBNEW 9.0.2) date 2025-12-18 00:12:00*
%MOMM*%
%LPD*%
G01*
G04 APERTURE LIST*
G04 APERTURE END LIST*
G36*
X156344432Y-137732424D02*
G01*
X156567501Y-137792195D01*
X156780861Y-137880571D01*
X156980859Y-137996040D01*
X157164075Y-138136627D01*
X157327373Y-138299925D01*
X157467960Y-138483141D01*
X157583429Y-138683139D01*
X157671805Y-138896499D01*
X157731576Y-139119568D01*
X157761720Y-139348531D01*
X157761720Y-139579469D01*
X157731576Y-139808432D01*
X157671805Y-140031501D01*
X157583429Y-140244861D01*
X157467960Y-140444859D01*
X157327373Y-140628075D01*
X157164075Y-140791373D01*
X156980859Y-140931960D01*
X156780861Y-141047429D01*
X156567501Y-141135805D01*
X156344432Y-141195576D01*
X156115469Y-141225720D01*
X155884531Y-141225720D01*
X155655568Y-141195576D01*
X155432499Y-141135805D01*
X155219139Y-141047429D01*
X155019141Y-140931960D01*
X154835925Y-140791373D01*
X154672627Y-140628075D01*
X154532040Y-140444859D01*
X154416571Y-140244861D01*
X154328195Y-140031501D01*
X154268424Y-139808432D01*
X154238280Y-139579469D01*
X154238280Y-139348531D01*
X154268424Y-139119568D01*
X154328195Y-138896499D01*
X154416571Y-138683139D01*
X154532040Y-138483141D01*
X154672627Y-138299925D01*
X154835925Y-138136627D01*
X155019141Y-137996040D01*
X155219139Y-137880571D01*
X155432499Y-137792195D01*
X155655568Y-137732424D01*
X155884531Y-137702280D01*
X156115469Y-137702280D01*
X156344432Y-137732424D01*
G37*
G36*
X150761808Y-138600936D02*
G01*
X150925153Y-138668595D01*
X151072159Y-138766822D01*
X151197178Y-138891841D01*
X151295405Y-139038847D01*
X151363064Y-139202192D01*
X151397557Y-139375598D01*
X151397557Y-139552402D01*
X151363064Y-139725808D01*
X151295405Y-139889153D01*
X151197178Y-140036159D01*
X151072159Y-140161178D01*
X150925153Y-140259405D01*
X150761808Y-140327064D01*
X150588402Y-140361557D01*
X150411598Y-140361557D01*
X150238192Y-140327064D01*
X150074847Y-140259405D01*
X149927841Y-140161178D01*
X149802822Y-140036159D01*
X149704595Y-139889153D01*
X149636936Y-139725808D01*
X149602443Y-139552402D01*
X149602443Y-139375598D01*
X149636936Y-139202192D01*
X149704595Y-139038847D01*
X149802822Y-138891841D01*
X149927841Y-138766822D01*
X150074847Y-138668595D01*
X150238192Y-138600936D01*
X150411598Y-138566443D01*
X150588402Y-138566443D01*
X150761808Y-138600936D01*
G37*
G36*
X161761808Y-138600936D02*
G01*
X161925153Y-138668595D01*
X162072159Y-138766822D01*
X162197178Y-138891841D01*
X162295405Y-139038847D01*
X162363064Y-139202192D01*
X162397557Y-139375598D01*
X162397557Y-139552402D01*
X162363064Y-139725808D01*
X162295405Y-139889153D01*
X162197178Y-140036159D01*
X162072159Y-140161178D01*
X161925153Y-140259405D01*
X161761808Y-140327064D01*
X161588402Y-140361557D01*
X161411598Y-140361557D01*
X161238192Y-140327064D01*
X161074847Y-140259405D01*
X160927841Y-140161178D01*
X160802822Y-140036159D01*
X160704595Y-139889153D01*
X160636936Y-139725808D01*
X160602443Y-139552402D01*
X160602443Y-139375598D01*
X160636936Y-139202192D01*
X160704595Y-139038847D01*
X160802822Y-138891841D01*
X160927841Y-138766822D01*
X161074847Y-138668595D01*
X161238192Y-138600936D01*
X161411598Y-138566443D01*
X161588402Y-138566443D01*
X161761808Y-138600936D01*
G37*
G36*
X130950386Y-130439599D02*
G01*
X131311419Y-130511413D01*
X131663674Y-130618268D01*
X132003759Y-130759136D01*
X132328399Y-130932660D01*
X132634468Y-131137169D01*
X132919018Y-131370692D01*
X133179308Y-131630982D01*
X133412831Y-131915532D01*
X133617340Y-132221601D01*
X133790864Y-132546241D01*
X133931732Y-132886326D01*
X134038587Y-133238581D01*
X134110401Y-133599614D01*
X134146482Y-133965947D01*
X134146482Y-134334053D01*
X134110401Y-134700386D01*
X134038587Y-135061419D01*
X133931732Y-135413674D01*
X133790864Y-135753759D01*
X133617340Y-136078399D01*
X133412831Y-136384468D01*
X133179308Y-136669018D01*
X132919018Y-136929308D01*
X132634468Y-137162831D01*
X132328399Y-137367340D01*
X132003759Y-137540864D01*
X131663674Y-137681732D01*
X131311419Y-137788587D01*
X130950386Y-137860401D01*
X130584053Y-137896482D01*
X130215947Y-137896482D01*
X129849614Y-137860401D01*
X129488581Y-137788587D01*
X129136326Y-137681732D01*
X128796241Y-137540864D01*
X128471601Y-137367340D01*
X128165532Y-137162831D01*
X127880982Y-136929308D01*
X127620692Y-136669018D01*
X127387169Y-136384468D01*
X127182660Y-136078399D01*
X127009136Y-135753759D01*
X126868268Y-135413674D01*
X126761413Y-135061419D01*
X126689599Y-134700386D01*
X126653518Y-134334053D01*
X126653518Y-133965947D01*
X126689599Y-133599614D01*
X126761413Y-133238581D01*
X126868268Y-132886326D01*
X127009136Y-132546241D01*
X127182660Y-132221601D01*
X127387169Y-131915532D01*
X127620692Y-131630982D01*
X127880982Y-131370692D01*
X128165532Y-131137169D01*
X128471601Y-130932660D01*
X128796241Y-130759136D01*
X129136326Y-130618268D01*
X129488581Y-130511413D01*
X129849614Y-130439599D01*
X130215947Y-130403518D01*
X130584053Y-130403518D01*
X130950386Y-130439599D01*
G37*
G36*
X182997586Y-130439599D02*
G01*
X183358619Y-130511413D01*
X183710874Y-130618268D01*
X184050959Y-130759136D01*
X184375599Y-130932660D01*
X184681668Y-131137169D01*
X184966218Y-131370692D01*
X185226508Y-131630982D01*
X185460031Y-131915532D01*
X185664540Y-132221601D01*
X185838064Y-132546241D01*
X185978932Y-132886326D01*
X186085787Y-133238581D01*
X186157601Y-133599614D01*
X186193682Y-133965947D01*
X186193682Y-134334053D01*
X186157601Y-134700386D01*
X186085787Y-135061419D01*
X185978932Y-135413674D01*
X185838064Y-135753759D01*
X185664540Y-136078399D01*
X185460031Y-136384468D01*
X185226508Y-136669018D01*
X184966218Y-136929308D01*
X184681668Y-137162831D01*
X184375599Y-137367340D01*
X184050959Y-137540864D01*
X183710874Y-137681732D01*
X183358619Y-137788587D01*
X182997586Y-137860401D01*
X182631253Y-137896482D01*
X182263147Y-137896482D01*
X181896814Y-137860401D01*
X181535781Y-137788587D01*
X181183526Y-137681732D01*
X180843441Y-137540864D01*
X180518801Y-137367340D01*
X180212732Y-137162831D01*
X179928182Y-136929308D01*
X179667892Y-136669018D01*
X179434369Y-136384468D01*
X179229860Y-136078399D01*
X179056336Y-135753759D01*
X178915468Y-135413674D01*
X178808613Y-135061419D01*
X178736799Y-134700386D01*
X178700718Y-134334053D01*
X178700718Y-133965947D01*
X178736799Y-133599614D01*
X178808613Y-133238581D01*
X178915468Y-132886326D01*
X179056336Y-132546241D01*
X179229860Y-132221601D01*
X179434369Y-131915532D01*
X179667892Y-131630982D01*
X179928182Y-131370692D01*
X180212732Y-131137169D01*
X180518801Y-130932660D01*
X180843441Y-130759136D01*
X181183526Y-130618268D01*
X181535781Y-130511413D01*
X181896814Y-130439599D01*
X182263147Y-130403518D01*
X182631253Y-130403518D01*
X182997586Y-130439599D01*
G37*
G36*
X161110482Y-134167781D02*
G01*
X161121690Y-134167781D01*
X161176888Y-134176523D01*
X161302534Y-134193065D01*
X161333189Y-134201279D01*
X161362074Y-134205854D01*
X161417620Y-134223902D01*
X161498467Y-134245565D01*
X161550050Y-134266931D01*
X161593542Y-134281063D01*
X161634286Y-134301823D01*
X161685870Y-134323190D01*
X161758353Y-134365038D01*
X161810395Y-134391555D01*
X161834055Y-134408745D01*
X161861539Y-134424613D01*
X161962074Y-134501756D01*
X162007294Y-134534610D01*
X162015219Y-134542535D01*
X162022466Y-134548096D01*
X162165903Y-134691533D01*
X162171463Y-134698779D01*
X162179390Y-134706706D01*
X162212247Y-134751930D01*
X162289386Y-134852460D01*
X162305252Y-134879941D01*
X162322445Y-134903605D01*
X162348964Y-134955652D01*
X162390809Y-135028129D01*
X162412173Y-135079706D01*
X162432937Y-135120458D01*
X162447070Y-135163955D01*
X162468434Y-135215532D01*
X162490093Y-135296366D01*
X162508146Y-135351926D01*
X162512721Y-135380816D01*
X162520934Y-135411465D01*
X162537474Y-135537099D01*
X162546219Y-135592310D01*
X162546219Y-135603518D01*
X162547412Y-135612580D01*
X162547412Y-135815419D01*
X162546219Y-135824480D01*
X162546219Y-135835690D01*
X162537473Y-135890905D01*
X162520934Y-136016534D01*
X162512722Y-136047180D01*
X162508146Y-136076074D01*
X162490091Y-136131638D01*
X162468434Y-136212467D01*
X162447071Y-136264039D01*
X162432937Y-136307542D01*
X162412171Y-136348297D01*
X162390809Y-136399870D01*
X162348968Y-136472338D01*
X162322445Y-136524395D01*
X162305249Y-136548062D01*
X162289386Y-136575539D01*
X162212261Y-136676050D01*
X162179390Y-136721294D01*
X162171459Y-136729224D01*
X162165903Y-136736466D01*
X162022466Y-136879903D01*
X162015224Y-136885459D01*
X162007294Y-136893390D01*
X161962050Y-136926261D01*
X161861539Y-137003386D01*
X161834062Y-137019249D01*
X161810395Y-137036445D01*
X161758338Y-137062968D01*
X161685870Y-137104809D01*
X161634297Y-137126171D01*
X161593542Y-137146937D01*
X161550039Y-137161071D01*
X161498467Y-137182434D01*
X161417638Y-137204091D01*
X161362074Y-137222146D01*
X161333180Y-137226722D01*
X161302534Y-137234934D01*
X161176902Y-137251474D01*
X161121690Y-137260219D01*
X161110481Y-137260219D01*
X161101420Y-137261412D01*
X160898580Y-137261412D01*
X160889519Y-137260219D01*
X160878310Y-137260219D01*
X160823099Y-137251474D01*
X160697465Y-137234934D01*
X160666816Y-137226721D01*
X160637926Y-137222146D01*
X160582366Y-137204093D01*
X160501532Y-137182434D01*
X160449955Y-137161070D01*
X160406458Y-137146937D01*
X160365706Y-137126173D01*
X160314129Y-137104809D01*
X160241652Y-137062964D01*
X160189605Y-137036445D01*
X160165941Y-137019252D01*
X160138460Y-137003386D01*
X160037930Y-136926247D01*
X159992706Y-136893390D01*
X159984779Y-136885463D01*
X159977533Y-136879903D01*
X159834096Y-136736466D01*
X159828535Y-136729219D01*
X159820610Y-136721294D01*
X159787756Y-136676074D01*
X159710613Y-136575539D01*
X159694745Y-136548055D01*
X159677555Y-136524395D01*
X159651038Y-136472353D01*
X159609190Y-136399870D01*
X159587823Y-136348286D01*
X159567063Y-136307542D01*
X159552931Y-136264050D01*
X159531565Y-136212467D01*
X159509902Y-136131620D01*
X159491854Y-136076074D01*
X159487279Y-136047189D01*
X159479065Y-136016534D01*
X159462524Y-135890891D01*
X159453781Y-135835690D01*
X159453781Y-135824480D01*
X159452588Y-135815419D01*
X159452588Y-135612580D01*
X159453781Y-135603518D01*
X159453781Y-135592310D01*
X159462523Y-135537113D01*
X159479065Y-135411465D01*
X159487279Y-135380807D01*
X159491854Y-135351926D01*
X159509900Y-135296383D01*
X159531565Y-135215532D01*
X159552933Y-135163944D01*
X159567063Y-135120458D01*
X159587821Y-135079717D01*
X159609190Y-135028129D01*
X159651042Y-134955637D01*
X159677555Y-134903605D01*
X159694742Y-134879948D01*
X159710613Y-134852460D01*
X159787770Y-134751906D01*
X159820610Y-134706706D01*
X159828532Y-134698783D01*
X159834096Y-134691533D01*
X159977533Y-134548096D01*
X159984783Y-134542532D01*
X159992706Y-134534610D01*
X160037906Y-134501770D01*
X160138460Y-134424613D01*
X160165948Y-134408742D01*
X160189605Y-134391555D01*
X160241637Y-134365042D01*
X160314129Y-134323190D01*
X160365717Y-134301821D01*
X160406458Y-134281063D01*
X160449944Y-134266933D01*
X160501532Y-134245565D01*
X160582383Y-134223900D01*
X160637926Y-134205854D01*
X160666807Y-134201279D01*
X160697465Y-134193065D01*
X160823113Y-134176523D01*
X160878310Y-134167781D01*
X160889518Y-134167781D01*
X160898580Y-134166588D01*
X161101420Y-134166588D01*
X161110482Y-134167781D01*
G37*
G36*
X165594517Y-134366882D02*
G01*
X165611062Y-134377938D01*
X165622118Y-134394483D01*
X165626000Y-134414000D01*
X165626000Y-137014000D01*
X165622118Y-137033517D01*
X165611062Y-137050062D01*
X165594517Y-137061118D01*
X165575000Y-137065000D01*
X162975000Y-137065000D01*
X162955483Y-137061118D01*
X162938938Y-137050062D01*
X162927882Y-137033517D01*
X162924000Y-137014000D01*
X162924000Y-134414000D01*
X162927882Y-134394483D01*
X162938938Y-134377938D01*
X162955483Y-134366882D01*
X162975000Y-134363000D01*
X165575000Y-134363000D01*
X165594517Y-134366882D01*
G37*
G36*
X156110482Y-131967781D02*
G01*
X156121690Y-131967781D01*
X156176888Y-131976523D01*
X156302534Y-131993065D01*
X156333189Y-132001279D01*
X156362074Y-132005854D01*
X156417620Y-132023902D01*
X156498467Y-132045565D01*
X156550050Y-132066931D01*
X156593542Y-132081063D01*
X156634286Y-132101823D01*
X156685870Y-132123190D01*
X156758353Y-132165038D01*
X156810395Y-132191555D01*
X156834055Y-132208745D01*
X156861539Y-132224613D01*
X156962074Y-132301756D01*
X157007294Y-132334610D01*
X157015219Y-132342535D01*
X157022466Y-132348096D01*
X157165903Y-132491533D01*
X157171463Y-132498779D01*
X157179390Y-132506706D01*
X157212247Y-132551930D01*
X157289386Y-132652460D01*
X157305252Y-132679941D01*
X157322445Y-132703605D01*
X157348964Y-132755652D01*
X157390809Y-132828129D01*
X157412173Y-132879706D01*
X157432937Y-132920458D01*
X157447070Y-132963955D01*
X157468434Y-133015532D01*
X157490093Y-133096366D01*
X157508146Y-133151926D01*
X157512721Y-133180816D01*
X157520934Y-133211465D01*
X157537474Y-133337099D01*
X157546219Y-133392310D01*
X157546219Y-133403518D01*
X157547412Y-133412580D01*
X157547412Y-133615419D01*
X157546219Y-133624480D01*
X157546219Y-133635690D01*
X157537473Y-133690905D01*
X157520934Y-133816534D01*
X157512722Y-133847180D01*
X157508146Y-133876074D01*
X157490091Y-133931638D01*
X157468434Y-134012467D01*
X157447071Y-134064039D01*
X157432937Y-134107542D01*
X157412171Y-134148297D01*
X157390809Y-134199870D01*
X157348968Y-134272338D01*
X157322445Y-134324395D01*
X157305249Y-134348062D01*
X157289386Y-134375539D01*
X157212261Y-134476050D01*
X157179390Y-134521294D01*
X157171459Y-134529224D01*
X157165903Y-134536466D01*
X157022466Y-134679903D01*
X157015224Y-134685459D01*
X157007294Y-134693390D01*
X156962050Y-134726261D01*
X156861539Y-134803386D01*
X156834062Y-134819249D01*
X156810395Y-134836445D01*
X156758338Y-134862968D01*
X156685870Y-134904809D01*
X156634297Y-134926171D01*
X156593542Y-134946937D01*
X156550039Y-134961071D01*
X156498467Y-134982434D01*
X156417638Y-135004091D01*
X156362074Y-135022146D01*
X156333180Y-135026722D01*
X156302534Y-135034934D01*
X156176902Y-135051474D01*
X156121690Y-135060219D01*
X156110481Y-135060219D01*
X156101420Y-135061412D01*
X155898580Y-135061412D01*
X155889519Y-135060219D01*
X155878310Y-135060219D01*
X155823099Y-135051474D01*
X155697465Y-135034934D01*
X155666816Y-135026721D01*
X155637926Y-135022146D01*
X155582366Y-135004093D01*
X155501532Y-134982434D01*
X155449955Y-134961070D01*
X155406458Y-134946937D01*
X155365706Y-134926173D01*
X155314129Y-134904809D01*
X155241652Y-134862964D01*
X155189605Y-134836445D01*
X155165941Y-134819252D01*
X155138460Y-134803386D01*
X155037930Y-134726247D01*
X154992706Y-134693390D01*
X154984779Y-134685463D01*
X154977533Y-134679903D01*
X154834096Y-134536466D01*
X154828535Y-134529219D01*
X154820610Y-134521294D01*
X154787756Y-134476074D01*
X154710613Y-134375539D01*
X154694745Y-134348055D01*
X154677555Y-134324395D01*
X154651038Y-134272353D01*
X154609190Y-134199870D01*
X154587823Y-134148286D01*
X154567063Y-134107542D01*
X154552931Y-134064050D01*
X154531565Y-134012467D01*
X154509902Y-133931620D01*
X154491854Y-133876074D01*
X154487279Y-133847189D01*
X154479065Y-133816534D01*
X154462524Y-133690891D01*
X154453781Y-133635690D01*
X154453781Y-133624480D01*
X154452588Y-133615419D01*
X154452588Y-133412580D01*
X154453781Y-133403518D01*
X154453781Y-133392310D01*
X154462523Y-133337113D01*
X154479065Y-133211465D01*
X154487279Y-133180807D01*
X154491854Y-133151926D01*
X154509900Y-133096383D01*
X154531565Y-133015532D01*
X154552933Y-132963944D01*
X154567063Y-132920458D01*
X154587821Y-132879717D01*
X154609190Y-132828129D01*
X154651042Y-132755637D01*
X154677555Y-132703605D01*
X154694742Y-132679948D01*
X154710613Y-132652460D01*
X154787770Y-132551906D01*
X154820610Y-132506706D01*
X154828532Y-132498783D01*
X154834096Y-132491533D01*
X154977533Y-132348096D01*
X154984783Y-132342532D01*
X154992706Y-132334610D01*
X155037906Y-132301770D01*
X155138460Y-132224613D01*
X155165948Y-132208742D01*
X155189605Y-132191555D01*
X155241637Y-132165042D01*
X155314129Y-132123190D01*
X155365717Y-132101821D01*
X155406458Y-132081063D01*
X155449944Y-132066933D01*
X155501532Y-132045565D01*
X155582383Y-132023900D01*
X155637926Y-132005854D01*
X155666807Y-132001279D01*
X155697465Y-131993065D01*
X155823113Y-131976523D01*
X155878310Y-131967781D01*
X155889518Y-131967781D01*
X155898580Y-131966588D01*
X156101420Y-131966588D01*
X156110482Y-131967781D01*
G37*
G36*
X154044517Y-132166882D02*
G01*
X154061062Y-132177938D01*
X154072118Y-132194483D01*
X154076000Y-132214000D01*
X154076000Y-134814000D01*
X154072118Y-134833517D01*
X154061062Y-134850062D01*
X154044517Y-134861118D01*
X154025000Y-134865000D01*
X151425000Y-134865000D01*
X151405483Y-134861118D01*
X151388938Y-134850062D01*
X151377882Y-134833517D01*
X151374000Y-134814000D01*
X151374000Y-132214000D01*
X151377882Y-132194483D01*
X151388938Y-132177938D01*
X151405483Y-132166882D01*
X151425000Y-132163000D01*
X154025000Y-132163000D01*
X154044517Y-132166882D01*
G37*
G36*
X186637517Y-125086882D02*
G01*
X186654062Y-125097938D01*
X186665118Y-125114483D01*
X186669000Y-125134000D01*
X186669000Y-126834000D01*
X186665118Y-126853517D01*
X186654062Y-126870062D01*
X186637517Y-126881118D01*
X186618000Y-126885000D01*
X184918000Y-126885000D01*
X184898483Y-126881118D01*
X184881938Y-126870062D01*
X184870882Y-126853517D01*
X184867000Y-126834000D01*
X184867000Y-125134000D01*
X184870882Y-125114483D01*
X184881938Y-125097938D01*
X184898483Y-125086882D01*
X184918000Y-125083000D01*
X186618000Y-125083000D01*
X186637517Y-125086882D01*
G37*
G36*
X178409546Y-125121797D02*
G01*
X178572728Y-125189389D01*
X178719588Y-125287518D01*
X178844482Y-125412412D01*
X178942611Y-125559272D01*
X179010203Y-125722454D01*
X179044661Y-125895687D01*
X179044661Y-126072313D01*
X179010203Y-126245546D01*
X178942611Y-126408728D01*
X178844482Y-126555588D01*
X178719588Y-126680482D01*
X178572728Y-126778611D01*
X178409546Y-126846203D01*
X178236313Y-126880661D01*
X178059687Y-126880661D01*
X177886454Y-126846203D01*
X177723272Y-126778611D01*
X177576412Y-126680482D01*
X177451518Y-126555588D01*
X177353389Y-126408728D01*
X177285797Y-126245546D01*
X177251339Y-126072313D01*
X177251339Y-125895687D01*
X177285797Y-125722454D01*
X177353389Y-125559272D01*
X177451518Y-125412412D01*
X177576412Y-125287518D01*
X177723272Y-125189389D01*
X177886454Y-125121797D01*
X178059687Y-125087339D01*
X178236313Y-125087339D01*
X178409546Y-125121797D01*
G37*
G36*
X180949546Y-125121797D02*
G01*
X181112728Y-125189389D01*
X181259588Y-125287518D01*
X181384482Y-125412412D01*
X181482611Y-125559272D01*
X181550203Y-125722454D01*
X181584661Y-125895687D01*
X181584661Y-126072313D01*
X181550203Y-126245546D01*
X181482611Y-126408728D01*
X181384482Y-126555588D01*
X181259588Y-126680482D01*
X181112728Y-126778611D01*
X180949546Y-126846203D01*
X180776313Y-126880661D01*
X180599687Y-126880661D01*
X180426454Y-126846203D01*
X180263272Y-126778611D01*
X180116412Y-126680482D01*
X179991518Y-126555588D01*
X179893389Y-126408728D01*
X179825797Y-126245546D01*
X179791339Y-126072313D01*
X179791339Y-125895687D01*
X179825797Y-125722454D01*
X179893389Y-125559272D01*
X179991518Y-125412412D01*
X180116412Y-125287518D01*
X180263272Y-125189389D01*
X180426454Y-125121797D01*
X180599687Y-125087339D01*
X180776313Y-125087339D01*
X180949546Y-125121797D01*
G37*
G36*
X183489546Y-125121797D02*
G01*
X183652728Y-125189389D01*
X183799588Y-125287518D01*
X183924482Y-125412412D01*
X184022611Y-125559272D01*
X184090203Y-125722454D01*
X184124661Y-125895687D01*
X184124661Y-126072313D01*
X184090203Y-126245546D01*
X184022611Y-126408728D01*
X183924482Y-126555588D01*
X183799588Y-126680482D01*
X183652728Y-126778611D01*
X183489546Y-126846203D01*
X183316313Y-126880661D01*
X183139687Y-126880661D01*
X182966454Y-126846203D01*
X182803272Y-126778611D01*
X182656412Y-126680482D01*
X182531518Y-126555588D01*
X182433389Y-126408728D01*
X182365797Y-126245546D01*
X182331339Y-126072313D01*
X182331339Y-125895687D01*
X182365797Y-125722454D01*
X182433389Y-125559272D01*
X182531518Y-125412412D01*
X182656412Y-125287518D01*
X182803272Y-125189389D01*
X182966454Y-125121797D01*
X183139687Y-125087339D01*
X183316313Y-125087339D01*
X183489546Y-125121797D01*
G37*
G36*
X119902267Y-121543306D02*
G01*
X119917786Y-121555762D01*
X121010525Y-122858037D01*
X121020096Y-122875483D01*
X121022262Y-122895264D01*
X121016694Y-122914369D01*
X121004238Y-122929888D01*
X119701963Y-124022627D01*
X119684517Y-124032198D01*
X119664736Y-124034364D01*
X119645631Y-124028796D01*
X119630112Y-124016340D01*
X118537373Y-122714065D01*
X118527802Y-122696619D01*
X118525636Y-122676838D01*
X118531204Y-122657733D01*
X118543660Y-122642214D01*
X119845935Y-121549475D01*
X119863381Y-121539904D01*
X119883162Y-121537738D01*
X119902267Y-121543306D01*
G37*
G36*
X148269517Y-120702882D02*
G01*
X148286062Y-120713938D01*
X148297118Y-120730483D01*
X148301000Y-120750000D01*
X148301000Y-122450000D01*
X148297118Y-122469517D01*
X148286062Y-122486062D01*
X148269517Y-122497118D01*
X148250000Y-122501000D01*
X146550000Y-122501000D01*
X146530483Y-122497118D01*
X146513938Y-122486062D01*
X146502882Y-122469517D01*
X146499000Y-122450000D01*
X146499000Y-120750000D01*
X146502882Y-120730483D01*
X146513938Y-120713938D01*
X146530483Y-120702882D01*
X146550000Y-120699000D01*
X148250000Y-120699000D01*
X148269517Y-120702882D01*
G37*
G36*
X177132518Y-120583491D02*
G01*
X177277589Y-120643581D01*
X177408149Y-120730819D01*
X177519181Y-120841851D01*
X177606419Y-120972411D01*
X177666509Y-121117482D01*
X177697143Y-121271488D01*
X177697143Y-121428512D01*
X177666509Y-121582518D01*
X177606419Y-121727589D01*
X177519181Y-121858149D01*
X177408149Y-121969181D01*
X177277589Y-122056419D01*
X177132518Y-122116509D01*
X176978512Y-122147143D01*
X176821488Y-122147143D01*
X176667482Y-122116509D01*
X176522411Y-122056419D01*
X176391851Y-121969181D01*
X176280819Y-121858149D01*
X176193581Y-121727589D01*
X176133491Y-121582518D01*
X176102857Y-121428512D01*
X176102857Y-121271488D01*
X176133491Y-121117482D01*
X176193581Y-120972411D01*
X176280819Y-120841851D01*
X176391851Y-120730819D01*
X176522411Y-120643581D01*
X176667482Y-120583491D01*
X176821488Y-120552857D01*
X176978512Y-120552857D01*
X177132518Y-120583491D01*
G37*
G36*
X118402814Y-119978095D02*
G01*
X118565996Y-120045687D01*
X118712856Y-120143816D01*
X118837750Y-120268710D01*
X118935879Y-120415570D01*
X119003471Y-120578752D01*
X119037929Y-120751985D01*
X119037929Y-120928611D01*
X119003471Y-121101844D01*
X118935879Y-121265026D01*
X118837750Y-121411886D01*
X118712856Y-121536780D01*
X118565996Y-121634909D01*
X118402814Y-121702501D01*
X118229581Y-121736959D01*
X118052955Y-121736959D01*
X117879722Y-121702501D01*
X117716540Y-121634909D01*
X117569680Y-121536780D01*
X117444786Y-121411886D01*
X117346657Y-121265026D01*
X117279065Y-121101844D01*
X117244607Y-120928611D01*
X117244607Y-120751985D01*
X117279065Y-120578752D01*
X117346657Y-120415570D01*
X117444786Y-120268710D01*
X117569680Y-120143816D01*
X117716540Y-120045687D01*
X117879722Y-119978095D01*
X118052955Y-119943637D01*
X118229581Y-119943637D01*
X118402814Y-119978095D01*
G37*
G36*
X177103490Y-118679185D02*
G01*
X177230449Y-118731773D01*
X177344710Y-118808120D01*
X177441880Y-118905290D01*
X177518227Y-119019551D01*
X177570815Y-119146510D01*
X177597624Y-119281290D01*
X177597624Y-119418710D01*
X177570815Y-119553490D01*
X177518227Y-119680449D01*
X177441880Y-119794710D01*
X177344710Y-119891880D01*
X177230449Y-119968227D01*
X177103490Y-120020815D01*
X176968710Y-120047624D01*
X176831290Y-120047624D01*
X176696510Y-120020815D01*
X176569551Y-119968227D01*
X176455290Y-119891880D01*
X176358120Y-119794710D01*
X176281773Y-119680449D01*
X176229185Y-119553490D01*
X176202376Y-119418710D01*
X176202376Y-119281290D01*
X176229185Y-119146510D01*
X176281773Y-119019551D01*
X176358120Y-118905290D01*
X176455290Y-118808120D01*
X176569551Y-118731773D01*
X176696510Y-118679185D01*
X176831290Y-118652376D01*
X176968710Y-118652376D01*
X177103490Y-118679185D01*
G37*
G36*
X147661546Y-118197797D02*
G01*
X147824728Y-118265389D01*
X147971588Y-118363518D01*
X148096482Y-118488412D01*
X148194611Y-118635272D01*
X148262203Y-118798454D01*
X148296661Y-118971687D01*
X148296661Y-119148313D01*
X148262203Y-119321546D01*
X148194611Y-119484728D01*
X148096482Y-119631588D01*
X147971588Y-119756482D01*
X147824728Y-119854611D01*
X147661546Y-119922203D01*
X147488313Y-119956661D01*
X147311687Y-119956661D01*
X147138454Y-119922203D01*
X146975272Y-119854611D01*
X146828412Y-119756482D01*
X146703518Y-119631588D01*
X146605389Y-119484728D01*
X146537797Y-119321546D01*
X146503339Y-119148313D01*
X146503339Y-118971687D01*
X146537797Y-118798454D01*
X146605389Y-118635272D01*
X146703518Y-118488412D01*
X146828412Y-118363518D01*
X146975272Y-118265389D01*
X147138454Y-118197797D01*
X147311687Y-118163339D01*
X147488313Y-118163339D01*
X147661546Y-118197797D01*
G37*
G36*
X116770135Y-118032343D02*
G01*
X116933317Y-118099935D01*
X117080177Y-118198064D01*
X117205071Y-118322958D01*
X117303200Y-118469818D01*
X117370792Y-118633000D01*
X117405250Y-118806233D01*
X117405250Y-118982859D01*
X117370792Y-119156092D01*
X117303200Y-119319274D01*
X117205071Y-119466134D01*
X117080177Y-119591028D01*
X116933317Y-119689157D01*
X116770135Y-119756749D01*
X116596902Y-119791207D01*
X116420276Y-119791207D01*
X116247043Y-119756749D01*
X116083861Y-119689157D01*
X115937001Y-119591028D01*
X115812107Y-119466134D01*
X115713978Y-119319274D01*
X115646386Y-119156092D01*
X115611928Y-118982859D01*
X115611928Y-118806233D01*
X115646386Y-118633000D01*
X115713978Y-118469818D01*
X115812107Y-118322958D01*
X115937001Y-118198064D01*
X116083861Y-118099935D01*
X116247043Y-118032343D01*
X116420276Y-117997885D01*
X116596902Y-117997885D01*
X116770135Y-118032343D01*
G37*
G36*
X177103490Y-116679185D02*
G01*
X177230449Y-116731773D01*
X177344710Y-116808120D01*
X177441880Y-116905290D01*
X177518227Y-117019551D01*
X177570815Y-117146510D01*
X177597624Y-117281290D01*
X177597624Y-117418710D01*
X177570815Y-117553490D01*
X177518227Y-117680449D01*
X177441880Y-117794710D01*
X177344710Y-117891880D01*
X177230449Y-117968227D01*
X177103490Y-118020815D01*
X176968710Y-118047624D01*
X176831290Y-118047624D01*
X176696510Y-118020815D01*
X176569551Y-117968227D01*
X176455290Y-117891880D01*
X176358120Y-117794710D01*
X176281773Y-117680449D01*
X176229185Y-117553490D01*
X176202376Y-117418710D01*
X176202376Y-117281290D01*
X176229185Y-117146510D01*
X176281773Y-117019551D01*
X176358120Y-116905290D01*
X176455290Y-116808120D01*
X176569551Y-116731773D01*
X176696510Y-116679185D01*
X176831290Y-116652376D01*
X176968710Y-116652376D01*
X177103490Y-116679185D01*
G37*
G36*
X115137453Y-116086589D02*
G01*
X115300635Y-116154181D01*
X115447495Y-116252310D01*
X115572389Y-116377204D01*
X115670518Y-116524064D01*
X115738110Y-116687246D01*
X115772568Y-116860479D01*
X115772568Y-117037105D01*
X115738110Y-117210338D01*
X115670518Y-117373520D01*
X115572389Y-117520380D01*
X115447495Y-117645274D01*
X115300635Y-117743403D01*
X115137453Y-117810995D01*
X114964220Y-117845453D01*
X114787594Y-117845453D01*
X114614361Y-117810995D01*
X114451179Y-117743403D01*
X114304319Y-117645274D01*
X114179425Y-117520380D01*
X114081296Y-117373520D01*
X114013704Y-117210338D01*
X113979246Y-117037105D01*
X113979246Y-116860479D01*
X114013704Y-116687246D01*
X114081296Y-116524064D01*
X114179425Y-116377204D01*
X114304319Y-116252310D01*
X114451179Y-116154181D01*
X114614361Y-116086589D01*
X114787594Y-116052131D01*
X114964220Y-116052131D01*
X115137453Y-116086589D01*
G37*
G36*
X147661546Y-115657797D02*
G01*
X147824728Y-115725389D01*
X147971588Y-115823518D01*
X148096482Y-115948412D01*
X148194611Y-116095272D01*
X148262203Y-116258454D01*
X148296661Y-116431687D01*
X148296661Y-116608313D01*
X148262203Y-116781546D01*
X148194611Y-116944728D01*
X148096482Y-117091588D01*
X147971588Y-117216482D01*
X147824728Y-117314611D01*
X147661546Y-117382203D01*
X147488313Y-117416661D01*
X147311687Y-117416661D01*
X147138454Y-117382203D01*
X146975272Y-117314611D01*
X146828412Y-117216482D01*
X146703518Y-117091588D01*
X146605389Y-116944728D01*
X146537797Y-116781546D01*
X146503339Y-116608313D01*
X146503339Y-116431687D01*
X146537797Y-116258454D01*
X146605389Y-116095272D01*
X146703518Y-115948412D01*
X146828412Y-115823518D01*
X146975272Y-115725389D01*
X147138454Y-115657797D01*
X147311687Y-115623339D01*
X147488313Y-115623339D01*
X147661546Y-115657797D01*
G37*
G36*
X177088975Y-114727032D02*
G01*
X177206879Y-114775869D01*
X177312990Y-114846770D01*
X177403230Y-114937010D01*
X177474131Y-115043121D01*
X177522968Y-115161025D01*
X177547865Y-115286191D01*
X177547865Y-115413809D01*
X177522968Y-115538975D01*
X177474131Y-115656879D01*
X177403230Y-115762990D01*
X177312990Y-115853230D01*
X177206879Y-115924131D01*
X177088975Y-115972968D01*
X176963809Y-115997865D01*
X176836191Y-115997865D01*
X176711025Y-115972968D01*
X176593121Y-115924131D01*
X176487010Y-115853230D01*
X176396770Y-115762990D01*
X176325869Y-115656879D01*
X176277032Y-115538975D01*
X176252135Y-115413809D01*
X176252135Y-115286191D01*
X176277032Y-115161025D01*
X176325869Y-115043121D01*
X176396770Y-114937010D01*
X176487010Y-114846770D01*
X176593121Y-114775869D01*
X176711025Y-114727032D01*
X176836191Y-114702135D01*
X176963809Y-114702135D01*
X177088975Y-114727032D01*
G37*
G36*
X177132518Y-112583491D02*
G01*
X177277589Y-112643581D01*
X177408149Y-112730819D01*
X177519181Y-112841851D01*
X177606419Y-112972411D01*
X177666509Y-113117482D01*
X177697143Y-113271488D01*
X177697143Y-113428512D01*
X177666509Y-113582518D01*
X177606419Y-113727589D01*
X177519181Y-113858149D01*
X177408149Y-113969181D01*
X177277589Y-114056419D01*
X177132518Y-114116509D01*
X176978512Y-114147143D01*
X176821488Y-114147143D01*
X176667482Y-114116509D01*
X176522411Y-114056419D01*
X176391851Y-113969181D01*
X176280819Y-113858149D01*
X176193581Y-113727589D01*
X176133491Y-113582518D01*
X176102857Y-113428512D01*
X176102857Y-113271488D01*
X176133491Y-113117482D01*
X176193581Y-112972411D01*
X176280819Y-112841851D01*
X176391851Y-112730819D01*
X176522411Y-112643581D01*
X176667482Y-112583491D01*
X176821488Y-112552857D01*
X176978512Y-112552857D01*
X177132518Y-112583491D01*
G37*
G36*
X154967032Y-108385644D02*
G01*
X155121159Y-108449485D01*
X155259869Y-108542168D01*
X155377832Y-108660131D01*
X155470515Y-108798841D01*
X155534356Y-108952968D01*
X155566902Y-109116587D01*
X155566902Y-109283413D01*
X155534356Y-109447032D01*
X155470515Y-109601159D01*
X155377832Y-109739869D01*
X155259869Y-109857832D01*
X155121159Y-109950515D01*
X154967032Y-110014356D01*
X154803413Y-110046902D01*
X154636587Y-110046902D01*
X154472968Y-110014356D01*
X154318841Y-109950515D01*
X154180131Y-109857832D01*
X154062168Y-109739869D01*
X153969485Y-109601159D01*
X153905644Y-109447032D01*
X153873098Y-109283413D01*
X153873098Y-109116587D01*
X153905644Y-108952968D01*
X153969485Y-108798841D01*
X154062168Y-108660131D01*
X154180131Y-108542168D01*
X154318841Y-108449485D01*
X154472968Y-108385644D01*
X154636587Y-108353098D01*
X154803413Y-108353098D01*
X154967032Y-108385644D01*
G37*
G36*
X157507032Y-108385644D02*
G01*
X157661159Y-108449485D01*
X157799869Y-108542168D01*
X157917832Y-108660131D01*
X158010515Y-108798841D01*
X158074356Y-108952968D01*
X158106902Y-109116587D01*
X158106902Y-109283413D01*
X158074356Y-109447032D01*
X158010515Y-109601159D01*
X157917832Y-109739869D01*
X157799869Y-109857832D01*
X157661159Y-109950515D01*
X157507032Y-110014356D01*
X157343413Y-110046902D01*
X157176587Y-110046902D01*
X157012968Y-110014356D01*
X156858841Y-109950515D01*
X156720131Y-109857832D01*
X156602168Y-109739869D01*
X156509485Y-109601159D01*
X156445644Y-109447032D01*
X156413098Y-109283413D01*
X156413098Y-109116587D01*
X156445644Y-108952968D01*
X156509485Y-108798841D01*
X156602168Y-108660131D01*
X156720131Y-108542168D01*
X156858841Y-108449485D01*
X157012968Y-108385644D01*
X157176587Y-108353098D01*
X157343413Y-108353098D01*
X157507032Y-108385644D01*
G37*
G36*
X160047032Y-108385644D02*
G01*
X160201159Y-108449485D01*
X160339869Y-108542168D01*
X160457832Y-108660131D01*
X160550515Y-108798841D01*
X160614356Y-108952968D01*
X160646902Y-109116587D01*
X160646902Y-109283413D01*
X160614356Y-109447032D01*
X160550515Y-109601159D01*
X160457832Y-109739869D01*
X160339869Y-109857832D01*
X160201159Y-109950515D01*
X160047032Y-110014356D01*
X159883413Y-110046902D01*
X159716587Y-110046902D01*
X159552968Y-110014356D01*
X159398841Y-109950515D01*
X159260131Y-109857832D01*
X159142168Y-109739869D01*
X159049485Y-109601159D01*
X158985644Y-109447032D01*
X158953098Y-109283413D01*
X158953098Y-109116587D01*
X158985644Y-108952968D01*
X159049485Y-108798841D01*
X159142168Y-108660131D01*
X159260131Y-108542168D01*
X159398841Y-108449485D01*
X159552968Y-108385644D01*
X159716587Y-108353098D01*
X159883413Y-108353098D01*
X160047032Y-108385644D01*
G37*
G36*
X162587032Y-108385644D02*
G01*
X162741159Y-108449485D01*
X162879869Y-108542168D01*
X162997832Y-108660131D01*
X163090515Y-108798841D01*
X163154356Y-108952968D01*
X163186902Y-109116587D01*
X163186902Y-109283413D01*
X163154356Y-109447032D01*
X163090515Y-109601159D01*
X162997832Y-109739869D01*
X162879869Y-109857832D01*
X162741159Y-109950515D01*
X162587032Y-110014356D01*
X162423413Y-110046902D01*
X162256587Y-110046902D01*
X162092968Y-110014356D01*
X161938841Y-109950515D01*
X161800131Y-109857832D01*
X161682168Y-109739869D01*
X161589485Y-109601159D01*
X161525644Y-109447032D01*
X161493098Y-109283413D01*
X161493098Y-109116587D01*
X161525644Y-108952968D01*
X161589485Y-108798841D01*
X161682168Y-108660131D01*
X161800131Y-108542168D01*
X161938841Y-108449485D01*
X162092968Y-108385644D01*
X162256587Y-108353098D01*
X162423413Y-108353098D01*
X162587032Y-108385644D01*
G37*
G36*
X165127032Y-108385644D02*
G01*
X165281159Y-108449485D01*
X165419869Y-108542168D01*
X165537832Y-108660131D01*
X165630515Y-108798841D01*
X165694356Y-108952968D01*
X165726902Y-109116587D01*
X165726902Y-109283413D01*
X165694356Y-109447032D01*
X165630515Y-109601159D01*
X165537832Y-109739869D01*
X165419869Y-109857832D01*
X165281159Y-109950515D01*
X165127032Y-110014356D01*
X164963413Y-110046902D01*
X164796587Y-110046902D01*
X164632968Y-110014356D01*
X164478841Y-109950515D01*
X164340131Y-109857832D01*
X164222168Y-109739869D01*
X164129485Y-109601159D01*
X164065644Y-109447032D01*
X164033098Y-109283413D01*
X164033098Y-109116587D01*
X164065644Y-108952968D01*
X164129485Y-108798841D01*
X164222168Y-108660131D01*
X164340131Y-108542168D01*
X164478841Y-108449485D01*
X164632968Y-108385644D01*
X164796587Y-108353098D01*
X164963413Y-108353098D01*
X165127032Y-108385644D01*
G37*
G36*
X167667032Y-108385644D02*
G01*
X167821159Y-108449485D01*
X167959869Y-108542168D01*
X168077832Y-108660131D01*
X168170515Y-108798841D01*
X168234356Y-108952968D01*
X168266902Y-109116587D01*
X168266902Y-109283413D01*
X168234356Y-109447032D01*
X168170515Y-109601159D01*
X168077832Y-109739869D01*
X167959869Y-109857832D01*
X167821159Y-109950515D01*
X167667032Y-110014356D01*
X167503413Y-110046902D01*
X167336587Y-110046902D01*
X167172968Y-110014356D01*
X167018841Y-109950515D01*
X166880131Y-109857832D01*
X166762168Y-109739869D01*
X166669485Y-109601159D01*
X166605644Y-109447032D01*
X166573098Y-109283413D01*
X166573098Y-109116587D01*
X166605644Y-108952968D01*
X166669485Y-108798841D01*
X166762168Y-108660131D01*
X166880131Y-108542168D01*
X167018841Y-108449485D01*
X167172968Y-108385644D01*
X167336587Y-108353098D01*
X167503413Y-108353098D01*
X167667032Y-108385644D01*
G37*
G36*
X170207032Y-108385644D02*
G01*
X170361159Y-108449485D01*
X170499869Y-108542168D01*
X170617832Y-108660131D01*
X170710515Y-108798841D01*
X170774356Y-108952968D01*
X170806902Y-109116587D01*
X170806902Y-109283413D01*
X170774356Y-109447032D01*
X170710515Y-109601159D01*
X170617832Y-109739869D01*
X170499869Y-109857832D01*
X170361159Y-109950515D01*
X170207032Y-110014356D01*
X170043413Y-110046902D01*
X169876587Y-110046902D01*
X169712968Y-110014356D01*
X169558841Y-109950515D01*
X169420131Y-109857832D01*
X169302168Y-109739869D01*
X169209485Y-109601159D01*
X169145644Y-109447032D01*
X169113098Y-109283413D01*
X169113098Y-109116587D01*
X169145644Y-108952968D01*
X169209485Y-108798841D01*
X169302168Y-108660131D01*
X169420131Y-108542168D01*
X169558841Y-108449485D01*
X169712968Y-108385644D01*
X169876587Y-108353098D01*
X170043413Y-108353098D01*
X170207032Y-108385644D01*
G37*
G36*
X172747032Y-108385644D02*
G01*
X172901159Y-108449485D01*
X173039869Y-108542168D01*
X173157832Y-108660131D01*
X173250515Y-108798841D01*
X173314356Y-108952968D01*
X173346902Y-109116587D01*
X173346902Y-109283413D01*
X173314356Y-109447032D01*
X173250515Y-109601159D01*
X173157832Y-109739869D01*
X173039869Y-109857832D01*
X172901159Y-109950515D01*
X172747032Y-110014356D01*
X172583413Y-110046902D01*
X172416587Y-110046902D01*
X172252968Y-110014356D01*
X172098841Y-109950515D01*
X171960131Y-109857832D01*
X171842168Y-109739869D01*
X171749485Y-109601159D01*
X171685644Y-109447032D01*
X171653098Y-109283413D01*
X171653098Y-109116587D01*
X171685644Y-108952968D01*
X171749485Y-108798841D01*
X171842168Y-108660131D01*
X171960131Y-108542168D01*
X172098841Y-108449485D01*
X172252968Y-108385644D01*
X172416587Y-108353098D01*
X172583413Y-108353098D01*
X172747032Y-108385644D01*
G37*
G36*
X175287032Y-108385644D02*
G01*
X175441159Y-108449485D01*
X175579869Y-108542168D01*
X175697832Y-108660131D01*
X175790515Y-108798841D01*
X175854356Y-108952968D01*
X175886902Y-109116587D01*
X175886902Y-109283413D01*
X175854356Y-109447032D01*
X175790515Y-109601159D01*
X175697832Y-109739869D01*
X175579869Y-109857832D01*
X175441159Y-109950515D01*
X175287032Y-110014356D01*
X175123413Y-110046902D01*
X174956587Y-110046902D01*
X174792968Y-110014356D01*
X174638841Y-109950515D01*
X174500131Y-109857832D01*
X174382168Y-109739869D01*
X174289485Y-109601159D01*
X174225644Y-109447032D01*
X174193098Y-109283413D01*
X174193098Y-109116587D01*
X174225644Y-108952968D01*
X174289485Y-108798841D01*
X174382168Y-108660131D01*
X174500131Y-108542168D01*
X174638841Y-108449485D01*
X174792968Y-108385644D01*
X174956587Y-108353098D01*
X175123413Y-108353098D01*
X175287032Y-108385644D01*
G37*
G36*
X177827032Y-108385644D02*
G01*
X177981159Y-108449485D01*
X178119869Y-108542168D01*
X178237832Y-108660131D01*
X178330515Y-108798841D01*
X178394356Y-108952968D01*
X178426902Y-109116587D01*
X178426902Y-109283413D01*
X178394356Y-109447032D01*
X178330515Y-109601159D01*
X178237832Y-109739869D01*
X178119869Y-109857832D01*
X177981159Y-109950515D01*
X177827032Y-110014356D01*
X177663413Y-110046902D01*
X177496587Y-110046902D01*
X177332968Y-110014356D01*
X177178841Y-109950515D01*
X177040131Y-109857832D01*
X176922168Y-109739869D01*
X176829485Y-109601159D01*
X176765644Y-109447032D01*
X176733098Y-109283413D01*
X176733098Y-109116587D01*
X176765644Y-108952968D01*
X176829485Y-108798841D01*
X176922168Y-108660131D01*
X177040131Y-108542168D01*
X177178841Y-108449485D01*
X177332968Y-108385644D01*
X177496587Y-108353098D01*
X177663413Y-108353098D01*
X177827032Y-108385644D01*
G37*
G36*
X180367032Y-108385644D02*
G01*
X180521159Y-108449485D01*
X180659869Y-108542168D01*
X180777832Y-108660131D01*
X180870515Y-108798841D01*
X180934356Y-108952968D01*
X180966902Y-109116587D01*
X180966902Y-109283413D01*
X180934356Y-109447032D01*
X180870515Y-109601159D01*
X180777832Y-109739869D01*
X180659869Y-109857832D01*
X180521159Y-109950515D01*
X180367032Y-110014356D01*
X180203413Y-110046902D01*
X180036587Y-110046902D01*
X179872968Y-110014356D01*
X179718841Y-109950515D01*
X179580131Y-109857832D01*
X179462168Y-109739869D01*
X179369485Y-109601159D01*
X179305644Y-109447032D01*
X179273098Y-109283413D01*
X179273098Y-109116587D01*
X179305644Y-108952968D01*
X179369485Y-108798841D01*
X179462168Y-108660131D01*
X179580131Y-108542168D01*
X179718841Y-108449485D01*
X179872968Y-108385644D01*
X180036587Y-108353098D01*
X180203413Y-108353098D01*
X180367032Y-108385644D01*
G37*
G36*
X182907032Y-108385644D02*
G01*
X183061159Y-108449485D01*
X183199869Y-108542168D01*
X183317832Y-108660131D01*
X183410515Y-108798841D01*
X183474356Y-108952968D01*
X183506902Y-109116587D01*
X183506902Y-109283413D01*
X183474356Y-109447032D01*
X183410515Y-109601159D01*
X183317832Y-109739869D01*
X183199869Y-109857832D01*
X183061159Y-109950515D01*
X182907032Y-110014356D01*
X182743413Y-110046902D01*
X182576587Y-110046902D01*
X182412968Y-110014356D01*
X182258841Y-109950515D01*
X182120131Y-109857832D01*
X182002168Y-109739869D01*
X181909485Y-109601159D01*
X181845644Y-109447032D01*
X181813098Y-109283413D01*
X181813098Y-109116587D01*
X181845644Y-108952968D01*
X181909485Y-108798841D01*
X182002168Y-108660131D01*
X182120131Y-108542168D01*
X182258841Y-108449485D01*
X182412968Y-108385644D01*
X182576587Y-108353098D01*
X182743413Y-108353098D01*
X182907032Y-108385644D01*
G37*
G36*
X182132518Y-104833491D02*
G01*
X182277589Y-104893581D01*
X182408149Y-104980819D01*
X182519181Y-105091851D01*
X182606419Y-105222411D01*
X182666509Y-105367482D01*
X182697143Y-105521488D01*
X182697143Y-105678512D01*
X182666509Y-105832518D01*
X182606419Y-105977589D01*
X182519181Y-106108149D01*
X182408149Y-106219181D01*
X182277589Y-106306419D01*
X182132518Y-106366509D01*
X181978512Y-106397143D01*
X181821488Y-106397143D01*
X181667482Y-106366509D01*
X181522411Y-106306419D01*
X181391851Y-106219181D01*
X181280819Y-106108149D01*
X181193581Y-105977589D01*
X181133491Y-105832518D01*
X181102857Y-105678512D01*
X181102857Y-105521488D01*
X181133491Y-105367482D01*
X181193581Y-105222411D01*
X181280819Y-105091851D01*
X181391851Y-104980819D01*
X181522411Y-104893581D01*
X181667482Y-104833491D01*
X181821488Y-104802857D01*
X181978512Y-104802857D01*
X182132518Y-104833491D01*
G37*
G36*
X177161546Y-104557797D02*
G01*
X177324728Y-104625389D01*
X177471588Y-104723518D01*
X177596482Y-104848412D01*
X177694611Y-104995272D01*
X177762203Y-105158454D01*
X177796661Y-105331687D01*
X177796661Y-105508313D01*
X177762203Y-105681546D01*
X177694611Y-105844728D01*
X177596482Y-105991588D01*
X177471588Y-106116482D01*
X177324728Y-106214611D01*
X177161546Y-106282203D01*
X176988313Y-106316661D01*
X176811687Y-106316661D01*
X176638454Y-106282203D01*
X176475272Y-106214611D01*
X176328412Y-106116482D01*
X176203518Y-105991588D01*
X176105389Y-105844728D01*
X176037797Y-105681546D01*
X176003339Y-105508313D01*
X176003339Y-105331687D01*
X176037797Y-105158454D01*
X176105389Y-104995272D01*
X176203518Y-104848412D01*
X176328412Y-104723518D01*
X176475272Y-104625389D01*
X176638454Y-104557797D01*
X176811687Y-104523339D01*
X176988313Y-104523339D01*
X177161546Y-104557797D01*
G37*
G36*
X182103490Y-102929185D02*
G01*
X182230449Y-102981773D01*
X182344710Y-103058120D01*
X182441880Y-103155290D01*
X182518227Y-103269551D01*
X182570815Y-103396510D01*
X182597624Y-103531290D01*
X182597624Y-103668710D01*
X182570815Y-103803490D01*
X182518227Y-103930449D01*
X182441880Y-104044710D01*
X182344710Y-104141880D01*
X182230449Y-104218227D01*
X182103490Y-104270815D01*
X181968710Y-104297624D01*
X181831290Y-104297624D01*
X181696510Y-104270815D01*
X181569551Y-104218227D01*
X181455290Y-104141880D01*
X181358120Y-104044710D01*
X181281773Y-103930449D01*
X181229185Y-103803490D01*
X181202376Y-103668710D01*
X181202376Y-103531290D01*
X181229185Y-103396510D01*
X181281773Y-103269551D01*
X181358120Y-103155290D01*
X181455290Y-103058120D01*
X181569551Y-102981773D01*
X181696510Y-102929185D01*
X181831290Y-102902376D01*
X181968710Y-102902376D01*
X182103490Y-102929185D01*
G37*
G36*
X177161546Y-102017797D02*
G01*
X177324728Y-102085389D01*
X177471588Y-102183518D01*
X177596482Y-102308412D01*
X177694611Y-102455272D01*
X177762203Y-102618454D01*
X177796661Y-102791687D01*
X177796661Y-102968313D01*
X177762203Y-103141546D01*
X177694611Y-103304728D01*
X177596482Y-103451588D01*
X177471588Y-103576482D01*
X177324728Y-103674611D01*
X177161546Y-103742203D01*
X176988313Y-103776661D01*
X176811687Y-103776661D01*
X176638454Y-103742203D01*
X176475272Y-103674611D01*
X176328412Y-103576482D01*
X176203518Y-103451588D01*
X176105389Y-103304728D01*
X176037797Y-103141546D01*
X176003339Y-102968313D01*
X176003339Y-102791687D01*
X176037797Y-102618454D01*
X176105389Y-102455272D01*
X176203518Y-102308412D01*
X176328412Y-102183518D01*
X176475272Y-102085389D01*
X176638454Y-102017797D01*
X176811687Y-101983339D01*
X176988313Y-101983339D01*
X177161546Y-102017797D01*
G37*
G36*
X182103490Y-100929185D02*
G01*
X182230449Y-100981773D01*
X182344710Y-101058120D01*
X182441880Y-101155290D01*
X182518227Y-101269551D01*
X182570815Y-101396510D01*
X182597624Y-101531290D01*
X182597624Y-101668710D01*
X182570815Y-101803490D01*
X182518227Y-101930449D01*
X182441880Y-102044710D01*
X182344710Y-102141880D01*
X182230449Y-102218227D01*
X182103490Y-102270815D01*
X181968710Y-102297624D01*
X181831290Y-102297624D01*
X181696510Y-102270815D01*
X181569551Y-102218227D01*
X181455290Y-102141880D01*
X181358120Y-102044710D01*
X181281773Y-101930449D01*
X181229185Y-101803490D01*
X181202376Y-101668710D01*
X181202376Y-101531290D01*
X181229185Y-101396510D01*
X181281773Y-101269551D01*
X181358120Y-101155290D01*
X181455290Y-101058120D01*
X181569551Y-100981773D01*
X181696510Y-100929185D01*
X181831290Y-100902376D01*
X181968710Y-100902376D01*
X182103490Y-100929185D01*
G37*
G36*
X177161546Y-99477797D02*
G01*
X177324728Y-99545389D01*
X177471588Y-99643518D01*
X177596482Y-99768412D01*
X177694611Y-99915272D01*
X177762203Y-100078454D01*
X177796661Y-100251687D01*
X177796661Y-100428313D01*
X177762203Y-100601546D01*
X177694611Y-100764728D01*
X177596482Y-100911588D01*
X177471588Y-101036482D01*
X177324728Y-101134611D01*
X177161546Y-101202203D01*
X176988313Y-101236661D01*
X176811687Y-101236661D01*
X176638454Y-101202203D01*
X176475272Y-101134611D01*
X176328412Y-101036482D01*
X176203518Y-100911588D01*
X176105389Y-100764728D01*
X176037797Y-100601546D01*
X176003339Y-100428313D01*
X176003339Y-100251687D01*
X176037797Y-100078454D01*
X176105389Y-99915272D01*
X176203518Y-99768412D01*
X176328412Y-99643518D01*
X176475272Y-99545389D01*
X176638454Y-99477797D01*
X176811687Y-99443339D01*
X176988313Y-99443339D01*
X177161546Y-99477797D01*
G37*
G36*
X182088975Y-98977032D02*
G01*
X182206879Y-99025869D01*
X182312990Y-99096770D01*
X182403230Y-99187010D01*
X182474131Y-99293121D01*
X182522968Y-99411025D01*
X182547865Y-99536191D01*
X182547865Y-99663809D01*
X182522968Y-99788975D01*
X182474131Y-99906879D01*
X182403230Y-100012990D01*
X182312990Y-100103230D01*
X182206879Y-100174131D01*
X182088975Y-100222968D01*
X181963809Y-100247865D01*
X181836191Y-100247865D01*
X181711025Y-100222968D01*
X181593121Y-100174131D01*
X181487010Y-100103230D01*
X181396770Y-100012990D01*
X181325869Y-99906879D01*
X181277032Y-99788975D01*
X181252135Y-99663809D01*
X181252135Y-99536191D01*
X181277032Y-99411025D01*
X181325869Y-99293121D01*
X181396770Y-99187010D01*
X181487010Y-99096770D01*
X181593121Y-99025869D01*
X181711025Y-98977032D01*
X181836191Y-98952135D01*
X181963809Y-98952135D01*
X182088975Y-98977032D01*
G37*
G36*
X177769517Y-96902882D02*
G01*
X177786062Y-96913938D01*
X177797118Y-96930483D01*
X177801000Y-96950000D01*
X177801000Y-98650000D01*
X177797118Y-98669517D01*
X177786062Y-98686062D01*
X177769517Y-98697118D01*
X177750000Y-98701000D01*
X176050000Y-98701000D01*
X176030483Y-98697118D01*
X176013938Y-98686062D01*
X176002882Y-98669517D01*
X175999000Y-98650000D01*
X175999000Y-96950000D01*
X176002882Y-96930483D01*
X176013938Y-96913938D01*
X176030483Y-96902882D01*
X176050000Y-96899000D01*
X177750000Y-96899000D01*
X177769517Y-96902882D01*
G37*
G36*
X182132518Y-96833491D02*
G01*
X182277589Y-96893581D01*
X182408149Y-96980819D01*
X182519181Y-97091851D01*
X182606419Y-97222411D01*
X182666509Y-97367482D01*
X182697143Y-97521488D01*
X182697143Y-97678512D01*
X182666509Y-97832518D01*
X182606419Y-97977589D01*
X182519181Y-98108149D01*
X182408149Y-98219181D01*
X182277589Y-98306419D01*
X182132518Y-98366509D01*
X181978512Y-98397143D01*
X181821488Y-98397143D01*
X181667482Y-98366509D01*
X181522411Y-98306419D01*
X181391851Y-98219181D01*
X181280819Y-98108149D01*
X181193581Y-97977589D01*
X181133491Y-97832518D01*
X181102857Y-97678512D01*
X181102857Y-97521488D01*
X181133491Y-97367482D01*
X181193581Y-97222411D01*
X181280819Y-97091851D01*
X181391851Y-96980819D01*
X181522411Y-96893581D01*
X181667482Y-96833491D01*
X181821488Y-96802857D01*
X181978512Y-96802857D01*
X182132518Y-96833491D01*
G37*
G36*
X183479517Y-93112882D02*
G01*
X183496062Y-93123938D01*
X183507118Y-93140483D01*
X183511000Y-93160000D01*
X183511000Y-94760000D01*
X183507118Y-94779517D01*
X183496062Y-94796062D01*
X183479517Y-94807118D01*
X183460000Y-94811000D01*
X181860000Y-94811000D01*
X181840483Y-94807118D01*
X181823938Y-94796062D01*
X181812882Y-94779517D01*
X181809000Y-94760000D01*
X181809000Y-93160000D01*
X181812882Y-93140483D01*
X181823938Y-93123938D01*
X181840483Y-93112882D01*
X181860000Y-93109000D01*
X183460000Y-93109000D01*
X183479517Y-93112882D01*
G37*
G36*
X154967032Y-93145644D02*
G01*
X155121159Y-93209485D01*
X155259869Y-93302168D01*
X155377832Y-93420131D01*
X155470515Y-93558841D01*
X155534356Y-93712968D01*
X155566902Y-93876587D01*
X155566902Y-94043413D01*
X155534356Y-94207032D01*
X155470515Y-94361159D01*
X155377832Y-94499869D01*
X155259869Y-94617832D01*
X155121159Y-94710515D01*
X154967032Y-94774356D01*
X154803413Y-94806902D01*
X154636587Y-94806902D01*
X154472968Y-94774356D01*
X154318841Y-94710515D01*
X154180131Y-94617832D01*
X154062168Y-94499869D01*
X153969485Y-94361159D01*
X153905644Y-94207032D01*
X153873098Y-94043413D01*
X153873098Y-93876587D01*
X153905644Y-93712968D01*
X153969485Y-93558841D01*
X154062168Y-93420131D01*
X154180131Y-93302168D01*
X154318841Y-93209485D01*
X154472968Y-93145644D01*
X154636587Y-93113098D01*
X154803413Y-93113098D01*
X154967032Y-93145644D01*
G37*
G36*
X157507032Y-93145644D02*
G01*
X157661159Y-93209485D01*
X157799869Y-93302168D01*
X157917832Y-93420131D01*
X158010515Y-93558841D01*
X158074356Y-93712968D01*
X158106902Y-93876587D01*
X158106902Y-94043413D01*
X158074356Y-94207032D01*
X158010515Y-94361159D01*
X157917832Y-94499869D01*
X157799869Y-94617832D01*
X157661159Y-94710515D01*
X157507032Y-94774356D01*
X157343413Y-94806902D01*
X157176587Y-94806902D01*
X157012968Y-94774356D01*
X156858841Y-94710515D01*
X156720131Y-94617832D01*
X156602168Y-94499869D01*
X156509485Y-94361159D01*
X156445644Y-94207032D01*
X156413098Y-94043413D01*
X156413098Y-93876587D01*
X156445644Y-93712968D01*
X156509485Y-93558841D01*
X156602168Y-93420131D01*
X156720131Y-93302168D01*
X156858841Y-93209485D01*
X157012968Y-93145644D01*
X157176587Y-93113098D01*
X157343413Y-93113098D01*
X157507032Y-93145644D01*
G37*
G36*
X160047032Y-93145644D02*
G01*
X160201159Y-93209485D01*
X160339869Y-93302168D01*
X160457832Y-93420131D01*
X160550515Y-93558841D01*
X160614356Y-93712968D01*
X160646902Y-93876587D01*
X160646902Y-94043413D01*
X160614356Y-94207032D01*
X160550515Y-94361159D01*
X160457832Y-94499869D01*
X160339869Y-94617832D01*
X160201159Y-94710515D01*
X160047032Y-94774356D01*
X159883413Y-94806902D01*
X159716587Y-94806902D01*
X159552968Y-94774356D01*
X159398841Y-94710515D01*
X159260131Y-94617832D01*
X159142168Y-94499869D01*
X159049485Y-94361159D01*
X158985644Y-94207032D01*
X158953098Y-94043413D01*
X158953098Y-93876587D01*
X158985644Y-93712968D01*
X159049485Y-93558841D01*
X159142168Y-93420131D01*
X159260131Y-93302168D01*
X159398841Y-93209485D01*
X159552968Y-93145644D01*
X159716587Y-93113098D01*
X159883413Y-93113098D01*
X160047032Y-93145644D01*
G37*
G36*
X162587032Y-93145644D02*
G01*
X162741159Y-93209485D01*
X162879869Y-93302168D01*
X162997832Y-93420131D01*
X163090515Y-93558841D01*
X163154356Y-93712968D01*
X163186902Y-93876587D01*
X163186902Y-94043413D01*
X163154356Y-94207032D01*
X163090515Y-94361159D01*
X162997832Y-94499869D01*
X162879869Y-94617832D01*
X162741159Y-94710515D01*
X162587032Y-94774356D01*
X162423413Y-94806902D01*
X162256587Y-94806902D01*
X162092968Y-94774356D01*
X161938841Y-94710515D01*
X161800131Y-94617832D01*
X161682168Y-94499869D01*
X161589485Y-94361159D01*
X161525644Y-94207032D01*
X161493098Y-94043413D01*
X161493098Y-93876587D01*
X161525644Y-93712968D01*
X161589485Y-93558841D01*
X161682168Y-93420131D01*
X161800131Y-93302168D01*
X161938841Y-93209485D01*
X162092968Y-93145644D01*
X162256587Y-93113098D01*
X162423413Y-93113098D01*
X162587032Y-93145644D01*
G37*
G36*
X165127032Y-93145644D02*
G01*
X165281159Y-93209485D01*
X165419869Y-93302168D01*
X165537832Y-93420131D01*
X165630515Y-93558841D01*
X165694356Y-93712968D01*
X165726902Y-93876587D01*
X165726902Y-94043413D01*
X165694356Y-94207032D01*
X165630515Y-94361159D01*
X165537832Y-94499869D01*
X165419869Y-94617832D01*
X165281159Y-94710515D01*
X165127032Y-94774356D01*
X164963413Y-94806902D01*
X164796587Y-94806902D01*
X164632968Y-94774356D01*
X164478841Y-94710515D01*
X164340131Y-94617832D01*
X164222168Y-94499869D01*
X164129485Y-94361159D01*
X164065644Y-94207032D01*
X164033098Y-94043413D01*
X164033098Y-93876587D01*
X164065644Y-93712968D01*
X164129485Y-93558841D01*
X164222168Y-93420131D01*
X164340131Y-93302168D01*
X164478841Y-93209485D01*
X164632968Y-93145644D01*
X164796587Y-93113098D01*
X164963413Y-93113098D01*
X165127032Y-93145644D01*
G37*
G36*
X167667032Y-93145644D02*
G01*
X167821159Y-93209485D01*
X167959869Y-93302168D01*
X168077832Y-93420131D01*
X168170515Y-93558841D01*
X168234356Y-93712968D01*
X168266902Y-93876587D01*
X168266902Y-94043413D01*
X168234356Y-94207032D01*
X168170515Y-94361159D01*
X168077832Y-94499869D01*
X167959869Y-94617832D01*
X167821159Y-94710515D01*
X167667032Y-94774356D01*
X167503413Y-94806902D01*
X167336587Y-94806902D01*
X167172968Y-94774356D01*
X167018841Y-94710515D01*
X166880131Y-94617832D01*
X166762168Y-94499869D01*
X166669485Y-94361159D01*
X166605644Y-94207032D01*
X166573098Y-94043413D01*
X166573098Y-93876587D01*
X166605644Y-93712968D01*
X166669485Y-93558841D01*
X166762168Y-93420131D01*
X166880131Y-93302168D01*
X167018841Y-93209485D01*
X167172968Y-93145644D01*
X167336587Y-93113098D01*
X167503413Y-93113098D01*
X167667032Y-93145644D01*
G37*
G36*
X170207032Y-93145644D02*
G01*
X170361159Y-93209485D01*
X170499869Y-93302168D01*
X170617832Y-93420131D01*
X170710515Y-93558841D01*
X170774356Y-93712968D01*
X170806902Y-93876587D01*
X170806902Y-94043413D01*
X170774356Y-94207032D01*
X170710515Y-94361159D01*
X170617832Y-94499869D01*
X170499869Y-94617832D01*
X170361159Y-94710515D01*
X170207032Y-94774356D01*
X170043413Y-94806902D01*
X169876587Y-94806902D01*
X169712968Y-94774356D01*
X169558841Y-94710515D01*
X169420131Y-94617832D01*
X169302168Y-94499869D01*
X169209485Y-94361159D01*
X169145644Y-94207032D01*
X169113098Y-94043413D01*
X169113098Y-93876587D01*
X169145644Y-93712968D01*
X169209485Y-93558841D01*
X169302168Y-93420131D01*
X169420131Y-93302168D01*
X169558841Y-93209485D01*
X169712968Y-93145644D01*
X169876587Y-93113098D01*
X170043413Y-93113098D01*
X170207032Y-93145644D01*
G37*
G36*
X172747032Y-93145644D02*
G01*
X172901159Y-93209485D01*
X173039869Y-93302168D01*
X173157832Y-93420131D01*
X173250515Y-93558841D01*
X173314356Y-93712968D01*
X173346902Y-93876587D01*
X173346902Y-94043413D01*
X173314356Y-94207032D01*
X173250515Y-94361159D01*
X173157832Y-94499869D01*
X173039869Y-94617832D01*
X172901159Y-94710515D01*
X172747032Y-94774356D01*
X172583413Y-94806902D01*
X172416587Y-94806902D01*
X172252968Y-94774356D01*
X172098841Y-94710515D01*
X171960131Y-94617832D01*
X171842168Y-94499869D01*
X171749485Y-94361159D01*
X171685644Y-94207032D01*
X171653098Y-94043413D01*
X171653098Y-93876587D01*
X171685644Y-93712968D01*
X171749485Y-93558841D01*
X171842168Y-93420131D01*
X171960131Y-93302168D01*
X172098841Y-93209485D01*
X172252968Y-93145644D01*
X172416587Y-93113098D01*
X172583413Y-93113098D01*
X172747032Y-93145644D01*
G37*
G36*
X175287032Y-93145644D02*
G01*
X175441159Y-93209485D01*
X175579869Y-93302168D01*
X175697832Y-93420131D01*
X175790515Y-93558841D01*
X175854356Y-93712968D01*
X175886902Y-93876587D01*
X175886902Y-94043413D01*
X175854356Y-94207032D01*
X175790515Y-94361159D01*
X175697832Y-94499869D01*
X175579869Y-94617832D01*
X175441159Y-94710515D01*
X175287032Y-94774356D01*
X175123413Y-94806902D01*
X174956587Y-94806902D01*
X174792968Y-94774356D01*
X174638841Y-94710515D01*
X174500131Y-94617832D01*
X174382168Y-94499869D01*
X174289485Y-94361159D01*
X174225644Y-94207032D01*
X174193098Y-94043413D01*
X174193098Y-93876587D01*
X174225644Y-93712968D01*
X174289485Y-93558841D01*
X174382168Y-93420131D01*
X174500131Y-93302168D01*
X174638841Y-93209485D01*
X174792968Y-93145644D01*
X174956587Y-93113098D01*
X175123413Y-93113098D01*
X175287032Y-93145644D01*
G37*
G36*
X177827032Y-93145644D02*
G01*
X177981159Y-93209485D01*
X178119869Y-93302168D01*
X178237832Y-93420131D01*
X178330515Y-93558841D01*
X178394356Y-93712968D01*
X178426902Y-93876587D01*
X178426902Y-94043413D01*
X178394356Y-94207032D01*
X178330515Y-94361159D01*
X178237832Y-94499869D01*
X178119869Y-94617832D01*
X177981159Y-94710515D01*
X177827032Y-94774356D01*
X177663413Y-94806902D01*
X177496587Y-94806902D01*
X177332968Y-94774356D01*
X177178841Y-94710515D01*
X177040131Y-94617832D01*
X176922168Y-94499869D01*
X176829485Y-94361159D01*
X176765644Y-94207032D01*
X176733098Y-94043413D01*
X176733098Y-93876587D01*
X176765644Y-93712968D01*
X176829485Y-93558841D01*
X176922168Y-93420131D01*
X177040131Y-93302168D01*
X177178841Y-93209485D01*
X177332968Y-93145644D01*
X177496587Y-93113098D01*
X177663413Y-93113098D01*
X177827032Y-93145644D01*
G37*
G36*
X180367032Y-93145644D02*
G01*
X180521159Y-93209485D01*
X180659869Y-93302168D01*
X180777832Y-93420131D01*
X180870515Y-93558841D01*
X180934356Y-93712968D01*
X180966902Y-93876587D01*
X180966902Y-94043413D01*
X180934356Y-94207032D01*
X180870515Y-94361159D01*
X180777832Y-94499869D01*
X180659869Y-94617832D01*
X180521159Y-94710515D01*
X180367032Y-94774356D01*
X180203413Y-94806902D01*
X180036587Y-94806902D01*
X179872968Y-94774356D01*
X179718841Y-94710515D01*
X179580131Y-94617832D01*
X179462168Y-94499869D01*
X179369485Y-94361159D01*
X179305644Y-94207032D01*
X179273098Y-94043413D01*
X179273098Y-93876587D01*
X179305644Y-93712968D01*
X179369485Y-93558841D01*
X179462168Y-93420131D01*
X179580131Y-93302168D01*
X179718841Y-93209485D01*
X179872968Y-93145644D01*
X180036587Y-93113098D01*
X180203413Y-93113098D01*
X180367032Y-93145644D01*
G37*
G36*
X177132518Y-89583491D02*
G01*
X177277589Y-89643581D01*
X177408149Y-89730819D01*
X177519181Y-89841851D01*
X177606419Y-89972411D01*
X177666509Y-90117482D01*
X177697143Y-90271488D01*
X177697143Y-90428512D01*
X177666509Y-90582518D01*
X177606419Y-90727589D01*
X177519181Y-90858149D01*
X177408149Y-90969181D01*
X177277589Y-91056419D01*
X177132518Y-91116509D01*
X176978512Y-91147143D01*
X176821488Y-91147143D01*
X176667482Y-91116509D01*
X176522411Y-91056419D01*
X176391851Y-90969181D01*
X176280819Y-90858149D01*
X176193581Y-90727589D01*
X176133491Y-90582518D01*
X176102857Y-90428512D01*
X176102857Y-90271488D01*
X176133491Y-90117482D01*
X176193581Y-89972411D01*
X176280819Y-89841851D01*
X176391851Y-89730819D01*
X176522411Y-89643581D01*
X176667482Y-89583491D01*
X176821488Y-89552857D01*
X176978512Y-89552857D01*
X177132518Y-89583491D01*
G37*
G36*
X177103490Y-87679185D02*
G01*
X177230449Y-87731773D01*
X177344710Y-87808120D01*
X177441880Y-87905290D01*
X177518227Y-88019551D01*
X177570815Y-88146510D01*
X177597624Y-88281290D01*
X177597624Y-88418710D01*
X177570815Y-88553490D01*
X177518227Y-88680449D01*
X177441880Y-88794710D01*
X177344710Y-88891880D01*
X177230449Y-88968227D01*
X177103490Y-89020815D01*
X176968710Y-89047624D01*
X176831290Y-89047624D01*
X176696510Y-89020815D01*
X176569551Y-88968227D01*
X176455290Y-88891880D01*
X176358120Y-88794710D01*
X176281773Y-88680449D01*
X176229185Y-88553490D01*
X176202376Y-88418710D01*
X176202376Y-88281290D01*
X176229185Y-88146510D01*
X176281773Y-88019551D01*
X176358120Y-87905290D01*
X176455290Y-87808120D01*
X176569551Y-87731773D01*
X176696510Y-87679185D01*
X176831290Y-87652376D01*
X176968710Y-87652376D01*
X177103490Y-87679185D01*
G37*
G36*
X147661546Y-85817797D02*
G01*
X147824728Y-85885389D01*
X147971588Y-85983518D01*
X148096482Y-86108412D01*
X148194611Y-86255272D01*
X148262203Y-86418454D01*
X148296661Y-86591687D01*
X148296661Y-86768313D01*
X148262203Y-86941546D01*
X148194611Y-87104728D01*
X148096482Y-87251588D01*
X147971588Y-87376482D01*
X147824728Y-87474611D01*
X147661546Y-87542203D01*
X147488313Y-87576661D01*
X147311687Y-87576661D01*
X147138454Y-87542203D01*
X146975272Y-87474611D01*
X146828412Y-87376482D01*
X146703518Y-87251588D01*
X146605389Y-87104728D01*
X146537797Y-86941546D01*
X146503339Y-86768313D01*
X146503339Y-86591687D01*
X146537797Y-86418454D01*
X146605389Y-86255272D01*
X146703518Y-86108412D01*
X146828412Y-85983518D01*
X146975272Y-85885389D01*
X147138454Y-85817797D01*
X147311687Y-85783339D01*
X147488313Y-85783339D01*
X147661546Y-85817797D01*
G37*
G36*
X115143504Y-85395056D02*
G01*
X115306686Y-85462648D01*
X115453546Y-85560777D01*
X115578440Y-85685671D01*
X115676569Y-85832531D01*
X115744161Y-85995713D01*
X115778619Y-86168946D01*
X115778619Y-86345572D01*
X115744161Y-86518805D01*
X115676569Y-86681987D01*
X115578440Y-86828847D01*
X115453546Y-86953741D01*
X115306686Y-87051870D01*
X115143504Y-87119462D01*
X114970271Y-87153920D01*
X114793645Y-87153920D01*
X114620412Y-87119462D01*
X114457230Y-87051870D01*
X114310370Y-86953741D01*
X114185476Y-86828847D01*
X114087347Y-86681987D01*
X114019755Y-86518805D01*
X113985297Y-86345572D01*
X113985297Y-86168946D01*
X114019755Y-85995713D01*
X114087347Y-85832531D01*
X114185476Y-85685671D01*
X114310370Y-85560777D01*
X114457230Y-85462648D01*
X114620412Y-85395056D01*
X114793645Y-85360598D01*
X114970271Y-85360598D01*
X115143504Y-85395056D01*
G37*
G36*
X177103490Y-85679185D02*
G01*
X177230449Y-85731773D01*
X177344710Y-85808120D01*
X177441880Y-85905290D01*
X177518227Y-86019551D01*
X177570815Y-86146510D01*
X177597624Y-86281290D01*
X177597624Y-86418710D01*
X177570815Y-86553490D01*
X177518227Y-86680449D01*
X177441880Y-86794710D01*
X177344710Y-86891880D01*
X177230449Y-86968227D01*
X177103490Y-87020815D01*
X176968710Y-87047624D01*
X176831290Y-87047624D01*
X176696510Y-87020815D01*
X176569551Y-86968227D01*
X176455290Y-86891880D01*
X176358120Y-86794710D01*
X176281773Y-86680449D01*
X176229185Y-86553490D01*
X176202376Y-86418710D01*
X176202376Y-86281290D01*
X176229185Y-86146510D01*
X176281773Y-86019551D01*
X176358120Y-85905290D01*
X176455290Y-85808120D01*
X176569551Y-85731773D01*
X176696510Y-85679185D01*
X176831290Y-85652376D01*
X176968710Y-85652376D01*
X177103490Y-85679185D01*
G37*
G36*
X116776186Y-83449302D02*
G01*
X116939368Y-83516894D01*
X117086228Y-83615023D01*
X117211122Y-83739917D01*
X117309251Y-83886777D01*
X117376843Y-84049959D01*
X117411301Y-84223192D01*
X117411301Y-84399818D01*
X117376843Y-84573051D01*
X117309251Y-84736233D01*
X117211122Y-84883093D01*
X117086228Y-85007987D01*
X116939368Y-85106116D01*
X116776186Y-85173708D01*
X116602953Y-85208166D01*
X116426327Y-85208166D01*
X116253094Y-85173708D01*
X116089912Y-85106116D01*
X115943052Y-85007987D01*
X115818158Y-84883093D01*
X115720029Y-84736233D01*
X115652437Y-84573051D01*
X115617979Y-84399818D01*
X115617979Y-84223192D01*
X115652437Y-84049959D01*
X115720029Y-83886777D01*
X115818158Y-83739917D01*
X115943052Y-83615023D01*
X116089912Y-83516894D01*
X116253094Y-83449302D01*
X116426327Y-83414844D01*
X116602953Y-83414844D01*
X116776186Y-83449302D01*
G37*
G36*
X147661546Y-83277797D02*
G01*
X147824728Y-83345389D01*
X147971588Y-83443518D01*
X148096482Y-83568412D01*
X148194611Y-83715272D01*
X148262203Y-83878454D01*
X148296661Y-84051687D01*
X148296661Y-84228313D01*
X148262203Y-84401546D01*
X148194611Y-84564728D01*
X148096482Y-84711588D01*
X147971588Y-84836482D01*
X147824728Y-84934611D01*
X147661546Y-85002203D01*
X147488313Y-85036661D01*
X147311687Y-85036661D01*
X147138454Y-85002203D01*
X146975272Y-84934611D01*
X146828412Y-84836482D01*
X146703518Y-84711588D01*
X146605389Y-84564728D01*
X146537797Y-84401546D01*
X146503339Y-84228313D01*
X146503339Y-84051687D01*
X146537797Y-83878454D01*
X146605389Y-83715272D01*
X146703518Y-83568412D01*
X146828412Y-83443518D01*
X146975272Y-83345389D01*
X147138454Y-83277797D01*
X147311687Y-83243339D01*
X147488313Y-83243339D01*
X147661546Y-83277797D01*
G37*
G36*
X177088975Y-83727032D02*
G01*
X177206879Y-83775869D01*
X177312990Y-83846770D01*
X177403230Y-83937010D01*
X177474131Y-84043121D01*
X177522968Y-84161025D01*
X177547865Y-84286191D01*
X177547865Y-84413809D01*
X177522968Y-84538975D01*
X177474131Y-84656879D01*
X177403230Y-84762990D01*
X177312990Y-84853230D01*
X177206879Y-84924131D01*
X177088975Y-84972968D01*
X176963809Y-84997865D01*
X176836191Y-84997865D01*
X176711025Y-84972968D01*
X176593121Y-84924131D01*
X176487010Y-84853230D01*
X176396770Y-84762990D01*
X176325869Y-84656879D01*
X176277032Y-84538975D01*
X176252135Y-84413809D01*
X176252135Y-84286191D01*
X176277032Y-84161025D01*
X176325869Y-84043121D01*
X176396770Y-83937010D01*
X176487010Y-83846770D01*
X176593121Y-83775869D01*
X176711025Y-83727032D01*
X176836191Y-83702135D01*
X176963809Y-83702135D01*
X177088975Y-83727032D01*
G37*
G36*
X118408865Y-81503550D02*
G01*
X118572047Y-81571142D01*
X118718907Y-81669271D01*
X118843801Y-81794165D01*
X118941930Y-81941025D01*
X119009522Y-82104207D01*
X119043980Y-82277440D01*
X119043980Y-82454066D01*
X119009522Y-82627299D01*
X118941930Y-82790481D01*
X118843801Y-82937341D01*
X118718907Y-83062235D01*
X118572047Y-83160364D01*
X118408865Y-83227956D01*
X118235632Y-83262414D01*
X118059006Y-83262414D01*
X117885773Y-83227956D01*
X117722591Y-83160364D01*
X117575731Y-83062235D01*
X117450837Y-82937341D01*
X117352708Y-82790481D01*
X117285116Y-82627299D01*
X117250658Y-82454066D01*
X117250658Y-82277440D01*
X117285116Y-82104207D01*
X117352708Y-81941025D01*
X117450837Y-81794165D01*
X117575731Y-81669271D01*
X117722591Y-81571142D01*
X117885773Y-81503550D01*
X118059006Y-81469092D01*
X118235632Y-81469092D01*
X118408865Y-81503550D01*
G37*
G36*
X177132518Y-81583491D02*
G01*
X177277589Y-81643581D01*
X177408149Y-81730819D01*
X177519181Y-81841851D01*
X177606419Y-81972411D01*
X177666509Y-82117482D01*
X177697143Y-82271488D01*
X177697143Y-82428512D01*
X177666509Y-82582518D01*
X177606419Y-82727589D01*
X177519181Y-82858149D01*
X177408149Y-82969181D01*
X177277589Y-83056419D01*
X177132518Y-83116509D01*
X176978512Y-83147143D01*
X176821488Y-83147143D01*
X176667482Y-83116509D01*
X176522411Y-83056419D01*
X176391851Y-82969181D01*
X176280819Y-82858149D01*
X176193581Y-82727589D01*
X176133491Y-82582518D01*
X176102857Y-82428512D01*
X176102857Y-82271488D01*
X176133491Y-82117482D01*
X176193581Y-81972411D01*
X176280819Y-81841851D01*
X176391851Y-81730819D01*
X176522411Y-81643581D01*
X176667482Y-81583491D01*
X176821488Y-81552857D01*
X176978512Y-81552857D01*
X177132518Y-81583491D01*
G37*
G36*
X148269517Y-80702882D02*
G01*
X148286062Y-80713938D01*
X148297118Y-80730483D01*
X148301000Y-80750000D01*
X148301000Y-82450000D01*
X148297118Y-82469517D01*
X148286062Y-82486062D01*
X148269517Y-82497118D01*
X148250000Y-82501000D01*
X146550000Y-82501000D01*
X146530483Y-82497118D01*
X146513938Y-82486062D01*
X146502882Y-82469517D01*
X146499000Y-82450000D01*
X146499000Y-80750000D01*
X146502882Y-80730483D01*
X146513938Y-80713938D01*
X146530483Y-80702882D01*
X146550000Y-80699000D01*
X148250000Y-80699000D01*
X148269517Y-80702882D01*
G37*
G36*
X119690568Y-79173853D02*
G01*
X119708014Y-79183424D01*
X121010289Y-80276163D01*
X121022745Y-80291682D01*
X121028313Y-80310787D01*
X121026147Y-80330568D01*
X121016576Y-80348014D01*
X119923837Y-81650289D01*
X119908318Y-81662745D01*
X119889213Y-81668313D01*
X119869432Y-81666147D01*
X119851986Y-81656576D01*
X118549711Y-80563837D01*
X118537255Y-80548318D01*
X118531687Y-80529213D01*
X118533853Y-80509432D01*
X118543424Y-80491986D01*
X119636163Y-79189711D01*
X119651682Y-79177255D01*
X119670787Y-79171687D01*
X119690568Y-79173853D01*
G37*
G36*
X186637517Y-76318882D02*
G01*
X186654062Y-76329938D01*
X186665118Y-76346483D01*
X186669000Y-76366000D01*
X186669000Y-78066000D01*
X186665118Y-78085517D01*
X186654062Y-78102062D01*
X186637517Y-78113118D01*
X186618000Y-78117000D01*
X184918000Y-78117000D01*
X184898483Y-78113118D01*
X184881938Y-78102062D01*
X184870882Y-78085517D01*
X184867000Y-78066000D01*
X184867000Y-76366000D01*
X184870882Y-76346483D01*
X184881938Y-76329938D01*
X184898483Y-76318882D01*
X184918000Y-76315000D01*
X186618000Y-76315000D01*
X186637517Y-76318882D01*
G37*
G36*
X178409546Y-76353797D02*
G01*
X178572728Y-76421389D01*
X178719588Y-76519518D01*
X178844482Y-76644412D01*
X178942611Y-76791272D01*
X179010203Y-76954454D01*
X179044661Y-77127687D01*
X179044661Y-77304313D01*
X179010203Y-77477546D01*
X178942611Y-77640728D01*
X178844482Y-77787588D01*
X178719588Y-77912482D01*
X178572728Y-78010611D01*
X178409546Y-78078203D01*
X178236313Y-78112661D01*
X178059687Y-78112661D01*
X177886454Y-78078203D01*
X177723272Y-78010611D01*
X177576412Y-77912482D01*
X177451518Y-77787588D01*
X177353389Y-77640728D01*
X177285797Y-77477546D01*
X177251339Y-77304313D01*
X177251339Y-77127687D01*
X177285797Y-76954454D01*
X177353389Y-76791272D01*
X177451518Y-76644412D01*
X177576412Y-76519518D01*
X177723272Y-76421389D01*
X177886454Y-76353797D01*
X178059687Y-76319339D01*
X178236313Y-76319339D01*
X178409546Y-76353797D01*
G37*
G36*
X180949546Y-76353797D02*
G01*
X181112728Y-76421389D01*
X181259588Y-76519518D01*
X181384482Y-76644412D01*
X181482611Y-76791272D01*
X181550203Y-76954454D01*
X181584661Y-77127687D01*
X181584661Y-77304313D01*
X181550203Y-77477546D01*
X181482611Y-77640728D01*
X181384482Y-77787588D01*
X181259588Y-77912482D01*
X181112728Y-78010611D01*
X180949546Y-78078203D01*
X180776313Y-78112661D01*
X180599687Y-78112661D01*
X180426454Y-78078203D01*
X180263272Y-78010611D01*
X180116412Y-77912482D01*
X179991518Y-77787588D01*
X179893389Y-77640728D01*
X179825797Y-77477546D01*
X179791339Y-77304313D01*
X179791339Y-77127687D01*
X179825797Y-76954454D01*
X179893389Y-76791272D01*
X179991518Y-76644412D01*
X180116412Y-76519518D01*
X180263272Y-76421389D01*
X180426454Y-76353797D01*
X180599687Y-76319339D01*
X180776313Y-76319339D01*
X180949546Y-76353797D01*
G37*
G36*
X183489546Y-76353797D02*
G01*
X183652728Y-76421389D01*
X183799588Y-76519518D01*
X183924482Y-76644412D01*
X184022611Y-76791272D01*
X184090203Y-76954454D01*
X184124661Y-77127687D01*
X184124661Y-77304313D01*
X184090203Y-77477546D01*
X184022611Y-77640728D01*
X183924482Y-77787588D01*
X183799588Y-77912482D01*
X183652728Y-78010611D01*
X183489546Y-78078203D01*
X183316313Y-78112661D01*
X183139687Y-78112661D01*
X182966454Y-78078203D01*
X182803272Y-78010611D01*
X182656412Y-77912482D01*
X182531518Y-77787588D01*
X182433389Y-77640728D01*
X182365797Y-77477546D01*
X182331339Y-77304313D01*
X182331339Y-77127687D01*
X182365797Y-76954454D01*
X182433389Y-76791272D01*
X182531518Y-76644412D01*
X182656412Y-76519518D01*
X182803272Y-76421389D01*
X182966454Y-76353797D01*
X183139687Y-76319339D01*
X183316313Y-76319339D01*
X183489546Y-76353797D01*
G37*
G36*
X173269517Y-74202882D02*
G01*
X173286062Y-74213938D01*
X173297118Y-74230483D01*
X173301000Y-74250000D01*
X173301000Y-75950000D01*
X173297118Y-75969517D01*
X173286062Y-75986062D01*
X173269517Y-75997118D01*
X173250000Y-76001000D01*
X171550000Y-76001000D01*
X171530483Y-75997118D01*
X171513938Y-75986062D01*
X171502882Y-75969517D01*
X171499000Y-75950000D01*
X171499000Y-74250000D01*
X171502882Y-74230483D01*
X171513938Y-74213938D01*
X171530483Y-74202882D01*
X171550000Y-74199000D01*
X173250000Y-74199000D01*
X173269517Y-74202882D01*
G37*
G36*
X170121546Y-74237797D02*
G01*
X170284728Y-74305389D01*
X170431588Y-74403518D01*
X170556482Y-74528412D01*
X170654611Y-74675272D01*
X170722203Y-74838454D01*
X170756661Y-75011687D01*
X170756661Y-75188313D01*
X170722203Y-75361546D01*
X170654611Y-75524728D01*
X170556482Y-75671588D01*
X170431588Y-75796482D01*
X170284728Y-75894611D01*
X170121546Y-75962203D01*
X169948313Y-75996661D01*
X169771687Y-75996661D01*
X169598454Y-75962203D01*
X169435272Y-75894611D01*
X169288412Y-75796482D01*
X169163518Y-75671588D01*
X169065389Y-75524728D01*
X168997797Y-75361546D01*
X168963339Y-75188313D01*
X168963339Y-75011687D01*
X168997797Y-74838454D01*
X169065389Y-74675272D01*
X169163518Y-74528412D01*
X169288412Y-74403518D01*
X169435272Y-74305389D01*
X169598454Y-74237797D01*
X169771687Y-74203339D01*
X169948313Y-74203339D01*
X170121546Y-74237797D01*
G37*
G36*
X130950386Y-65389599D02*
G01*
X131311419Y-65461413D01*
X131663674Y-65568268D01*
X132003759Y-65709136D01*
X132328399Y-65882660D01*
X132634468Y-66087169D01*
X132919018Y-66320692D01*
X133179308Y-66580982D01*
X133412831Y-66865532D01*
X133617340Y-67171601D01*
X133790864Y-67496241D01*
X133931732Y-67836326D01*
X134038587Y-68188581D01*
X134110401Y-68549614D01*
X134146482Y-68915947D01*
X134146482Y-69284053D01*
X134110401Y-69650386D01*
X134038587Y-70011419D01*
X133931732Y-70363674D01*
X133790864Y-70703759D01*
X133617340Y-71028399D01*
X133412831Y-71334468D01*
X133179308Y-71619018D01*
X132919018Y-71879308D01*
X132634468Y-72112831D01*
X132328399Y-72317340D01*
X132003759Y-72490864D01*
X131663674Y-72631732D01*
X131311419Y-72738587D01*
X130950386Y-72810401D01*
X130584053Y-72846482D01*
X130215947Y-72846482D01*
X129849614Y-72810401D01*
X129488581Y-72738587D01*
X129136326Y-72631732D01*
X128796241Y-72490864D01*
X128471601Y-72317340D01*
X128165532Y-72112831D01*
X127880982Y-71879308D01*
X127620692Y-71619018D01*
X127387169Y-71334468D01*
X127182660Y-71028399D01*
X127009136Y-70703759D01*
X126868268Y-70363674D01*
X126761413Y-70011419D01*
X126689599Y-69650386D01*
X126653518Y-69284053D01*
X126653518Y-68915947D01*
X126689599Y-68549614D01*
X126761413Y-68188581D01*
X126868268Y-67836326D01*
X127009136Y-67496241D01*
X127182660Y-67171601D01*
X127387169Y-66865532D01*
X127620692Y-66580982D01*
X127880982Y-66320692D01*
X128165532Y-66087169D01*
X128471601Y-65882660D01*
X128796241Y-65709136D01*
X129136326Y-65568268D01*
X129488581Y-65461413D01*
X129849614Y-65389599D01*
X130215947Y-65353518D01*
X130584053Y-65353518D01*
X130950386Y-65389599D01*
G37*
G36*
X182953186Y-65389599D02*
G01*
X183314219Y-65461413D01*
X183666474Y-65568268D01*
X184006559Y-65709136D01*
X184331199Y-65882660D01*
X184637268Y-66087169D01*
X184921818Y-66320692D01*
X185182108Y-66580982D01*
X185415631Y-66865532D01*
X185620140Y-67171601D01*
X185793664Y-67496241D01*
X185934532Y-67836326D01*
X186041387Y-68188581D01*
X186113201Y-68549614D01*
X186149282Y-68915947D01*
X186149282Y-69284053D01*
X186113201Y-69650386D01*
X186041387Y-70011419D01*
X185934532Y-70363674D01*
X185793664Y-70703759D01*
X185620140Y-71028399D01*
X185415631Y-71334468D01*
X185182108Y-71619018D01*
X184921818Y-71879308D01*
X184637268Y-72112831D01*
X184331199Y-72317340D01*
X184006559Y-72490864D01*
X183666474Y-72631732D01*
X183314219Y-72738587D01*
X182953186Y-72810401D01*
X182586853Y-72846482D01*
X182218747Y-72846482D01*
X181852414Y-72810401D01*
X181491381Y-72738587D01*
X181139126Y-72631732D01*
X180799041Y-72490864D01*
X180474401Y-72317340D01*
X180168332Y-72112831D01*
X179883782Y-71879308D01*
X179623492Y-71619018D01*
X179389969Y-71334468D01*
X179185460Y-71028399D01*
X179011936Y-70703759D01*
X178871068Y-70363674D01*
X178764213Y-70011419D01*
X178692399Y-69650386D01*
X178656318Y-69284053D01*
X178656318Y-68915947D01*
X178692399Y-68549614D01*
X178764213Y-68188581D01*
X178871068Y-67836326D01*
X179011936Y-67496241D01*
X179185460Y-67171601D01*
X179389969Y-66865532D01*
X179623492Y-66580982D01*
X179883782Y-66320692D01*
X180168332Y-66087169D01*
X180474401Y-65882660D01*
X180799041Y-65709136D01*
X181139126Y-65568268D01*
X181491381Y-65461413D01*
X181852414Y-65389599D01*
X182218747Y-65353518D01*
X182586853Y-65353518D01*
X182953186Y-65389599D01*
G37*
G36*
X156110482Y-68839781D02*
G01*
X156121690Y-68839781D01*
X156176888Y-68848523D01*
X156302534Y-68865065D01*
X156333189Y-68873279D01*
X156362074Y-68877854D01*
X156417620Y-68895902D01*
X156498467Y-68917565D01*
X156550050Y-68938931D01*
X156593542Y-68953063D01*
X156634286Y-68973823D01*
X156685870Y-68995190D01*
X156758353Y-69037038D01*
X156810395Y-69063555D01*
X156834055Y-69080745D01*
X156861539Y-69096613D01*
X156962074Y-69173756D01*
X157007294Y-69206610D01*
X157015219Y-69214535D01*
X157022466Y-69220096D01*
X157165903Y-69363533D01*
X157171463Y-69370779D01*
X157179390Y-69378706D01*
X157212247Y-69423930D01*
X157289386Y-69524460D01*
X157305252Y-69551941D01*
X157322445Y-69575605D01*
X157348964Y-69627652D01*
X157390809Y-69700129D01*
X157412173Y-69751706D01*
X157432937Y-69792458D01*
X157447070Y-69835955D01*
X157468434Y-69887532D01*
X157490093Y-69968366D01*
X157508146Y-70023926D01*
X157512721Y-70052816D01*
X157520934Y-70083465D01*
X157537474Y-70209099D01*
X157546219Y-70264310D01*
X157546219Y-70275518D01*
X157547412Y-70284580D01*
X157547412Y-70487419D01*
X157546219Y-70496480D01*
X157546219Y-70507690D01*
X157537473Y-70562905D01*
X157520934Y-70688534D01*
X157512722Y-70719180D01*
X157508146Y-70748074D01*
X157490091Y-70803638D01*
X157468434Y-70884467D01*
X157447071Y-70936039D01*
X157432937Y-70979542D01*
X157412171Y-71020297D01*
X157390809Y-71071870D01*
X157348968Y-71144338D01*
X157322445Y-71196395D01*
X157305249Y-71220062D01*
X157289386Y-71247539D01*
X157212261Y-71348050D01*
X157179390Y-71393294D01*
X157171459Y-71401224D01*
X157165903Y-71408466D01*
X157022466Y-71551903D01*
X157015224Y-71557459D01*
X157007294Y-71565390D01*
X156962050Y-71598261D01*
X156861539Y-71675386D01*
X156834062Y-71691249D01*
X156810395Y-71708445D01*
X156758338Y-71734968D01*
X156685870Y-71776809D01*
X156634297Y-71798171D01*
X156593542Y-71818937D01*
X156550039Y-71833071D01*
X156498467Y-71854434D01*
X156417638Y-71876091D01*
X156362074Y-71894146D01*
X156333180Y-71898722D01*
X156302534Y-71906934D01*
X156176902Y-71923474D01*
X156121690Y-71932219D01*
X156110481Y-71932219D01*
X156101420Y-71933412D01*
X155898580Y-71933412D01*
X155889519Y-71932219D01*
X155878310Y-71932219D01*
X155823099Y-71923474D01*
X155697465Y-71906934D01*
X155666816Y-71898721D01*
X155637926Y-71894146D01*
X155582366Y-71876093D01*
X155501532Y-71854434D01*
X155449955Y-71833070D01*
X155406458Y-71818937D01*
X155365706Y-71798173D01*
X155314129Y-71776809D01*
X155241652Y-71734964D01*
X155189605Y-71708445D01*
X155165941Y-71691252D01*
X155138460Y-71675386D01*
X155037930Y-71598247D01*
X154992706Y-71565390D01*
X154984779Y-71557463D01*
X154977533Y-71551903D01*
X154834096Y-71408466D01*
X154828535Y-71401219D01*
X154820610Y-71393294D01*
X154787756Y-71348074D01*
X154710613Y-71247539D01*
X154694745Y-71220055D01*
X154677555Y-71196395D01*
X154651038Y-71144353D01*
X154609190Y-71071870D01*
X154587823Y-71020286D01*
X154567063Y-70979542D01*
X154552931Y-70936050D01*
X154531565Y-70884467D01*
X154509902Y-70803620D01*
X154491854Y-70748074D01*
X154487279Y-70719189D01*
X154479065Y-70688534D01*
X154462524Y-70562891D01*
X154453781Y-70507690D01*
X154453781Y-70496480D01*
X154452588Y-70487419D01*
X154452588Y-70284580D01*
X154453781Y-70275518D01*
X154453781Y-70264310D01*
X154462523Y-70209113D01*
X154479065Y-70083465D01*
X154487279Y-70052807D01*
X154491854Y-70023926D01*
X154509900Y-69968383D01*
X154531565Y-69887532D01*
X154552933Y-69835944D01*
X154567063Y-69792458D01*
X154587821Y-69751717D01*
X154609190Y-69700129D01*
X154651042Y-69627637D01*
X154677555Y-69575605D01*
X154694742Y-69551948D01*
X154710613Y-69524460D01*
X154787770Y-69423906D01*
X154820610Y-69378706D01*
X154828532Y-69370783D01*
X154834096Y-69363533D01*
X154977533Y-69220096D01*
X154984783Y-69214532D01*
X154992706Y-69206610D01*
X155037906Y-69173770D01*
X155138460Y-69096613D01*
X155165948Y-69080742D01*
X155189605Y-69063555D01*
X155241637Y-69037042D01*
X155314129Y-68995190D01*
X155365717Y-68973821D01*
X155406458Y-68953063D01*
X155449944Y-68938933D01*
X155501532Y-68917565D01*
X155582383Y-68895900D01*
X155637926Y-68877854D01*
X155666807Y-68873279D01*
X155697465Y-68865065D01*
X155823113Y-68848523D01*
X155878310Y-68839781D01*
X155889518Y-68839781D01*
X155898580Y-68838588D01*
X156101420Y-68838588D01*
X156110482Y-68839781D01*
G37*
G36*
X160594517Y-69038882D02*
G01*
X160611062Y-69049938D01*
X160622118Y-69066483D01*
X160626000Y-69086000D01*
X160626000Y-71686000D01*
X160622118Y-71705517D01*
X160611062Y-71722062D01*
X160594517Y-71733118D01*
X160575000Y-71737000D01*
X157975000Y-71737000D01*
X157955483Y-71733118D01*
X157938938Y-71722062D01*
X157927882Y-71705517D01*
X157924000Y-71686000D01*
X157924000Y-69086000D01*
X157927882Y-69066483D01*
X157938938Y-69049938D01*
X157955483Y-69038882D01*
X157975000Y-69035000D01*
X160575000Y-69035000D01*
X160594517Y-69038882D01*
G37*
G36*
X151110482Y-66639781D02*
G01*
X151121690Y-66639781D01*
X151176888Y-66648523D01*
X151302534Y-66665065D01*
X151333189Y-66673279D01*
X151362074Y-66677854D01*
X151417620Y-66695902D01*
X151498467Y-66717565D01*
X151550050Y-66738931D01*
X151593542Y-66753063D01*
X151634286Y-66773823D01*
X151685870Y-66795190D01*
X151758353Y-66837038D01*
X151810395Y-66863555D01*
X151834055Y-66880745D01*
X151861539Y-66896613D01*
X151962074Y-66973756D01*
X152007294Y-67006610D01*
X152015219Y-67014535D01*
X152022466Y-67020096D01*
X152165903Y-67163533D01*
X152171463Y-67170779D01*
X152179390Y-67178706D01*
X152212247Y-67223930D01*
X152289386Y-67324460D01*
X152305252Y-67351941D01*
X152322445Y-67375605D01*
X152348964Y-67427652D01*
X152390809Y-67500129D01*
X152412173Y-67551706D01*
X152432937Y-67592458D01*
X152447070Y-67635955D01*
X152468434Y-67687532D01*
X152490093Y-67768366D01*
X152508146Y-67823926D01*
X152512721Y-67852816D01*
X152520934Y-67883465D01*
X152537474Y-68009099D01*
X152546219Y-68064310D01*
X152546219Y-68075518D01*
X152547412Y-68084580D01*
X152547412Y-68287419D01*
X152546219Y-68296480D01*
X152546219Y-68307690D01*
X152537473Y-68362905D01*
X152520934Y-68488534D01*
X152512722Y-68519180D01*
X152508146Y-68548074D01*
X152490091Y-68603638D01*
X152468434Y-68684467D01*
X152447071Y-68736039D01*
X152432937Y-68779542D01*
X152412171Y-68820297D01*
X152390809Y-68871870D01*
X152348968Y-68944338D01*
X152322445Y-68996395D01*
X152305249Y-69020062D01*
X152289386Y-69047539D01*
X152212261Y-69148050D01*
X152179390Y-69193294D01*
X152171459Y-69201224D01*
X152165903Y-69208466D01*
X152022466Y-69351903D01*
X152015224Y-69357459D01*
X152007294Y-69365390D01*
X151962050Y-69398261D01*
X151861539Y-69475386D01*
X151834062Y-69491249D01*
X151810395Y-69508445D01*
X151758338Y-69534968D01*
X151685870Y-69576809D01*
X151634297Y-69598171D01*
X151593542Y-69618937D01*
X151550039Y-69633071D01*
X151498467Y-69654434D01*
X151417638Y-69676091D01*
X151362074Y-69694146D01*
X151333180Y-69698722D01*
X151302534Y-69706934D01*
X151176902Y-69723474D01*
X151121690Y-69732219D01*
X151110481Y-69732219D01*
X151101420Y-69733412D01*
X150898580Y-69733412D01*
X150889519Y-69732219D01*
X150878310Y-69732219D01*
X150823099Y-69723474D01*
X150697465Y-69706934D01*
X150666816Y-69698721D01*
X150637926Y-69694146D01*
X150582366Y-69676093D01*
X150501532Y-69654434D01*
X150449955Y-69633070D01*
X150406458Y-69618937D01*
X150365706Y-69598173D01*
X150314129Y-69576809D01*
X150241652Y-69534964D01*
X150189605Y-69508445D01*
X150165941Y-69491252D01*
X150138460Y-69475386D01*
X150037930Y-69398247D01*
X149992706Y-69365390D01*
X149984779Y-69357463D01*
X149977533Y-69351903D01*
X149834096Y-69208466D01*
X149828535Y-69201219D01*
X149820610Y-69193294D01*
X149787756Y-69148074D01*
X149710613Y-69047539D01*
X149694745Y-69020055D01*
X149677555Y-68996395D01*
X149651038Y-68944353D01*
X149609190Y-68871870D01*
X149587823Y-68820286D01*
X149567063Y-68779542D01*
X149552931Y-68736050D01*
X149531565Y-68684467D01*
X149509902Y-68603620D01*
X149491854Y-68548074D01*
X149487279Y-68519189D01*
X149479065Y-68488534D01*
X149462524Y-68362891D01*
X149453781Y-68307690D01*
X149453781Y-68296480D01*
X149452588Y-68287419D01*
X149452588Y-68084580D01*
X149453781Y-68075518D01*
X149453781Y-68064310D01*
X149462523Y-68009113D01*
X149479065Y-67883465D01*
X149487279Y-67852807D01*
X149491854Y-67823926D01*
X149509900Y-67768383D01*
X149531565Y-67687532D01*
X149552933Y-67635944D01*
X149567063Y-67592458D01*
X149587821Y-67551717D01*
X149609190Y-67500129D01*
X149651042Y-67427637D01*
X149677555Y-67375605D01*
X149694742Y-67351948D01*
X149710613Y-67324460D01*
X149787770Y-67223906D01*
X149820610Y-67178706D01*
X149828532Y-67170783D01*
X149834096Y-67163533D01*
X149977533Y-67020096D01*
X149984783Y-67014532D01*
X149992706Y-67006610D01*
X150037906Y-66973770D01*
X150138460Y-66896613D01*
X150165948Y-66880742D01*
X150189605Y-66863555D01*
X150241637Y-66837042D01*
X150314129Y-66795190D01*
X150365717Y-66773821D01*
X150406458Y-66753063D01*
X150449944Y-66738933D01*
X150501532Y-66717565D01*
X150582383Y-66695900D01*
X150637926Y-66677854D01*
X150666807Y-66673279D01*
X150697465Y-66665065D01*
X150823113Y-66648523D01*
X150878310Y-66639781D01*
X150889518Y-66639781D01*
X150898580Y-66638588D01*
X151101420Y-66638588D01*
X151110482Y-66639781D01*
G37*
G36*
X149044517Y-66838882D02*
G01*
X149061062Y-66849938D01*
X149072118Y-66866483D01*
X149076000Y-66886000D01*
X149076000Y-69486000D01*
X149072118Y-69505517D01*
X149061062Y-69522062D01*
X149044517Y-69533118D01*
X149025000Y-69537000D01*
X146425000Y-69537000D01*
X146405483Y-69533118D01*
X146388938Y-69522062D01*
X146377882Y-69505517D01*
X146374000Y-69486000D01*
X146374000Y-66886000D01*
X146377882Y-66866483D01*
X146388938Y-66849938D01*
X146405483Y-66838882D01*
X146425000Y-66835000D01*
X149025000Y-66835000D01*
X149044517Y-66838882D01*
G37*
G36*
X156344432Y-62704424D02*
G01*
X156567501Y-62764195D01*
X156780861Y-62852571D01*
X156980859Y-62968040D01*
X157164075Y-63108627D01*
X157327373Y-63271925D01*
X157467960Y-63455141D01*
X157583429Y-63655139D01*
X157671805Y-63868499D01*
X157731576Y-64091568D01*
X157761720Y-64320531D01*
X157761720Y-64551469D01*
X157731576Y-64780432D01*
X157671805Y-65003501D01*
X157583429Y-65216861D01*
X157467960Y-65416859D01*
X157327373Y-65600075D01*
X157164075Y-65763373D01*
X156980859Y-65903960D01*
X156780861Y-66019429D01*
X156567501Y-66107805D01*
X156344432Y-66167576D01*
X156115469Y-66197720D01*
X155884531Y-66197720D01*
X155655568Y-66167576D01*
X155432499Y-66107805D01*
X155219139Y-66019429D01*
X155019141Y-65903960D01*
X154835925Y-65763373D01*
X154672627Y-65600075D01*
X154532040Y-65416859D01*
X154416571Y-65216861D01*
X154328195Y-65003501D01*
X154268424Y-64780432D01*
X154238280Y-64551469D01*
X154238280Y-64320531D01*
X154268424Y-64091568D01*
X154328195Y-63868499D01*
X154416571Y-63655139D01*
X154532040Y-63455141D01*
X154672627Y-63271925D01*
X154835925Y-63108627D01*
X155019141Y-62968040D01*
X155219139Y-62852571D01*
X155432499Y-62764195D01*
X155655568Y-62704424D01*
X155884531Y-62674280D01*
X156115469Y-62674280D01*
X156344432Y-62704424D01*
G37*
G36*
X150761808Y-63572936D02*
G01*
X150925153Y-63640595D01*
X151072159Y-63738822D01*
X151197178Y-63863841D01*
X151295405Y-64010847D01*
X151363064Y-64174192D01*
X151397557Y-64347598D01*
X151397557Y-64524402D01*
X151363064Y-64697808D01*
X151295405Y-64861153D01*
X151197178Y-65008159D01*
X151072159Y-65133178D01*
X150925153Y-65231405D01*
X150761808Y-65299064D01*
X150588402Y-65333557D01*
X150411598Y-65333557D01*
X150238192Y-65299064D01*
X150074847Y-65231405D01*
X149927841Y-65133178D01*
X149802822Y-65008159D01*
X149704595Y-64861153D01*
X149636936Y-64697808D01*
X149602443Y-64524402D01*
X149602443Y-64347598D01*
X149636936Y-64174192D01*
X149704595Y-64010847D01*
X149802822Y-63863841D01*
X149927841Y-63738822D01*
X150074847Y-63640595D01*
X150238192Y-63572936D01*
X150411598Y-63538443D01*
X150588402Y-63538443D01*
X150761808Y-63572936D01*
G37*
G36*
X161761808Y-63572936D02*
G01*
X161925153Y-63640595D01*
X162072159Y-63738822D01*
X162197178Y-63863841D01*
X162295405Y-64010847D01*
X162363064Y-64174192D01*
X162397557Y-64347598D01*
X162397557Y-64524402D01*
X162363064Y-64697808D01*
X162295405Y-64861153D01*
X162197178Y-65008159D01*
X162072159Y-65133178D01*
X161925153Y-65231405D01*
X161761808Y-65299064D01*
X161588402Y-65333557D01*
X161411598Y-65333557D01*
X161238192Y-65299064D01*
X161074847Y-65231405D01*
X160927841Y-65133178D01*
X160802822Y-65008159D01*
X160704595Y-64861153D01*
X160636936Y-64697808D01*
X160602443Y-64524402D01*
X160602443Y-64347598D01*
X160636936Y-64174192D01*
X160704595Y-64010847D01*
X160802822Y-63863841D01*
X160927841Y-63738822D01*
X161074847Y-63640595D01*
X161238192Y-63572936D01*
X161411598Y-63538443D01*
X161588402Y-63538443D01*
X161761808Y-63572936D01*
G37*
M02*
