G04 #@! TF.GenerationSoftware,KiCad,Pcbnew,9.0.2*
G04 #@! TF.CreationDate,2025-10-02T21:32:23-04:00*
G04 #@! TF.ProjectId,Trackball,54726163-6b62-4616-9c6c-2e6b69636164,rev?*
G04 #@! TF.SameCoordinates,Original*
G04 #@! TF.FileFunction,Legend,Bot*
G04 #@! TF.FilePolarity,Positive*
%FSLAX46Y46*%
G04 Gerber Fmt 4.6, Leading zero omitted, Abs format (unit mm)*
G04 Created by KiCad (PCBNEW 9.0.2) date 2025-10-02 21:32:23*
%MOMM*%
%LPD*%
G01*
G04 APERTURE LIST*
%ADD10C,0.300000*%
%ADD11C,0.150000*%
%ADD12R,1.600000X1.600000*%
%ADD13C,1.600000*%
G04 APERTURE END LIST*
D10*
G36*
X184135912Y-88254228D02*
G01*
X184083378Y-88411830D01*
X183982772Y-88512435D01*
X183876412Y-88565616D01*
X183624591Y-88628571D01*
X183447233Y-88628571D01*
X183195411Y-88565615D01*
X183089052Y-88512436D01*
X182988445Y-88411829D01*
X182935912Y-88254230D01*
X182935912Y-88071428D01*
X184135912Y-88071428D01*
X184135912Y-88254228D01*
G37*
G36*
X185836542Y-87207447D02*
G01*
X185791835Y-87296860D01*
X185754830Y-87333865D01*
X185665418Y-87378571D01*
X185521952Y-87378571D01*
X185432539Y-87333865D01*
X185395535Y-87296861D01*
X185350828Y-87207446D01*
X185350828Y-86821428D01*
X185836542Y-86821428D01*
X185836542Y-87207447D01*
G37*
G36*
X183707341Y-85499029D02*
G01*
X183260252Y-85350000D01*
X183707341Y-85200970D01*
X183707341Y-85499029D01*
G37*
G36*
X187017495Y-92913786D02*
G01*
X182469245Y-92913786D01*
X182469245Y-91742858D01*
X185050828Y-91742858D01*
X185050828Y-92600001D01*
X185053710Y-92629265D01*
X185076108Y-92683337D01*
X185117492Y-92724721D01*
X185171564Y-92747119D01*
X185230092Y-92747119D01*
X185284164Y-92724721D01*
X185325548Y-92683337D01*
X185347946Y-92629265D01*
X185350828Y-92600001D01*
X185350828Y-92321429D01*
X186700828Y-92321429D01*
X186730092Y-92318547D01*
X186784164Y-92296149D01*
X186825548Y-92254765D01*
X186847946Y-92200693D01*
X186847946Y-92142165D01*
X186825548Y-92088093D01*
X186784164Y-92046709D01*
X186730092Y-92024311D01*
X186700828Y-92021429D01*
X185350828Y-92021429D01*
X185350828Y-91742858D01*
X185347946Y-91713594D01*
X185325548Y-91659522D01*
X185284164Y-91618138D01*
X185230092Y-91595740D01*
X185171564Y-91595740D01*
X185117492Y-91618138D01*
X185076108Y-91659522D01*
X185053710Y-91713594D01*
X185050828Y-91742858D01*
X182469245Y-91742858D01*
X182469245Y-90356450D01*
X185053710Y-90356450D01*
X185053710Y-90414978D01*
X185076108Y-90469050D01*
X185117492Y-90510434D01*
X185171564Y-90532832D01*
X185200828Y-90535714D01*
X185765114Y-90535714D01*
X185765114Y-91092857D01*
X185200828Y-91092857D01*
X185171564Y-91095739D01*
X185117492Y-91118137D01*
X185076108Y-91159521D01*
X185053710Y-91213593D01*
X185053710Y-91272121D01*
X185076108Y-91326193D01*
X185117492Y-91367577D01*
X185171564Y-91389975D01*
X185200828Y-91392857D01*
X186700828Y-91392857D01*
X186730092Y-91389975D01*
X186784164Y-91367577D01*
X186825548Y-91326193D01*
X186847946Y-91272121D01*
X186847946Y-91213593D01*
X186825548Y-91159521D01*
X186784164Y-91118137D01*
X186730092Y-91095739D01*
X186700828Y-91092857D01*
X186065114Y-91092857D01*
X186065114Y-90535714D01*
X186700828Y-90535714D01*
X186730092Y-90532832D01*
X186784164Y-90510434D01*
X186825548Y-90469050D01*
X186847946Y-90414978D01*
X186847946Y-90356450D01*
X186825548Y-90302378D01*
X186784164Y-90260994D01*
X186730092Y-90238596D01*
X186700828Y-90235714D01*
X185200828Y-90235714D01*
X185171564Y-90238596D01*
X185117492Y-90260994D01*
X185076108Y-90302378D01*
X185053710Y-90356450D01*
X182469245Y-90356450D01*
X182469245Y-89314286D01*
X185050828Y-89314286D01*
X185050828Y-89528572D01*
X185053710Y-89557836D01*
X185055773Y-89562816D01*
X185056155Y-89568191D01*
X185066664Y-89595654D01*
X185138093Y-89738511D01*
X185153758Y-89763397D01*
X185197973Y-89801743D01*
X185253496Y-89820251D01*
X185311876Y-89816102D01*
X185364225Y-89789928D01*
X185402572Y-89745712D01*
X185421079Y-89690190D01*
X185416930Y-89631810D01*
X185406421Y-89604346D01*
X185350828Y-89493161D01*
X185350828Y-89338626D01*
X185403361Y-89181027D01*
X185503968Y-89080420D01*
X185610327Y-89027241D01*
X185862149Y-88964286D01*
X186039507Y-88964286D01*
X186291328Y-89027240D01*
X186397688Y-89080421D01*
X186498294Y-89181026D01*
X186550828Y-89338628D01*
X186550828Y-89432800D01*
X186498294Y-89590402D01*
X186495840Y-89592857D01*
X186207971Y-89592857D01*
X186207971Y-89457143D01*
X186205089Y-89427879D01*
X186182691Y-89373807D01*
X186141307Y-89332423D01*
X186087235Y-89310025D01*
X186028707Y-89310025D01*
X185974635Y-89332423D01*
X185933251Y-89373807D01*
X185910853Y-89427879D01*
X185907971Y-89457143D01*
X185907971Y-89742857D01*
X185910853Y-89772119D01*
X185910853Y-89772121D01*
X185933251Y-89826193D01*
X185974635Y-89867577D01*
X186028707Y-89889975D01*
X186057971Y-89892857D01*
X186557971Y-89892857D01*
X186587235Y-89889975D01*
X186641307Y-89867577D01*
X186641310Y-89867573D01*
X186664036Y-89848924D01*
X186735465Y-89777496D01*
X186754120Y-89754765D01*
X186756181Y-89749788D01*
X186759715Y-89745714D01*
X186771703Y-89718863D01*
X186843131Y-89504577D01*
X186846430Y-89490064D01*
X186847946Y-89486407D01*
X186848468Y-89481104D01*
X186849651Y-89475903D01*
X186849369Y-89471948D01*
X186850828Y-89457143D01*
X186850828Y-89314286D01*
X186849369Y-89299480D01*
X186849651Y-89295526D01*
X186848468Y-89290324D01*
X186847946Y-89285022D01*
X186846430Y-89281364D01*
X186843131Y-89266852D01*
X186771703Y-89052566D01*
X186759715Y-89025715D01*
X186756183Y-89021643D01*
X186754121Y-89016664D01*
X186735466Y-88993934D01*
X186592608Y-88851077D01*
X186581106Y-88841637D01*
X186578510Y-88838644D01*
X186573996Y-88835803D01*
X186569877Y-88832422D01*
X186566217Y-88830906D01*
X186553624Y-88822979D01*
X186410767Y-88751550D01*
X186408626Y-88750730D01*
X186407756Y-88750086D01*
X186395478Y-88745699D01*
X186383304Y-88741041D01*
X186382223Y-88740964D01*
X186380065Y-88740193D01*
X186094351Y-88668765D01*
X186089279Y-88668015D01*
X186087235Y-88667168D01*
X186076212Y-88666082D01*
X186065262Y-88664463D01*
X186063074Y-88664788D01*
X186057971Y-88664286D01*
X185843685Y-88664286D01*
X185838581Y-88664788D01*
X185836394Y-88664463D01*
X185825443Y-88666082D01*
X185814421Y-88667168D01*
X185812376Y-88668015D01*
X185807305Y-88668765D01*
X185521591Y-88740193D01*
X185519432Y-88740964D01*
X185518352Y-88741041D01*
X185506171Y-88745701D01*
X185493900Y-88750086D01*
X185493030Y-88750730D01*
X185490888Y-88751550D01*
X185348032Y-88822979D01*
X185335440Y-88830905D01*
X185331778Y-88832422D01*
X185327655Y-88835805D01*
X185323146Y-88838644D01*
X185320550Y-88841636D01*
X185309048Y-88851077D01*
X185166191Y-88993934D01*
X185147536Y-89016665D01*
X185145473Y-89021644D01*
X185141943Y-89025715D01*
X185129954Y-89052566D01*
X185058526Y-89266852D01*
X185055227Y-89281359D01*
X185053710Y-89285022D01*
X185053187Y-89290330D01*
X185052006Y-89295525D01*
X185052286Y-89299474D01*
X185050828Y-89314286D01*
X182469245Y-89314286D01*
X182469245Y-87921428D01*
X182635912Y-87921428D01*
X182635912Y-88278571D01*
X182637370Y-88293382D01*
X182637090Y-88297332D01*
X182638271Y-88302526D01*
X182638794Y-88307835D01*
X182640311Y-88311497D01*
X182643610Y-88326005D01*
X182715038Y-88540291D01*
X182727027Y-88567142D01*
X182730557Y-88571212D01*
X182732620Y-88576192D01*
X182751275Y-88598923D01*
X182894132Y-88741780D01*
X182905634Y-88751220D01*
X182908230Y-88754213D01*
X182912739Y-88757051D01*
X182916862Y-88760435D01*
X182920524Y-88761951D01*
X182933116Y-88769878D01*
X183075972Y-88841307D01*
X183078114Y-88842126D01*
X183078984Y-88842771D01*
X183091255Y-88847155D01*
X183103436Y-88851816D01*
X183104516Y-88851892D01*
X183106675Y-88852664D01*
X183392389Y-88924092D01*
X183397460Y-88924841D01*
X183399505Y-88925689D01*
X183410527Y-88926774D01*
X183421478Y-88928394D01*
X183423665Y-88928068D01*
X183428769Y-88928571D01*
X183643055Y-88928571D01*
X183648158Y-88928068D01*
X183650346Y-88928394D01*
X183661296Y-88926774D01*
X183672319Y-88925689D01*
X183674363Y-88924841D01*
X183679435Y-88924092D01*
X183965149Y-88852664D01*
X183967307Y-88851892D01*
X183968388Y-88851816D01*
X183980562Y-88847157D01*
X183992840Y-88842771D01*
X183993710Y-88842126D01*
X183995851Y-88841307D01*
X184138708Y-88769878D01*
X184151301Y-88761950D01*
X184154961Y-88760435D01*
X184159080Y-88757053D01*
X184163594Y-88754213D01*
X184166190Y-88751219D01*
X184177692Y-88741780D01*
X184320550Y-88598923D01*
X184339205Y-88576193D01*
X184341267Y-88571213D01*
X184344799Y-88567142D01*
X184356787Y-88540291D01*
X184428215Y-88326005D01*
X184431514Y-88311492D01*
X184433030Y-88307835D01*
X184433552Y-88302532D01*
X184434735Y-88297331D01*
X184434453Y-88293376D01*
X184435912Y-88278571D01*
X184435912Y-88142164D01*
X185053710Y-88142164D01*
X185053710Y-88200692D01*
X185076108Y-88254764D01*
X185117492Y-88296148D01*
X185171564Y-88318546D01*
X185200828Y-88321428D01*
X186700828Y-88321428D01*
X186730092Y-88318546D01*
X186784164Y-88296148D01*
X186825548Y-88254764D01*
X186847946Y-88200692D01*
X186847946Y-88142164D01*
X186825548Y-88088092D01*
X186784164Y-88046708D01*
X186730092Y-88024310D01*
X186700828Y-88021428D01*
X185200828Y-88021428D01*
X185171564Y-88024310D01*
X185117492Y-88046708D01*
X185076108Y-88088092D01*
X185053710Y-88142164D01*
X184435912Y-88142164D01*
X184435912Y-87921428D01*
X184433030Y-87892164D01*
X184410632Y-87838092D01*
X184369248Y-87796708D01*
X184315176Y-87774310D01*
X184285912Y-87771428D01*
X182785912Y-87771428D01*
X182756648Y-87774310D01*
X182702576Y-87796708D01*
X182661192Y-87838092D01*
X182638794Y-87892164D01*
X182635912Y-87921428D01*
X182469245Y-87921428D01*
X182469245Y-86360476D01*
X182636278Y-86360476D01*
X182638794Y-86369700D01*
X182638794Y-86379263D01*
X182646429Y-86397695D01*
X182651678Y-86416940D01*
X182657532Y-86424499D01*
X182661192Y-86433335D01*
X182675299Y-86447442D01*
X182687513Y-86463214D01*
X182699776Y-86471919D01*
X182702576Y-86474719D01*
X182705323Y-86475857D01*
X182711491Y-86480235D01*
X183721077Y-87057142D01*
X182785912Y-87057142D01*
X182756648Y-87060024D01*
X182702576Y-87082422D01*
X182661192Y-87123806D01*
X182638794Y-87177878D01*
X182638794Y-87236406D01*
X182661192Y-87290478D01*
X182702576Y-87331862D01*
X182756648Y-87354260D01*
X182785912Y-87357142D01*
X184285912Y-87357142D01*
X184293438Y-87356400D01*
X184296390Y-87356776D01*
X184300211Y-87355733D01*
X184315176Y-87354260D01*
X184333608Y-87346624D01*
X184352853Y-87341376D01*
X184360412Y-87335521D01*
X184369248Y-87331862D01*
X184383355Y-87317754D01*
X184399127Y-87305541D01*
X184403871Y-87297238D01*
X184410632Y-87290478D01*
X184418266Y-87272047D01*
X184428165Y-87254725D01*
X184429370Y-87245239D01*
X184433030Y-87236406D01*
X184433030Y-87216456D01*
X184435546Y-87196665D01*
X184433030Y-87187439D01*
X184433030Y-87177878D01*
X184425396Y-87159449D01*
X184420147Y-87140201D01*
X184414290Y-87132639D01*
X184410632Y-87123806D01*
X184396526Y-87109700D01*
X184384311Y-87093927D01*
X184372047Y-87085221D01*
X184369248Y-87082422D01*
X184366500Y-87081283D01*
X184360333Y-87076906D01*
X183650747Y-86671428D01*
X185050828Y-86671428D01*
X185050828Y-87242857D01*
X185053710Y-87272121D01*
X185055773Y-87277101D01*
X185056155Y-87282476D01*
X185066664Y-87309939D01*
X185138093Y-87452796D01*
X185146021Y-87465391D01*
X185147536Y-87469048D01*
X185150915Y-87473165D01*
X185153758Y-87477682D01*
X185156752Y-87480279D01*
X185166190Y-87491779D01*
X185237618Y-87563208D01*
X185249123Y-87572650D01*
X185251718Y-87575642D01*
X185256228Y-87578481D01*
X185260349Y-87581863D01*
X185264008Y-87583378D01*
X185276603Y-87591307D01*
X185419461Y-87662735D01*
X185446924Y-87673245D01*
X185452299Y-87673626D01*
X185457278Y-87675689D01*
X185486542Y-87678571D01*
X185700828Y-87678571D01*
X185730092Y-87675689D01*
X185735070Y-87673626D01*
X185740446Y-87673245D01*
X185767910Y-87662735D01*
X185910767Y-87591307D01*
X185923360Y-87583379D01*
X185927020Y-87581864D01*
X185931139Y-87578482D01*
X185935653Y-87575642D01*
X185938249Y-87572648D01*
X185949751Y-87563209D01*
X186021180Y-87491780D01*
X186030621Y-87480275D01*
X186033613Y-87477681D01*
X186036451Y-87473171D01*
X186039835Y-87469049D01*
X186041351Y-87465387D01*
X186049278Y-87452796D01*
X186120706Y-87309938D01*
X186122020Y-87306503D01*
X186614809Y-87651456D01*
X186640435Y-87665877D01*
X186697577Y-87678536D01*
X186755213Y-87668365D01*
X186804570Y-87636912D01*
X186838134Y-87588964D01*
X186850793Y-87531822D01*
X186840622Y-87474186D01*
X186809169Y-87424829D01*
X186786847Y-87405686D01*
X186136542Y-86950472D01*
X186136542Y-86821428D01*
X186700828Y-86821428D01*
X186730092Y-86818546D01*
X186784164Y-86796148D01*
X186825548Y-86754764D01*
X186847946Y-86700692D01*
X186847946Y-86642164D01*
X186825548Y-86588092D01*
X186784164Y-86546708D01*
X186730092Y-86524310D01*
X186700828Y-86521428D01*
X185200828Y-86521428D01*
X185171564Y-86524310D01*
X185117492Y-86546708D01*
X185076108Y-86588092D01*
X185053710Y-86642164D01*
X185050828Y-86671428D01*
X183650747Y-86671428D01*
X183350746Y-86499999D01*
X184285912Y-86499999D01*
X184315176Y-86497117D01*
X184369248Y-86474719D01*
X184410632Y-86433335D01*
X184433030Y-86379263D01*
X184433030Y-86320735D01*
X184410632Y-86266663D01*
X184369248Y-86225279D01*
X184315176Y-86202881D01*
X184285912Y-86199999D01*
X182785912Y-86199999D01*
X182778386Y-86200740D01*
X182775435Y-86200365D01*
X182771614Y-86201407D01*
X182756648Y-86202881D01*
X182738215Y-86210516D01*
X182718971Y-86215765D01*
X182711411Y-86221619D01*
X182702576Y-86225279D01*
X182688468Y-86239386D01*
X182672697Y-86251600D01*
X182667952Y-86259902D01*
X182661192Y-86266663D01*
X182653557Y-86285093D01*
X182643659Y-86302416D01*
X182642453Y-86311901D01*
X182638794Y-86320735D01*
X182638794Y-86340684D01*
X182636278Y-86360476D01*
X182469245Y-86360476D01*
X182469245Y-85331239D01*
X182637090Y-85331239D01*
X182638423Y-85350000D01*
X182637090Y-85368761D01*
X182640479Y-85378928D01*
X182641239Y-85389620D01*
X182649650Y-85406443D01*
X182655598Y-85424285D01*
X182662620Y-85432381D01*
X182667413Y-85441967D01*
X182681621Y-85454290D01*
X182693945Y-85468499D01*
X182703530Y-85473291D01*
X182711627Y-85480314D01*
X182738478Y-85492302D01*
X184238478Y-85992303D01*
X184267152Y-85998823D01*
X184325532Y-85994673D01*
X184377879Y-85968499D01*
X184416226Y-85924285D01*
X184434735Y-85868761D01*
X184430585Y-85810381D01*
X184404412Y-85758033D01*
X184360197Y-85719686D01*
X184333346Y-85707698D01*
X184007341Y-85599029D01*
X184007341Y-85100970D01*
X184333346Y-84992302D01*
X184360197Y-84980314D01*
X184404412Y-84941967D01*
X184430585Y-84889619D01*
X184434735Y-84831239D01*
X184429083Y-84814285D01*
X185979400Y-84814285D01*
X185979400Y-85957143D01*
X185982282Y-85986407D01*
X186004680Y-86040479D01*
X186046064Y-86081863D01*
X186100136Y-86104261D01*
X186158664Y-86104261D01*
X186212736Y-86081863D01*
X186254120Y-86040479D01*
X186276518Y-85986407D01*
X186279400Y-85957143D01*
X186279400Y-84814285D01*
X186276518Y-84785021D01*
X186254120Y-84730949D01*
X186212736Y-84689565D01*
X186158664Y-84667167D01*
X186100136Y-84667167D01*
X186046064Y-84689565D01*
X186004680Y-84730949D01*
X185982282Y-84785021D01*
X185979400Y-84814285D01*
X184429083Y-84814285D01*
X184416226Y-84775715D01*
X184377879Y-84731501D01*
X184325532Y-84705327D01*
X184267152Y-84701177D01*
X184238478Y-84707697D01*
X182738478Y-85207698D01*
X182711627Y-85219686D01*
X182703530Y-85226708D01*
X182693945Y-85231501D01*
X182681621Y-85245709D01*
X182667413Y-85258033D01*
X182662620Y-85267618D01*
X182655598Y-85275715D01*
X182649650Y-85293556D01*
X182641239Y-85310380D01*
X182640479Y-85321071D01*
X182637090Y-85331239D01*
X182469245Y-85331239D01*
X182469245Y-83463592D01*
X182638794Y-83463592D01*
X182638794Y-83522120D01*
X182661192Y-83576192D01*
X182702576Y-83617576D01*
X182756648Y-83639974D01*
X182785912Y-83642856D01*
X183350198Y-83642856D01*
X183350198Y-84199999D01*
X182785912Y-84199999D01*
X182756648Y-84202881D01*
X182702576Y-84225279D01*
X182661192Y-84266663D01*
X182638794Y-84320735D01*
X182638794Y-84379263D01*
X182661192Y-84433335D01*
X182702576Y-84474719D01*
X182756648Y-84497117D01*
X182785912Y-84499999D01*
X184285912Y-84499999D01*
X184315176Y-84497117D01*
X184369248Y-84474719D01*
X184410632Y-84433335D01*
X184433030Y-84379263D01*
X184433030Y-84320735D01*
X184410632Y-84266663D01*
X184369248Y-84225279D01*
X184315176Y-84202881D01*
X184285912Y-84199999D01*
X183650198Y-84199999D01*
X183650198Y-83642856D01*
X184285912Y-83642856D01*
X184315176Y-83639974D01*
X184369248Y-83617576D01*
X184410632Y-83576192D01*
X184433030Y-83522120D01*
X184433030Y-83463592D01*
X184430359Y-83457143D01*
X185050828Y-83457143D01*
X185050828Y-84314286D01*
X185053710Y-84343550D01*
X185076108Y-84397622D01*
X185117492Y-84439006D01*
X185171564Y-84461404D01*
X185230092Y-84461404D01*
X185284164Y-84439006D01*
X185325548Y-84397622D01*
X185347946Y-84343550D01*
X185350828Y-84314286D01*
X185350828Y-84035714D01*
X186700828Y-84035714D01*
X186730092Y-84032832D01*
X186784164Y-84010434D01*
X186825548Y-83969050D01*
X186847946Y-83914978D01*
X186847946Y-83856450D01*
X186825548Y-83802378D01*
X186784164Y-83760994D01*
X186730092Y-83738596D01*
X186700828Y-83735714D01*
X185350828Y-83735714D01*
X185350828Y-83457143D01*
X185347946Y-83427879D01*
X185325548Y-83373807D01*
X185284164Y-83332423D01*
X185230092Y-83310025D01*
X185171564Y-83310025D01*
X185117492Y-83332423D01*
X185076108Y-83373807D01*
X185053710Y-83427879D01*
X185050828Y-83457143D01*
X184430359Y-83457143D01*
X184410632Y-83409520D01*
X184369248Y-83368136D01*
X184315176Y-83345738D01*
X184285912Y-83342856D01*
X182785912Y-83342856D01*
X182756648Y-83345738D01*
X182702576Y-83368136D01*
X182661192Y-83409520D01*
X182638794Y-83463592D01*
X182469245Y-83463592D01*
X182469245Y-82385714D01*
X185050828Y-82385714D01*
X185050828Y-83100000D01*
X185053710Y-83129264D01*
X185076108Y-83183336D01*
X185117492Y-83224720D01*
X185171564Y-83247118D01*
X185230092Y-83247118D01*
X185284164Y-83224720D01*
X185325548Y-83183336D01*
X185347946Y-83129264D01*
X185350828Y-83100000D01*
X185350828Y-82535714D01*
X185765114Y-82535714D01*
X185765114Y-82885714D01*
X185767996Y-82914978D01*
X185790394Y-82969050D01*
X185831778Y-83010434D01*
X185885850Y-83032832D01*
X185944378Y-83032832D01*
X185998450Y-83010434D01*
X186039834Y-82969050D01*
X186062232Y-82914978D01*
X186065114Y-82885714D01*
X186065114Y-82535714D01*
X186700828Y-82535714D01*
X186730092Y-82532832D01*
X186784164Y-82510434D01*
X186825548Y-82469050D01*
X186847946Y-82414978D01*
X186847946Y-82356450D01*
X186825548Y-82302378D01*
X186784164Y-82260994D01*
X186730092Y-82238596D01*
X186700828Y-82235714D01*
X185200828Y-82235714D01*
X185171564Y-82238596D01*
X185117492Y-82260994D01*
X185076108Y-82302378D01*
X185053710Y-82356450D01*
X185050828Y-82385714D01*
X182469245Y-82385714D01*
X182469245Y-81028571D01*
X185050828Y-81028571D01*
X185050828Y-81742857D01*
X185053710Y-81772121D01*
X185076108Y-81826193D01*
X185117492Y-81867577D01*
X185171564Y-81889975D01*
X185230092Y-81889975D01*
X185284164Y-81867577D01*
X185325548Y-81826193D01*
X185347946Y-81772121D01*
X185350828Y-81742857D01*
X185350828Y-81178571D01*
X185765114Y-81178571D01*
X185765114Y-81528571D01*
X185767996Y-81557835D01*
X185790394Y-81611907D01*
X185831778Y-81653291D01*
X185885850Y-81675689D01*
X185944378Y-81675689D01*
X185998450Y-81653291D01*
X186039834Y-81611907D01*
X186062232Y-81557835D01*
X186065114Y-81528571D01*
X186065114Y-81178571D01*
X186550828Y-81178571D01*
X186550828Y-81742857D01*
X186553710Y-81772121D01*
X186576108Y-81826193D01*
X186617492Y-81867577D01*
X186671564Y-81889975D01*
X186730092Y-81889975D01*
X186784164Y-81867577D01*
X186825548Y-81826193D01*
X186847946Y-81772121D01*
X186850828Y-81742857D01*
X186850828Y-81028571D01*
X186847946Y-80999307D01*
X186825548Y-80945235D01*
X186784164Y-80903851D01*
X186730092Y-80881453D01*
X186700828Y-80878571D01*
X185200828Y-80878571D01*
X185171564Y-80881453D01*
X185117492Y-80903851D01*
X185076108Y-80945235D01*
X185053710Y-80999307D01*
X185050828Y-81028571D01*
X182469245Y-81028571D01*
X182469245Y-79785021D01*
X185053710Y-79785021D01*
X185053710Y-79843549D01*
X185076108Y-79897621D01*
X185117492Y-79939005D01*
X185171564Y-79961403D01*
X185200828Y-79964285D01*
X186550828Y-79964285D01*
X186550828Y-80528571D01*
X186553710Y-80557835D01*
X186576108Y-80611907D01*
X186617492Y-80653291D01*
X186671564Y-80675689D01*
X186730092Y-80675689D01*
X186784164Y-80653291D01*
X186825548Y-80611907D01*
X186847946Y-80557835D01*
X186850828Y-80528571D01*
X186850828Y-79814285D01*
X186847946Y-79785021D01*
X186825548Y-79730949D01*
X186784164Y-79689565D01*
X186730092Y-79667167D01*
X186700828Y-79664285D01*
X185200828Y-79664285D01*
X185171564Y-79667167D01*
X185117492Y-79689565D01*
X185076108Y-79730949D01*
X185053710Y-79785021D01*
X182469245Y-79785021D01*
X182469245Y-79497618D01*
X187017495Y-79497618D01*
X187017495Y-92913786D01*
G37*
D11*
X173236779Y-72721077D02*
X173998684Y-72721077D01*
X173617731Y-72340124D02*
X173617731Y-73102029D01*
X174808207Y-72863934D02*
X174951064Y-72816315D01*
X174951064Y-72816315D02*
X174998683Y-72768696D01*
X174998683Y-72768696D02*
X175046302Y-72673458D01*
X175046302Y-72673458D02*
X175046302Y-72530601D01*
X175046302Y-72530601D02*
X174998683Y-72435363D01*
X174998683Y-72435363D02*
X174951064Y-72387744D01*
X174951064Y-72387744D02*
X174855826Y-72340124D01*
X174855826Y-72340124D02*
X174474874Y-72340124D01*
X174474874Y-72340124D02*
X174474874Y-73340124D01*
X174474874Y-73340124D02*
X174808207Y-73340124D01*
X174808207Y-73340124D02*
X174903445Y-73292505D01*
X174903445Y-73292505D02*
X174951064Y-73244886D01*
X174951064Y-73244886D02*
X174998683Y-73149648D01*
X174998683Y-73149648D02*
X174998683Y-73054410D01*
X174998683Y-73054410D02*
X174951064Y-72959172D01*
X174951064Y-72959172D02*
X174903445Y-72911553D01*
X174903445Y-72911553D02*
X174808207Y-72863934D01*
X174808207Y-72863934D02*
X174474874Y-72863934D01*
X175903445Y-72340124D02*
X175903445Y-72863934D01*
X175903445Y-72863934D02*
X175855826Y-72959172D01*
X175855826Y-72959172D02*
X175760588Y-73006791D01*
X175760588Y-73006791D02*
X175570112Y-73006791D01*
X175570112Y-73006791D02*
X175474874Y-72959172D01*
X175903445Y-72387744D02*
X175808207Y-72340124D01*
X175808207Y-72340124D02*
X175570112Y-72340124D01*
X175570112Y-72340124D02*
X175474874Y-72387744D01*
X175474874Y-72387744D02*
X175427255Y-72482982D01*
X175427255Y-72482982D02*
X175427255Y-72578220D01*
X175427255Y-72578220D02*
X175474874Y-72673458D01*
X175474874Y-72673458D02*
X175570112Y-72721077D01*
X175570112Y-72721077D02*
X175808207Y-72721077D01*
X175808207Y-72721077D02*
X175903445Y-72768696D01*
X176236779Y-73006791D02*
X176617731Y-73006791D01*
X176379636Y-73340124D02*
X176379636Y-72482982D01*
X176379636Y-72482982D02*
X176427255Y-72387744D01*
X176427255Y-72387744D02*
X176522493Y-72340124D01*
X176522493Y-72340124D02*
X176617731Y-72340124D01*
X176808208Y-73006791D02*
X177189160Y-73006791D01*
X176951065Y-73340124D02*
X176951065Y-72482982D01*
X176951065Y-72482982D02*
X176998684Y-72387744D01*
X176998684Y-72387744D02*
X177093922Y-72340124D01*
X177093922Y-72340124D02*
X177189160Y-72340124D01*
X177903446Y-72387744D02*
X177808208Y-72340124D01*
X177808208Y-72340124D02*
X177617732Y-72340124D01*
X177617732Y-72340124D02*
X177522494Y-72387744D01*
X177522494Y-72387744D02*
X177474875Y-72482982D01*
X177474875Y-72482982D02*
X177474875Y-72863934D01*
X177474875Y-72863934D02*
X177522494Y-72959172D01*
X177522494Y-72959172D02*
X177617732Y-73006791D01*
X177617732Y-73006791D02*
X177808208Y-73006791D01*
X177808208Y-73006791D02*
X177903446Y-72959172D01*
X177903446Y-72959172D02*
X177951065Y-72863934D01*
X177951065Y-72863934D02*
X177951065Y-72768696D01*
X177951065Y-72768696D02*
X177474875Y-72673458D01*
X178379637Y-72340124D02*
X178379637Y-73006791D01*
X178379637Y-72816315D02*
X178427256Y-72911553D01*
X178427256Y-72911553D02*
X178474875Y-72959172D01*
X178474875Y-72959172D02*
X178570113Y-73006791D01*
X178570113Y-73006791D02*
X178665351Y-73006791D01*
X178903447Y-73006791D02*
X179141542Y-72340124D01*
X179379637Y-73006791D02*
X179141542Y-72340124D01*
X179141542Y-72340124D02*
X179046304Y-72102029D01*
X179046304Y-72102029D02*
X178998685Y-72054410D01*
X178998685Y-72054410D02*
X178903447Y-72006791D01*
X174284398Y-70349228D02*
X174236779Y-70396847D01*
X174236779Y-70396847D02*
X174141541Y-70539704D01*
X174141541Y-70539704D02*
X174093922Y-70634942D01*
X174093922Y-70634942D02*
X174046303Y-70777800D01*
X174046303Y-70777800D02*
X173998684Y-71015895D01*
X173998684Y-71015895D02*
X173998684Y-71206371D01*
X173998684Y-71206371D02*
X174046303Y-71444466D01*
X174046303Y-71444466D02*
X174093922Y-71587323D01*
X174093922Y-71587323D02*
X174141541Y-71682561D01*
X174141541Y-71682561D02*
X174236779Y-71825419D01*
X174236779Y-71825419D02*
X174284398Y-71873038D01*
X175236779Y-70730180D02*
X174903446Y-71206371D01*
X174665351Y-70730180D02*
X174665351Y-71730180D01*
X174665351Y-71730180D02*
X175046303Y-71730180D01*
X175046303Y-71730180D02*
X175141541Y-71682561D01*
X175141541Y-71682561D02*
X175189160Y-71634942D01*
X175189160Y-71634942D02*
X175236779Y-71539704D01*
X175236779Y-71539704D02*
X175236779Y-71396847D01*
X175236779Y-71396847D02*
X175189160Y-71301609D01*
X175189160Y-71301609D02*
X175141541Y-71253990D01*
X175141541Y-71253990D02*
X175046303Y-71206371D01*
X175046303Y-71206371D02*
X174665351Y-71206371D01*
X176046303Y-70777800D02*
X175951065Y-70730180D01*
X175951065Y-70730180D02*
X175760589Y-70730180D01*
X175760589Y-70730180D02*
X175665351Y-70777800D01*
X175665351Y-70777800D02*
X175617732Y-70873038D01*
X175617732Y-70873038D02*
X175617732Y-71253990D01*
X175617732Y-71253990D02*
X175665351Y-71349228D01*
X175665351Y-71349228D02*
X175760589Y-71396847D01*
X175760589Y-71396847D02*
X175951065Y-71396847D01*
X175951065Y-71396847D02*
X176046303Y-71349228D01*
X176046303Y-71349228D02*
X176093922Y-71253990D01*
X176093922Y-71253990D02*
X176093922Y-71158752D01*
X176093922Y-71158752D02*
X175617732Y-71063514D01*
X176951065Y-70730180D02*
X176951065Y-71730180D01*
X176951065Y-70777800D02*
X176855827Y-70730180D01*
X176855827Y-70730180D02*
X176665351Y-70730180D01*
X176665351Y-70730180D02*
X176570113Y-70777800D01*
X176570113Y-70777800D02*
X176522494Y-70825419D01*
X176522494Y-70825419D02*
X176474875Y-70920657D01*
X176474875Y-70920657D02*
X176474875Y-71206371D01*
X176474875Y-71206371D02*
X176522494Y-71301609D01*
X176522494Y-71301609D02*
X176570113Y-71349228D01*
X176570113Y-71349228D02*
X176665351Y-71396847D01*
X176665351Y-71396847D02*
X176855827Y-71396847D01*
X176855827Y-71396847D02*
X176951065Y-71349228D01*
X177332018Y-70349228D02*
X177379637Y-70396847D01*
X177379637Y-70396847D02*
X177474875Y-70539704D01*
X177474875Y-70539704D02*
X177522494Y-70634942D01*
X177522494Y-70634942D02*
X177570113Y-70777800D01*
X177570113Y-70777800D02*
X177617732Y-71015895D01*
X177617732Y-71015895D02*
X177617732Y-71206371D01*
X177617732Y-71206371D02*
X177570113Y-71444466D01*
X177570113Y-71444466D02*
X177522494Y-71587323D01*
X177522494Y-71587323D02*
X177474875Y-71682561D01*
X177474875Y-71682561D02*
X177379637Y-71825419D01*
X177379637Y-71825419D02*
X177332018Y-71873038D01*
D10*
X173238346Y-146150828D02*
X173738346Y-145436542D01*
X174095489Y-146150828D02*
X174095489Y-144650828D01*
X174095489Y-144650828D02*
X173524060Y-144650828D01*
X173524060Y-144650828D02*
X173381203Y-144722257D01*
X173381203Y-144722257D02*
X173309774Y-144793685D01*
X173309774Y-144793685D02*
X173238346Y-144936542D01*
X173238346Y-144936542D02*
X173238346Y-145150828D01*
X173238346Y-145150828D02*
X173309774Y-145293685D01*
X173309774Y-145293685D02*
X173381203Y-145365114D01*
X173381203Y-145365114D02*
X173524060Y-145436542D01*
X173524060Y-145436542D02*
X174095489Y-145436542D01*
X172595489Y-145365114D02*
X172095489Y-145365114D01*
X171881203Y-146150828D02*
X172595489Y-146150828D01*
X172595489Y-146150828D02*
X172595489Y-144650828D01*
X172595489Y-144650828D02*
X171881203Y-144650828D01*
X171309774Y-146079400D02*
X171095489Y-146150828D01*
X171095489Y-146150828D02*
X170738346Y-146150828D01*
X170738346Y-146150828D02*
X170595489Y-146079400D01*
X170595489Y-146079400D02*
X170524060Y-146007971D01*
X170524060Y-146007971D02*
X170452631Y-145865114D01*
X170452631Y-145865114D02*
X170452631Y-145722257D01*
X170452631Y-145722257D02*
X170524060Y-145579400D01*
X170524060Y-145579400D02*
X170595489Y-145507971D01*
X170595489Y-145507971D02*
X170738346Y-145436542D01*
X170738346Y-145436542D02*
X171024060Y-145365114D01*
X171024060Y-145365114D02*
X171166917Y-145293685D01*
X171166917Y-145293685D02*
X171238346Y-145222257D01*
X171238346Y-145222257D02*
X171309774Y-145079400D01*
X171309774Y-145079400D02*
X171309774Y-144936542D01*
X171309774Y-144936542D02*
X171238346Y-144793685D01*
X171238346Y-144793685D02*
X171166917Y-144722257D01*
X171166917Y-144722257D02*
X171024060Y-144650828D01*
X171024060Y-144650828D02*
X170666917Y-144650828D01*
X170666917Y-144650828D02*
X170452631Y-144722257D01*
X169809775Y-145365114D02*
X169309775Y-145365114D01*
X169095489Y-146150828D02*
X169809775Y-146150828D01*
X169809775Y-146150828D02*
X169809775Y-144650828D01*
X169809775Y-144650828D02*
X169095489Y-144650828D01*
X168666917Y-144650828D02*
X167809775Y-144650828D01*
X168238346Y-146150828D02*
X168238346Y-144650828D01*
D11*
X145510839Y-82172200D02*
X145367982Y-82219819D01*
X145367982Y-82219819D02*
X145129887Y-82219819D01*
X145129887Y-82219819D02*
X145034649Y-82172200D01*
X145034649Y-82172200D02*
X144987030Y-82124580D01*
X144987030Y-82124580D02*
X144939411Y-82029342D01*
X144939411Y-82029342D02*
X144939411Y-81934104D01*
X144939411Y-81934104D02*
X144987030Y-81838866D01*
X144987030Y-81838866D02*
X145034649Y-81791247D01*
X145034649Y-81791247D02*
X145129887Y-81743628D01*
X145129887Y-81743628D02*
X145320363Y-81696009D01*
X145320363Y-81696009D02*
X145415601Y-81648390D01*
X145415601Y-81648390D02*
X145463220Y-81600771D01*
X145463220Y-81600771D02*
X145510839Y-81505533D01*
X145510839Y-81505533D02*
X145510839Y-81410295D01*
X145510839Y-81410295D02*
X145463220Y-81315057D01*
X145463220Y-81315057D02*
X145415601Y-81267438D01*
X145415601Y-81267438D02*
X145320363Y-81219819D01*
X145320363Y-81219819D02*
X145082268Y-81219819D01*
X145082268Y-81219819D02*
X144939411Y-81267438D01*
X143939411Y-82124580D02*
X143987030Y-82172200D01*
X143987030Y-82172200D02*
X144129887Y-82219819D01*
X144129887Y-82219819D02*
X144225125Y-82219819D01*
X144225125Y-82219819D02*
X144367982Y-82172200D01*
X144367982Y-82172200D02*
X144463220Y-82076961D01*
X144463220Y-82076961D02*
X144510839Y-81981723D01*
X144510839Y-81981723D02*
X144558458Y-81791247D01*
X144558458Y-81791247D02*
X144558458Y-81648390D01*
X144558458Y-81648390D02*
X144510839Y-81457914D01*
X144510839Y-81457914D02*
X144463220Y-81362676D01*
X144463220Y-81362676D02*
X144367982Y-81267438D01*
X144367982Y-81267438D02*
X144225125Y-81219819D01*
X144225125Y-81219819D02*
X144129887Y-81219819D01*
X144129887Y-81219819D02*
X143987030Y-81267438D01*
X143987030Y-81267438D02*
X143939411Y-81315057D01*
X143034649Y-82219819D02*
X143510839Y-82219819D01*
X143510839Y-82219819D02*
X143510839Y-81219819D01*
X142701315Y-82219819D02*
X142701315Y-81219819D01*
X142129887Y-82219819D02*
X142558458Y-81648390D01*
X142129887Y-81219819D02*
X142701315Y-81791247D01*
D10*
G36*
X185836542Y-126886019D02*
G01*
X185791835Y-126975432D01*
X185754830Y-127012437D01*
X185665418Y-127057143D01*
X185521952Y-127057143D01*
X185432539Y-127012437D01*
X185395535Y-126975433D01*
X185350828Y-126886018D01*
X185350828Y-126500000D01*
X185836542Y-126500000D01*
X185836542Y-126886019D01*
G37*
G36*
X183994938Y-121592586D02*
G01*
X184091205Y-121688853D01*
X184135912Y-121778266D01*
X184135912Y-121993161D01*
X184091205Y-122082573D01*
X183994938Y-122178840D01*
X183767447Y-122235714D01*
X183304376Y-122235714D01*
X183076885Y-122178840D01*
X182980619Y-122082574D01*
X182935912Y-121993160D01*
X182935912Y-121778267D01*
X182980619Y-121688853D01*
X183076886Y-121592586D01*
X183304376Y-121535714D01*
X183767448Y-121535714D01*
X183994938Y-121592586D01*
G37*
G36*
X183421626Y-120493161D02*
G01*
X183376919Y-120582574D01*
X183339914Y-120619579D01*
X183250502Y-120664285D01*
X183107036Y-120664285D01*
X183017623Y-120619579D01*
X182980619Y-120582575D01*
X182935912Y-120493160D01*
X182935912Y-120107142D01*
X183421626Y-120107142D01*
X183421626Y-120493161D01*
G37*
G36*
X186550828Y-117100304D02*
G01*
X186506121Y-117189717D01*
X186469116Y-117226722D01*
X186379704Y-117271428D01*
X186236238Y-117271428D01*
X186146824Y-117226721D01*
X186117647Y-117197544D01*
X186065114Y-117039942D01*
X186065114Y-116714285D01*
X186550828Y-116714285D01*
X186550828Y-117100304D01*
G37*
G36*
X185765114Y-117028875D02*
G01*
X185720407Y-117118289D01*
X185683403Y-117155292D01*
X185593990Y-117200000D01*
X185521952Y-117200000D01*
X185432539Y-117155293D01*
X185395535Y-117118289D01*
X185350828Y-117028875D01*
X185350828Y-116714285D01*
X185765114Y-116714285D01*
X185765114Y-117028875D01*
G37*
G36*
X183994938Y-115806871D02*
G01*
X184091205Y-115903138D01*
X184135912Y-115992551D01*
X184135912Y-116207446D01*
X184091205Y-116296858D01*
X183994938Y-116393125D01*
X183767447Y-116449999D01*
X183304376Y-116449999D01*
X183076885Y-116393125D01*
X182980619Y-116296859D01*
X182935912Y-116207445D01*
X182935912Y-115992552D01*
X182980619Y-115903138D01*
X183076886Y-115806871D01*
X183304376Y-115749999D01*
X183767448Y-115749999D01*
X183994938Y-115806871D01*
G37*
G36*
X187017495Y-127523810D02*
G01*
X182469245Y-127523810D01*
X182469245Y-126350000D01*
X185050828Y-126350000D01*
X185050828Y-126921429D01*
X185053710Y-126950693D01*
X185055773Y-126955673D01*
X185056155Y-126961048D01*
X185066664Y-126988511D01*
X185138093Y-127131368D01*
X185146021Y-127143963D01*
X185147536Y-127147620D01*
X185150915Y-127151737D01*
X185153758Y-127156254D01*
X185156752Y-127158851D01*
X185166190Y-127170351D01*
X185237618Y-127241780D01*
X185249123Y-127251222D01*
X185251718Y-127254214D01*
X185256228Y-127257053D01*
X185260349Y-127260435D01*
X185264008Y-127261950D01*
X185276603Y-127269879D01*
X185419461Y-127341307D01*
X185446924Y-127351817D01*
X185452299Y-127352198D01*
X185457278Y-127354261D01*
X185486542Y-127357143D01*
X185700828Y-127357143D01*
X185730092Y-127354261D01*
X185735070Y-127352198D01*
X185740446Y-127351817D01*
X185767910Y-127341307D01*
X185910767Y-127269879D01*
X185923360Y-127261951D01*
X185927020Y-127260436D01*
X185931139Y-127257054D01*
X185935653Y-127254214D01*
X185938249Y-127251220D01*
X185949751Y-127241781D01*
X186021180Y-127170352D01*
X186030621Y-127158847D01*
X186033613Y-127156253D01*
X186036451Y-127151743D01*
X186039835Y-127147621D01*
X186041351Y-127143959D01*
X186049278Y-127131368D01*
X186120706Y-126988510D01*
X186122020Y-126985075D01*
X186614809Y-127330028D01*
X186640435Y-127344449D01*
X186697577Y-127357108D01*
X186755213Y-127346937D01*
X186804570Y-127315484D01*
X186838134Y-127267536D01*
X186850793Y-127210394D01*
X186840622Y-127152758D01*
X186809169Y-127103401D01*
X186786847Y-127084258D01*
X186136542Y-126629044D01*
X186136542Y-126500000D01*
X186700828Y-126500000D01*
X186730092Y-126497118D01*
X186784164Y-126474720D01*
X186825548Y-126433336D01*
X186847946Y-126379264D01*
X186847946Y-126320736D01*
X186825548Y-126266664D01*
X186784164Y-126225280D01*
X186730092Y-126202882D01*
X186700828Y-126200000D01*
X185200828Y-126200000D01*
X185171564Y-126202882D01*
X185117492Y-126225280D01*
X185076108Y-126266664D01*
X185053710Y-126320736D01*
X185050828Y-126350000D01*
X182469245Y-126350000D01*
X182469245Y-124992857D01*
X185050828Y-124992857D01*
X185050828Y-125707143D01*
X185053710Y-125736407D01*
X185076108Y-125790479D01*
X185117492Y-125831863D01*
X185171564Y-125854261D01*
X185230092Y-125854261D01*
X185284164Y-125831863D01*
X185325548Y-125790479D01*
X185347946Y-125736407D01*
X185350828Y-125707143D01*
X185350828Y-125142857D01*
X185765114Y-125142857D01*
X185765114Y-125492857D01*
X185767996Y-125522121D01*
X185790394Y-125576193D01*
X185831778Y-125617577D01*
X185885850Y-125639975D01*
X185944378Y-125639975D01*
X185998450Y-125617577D01*
X186039834Y-125576193D01*
X186062232Y-125522121D01*
X186065114Y-125492857D01*
X186065114Y-125142857D01*
X186550828Y-125142857D01*
X186550828Y-125707143D01*
X186553710Y-125736407D01*
X186576108Y-125790479D01*
X186617492Y-125831863D01*
X186671564Y-125854261D01*
X186730092Y-125854261D01*
X186784164Y-125831863D01*
X186825548Y-125790479D01*
X186847946Y-125736407D01*
X186850828Y-125707143D01*
X186850828Y-124992857D01*
X186847946Y-124963593D01*
X186825548Y-124909521D01*
X186784164Y-124868137D01*
X186730092Y-124845739D01*
X186700828Y-124842857D01*
X185200828Y-124842857D01*
X185171564Y-124845739D01*
X185117492Y-124868137D01*
X185076108Y-124909521D01*
X185053710Y-124963593D01*
X185050828Y-124992857D01*
X182469245Y-124992857D01*
X182469245Y-123921429D01*
X185050828Y-123921429D01*
X185050828Y-124135715D01*
X185053710Y-124164979D01*
X185055773Y-124169959D01*
X185056155Y-124175334D01*
X185066664Y-124202797D01*
X185138093Y-124345654D01*
X185153758Y-124370540D01*
X185197973Y-124408886D01*
X185253496Y-124427394D01*
X185311876Y-124423245D01*
X185364225Y-124397071D01*
X185402572Y-124352855D01*
X185421079Y-124297333D01*
X185416930Y-124238953D01*
X185406421Y-124211489D01*
X185350828Y-124100304D01*
X185350828Y-123945769D01*
X185403361Y-123788170D01*
X185503968Y-123687563D01*
X185610327Y-123634384D01*
X185862149Y-123571429D01*
X186039507Y-123571429D01*
X186291328Y-123634383D01*
X186397688Y-123687564D01*
X186498294Y-123788169D01*
X186550828Y-123945771D01*
X186550828Y-124039943D01*
X186498294Y-124197545D01*
X186495840Y-124200000D01*
X186207971Y-124200000D01*
X186207971Y-124064286D01*
X186205089Y-124035022D01*
X186182691Y-123980950D01*
X186141307Y-123939566D01*
X186087235Y-123917168D01*
X186028707Y-123917168D01*
X185974635Y-123939566D01*
X185933251Y-123980950D01*
X185910853Y-124035022D01*
X185907971Y-124064286D01*
X185907971Y-124350000D01*
X185910853Y-124379262D01*
X185910853Y-124379264D01*
X185933251Y-124433336D01*
X185974635Y-124474720D01*
X186028707Y-124497118D01*
X186057971Y-124500000D01*
X186557971Y-124500000D01*
X186587235Y-124497118D01*
X186641307Y-124474720D01*
X186641310Y-124474716D01*
X186664036Y-124456067D01*
X186735465Y-124384639D01*
X186754120Y-124361908D01*
X186756181Y-124356931D01*
X186759715Y-124352857D01*
X186771703Y-124326006D01*
X186843131Y-124111720D01*
X186846430Y-124097207D01*
X186847946Y-124093550D01*
X186848468Y-124088247D01*
X186849651Y-124083046D01*
X186849369Y-124079091D01*
X186850828Y-124064286D01*
X186850828Y-123921429D01*
X186849369Y-123906623D01*
X186849651Y-123902669D01*
X186848468Y-123897467D01*
X186847946Y-123892165D01*
X186846430Y-123888507D01*
X186843131Y-123873995D01*
X186771703Y-123659709D01*
X186759715Y-123632858D01*
X186756183Y-123628786D01*
X186754121Y-123623807D01*
X186735466Y-123601077D01*
X186592608Y-123458220D01*
X186581106Y-123448780D01*
X186578510Y-123445787D01*
X186573996Y-123442946D01*
X186569877Y-123439565D01*
X186566217Y-123438049D01*
X186553624Y-123430122D01*
X186410767Y-123358693D01*
X186408626Y-123357873D01*
X186407756Y-123357229D01*
X186395478Y-123352842D01*
X186383304Y-123348184D01*
X186382223Y-123348107D01*
X186380065Y-123347336D01*
X186094351Y-123275908D01*
X186089279Y-123275158D01*
X186087235Y-123274311D01*
X186076212Y-123273225D01*
X186065262Y-123271606D01*
X186063074Y-123271931D01*
X186057971Y-123271429D01*
X185843685Y-123271429D01*
X185838581Y-123271931D01*
X185836394Y-123271606D01*
X185825443Y-123273225D01*
X185814421Y-123274311D01*
X185812376Y-123275158D01*
X185807305Y-123275908D01*
X185521591Y-123347336D01*
X185519432Y-123348107D01*
X185518352Y-123348184D01*
X185506171Y-123352844D01*
X185493900Y-123357229D01*
X185493030Y-123357873D01*
X185490888Y-123358693D01*
X185348032Y-123430122D01*
X185335440Y-123438048D01*
X185331778Y-123439565D01*
X185327655Y-123442948D01*
X185323146Y-123445787D01*
X185320550Y-123448779D01*
X185309048Y-123458220D01*
X185166191Y-123601077D01*
X185147536Y-123623808D01*
X185145473Y-123628787D01*
X185141943Y-123632858D01*
X185129954Y-123659709D01*
X185058526Y-123873995D01*
X185055227Y-123888502D01*
X185053710Y-123892165D01*
X185053187Y-123897473D01*
X185052006Y-123902668D01*
X185052286Y-123906617D01*
X185050828Y-123921429D01*
X182469245Y-123921429D01*
X182469245Y-122999307D01*
X182638794Y-122999307D01*
X182638794Y-123057835D01*
X182661192Y-123111907D01*
X182702576Y-123153291D01*
X182756648Y-123175689D01*
X182785912Y-123178571D01*
X184135912Y-123178571D01*
X184135912Y-123742857D01*
X184138794Y-123772121D01*
X184161192Y-123826193D01*
X184202576Y-123867577D01*
X184256648Y-123889975D01*
X184315176Y-123889975D01*
X184369248Y-123867577D01*
X184410632Y-123826193D01*
X184433030Y-123772121D01*
X184435912Y-123742857D01*
X184435912Y-123028571D01*
X184433030Y-122999307D01*
X184410632Y-122945235D01*
X184369248Y-122903851D01*
X184315176Y-122881453D01*
X184285912Y-122878571D01*
X182785912Y-122878571D01*
X182756648Y-122881453D01*
X182702576Y-122903851D01*
X182661192Y-122945235D01*
X182638794Y-122999307D01*
X182469245Y-122999307D01*
X182469245Y-121742857D01*
X182635912Y-121742857D01*
X182635912Y-122028571D01*
X182638794Y-122057835D01*
X182640857Y-122062815D01*
X182641239Y-122068190D01*
X182651748Y-122095653D01*
X182723177Y-122238510D01*
X182731104Y-122251103D01*
X182732620Y-122254763D01*
X182736001Y-122258882D01*
X182738842Y-122263396D01*
X182741835Y-122265992D01*
X182751275Y-122277494D01*
X182894132Y-122420351D01*
X182916862Y-122439006D01*
X182927165Y-122443273D01*
X182936126Y-122449913D01*
X182963817Y-122459806D01*
X183249531Y-122531235D01*
X183254603Y-122531985D01*
X183256648Y-122532832D01*
X183267667Y-122533917D01*
X183278620Y-122535537D01*
X183280808Y-122535211D01*
X183285912Y-122535714D01*
X183785912Y-122535714D01*
X183791015Y-122535211D01*
X183793203Y-122535537D01*
X183804154Y-122533917D01*
X183815176Y-122532832D01*
X183817220Y-122531985D01*
X183822293Y-122531235D01*
X184108006Y-122459806D01*
X184135697Y-122449913D01*
X184144657Y-122443273D01*
X184154961Y-122439006D01*
X184177692Y-122420351D01*
X184320550Y-122277494D01*
X184329993Y-122265987D01*
X184332983Y-122263395D01*
X184335819Y-122258889D01*
X184339205Y-122254764D01*
X184340722Y-122251100D01*
X184348648Y-122238510D01*
X184420076Y-122095652D01*
X184430586Y-122068189D01*
X184430967Y-122062813D01*
X184433030Y-122057835D01*
X184435912Y-122028571D01*
X184435912Y-121931905D01*
X185051194Y-121931905D01*
X185053710Y-121941129D01*
X185053710Y-121950692D01*
X185061345Y-121969124D01*
X185066594Y-121988369D01*
X185072448Y-121995928D01*
X185076108Y-122004764D01*
X185090215Y-122018871D01*
X185102429Y-122034643D01*
X185114692Y-122043348D01*
X185117492Y-122046148D01*
X185120239Y-122047286D01*
X185126407Y-122051664D01*
X186135993Y-122628571D01*
X185200828Y-122628571D01*
X185171564Y-122631453D01*
X185117492Y-122653851D01*
X185076108Y-122695235D01*
X185053710Y-122749307D01*
X185053710Y-122807835D01*
X185076108Y-122861907D01*
X185117492Y-122903291D01*
X185171564Y-122925689D01*
X185200828Y-122928571D01*
X186700828Y-122928571D01*
X186708354Y-122927829D01*
X186711306Y-122928205D01*
X186715127Y-122927162D01*
X186730092Y-122925689D01*
X186748524Y-122918053D01*
X186767769Y-122912805D01*
X186775328Y-122906950D01*
X186784164Y-122903291D01*
X186798271Y-122889183D01*
X186814043Y-122876970D01*
X186818787Y-122868667D01*
X186825548Y-122861907D01*
X186833182Y-122843476D01*
X186843081Y-122826154D01*
X186844286Y-122816668D01*
X186847946Y-122807835D01*
X186847946Y-122787885D01*
X186850462Y-122768094D01*
X186847946Y-122758868D01*
X186847946Y-122749307D01*
X186840312Y-122730878D01*
X186835063Y-122711630D01*
X186829206Y-122704068D01*
X186825548Y-122695235D01*
X186811442Y-122681129D01*
X186799227Y-122665356D01*
X186786963Y-122656650D01*
X186784164Y-122653851D01*
X186781416Y-122652712D01*
X186775249Y-122648335D01*
X185765662Y-122071428D01*
X186700828Y-122071428D01*
X186730092Y-122068546D01*
X186784164Y-122046148D01*
X186825548Y-122004764D01*
X186847946Y-121950692D01*
X186847946Y-121892164D01*
X186825548Y-121838092D01*
X186784164Y-121796708D01*
X186730092Y-121774310D01*
X186700828Y-121771428D01*
X185200828Y-121771428D01*
X185193302Y-121772169D01*
X185190351Y-121771794D01*
X185186530Y-121772836D01*
X185171564Y-121774310D01*
X185153131Y-121781945D01*
X185133887Y-121787194D01*
X185126327Y-121793048D01*
X185117492Y-121796708D01*
X185103384Y-121810815D01*
X185087613Y-121823029D01*
X185082868Y-121831331D01*
X185076108Y-121838092D01*
X185068473Y-121856522D01*
X185058575Y-121873845D01*
X185057369Y-121883330D01*
X185053710Y-121892164D01*
X185053710Y-121912113D01*
X185051194Y-121931905D01*
X184435912Y-121931905D01*
X184435912Y-121742857D01*
X184433030Y-121713593D01*
X184430967Y-121708614D01*
X184430586Y-121703239D01*
X184420076Y-121675776D01*
X184348648Y-121532918D01*
X184340721Y-121520326D01*
X184339205Y-121516665D01*
X184335821Y-121512542D01*
X184332983Y-121508033D01*
X184329991Y-121505438D01*
X184320550Y-121493934D01*
X184177692Y-121351076D01*
X184154961Y-121332421D01*
X184144657Y-121328153D01*
X184135697Y-121321514D01*
X184108006Y-121311621D01*
X183822292Y-121240193D01*
X183817220Y-121239443D01*
X183815176Y-121238596D01*
X183804153Y-121237510D01*
X183793203Y-121235891D01*
X183791015Y-121236216D01*
X183785912Y-121235714D01*
X183285912Y-121235714D01*
X183280808Y-121236216D01*
X183278621Y-121235891D01*
X183267670Y-121237510D01*
X183256648Y-121238596D01*
X183254603Y-121239443D01*
X183249532Y-121240193D01*
X182963818Y-121311621D01*
X182936127Y-121321514D01*
X182927167Y-121328152D01*
X182916862Y-121332421D01*
X182894132Y-121351076D01*
X182751275Y-121493934D01*
X182741835Y-121505435D01*
X182738842Y-121508032D01*
X182736001Y-121512545D01*
X182732620Y-121516665D01*
X182731104Y-121520324D01*
X182723177Y-121532918D01*
X182651748Y-121675775D01*
X182641239Y-121703238D01*
X182640857Y-121708612D01*
X182638794Y-121713593D01*
X182635912Y-121742857D01*
X182469245Y-121742857D01*
X182469245Y-121177878D01*
X185053710Y-121177878D01*
X185053710Y-121236406D01*
X185076108Y-121290478D01*
X185117492Y-121331862D01*
X185171564Y-121354260D01*
X185200828Y-121357142D01*
X186700828Y-121357142D01*
X186730092Y-121354260D01*
X186784164Y-121331862D01*
X186825548Y-121290478D01*
X186847946Y-121236406D01*
X186847946Y-121177878D01*
X186825548Y-121123806D01*
X186784164Y-121082422D01*
X186730092Y-121060024D01*
X186700828Y-121057142D01*
X185200828Y-121057142D01*
X185171564Y-121060024D01*
X185117492Y-121082422D01*
X185076108Y-121123806D01*
X185053710Y-121177878D01*
X182469245Y-121177878D01*
X182469245Y-119957142D01*
X182635912Y-119957142D01*
X182635912Y-120528571D01*
X182638794Y-120557835D01*
X182640857Y-120562815D01*
X182641239Y-120568190D01*
X182651748Y-120595653D01*
X182723177Y-120738510D01*
X182731105Y-120751105D01*
X182732620Y-120754762D01*
X182735999Y-120758879D01*
X182738842Y-120763396D01*
X182741836Y-120765993D01*
X182751274Y-120777493D01*
X182822702Y-120848922D01*
X182834207Y-120858364D01*
X182836802Y-120861356D01*
X182841312Y-120864195D01*
X182845433Y-120867577D01*
X182849092Y-120869092D01*
X182861687Y-120877021D01*
X183004545Y-120948449D01*
X183032008Y-120958959D01*
X183037383Y-120959340D01*
X183042362Y-120961403D01*
X183071626Y-120964285D01*
X183285912Y-120964285D01*
X183315176Y-120961403D01*
X183320154Y-120959340D01*
X183325530Y-120958959D01*
X183352994Y-120948449D01*
X183495851Y-120877021D01*
X183508444Y-120869093D01*
X183512104Y-120867578D01*
X183516223Y-120864196D01*
X183520737Y-120861356D01*
X183523333Y-120858362D01*
X183534835Y-120848923D01*
X183606264Y-120777494D01*
X183615705Y-120765989D01*
X183618697Y-120763395D01*
X183621535Y-120758885D01*
X183624919Y-120754763D01*
X183626435Y-120751101D01*
X183634362Y-120738510D01*
X183705790Y-120595652D01*
X183707104Y-120592217D01*
X184199893Y-120937170D01*
X184225519Y-120951591D01*
X184282661Y-120964250D01*
X184340297Y-120954079D01*
X184389654Y-120922626D01*
X184423218Y-120874678D01*
X184435877Y-120817536D01*
X184425706Y-120759900D01*
X184394253Y-120710543D01*
X184371931Y-120691400D01*
X183721626Y-120236186D01*
X183721626Y-120107142D01*
X184285912Y-120107142D01*
X184315176Y-120104260D01*
X184369248Y-120081862D01*
X184410632Y-120040478D01*
X184433030Y-119986406D01*
X184433030Y-119927878D01*
X184430358Y-119921428D01*
X185050828Y-119921428D01*
X185050828Y-120635714D01*
X185053710Y-120664978D01*
X185076108Y-120719050D01*
X185117492Y-120760434D01*
X185171564Y-120782832D01*
X185230092Y-120782832D01*
X185284164Y-120760434D01*
X185325548Y-120719050D01*
X185347946Y-120664978D01*
X185350828Y-120635714D01*
X185350828Y-120071428D01*
X185765114Y-120071428D01*
X185765114Y-120421428D01*
X185767996Y-120450692D01*
X185790394Y-120504764D01*
X185831778Y-120546148D01*
X185885850Y-120568546D01*
X185944378Y-120568546D01*
X185998450Y-120546148D01*
X186039834Y-120504764D01*
X186062232Y-120450692D01*
X186065114Y-120421428D01*
X186065114Y-120071428D01*
X186700828Y-120071428D01*
X186730092Y-120068546D01*
X186784164Y-120046148D01*
X186825548Y-120004764D01*
X186847946Y-119950692D01*
X186847946Y-119892164D01*
X186825548Y-119838092D01*
X186784164Y-119796708D01*
X186730092Y-119774310D01*
X186700828Y-119771428D01*
X185200828Y-119771428D01*
X185171564Y-119774310D01*
X185117492Y-119796708D01*
X185076108Y-119838092D01*
X185053710Y-119892164D01*
X185050828Y-119921428D01*
X184430358Y-119921428D01*
X184410632Y-119873806D01*
X184369248Y-119832422D01*
X184315176Y-119810024D01*
X184285912Y-119807142D01*
X182785912Y-119807142D01*
X182756648Y-119810024D01*
X182702576Y-119832422D01*
X182661192Y-119873806D01*
X182638794Y-119927878D01*
X182635912Y-119957142D01*
X182469245Y-119957142D01*
X182469245Y-118600000D01*
X182635912Y-118600000D01*
X182635912Y-119457143D01*
X182638794Y-119486407D01*
X182661192Y-119540479D01*
X182702576Y-119581863D01*
X182756648Y-119604261D01*
X182815176Y-119604261D01*
X182869248Y-119581863D01*
X182910632Y-119540479D01*
X182933030Y-119486407D01*
X182935912Y-119457143D01*
X182935912Y-119178571D01*
X184285912Y-119178571D01*
X184315176Y-119175689D01*
X184369248Y-119153291D01*
X184410632Y-119111907D01*
X184433030Y-119057835D01*
X184433030Y-118999307D01*
X184410632Y-118945235D01*
X184369248Y-118903851D01*
X184315176Y-118881453D01*
X184285912Y-118878571D01*
X182935912Y-118878571D01*
X182935912Y-118600000D01*
X182933030Y-118570736D01*
X182910632Y-118516664D01*
X182869248Y-118475280D01*
X182815176Y-118452882D01*
X182756648Y-118452882D01*
X182702576Y-118475280D01*
X182661192Y-118516664D01*
X182638794Y-118570736D01*
X182635912Y-118600000D01*
X182469245Y-118600000D01*
X182469245Y-117253333D01*
X182636278Y-117253333D01*
X182638794Y-117262557D01*
X182638794Y-117272120D01*
X182646429Y-117290552D01*
X182651678Y-117309797D01*
X182657532Y-117317356D01*
X182661192Y-117326192D01*
X182675299Y-117340299D01*
X182687513Y-117356071D01*
X182699776Y-117364776D01*
X182702576Y-117367576D01*
X182705323Y-117368714D01*
X182711491Y-117373092D01*
X183721077Y-117949999D01*
X182785912Y-117949999D01*
X182756648Y-117952881D01*
X182702576Y-117975279D01*
X182661192Y-118016663D01*
X182638794Y-118070735D01*
X182638794Y-118129263D01*
X182661192Y-118183335D01*
X182702576Y-118224719D01*
X182756648Y-118247117D01*
X182785912Y-118249999D01*
X184285912Y-118249999D01*
X184293438Y-118249257D01*
X184296390Y-118249633D01*
X184300211Y-118248590D01*
X184315176Y-118247117D01*
X184333608Y-118239481D01*
X184352853Y-118234233D01*
X184360412Y-118228378D01*
X184369248Y-118224719D01*
X184383355Y-118210611D01*
X184399127Y-118198398D01*
X184403871Y-118190095D01*
X184410632Y-118183335D01*
X184418266Y-118164904D01*
X184428165Y-118147582D01*
X184429370Y-118138096D01*
X184433030Y-118129263D01*
X184433030Y-118109313D01*
X184435546Y-118089522D01*
X184433030Y-118080296D01*
X184433030Y-118070735D01*
X184430358Y-118064285D01*
X185979400Y-118064285D01*
X185979400Y-119207143D01*
X185982282Y-119236407D01*
X186004680Y-119290479D01*
X186046064Y-119331863D01*
X186100136Y-119354261D01*
X186158664Y-119354261D01*
X186212736Y-119331863D01*
X186254120Y-119290479D01*
X186276518Y-119236407D01*
X186279400Y-119207143D01*
X186279400Y-118064285D01*
X186276518Y-118035021D01*
X186254120Y-117980949D01*
X186212736Y-117939565D01*
X186158664Y-117917167D01*
X186100136Y-117917167D01*
X186046064Y-117939565D01*
X186004680Y-117980949D01*
X185982282Y-118035021D01*
X185979400Y-118064285D01*
X184430358Y-118064285D01*
X184425396Y-118052306D01*
X184420147Y-118033058D01*
X184414290Y-118025496D01*
X184410632Y-118016663D01*
X184396526Y-118002557D01*
X184384311Y-117986784D01*
X184372047Y-117978078D01*
X184369248Y-117975279D01*
X184366500Y-117974140D01*
X184360333Y-117969763D01*
X183350746Y-117392856D01*
X184285912Y-117392856D01*
X184315176Y-117389974D01*
X184369248Y-117367576D01*
X184410632Y-117326192D01*
X184433030Y-117272120D01*
X184433030Y-117213592D01*
X184410632Y-117159520D01*
X184369248Y-117118136D01*
X184315176Y-117095738D01*
X184285912Y-117092856D01*
X182785912Y-117092856D01*
X182778386Y-117093597D01*
X182775435Y-117093222D01*
X182771614Y-117094264D01*
X182756648Y-117095738D01*
X182738215Y-117103373D01*
X182718971Y-117108622D01*
X182711411Y-117114476D01*
X182702576Y-117118136D01*
X182688468Y-117132243D01*
X182672697Y-117144457D01*
X182667952Y-117152759D01*
X182661192Y-117159520D01*
X182653557Y-117177950D01*
X182643659Y-117195273D01*
X182642453Y-117204758D01*
X182638794Y-117213592D01*
X182638794Y-117233541D01*
X182636278Y-117253333D01*
X182469245Y-117253333D01*
X182469245Y-115957142D01*
X182635912Y-115957142D01*
X182635912Y-116242856D01*
X182638794Y-116272120D01*
X182640857Y-116277100D01*
X182641239Y-116282475D01*
X182651748Y-116309938D01*
X182723177Y-116452795D01*
X182731104Y-116465388D01*
X182732620Y-116469048D01*
X182736001Y-116473167D01*
X182738842Y-116477681D01*
X182741835Y-116480277D01*
X182751275Y-116491779D01*
X182894132Y-116634636D01*
X182916862Y-116653291D01*
X182927165Y-116657558D01*
X182936126Y-116664198D01*
X182963817Y-116674091D01*
X183249531Y-116745520D01*
X183254603Y-116746270D01*
X183256648Y-116747117D01*
X183267667Y-116748202D01*
X183278620Y-116749822D01*
X183280808Y-116749496D01*
X183285912Y-116749999D01*
X183785912Y-116749999D01*
X183791015Y-116749496D01*
X183793203Y-116749822D01*
X183804154Y-116748202D01*
X183815176Y-116747117D01*
X183817220Y-116746270D01*
X183822293Y-116745520D01*
X184108006Y-116674091D01*
X184135697Y-116664198D01*
X184144657Y-116657558D01*
X184154961Y-116653291D01*
X184177692Y-116634636D01*
X184248043Y-116564285D01*
X185050828Y-116564285D01*
X185050828Y-117064285D01*
X185053710Y-117093549D01*
X185055771Y-117098526D01*
X185056154Y-117103904D01*
X185066664Y-117131367D01*
X185138093Y-117274225D01*
X185146020Y-117286818D01*
X185147536Y-117290478D01*
X185150917Y-117294597D01*
X185153758Y-117299111D01*
X185156751Y-117301707D01*
X185166191Y-117313209D01*
X185237619Y-117384637D01*
X185249121Y-117394077D01*
X185251717Y-117397070D01*
X185256226Y-117399908D01*
X185260349Y-117403292D01*
X185264011Y-117404808D01*
X185276603Y-117412735D01*
X185419459Y-117484164D01*
X185446923Y-117494673D01*
X185452297Y-117495054D01*
X185457278Y-117497118D01*
X185486542Y-117500000D01*
X185629400Y-117500000D01*
X185658664Y-117497118D01*
X185663644Y-117495054D01*
X185669019Y-117494673D01*
X185696482Y-117484164D01*
X185839339Y-117412735D01*
X185851932Y-117404807D01*
X185855592Y-117403292D01*
X185859711Y-117399910D01*
X185864225Y-117397070D01*
X185866821Y-117394076D01*
X185878323Y-117384637D01*
X185879505Y-117383454D01*
X185880476Y-117384637D01*
X185951905Y-117456066D01*
X185963409Y-117465507D01*
X185966004Y-117468499D01*
X185970513Y-117471337D01*
X185974636Y-117474721D01*
X185978297Y-117476237D01*
X185990889Y-117484164D01*
X186133747Y-117555592D01*
X186161210Y-117566102D01*
X186166585Y-117566483D01*
X186171564Y-117568546D01*
X186200828Y-117571428D01*
X186415114Y-117571428D01*
X186444378Y-117568546D01*
X186449356Y-117566483D01*
X186454732Y-117566102D01*
X186482196Y-117555592D01*
X186625053Y-117484164D01*
X186637646Y-117476236D01*
X186641306Y-117474721D01*
X186645425Y-117471339D01*
X186649939Y-117468499D01*
X186652535Y-117465505D01*
X186664037Y-117456066D01*
X186735466Y-117384637D01*
X186744907Y-117373132D01*
X186747899Y-117370538D01*
X186750737Y-117366028D01*
X186754121Y-117361906D01*
X186755637Y-117358244D01*
X186763564Y-117345653D01*
X186834992Y-117202795D01*
X186845502Y-117175332D01*
X186845883Y-117169956D01*
X186847946Y-117164978D01*
X186850828Y-117135714D01*
X186850828Y-116564285D01*
X186847946Y-116535021D01*
X186825548Y-116480949D01*
X186784164Y-116439565D01*
X186730092Y-116417167D01*
X186700828Y-116414285D01*
X185200828Y-116414285D01*
X185171564Y-116417167D01*
X185117492Y-116439565D01*
X185076108Y-116480949D01*
X185053710Y-116535021D01*
X185050828Y-116564285D01*
X184248043Y-116564285D01*
X184320550Y-116491779D01*
X184329993Y-116480272D01*
X184332983Y-116477680D01*
X184335819Y-116473174D01*
X184339205Y-116469049D01*
X184340722Y-116465385D01*
X184348648Y-116452795D01*
X184420076Y-116309937D01*
X184430586Y-116282474D01*
X184430967Y-116277098D01*
X184433030Y-116272120D01*
X184435912Y-116242856D01*
X184435912Y-115957142D01*
X184433030Y-115927878D01*
X184430967Y-115922899D01*
X184430586Y-115917524D01*
X184420076Y-115890061D01*
X184348648Y-115747203D01*
X184340721Y-115734611D01*
X184339205Y-115730950D01*
X184335821Y-115726827D01*
X184332983Y-115722318D01*
X184329991Y-115719723D01*
X184320550Y-115708219D01*
X184177692Y-115565361D01*
X184154961Y-115546706D01*
X184144657Y-115542438D01*
X184135697Y-115535799D01*
X184108006Y-115525906D01*
X183822292Y-115454478D01*
X183817220Y-115453728D01*
X183815176Y-115452881D01*
X183804153Y-115451795D01*
X183793203Y-115450176D01*
X183791015Y-115450501D01*
X183785912Y-115449999D01*
X183285912Y-115449999D01*
X183280808Y-115450501D01*
X183278621Y-115450176D01*
X183267670Y-115451795D01*
X183256648Y-115452881D01*
X183254603Y-115453728D01*
X183249532Y-115454478D01*
X182963818Y-115525906D01*
X182936127Y-115535799D01*
X182927167Y-115542437D01*
X182916862Y-115546706D01*
X182894132Y-115565361D01*
X182751275Y-115708219D01*
X182741835Y-115719720D01*
X182738842Y-115722317D01*
X182736001Y-115726830D01*
X182732620Y-115730950D01*
X182731104Y-115734609D01*
X182723177Y-115747203D01*
X182651748Y-115890060D01*
X182641239Y-115917523D01*
X182640857Y-115922897D01*
X182638794Y-115927878D01*
X182635912Y-115957142D01*
X182469245Y-115957142D01*
X182469245Y-114599999D01*
X182635912Y-114599999D01*
X182635912Y-114742856D01*
X182637370Y-114757667D01*
X182637090Y-114761617D01*
X182638271Y-114766811D01*
X182638794Y-114772120D01*
X182640311Y-114775782D01*
X182643610Y-114790290D01*
X182715038Y-115004576D01*
X182727027Y-115031427D01*
X182730557Y-115035497D01*
X182732620Y-115040477D01*
X182751275Y-115063208D01*
X182822703Y-115134636D01*
X182845433Y-115153291D01*
X182899506Y-115175687D01*
X182958032Y-115175687D01*
X183012104Y-115153291D01*
X183053490Y-115111905D01*
X183075886Y-115057833D01*
X183075886Y-114999307D01*
X183053490Y-114945234D01*
X183034835Y-114922504D01*
X182988445Y-114876114D01*
X182935912Y-114718515D01*
X182935912Y-114624339D01*
X182988445Y-114466740D01*
X183089052Y-114366133D01*
X183195411Y-114312954D01*
X183447233Y-114249999D01*
X183624591Y-114249999D01*
X183876412Y-114312953D01*
X183982772Y-114366134D01*
X184083378Y-114466739D01*
X184135912Y-114624341D01*
X184135912Y-114718513D01*
X184083378Y-114876115D01*
X184036990Y-114922503D01*
X184018335Y-114945234D01*
X183995937Y-114999306D01*
X183995937Y-115057832D01*
X184018334Y-115111904D01*
X184059719Y-115153290D01*
X184113791Y-115175688D01*
X184172317Y-115175688D01*
X184226389Y-115153291D01*
X184249120Y-115134637D01*
X184320549Y-115063209D01*
X184339204Y-115040478D01*
X184341265Y-115035501D01*
X184344799Y-115031427D01*
X184356787Y-115004576D01*
X184400721Y-114872774D01*
X185052567Y-114872774D01*
X185053710Y-114875917D01*
X185053710Y-114879263D01*
X185063671Y-114903311D01*
X185072568Y-114927777D01*
X185074827Y-114930244D01*
X185076108Y-114933335D01*
X185094505Y-114951732D01*
X185112095Y-114970940D01*
X185116063Y-114973290D01*
X185117492Y-114974719D01*
X185120760Y-114976072D01*
X185137395Y-114985926D01*
X185917550Y-115349999D01*
X185137395Y-115714072D01*
X185120760Y-115723925D01*
X185117492Y-115725279D01*
X185116063Y-115726707D01*
X185112095Y-115729058D01*
X185094505Y-115748265D01*
X185076108Y-115766663D01*
X185074827Y-115769753D01*
X185072568Y-115772221D01*
X185063671Y-115796686D01*
X185053710Y-115820735D01*
X185053710Y-115824080D01*
X185052567Y-115827224D01*
X185053710Y-115853228D01*
X185053710Y-115879263D01*
X185054990Y-115882353D01*
X185055137Y-115885694D01*
X185066147Y-115909289D01*
X185076108Y-115933335D01*
X185078471Y-115935698D01*
X185079887Y-115938732D01*
X185099094Y-115956321D01*
X185117492Y-115974719D01*
X185120582Y-115975999D01*
X185123050Y-115978259D01*
X185147515Y-115987155D01*
X185171564Y-115997117D01*
X185176152Y-115997568D01*
X185178053Y-115998260D01*
X185181591Y-115998104D01*
X185200828Y-115999999D01*
X186700828Y-115999999D01*
X186730092Y-115997117D01*
X186784164Y-115974719D01*
X186825548Y-115933335D01*
X186847946Y-115879263D01*
X186847946Y-115820735D01*
X186825548Y-115766663D01*
X186784164Y-115725279D01*
X186730092Y-115702881D01*
X186700828Y-115699999D01*
X185876962Y-115699999D01*
X186335690Y-115485926D01*
X186346403Y-115479579D01*
X186350035Y-115478259D01*
X186352603Y-115475907D01*
X186360990Y-115470939D01*
X186376380Y-115454133D01*
X186393198Y-115438732D01*
X186396018Y-115432688D01*
X186400517Y-115427776D01*
X186408303Y-115406364D01*
X186417949Y-115385695D01*
X186418241Y-115379033D01*
X186420518Y-115372774D01*
X186419517Y-115349999D01*
X186420518Y-115327224D01*
X186418241Y-115320964D01*
X186417949Y-115314303D01*
X186408303Y-115293633D01*
X186400517Y-115272222D01*
X186396018Y-115267309D01*
X186393198Y-115261266D01*
X186376380Y-115245864D01*
X186360990Y-115229059D01*
X186352603Y-115224090D01*
X186350035Y-115221739D01*
X186346403Y-115220418D01*
X186335690Y-115214072D01*
X185876962Y-114999999D01*
X186700828Y-114999999D01*
X186730092Y-114997117D01*
X186784164Y-114974719D01*
X186825548Y-114933335D01*
X186847946Y-114879263D01*
X186847946Y-114820735D01*
X186825548Y-114766663D01*
X186784164Y-114725279D01*
X186730092Y-114702881D01*
X186700828Y-114699999D01*
X185200828Y-114699999D01*
X185181591Y-114701893D01*
X185178053Y-114701738D01*
X185176152Y-114702429D01*
X185171564Y-114702881D01*
X185147515Y-114712842D01*
X185123050Y-114721739D01*
X185120582Y-114723998D01*
X185117492Y-114725279D01*
X185099094Y-114743676D01*
X185079887Y-114761266D01*
X185078471Y-114764299D01*
X185076108Y-114766663D01*
X185066147Y-114790708D01*
X185055137Y-114814304D01*
X185054990Y-114817644D01*
X185053710Y-114820735D01*
X185053710Y-114846769D01*
X185052567Y-114872774D01*
X184400721Y-114872774D01*
X184428215Y-114790290D01*
X184431514Y-114775777D01*
X184433030Y-114772120D01*
X184433552Y-114766817D01*
X184434735Y-114761616D01*
X184434453Y-114757661D01*
X184435912Y-114742856D01*
X184435912Y-114599999D01*
X184434453Y-114585193D01*
X184434735Y-114581239D01*
X184433552Y-114576037D01*
X184433030Y-114570735D01*
X184431514Y-114567077D01*
X184428215Y-114552565D01*
X184356787Y-114338279D01*
X184344799Y-114311428D01*
X184341267Y-114307356D01*
X184339205Y-114302377D01*
X184320550Y-114279647D01*
X184177692Y-114136790D01*
X184166190Y-114127350D01*
X184163594Y-114124357D01*
X184159080Y-114121516D01*
X184154961Y-114118135D01*
X184151301Y-114116619D01*
X184138708Y-114108692D01*
X183995851Y-114037263D01*
X183993710Y-114036443D01*
X183992840Y-114035799D01*
X183980562Y-114031412D01*
X183968388Y-114026754D01*
X183967307Y-114026677D01*
X183965149Y-114025906D01*
X183679435Y-113954478D01*
X183674363Y-113953728D01*
X183672319Y-113952881D01*
X183661296Y-113951795D01*
X183650346Y-113950176D01*
X183648158Y-113950501D01*
X183643055Y-113949999D01*
X183428769Y-113949999D01*
X183423665Y-113950501D01*
X183421478Y-113950176D01*
X183410527Y-113951795D01*
X183399505Y-113952881D01*
X183397460Y-113953728D01*
X183392389Y-113954478D01*
X183106675Y-114025906D01*
X183104516Y-114026677D01*
X183103436Y-114026754D01*
X183091255Y-114031414D01*
X183078984Y-114035799D01*
X183078114Y-114036443D01*
X183075972Y-114037263D01*
X182933116Y-114108692D01*
X182920524Y-114116618D01*
X182916862Y-114118135D01*
X182912739Y-114121518D01*
X182908230Y-114124357D01*
X182905634Y-114127349D01*
X182894132Y-114136790D01*
X182751275Y-114279647D01*
X182732620Y-114302378D01*
X182730557Y-114307357D01*
X182727027Y-114311428D01*
X182715038Y-114338279D01*
X182643610Y-114552565D01*
X182640311Y-114567072D01*
X182638794Y-114570735D01*
X182638271Y-114576043D01*
X182637090Y-114581238D01*
X182637370Y-114585187D01*
X182635912Y-114599999D01*
X182469245Y-114599999D01*
X182469245Y-113249306D01*
X185053710Y-113249306D01*
X185053710Y-113307834D01*
X185076108Y-113361906D01*
X185117492Y-113403290D01*
X185171564Y-113425688D01*
X185200828Y-113428570D01*
X186379704Y-113428570D01*
X186469117Y-113473277D01*
X186506121Y-113510281D01*
X186550828Y-113599694D01*
X186550828Y-113814589D01*
X186506121Y-113904002D01*
X186469116Y-113941007D01*
X186379704Y-113985713D01*
X185200828Y-113985713D01*
X185171564Y-113988595D01*
X185117492Y-114010993D01*
X185076108Y-114052377D01*
X185053710Y-114106449D01*
X185053710Y-114164977D01*
X185076108Y-114219049D01*
X185117492Y-114260433D01*
X185171564Y-114282831D01*
X185200828Y-114285713D01*
X186415114Y-114285713D01*
X186444378Y-114282831D01*
X186449356Y-114280768D01*
X186454732Y-114280387D01*
X186482196Y-114269877D01*
X186625053Y-114198449D01*
X186637646Y-114190521D01*
X186641306Y-114189006D01*
X186645425Y-114185624D01*
X186649939Y-114182784D01*
X186652535Y-114179790D01*
X186664037Y-114170351D01*
X186735466Y-114098922D01*
X186744907Y-114087417D01*
X186747899Y-114084823D01*
X186750737Y-114080313D01*
X186754121Y-114076191D01*
X186755637Y-114072529D01*
X186763564Y-114059938D01*
X186834992Y-113917080D01*
X186845502Y-113889617D01*
X186845883Y-113884241D01*
X186847946Y-113879263D01*
X186850828Y-113849999D01*
X186850828Y-113564285D01*
X186847946Y-113535021D01*
X186845883Y-113530042D01*
X186845502Y-113524667D01*
X186834992Y-113497204D01*
X186763564Y-113354346D01*
X186755637Y-113341754D01*
X186754121Y-113338093D01*
X186750737Y-113333970D01*
X186747899Y-113329461D01*
X186744907Y-113326866D01*
X186735466Y-113315362D01*
X186664037Y-113243933D01*
X186652535Y-113234493D01*
X186649939Y-113231500D01*
X186645425Y-113228659D01*
X186641306Y-113225278D01*
X186637646Y-113223762D01*
X186625053Y-113215835D01*
X186482196Y-113144406D01*
X186454733Y-113133897D01*
X186449358Y-113133515D01*
X186444378Y-113131452D01*
X186415114Y-113128570D01*
X185200828Y-113128570D01*
X185171564Y-113131452D01*
X185117492Y-113153850D01*
X185076108Y-113195234D01*
X185053710Y-113249306D01*
X182469245Y-113249306D01*
X182469245Y-111677877D01*
X185053710Y-111677877D01*
X185053710Y-111736405D01*
X185076108Y-111790477D01*
X185117492Y-111831861D01*
X185171564Y-111854259D01*
X185200828Y-111857141D01*
X185765114Y-111857141D01*
X185765114Y-112414284D01*
X185200828Y-112414284D01*
X185171564Y-112417166D01*
X185117492Y-112439564D01*
X185076108Y-112480948D01*
X185053710Y-112535020D01*
X185053710Y-112593548D01*
X185076108Y-112647620D01*
X185117492Y-112689004D01*
X185171564Y-112711402D01*
X185200828Y-112714284D01*
X186700828Y-112714284D01*
X186730092Y-112711402D01*
X186784164Y-112689004D01*
X186825548Y-112647620D01*
X186847946Y-112593548D01*
X186847946Y-112535020D01*
X186825548Y-112480948D01*
X186784164Y-112439564D01*
X186730092Y-112417166D01*
X186700828Y-112414284D01*
X186065114Y-112414284D01*
X186065114Y-111857141D01*
X186700828Y-111857141D01*
X186730092Y-111854259D01*
X186784164Y-111831861D01*
X186825548Y-111790477D01*
X186847946Y-111736405D01*
X186847946Y-111677877D01*
X186825548Y-111623805D01*
X186784164Y-111582421D01*
X186730092Y-111560023D01*
X186700828Y-111557141D01*
X185200828Y-111557141D01*
X185171564Y-111560023D01*
X185117492Y-111582421D01*
X185076108Y-111623805D01*
X185053710Y-111677877D01*
X182469245Y-111677877D01*
X182469245Y-110349999D01*
X185050828Y-110349999D01*
X185050828Y-111207142D01*
X185053710Y-111236406D01*
X185076108Y-111290478D01*
X185117492Y-111331862D01*
X185171564Y-111354260D01*
X185230092Y-111354260D01*
X185284164Y-111331862D01*
X185325548Y-111290478D01*
X185347946Y-111236406D01*
X185350828Y-111207142D01*
X185350828Y-110928570D01*
X186700828Y-110928570D01*
X186730092Y-110925688D01*
X186784164Y-110903290D01*
X186825548Y-110861906D01*
X186847946Y-110807834D01*
X186847946Y-110749306D01*
X186825548Y-110695234D01*
X186784164Y-110653850D01*
X186730092Y-110631452D01*
X186700828Y-110628570D01*
X185350828Y-110628570D01*
X185350828Y-110349999D01*
X185347946Y-110320735D01*
X185325548Y-110266663D01*
X185284164Y-110225279D01*
X185230092Y-110202881D01*
X185171564Y-110202881D01*
X185117492Y-110225279D01*
X185076108Y-110266663D01*
X185053710Y-110320735D01*
X185050828Y-110349999D01*
X182469245Y-110349999D01*
X182469245Y-110036214D01*
X187017495Y-110036214D01*
X187017495Y-127523810D01*
G37*
D11*
X144639411Y-121367438D02*
X144734649Y-121319819D01*
X144734649Y-121319819D02*
X144877506Y-121319819D01*
X144877506Y-121319819D02*
X145020363Y-121367438D01*
X145020363Y-121367438D02*
X145115601Y-121462676D01*
X145115601Y-121462676D02*
X145163220Y-121557914D01*
X145163220Y-121557914D02*
X145210839Y-121748390D01*
X145210839Y-121748390D02*
X145210839Y-121891247D01*
X145210839Y-121891247D02*
X145163220Y-122081723D01*
X145163220Y-122081723D02*
X145115601Y-122176961D01*
X145115601Y-122176961D02*
X145020363Y-122272200D01*
X145020363Y-122272200D02*
X144877506Y-122319819D01*
X144877506Y-122319819D02*
X144782268Y-122319819D01*
X144782268Y-122319819D02*
X144639411Y-122272200D01*
X144639411Y-122272200D02*
X144591792Y-122224580D01*
X144591792Y-122224580D02*
X144591792Y-121891247D01*
X144591792Y-121891247D02*
X144782268Y-121891247D01*
X144163220Y-122319819D02*
X144163220Y-121319819D01*
X144163220Y-121319819D02*
X143591792Y-122319819D01*
X143591792Y-122319819D02*
X143591792Y-121319819D01*
X143115601Y-122319819D02*
X143115601Y-121319819D01*
X143115601Y-121319819D02*
X142877506Y-121319819D01*
X142877506Y-121319819D02*
X142734649Y-121367438D01*
X142734649Y-121367438D02*
X142639411Y-121462676D01*
X142639411Y-121462676D02*
X142591792Y-121557914D01*
X142591792Y-121557914D02*
X142544173Y-121748390D01*
X142544173Y-121748390D02*
X142544173Y-121891247D01*
X142544173Y-121891247D02*
X142591792Y-122081723D01*
X142591792Y-122081723D02*
X142639411Y-122176961D01*
X142639411Y-122176961D02*
X142734649Y-122272200D01*
X142734649Y-122272200D02*
X142877506Y-122319819D01*
X142877506Y-122319819D02*
X143115601Y-122319819D01*
D10*
X184245489Y-144600828D02*
X184245489Y-145815114D01*
X184245489Y-145815114D02*
X184174060Y-145957971D01*
X184174060Y-145957971D02*
X184102632Y-146029400D01*
X184102632Y-146029400D02*
X183959774Y-146100828D01*
X183959774Y-146100828D02*
X183674060Y-146100828D01*
X183674060Y-146100828D02*
X183531203Y-146029400D01*
X183531203Y-146029400D02*
X183459774Y-145957971D01*
X183459774Y-145957971D02*
X183388346Y-145815114D01*
X183388346Y-145815114D02*
X183388346Y-144600828D01*
X182674060Y-146100828D02*
X182674060Y-144600828D01*
X182674060Y-144600828D02*
X181816917Y-146100828D01*
X181816917Y-146100828D02*
X181816917Y-144600828D01*
X180388345Y-146100828D02*
X181102631Y-146100828D01*
X181102631Y-146100828D02*
X181102631Y-144600828D01*
X179602630Y-144600828D02*
X179316916Y-144600828D01*
X179316916Y-144600828D02*
X179174059Y-144672257D01*
X179174059Y-144672257D02*
X179031202Y-144815114D01*
X179031202Y-144815114D02*
X178959773Y-145100828D01*
X178959773Y-145100828D02*
X178959773Y-145600828D01*
X178959773Y-145600828D02*
X179031202Y-145886542D01*
X179031202Y-145886542D02*
X179174059Y-146029400D01*
X179174059Y-146029400D02*
X179316916Y-146100828D01*
X179316916Y-146100828D02*
X179602630Y-146100828D01*
X179602630Y-146100828D02*
X179745488Y-146029400D01*
X179745488Y-146029400D02*
X179888345Y-145886542D01*
X179888345Y-145886542D02*
X179959773Y-145600828D01*
X179959773Y-145600828D02*
X179959773Y-145100828D01*
X179959773Y-145100828D02*
X179888345Y-144815114D01*
X179888345Y-144815114D02*
X179745488Y-144672257D01*
X179745488Y-144672257D02*
X179602630Y-144600828D01*
X177459773Y-145957971D02*
X177531201Y-146029400D01*
X177531201Y-146029400D02*
X177745487Y-146100828D01*
X177745487Y-146100828D02*
X177888344Y-146100828D01*
X177888344Y-146100828D02*
X178102630Y-146029400D01*
X178102630Y-146029400D02*
X178245487Y-145886542D01*
X178245487Y-145886542D02*
X178316916Y-145743685D01*
X178316916Y-145743685D02*
X178388344Y-145457971D01*
X178388344Y-145457971D02*
X178388344Y-145243685D01*
X178388344Y-145243685D02*
X178316916Y-144957971D01*
X178316916Y-144957971D02*
X178245487Y-144815114D01*
X178245487Y-144815114D02*
X178102630Y-144672257D01*
X178102630Y-144672257D02*
X177888344Y-144600828D01*
X177888344Y-144600828D02*
X177745487Y-144600828D01*
X177745487Y-144600828D02*
X177531201Y-144672257D01*
X177531201Y-144672257D02*
X177459773Y-144743685D01*
X176816916Y-146100828D02*
X176816916Y-144600828D01*
X175959773Y-146100828D02*
X176602630Y-145243685D01*
X175959773Y-144600828D02*
X176816916Y-145457971D01*
D11*
X145558458Y-85719819D02*
X144939411Y-85719819D01*
X144939411Y-85719819D02*
X145272744Y-86100771D01*
X145272744Y-86100771D02*
X145129887Y-86100771D01*
X145129887Y-86100771D02*
X145034649Y-86148390D01*
X145034649Y-86148390D02*
X144987030Y-86196009D01*
X144987030Y-86196009D02*
X144939411Y-86291247D01*
X144939411Y-86291247D02*
X144939411Y-86529342D01*
X144939411Y-86529342D02*
X144987030Y-86624580D01*
X144987030Y-86624580D02*
X145034649Y-86672200D01*
X145034649Y-86672200D02*
X145129887Y-86719819D01*
X145129887Y-86719819D02*
X145415601Y-86719819D01*
X145415601Y-86719819D02*
X145510839Y-86672200D01*
X145510839Y-86672200D02*
X145558458Y-86624580D01*
X144510839Y-86624580D02*
X144463220Y-86672200D01*
X144463220Y-86672200D02*
X144510839Y-86719819D01*
X144510839Y-86719819D02*
X144558458Y-86672200D01*
X144558458Y-86672200D02*
X144510839Y-86624580D01*
X144510839Y-86624580D02*
X144510839Y-86719819D01*
X144129887Y-85719819D02*
X143510840Y-85719819D01*
X143510840Y-85719819D02*
X143844173Y-86100771D01*
X143844173Y-86100771D02*
X143701316Y-86100771D01*
X143701316Y-86100771D02*
X143606078Y-86148390D01*
X143606078Y-86148390D02*
X143558459Y-86196009D01*
X143558459Y-86196009D02*
X143510840Y-86291247D01*
X143510840Y-86291247D02*
X143510840Y-86529342D01*
X143510840Y-86529342D02*
X143558459Y-86624580D01*
X143558459Y-86624580D02*
X143606078Y-86672200D01*
X143606078Y-86672200D02*
X143701316Y-86719819D01*
X143701316Y-86719819D02*
X143987030Y-86719819D01*
X143987030Y-86719819D02*
X144082268Y-86672200D01*
X144082268Y-86672200D02*
X144129887Y-86624580D01*
X143225125Y-85719819D02*
X142891792Y-86719819D01*
X142891792Y-86719819D02*
X142558459Y-85719819D01*
X145163220Y-117319819D02*
X145163220Y-116319819D01*
X145163220Y-116319819D02*
X144829887Y-117034104D01*
X144829887Y-117034104D02*
X144496554Y-116319819D01*
X144496554Y-116319819D02*
X144496554Y-117319819D01*
X143829887Y-116319819D02*
X143639411Y-116319819D01*
X143639411Y-116319819D02*
X143544173Y-116367438D01*
X143544173Y-116367438D02*
X143448935Y-116462676D01*
X143448935Y-116462676D02*
X143401316Y-116653152D01*
X143401316Y-116653152D02*
X143401316Y-116986485D01*
X143401316Y-116986485D02*
X143448935Y-117176961D01*
X143448935Y-117176961D02*
X143544173Y-117272200D01*
X143544173Y-117272200D02*
X143639411Y-117319819D01*
X143639411Y-117319819D02*
X143829887Y-117319819D01*
X143829887Y-117319819D02*
X143925125Y-117272200D01*
X143925125Y-117272200D02*
X144020363Y-117176961D01*
X144020363Y-117176961D02*
X144067982Y-116986485D01*
X144067982Y-116986485D02*
X144067982Y-116653152D01*
X144067982Y-116653152D02*
X144020363Y-116462676D01*
X144020363Y-116462676D02*
X143925125Y-116367438D01*
X143925125Y-116367438D02*
X143829887Y-116319819D01*
X143115601Y-116319819D02*
X142544173Y-116319819D01*
X142829887Y-117319819D02*
X142829887Y-116319819D01*
D10*
X177364285Y-56834885D02*
X177578571Y-56763457D01*
X177578571Y-56763457D02*
X177650000Y-56692028D01*
X177650000Y-56692028D02*
X177721428Y-56549171D01*
X177721428Y-56549171D02*
X177721428Y-56334885D01*
X177721428Y-56334885D02*
X177650000Y-56192028D01*
X177650000Y-56192028D02*
X177578571Y-56120600D01*
X177578571Y-56120600D02*
X177435714Y-56049171D01*
X177435714Y-56049171D02*
X176864285Y-56049171D01*
X176864285Y-56049171D02*
X176864285Y-57549171D01*
X176864285Y-57549171D02*
X177364285Y-57549171D01*
X177364285Y-57549171D02*
X177507143Y-57477742D01*
X177507143Y-57477742D02*
X177578571Y-57406314D01*
X177578571Y-57406314D02*
X177650000Y-57263457D01*
X177650000Y-57263457D02*
X177650000Y-57120600D01*
X177650000Y-57120600D02*
X177578571Y-56977742D01*
X177578571Y-56977742D02*
X177507143Y-56906314D01*
X177507143Y-56906314D02*
X177364285Y-56834885D01*
X177364285Y-56834885D02*
X176864285Y-56834885D01*
X178150000Y-57549171D02*
X179007143Y-57549171D01*
X178578571Y-56049171D02*
X178578571Y-57549171D01*
X180578571Y-56120600D02*
X180792857Y-56049171D01*
X180792857Y-56049171D02*
X181149999Y-56049171D01*
X181149999Y-56049171D02*
X181292857Y-56120600D01*
X181292857Y-56120600D02*
X181364285Y-56192028D01*
X181364285Y-56192028D02*
X181435714Y-56334885D01*
X181435714Y-56334885D02*
X181435714Y-56477742D01*
X181435714Y-56477742D02*
X181364285Y-56620600D01*
X181364285Y-56620600D02*
X181292857Y-56692028D01*
X181292857Y-56692028D02*
X181149999Y-56763457D01*
X181149999Y-56763457D02*
X180864285Y-56834885D01*
X180864285Y-56834885D02*
X180721428Y-56906314D01*
X180721428Y-56906314D02*
X180649999Y-56977742D01*
X180649999Y-56977742D02*
X180578571Y-57120600D01*
X180578571Y-57120600D02*
X180578571Y-57263457D01*
X180578571Y-57263457D02*
X180649999Y-57406314D01*
X180649999Y-57406314D02*
X180721428Y-57477742D01*
X180721428Y-57477742D02*
X180864285Y-57549171D01*
X180864285Y-57549171D02*
X181221428Y-57549171D01*
X181221428Y-57549171D02*
X181435714Y-57477742D01*
X182078570Y-56834885D02*
X182578570Y-56834885D01*
X182792856Y-56049171D02*
X182078570Y-56049171D01*
X182078570Y-56049171D02*
X182078570Y-57549171D01*
X182078570Y-57549171D02*
X182792856Y-57549171D01*
X184149999Y-56049171D02*
X183435713Y-56049171D01*
X183435713Y-56049171D02*
X183435713Y-57549171D01*
X120870996Y-96282126D02*
X121870996Y-96282126D01*
X120870996Y-95639268D02*
X121656710Y-95639268D01*
X121656710Y-95639268D02*
X121799568Y-95710697D01*
X121799568Y-95710697D02*
X121870996Y-95853554D01*
X121870996Y-95853554D02*
X121870996Y-96067840D01*
X121870996Y-96067840D02*
X121799568Y-96210697D01*
X121799568Y-96210697D02*
X121728139Y-96282126D01*
X120299568Y-98067840D02*
X122228139Y-96782126D01*
X121870996Y-99210698D02*
X121085282Y-99210698D01*
X121085282Y-99210698D02*
X120942425Y-99139269D01*
X120942425Y-99139269D02*
X120870996Y-98996412D01*
X120870996Y-98996412D02*
X120870996Y-98710698D01*
X120870996Y-98710698D02*
X120942425Y-98567840D01*
X121799568Y-99210698D02*
X121870996Y-99067840D01*
X121870996Y-99067840D02*
X121870996Y-98710698D01*
X121870996Y-98710698D02*
X121799568Y-98567840D01*
X121799568Y-98567840D02*
X121656710Y-98496412D01*
X121656710Y-98496412D02*
X121513853Y-98496412D01*
X121513853Y-98496412D02*
X121370996Y-98567840D01*
X121370996Y-98567840D02*
X121299568Y-98710698D01*
X121299568Y-98710698D02*
X121299568Y-99067840D01*
X121299568Y-99067840D02*
X121228139Y-99210698D01*
X121870996Y-99924983D02*
X120370996Y-99924983D01*
X121299568Y-100067841D02*
X121870996Y-100496412D01*
X120870996Y-100496412D02*
X121442425Y-99924983D01*
X120370996Y-101782127D02*
X120370996Y-101496412D01*
X120370996Y-101496412D02*
X120442425Y-101353555D01*
X120442425Y-101353555D02*
X120513853Y-101282127D01*
X120513853Y-101282127D02*
X120728139Y-101139269D01*
X120728139Y-101139269D02*
X121013853Y-101067841D01*
X121013853Y-101067841D02*
X121585282Y-101067841D01*
X121585282Y-101067841D02*
X121728139Y-101139269D01*
X121728139Y-101139269D02*
X121799568Y-101210698D01*
X121799568Y-101210698D02*
X121870996Y-101353555D01*
X121870996Y-101353555D02*
X121870996Y-101639269D01*
X121870996Y-101639269D02*
X121799568Y-101782127D01*
X121799568Y-101782127D02*
X121728139Y-101853555D01*
X121728139Y-101853555D02*
X121585282Y-101924984D01*
X121585282Y-101924984D02*
X121228139Y-101924984D01*
X121228139Y-101924984D02*
X121085282Y-101853555D01*
X121085282Y-101853555D02*
X121013853Y-101782127D01*
X121013853Y-101782127D02*
X120942425Y-101639269D01*
X120942425Y-101639269D02*
X120942425Y-101353555D01*
X120942425Y-101353555D02*
X121013853Y-101210698D01*
X121013853Y-101210698D02*
X121085282Y-101139269D01*
X121085282Y-101139269D02*
X121228139Y-101067841D01*
X120370996Y-103210698D02*
X120370996Y-102924983D01*
X120370996Y-102924983D02*
X120442425Y-102782126D01*
X120442425Y-102782126D02*
X120513853Y-102710698D01*
X120513853Y-102710698D02*
X120728139Y-102567840D01*
X120728139Y-102567840D02*
X121013853Y-102496412D01*
X121013853Y-102496412D02*
X121585282Y-102496412D01*
X121585282Y-102496412D02*
X121728139Y-102567840D01*
X121728139Y-102567840D02*
X121799568Y-102639269D01*
X121799568Y-102639269D02*
X121870996Y-102782126D01*
X121870996Y-102782126D02*
X121870996Y-103067840D01*
X121870996Y-103067840D02*
X121799568Y-103210698D01*
X121799568Y-103210698D02*
X121728139Y-103282126D01*
X121728139Y-103282126D02*
X121585282Y-103353555D01*
X121585282Y-103353555D02*
X121228139Y-103353555D01*
X121228139Y-103353555D02*
X121085282Y-103282126D01*
X121085282Y-103282126D02*
X121013853Y-103210698D01*
X121013853Y-103210698D02*
X120942425Y-103067840D01*
X120942425Y-103067840D02*
X120942425Y-102782126D01*
X120942425Y-102782126D02*
X121013853Y-102639269D01*
X121013853Y-102639269D02*
X121085282Y-102567840D01*
X121085282Y-102567840D02*
X121228139Y-102496412D01*
X120370996Y-104639269D02*
X120370996Y-104353554D01*
X120370996Y-104353554D02*
X120442425Y-104210697D01*
X120442425Y-104210697D02*
X120513853Y-104139269D01*
X120513853Y-104139269D02*
X120728139Y-103996411D01*
X120728139Y-103996411D02*
X121013853Y-103924983D01*
X121013853Y-103924983D02*
X121585282Y-103924983D01*
X121585282Y-103924983D02*
X121728139Y-103996411D01*
X121728139Y-103996411D02*
X121799568Y-104067840D01*
X121799568Y-104067840D02*
X121870996Y-104210697D01*
X121870996Y-104210697D02*
X121870996Y-104496411D01*
X121870996Y-104496411D02*
X121799568Y-104639269D01*
X121799568Y-104639269D02*
X121728139Y-104710697D01*
X121728139Y-104710697D02*
X121585282Y-104782126D01*
X121585282Y-104782126D02*
X121228139Y-104782126D01*
X121228139Y-104782126D02*
X121085282Y-104710697D01*
X121085282Y-104710697D02*
X121013853Y-104639269D01*
X121013853Y-104639269D02*
X120942425Y-104496411D01*
X120942425Y-104496411D02*
X120942425Y-104210697D01*
X120942425Y-104210697D02*
X121013853Y-104067840D01*
X121013853Y-104067840D02*
X121085282Y-103996411D01*
X121085282Y-103996411D02*
X121228139Y-103924983D01*
X120370996Y-106067840D02*
X120370996Y-105782125D01*
X120370996Y-105782125D02*
X120442425Y-105639268D01*
X120442425Y-105639268D02*
X120513853Y-105567840D01*
X120513853Y-105567840D02*
X120728139Y-105424982D01*
X120728139Y-105424982D02*
X121013853Y-105353554D01*
X121013853Y-105353554D02*
X121585282Y-105353554D01*
X121585282Y-105353554D02*
X121728139Y-105424982D01*
X121728139Y-105424982D02*
X121799568Y-105496411D01*
X121799568Y-105496411D02*
X121870996Y-105639268D01*
X121870996Y-105639268D02*
X121870996Y-105924982D01*
X121870996Y-105924982D02*
X121799568Y-106067840D01*
X121799568Y-106067840D02*
X121728139Y-106139268D01*
X121728139Y-106139268D02*
X121585282Y-106210697D01*
X121585282Y-106210697D02*
X121228139Y-106210697D01*
X121228139Y-106210697D02*
X121085282Y-106139268D01*
X121085282Y-106139268D02*
X121013853Y-106067840D01*
X121013853Y-106067840D02*
X120942425Y-105924982D01*
X120942425Y-105924982D02*
X120942425Y-105639268D01*
X120942425Y-105639268D02*
X121013853Y-105496411D01*
X121013853Y-105496411D02*
X121085282Y-105424982D01*
X121085282Y-105424982D02*
X121228139Y-105353554D01*
X120370996Y-107496411D02*
X120370996Y-107210696D01*
X120370996Y-107210696D02*
X120442425Y-107067839D01*
X120442425Y-107067839D02*
X120513853Y-106996411D01*
X120513853Y-106996411D02*
X120728139Y-106853553D01*
X120728139Y-106853553D02*
X121013853Y-106782125D01*
X121013853Y-106782125D02*
X121585282Y-106782125D01*
X121585282Y-106782125D02*
X121728139Y-106853553D01*
X121728139Y-106853553D02*
X121799568Y-106924982D01*
X121799568Y-106924982D02*
X121870996Y-107067839D01*
X121870996Y-107067839D02*
X121870996Y-107353553D01*
X121870996Y-107353553D02*
X121799568Y-107496411D01*
X121799568Y-107496411D02*
X121728139Y-107567839D01*
X121728139Y-107567839D02*
X121585282Y-107639268D01*
X121585282Y-107639268D02*
X121228139Y-107639268D01*
X121228139Y-107639268D02*
X121085282Y-107567839D01*
X121085282Y-107567839D02*
X121013853Y-107496411D01*
X121013853Y-107496411D02*
X120942425Y-107353553D01*
X120942425Y-107353553D02*
X120942425Y-107067839D01*
X120942425Y-107067839D02*
X121013853Y-106924982D01*
X121013853Y-106924982D02*
X121085282Y-106853553D01*
X121085282Y-106853553D02*
X121228139Y-106782125D01*
X122785912Y-88174983D02*
X122785912Y-89032126D01*
X124285912Y-88603554D02*
X122785912Y-88603554D01*
X124285912Y-89532125D02*
X122785912Y-89532125D01*
X124285912Y-90174983D02*
X123500198Y-90174983D01*
X123500198Y-90174983D02*
X123357341Y-90103554D01*
X123357341Y-90103554D02*
X123285912Y-89960697D01*
X123285912Y-89960697D02*
X123285912Y-89746411D01*
X123285912Y-89746411D02*
X123357341Y-89603554D01*
X123357341Y-89603554D02*
X123428769Y-89532125D01*
X123285912Y-91532126D02*
X124285912Y-91532126D01*
X123285912Y-90889268D02*
X124071626Y-90889268D01*
X124071626Y-90889268D02*
X124214484Y-90960697D01*
X124214484Y-90960697D02*
X124285912Y-91103554D01*
X124285912Y-91103554D02*
X124285912Y-91317840D01*
X124285912Y-91317840D02*
X124214484Y-91460697D01*
X124214484Y-91460697D02*
X124143055Y-91532126D01*
X124285912Y-92246411D02*
X123285912Y-92246411D01*
X123428769Y-92246411D02*
X123357341Y-92317840D01*
X123357341Y-92317840D02*
X123285912Y-92460697D01*
X123285912Y-92460697D02*
X123285912Y-92674983D01*
X123285912Y-92674983D02*
X123357341Y-92817840D01*
X123357341Y-92817840D02*
X123500198Y-92889269D01*
X123500198Y-92889269D02*
X124285912Y-92889269D01*
X123500198Y-92889269D02*
X123357341Y-92960697D01*
X123357341Y-92960697D02*
X123285912Y-93103554D01*
X123285912Y-93103554D02*
X123285912Y-93317840D01*
X123285912Y-93317840D02*
X123357341Y-93460697D01*
X123357341Y-93460697D02*
X123500198Y-93532126D01*
X123500198Y-93532126D02*
X124285912Y-93532126D01*
X124285912Y-94246411D02*
X122785912Y-94246411D01*
X123357341Y-94246411D02*
X123285912Y-94389269D01*
X123285912Y-94389269D02*
X123285912Y-94674983D01*
X123285912Y-94674983D02*
X123357341Y-94817840D01*
X123357341Y-94817840D02*
X123428769Y-94889269D01*
X123428769Y-94889269D02*
X123571626Y-94960697D01*
X123571626Y-94960697D02*
X124000198Y-94960697D01*
X124000198Y-94960697D02*
X124143055Y-94889269D01*
X124143055Y-94889269D02*
X124214484Y-94817840D01*
X124214484Y-94817840D02*
X124285912Y-94674983D01*
X124285912Y-94674983D02*
X124285912Y-94389269D01*
X124285912Y-94389269D02*
X124214484Y-94246411D01*
X124214484Y-95532126D02*
X124285912Y-95674983D01*
X124285912Y-95674983D02*
X124285912Y-95960697D01*
X124285912Y-95960697D02*
X124214484Y-96103554D01*
X124214484Y-96103554D02*
X124071626Y-96174983D01*
X124071626Y-96174983D02*
X124000198Y-96174983D01*
X124000198Y-96174983D02*
X123857341Y-96103554D01*
X123857341Y-96103554D02*
X123785912Y-95960697D01*
X123785912Y-95960697D02*
X123785912Y-95746412D01*
X123785912Y-95746412D02*
X123714484Y-95603554D01*
X123714484Y-95603554D02*
X123571626Y-95532126D01*
X123571626Y-95532126D02*
X123500198Y-95532126D01*
X123500198Y-95532126D02*
X123357341Y-95603554D01*
X123357341Y-95603554D02*
X123285912Y-95746412D01*
X123285912Y-95746412D02*
X123285912Y-95960697D01*
X123285912Y-95960697D02*
X123357341Y-96103554D01*
X122785912Y-96817840D02*
X124000198Y-96817840D01*
X124000198Y-96817840D02*
X124143055Y-96889269D01*
X124143055Y-96889269D02*
X124214484Y-96960698D01*
X124214484Y-96960698D02*
X124285912Y-97103555D01*
X124285912Y-97103555D02*
X124285912Y-97389269D01*
X124285912Y-97389269D02*
X124214484Y-97532126D01*
X124214484Y-97532126D02*
X124143055Y-97603555D01*
X124143055Y-97603555D02*
X124000198Y-97674983D01*
X124000198Y-97674983D02*
X122785912Y-97674983D01*
X123285912Y-98389269D02*
X124785912Y-98389269D01*
X123357341Y-98389269D02*
X123285912Y-98532127D01*
X123285912Y-98532127D02*
X123285912Y-98817841D01*
X123285912Y-98817841D02*
X123357341Y-98960698D01*
X123357341Y-98960698D02*
X123428769Y-99032127D01*
X123428769Y-99032127D02*
X123571626Y-99103555D01*
X123571626Y-99103555D02*
X124000198Y-99103555D01*
X124000198Y-99103555D02*
X124143055Y-99032127D01*
X124143055Y-99032127D02*
X124214484Y-98960698D01*
X124214484Y-98960698D02*
X124285912Y-98817841D01*
X124285912Y-98817841D02*
X124285912Y-98532127D01*
X124285912Y-98532127D02*
X124214484Y-98389269D01*
X124143055Y-99746412D02*
X124214484Y-99817841D01*
X124214484Y-99817841D02*
X124285912Y-99746412D01*
X124285912Y-99746412D02*
X124214484Y-99674984D01*
X124214484Y-99674984D02*
X124143055Y-99746412D01*
X124143055Y-99746412D02*
X124285912Y-99746412D01*
X123714484Y-99746412D02*
X122857341Y-99674984D01*
X122857341Y-99674984D02*
X122785912Y-99746412D01*
X122785912Y-99746412D02*
X122857341Y-99817841D01*
X122857341Y-99817841D02*
X123714484Y-99746412D01*
X123714484Y-99746412D02*
X122785912Y-99746412D01*
X122785912Y-101389270D02*
X122785912Y-102246413D01*
X124285912Y-101817841D02*
X122785912Y-101817841D01*
X124285912Y-102746412D02*
X123285912Y-102746412D01*
X123571626Y-102746412D02*
X123428769Y-102817841D01*
X123428769Y-102817841D02*
X123357341Y-102889270D01*
X123357341Y-102889270D02*
X123285912Y-103032127D01*
X123285912Y-103032127D02*
X123285912Y-103174984D01*
X124285912Y-104317841D02*
X123500198Y-104317841D01*
X123500198Y-104317841D02*
X123357341Y-104246412D01*
X123357341Y-104246412D02*
X123285912Y-104103555D01*
X123285912Y-104103555D02*
X123285912Y-103817841D01*
X123285912Y-103817841D02*
X123357341Y-103674983D01*
X124214484Y-104317841D02*
X124285912Y-104174983D01*
X124285912Y-104174983D02*
X124285912Y-103817841D01*
X124285912Y-103817841D02*
X124214484Y-103674983D01*
X124214484Y-103674983D02*
X124071626Y-103603555D01*
X124071626Y-103603555D02*
X123928769Y-103603555D01*
X123928769Y-103603555D02*
X123785912Y-103674983D01*
X123785912Y-103674983D02*
X123714484Y-103817841D01*
X123714484Y-103817841D02*
X123714484Y-104174983D01*
X123714484Y-104174983D02*
X123643055Y-104317841D01*
X124214484Y-105674984D02*
X124285912Y-105532126D01*
X124285912Y-105532126D02*
X124285912Y-105246412D01*
X124285912Y-105246412D02*
X124214484Y-105103555D01*
X124214484Y-105103555D02*
X124143055Y-105032126D01*
X124143055Y-105032126D02*
X124000198Y-104960698D01*
X124000198Y-104960698D02*
X123571626Y-104960698D01*
X123571626Y-104960698D02*
X123428769Y-105032126D01*
X123428769Y-105032126D02*
X123357341Y-105103555D01*
X123357341Y-105103555D02*
X123285912Y-105246412D01*
X123285912Y-105246412D02*
X123285912Y-105532126D01*
X123285912Y-105532126D02*
X123357341Y-105674984D01*
X124285912Y-106317840D02*
X122785912Y-106317840D01*
X123714484Y-106460698D02*
X124285912Y-106889269D01*
X123285912Y-106889269D02*
X123857341Y-106317840D01*
X124285912Y-107532126D02*
X122785912Y-107532126D01*
X123357341Y-107532126D02*
X123285912Y-107674984D01*
X123285912Y-107674984D02*
X123285912Y-107960698D01*
X123285912Y-107960698D02*
X123357341Y-108103555D01*
X123357341Y-108103555D02*
X123428769Y-108174984D01*
X123428769Y-108174984D02*
X123571626Y-108246412D01*
X123571626Y-108246412D02*
X124000198Y-108246412D01*
X124000198Y-108246412D02*
X124143055Y-108174984D01*
X124143055Y-108174984D02*
X124214484Y-108103555D01*
X124214484Y-108103555D02*
X124285912Y-107960698D01*
X124285912Y-107960698D02*
X124285912Y-107674984D01*
X124285912Y-107674984D02*
X124214484Y-107532126D01*
X124285912Y-109532127D02*
X123500198Y-109532127D01*
X123500198Y-109532127D02*
X123357341Y-109460698D01*
X123357341Y-109460698D02*
X123285912Y-109317841D01*
X123285912Y-109317841D02*
X123285912Y-109032127D01*
X123285912Y-109032127D02*
X123357341Y-108889269D01*
X124214484Y-109532127D02*
X124285912Y-109389269D01*
X124285912Y-109389269D02*
X124285912Y-109032127D01*
X124285912Y-109032127D02*
X124214484Y-108889269D01*
X124214484Y-108889269D02*
X124071626Y-108817841D01*
X124071626Y-108817841D02*
X123928769Y-108817841D01*
X123928769Y-108817841D02*
X123785912Y-108889269D01*
X123785912Y-108889269D02*
X123714484Y-109032127D01*
X123714484Y-109032127D02*
X123714484Y-109389269D01*
X123714484Y-109389269D02*
X123643055Y-109532127D01*
X124285912Y-110460698D02*
X124214484Y-110317841D01*
X124214484Y-110317841D02*
X124071626Y-110246412D01*
X124071626Y-110246412D02*
X122785912Y-110246412D01*
X124285912Y-111246412D02*
X124214484Y-111103555D01*
X124214484Y-111103555D02*
X124071626Y-111032126D01*
X124071626Y-111032126D02*
X122785912Y-111032126D01*
X123285912Y-112817840D02*
X124285912Y-113174983D01*
X124285912Y-113174983D02*
X123285912Y-113532126D01*
X123285912Y-114746412D02*
X124285912Y-114746412D01*
X122714484Y-114389269D02*
X123785912Y-114032126D01*
X123785912Y-114032126D02*
X123785912Y-114960697D01*
X125343685Y-94317841D02*
X125272257Y-94389269D01*
X125272257Y-94389269D02*
X125200828Y-94532127D01*
X125200828Y-94532127D02*
X125200828Y-94889269D01*
X125200828Y-94889269D02*
X125272257Y-95032127D01*
X125272257Y-95032127D02*
X125343685Y-95103555D01*
X125343685Y-95103555D02*
X125486542Y-95174984D01*
X125486542Y-95174984D02*
X125629400Y-95174984D01*
X125629400Y-95174984D02*
X125843685Y-95103555D01*
X125843685Y-95103555D02*
X126700828Y-94246412D01*
X126700828Y-94246412D02*
X126700828Y-95174984D01*
X125200828Y-96103555D02*
X125200828Y-96246412D01*
X125200828Y-96246412D02*
X125272257Y-96389269D01*
X125272257Y-96389269D02*
X125343685Y-96460698D01*
X125343685Y-96460698D02*
X125486542Y-96532126D01*
X125486542Y-96532126D02*
X125772257Y-96603555D01*
X125772257Y-96603555D02*
X126129400Y-96603555D01*
X126129400Y-96603555D02*
X126415114Y-96532126D01*
X126415114Y-96532126D02*
X126557971Y-96460698D01*
X126557971Y-96460698D02*
X126629400Y-96389269D01*
X126629400Y-96389269D02*
X126700828Y-96246412D01*
X126700828Y-96246412D02*
X126700828Y-96103555D01*
X126700828Y-96103555D02*
X126629400Y-95960698D01*
X126629400Y-95960698D02*
X126557971Y-95889269D01*
X126557971Y-95889269D02*
X126415114Y-95817840D01*
X126415114Y-95817840D02*
X126129400Y-95746412D01*
X126129400Y-95746412D02*
X125772257Y-95746412D01*
X125772257Y-95746412D02*
X125486542Y-95817840D01*
X125486542Y-95817840D02*
X125343685Y-95889269D01*
X125343685Y-95889269D02*
X125272257Y-95960698D01*
X125272257Y-95960698D02*
X125200828Y-96103555D01*
X125343685Y-97174983D02*
X125272257Y-97246411D01*
X125272257Y-97246411D02*
X125200828Y-97389269D01*
X125200828Y-97389269D02*
X125200828Y-97746411D01*
X125200828Y-97746411D02*
X125272257Y-97889269D01*
X125272257Y-97889269D02*
X125343685Y-97960697D01*
X125343685Y-97960697D02*
X125486542Y-98032126D01*
X125486542Y-98032126D02*
X125629400Y-98032126D01*
X125629400Y-98032126D02*
X125843685Y-97960697D01*
X125843685Y-97960697D02*
X126700828Y-97103554D01*
X126700828Y-97103554D02*
X126700828Y-98032126D01*
X125200828Y-99389268D02*
X125200828Y-98674982D01*
X125200828Y-98674982D02*
X125915114Y-98603554D01*
X125915114Y-98603554D02*
X125843685Y-98674982D01*
X125843685Y-98674982D02*
X125772257Y-98817840D01*
X125772257Y-98817840D02*
X125772257Y-99174982D01*
X125772257Y-99174982D02*
X125843685Y-99317840D01*
X125843685Y-99317840D02*
X125915114Y-99389268D01*
X125915114Y-99389268D02*
X126057971Y-99460697D01*
X126057971Y-99460697D02*
X126415114Y-99460697D01*
X126415114Y-99460697D02*
X126557971Y-99389268D01*
X126557971Y-99389268D02*
X126629400Y-99317840D01*
X126629400Y-99317840D02*
X126700828Y-99174982D01*
X126700828Y-99174982D02*
X126700828Y-98817840D01*
X126700828Y-98817840D02*
X126629400Y-98674982D01*
X126629400Y-98674982D02*
X126557971Y-98603554D01*
X126129400Y-100103553D02*
X126129400Y-101246411D01*
X125200828Y-102246411D02*
X125200828Y-102389268D01*
X125200828Y-102389268D02*
X125272257Y-102532125D01*
X125272257Y-102532125D02*
X125343685Y-102603554D01*
X125343685Y-102603554D02*
X125486542Y-102674982D01*
X125486542Y-102674982D02*
X125772257Y-102746411D01*
X125772257Y-102746411D02*
X126129400Y-102746411D01*
X126129400Y-102746411D02*
X126415114Y-102674982D01*
X126415114Y-102674982D02*
X126557971Y-102603554D01*
X126557971Y-102603554D02*
X126629400Y-102532125D01*
X126629400Y-102532125D02*
X126700828Y-102389268D01*
X126700828Y-102389268D02*
X126700828Y-102246411D01*
X126700828Y-102246411D02*
X126629400Y-102103554D01*
X126629400Y-102103554D02*
X126557971Y-102032125D01*
X126557971Y-102032125D02*
X126415114Y-101960696D01*
X126415114Y-101960696D02*
X126129400Y-101889268D01*
X126129400Y-101889268D02*
X125772257Y-101889268D01*
X125772257Y-101889268D02*
X125486542Y-101960696D01*
X125486542Y-101960696D02*
X125343685Y-102032125D01*
X125343685Y-102032125D02*
X125272257Y-102103554D01*
X125272257Y-102103554D02*
X125200828Y-102246411D01*
X126700828Y-103460696D02*
X126700828Y-103746410D01*
X126700828Y-103746410D02*
X126629400Y-103889267D01*
X126629400Y-103889267D02*
X126557971Y-103960696D01*
X126557971Y-103960696D02*
X126343685Y-104103553D01*
X126343685Y-104103553D02*
X126057971Y-104174982D01*
X126057971Y-104174982D02*
X125486542Y-104174982D01*
X125486542Y-104174982D02*
X125343685Y-104103553D01*
X125343685Y-104103553D02*
X125272257Y-104032125D01*
X125272257Y-104032125D02*
X125200828Y-103889267D01*
X125200828Y-103889267D02*
X125200828Y-103603553D01*
X125200828Y-103603553D02*
X125272257Y-103460696D01*
X125272257Y-103460696D02*
X125343685Y-103389267D01*
X125343685Y-103389267D02*
X125486542Y-103317839D01*
X125486542Y-103317839D02*
X125843685Y-103317839D01*
X125843685Y-103317839D02*
X125986542Y-103389267D01*
X125986542Y-103389267D02*
X126057971Y-103460696D01*
X126057971Y-103460696D02*
X126129400Y-103603553D01*
X126129400Y-103603553D02*
X126129400Y-103889267D01*
X126129400Y-103889267D02*
X126057971Y-104032125D01*
X126057971Y-104032125D02*
X125986542Y-104103553D01*
X125986542Y-104103553D02*
X125843685Y-104174982D01*
X126129400Y-104817838D02*
X126129400Y-105960696D01*
X126700828Y-107460696D02*
X126700828Y-106603553D01*
X126700828Y-107032124D02*
X125200828Y-107032124D01*
X125200828Y-107032124D02*
X125415114Y-106889267D01*
X125415114Y-106889267D02*
X125557971Y-106746410D01*
X125557971Y-106746410D02*
X125629400Y-106603553D01*
X126700828Y-108174981D02*
X126700828Y-108460695D01*
X126700828Y-108460695D02*
X126629400Y-108603552D01*
X126629400Y-108603552D02*
X126557971Y-108674981D01*
X126557971Y-108674981D02*
X126343685Y-108817838D01*
X126343685Y-108817838D02*
X126057971Y-108889267D01*
X126057971Y-108889267D02*
X125486542Y-108889267D01*
X125486542Y-108889267D02*
X125343685Y-108817838D01*
X125343685Y-108817838D02*
X125272257Y-108746410D01*
X125272257Y-108746410D02*
X125200828Y-108603552D01*
X125200828Y-108603552D02*
X125200828Y-108317838D01*
X125200828Y-108317838D02*
X125272257Y-108174981D01*
X125272257Y-108174981D02*
X125343685Y-108103552D01*
X125343685Y-108103552D02*
X125486542Y-108032124D01*
X125486542Y-108032124D02*
X125843685Y-108032124D01*
X125843685Y-108032124D02*
X125986542Y-108103552D01*
X125986542Y-108103552D02*
X126057971Y-108174981D01*
X126057971Y-108174981D02*
X126129400Y-108317838D01*
X126129400Y-108317838D02*
X126129400Y-108603552D01*
X126129400Y-108603552D02*
X126057971Y-108746410D01*
X126057971Y-108746410D02*
X125986542Y-108817838D01*
X125986542Y-108817838D02*
X125843685Y-108889267D01*
D11*
X145510839Y-84172200D02*
X145367982Y-84219819D01*
X145367982Y-84219819D02*
X145129887Y-84219819D01*
X145129887Y-84219819D02*
X145034649Y-84172200D01*
X145034649Y-84172200D02*
X144987030Y-84124580D01*
X144987030Y-84124580D02*
X144939411Y-84029342D01*
X144939411Y-84029342D02*
X144939411Y-83934104D01*
X144939411Y-83934104D02*
X144987030Y-83838866D01*
X144987030Y-83838866D02*
X145034649Y-83791247D01*
X145034649Y-83791247D02*
X145129887Y-83743628D01*
X145129887Y-83743628D02*
X145320363Y-83696009D01*
X145320363Y-83696009D02*
X145415601Y-83648390D01*
X145415601Y-83648390D02*
X145463220Y-83600771D01*
X145463220Y-83600771D02*
X145510839Y-83505533D01*
X145510839Y-83505533D02*
X145510839Y-83410295D01*
X145510839Y-83410295D02*
X145463220Y-83315057D01*
X145463220Y-83315057D02*
X145415601Y-83267438D01*
X145415601Y-83267438D02*
X145320363Y-83219819D01*
X145320363Y-83219819D02*
X145082268Y-83219819D01*
X145082268Y-83219819D02*
X144939411Y-83267438D01*
X144510839Y-84219819D02*
X144510839Y-83219819D01*
X144510839Y-83219819D02*
X144272744Y-83219819D01*
X144272744Y-83219819D02*
X144129887Y-83267438D01*
X144129887Y-83267438D02*
X144034649Y-83362676D01*
X144034649Y-83362676D02*
X143987030Y-83457914D01*
X143987030Y-83457914D02*
X143939411Y-83648390D01*
X143939411Y-83648390D02*
X143939411Y-83791247D01*
X143939411Y-83791247D02*
X143987030Y-83981723D01*
X143987030Y-83981723D02*
X144034649Y-84076961D01*
X144034649Y-84076961D02*
X144129887Y-84172200D01*
X144129887Y-84172200D02*
X144272744Y-84219819D01*
X144272744Y-84219819D02*
X144510839Y-84219819D01*
X143510839Y-84219819D02*
X143510839Y-83219819D01*
X142844173Y-83219819D02*
X142653697Y-83219819D01*
X142653697Y-83219819D02*
X142558459Y-83267438D01*
X142558459Y-83267438D02*
X142463221Y-83362676D01*
X142463221Y-83362676D02*
X142415602Y-83553152D01*
X142415602Y-83553152D02*
X142415602Y-83886485D01*
X142415602Y-83886485D02*
X142463221Y-84076961D01*
X142463221Y-84076961D02*
X142558459Y-84172200D01*
X142558459Y-84172200D02*
X142653697Y-84219819D01*
X142653697Y-84219819D02*
X142844173Y-84219819D01*
X142844173Y-84219819D02*
X142939411Y-84172200D01*
X142939411Y-84172200D02*
X143034649Y-84076961D01*
X143034649Y-84076961D02*
X143082268Y-83886485D01*
X143082268Y-83886485D02*
X143082268Y-83553152D01*
X143082268Y-83553152D02*
X143034649Y-83362676D01*
X143034649Y-83362676D02*
X142939411Y-83267438D01*
X142939411Y-83267438D02*
X142844173Y-83219819D01*
D10*
X165935714Y-56834885D02*
X166150000Y-56763457D01*
X166150000Y-56763457D02*
X166221429Y-56692028D01*
X166221429Y-56692028D02*
X166292857Y-56549171D01*
X166292857Y-56549171D02*
X166292857Y-56334885D01*
X166292857Y-56334885D02*
X166221429Y-56192028D01*
X166221429Y-56192028D02*
X166150000Y-56120600D01*
X166150000Y-56120600D02*
X166007143Y-56049171D01*
X166007143Y-56049171D02*
X165435714Y-56049171D01*
X165435714Y-56049171D02*
X165435714Y-57549171D01*
X165435714Y-57549171D02*
X165935714Y-57549171D01*
X165935714Y-57549171D02*
X166078572Y-57477742D01*
X166078572Y-57477742D02*
X166150000Y-57406314D01*
X166150000Y-57406314D02*
X166221429Y-57263457D01*
X166221429Y-57263457D02*
X166221429Y-57120600D01*
X166221429Y-57120600D02*
X166150000Y-56977742D01*
X166150000Y-56977742D02*
X166078572Y-56906314D01*
X166078572Y-56906314D02*
X165935714Y-56834885D01*
X165935714Y-56834885D02*
X165435714Y-56834885D01*
X166721429Y-57549171D02*
X167578572Y-57549171D01*
X167150000Y-56049171D02*
X167150000Y-57549171D01*
X170078571Y-56192028D02*
X170007143Y-56120600D01*
X170007143Y-56120600D02*
X169792857Y-56049171D01*
X169792857Y-56049171D02*
X169650000Y-56049171D01*
X169650000Y-56049171D02*
X169435714Y-56120600D01*
X169435714Y-56120600D02*
X169292857Y-56263457D01*
X169292857Y-56263457D02*
X169221428Y-56406314D01*
X169221428Y-56406314D02*
X169150000Y-56692028D01*
X169150000Y-56692028D02*
X169150000Y-56906314D01*
X169150000Y-56906314D02*
X169221428Y-57192028D01*
X169221428Y-57192028D02*
X169292857Y-57334885D01*
X169292857Y-57334885D02*
X169435714Y-57477742D01*
X169435714Y-57477742D02*
X169650000Y-57549171D01*
X169650000Y-57549171D02*
X169792857Y-57549171D01*
X169792857Y-57549171D02*
X170007143Y-57477742D01*
X170007143Y-57477742D02*
X170078571Y-57406314D01*
X171435714Y-56049171D02*
X170721428Y-56049171D01*
X170721428Y-56049171D02*
X170721428Y-57549171D01*
X171935714Y-56834885D02*
X172435714Y-56834885D01*
X172650000Y-56049171D02*
X171935714Y-56049171D01*
X171935714Y-56049171D02*
X171935714Y-57549171D01*
X171935714Y-57549171D02*
X172650000Y-57549171D01*
X173221429Y-56477742D02*
X173935715Y-56477742D01*
X173078572Y-56049171D02*
X173578572Y-57549171D01*
X173578572Y-57549171D02*
X174078572Y-56049171D01*
X175435714Y-56049171D02*
X174935714Y-56763457D01*
X174578571Y-56049171D02*
X174578571Y-57549171D01*
X174578571Y-57549171D02*
X175150000Y-57549171D01*
X175150000Y-57549171D02*
X175292857Y-57477742D01*
X175292857Y-57477742D02*
X175364286Y-57406314D01*
X175364286Y-57406314D02*
X175435714Y-57263457D01*
X175435714Y-57263457D02*
X175435714Y-57049171D01*
X175435714Y-57049171D02*
X175364286Y-56906314D01*
X175364286Y-56906314D02*
X175292857Y-56834885D01*
X175292857Y-56834885D02*
X175150000Y-56763457D01*
X175150000Y-56763457D02*
X174578571Y-56763457D01*
G36*
X186409854Y-104464014D02*
G01*
X186506121Y-104560281D01*
X186550828Y-104649694D01*
X186550828Y-104864589D01*
X186506121Y-104954001D01*
X186409854Y-105050268D01*
X186182363Y-105107142D01*
X185719292Y-105107142D01*
X185491801Y-105050268D01*
X185395535Y-104954002D01*
X185350828Y-104864588D01*
X185350828Y-104649695D01*
X185395535Y-104560281D01*
X185491802Y-104464014D01*
X185719292Y-104407142D01*
X186182364Y-104407142D01*
X186409854Y-104464014D01*
G37*
G36*
X183421626Y-103543161D02*
G01*
X183376919Y-103632574D01*
X183339914Y-103669579D01*
X183250502Y-103714285D01*
X183107036Y-103714285D01*
X183017623Y-103669579D01*
X182980619Y-103632575D01*
X182935912Y-103543160D01*
X182935912Y-103157142D01*
X183421626Y-103157142D01*
X183421626Y-103543161D01*
G37*
G36*
X183707341Y-98513315D02*
G01*
X183260252Y-98364286D01*
X183707341Y-98215256D01*
X183707341Y-98513315D01*
G37*
G36*
X184135912Y-97114590D02*
G01*
X184091205Y-97204003D01*
X184054200Y-97241008D01*
X183964788Y-97285714D01*
X183821322Y-97285714D01*
X183731908Y-97241007D01*
X183702731Y-97211830D01*
X183650198Y-97054228D01*
X183650198Y-96728571D01*
X184135912Y-96728571D01*
X184135912Y-97114590D01*
G37*
G36*
X183350198Y-97043161D02*
G01*
X183305491Y-97132575D01*
X183268487Y-97169578D01*
X183179074Y-97214286D01*
X183107036Y-97214286D01*
X183017623Y-97169579D01*
X182980619Y-97132575D01*
X182935912Y-97043161D01*
X182935912Y-96728571D01*
X183350198Y-96728571D01*
X183350198Y-97043161D01*
G37*
G36*
X186409854Y-96178300D02*
G01*
X186506121Y-96274567D01*
X186550828Y-96363980D01*
X186550828Y-96578875D01*
X186506121Y-96668287D01*
X186409854Y-96764554D01*
X186182363Y-96821428D01*
X185719292Y-96821428D01*
X185491801Y-96764554D01*
X185395535Y-96668288D01*
X185350828Y-96578874D01*
X185350828Y-96363981D01*
X185395535Y-96274567D01*
X185491802Y-96178300D01*
X185719292Y-96121428D01*
X186182364Y-96121428D01*
X186409854Y-96178300D01*
G37*
G36*
X187017495Y-107073809D02*
G01*
X182469245Y-107073809D01*
X182469245Y-105910476D01*
X185051194Y-105910476D01*
X185053710Y-105919700D01*
X185053710Y-105929263D01*
X185061345Y-105947695D01*
X185066594Y-105966940D01*
X185072448Y-105974499D01*
X185076108Y-105983335D01*
X185090215Y-105997442D01*
X185102429Y-106013214D01*
X185114692Y-106021919D01*
X185117492Y-106024719D01*
X185120239Y-106025857D01*
X185126407Y-106030235D01*
X186135993Y-106607142D01*
X185200828Y-106607142D01*
X185171564Y-106610024D01*
X185117492Y-106632422D01*
X185076108Y-106673806D01*
X185053710Y-106727878D01*
X185053710Y-106786406D01*
X185076108Y-106840478D01*
X185117492Y-106881862D01*
X185171564Y-106904260D01*
X185200828Y-106907142D01*
X186700828Y-106907142D01*
X186708354Y-106906400D01*
X186711306Y-106906776D01*
X186715127Y-106905733D01*
X186730092Y-106904260D01*
X186748524Y-106896624D01*
X186767769Y-106891376D01*
X186775328Y-106885521D01*
X186784164Y-106881862D01*
X186798271Y-106867754D01*
X186814043Y-106855541D01*
X186818787Y-106847238D01*
X186825548Y-106840478D01*
X186833182Y-106822047D01*
X186843081Y-106804725D01*
X186844286Y-106795239D01*
X186847946Y-106786406D01*
X186847946Y-106766456D01*
X186850462Y-106746665D01*
X186847946Y-106737439D01*
X186847946Y-106727878D01*
X186840312Y-106709449D01*
X186835063Y-106690201D01*
X186829206Y-106682639D01*
X186825548Y-106673806D01*
X186811442Y-106659700D01*
X186799227Y-106643927D01*
X186786963Y-106635221D01*
X186784164Y-106632422D01*
X186781416Y-106631283D01*
X186775249Y-106626906D01*
X185765662Y-106049999D01*
X186700828Y-106049999D01*
X186730092Y-106047117D01*
X186784164Y-106024719D01*
X186825548Y-105983335D01*
X186847946Y-105929263D01*
X186847946Y-105870735D01*
X186825548Y-105816663D01*
X186784164Y-105775279D01*
X186730092Y-105752881D01*
X186700828Y-105749999D01*
X185200828Y-105749999D01*
X185193302Y-105750740D01*
X185190351Y-105750365D01*
X185186530Y-105751407D01*
X185171564Y-105752881D01*
X185153131Y-105760516D01*
X185133887Y-105765765D01*
X185126327Y-105771619D01*
X185117492Y-105775279D01*
X185103384Y-105789386D01*
X185087613Y-105801600D01*
X185082868Y-105809902D01*
X185076108Y-105816663D01*
X185068473Y-105835093D01*
X185058575Y-105852416D01*
X185057369Y-105861901D01*
X185053710Y-105870735D01*
X185053710Y-105890684D01*
X185051194Y-105910476D01*
X182469245Y-105910476D01*
X182469245Y-104296205D01*
X182635949Y-104296205D01*
X182648646Y-104353337D01*
X182682239Y-104401264D01*
X182705381Y-104419406D01*
X183292231Y-104792857D01*
X182705381Y-105166308D01*
X182682239Y-105184450D01*
X182648646Y-105232377D01*
X182635949Y-105289509D01*
X182646083Y-105347152D01*
X182677505Y-105396530D01*
X182725432Y-105430123D01*
X182782564Y-105442820D01*
X182840207Y-105432686D01*
X182866443Y-105419406D01*
X183615305Y-104942857D01*
X184285912Y-104942857D01*
X184315176Y-104939975D01*
X184369248Y-104917577D01*
X184410632Y-104876193D01*
X184433030Y-104822121D01*
X184433030Y-104763593D01*
X184410632Y-104709521D01*
X184369248Y-104668137D01*
X184315176Y-104645739D01*
X184285912Y-104642857D01*
X183615305Y-104642857D01*
X183570406Y-104614285D01*
X185050828Y-104614285D01*
X185050828Y-104899999D01*
X185053710Y-104929263D01*
X185055773Y-104934243D01*
X185056155Y-104939618D01*
X185066664Y-104967081D01*
X185138093Y-105109938D01*
X185146020Y-105122531D01*
X185147536Y-105126191D01*
X185150917Y-105130310D01*
X185153758Y-105134824D01*
X185156751Y-105137420D01*
X185166191Y-105148922D01*
X185309048Y-105291779D01*
X185331778Y-105310434D01*
X185342081Y-105314701D01*
X185351042Y-105321341D01*
X185378733Y-105331234D01*
X185664447Y-105402663D01*
X185669519Y-105403413D01*
X185671564Y-105404260D01*
X185682583Y-105405345D01*
X185693536Y-105406965D01*
X185695724Y-105406639D01*
X185700828Y-105407142D01*
X186200828Y-105407142D01*
X186205931Y-105406639D01*
X186208119Y-105406965D01*
X186219070Y-105405345D01*
X186230092Y-105404260D01*
X186232136Y-105403413D01*
X186237209Y-105402663D01*
X186522922Y-105331234D01*
X186550613Y-105321341D01*
X186559573Y-105314701D01*
X186569877Y-105310434D01*
X186592608Y-105291779D01*
X186735466Y-105148922D01*
X186744909Y-105137415D01*
X186747899Y-105134823D01*
X186750735Y-105130317D01*
X186754121Y-105126192D01*
X186755638Y-105122528D01*
X186763564Y-105109938D01*
X186834992Y-104967080D01*
X186845502Y-104939617D01*
X186845883Y-104934241D01*
X186847946Y-104929263D01*
X186850828Y-104899999D01*
X186850828Y-104614285D01*
X186847946Y-104585021D01*
X186845883Y-104580042D01*
X186845502Y-104574667D01*
X186834992Y-104547204D01*
X186763564Y-104404346D01*
X186755637Y-104391754D01*
X186754121Y-104388093D01*
X186750737Y-104383970D01*
X186747899Y-104379461D01*
X186744907Y-104376866D01*
X186735466Y-104365362D01*
X186592608Y-104222504D01*
X186569877Y-104203849D01*
X186559573Y-104199581D01*
X186550613Y-104192942D01*
X186522922Y-104183049D01*
X186237208Y-104111621D01*
X186232136Y-104110871D01*
X186230092Y-104110024D01*
X186219069Y-104108938D01*
X186208119Y-104107319D01*
X186205931Y-104107644D01*
X186200828Y-104107142D01*
X185700828Y-104107142D01*
X185695724Y-104107644D01*
X185693537Y-104107319D01*
X185682586Y-104108938D01*
X185671564Y-104110024D01*
X185669519Y-104110871D01*
X185664448Y-104111621D01*
X185378734Y-104183049D01*
X185351043Y-104192942D01*
X185342083Y-104199580D01*
X185331778Y-104203849D01*
X185309048Y-104222504D01*
X185166191Y-104365362D01*
X185156751Y-104376863D01*
X185153758Y-104379460D01*
X185150917Y-104383973D01*
X185147536Y-104388093D01*
X185146020Y-104391752D01*
X185138093Y-104404346D01*
X185066664Y-104547203D01*
X185056155Y-104574666D01*
X185055773Y-104580040D01*
X185053710Y-104585021D01*
X185050828Y-104614285D01*
X183570406Y-104614285D01*
X182866443Y-104166308D01*
X182840207Y-104153028D01*
X182782564Y-104142894D01*
X182725432Y-104155591D01*
X182677505Y-104189184D01*
X182646083Y-104238562D01*
X182635949Y-104296205D01*
X182469245Y-104296205D01*
X182469245Y-103007142D01*
X182635912Y-103007142D01*
X182635912Y-103578571D01*
X182638794Y-103607835D01*
X182640857Y-103612815D01*
X182641239Y-103618190D01*
X182651748Y-103645653D01*
X182723177Y-103788510D01*
X182731105Y-103801105D01*
X182732620Y-103804762D01*
X182735999Y-103808879D01*
X182738842Y-103813396D01*
X182741836Y-103815993D01*
X182751274Y-103827493D01*
X182822702Y-103898922D01*
X182834207Y-103908364D01*
X182836802Y-103911356D01*
X182841312Y-103914195D01*
X182845433Y-103917577D01*
X182849092Y-103919092D01*
X182861687Y-103927021D01*
X183004545Y-103998449D01*
X183032008Y-104008959D01*
X183037383Y-104009340D01*
X183042362Y-104011403D01*
X183071626Y-104014285D01*
X183285912Y-104014285D01*
X183315176Y-104011403D01*
X183320154Y-104009340D01*
X183325530Y-104008959D01*
X183352994Y-103998449D01*
X183495851Y-103927021D01*
X183508444Y-103919093D01*
X183512104Y-103917578D01*
X183516223Y-103914196D01*
X183520737Y-103911356D01*
X183523333Y-103908362D01*
X183534835Y-103898923D01*
X183606264Y-103827494D01*
X183615705Y-103815989D01*
X183618697Y-103813395D01*
X183621535Y-103808885D01*
X183624919Y-103804763D01*
X183626435Y-103801101D01*
X183634362Y-103788510D01*
X183705790Y-103645652D01*
X183707104Y-103642217D01*
X184199893Y-103987170D01*
X184225519Y-104001591D01*
X184282661Y-104014250D01*
X184340297Y-104004079D01*
X184389654Y-103972626D01*
X184423218Y-103924678D01*
X184435877Y-103867536D01*
X184425706Y-103809900D01*
X184394253Y-103760543D01*
X184371931Y-103741400D01*
X183721626Y-103286186D01*
X183721626Y-103157142D01*
X184285912Y-103157142D01*
X184315176Y-103154260D01*
X184369248Y-103131862D01*
X184410632Y-103090478D01*
X184433030Y-103036406D01*
X184433030Y-102977878D01*
X184410632Y-102923806D01*
X184369248Y-102882422D01*
X184315176Y-102860024D01*
X184285912Y-102857142D01*
X182785912Y-102857142D01*
X182756648Y-102860024D01*
X182702576Y-102882422D01*
X182661192Y-102923806D01*
X182638794Y-102977878D01*
X182635912Y-103007142D01*
X182469245Y-103007142D01*
X182469245Y-101649999D01*
X182635912Y-101649999D01*
X182635912Y-102364285D01*
X182638794Y-102393549D01*
X182661192Y-102447621D01*
X182702576Y-102489005D01*
X182756648Y-102511403D01*
X182815176Y-102511403D01*
X182869248Y-102489005D01*
X182910632Y-102447621D01*
X182933030Y-102393549D01*
X182935912Y-102364285D01*
X182935912Y-101799999D01*
X183350198Y-101799999D01*
X183350198Y-102149999D01*
X183353080Y-102179263D01*
X183375478Y-102233335D01*
X183416862Y-102274719D01*
X183470934Y-102297117D01*
X183529462Y-102297117D01*
X183583534Y-102274719D01*
X183624918Y-102233335D01*
X183647316Y-102179263D01*
X183650198Y-102149999D01*
X183650198Y-101799999D01*
X184135912Y-101799999D01*
X184135912Y-102364285D01*
X184138794Y-102393549D01*
X184161192Y-102447621D01*
X184202576Y-102489005D01*
X184256648Y-102511403D01*
X184315176Y-102511403D01*
X184369248Y-102489005D01*
X184410632Y-102447621D01*
X184433030Y-102393549D01*
X184435912Y-102364285D01*
X184435912Y-101649999D01*
X184433030Y-101620735D01*
X184410632Y-101566663D01*
X184369248Y-101525279D01*
X184315176Y-101502881D01*
X184285912Y-101499999D01*
X182785912Y-101499999D01*
X182756648Y-101502881D01*
X182702576Y-101525279D01*
X182661192Y-101566663D01*
X182638794Y-101620735D01*
X182635912Y-101649999D01*
X182469245Y-101649999D01*
X182469245Y-101328570D01*
X185979400Y-101328570D01*
X185979400Y-102471428D01*
X185982282Y-102500692D01*
X186004680Y-102554764D01*
X186046064Y-102596148D01*
X186100136Y-102618546D01*
X186158664Y-102618546D01*
X186212736Y-102596148D01*
X186254120Y-102554764D01*
X186276518Y-102500692D01*
X186279400Y-102471428D01*
X186279400Y-101328570D01*
X186276518Y-101299306D01*
X186254120Y-101245234D01*
X186212736Y-101203850D01*
X186158664Y-101181452D01*
X186100136Y-101181452D01*
X186046064Y-101203850D01*
X186004680Y-101245234D01*
X185982282Y-101299306D01*
X185979400Y-101328570D01*
X182469245Y-101328570D01*
X182469245Y-99150000D01*
X182635912Y-99150000D01*
X182635912Y-100007143D01*
X182638794Y-100036407D01*
X182661192Y-100090479D01*
X182702576Y-100131863D01*
X182746361Y-100150000D01*
X182702576Y-100168137D01*
X182661192Y-100209521D01*
X182638794Y-100263593D01*
X182635912Y-100292857D01*
X182635912Y-101150000D01*
X182638794Y-101179264D01*
X182661192Y-101233336D01*
X182702576Y-101274720D01*
X182756648Y-101297118D01*
X182815176Y-101297118D01*
X182869248Y-101274720D01*
X182910632Y-101233336D01*
X182933030Y-101179264D01*
X182935912Y-101150000D01*
X182935912Y-100871428D01*
X184285912Y-100871428D01*
X184315176Y-100868546D01*
X184369248Y-100846148D01*
X184410632Y-100804764D01*
X184433030Y-100750692D01*
X184433030Y-100692164D01*
X184410632Y-100638092D01*
X184369248Y-100596708D01*
X184315176Y-100574310D01*
X184285912Y-100571428D01*
X182935912Y-100571428D01*
X182935912Y-100292857D01*
X182933030Y-100263593D01*
X182910632Y-100209521D01*
X182869248Y-100168137D01*
X182825462Y-100150000D01*
X182869248Y-100131863D01*
X182910632Y-100090479D01*
X182933030Y-100036407D01*
X182935912Y-100007143D01*
X182935912Y-99728571D01*
X184285912Y-99728571D01*
X184315176Y-99725689D01*
X184369248Y-99703291D01*
X184410632Y-99661907D01*
X184433030Y-99607835D01*
X184433030Y-99549307D01*
X184410632Y-99495235D01*
X184369248Y-99453851D01*
X184315176Y-99431453D01*
X184285912Y-99428571D01*
X182935912Y-99428571D01*
X182935912Y-99150000D01*
X182933030Y-99120736D01*
X182910632Y-99066664D01*
X182869248Y-99025280D01*
X182815176Y-99002882D01*
X182756648Y-99002882D01*
X182702576Y-99025280D01*
X182661192Y-99066664D01*
X182638794Y-99120736D01*
X182635912Y-99150000D01*
X182469245Y-99150000D01*
X182469245Y-98345525D01*
X182637090Y-98345525D01*
X182638423Y-98364286D01*
X182637090Y-98383047D01*
X182640479Y-98393214D01*
X182641239Y-98403906D01*
X182649650Y-98420729D01*
X182655598Y-98438571D01*
X182662620Y-98446667D01*
X182667413Y-98456253D01*
X182681621Y-98468576D01*
X182693945Y-98482785D01*
X182703530Y-98487577D01*
X182711627Y-98494600D01*
X182738478Y-98506588D01*
X184238478Y-99006589D01*
X184267152Y-99013109D01*
X184325532Y-99008959D01*
X184377879Y-98982785D01*
X184416226Y-98938571D01*
X184429084Y-98899999D01*
X185050828Y-98899999D01*
X185050828Y-99614285D01*
X185053710Y-99643549D01*
X185076108Y-99697621D01*
X185117492Y-99739005D01*
X185171564Y-99761403D01*
X185230092Y-99761403D01*
X185284164Y-99739005D01*
X185325548Y-99697621D01*
X185347946Y-99643549D01*
X185350828Y-99614285D01*
X185350828Y-99049999D01*
X185765114Y-99049999D01*
X185765114Y-99399999D01*
X185767996Y-99429263D01*
X185790394Y-99483335D01*
X185831778Y-99524719D01*
X185885850Y-99547117D01*
X185944378Y-99547117D01*
X185998450Y-99524719D01*
X186039834Y-99483335D01*
X186062232Y-99429263D01*
X186065114Y-99399999D01*
X186065114Y-99049999D01*
X186700828Y-99049999D01*
X186730092Y-99047117D01*
X186784164Y-99024719D01*
X186825548Y-98983335D01*
X186847946Y-98929263D01*
X186847946Y-98870735D01*
X186825548Y-98816663D01*
X186784164Y-98775279D01*
X186730092Y-98752881D01*
X186700828Y-98749999D01*
X185200828Y-98749999D01*
X185171564Y-98752881D01*
X185117492Y-98775279D01*
X185076108Y-98816663D01*
X185053710Y-98870735D01*
X185050828Y-98899999D01*
X184429084Y-98899999D01*
X184434735Y-98883047D01*
X184430585Y-98824667D01*
X184404412Y-98772319D01*
X184360197Y-98733972D01*
X184333346Y-98721984D01*
X184007341Y-98613315D01*
X184007341Y-98115256D01*
X184333346Y-98006588D01*
X184360197Y-97994600D01*
X184404412Y-97956253D01*
X184430585Y-97903905D01*
X184434735Y-97845525D01*
X184416226Y-97790001D01*
X184377879Y-97745787D01*
X184325532Y-97719613D01*
X184267152Y-97715463D01*
X184238478Y-97721983D01*
X182738478Y-98221984D01*
X182711627Y-98233972D01*
X182703530Y-98240994D01*
X182693945Y-98245787D01*
X182681621Y-98259995D01*
X182667413Y-98272319D01*
X182662620Y-98281904D01*
X182655598Y-98290001D01*
X182649650Y-98307842D01*
X182641239Y-98324666D01*
X182640479Y-98335357D01*
X182637090Y-98345525D01*
X182469245Y-98345525D01*
X182469245Y-97614285D01*
X185050828Y-97614285D01*
X185050828Y-98328571D01*
X185053710Y-98357835D01*
X185076108Y-98411907D01*
X185117492Y-98453291D01*
X185171564Y-98475689D01*
X185230092Y-98475689D01*
X185284164Y-98453291D01*
X185325548Y-98411907D01*
X185347946Y-98357835D01*
X185350828Y-98328571D01*
X185350828Y-97764285D01*
X185765114Y-97764285D01*
X185765114Y-98114285D01*
X185767996Y-98143549D01*
X185790394Y-98197621D01*
X185831778Y-98239005D01*
X185885850Y-98261403D01*
X185944378Y-98261403D01*
X185998450Y-98239005D01*
X186039834Y-98197621D01*
X186062232Y-98143549D01*
X186065114Y-98114285D01*
X186065114Y-97764285D01*
X186700828Y-97764285D01*
X186730092Y-97761403D01*
X186784164Y-97739005D01*
X186825548Y-97697621D01*
X186847946Y-97643549D01*
X186847946Y-97585021D01*
X186825548Y-97530949D01*
X186784164Y-97489565D01*
X186730092Y-97467167D01*
X186700828Y-97464285D01*
X185200828Y-97464285D01*
X185171564Y-97467167D01*
X185117492Y-97489565D01*
X185076108Y-97530949D01*
X185053710Y-97585021D01*
X185050828Y-97614285D01*
X182469245Y-97614285D01*
X182469245Y-96578571D01*
X182635912Y-96578571D01*
X182635912Y-97078571D01*
X182638794Y-97107835D01*
X182640855Y-97112812D01*
X182641238Y-97118190D01*
X182651748Y-97145653D01*
X182723177Y-97288511D01*
X182731104Y-97301104D01*
X182732620Y-97304764D01*
X182736001Y-97308883D01*
X182738842Y-97313397D01*
X182741835Y-97315993D01*
X182751275Y-97327495D01*
X182822703Y-97398923D01*
X182834205Y-97408363D01*
X182836801Y-97411356D01*
X182841310Y-97414194D01*
X182845433Y-97417578D01*
X182849095Y-97419094D01*
X182861687Y-97427021D01*
X183004543Y-97498450D01*
X183032007Y-97508959D01*
X183037381Y-97509340D01*
X183042362Y-97511404D01*
X183071626Y-97514286D01*
X183214484Y-97514286D01*
X183243748Y-97511404D01*
X183248728Y-97509340D01*
X183254103Y-97508959D01*
X183281566Y-97498450D01*
X183424423Y-97427021D01*
X183437016Y-97419093D01*
X183440676Y-97417578D01*
X183444795Y-97414196D01*
X183449309Y-97411356D01*
X183451905Y-97408362D01*
X183463407Y-97398923D01*
X183464589Y-97397740D01*
X183465560Y-97398923D01*
X183536989Y-97470352D01*
X183548493Y-97479793D01*
X183551088Y-97482785D01*
X183555597Y-97485623D01*
X183559720Y-97489007D01*
X183563381Y-97490523D01*
X183575973Y-97498450D01*
X183718831Y-97569878D01*
X183746294Y-97580388D01*
X183751669Y-97580769D01*
X183756648Y-97582832D01*
X183785912Y-97585714D01*
X184000198Y-97585714D01*
X184029462Y-97582832D01*
X184034440Y-97580769D01*
X184039816Y-97580388D01*
X184067280Y-97569878D01*
X184210137Y-97498450D01*
X184222730Y-97490522D01*
X184226390Y-97489007D01*
X184230509Y-97485625D01*
X184235023Y-97482785D01*
X184237619Y-97479791D01*
X184249121Y-97470352D01*
X184320550Y-97398923D01*
X184329991Y-97387418D01*
X184332983Y-97384824D01*
X184335821Y-97380314D01*
X184339205Y-97376192D01*
X184340721Y-97372530D01*
X184348648Y-97359939D01*
X184420076Y-97217081D01*
X184430586Y-97189618D01*
X184430967Y-97184242D01*
X184433030Y-97179264D01*
X184435912Y-97150000D01*
X184435912Y-96578571D01*
X184433030Y-96549307D01*
X184410632Y-96495235D01*
X184369248Y-96453851D01*
X184315176Y-96431453D01*
X184285912Y-96428571D01*
X182785912Y-96428571D01*
X182756648Y-96431453D01*
X182702576Y-96453851D01*
X182661192Y-96495235D01*
X182638794Y-96549307D01*
X182635912Y-96578571D01*
X182469245Y-96578571D01*
X182469245Y-96328571D01*
X185050828Y-96328571D01*
X185050828Y-96614285D01*
X185053710Y-96643549D01*
X185055773Y-96648529D01*
X185056155Y-96653904D01*
X185066664Y-96681367D01*
X185138093Y-96824224D01*
X185146020Y-96836817D01*
X185147536Y-96840477D01*
X185150917Y-96844596D01*
X185153758Y-96849110D01*
X185156751Y-96851706D01*
X185166191Y-96863208D01*
X185309048Y-97006065D01*
X185331778Y-97024720D01*
X185342081Y-97028987D01*
X185351042Y-97035627D01*
X185378733Y-97045520D01*
X185664447Y-97116949D01*
X185669519Y-97117699D01*
X185671564Y-97118546D01*
X185682583Y-97119631D01*
X185693536Y-97121251D01*
X185695724Y-97120925D01*
X185700828Y-97121428D01*
X186200828Y-97121428D01*
X186205931Y-97120925D01*
X186208119Y-97121251D01*
X186219070Y-97119631D01*
X186230092Y-97118546D01*
X186232136Y-97117699D01*
X186237209Y-97116949D01*
X186522922Y-97045520D01*
X186550613Y-97035627D01*
X186559573Y-97028987D01*
X186569877Y-97024720D01*
X186592608Y-97006065D01*
X186735466Y-96863208D01*
X186744909Y-96851701D01*
X186747899Y-96849109D01*
X186750735Y-96844603D01*
X186754121Y-96840478D01*
X186755638Y-96836814D01*
X186763564Y-96824224D01*
X186834992Y-96681366D01*
X186845502Y-96653903D01*
X186845883Y-96648527D01*
X186847946Y-96643549D01*
X186850828Y-96614285D01*
X186850828Y-96328571D01*
X186847946Y-96299307D01*
X186845883Y-96294328D01*
X186845502Y-96288953D01*
X186834992Y-96261490D01*
X186763564Y-96118632D01*
X186755637Y-96106040D01*
X186754121Y-96102379D01*
X186750737Y-96098256D01*
X186747899Y-96093747D01*
X186744907Y-96091152D01*
X186735466Y-96079648D01*
X186592608Y-95936790D01*
X186569877Y-95918135D01*
X186559573Y-95913867D01*
X186550613Y-95907228D01*
X186522922Y-95897335D01*
X186237208Y-95825907D01*
X186232136Y-95825157D01*
X186230092Y-95824310D01*
X186219069Y-95823224D01*
X186208119Y-95821605D01*
X186205931Y-95821930D01*
X186200828Y-95821428D01*
X185700828Y-95821428D01*
X185695724Y-95821930D01*
X185693537Y-95821605D01*
X185682586Y-95823224D01*
X185671564Y-95824310D01*
X185669519Y-95825157D01*
X185664448Y-95825907D01*
X185378734Y-95897335D01*
X185351043Y-95907228D01*
X185342083Y-95913866D01*
X185331778Y-95918135D01*
X185309048Y-95936790D01*
X185166191Y-96079648D01*
X185156751Y-96091149D01*
X185153758Y-96093746D01*
X185150917Y-96098259D01*
X185147536Y-96102379D01*
X185146020Y-96106038D01*
X185138093Y-96118632D01*
X185066664Y-96261489D01*
X185056155Y-96288952D01*
X185055773Y-96294326D01*
X185053710Y-96299307D01*
X185050828Y-96328571D01*
X182469245Y-96328571D01*
X182469245Y-95654761D01*
X187017495Y-95654761D01*
X187017495Y-107073809D01*
G37*
X168620996Y-98154510D02*
X167120996Y-98154510D01*
X167120996Y-98154510D02*
X167120996Y-98725939D01*
X167120996Y-98725939D02*
X167192425Y-98868796D01*
X167192425Y-98868796D02*
X167263853Y-98940225D01*
X167263853Y-98940225D02*
X167406710Y-99011653D01*
X167406710Y-99011653D02*
X167620996Y-99011653D01*
X167620996Y-99011653D02*
X167763853Y-98940225D01*
X167763853Y-98940225D02*
X167835282Y-98868796D01*
X167835282Y-98868796D02*
X167906710Y-98725939D01*
X167906710Y-98725939D02*
X167906710Y-98154510D01*
X168620996Y-99654510D02*
X167620996Y-99654510D01*
X167906710Y-99654510D02*
X167763853Y-99725939D01*
X167763853Y-99725939D02*
X167692425Y-99797368D01*
X167692425Y-99797368D02*
X167620996Y-99940225D01*
X167620996Y-99940225D02*
X167620996Y-100083082D01*
X168620996Y-100797367D02*
X168549568Y-100654510D01*
X168549568Y-100654510D02*
X168478139Y-100583081D01*
X168478139Y-100583081D02*
X168335282Y-100511653D01*
X168335282Y-100511653D02*
X167906710Y-100511653D01*
X167906710Y-100511653D02*
X167763853Y-100583081D01*
X167763853Y-100583081D02*
X167692425Y-100654510D01*
X167692425Y-100654510D02*
X167620996Y-100797367D01*
X167620996Y-100797367D02*
X167620996Y-101011653D01*
X167620996Y-101011653D02*
X167692425Y-101154510D01*
X167692425Y-101154510D02*
X167763853Y-101225939D01*
X167763853Y-101225939D02*
X167906710Y-101297367D01*
X167906710Y-101297367D02*
X168335282Y-101297367D01*
X168335282Y-101297367D02*
X168478139Y-101225939D01*
X168478139Y-101225939D02*
X168549568Y-101154510D01*
X168549568Y-101154510D02*
X168620996Y-101011653D01*
X168620996Y-101011653D02*
X168620996Y-100797367D01*
X168620996Y-101940224D02*
X167120996Y-101940224D01*
X167120996Y-101940224D02*
X168192425Y-102440224D01*
X168192425Y-102440224D02*
X167120996Y-102940224D01*
X167120996Y-102940224D02*
X168620996Y-102940224D01*
X168620996Y-103654510D02*
X167620996Y-103654510D01*
X167120996Y-103654510D02*
X167192425Y-103583082D01*
X167192425Y-103583082D02*
X167263853Y-103654510D01*
X167263853Y-103654510D02*
X167192425Y-103725939D01*
X167192425Y-103725939D02*
X167120996Y-103654510D01*
X167120996Y-103654510D02*
X167263853Y-103654510D01*
X168549568Y-105011654D02*
X168620996Y-104868796D01*
X168620996Y-104868796D02*
X168620996Y-104583082D01*
X168620996Y-104583082D02*
X168549568Y-104440225D01*
X168549568Y-104440225D02*
X168478139Y-104368796D01*
X168478139Y-104368796D02*
X168335282Y-104297368D01*
X168335282Y-104297368D02*
X167906710Y-104297368D01*
X167906710Y-104297368D02*
X167763853Y-104368796D01*
X167763853Y-104368796D02*
X167692425Y-104440225D01*
X167692425Y-104440225D02*
X167620996Y-104583082D01*
X167620996Y-104583082D02*
X167620996Y-104868796D01*
X167620996Y-104868796D02*
X167692425Y-105011654D01*
X168620996Y-105654510D02*
X167620996Y-105654510D01*
X167906710Y-105654510D02*
X167763853Y-105725939D01*
X167763853Y-105725939D02*
X167692425Y-105797368D01*
X167692425Y-105797368D02*
X167620996Y-105940225D01*
X167620996Y-105940225D02*
X167620996Y-106083082D01*
X168620996Y-106797367D02*
X168549568Y-106654510D01*
X168549568Y-106654510D02*
X168478139Y-106583081D01*
X168478139Y-106583081D02*
X168335282Y-106511653D01*
X168335282Y-106511653D02*
X167906710Y-106511653D01*
X167906710Y-106511653D02*
X167763853Y-106583081D01*
X167763853Y-106583081D02*
X167692425Y-106654510D01*
X167692425Y-106654510D02*
X167620996Y-106797367D01*
X167620996Y-106797367D02*
X167620996Y-107011653D01*
X167620996Y-107011653D02*
X167692425Y-107154510D01*
X167692425Y-107154510D02*
X167763853Y-107225939D01*
X167763853Y-107225939D02*
X167906710Y-107297367D01*
X167906710Y-107297367D02*
X168335282Y-107297367D01*
X168335282Y-107297367D02*
X168478139Y-107225939D01*
X168478139Y-107225939D02*
X168549568Y-107154510D01*
X168549568Y-107154510D02*
X168620996Y-107011653D01*
X168620996Y-107011653D02*
X168620996Y-106797367D01*
X171035912Y-98154510D02*
X169535912Y-98154510D01*
X171035912Y-98797368D02*
X170250198Y-98797368D01*
X170250198Y-98797368D02*
X170107341Y-98725939D01*
X170107341Y-98725939D02*
X170035912Y-98583082D01*
X170035912Y-98583082D02*
X170035912Y-98368796D01*
X170035912Y-98368796D02*
X170107341Y-98225939D01*
X170107341Y-98225939D02*
X170178769Y-98154510D01*
X170964484Y-100083082D02*
X171035912Y-99940225D01*
X171035912Y-99940225D02*
X171035912Y-99654511D01*
X171035912Y-99654511D02*
X170964484Y-99511653D01*
X170964484Y-99511653D02*
X170821626Y-99440225D01*
X170821626Y-99440225D02*
X170250198Y-99440225D01*
X170250198Y-99440225D02*
X170107341Y-99511653D01*
X170107341Y-99511653D02*
X170035912Y-99654511D01*
X170035912Y-99654511D02*
X170035912Y-99940225D01*
X170035912Y-99940225D02*
X170107341Y-100083082D01*
X170107341Y-100083082D02*
X170250198Y-100154511D01*
X170250198Y-100154511D02*
X170393055Y-100154511D01*
X170393055Y-100154511D02*
X170535912Y-99440225D01*
X171035912Y-100797367D02*
X170035912Y-100797367D01*
X170321626Y-100797367D02*
X170178769Y-100868796D01*
X170178769Y-100868796D02*
X170107341Y-100940225D01*
X170107341Y-100940225D02*
X170035912Y-101083082D01*
X170035912Y-101083082D02*
X170035912Y-101225939D01*
X170964484Y-102297367D02*
X171035912Y-102154510D01*
X171035912Y-102154510D02*
X171035912Y-101868796D01*
X171035912Y-101868796D02*
X170964484Y-101725938D01*
X170964484Y-101725938D02*
X170821626Y-101654510D01*
X170821626Y-101654510D02*
X170250198Y-101654510D01*
X170250198Y-101654510D02*
X170107341Y-101725938D01*
X170107341Y-101725938D02*
X170035912Y-101868796D01*
X170035912Y-101868796D02*
X170035912Y-102154510D01*
X170035912Y-102154510D02*
X170107341Y-102297367D01*
X170107341Y-102297367D02*
X170250198Y-102368796D01*
X170250198Y-102368796D02*
X170393055Y-102368796D01*
X170393055Y-102368796D02*
X170535912Y-101654510D01*
X172665114Y-98654510D02*
X172665114Y-98154510D01*
X173450828Y-98154510D02*
X171950828Y-98154510D01*
X171950828Y-98154510D02*
X171950828Y-98868796D01*
X173022257Y-99368796D02*
X173022257Y-100083082D01*
X173450828Y-99225939D02*
X171950828Y-99725939D01*
X171950828Y-99725939D02*
X173450828Y-100225939D01*
X173307971Y-101583081D02*
X173379400Y-101511653D01*
X173379400Y-101511653D02*
X173450828Y-101297367D01*
X173450828Y-101297367D02*
X173450828Y-101154510D01*
X173450828Y-101154510D02*
X173379400Y-100940224D01*
X173379400Y-100940224D02*
X173236542Y-100797367D01*
X173236542Y-100797367D02*
X173093685Y-100725938D01*
X173093685Y-100725938D02*
X172807971Y-100654510D01*
X172807971Y-100654510D02*
X172593685Y-100654510D01*
X172593685Y-100654510D02*
X172307971Y-100725938D01*
X172307971Y-100725938D02*
X172165114Y-100797367D01*
X172165114Y-100797367D02*
X172022257Y-100940224D01*
X172022257Y-100940224D02*
X171950828Y-101154510D01*
X171950828Y-101154510D02*
X171950828Y-101297367D01*
X171950828Y-101297367D02*
X172022257Y-101511653D01*
X172022257Y-101511653D02*
X172093685Y-101583081D01*
X172665114Y-102225938D02*
X172665114Y-102725938D01*
X173450828Y-102940224D02*
X173450828Y-102225938D01*
X173450828Y-102225938D02*
X171950828Y-102225938D01*
X171950828Y-102225938D02*
X171950828Y-102940224D01*
X171950828Y-104725938D02*
X173165114Y-104725938D01*
X173165114Y-104725938D02*
X173307971Y-104797367D01*
X173307971Y-104797367D02*
X173379400Y-104868796D01*
X173379400Y-104868796D02*
X173450828Y-105011653D01*
X173450828Y-105011653D02*
X173450828Y-105297367D01*
X173450828Y-105297367D02*
X173379400Y-105440224D01*
X173379400Y-105440224D02*
X173307971Y-105511653D01*
X173307971Y-105511653D02*
X173165114Y-105583081D01*
X173165114Y-105583081D02*
X171950828Y-105583081D01*
X173450828Y-106297367D02*
X171950828Y-106297367D01*
X171950828Y-106297367D02*
X171950828Y-106868796D01*
X171950828Y-106868796D02*
X172022257Y-107011653D01*
X172022257Y-107011653D02*
X172093685Y-107083082D01*
X172093685Y-107083082D02*
X172236542Y-107154510D01*
X172236542Y-107154510D02*
X172450828Y-107154510D01*
X172450828Y-107154510D02*
X172593685Y-107083082D01*
X172593685Y-107083082D02*
X172665114Y-107011653D01*
X172665114Y-107011653D02*
X172736542Y-106868796D01*
X172736542Y-106868796D02*
X172736542Y-106297367D01*
D11*
X145163220Y-119819819D02*
X145163220Y-118819819D01*
X145163220Y-118819819D02*
X144591792Y-119819819D01*
X144591792Y-119819819D02*
X144591792Y-118819819D01*
X143544173Y-119724580D02*
X143591792Y-119772200D01*
X143591792Y-119772200D02*
X143734649Y-119819819D01*
X143734649Y-119819819D02*
X143829887Y-119819819D01*
X143829887Y-119819819D02*
X143972744Y-119772200D01*
X143972744Y-119772200D02*
X144067982Y-119676961D01*
X144067982Y-119676961D02*
X144115601Y-119581723D01*
X144115601Y-119581723D02*
X144163220Y-119391247D01*
X144163220Y-119391247D02*
X144163220Y-119248390D01*
X144163220Y-119248390D02*
X144115601Y-119057914D01*
X144115601Y-119057914D02*
X144067982Y-118962676D01*
X144067982Y-118962676D02*
X143972744Y-118867438D01*
X143972744Y-118867438D02*
X143829887Y-118819819D01*
X143829887Y-118819819D02*
X143734649Y-118819819D01*
X143734649Y-118819819D02*
X143591792Y-118867438D01*
X143591792Y-118867438D02*
X143544173Y-118915057D01*
X143163220Y-119772200D02*
X143020363Y-119819819D01*
X143020363Y-119819819D02*
X142782268Y-119819819D01*
X142782268Y-119819819D02*
X142687030Y-119772200D01*
X142687030Y-119772200D02*
X142639411Y-119724580D01*
X142639411Y-119724580D02*
X142591792Y-119629342D01*
X142591792Y-119629342D02*
X142591792Y-119534104D01*
X142591792Y-119534104D02*
X142639411Y-119438866D01*
X142639411Y-119438866D02*
X142687030Y-119391247D01*
X142687030Y-119391247D02*
X142782268Y-119343628D01*
X142782268Y-119343628D02*
X142972744Y-119296009D01*
X142972744Y-119296009D02*
X143067982Y-119248390D01*
X143067982Y-119248390D02*
X143115601Y-119200771D01*
X143115601Y-119200771D02*
X143163220Y-119105533D01*
X143163220Y-119105533D02*
X143163220Y-119010295D01*
X143163220Y-119010295D02*
X143115601Y-118915057D01*
X143115601Y-118915057D02*
X143067982Y-118867438D01*
X143067982Y-118867438D02*
X142972744Y-118819819D01*
X142972744Y-118819819D02*
X142734649Y-118819819D01*
X142734649Y-118819819D02*
X142591792Y-118867438D01*
X160035713Y-135168819D02*
X160035713Y-134168819D01*
X160035713Y-134168819D02*
X159702380Y-134883104D01*
X159702380Y-134883104D02*
X159369047Y-134168819D01*
X159369047Y-134168819D02*
X159369047Y-135168819D01*
X158988094Y-134168819D02*
X158321428Y-135168819D01*
X158321428Y-134168819D02*
X158988094Y-135168819D01*
X157988094Y-134264057D02*
X157940475Y-134216438D01*
X157940475Y-134216438D02*
X157845237Y-134168819D01*
X157845237Y-134168819D02*
X157607142Y-134168819D01*
X157607142Y-134168819D02*
X157511904Y-134216438D01*
X157511904Y-134216438D02*
X157464285Y-134264057D01*
X157464285Y-134264057D02*
X157416666Y-134359295D01*
X157416666Y-134359295D02*
X157416666Y-134454533D01*
X157416666Y-134454533D02*
X157464285Y-134597390D01*
X157464285Y-134597390D02*
X158035713Y-135168819D01*
X158035713Y-135168819D02*
X157416666Y-135168819D01*
X154285713Y-69890819D02*
X154285713Y-68890819D01*
X154285713Y-68890819D02*
X153952380Y-69605104D01*
X153952380Y-69605104D02*
X153619047Y-68890819D01*
X153619047Y-68890819D02*
X153619047Y-69890819D01*
X153238094Y-68890819D02*
X152571428Y-69890819D01*
X152571428Y-68890819D02*
X153238094Y-69890819D01*
X151714285Y-68890819D02*
X152190475Y-68890819D01*
X152190475Y-68890819D02*
X152238094Y-69367009D01*
X152238094Y-69367009D02*
X152190475Y-69319390D01*
X152190475Y-69319390D02*
X152095237Y-69271771D01*
X152095237Y-69271771D02*
X151857142Y-69271771D01*
X151857142Y-69271771D02*
X151761904Y-69319390D01*
X151761904Y-69319390D02*
X151714285Y-69367009D01*
X151714285Y-69367009D02*
X151666666Y-69462247D01*
X151666666Y-69462247D02*
X151666666Y-69700342D01*
X151666666Y-69700342D02*
X151714285Y-69795580D01*
X151714285Y-69795580D02*
X151761904Y-69843200D01*
X151761904Y-69843200D02*
X151857142Y-69890819D01*
X151857142Y-69890819D02*
X152095237Y-69890819D01*
X152095237Y-69890819D02*
X152190475Y-69843200D01*
X152190475Y-69843200D02*
X152238094Y-69795580D01*
X154000000Y-131764000D02*
X154500000Y-131264000D01*
X154000000Y-135264000D02*
X154500000Y-135764000D01*
X154500000Y-131264000D02*
X157500000Y-131264000D01*
X154500000Y-135764000D02*
X157000000Y-135764000D01*
X157500000Y-131264000D02*
X158000000Y-131764000D01*
X158000000Y-132764000D02*
X158000000Y-131764000D01*
X158500000Y-137264000D02*
X158500000Y-137964000D01*
X158500000Y-137964000D02*
X163000000Y-137964000D01*
X163000000Y-133264000D02*
X158500000Y-133264000D01*
X163000000Y-133864000D02*
X163000000Y-133264000D01*
X163000000Y-137964000D02*
X163000000Y-137464000D01*
X157000000Y-135764000D02*
G75*
G02*
X158500000Y-137264000I-1J-1500001D01*
G01*
X158500000Y-133264000D02*
G75*
G02*
X158000000Y-132764000I1J500001D01*
G01*
X149000000Y-65936000D02*
X149000000Y-66436000D01*
X149000000Y-70036000D02*
X149000000Y-70636000D01*
X149000000Y-70636000D02*
X153500000Y-70636000D01*
X153500000Y-65936000D02*
X149000000Y-65936000D01*
X153500000Y-66636000D02*
X153500000Y-65936000D01*
X154000000Y-71136000D02*
X154000000Y-72136000D01*
X154500000Y-72636000D02*
X154000000Y-72136000D01*
X157500000Y-68136000D02*
X155000000Y-68136000D01*
X157500000Y-72636000D02*
X154500000Y-72636000D01*
X158000000Y-68636000D02*
X157500000Y-68136000D01*
X158000000Y-72136000D02*
X157500000Y-72636000D01*
X153500000Y-70636000D02*
G75*
G02*
X154000000Y-71136000I-1J-500001D01*
G01*
X155000000Y-68136000D02*
G75*
G02*
X153500000Y-66636000I1J1500001D01*
G01*
D12*
X182660000Y-109200000D03*
D13*
X180120000Y-109200000D03*
X177580000Y-109200000D03*
X175040000Y-109200000D03*
X172500000Y-109200000D03*
X169960000Y-109200000D03*
X167420000Y-109200000D03*
X164880000Y-109200000D03*
X162340000Y-109200000D03*
X159800000Y-109200000D03*
X157260000Y-109200000D03*
X154720000Y-109200000D03*
X154720000Y-93960000D03*
X157260000Y-93960000D03*
X159800000Y-93960000D03*
X162340000Y-93960000D03*
X164880000Y-93960000D03*
X167420000Y-93960000D03*
X169960000Y-93960000D03*
X172500000Y-93960000D03*
X175040000Y-93960000D03*
X177580000Y-93960000D03*
X180120000Y-93960000D03*
X182660000Y-93960000D03*
M02*
