G04 #@! TF.GenerationSoftware,KiCad,Pcbnew,9.0.2*
G04 #@! TF.CreationDate,2025-10-02T21:32:23-04:00*
G04 #@! TF.ProjectId,Trackball,54726163-6b62-4616-9c6c-2e6b69636164,rev?*
G04 #@! TF.SameCoordinates,Original*
G04 #@! TF.FileFunction,Profile,NP*
%FSLAX46Y46*%
G04 Gerber Fmt 4.6, Leading zero omitted, Abs format (unit mm)*
G04 Created by KiCad (PCBNEW 9.0.2) date 2025-10-02 21:32:23*
%MOMM*%
%LPD*%
G01*
G04 APERTURE LIST*
G04 #@! TA.AperFunction,Profile*
%ADD10C,0.050000*%
G04 #@! TD*
G04 APERTURE END LIST*
D10*
X149150000Y-97200000D02*
G75*
G02*
X147320241Y-95399672I0J1830000D01*
G01*
X149150000Y-97200000D02*
X149400000Y-97200000D01*
X147430143Y-111097808D02*
G75*
G02*
X149150000Y-109400000I1719857J-22192D01*
G01*
X187402799Y-59597223D02*
X187447219Y-143623303D01*
X124900000Y-63958709D02*
G75*
G02*
X119804822Y-77294602I-20000000J9D01*
G01*
X119804827Y-125905394D02*
G75*
G02*
X124900006Y-139241291I-14904827J-13335906D01*
G01*
X174150000Y-89850000D02*
G75*
G02*
X173150000Y-90850000I-1000000J0D01*
G01*
X129400000Y-113849999D02*
X129400000Y-89350000D01*
X124900000Y-143600000D02*
X124900000Y-139241291D01*
X146430038Y-114850000D02*
X130400000Y-114849999D01*
X130400000Y-114849999D02*
G75*
G02*
X129400001Y-113849999I0J999999D01*
G01*
X159692893Y-89892893D02*
G75*
G02*
X158692893Y-90892893I-999993J-7D01*
G01*
X124900000Y-59600000D02*
G75*
G02*
X129900000Y-54600000I5000000J0D01*
G01*
X147430143Y-111097822D02*
X147430038Y-113850038D01*
X149150000Y-109400000D02*
X149400000Y-109400000D01*
X174150000Y-86850000D02*
X174150000Y-89850000D01*
X147320241Y-95399698D02*
X147320034Y-89349966D01*
X173150000Y-90850000D02*
G75*
G02*
X172150000Y-89850000I0J1000000D01*
G01*
X173150000Y-85850000D02*
G75*
G02*
X174150000Y-86850000I0J-1000000D01*
G01*
X129900000Y-54600000D02*
X182400000Y-54600000D01*
X150400000Y-108400000D02*
G75*
G02*
X149400000Y-109400000I-1000000J0D01*
G01*
X147430038Y-113850038D02*
G75*
G02*
X146430038Y-114850038I-1000038J38D01*
G01*
X119804827Y-77294606D02*
X116400001Y-81100000D01*
X159692893Y-86892893D02*
X159692893Y-89892893D01*
X146320034Y-88350000D02*
X130400000Y-88350000D01*
X146320034Y-88350000D02*
G75*
G02*
X147320100Y-89349966I-34J-1000100D01*
G01*
X157692893Y-89892893D02*
X157692893Y-86892893D01*
X157692893Y-86892893D02*
G75*
G02*
X158692893Y-85892893I1000007J-7D01*
G01*
X129900000Y-148600000D02*
G75*
G02*
X124900000Y-143600000I0J5000000D01*
G01*
X116400000Y-122100000D02*
G75*
G02*
X116400000Y-81100000I23162440J20500000D01*
G01*
X182402776Y-54600000D02*
G75*
G02*
X187402799Y-59597223I24J-5000000D01*
G01*
X149400000Y-97200000D02*
G75*
G02*
X150400000Y-98200000I0J-1000000D01*
G01*
X124900000Y-59600000D02*
X124900000Y-63958709D01*
X150400000Y-98200000D02*
X150400000Y-108400000D01*
X160903330Y-124600000D02*
G75*
G02*
X157896670Y-124600000I-1503330J0D01*
G01*
X157896670Y-124600000D02*
G75*
G02*
X160903330Y-124600000I1503330J0D01*
G01*
X119804827Y-125905394D02*
X116400001Y-122100000D01*
X129400000Y-89350000D02*
G75*
G02*
X130400000Y-88350000I1000000J0D01*
G01*
X172150000Y-86850000D02*
G75*
G02*
X173150000Y-85850000I1000000J0D01*
G01*
X129900000Y-148600000D02*
X182400000Y-148600000D01*
X158692893Y-85892893D02*
G75*
G02*
X159692907Y-86892893I7J-1000007D01*
G01*
X172150000Y-89850000D02*
X172150000Y-86850000D01*
X150150000Y-111120000D02*
G75*
G02*
X148150000Y-111120000I-1000000J0D01*
G01*
X148150000Y-111120000D02*
G75*
G02*
X150150000Y-111120000I1000000J0D01*
G01*
X158692893Y-90892893D02*
G75*
G02*
X157692907Y-89892893I7J999993D01*
G01*
X160900000Y-78600000D02*
G75*
G02*
X157900000Y-78600000I-1500000J0D01*
G01*
X157900000Y-78600000D02*
G75*
G02*
X160900000Y-78600000I1500000J0D01*
G01*
X150150000Y-95370000D02*
G75*
G02*
X148150000Y-95370000I-1000000J0D01*
G01*
X148150000Y-95370000D02*
G75*
G02*
X150150000Y-95370000I1000000J0D01*
G01*
X187447219Y-143623303D02*
G75*
G02*
X182400000Y-148599996I-4876959J-101647D01*
G01*
M02*
